<svg xmlns="http://www.w3.org/2000/svg" viewBox="0 0 644.9 658.6"><defs><style>.cls-1{fill:#334451;}.cls-2{fill:#71daff;}.cls-3{fill:#fff;}.cls-4{fill:#b3b3b3;}</style></defs><title>account-mgr</title><g id="Layer_2" data-name="Layer 2"><g id="Layer_6" data-name="Layer 6"><path class="cls-1" d="M337.74,468.69l-.24.17-5.92,4.2c1.54.95,3.2,2,5,3.21,3.06,2.08,6.4,4.54,9.86,7.4A124.46,124.46,0,0,1,360.25,497l-2.56,7.91L355.06,513l-6.22,19.17H290.48l-6-20.06-2.46-8.26-2.39-8a125.56,125.56,0,0,1,12.82-12.17c3.46-2.86,6.8-5.32,9.86-7.4,1.76-1.2,3.42-2.26,5-3.21l-5.92-4.2"/><path class="cls-1" d="M644.9,658.56H400L420.5,518.15l2-13.74,2-13.76h0l26.61-33.35c2.42.71,4.82,1.45,7.2,2.2s4.75,1.53,7.1,2.32C571.78,497.68,644.9,572.3,644.9,658.56Z"/><path class="cls-1" d="M235.33,658.56H0c0-85,71-158.67,174.74-195.15,2.33-.81,4.67-1.61,7-2.39s4.74-1.54,7.13-2.29l26.82,33.62h0l1.55,13.18,1.55,13.16Z"/><path class="cls-2" d="M313.5,468.86l5.95,4.22,5.94-4.22ZM409.87,409h0l-.48-8.23L407.3,364.8l-.6-10.43-.63-10.84q-3.15,4.52-6.51,8.69-3.19,4-6.56,7.67l.55,9.43.53,9.26,1.84,31.71.48,8.23.48,8.24,13.46-9.54Zm-90.42,64.1,5.94-4.22H313.5Zm17.09,3.19c-1.76-1.2-3.42-2.26-5-3.21l5.92-4.2H301.39l5.92,4.2c-1.54.95-3.2,2-5,3.21-3.06,2.08-6.4,4.54-9.86,7.4H346.4C342.94,480.81,339.6,478.35,336.54,476.27Zm-92.1-114.78q-3.3-3.48-6.46-7.29l-.75,9.77-.73,9.41L234.13,404l-.63,8.13-.63,8.13,6.66,4.72,6.66,4.72.63-8.13.63-8.13,2.18-28.26.66-8.51.68-8.75Q247.64,364.88,244.44,361.49ZM313.5,468.86l5.95,4.22,5.94-4.22Z"/><path class="cls-3" d="M477,196.25c-5.64-2-12-.71-18.2,3.05a43,43,0,0,0-6.17,4.57C452.16,95,392,7,317.94,7,244.73,7,185.16,92.92,183.26,200a34.13,34.13,0,0,0-3.11-1.8c-5.55-2.86-11.12-3.66-16.14-1.92-15.44,5.38-19.94,32.78-10,61.2,9.78,28.11,30,46.68,45.36,41.88,9.32,25.39,22.3,47.45,37.9,64.64q3.18,3.51,6.5,6.73t6.56,6c19.88,17,43,26.78,67.65,26.78,28,0,54.06-12.6,75.61-34.15q3.38-3.36,6.6-7t6.55-7.92c12.44-16.05,22.86-35.42,30.61-57.16a16.68,16.68,0,0,0,3.88,2c15.45,5.37,36-13.31,45.88-41.73S492.47,201.63,477,196.25Zm3.43,58.9c-4.41,12.66-11.14,23.55-19,30.66-6.58,6-13.14,8.45-18,6.76a9.91,9.91,0,0,1-2.24-1.15l-7.49-5.09-3,8.53a205.32,205.32,0,0,1-24.65,48.67q-3.15,4.52-6.51,8.69-3.19,4-6.56,7.67c-21.45,23.39-47.58,36.58-75.06,36.58-24.06,0-47.16-10.19-67-28.53q-3.33-3.06-6.53-6.45T238,354.2c-12.87-15.5-23.84-34.84-32.08-57.28l-2.29-6.26-6.36,2c-10.08,3.14-27.62-11.49-36.67-37.5-9.21-26.44-4.37-48.77,5.73-52.29,4.6-1.6,9.69.73,13.14,3l3,1.93c5,20.1,9.8,33.51,9.8,33.51C204.46,136.58,248.55,107,248.55,107c2.62,27.46,43.23,48.48,43.23,48.48,50.21,26.6,85.57,1.29,85.57,1.29-29.69,7.72-55.88-2.15-55.88-2.15-6.55-8.15,7-6.29,7-6.29,20.38,3.43,78.59-4,78.59-4,37.84,9.15,39.3,97,39.3,97,4-10.88,7.21-21.27,9.83-31.17l1.11-1c6.39-5.62,12.75-7.9,17.44-6.27h0c4.86,1.69,8.47,7.7,9.91,16.48C486.35,229.77,484.87,242.48,480.46,255.15Z"/><path class="cls-2" d="M498.46,217.07c-2.33-14.2-9.13-23.95-19.13-27.43-5.87-2-12.23-1.7-18.65.91-.45.17-.89.37-1.34.57-2.29-49.27-16.54-95.19-40.66-130.46C400,33.27,376.79,14.5,351.48,5.7A102,102,0,0,0,317.94,0c-25.54,0-50.05,9.66-71.48,27.79a163.59,163.59,0,0,0-28.34,31.55C194.82,92.78,180.47,136.23,177,183.1q-.24,3.09-.4,6.19a24.83,24.83,0,0,0-14.92.35c-19.39,6.75-25.69,37.54-14.36,70.11,10.05,28.86,29.56,47.77,47.45,47.35,10.54,26.74,24.85,49.2,41.7,66.28q3.19,3.25,6.54,6.25t6.59,5.57c20.53,16.31,43.92,25.27,68.31,25.27,27.6,0,53.86-11.4,76.14-31.89q3.38-3.1,6.64-6.49t6.58-7.29c13.55-15.91,25.14-35.56,34-58.31,9.4,2.2,19.8-1.41,29.6-10.33,9.52-8.65,17.6-21.58,22.76-36.41S500.54,229.76,498.46,217.07Zm-18,38.08c-4.41,12.66-11.14,23.55-19,30.66-6.58,6-13.14,8.45-18,6.76a9.91,9.91,0,0,1-2.24-1.15l-7.49-5.09-3,8.53a205.32,205.32,0,0,1-24.65,48.67q-3.15,4.52-6.51,8.69-3.19,4-6.56,7.67c-21.45,23.39-47.58,36.58-75.06,36.58-24.06,0-47.16-10.19-67-28.53q-3.33-3.06-6.53-6.45T238,354.2c-12.87-15.5-23.84-34.84-32.08-57.28l-2.29-6.26-6.36,2c-10.08,3.14-27.62-11.49-36.67-37.5-9.21-26.44-4.37-48.77,5.73-52.29,4.6-1.6,9.69.73,13.14,3l3,1.93,7.61,4.94.22-12.62c.89-50.46,14.87-97.61,39.34-132.75,24-34.4,55.34-53.34,88.34-53.34,69.95,0,127.24,85.19,127.72,189.9l.07,15.38,10.44-9.17,1.11-1c6.39-5.62,12.75-7.9,17.44-6.27h0c4.86,1.69,8.47,7.7,9.91,16.48C486.35,229.77,484.87,242.48,480.46,255.15Z"/><path class="cls-1" d="M460.68,190.55c-.56,2.87-1.17,5.79-1.85,8.75q-1.2,5.31-2.66,10.81c-2.62,9.9-5.87,20.29-9.83,31.17,0,0-1.46-87.82-39.3-97,0,0-58.21,7.43-78.59,4,0,0-13.53-1.86-7,6.29,0,0,26.19,9.87,55.88,2.15,0,0-35.36,25.31-85.57-1.29,0,0-40.61-21-43.23-48.48,0,0-44.09,29.6-56.32,134.3,0,0-4.79-13.41-9.8-33.51-.76-3.06-1.52-6.27-2.28-9.6-1.08-4.78-2.14-9.83-3.12-15.07-11.58-61.47-13.62-150.25,69.43-155.31,1.4-.09,2.83-.15,4.28-.19,0,0,36.42-35.79,100.74-21.9,22.5,4.86,48.42,15.8,77.39,36.49C428.87,42.19,481.19,85.78,460.68,190.55Z"/><path class="cls-4" d="M325.44,468.86l0,0-.16-.15a7.34,7.34,0,0,0-.69-.56l-5.12-3.63-72-51-6.66-4.72L234.13,404l-11.26-8a7,7,0,0,0-9.61,1.47l-41.19,54.06a7,7,0,0,0,.09,8.61l2.58,3.23,44.1,55.3,34.42,43.16a7,7,0,0,0,5.47,2.64,6.86,6.86,0,0,0,1.95-.28,7,7,0,0,0,5-6,90.78,90.78,0,0,1,18.83-46.13A116.69,116.69,0,0,1,317,483.67c.91-.53,1.74-1,2.48-1.42,2.37-1.31,3.82-2,3.92-2a6.91,6.91,0,0,0,2.79-2.24,7.32,7.32,0,0,0,1.33-3.46A7,7,0,0,0,325.44,468.86Zm-32.95,14.81a125.56,125.56,0,0,0-12.82,12.17,107.41,107.41,0,0,0-25,45.31l-38.9-48.78h0l-26.82-33.62-2.4-3,33.79-44.35,12.57,8.91,6.66,4.72,6.66,4.72h0l55,39,.24.17,5.92,4.2c-1.54.95-3.2,2-5,3.21C299.29,478.35,296,480.81,292.49,483.67Z"/><path class="cls-3" d="M420.06,401.75,409.87,409h0l-6.74,4.77-6.73,4.77-70.77,50.17-.21.15,0,0-5.94,4.22-1.08.76,1.08.51c.82.4,2.08,1,3.68,1.92.9.5,1.91,1.07,3,1.73,2.48,1.48,5.43,3.36,8.66,5.67a121.34,121.34,0,0,1,22.88,21.23,98.44,98.44,0,0,1,22.47,52.61l42.35-53.1,35.83-44.93,2.92-3.66Zm4.47,88.88h0l-40.27,50.5a107.08,107.08,0,0,0-24-44.16,124.46,124.46,0,0,0-13.85-13.32c-3.46-2.86-6.8-5.32-9.86-7.4-1.76-1.2-3.42-2.26-5-3.21l5.92-4.2.24-.17,59.14-41.93,13.46-9.54,8.25-5.85,33.79,44.35-1.24,1.56Z"/><path class="cls-4" d="M466.82,451.57l-41.19-54.06A7,7,0,0,0,416,396l-6.63,4.7-6.74,4.77h0l-6.73,4.77L319.45,464.5l-5.13,3.63a7.34,7.34,0,0,0-.69.56l-.16.15,0,0a7,7,0,0,0-2,5.67,6.78,6.78,0,0,0,.4,1.74,7.15,7.15,0,0,0,3.72,4c.09,0,1.53.7,3.91,2,.74.41,1.58.89,2.49,1.42A116.79,116.79,0,0,1,355.06,513a90.7,90.7,0,0,1,18.14,45.24,7,7,0,0,0,5,6,6.86,6.86,0,0,0,2,.28,7,7,0,0,0,5.47-2.64l34.87-43.72,44.94-56.35,1.29-1.62A7,7,0,0,0,466.82,451.57Zm-15.68,5.71-26.61,33.35h0l-40.27,50.5a107.08,107.08,0,0,0-24-44.16,124.46,124.46,0,0,0-13.85-13.32c-3.46-2.86-6.8-5.32-9.86-7.4-1.76-1.2-3.42-2.26-5-3.21l5.92-4.2.24-.17,59.14-41.93,13.46-9.54,8.25-5.85,33.79,44.35Z"/><polygon class="cls-1" points="357.19 658.6 280.82 658.6 296.69 525.33 343.03 525.33 357.19 658.6"/></g></g></svg>