<svg xmlns="http://www.w3.org/2000/svg" xmlns:xlink="http://www.w3.org/1999/xlink" viewBox="0 0 523.67 475.33"><defs><style>.cls-1,.cls-4{fill:#fff;}.cls-1,.cls-5{stroke:#65c8d0;stroke-miterlimit:10;stroke-width:3px;}.cls-2{fill:#65c8d0;}.cls-3{fill:url(#linear-gradient);}.cls-5{fill:none;}.cls-6{fill:url(#linear-gradient-2);}.cls-7{fill:#9eefc7;}.cls-8{fill:url(#linear-gradient-3);}.cls-9{fill:url(#linear-gradient-4);}.cls-10{fill:url(#linear-gradient-5);}.cls-11{fill:#fc9e99;}.cls-12{fill:url(#linear-gradient-6);}.cls-13{fill:#ffd4a1;}.cls-14{fill:url(#linear-gradient-7);}.cls-15{fill:#d2446f;}.cls-16{fill:url(#linear-gradient-8);}.cls-17{fill:url(#linear-gradient-9);}.cls-18{fill:url(#linear-gradient-10);}.cls-19{fill:url(#linear-gradient-11);}.cls-20{fill:url(#linear-gradient-12);}.cls-21{fill:url(#linear-gradient-13);}.cls-22{fill:url(#linear-gradient-14);}.cls-23{fill:url(#linear-gradient-15);}.cls-24{fill:url(#linear-gradient-16);}.cls-25{fill:url(#Gradiente_sem_nome_14);}.cls-26{fill:url(#Gradiente_sem_nome_14-2);}.cls-27{fill:url(#Gradiente_sem_nome_15);}.cls-28{fill:url(#linear-gradient-17);}.cls-29{fill:#ff668b;}.cls-30{fill:#3d325e;}.cls-31{fill:#56edb0;}</style><linearGradient id="linear-gradient" x1="298.48" y1="67.58" x2="326.04" y2="24.64" gradientUnits="userSpaceOnUse"><stop offset="0" stop-color="#fcb604"/><stop offset="0.45" stop-color="#d06a63"/><stop offset="1" stop-color="#960adf"/></linearGradient><linearGradient id="linear-gradient-2" x1="370.72" y1="139.82" x2="398.28" y2="96.88" xlink:href="#linear-gradient"/><linearGradient id="linear-gradient-3" x1="-101.89" y1="838.27" x2="373.2" y2="15.39" gradientUnits="userSpaceOnUse"><stop offset="0.01" stop-color="#ce4572"/><stop offset="0.18" stop-color="#d94d73"/><stop offset="0.7" stop-color="#f56174"/><stop offset="1" stop-color="#ff6975"/></linearGradient><linearGradient id="linear-gradient-4" x1="191.89" y1="492.25" x2="316.16" y2="277.01" gradientUnits="userSpaceOnUse"><stop offset="0.01" stop-color="#ce4572"/><stop offset="0.28" stop-color="#d64b73"/><stop offset="0.72" stop-color="#ed5b74"/><stop offset="1" stop-color="#ff6975"/></linearGradient><linearGradient id="linear-gradient-5" x1="312.88" y1="245.18" x2="240.51" y2="273.75" gradientUnits="userSpaceOnUse"><stop offset="0.01" stop-color="#fed6a3"/><stop offset="0.22" stop-color="#fecaa1"/><stop offset="0.7" stop-color="#fdb39d"/><stop offset="1" stop-color="#fdab9b"/></linearGradient><linearGradient id="linear-gradient-6" x1="234.66" y1="198.68" x2="301.88" y2="221.45" gradientUnits="userSpaceOnUse"><stop offset="0" stop-color="#fdab9b"/><stop offset="0.3" stop-color="#fdb39d"/><stop offset="0.78" stop-color="#fecaa1"/><stop offset="0.99" stop-color="#fed6a3"/></linearGradient><linearGradient id="linear-gradient-7" x1="235.36" y1="207.42" x2="302.51" y2="168.65" gradientUnits="userSpaceOnUse"><stop offset="0" stop-color="#40096e"/><stop offset="1" stop-color="#866cb8"/></linearGradient><linearGradient id="linear-gradient-8" x1="252.09" y1="419.57" x2="252.09" y2="213.02" gradientUnits="userSpaceOnUse"><stop offset="0" stop-color="#8cc6ff"/><stop offset="1" stop-color="#fefefe"/></linearGradient><linearGradient id="linear-gradient-9" x1="299.18" y1="419.57" x2="299.18" y2="213.02" xlink:href="#linear-gradient-8"/><linearGradient id="linear-gradient-10" x1="345.86" y1="444.96" x2="738" y2="-234.24" gradientUnits="userSpaceOnUse"><stop offset="0.01" stop-color="#ce4572"/><stop offset="0.04" stop-color="#d94d73"/><stop offset="0.12" stop-color="#f56174"/><stop offset="0.17" stop-color="#ff6975"/></linearGradient><linearGradient id="linear-gradient-11" x1="330.14" y1="488.92" x2="439.27" y2="299.9" xlink:href="#linear-gradient-4"/><linearGradient id="linear-gradient-12" x1="249.69" y1="492.85" x2="294.63" y2="415.02" gradientUnits="userSpaceOnUse"><stop offset="0.4" stop-color="#fdab9b"/><stop offset="0.58" stop-color="#fdb39d"/><stop offset="0.87" stop-color="#fecaa1"/><stop offset="0.99" stop-color="#fed6a3"/></linearGradient><linearGradient id="linear-gradient-13" x1="-821.79" y1="466" x2="-803.49" y2="241.85" gradientTransform="matrix(-1, 0, 0, 1, -685.99, 0)" gradientUnits="userSpaceOnUse"><stop offset="0" stop-color="#001462"/><stop offset="0.12" stop-color="#0f2880"/><stop offset="0.27" stop-color="#1e3c9e"/><stop offset="0.42" stop-color="#294bb6"/><stop offset="0.59" stop-color="#3256c7"/><stop offset="0.77" stop-color="#365dd1"/><stop offset="1" stop-color="#385fd4"/></linearGradient><linearGradient id="linear-gradient-14" x1="461.29" y1="411.14" x2="516.11" y2="411.14" gradientUnits="userSpaceOnUse"><stop offset="0" stop-color="#22b573"/><stop offset="0.1" stop-color="#2db576"/><stop offset="0.28" stop-color="#4bb580"/><stop offset="0.51" stop-color="#7bb48f"/><stop offset="0.78" stop-color="#bdb4a3"/><stop offset="1" stop-color="#f6b3b5"/></linearGradient><linearGradient id="linear-gradient-15" x1="455.74" y1="388.88" x2="480.62" y2="388.88" xlink:href="#linear-gradient-14"/><linearGradient id="linear-gradient-16" x1="410.29" y1="405.08" x2="458.5" y2="405.08" xlink:href="#linear-gradient-14"/><linearGradient id="Gradiente_sem_nome_14" x1="542.7" y1="444.22" x2="375.63" y2="444.22" gradientUnits="userSpaceOnUse"><stop offset="0" stop-color="#0060ff"/><stop offset="0.09" stop-color="#0b64fc"/><stop offset="0.25" stop-color="#296ef3"/><stop offset="0.45" stop-color="#597ee4"/><stop offset="0.7" stop-color="#9c94d0"/><stop offset="0.98" stop-color="#f0b1b7"/><stop offset="1" stop-color="#f6b3b5"/></linearGradient><linearGradient id="Gradiente_sem_nome_14-2" x1="573.04" y1="422.87" x2="392.12" y2="422.87" xlink:href="#Gradiente_sem_nome_14"/><linearGradient id="Gradiente_sem_nome_15" x1="269.06" y1="469.95" x2="283.31" y2="427.99" gradientTransform="matrix(1, 0, 0, 1, 0, 0)" xlink:href="#linear-gradient-13"/><linearGradient id="linear-gradient-17" x1="442.25" y1="210.27" x2="469.81" y2="167.33" xlink:href="#linear-gradient"/></defs><title>account-manager</title><g id="Layer_2" data-name="Layer 2"><g id="Layer_1-2" data-name="Layer 1"><rect class="cls-1" x="250.61" y="1.5" width="123.28" height="121.88" rx="13.76"/><path class="cls-2" d="M304.89,82.41H284.76a1.44,1.44,0,0,1,0-2.88h20.13a1.44,1.44,0,0,1,0,2.88Z"/><path class="cls-2" d="M340.11,82.41H312.8a1.44,1.44,0,0,1,0-2.88h27.31a1.44,1.44,0,0,1,0,2.88Z"/><path class="cls-2" d="M331.49,89.6H320a1.44,1.44,0,0,1,0-2.88h11.51a1.44,1.44,0,0,1,0,2.88Z"/><path class="cls-2" d="M313.51,89.6h-18a1.44,1.44,0,0,1,0-2.88h18a1.44,1.44,0,0,1,0,2.88Z"/><path class="cls-2" d="M342.93,100.15a.74.74,0,0,0-.33-.55,1,1,0,0,0-.81,0l-1.13.39L331,103.37a1.38,1.38,0,0,0-.45.31l-.11.11-.3.24.26.28.1.12a1.34,1.34,0,0,0,.38.37l1.79,1c.76.41,1.51.83,2.26,1.25a1.35,1.35,0,0,1,.48.47c.39.69.76,1.38,1.14,2.07s.69,1.25,1,1.88a1.65,1.65,0,0,0,.42.45l.16.14.31.3.24-.36.12-.17a2,2,0,0,0,.29-.5q1.59-4.55,3.16-9.1l.49-1.43c0-.09.07-.19.1-.28l.08-.26Zm-3.18,1.59-.86.87q-1.56,1.55-3.11,3.12c-.16.16-.18.15-.33.06-.83-.47-1.66-.92-2.54-1.4l-.31-.17Zm.89,1.1-2.42,7-.07-.13-1.58-2.89C337.85,105.54,339.2,104.18,340.64,102.84Z"/><path class="cls-2" d="M292.56,99.81a3.75,3.75,0,0,0-4.63,1.47l-.16-.23a3.48,3.48,0,0,0-2.25-1.44,4,4,0,0,0-3.54,1.07,4,4,0,0,0-1.05,3.61,6.47,6.47,0,0,0,2,3.5c.81.8,1.66,1.59,2.48,2.34l1.25,1.16c.6.57,1,.85,1.31.85s.71-.28,1.31-.84l1-1c1-.9,2-1.83,2.92-2.79a6,6,0,0,0,1.78-3.42A3.9,3.9,0,0,0,292.56,99.81ZM283.83,101a2.8,2.8,0,0,1,1-.18,2.49,2.49,0,0,1,2.07,1.21l.24.42.21.36a.79.79,0,0,0,.62.43h0a.79.79,0,0,0,.62-.43c.08-.13.16-.26.23-.39s.24-.4.38-.59a2.33,2.33,0,0,1,2.6-.91,2.55,2.55,0,0,1,1.91,2.09,3.8,3.8,0,0,1-.9,3,23.68,23.68,0,0,1-2,2.19c-.67.64-1.35,1.26-2.08,1.91l-.73.65-1.06-1c-1-.93-2-1.88-3-2.84a5.12,5.12,0,0,1-1.66-3.08A2.6,2.6,0,0,1,283.83,101Z"/><path class="cls-2" d="M312.28,99.52h0a6.31,6.31,0,0,0,0,12.62h0a6.31,6.31,0,0,0,0-12.62Zm5,6.32a5,5,0,0,1-5,5h0a5,5,0,0,1,0-10h0A5,5,0,0,1,317.29,105.84Z"/><path class="cls-2" d="M315.36,105.44a1,1,0,0,0-.38-.26,1.23,1.23,0,0,0-.46,0h-1.61v-.72c0-.41,0-.81,0-1.22a.82.82,0,0,0-.24-.48l-.07-.09-.26-.39-.31.36a.6.6,0,0,1-.08.08,1.3,1.3,0,0,0-.27.36,1,1,0,0,0,0,.45v1.65H311a11.71,11.71,0,0,0-1.18,0,1,1,0,0,0-.54.24.47.47,0,0,1-.12.09l-.56.33.72.38a2.15,2.15,0,0,0,.43.21,1.09,1.09,0,0,0,.43,0h1.47v.26c0,.54,0,1.06,0,1.58a1.06,1.06,0,0,0,.21.52.83.83,0,0,1,.08.12l.3.57.33-.56a.83.83,0,0,1,.08-.12,1,1,0,0,0,.25-.55c0-.51,0-1,0-1.57v-.25h.7c.42,0,.85,0,1.28,0a.74.74,0,0,0,.48-.27l.08-.08.37-.28-.37-.29Z"/><path class="cls-3" d="M312.26,71.63a25.52,25.52,0,1,1,25.52-25.52A25.55,25.55,0,0,1,312.26,71.63Zm0-48.17A22.65,22.65,0,1,0,334.9,46.11,22.67,22.67,0,0,0,312.26,23.46Z"/><rect class="cls-4" x="320.36" y="71.25" width="128.28" height="126.88" rx="16.26"/><path class="cls-4" d="M432.39,73.75A13.74,13.74,0,0,1,446.14,87.5v94.37a13.75,13.75,0,0,1-13.75,13.76H336.62a13.76,13.76,0,0,1-13.76-13.76V87.5a13.75,13.75,0,0,1,13.76-13.75h95.77m0-5H336.62A18.77,18.77,0,0,0,317.86,87.5v94.37a18.78,18.78,0,0,0,18.76,18.76h95.77a18.78,18.78,0,0,0,18.75-18.76V87.5a18.77,18.77,0,0,0-18.75-18.75Z"/><rect class="cls-5" x="322.86" y="73.75" width="123.28" height="121.88" rx="13.76"/><path class="cls-2" d="M378.21,155.73H358.08a1.44,1.44,0,0,1,0-2.87h20.13a1.44,1.44,0,1,1,0,2.87Z"/><path class="cls-2" d="M413.44,155.73H386.12a1.44,1.44,0,1,1,0-2.87h27.32a1.44,1.44,0,0,1,0,2.87Z"/><path class="cls-2" d="M404.81,162.92h-11.5a1.44,1.44,0,0,1,0-2.88h11.5a1.44,1.44,0,0,1,0,2.88Z"/><path class="cls-2" d="M386.84,162.92h-18a1.44,1.44,0,1,1,0-2.88h18a1.44,1.44,0,0,1,0,2.88Z"/><path class="cls-2" d="M415.18,171.67a.73.73,0,0,0-.34-.54.92.92,0,0,0-.81,0l-1.13.39c-3.22,1.12-6.45,2.23-9.67,3.36a1.12,1.12,0,0,0-.44.31l-.12.1-.3.24.26.28a.64.64,0,0,1,.1.13,1.54,1.54,0,0,0,.39.37l1.79,1,2.25,1.24a1.3,1.3,0,0,1,.48.48c.39.68.77,1.37,1.15,2.06s.68,1.26,1,1.88a1.59,1.59,0,0,0,.43.46c.05,0,.11.09.15.14l.32.3.24-.37.11-.16a1.75,1.75,0,0,0,.3-.5l3.15-9.1.5-1.44.09-.28.09-.26Zm-3.18,1.6-.87.86-3.1,3.12c-.17.17-.18.16-.34.07-.82-.47-1.65-.92-2.53-1.4l-.32-.17Zm.89,1.1-2.43,7-.07-.13c-.55-1-1.08-2-1.57-2.89C410.1,177.06,411.45,175.7,412.89,174.37Z"/><path class="cls-2" d="M364.81,171.33a3.75,3.75,0,0,0-4.63,1.48c-.06-.08-.11-.16-.17-.23a3.48,3.48,0,0,0-2.24-1.45,4,4,0,0,0-3.54,1.07,4,4,0,0,0-1.06,3.61,6.5,6.5,0,0,0,2,3.51c.81.8,1.66,1.58,2.48,2.34.42.38.83.76,1.25,1.16.6.56,1,.85,1.32.85s.71-.29,1.31-.85l1-.95c1-.9,2-1.82,2.91-2.78a6.14,6.14,0,0,0,1.79-3.42A3.92,3.92,0,0,0,364.81,171.33Zm-8.73,1.2a2.71,2.71,0,0,1,.95-.18,2.45,2.45,0,0,1,2.07,1.21,3.38,3.38,0,0,1,.24.41c.07.12.14.25.22.37a.79.79,0,0,0,.61.43h0a.83.83,0,0,0,.62-.43L361,174a5.87,5.87,0,0,1,.37-.59,2.33,2.33,0,0,1,2.61-.91,2.52,2.52,0,0,1,1.9,2.09,3.81,3.81,0,0,1-.89,3,22.56,22.56,0,0,1-2,2.19c-.67.65-1.36,1.26-2.08,1.91-.24.22-.49.43-.73.66-.36-.34-.71-.67-1.07-1-1-.93-2-1.88-3-2.85a5.15,5.15,0,0,1-1.66-3.07A2.61,2.61,0,0,1,356.08,172.53Z"/><path class="cls-2" d="M384.53,171h0a6.32,6.32,0,0,0,0,12.63h0a6.33,6.33,0,0,0,6.31-6.33A6.33,6.33,0,0,0,384.53,171Zm5,6.32a5,5,0,0,1-5,5h0a5,5,0,0,1,0-10h0A5,5,0,0,1,389.53,177.36Z"/><path class="cls-2" d="M387.61,177a1.39,1.39,0,0,0-.38-.25,1.3,1.3,0,0,0-.47,0h-1.6V176c0-.41,0-.82,0-1.22a.81.81,0,0,0-.23-.48l-.07-.09-.26-.39-.31.35-.08.09a1.17,1.17,0,0,0-.27.36.91.91,0,0,0-.05.45.31.31,0,0,1,0,.1v1.55h-.65c-.39,0-.79,0-1.18,0a1.09,1.09,0,0,0-.54.25l-.13.09-.55.33.71.37a2.58,2.58,0,0,0,.44.22,1,1,0,0,0,.42,0h1.48v.26c0,.55,0,1.07,0,1.58a1,1,0,0,0,.22.52s.05.09.07.13l.31.56.32-.55.09-.13a1,1,0,0,0,.24-.54c0-.52,0-1,0-1.57V178h.69c.43,0,.86,0,1.29,0a.84.84,0,0,0,.48-.27.3.3,0,0,1,.08-.08l.36-.29-.36-.28Z"/><path class="cls-6" d="M384.5,143.87A25.52,25.52,0,1,1,410,118.35,25.55,25.55,0,0,1,384.5,143.87Zm0-48.16a22.65,22.65,0,1,0,22.65,22.64A22.67,22.67,0,0,0,384.5,95.71Z"/><path class="cls-7" d="M135.35,400.91c10.72-14.79,21.22-29.61,29.93-45.71,8.88-16.41,15.13-33.7,19.83-51.72,4-15.56,9.92-32.26,6.58-48.41-1.68-8.14-3.78-15.77-2.44-24.15,1.48-9.3,6.24-16.47,11.92-23.72.38-.49-.21-1.23-.74-.83-10.65,7.93-15.13,23-13.56,35.79,1,7.93,4,15.52,3.9,23.59-.11,9.1-3.06,18.34-5.16,27.13-4.55,19-10.05,37.65-18.83,55.19-9.15,18.28-20.7,35.39-31.86,52.48-.19.29.21.66.43.36Z"/><path class="cls-7" d="M191.44,257.11a34.75,34.75,0,0,1,3.5-17.19c3.61-7.31,9.65-13.08,15.57-18.69a28.13,28.13,0,0,1-4.83,21.63,55.58,55.58,0,0,1-8.73,8.82l-5.27,4.59"/><path class="cls-7" d="M192,257.06c0-15.12,8.69-25.41,19.12-35.27l-1.49-.49A26.71,26.71,0,0,1,204,242.77c-3.93,4.76-9.85,7.89-13,13.18a.76.76,0,0,0,.94,1c6.12-2.57,12.66-9.43,16-15.14a31.08,31.08,0,0,0,3.46-20.68.87.87,0,0,0-1.5-.49c-10.68,10.21-19.81,20.92-19,36.49,0,.77,1.18.65,1.18-.1Z"/><path class="cls-7" d="M185.38,299.93a34.8,34.8,0,0,1,11.25-13.46c6.64-4.72,14.7-6.93,22.57-9.06a28.08,28.08,0,0,1-14.52,16.74,55.33,55.33,0,0,1-11.86,3.62L186,299.31"/><path class="cls-7" d="M185.92,300.19c7.19-13.39,19.65-18.24,33.57-22l-1.06-1.17a26.81,26.81,0,0,1-15.16,16.22c-5.68,2.3-12.48,2.28-17.71,5.41a.77.77,0,0,0,.3,1.38c6.75.65,15.49-2.22,21.23-5.72A31,31,0,0,0,220,277.78a.86.86,0,0,0-1.06-1.17c-14.21,3.9-27.37,9-34.06,23.07a.59.59,0,0,0,1.07.51Z"/><path class="cls-7" d="M187.69,244a34.59,34.59,0,0,0-8.14-15.54c-5.49-6-12.89-9.89-20.14-13.64a28.13,28.13,0,0,0,10.65,19.44,55.7,55.7,0,0,0,10.83,6.05l6.34,2.95"/><path class="cls-7" d="M188.25,243.83c-3.56-15.19-15.43-22.94-28.47-29.75a.86.86,0,0,0-1.22.85,31.21,31.21,0,0,0,8,17.86C171.38,238,180,243.21,187.1,244a.77.77,0,0,0,.63-1.32c-4.85-4.54-12.18-5.85-17.48-10a26.63,26.63,0,0,1-10-17.95l-1.22.84c12.87,6.63,23.89,14,28.09,28.6.21.75,1.28.33,1.11-.39Z"/><path class="cls-7" d="M191.35,274.29a34.59,34.59,0,0,0-8.14-15.54c-5.49-6-12.89-9.89-20.14-13.64a28.13,28.13,0,0,0,10.65,19.44,55.7,55.7,0,0,0,10.83,6.05l6.34,2.95"/><path class="cls-7" d="M191.91,274.09c-3.56-15.19-15.43-22.94-28.47-29.75a.86.86,0,0,0-1.22.85,31.21,31.21,0,0,0,8,17.86c4.86,5.19,13.52,10.42,20.58,11.24a.77.77,0,0,0,.63-1.32c-4.85-4.54-12.18-5.85-17.48-10a26.59,26.59,0,0,1-10-18l-1.22.84c12.87,6.63,23.89,14,28.09,28.6.21.75,1.28.33,1.11-.39Z"/><path class="cls-7" d="M184.75,299.63a34.69,34.69,0,0,0-6.65-16.23c-4.9-6.51-11.91-11.06-18.77-15.47a28.12,28.12,0,0,0,8.78,20.36,55.42,55.42,0,0,0,10.21,7l6,3.53"/><path class="cls-7" d="M185.33,299.58c-2.07-15.51-13.22-24.37-25.63-32.42-.59-.38-1.24.28-1.22.85a31,31,0,0,0,6.76,19.09c4.37,5.31,12.25,11.06,19,12.5.59.13,1.2-.68.75-1.17-4.3-4.86-11.13-6.8-16-11.17a26.76,26.76,0,0,1-8.81-19.4l-1.21.85c12.05,7.72,22.45,16.16,25.19,31,.14.74,1.28.67,1.17-.1Z"/><path class="cls-7" d="M176,330.46a34.71,34.71,0,0,1,13.43-11.28c7.37-3.49,15.69-4.25,23.81-5A28.11,28.11,0,0,1,196,328.15a55.36,55.36,0,0,1-12.32,1.49l-7,.31"/><path class="cls-7" d="M176.45,330.85c9.44-12,22.45-14.54,36.86-15.78l-.84-1.22a26.74,26.74,0,0,1-18.6,13.37c-5.71,1-12,0-17.42,2a.76.76,0,0,0,.13,1.46c6.91,1.93,16.91.37,23.42-2.65a31.26,31.26,0,0,0,14-13.47.85.85,0,0,0-.84-1.21c-14.66,1.34-28.56,4-37.62,16.71-.43.61.42,1.37.9.77Z"/><path class="cls-7" d="M175.42,330.05a34.64,34.64,0,0,0-3.69-17.14c-3.69-7.27-9.79-13-15.77-18.52A28.12,28.12,0,0,0,161,316a56,56,0,0,0,8.82,8.72l5.33,4.53"/><path class="cls-7" d="M176,330c.63-15.58-8.74-26.21-19.49-36.26a.86.86,0,0,0-1.4.5,31.24,31.24,0,0,0,2.9,19.35c3.3,6.3,10.25,13.63,16.83,16.31a.76.76,0,0,0,1-1.11c-3.45-5.67-10.17-8.89-14.18-14.29a26.61,26.61,0,0,1-4.82-20l-1.4.5c10.62,9.81,19.3,19.85,19.44,35.07,0,.77,1.14.63,1.17-.11Z"/><path class="cls-7" d="M165.43,353.59a34.68,34.68,0,0,1,15.14-8.87c7.85-2.2,16.17-1.55,24.3-.89a28.09,28.09,0,0,1-19.33,10.84,55.27,55.27,0,0,1-12.38-.6l-6.95-.86"/><path class="cls-7" d="M165.88,354c11.22-10.1,24.55-10.48,38.84-9.3-.16-.47-.33-.93-.5-1.4a26.59,26.59,0,0,1-17.92,10c-6.7.72-13.63-2.07-20.15-.79a.77.77,0,0,0-.26,1.44c6.18,2.93,16,3.14,22.68,1.57a31.06,31.06,0,0,0,17-11.07.86.86,0,0,0-.5-1.4c-14.77-1.15-28.92-.84-40,10.22-.54.54.35,1.26.9.76Z"/><path class="cls-7" d="M164.93,353.09a34.7,34.7,0,0,0-.76-17.52c-2.41-7.79-7.47-14.44-12.44-20.9a28.15,28.15,0,0,0,1.38,22.12,55.68,55.68,0,0,0,7.23,10.07l4.49,5.37"/><path class="cls-7" d="M165.51,353.19c3.28-15.2-4.17-27.32-13.07-39-.35-.45-1.26-.54-1.48.12a31.09,31.09,0,0,0-.11,20.51,36.56,36.56,0,0,0,6.26,10.5c2.19,2.7,4.21,6.09,7.4,7.6a.76.76,0,0,0,1-.94c-1.45-5.28-7.32-9.54-10.26-14.18A26.72,26.72,0,0,1,152.5,315l-1.47.12C159.82,326.56,166.8,338,164.35,353a.59.59,0,0,0,1.16.2Z"/><path class="cls-7" d="M152.75,375.16a34.79,34.79,0,0,1,16.17-6.78c8.08-1.13,16.25.61,24.21,2.34a28.07,28.07,0,0,1-20.59,8.19,56,56,0,0,1-12.2-2.25l-6.77-1.77"/><path class="cls-7" d="M153.08,375.65c12.5-8.6,25.82-7.17,39.91-4.08-.17-.47-.34-.94-.5-1.4a26.42,26.42,0,0,1-20,7.32c-6.36-.43-12.64-3.75-18.94-3.36-.83.05-.84,1.07-.26,1.44,6.18,4,16.49,5.46,23.76,4.32a31.38,31.38,0,0,0,16.77-8.61c.5-.47.08-1.27-.5-1.4-14.38-3.07-28.5-4.65-40.87,4.8a.59.59,0,0,0,.67,1Z"/><path class="cls-7" d="M152.32,374.6a34.72,34.72,0,0,0,1.57-17.47c-1.36-8-5.49-15.3-9.55-22.37a28.1,28.1,0,0,0-1.57,22.11,55.57,55.57,0,0,0,5.82,10.95q1.88,3,3.74,5.91"/><path class="cls-7" d="M152.85,374.85c5.26-14.76-.48-27.71-7.81-40.57a.86.86,0,0,0-1.48.12,31.07,31.07,0,0,0-2.65,20.77c1.54,6.48,5.79,14.91,10.93,19.14a.77.77,0,0,0,1.21-.83c-1.56-6.17-6.75-11.06-9-17.06a26.87,26.87,0,0,1,1.08-21.29l-1.48.12c7.23,12.54,12.5,24.69,8.11,39.25-.19.63.89,1,1.11.35Z"/><path class="cls-7" d="M188.28,244.3c-4.49-9.42-6.57-25.3-1-34.13,3.23-5.11,8.57-8.43,13.19-12.33,4.1-3.45,7.93-8,8.54-13.2a.23.23,0,0,1,.45,0,40.73,40.73,0,0,1-9.74,33c-2.92,3.26-6.39,6.05-9,9.54s-2.55,11-1.42,15.26"/><path class="cls-7" d="M190.78,276.54a19.57,19.57,0,0,1,7-13.38c3.66-3,8.25-4.54,12.46-6.7s8.35-5.33,9.6-9.89a26.6,26.6,0,0,1-.94,10.8,16.13,16.13,0,0,1-6.33,8.64c-3,1.94-6.65,2.6-10.19,3.21l-7.7,1.33c-1.35.23-3,.82-3.08,2.19"/><path class="cls-7" d="M190.92,276.56c2.27-11.37,10.24-14.67,19.52-19.59a27.32,27.32,0,0,0,5.37-3.52c1.06-.93,1.79-2.16,2.81-3.08,1.19-1.05.73-3.6.8-.19a19,19,0,0,1-3.51,11.69c-3.43,4.63-8.21,5.75-13.57,6.73-3.41.63-9.59.18-11.32,3.86a.65.65,0,0,0,1.17.55c1.41-3,10.9-3.16,13.95-3.89a18.92,18.92,0,0,0,8.33-3.82c5.43-4.69,6.39-12,5.91-18.78a.53.53,0,0,0-1-.18c-3.56,9.4-13.91,10.34-21.08,15.78a19,19,0,0,0-7.65,14.39.14.14,0,0,0,.28.05Z"/><path class="cls-7" d="M56.89,284.6c-5.58,25.56-7.07,52-2.59,77.89C59.22,390.9,71.92,415.55,89.69,438c.49.63-.35,1.64-1,1.08C67.06,420.71,55,392.28,50.18,364.81c-4.66-26.81-1.87-54.45,5-80.61.26-1,1.92-.58,1.71.4Z"/><path class="cls-7" d="M50.1,397c7.53,2.75,18.72,9.34,20.52,17.83.06.29-.33.56-.56.35-3-2.64-5.5-5.91-8.49-8.66-3.68-3.39-8-5.75-11.75-9a.3.3,0,0,1,.28-.52Z"/><path class="cls-7" d="M67.73,379.89c-1.84,3.24-3.23,6-3.68,9.75-.36,3,0,6.17-.95,9.1a.38.38,0,0,1-.69,0c-1.48-3.56-.84-8.2,0-11.86.67-3,1.94-6.29,5-7.39a.26.26,0,0,1,.31.38Z"/><path class="cls-7" d="M43.32,365.09c-.4-.65,2.21.78,2.12.72A17.88,17.88,0,0,1,50.25,371a74.74,74.74,0,0,1,8,14.2.2.2,0,0,1-.33.21c-5.13-6.09-7.72-15.67-14.91-19.66a.5.5,0,0,1-.22-.49c.09-.44.06-.41.47-.63a.2.2,0,0,1,.25.1l.08.19c.08.17-.19.35-.29.18Z"/><path class="cls-7" d="M62.26,349.52c-5.15,6.27-5.65,14.05-8.57,21.27-.13.34-.74.35-.76-.07-.16-4.2,1.43-8.59,3-12.43,1.35-3.32,2.93-7.15,6.2-8.94.1-.06.21.08.14.17Z"/><path class="cls-7" d="M39.51,331.8c2.54-1.39,5.66,4.4,6.62,5.92a47.25,47.25,0,0,1,5.79,15c.07.27-.35.39-.46.14-1.45-3.33-2.74-6.73-4.22-10-1.1-2.44-4.38-10.36-7.64-10.53a.28.28,0,0,1-.09-.53Z"/><path class="cls-7" d="M57.89,321.86c-.37-.62-5.1,6.32-5.43,6.93-1.18,2.2-1.87,4.63-3.15,6.78-.26.43-.84.1-.84-.32,0-3.41,2.11-6.85,4.14-9.49,1.06-1.37,3.27-4.69,5.27-4.37,0,0,.11,0,.12.09l.1.29a.11.11,0,0,1-.21.09Z"/><path class="cls-7" d="M44,300.76c4.18,4.71,8.44,12.42,6.94,18.93a.31.31,0,0,1-.56,0c-.9-2.81-1.07-5.77-1.94-8.6a33,33,0,0,0-5.11-9.81.43.43,0,0,1,.67-.54Z"/><path class="cls-7" d="M61.73,290.75c-2.17-2-6.87,6.51-7.49,7.86-1,2.22-1.7,4.58-2.91,6.72-.23.42-.92.13-.86-.32a23.67,23.67,0,0,1,5.77-12.12c.73-.78,4.73-4.71,5.63-2.26,0,.08-.06.18-.14.12Z"/><path class="cls-7" d="M58.84,402c-8.54-10.1-21-15.9-33.41-20.55-4.18-1.57-8.59-3.07-13-2.49a3.62,3.62,0,0,0-1.76.59c-1.51,1.14-.78,3.58.37,5.08,2.78,3.61,7.06,5.69,11.2,7.57q4.77,2.18,9.59,4.24c7.7,3.29,15.75,6.43,24.12,6.3.65,0,1.52-.27,1.45-.91"/><path class="cls-7" d="M58.75,402c-6.25-6.85-13.84-11.78-22.21-15.68-3.67-1.71-7.42-3.25-11.22-4.65-3-1.13-9.64-4.09-12.86-2.48-5.23,2.62.63,7.28,2.42,8.61a42,42,0,0,0,7.46,4c3.65,1.68,7.34,3.3,11,4.85a94.5,94.5,0,0,0,10.37,3.8c2,.56,11.64,3.61,13.32,1,.28-.43.93,0,.64.45-1.74,2.63-7.92.66-10.32.14a84.92,84.92,0,0,1-15-5.15c-5.09-2.16-23.74-7.64-22.94-15.67.71-7,16.29-.14,19.26,1C40,386.82,51,392.48,58.93,401.87c.1.12-.08.26-.18.15Z"/><path class="cls-7" d="M64.34,386.51A22.66,22.66,0,0,0,71,382.43c4.09-3.62,6.74-8.58,8.91-13.61s3.94-10.24,6.71-14.95a31.76,31.76,0,0,0,3-5.63,7,7,0,0,0-.44-6.15,2.53,2.53,0,0,0-1.49-1.15,2.74,2.74,0,0,0-1.3.11c-2.4.67-4.25,2.55-5.85,4.46-5,6-8.7,12.89-12.36,19.76a40,40,0,0,0-3.26,7.18,40.3,40.3,0,0,0-1.29,7.5,17.41,17.41,0,0,0,0,5.94"/><path class="cls-7" d="M64.23,386.27c8.4-3.76,12.58-11.11,16-19.28,1.63-3.93,3.08-7.94,5.08-11.7.55-1.05,1.18-2.05,1.77-3.07a19.85,19.85,0,0,0,2.11-4.16q2.07-3.9-1.77-4.78-2.38-2.67-4.47.41a33.36,33.36,0,0,0-3.12,3.49c-1.13,1.39-2.17,2.85-3.18,4.33-2.18,3.23-4.12,6.6-6,10-4,7.35-8.09,15.6-6.48,24.29a.46.46,0,0,1-.91.15c-1.37-10.07,3.35-18.78,8.07-27.25,2-3.63,11-21.85,17.48-17.8,1.94,1.21,2,4.29,1.67,6.25a18.65,18.65,0,0,1-2.59,5.62,90.21,90.21,0,0,0-5.09,10.29c-4,9.69-8.06,19.29-18.31,23.68a.27.27,0,0,1-.22-.49Z"/><path class="cls-7" d="M57.48,359.15c11.07-9.62,18.3-23,22.7-37a11.1,11.1,0,0,0,.72-4.64A4,4,0,0,0,78.13,314a3.67,3.67,0,0,0-2,.14c-2.15.7-3.55,2.71-4.8,4.6-3.36,5.07-6.73,10.15-9.77,15.42a57.75,57.75,0,0,0-3.24,6.31,35.43,35.43,0,0,0-2.41,18.68"/><path class="cls-7" d="M57.32,359a72.1,72.1,0,0,0,14.53-18.39,95.49,95.49,0,0,0,5-10.65c.62-1.58,1.22-3.17,1.78-4.78.37-1.06.72-2.14,1.06-3.22q2.63-4.55-3.1-3.62c-4.68-.83-4.06-.42-6.36,3-1.2,1.77-2.36,3.55-3.5,5.35-2,3.06-3.9,6.14-5.64,9.33-4.2,7.7-4.78,14.65-4.88,23.22,0,.32-.45.29-.52,0-2.38-9.32,1.8-19,6.46-26.87,3-5.11,6.12-10.6,9.75-15.31,1.59-2.08,4.14-4.47,7-3.28,6.77,2.86-1,16.61-2.76,20.44a75.65,75.65,0,0,1-18.45,25.18c-.24.2-.54-.17-.31-.38Z"/><path class="cls-7" d="M49.11,370.24c-3.12-7.47-8.36-13.9-14.36-19.32S22,341,15.16,336.64a43.69,43.69,0,0,0-4.95-2.88,22,22,0,0,0-7.29-2A3,3,0,0,0,1.3,332c-1,.55-1.13,2-.91,3.16,1.24,6.57,7.21,11,12.73,14.77l12.55,8.55c5.68,3.88,11.46,7.8,18,10a3.17,3.17,0,0,0,2.69.06c.78-.49.71-2-.21-2.08"/><path class="cls-7" d="M49,370.29c-4.65-9.62-11.8-17.34-20.21-23.82-3.45-2.66-7.06-5.11-10.71-7.5s-8.88-6.71-13.69-6.64c-9.52.13,2.26,12.1,4.9,14.15,3.34,2.58,6.93,4.86,10.42,7.24,4,2.72,7.94,5.52,12,8.1A69.1,69.1,0,0,0,39.08,366c1,.5,2.08.95,3.14,1.37a2.43,2.43,0,0,0,3.6-.48.52.52,0,0,1,.6-.85c2,1.3.65,3.13-1.31,3.34-2.37.25-6-2.09-8-3.09-2.59-1.34-5.07-2.89-7.51-4.48C23,357.48,16.37,353.09,10,348.4c-4.21-3.12-9.39-7.59-10-13.21-1.06-10.06,17.48,2.53,20,4.21,12,7.92,23.66,17.12,29.17,30.79a.13.13,0,0,1-.23.1Z"/><path class="cls-7" d="M45.17,337.51c-.75-6.14-4.57-11.42-8.42-16.26q-7.41-9.31-15.58-18c-2.22-2.35-4.65-4.77-7.79-5.53a4.1,4.1,0,0,0-3.49.47,3.6,3.6,0,0,0-1.2,2.17c-.53,2.67.88,5.3,2.36,7.58,5.46,8.43,12.5,15.73,20,22.39,4,3.58,8.63,7.16,14,7.36"/><path class="cls-7" d="M45,337.54c-1.47-8-7-14.23-12-20.29q-4.09-4.94-8.41-9.68c-1.23-1.35-2.45-2.72-3.73-4a34.49,34.49,0,0,0-3.46-3.27q-3.16-3.67-5.17,1.1c-2.53,1-3.18,2.33-2,3.94q1.11,1.95,2.38,3.78c1.06,1.56,2.18,3.07,3.34,4.55a108.32,108.32,0,0,0,8.12,9.15c5.65,5.73,12.57,13.43,21.08,14.25a.66.66,0,0,1-.13,1.32c-10-.92-18.21-10.5-24.62-17.43-3-3.25-17.58-17.62-10.91-23,5.9-4.78,15.34,8.6,18.18,11.84,7,7.93,16.13,16.81,17.73,27.72a.23.23,0,1,1-.45.07Z"/><path class="cls-7" d="M48.87,309a98.53,98.53,0,0,0-14.11-31.7A9.12,9.12,0,0,0,31.54,274a3.32,3.32,0,0,0-4.18.79c-.72,1.11-.42,2.58-.06,3.85a64.52,64.52,0,0,0,20.1,31.3,2.28,2.28,0,0,0,1.72.74"/><path class="cls-7" d="M48.63,309a118.93,118.93,0,0,0-6.52-17.93c-1.23-2.63-2.58-5.21-4-7.72a37.28,37.28,0,0,0-3.66-5.81c-2.07-2.26-7.1-2.78-6.6,1.12.76,5.86,4.89,12.69,8.11,17.47a63.68,63.68,0,0,0,5.28,6.74c1.91,2.15,5.08,6.55,8,7.1.88.16.74,1.55-.13,1.38-2.84-.55-5.24-3.71-7.14-5.73a66.53,66.53,0,0,1-8.21-11.05,64.64,64.64,0,0,1-6.07-13.3c-.64-2-2-4.84-.59-6.8,3.82-5.42,9.52,4.68,10.94,7a93.55,93.55,0,0,1,11.13,27.42c.07.31-.39.37-.48.08Z"/><path class="cls-7" d="M53.8,327.28c3.77-1.37,6.79-4.28,9.21-7.47A81.74,81.74,0,0,0,71,306c2.22-4.52,4.48-9.18,4.85-14.21a6.92,6.92,0,0,0-.59-3.82A3.06,3.06,0,0,0,72,286.29a4.57,4.57,0,0,0-2.08,1.57c-5.87,6.78-9.65,15.07-13.36,23.24A49.09,49.09,0,0,0,54,317.37,25.39,25.39,0,0,0,53.16,328"/><path class="cls-7" d="M53.69,327c7.53-3.68,11.53-10.86,15.06-18.09,1.41-2.87,2.84-5.77,4-8.73a37.61,37.61,0,0,0,1.26-3.56,21.37,21.37,0,0,0,.77-3.46c.67-1.81-.2-2.63-2.62-2.48-3.47-1.22-3.15-.63-4.91,1.88q-1.53,2.21-2.89,4.52c-1.94,3.3-3.62,6.74-5.28,10.18-3.25,6.74-6.2,12.92-5.55,20.6,0,.53-.77.67-.83.13-1.07-9.68,3.36-18.51,7.62-27,2.37-4.7,5.09-9.91,8.85-13.67,1.53-1.54,3-2.57,5.08-1.44,6.24,3.36-.31,15.6-2.32,19.61-4.14,8.25-8.84,18.51-18,22a.29.29,0,0,1-.23-.53Z"/><path class="cls-7" d="M56.32,294.3a82.74,82.74,0,0,0,21.25-13.53,16.3,16.3,0,0,0,3.77-4.27,6.3,6.3,0,0,0,.46-5.5,2.7,2.7,0,0,0-2.54-1.77,3.39,3.39,0,0,0-1.3.55,56.67,56.67,0,0,0-23,26"/><path class="cls-7" d="M56.23,294.1a90.45,90.45,0,0,0,14.67-8.66,71.9,71.9,0,0,0,6.28-5.15,17.85,17.85,0,0,0,2.87-3c.52-1.21,1-2.41,1.54-3.62q-1.92-5.35-4.8-2.63c-4.7,2.05-9.3,7-12.55,10.8a67.28,67.28,0,0,0-9,14c-.16.33-.68.15-.54-.2a54.29,54.29,0,0,1,13.55-19.27c2.37-2.19,9.65-10,13.27-6.84S81.44,278,79,280.3c-6.27,6.1-14.62,10.84-22.63,14.2a.22.22,0,0,1-.18-.4Z"/><path class="cls-7" d="M53.85,294c6.53-9.08,10.52-19.7,14.18-30.26,1.48-4.26,2.94-8.62,3-13.13,0-3.19-.86-6.65-3.41-8.54a3.9,3.9,0,0,0-2.51-.88c-2,.13-3.15,2.22-3.94,4-2.51,5.76-5.06,11.64-5.64,17.9-.16,1.79-.16,3.6-.31,5.39-.21,2.72-.75,5.4-1.11,8.1a61.5,61.5,0,0,0,0,16.32"/><path class="cls-7" d="M53.82,294a133.41,133.41,0,0,0,11.29-23.78c1.41-3.78,2.86-7.61,4-11.5a32.23,32.23,0,0,0,1.28-6.47,15.68,15.68,0,0,0-.22-4.74q-.44-6.21-5.18-3.05c-4.07,1.16-3.92,2.08-5.39,5.7-.64,1.59-1.27,3.19-1.8,4.83-1.5,4.59-1.71,8.86-2.12,13.59-.72,8.32-2,15.87-1.17,24.31.05.53-.75.67-.82.13a61,61,0,0,1-.14-15.62c.69-5.83.91-11.94,2-17.68A59.47,59.47,0,0,1,60.67,245c1.18-2.38,2.77-5.05,5.84-4.15,8.32,2.43,4.37,16.12,2.61,21.44-3.67,11.07-8,22.43-15.24,31.68a0,0,0,0,1-.06,0Z"/><path class="cls-7" d="M49.41,288.88a16.84,16.84,0,0,1,4.1,9.07"/><path class="cls-7" d="M49.53,288.78a15.24,15.24,0,0,1,4.19,9.14.21.21,0,0,1-.41.07,21.14,21.14,0,0,0-4-9,.16.16,0,0,1,.25-.2Z"/><path class="cls-7" d="M51.36,291.21c-2.3.3-4.11-1.84-5.36-3.8a99.64,99.64,0,0,1-12.64-29.06c-1.17-4.57-2-9.35-1.15-14a3.1,3.1,0,0,1,.76-1.74c1.25-1.14,3.2.16,4.26,1.48,5.21,6.49,7.66,14.73,9.6,22.82C48.54,274,50,281.2,51.36,288.37a2.43,2.43,0,0,1-.32,2.26c-.59.54-1.85-.26-1.31-.85"/><path class="cls-7" d="M51.35,291.28c-3.81-.08-5.65-3.87-7.39-6.8a98.58,98.58,0,0,1-8.81-19.26C33.41,260,31.73,254.51,31.62,249c0-1.86-.44-6.51,2.2-7.06,3.44-.71,6.36,5.78,7.51,8,3.08,5.84,4.75,12.33,6.26,18.72.84,3.55,1.61,7.13,2.36,10.7.6,2.9,2,6.64,1.87,9.57-.07,1.58-.67,3-2.34,1.77a.36.36,0,0,1-.16-.34l.07-.6a.34.34,0,0,1,.67.06,2.31,2.31,0,0,0,.55-3.17c-.17-.9-.35-1.79-.52-2.69-.41-2.09-.82-4.18-1.25-6.27-.73-3.58-1.49-7.15-2.34-10.7a89.08,89.08,0,0,0-3.85-12.78c-.91-2.24-6.5-15.74-10.42-8.27-1.33,2.55.38,8.2,1,10.85A93.32,93.32,0,0,0,37.37,270a100.81,100.81,0,0,0,4.38,9.65c1.92,3.69,4.7,11.2,9.62,11.46.09,0,.07.14,0,.14Z"/><path class="cls-4" d="M103.51,437.5a114.6,114.6,0,0,1,13.34-77.87c5.05-8.7,11.23-16.69,16.35-25.35a122.67,122.67,0,0,0,17-62.38c-.07-35.4-15.18-72.59-.8-104.94a129.81,129.81,0,0,0-23.3,64.6c-1.33,17.29.83,34.82-2.09,51.91-3.07,18-11.59,34.57-17.56,51.84a189.46,189.46,0,0,0-5.27,104.92"/><path class="cls-2" d="M103.46,437.51c-4-16.75-3-34.63,1.43-51.23,4.87-18.37,15.21-32.87,25.22-48.67a123,123,0,0,0,18.85-56c1.5-18.93-2.07-37.65-4.53-56.33-2.61-19.78-3.74-40,4.31-58.74l1.39.81A130.22,130.22,0,0,0,129.38,215c-3.93,18.58-2,37.26-3.07,56-1,18.3-7.39,34.8-14,51.66-6.86,17.36-11.93,35.09-13.94,53.7A190.64,190.64,0,0,0,102.21,440c.3,1.3-1.69,1.85-2,.55a191.82,191.82,0,0,1,6.52-108.9c6.71-18.37,15.43-36,17.36-55.75,1.83-18.75-.56-37.62,2.66-56.29a132.43,132.43,0,0,1,22-53,.81.81,0,0,1,1.39.81c-15.2,35.51,2.67,74,.84,110.73a124.06,124.06,0,0,1-13.17,49.66c-8.46,16.72-21,30.72-27.82,48.38-7.6,19.78-9,40.47-6.42,61.37a.05.05,0,0,1-.1,0Z"/><path class="cls-2" d="M139.14,184.32a189.52,189.52,0,0,0-7.1,53c.17,16.91,4.66,33.81,2.58,50.71-1.91,15.56-8.41,30-14.61,44.28-7.11,16.32-14.27,32.65-18.43,50a126.19,126.19,0,0,0-3.67,28.75c0,10.44,2.52,20.07,4.06,30.27.09.63-.76,1.12-1.12.47-7.35-13.33-6.51-32.08-4.51-46.63,2.44-17.7,8.53-34.62,15.46-51,6.65-15.72,15-31,19.16-47.62,4.54-18,.23-35.43-.44-53.59a177.55,177.55,0,0,1,7.9-58.86.37.37,0,0,1,.72.2Z"/><path class="cls-4" d="M166.38,459a114.62,114.62,0,0,0-22.2-75.82c-6-8.07-13.07-15.3-19.16-23.31a122.72,122.72,0,0,1-24.07-60c-4-35.18,6.74-73.86-11.27-104.34A129.74,129.74,0,0,1,120.25,257c3.31,17,3.18,34.69,8,51.33,5.12,17.54,15.49,33,23.4,49.47A189.51,189.51,0,0,1,169,461.41"/><path class="cls-2" d="M166.33,459c.19-19.37-2.89-38.36-11.28-55.94a120.25,120.25,0,0,0-15.33-24.14c-5.8-7.12-12.1-13.83-17.46-21.3A123.56,123.56,0,0,1,101.64,310c-3.48-17.53-2.49-35.41-2.06-53.16.5-20.86.06-42.36-10.59-61-.44-.76.64-1.67,1.26-1a133.27,133.27,0,0,1,25.54,42.72c6.58,18.18,7.24,37.06,10.25,56,3.17,19.87,12.4,36.67,21.7,54.22A199.83,199.83,0,0,1,167,399.39a192,192,0,0,1,3,62c-.14,1.31-2.21,1.32-2.06,0a191.14,191.14,0,0,0-19.87-108.66c-8.13-15.84-17.69-31.16-21.87-48.66-4.32-18.08-3.92-36.92-8.63-54.93a129.67,129.67,0,0,0-28.45-53.1c.41-.33.83-.65,1.25-1,18.36,31.94,7.47,70,11.47,104.74a122,122,0,0,0,20.52,54.8c10.83,15.8,25.09,28.47,33.46,46,8.56,17.94,12.92,38.5,10.61,58.33,0,.06-.1.06-.1,0Z"/><path class="cls-2" d="M102.58,211.23a177.58,177.58,0,0,1,13.59,47.91c2.38,17.93-.55,36.76,4,54.32,4.41,17.09,14.53,31.83,23.32,46.88,8.65,14.79,16.86,30,22.35,46.28a124.09,124.09,0,0,1,6,27.12c.95,9.34,1.33,20.27-2.29,29.13-.24.58-1.22.58-1.19-.17.28-8.51,1.64-16.75,1.06-25.32a116.53,116.53,0,0,0-5.12-26.55c-5.28-17.08-13.81-32.91-22.78-48.29-8-13.73-16.7-27.47-21.58-42.71-5.22-16.28-3.17-32.94-4.3-49.71a188.72,188.72,0,0,0-13.74-58.6c-.16-.39.51-.68.69-.29Z"/><path class="cls-8" d="M172.45,296.9c-40,41.61-74.39,168.54-74.39,168.54h57.37l35.86-84.27Z"/><path class="cls-9" d="M380.57,303.77c-8.36-9.5-52.89-40.76-109.67-37.36-50.07,3-90.56,18.46-98.45,30.49-5.78,8.8,6.87,68.18,15.67,91.83a207.51,207.51,0,0,1,12.64,70.38s141.6-.82,142.42,0,17.6-52.24,19.8-78.63S360.23,324.94,380.57,303.77Z"/><path class="cls-10" d="M304,217.14s.71,44,0,57.14-21.06,25-28.62,25.28S251,288.73,248.4,270V230.27Z"/><path class="cls-11" d="M304.22,241c-.09-12.75-.27-23.9-.27-23.9L248.4,230.27v32.59c4.63,20.36,35.35,14.79,42.67-4.51C295.26,247.29,298.84,244,304.22,241Z"/><path class="cls-12" d="M233.68,200c2.08,32.24,15.22,63.45,36.05,60.16,25.82-4.08,33.66-43.25,32.64-64.59s-13.18-34.69-31.7-34.71C253.06,160.88,231.91,172.74,233.68,200Z"/><path class="cls-13" d="M308.44,210.78c-1.38,6.43-4.51,11.3-7,10.89s-3.36-6-2-12.39,4.51-11.3,7-10.89S309.82,204.35,308.44,210.78Z"/><path class="cls-14" d="M234.1,205.08c-3.94-6-4.21-8.38-3.92-18.38s8.72-10.35,8.55-14.62,5.27-15.76,27.53-16.68,20.92,9.28,27.82,9.94,17.58,7.74,12.37,33c0,0-6.05.58-8.43,12.81a1.1,1.1,0,0,1-1.94.37,15.82,15.82,0,0,1-2-4.69c-1.66-6.11-8.33,3.07-9.53-9.12-.87-8.68-22.06,7.26-37.78-6.83,0,0-2.34,3.11-9,2.91C233.8,193.72,234.1,205.08,234.1,205.08Z"/><path class="cls-15" d="M248.39,321.74s1.83,2.35,5.26-2.88,15.13-21.1,19.19-19.53l0,0c-8.24-1.71-22.06-12.42-24.43-29.29v-1.37c-6.55.91-12.83,2-18.79,3.29C228,281.25,234.94,311.44,248.39,321.74Z"/><path class="cls-15" d="M303.94,274.28c-.62,11.42-16.09,21.85-25.08,24.59h0c4.24-1.65,19.85,18.87,22.55,23.4s7.67-1.6,12.61-14.22c3.59-9.16,9.14-24.95,6.81-36.1a159.35,159.35,0,0,0-16.69-3.71C304.09,270.61,304,272.68,303.94,274.28Z"/><path class="cls-16" d="M248.4,270v-9.57c-8.3,3.65-16,6.73-16.83,11.48-1.66,9.31,5.81,36.36,16.83,45.92,0,0,1.84,2.34,5.26-2.89s15.13-17.19,19.19-15.62v0C264.6,297.59,250.77,286.88,248.4,270Z"/><path class="cls-17" d="M317.83,268.38c-2.3-5.19-9.75-9.42-13.57-11.22,0,7.06-.1,13.36-.31,17.12-.61,11.42-16.09,21.85-25.08,24.59h0c4.25-1.65,19.85,15,22.55,19.49s6.05-.75,11.54-13.14C318.55,292.6,321.57,276.86,317.83,268.38Z"/><path class="cls-18" d="M408.07,432.73c0-36.49-10.64-109.62-27.5-129,0,0-26.39,14.12-34.74,58.87-2.5,13.37,1.75,51.56,2.85,67.69Z"/><path class="cls-19" d="M305.14,468.65h80.09c11.87,0,24.63-9.68,22.84-35.92s-44.73-22.56-59.39-2.4l-44.13,6.74Z"/><path class="cls-20" d="M264.79,467.05l3.79-3.55,11.52,4.08a18.57,18.57,0,0,0,6.22,1.07h22.87s10.82-2.31,11.17-15.08-10.64-16.5-15.43-16.5H279.86a18.73,18.73,0,0,1-3.73-.38L258.3,433a11,11,0,0,0-7.71,1.23l-10.1,5.8a25.43,25.43,0,0,0-5.35,4.1l-18.33,18.37a3.63,3.63,0,0,0,2.57,6.19h41.35A5.93,5.93,0,0,0,264.79,467.05Z"/><path class="cls-21" d="M61.74,475.33H237.45a10.26,10.26,0,0,0,9.9-13l-31-112.9a16.84,16.84,0,0,0-16.23-12.38H24.39a10.27,10.27,0,0,0-9.9,13L45.5,463A16.85,16.85,0,0,0,61.74,475.33Z"/><path class="cls-22" d="M516.11,387.92c-2.65.72-6.32,3.66-10.37,7.55s-8.56,8.45-14.16,12.64c-3.4,2.63-6.77,5-10,7.32s-6.33,4.58-9.05,6.84c-5.54,4.44-9.77,8.81-11.23,12.1,1.46-3.25,2.08-9.28,4.84-16.6A54.19,54.19,0,0,1,472,406.35a48.4,48.4,0,0,1,10.15-10.71,38.84,38.84,0,0,1,20.55-7.37C508.81,387.76,513.49,388.64,516.11,387.92Z"/><path class="cls-23" d="M459.12,431.91c.25-3.27-1.35-8.53-2.4-15.46a65.76,65.76,0,0,1,.43-24.91,92.32,92.32,0,0,1,12.44-28.71c4.78-7.58,9.3-13.06,11-17-1.73,3.93-2.67,11-3.67,19.62s-2.1,18.8-4.55,29.53a118.54,118.54,0,0,1-7.93,22.45C461.68,423.66,459.37,428.63,459.12,431.91Z"/><path class="cls-24" d="M410.29,375.32c2.63,1.22,7.67,1.25,13.91,3.11a42.37,42.37,0,0,1,19.82,12,54.3,54.3,0,0,1,12.55,26.11c1.59,8.16,1.13,14.58,1.93,18.29-.79-3.76-4.2-9.24-9-15s-11-12-17.07-18.9c-5.07-5.57-8.9-11.21-12.51-16S413,376.55,410.29,375.32Z"/><path class="cls-25" d="M490.59,413.12H438.72a4.59,4.59,0,0,0-4.56,5.13l6.33,53a4.6,4.6,0,0,0,4.56,4.05h39.22a4.58,4.58,0,0,0,4.55-4.05l6.33-53A4.59,4.59,0,0,0,490.59,413.12Z"/><path class="cls-26" d="M431.62,413.31,434,432.94a2.16,2.16,0,0,0,2.14,1.91h57.11a2.16,2.16,0,0,0,2.15-1.91l2.34-19.63a2.16,2.16,0,0,0-2.14-2.42h-61.8A2.16,2.16,0,0,0,431.62,413.31Z"/><path class="cls-27" d="M227.89,475.06h79.74a8.28,8.28,0,0,0,8.27-8.28h0a3.77,3.77,0,0,0-3.77-3.78H227.89a3.78,3.78,0,0,0-3.78,3.78v4.5A3.78,3.78,0,0,0,227.89,475.06Z"/><rect class="cls-4" x="391.39" y="142.27" width="129.28" height="127.88" rx="16.76"/><path class="cls-4" d="M503.91,145.27A13.76,13.76,0,0,1,517.67,159V253.4a13.75,13.75,0,0,1-13.76,13.75H408.14a13.75,13.75,0,0,1-13.75-13.75V159a13.76,13.76,0,0,1,13.75-13.76h95.77m0-6H408.14A19.77,19.77,0,0,0,388.39,159V253.4a19.77,19.77,0,0,0,19.75,19.75h95.77a19.77,19.77,0,0,0,19.76-19.75V159a19.78,19.78,0,0,0-19.76-19.76Z"/><rect class="cls-5" x="394.39" y="145.27" width="123.28" height="121.88" rx="13.76"/><path class="cls-28" d="M456,214.32a25.52,25.52,0,1,1,25.52-25.52A25.55,25.55,0,0,1,456,214.32Zm0-48.16a22.64,22.64,0,1,0,22.64,22.64A22.67,22.67,0,0,0,456,166.16Z"/><path class="cls-29" d="M316,35.62h-7.49a4,4,0,0,0-3.46,2l-3.74,6.49a4,4,0,0,0,0,4l3.74,6.48a4,4,0,0,0,3.46,2H316a4,4,0,0,0,3.46-2l3.75-6.48a4,4,0,0,0,0-4l-3.75-6.49A4,4,0,0,0,316,35.62Z"/><path class="cls-30" d="M381,111.43l-5.5,9.53a4,4,0,0,0,3.46,6h11a4,4,0,0,0,3.46-6L388,111.43A4,4,0,0,0,381,111.43Z"/><rect class="cls-31" x="445.96" y="178.74" width="20.13" height="20.13" rx="4"/><path class="cls-2" d="M487.06,244.28a.76.76,0,0,0-.33-.55,1,1,0,0,0-.81,0l-1.13.39-9.67,3.36a1.38,1.38,0,0,0-.45.31l-.11.11-.3.24.26.28.1.12a1.34,1.34,0,0,0,.38.37l1.79,1c.76.41,1.51.83,2.26,1.25a1.35,1.35,0,0,1,.48.47c.39.69.76,1.38,1.14,2.07s.69,1.25,1,1.88a2.08,2.08,0,0,0,.42.46l.16.13.31.3.24-.36L483,256a2.43,2.43,0,0,0,.29-.5q1.59-4.56,3.16-9.11l.5-1.43.09-.28.08-.26Zm-3.18,1.6-.86.86q-1.56,1.55-3.11,3.12c-.16.16-.17.15-.33.06-.82-.47-1.66-.92-2.54-1.4l-.31-.17Zm.89,1.09-2.42,7-.07-.13L480.7,251C482,249.67,483.34,248.31,484.77,247Z"/><path class="cls-2" d="M436.69,243.94a3.75,3.75,0,0,0-4.63,1.47l-.16-.23a3.48,3.48,0,0,0-2.25-1.44,4,4,0,0,0-3.54,1.07,4,4,0,0,0-1.05,3.61,6.47,6.47,0,0,0,2,3.5c.81.8,1.66,1.59,2.48,2.34l1.25,1.16c.6.57,1,.85,1.31.85s.72-.28,1.31-.84l1-1c1-.9,2-1.83,2.92-2.78a6.09,6.09,0,0,0,1.78-3.43A3.9,3.9,0,0,0,436.69,243.94ZM428,245.13a2.8,2.8,0,0,1,1-.18,2.49,2.49,0,0,1,2.07,1.21l.24.42.21.36a.79.79,0,0,0,.62.43h0a.77.77,0,0,0,.62-.43c.08-.12.16-.25.23-.38a6.1,6.1,0,0,1,.38-.6,2.33,2.33,0,0,1,2.6-.91,2.55,2.55,0,0,1,1.91,2.09,3.83,3.83,0,0,1-.89,3,25.45,25.45,0,0,1-2.06,2.19c-.67.64-1.35,1.26-2.08,1.91l-.72.65-1.07-1c-1-.92-2-1.88-3-2.84a5.12,5.12,0,0,1-1.66-3.08A2.6,2.6,0,0,1,428,245.13Z"/><path class="cls-2" d="M456.41,243.65h0a6.31,6.31,0,0,0,0,12.62h0a6.31,6.31,0,1,0,0-12.62Zm5,6.32a5,5,0,0,1-5,5h0a5,5,0,0,1,0-10h0A5,5,0,0,1,461.42,250Z"/><path class="cls-2" d="M459.49,249.57a.9.9,0,0,0-.38-.25,1.07,1.07,0,0,0-.46,0H457v-.72c0-.41,0-.81,0-1.22a.82.82,0,0,0-.24-.48l-.07-.08-.26-.39-.31.35a.3.3,0,0,1-.08.08,1.11,1.11,0,0,0-.26.36.92.92,0,0,0-.05.45s0,.07,0,.1v1.55h-.65a11.86,11.86,0,0,0-1.19,0,1,1,0,0,0-.54.24.47.47,0,0,1-.12.09l-.56.33.72.38a2.46,2.46,0,0,0,.43.21,1.09,1.09,0,0,0,.43,0h1.48v.26c0,.54,0,1.06,0,1.58a1.06,1.06,0,0,0,.21.52.83.83,0,0,1,.08.12l.3.57.33-.56a.94.94,0,0,1,.09-.12,1,1,0,0,0,.24-.55c0-.51,0-1,0-1.57v-.25h.7c.43,0,.85,0,1.28,0a.74.74,0,0,0,.48-.27l.08-.08.37-.28-.37-.28Z"/><path class="cls-2" d="M448.48,226.18H428.35a1.44,1.44,0,0,1,0-2.88h20.13a1.44,1.44,0,0,1,0,2.88Z"/><path class="cls-2" d="M483.7,226.18H456.39a1.44,1.44,0,0,1,0-2.88H483.7a1.44,1.44,0,0,1,0,2.88Z"/><path class="cls-2" d="M475.08,233.37h-11.5a1.44,1.44,0,0,1,0-2.88h11.5a1.44,1.44,0,0,1,0,2.88Z"/><path class="cls-2" d="M457.11,233.37h-18a1.44,1.44,0,1,1,0-2.88h18a1.44,1.44,0,0,1,0,2.88Z"/></g></g></svg>