<svg xmlns="http://www.w3.org/2000/svg" xmlns:xlink="http://www.w3.org/1999/xlink" viewBox="0 0 1716 1880"><defs><style>.cls-1{mask:url(#mask);filter:url(#luminosity-noclip-3);}.cls-2,.cls-4{mix-blend-mode:multiply;}.cls-2{fill:url(#linear-gradient);}.cls-3{mask:url(#mask-2);filter:url(#luminosity-noclip-4);}.cls-4{fill:url(#linear-gradient-2);}.cls-5{isolation:isolate;}.cls-6{fill:#fff;}.cls-30,.cls-38,.cls-39,.cls-40,.cls-7{mix-blend-mode:hard-light;}.cls-7{fill:url(#linear-gradient-3);}.cls-8{fill:url(#linear-gradient-4);}.cls-9{fill:#ff4f58;}.cls-10{fill:#ff6f59;}.cls-11{fill:#ffad5b;}.cls-12{fill:#323657;}.cls-13{fill:#4e409e;}.cls-14{fill:#6f5be0;}.cls-15{fill:#b487fe;}.cls-16{fill:#d9d9d9;}.cls-17{fill:url(#linear-gradient-5);}.cls-18{fill:url(#linear-gradient-6);}.cls-19{fill:url(#linear-gradient-7);}.cls-20{fill:url(#linear-gradient-8);}.cls-21{fill:url(#linear-gradient-9);}.cls-22{fill:url(#linear-gradient-10);}.cls-23{fill:url(#linear-gradient-11);}.cls-24,.cls-25{opacity:0.18;}.cls-24{fill:url(#linear-gradient-12);}.cls-25{fill:url(#linear-gradient-13);}.cls-26{mask:url(#mask-3);}.cls-27{fill:url(#linear-gradient-14);}.cls-28{mask:url(#mask-4);}.cls-29{fill:url(#linear-gradient-15);}.cls-31{fill:#f5f5f5;}.cls-32{fill:#4aafff;}.cls-33{fill:#1a598c;}.cls-34{fill:#2273b5;}.cls-35{fill:#3788cc;}.cls-36{fill:#e2f3fe;}.cls-37{fill:url(#linear-gradient-16);}.cls-38{fill:url(#linear-gradient-17);}.cls-39{fill:url(#linear-gradient-18);}.cls-40{fill:url(#linear-gradient-19);}.cls-41{fill:#cfcfcf;}.cls-42{fill:#e8e8e8;}.cls-43{fill:#e2d2ca;}.cls-44{fill:#6e6760;}.cls-45{fill:#918880;}.cls-46{fill:#706865;}.cls-47{fill:#9e633a;}.cls-48{fill:#97a43c;}.cls-49{fill:#82522f;}.cls-50{fill:#c67b47;}.cls-51{fill:#363a5e;}.cls-52{fill:#eea886;}.cls-53{fill:#3f446e;}.cls-54{fill:#eddad3;}.cls-55{fill:#2a2e4a;}.cls-56{fill:#a77860;}.cls-57{fill:#cfbeb8;}.cls-58{fill:#d6c5be;}.cls-59{fill:#494f80;}.cls-60{fill:#6a77bf;}.cls-61{fill:#fae6de;}.cls-62{fill:#252740;}.cls-63{fill:#3d426b;}.cls-64{filter:url(#luminosity-noclip-2);}.cls-65{filter:url(#luminosity-noclip);}</style><filter id="luminosity-noclip" x="550.03" y="-9132" width="910.52" height="32766" filterUnits="userSpaceOnUse" color-interpolation-filters="sRGB"><feFlood flood-color="#fff" result="bg"/><feBlend in="SourceGraphic" in2="bg"/></filter><mask id="mask" x="550.03" y="-9132" width="910.52" height="32766" maskUnits="userSpaceOnUse"><g class="cls-65"/></mask><linearGradient id="linear-gradient" x1="550.03" y1="1204.25" x2="1460.55" y2="1204.25" gradientUnits="userSpaceOnUse"><stop offset="0" stop-color="#fff"/><stop offset="0.82" stop-color="#2f2f2f"/><stop offset="1"/></linearGradient><filter id="luminosity-noclip-2" x="81.96" y="-9132" width="621.91" height="32766" filterUnits="userSpaceOnUse" color-interpolation-filters="sRGB"><feFlood flood-color="#fff" result="bg"/><feBlend in="SourceGraphic" in2="bg"/></filter><mask id="mask-2" x="81.96" y="-9132" width="621.91" height="32766" maskUnits="userSpaceOnUse"><g class="cls-64"/></mask><linearGradient id="linear-gradient-2" x1="81.96" y1="411.54" x2="703.87" y2="411.54" xlink:href="#linear-gradient"/><linearGradient id="linear-gradient-3" x1="873.82" y1="879.08" x2="873.82" y2="-2780.83" gradientUnits="userSpaceOnUse"><stop offset="0" stop-color="#44607d"/><stop offset="1" stop-color="#f5f5f5"/></linearGradient><linearGradient id="linear-gradient-4" x1="703.87" y1="860.26" x2="906.42" y2="860.26" gradientUnits="userSpaceOnUse"><stop offset="0" stop-color="#d5e4ff"/><stop offset="1" stop-color="#edfffe"/></linearGradient><linearGradient id="linear-gradient-5" x1="231.85" y1="435.92" x2="779.66" y2="435.92" gradientUnits="userSpaceOnUse"><stop offset="0" stop-color="#ffc05c"/><stop offset="1" stop-color="#ff3857"/></linearGradient><linearGradient id="linear-gradient-6" x1="1477.79" y1="1040.41" x2="1249.24" y2="1040.41" xlink:href="#linear-gradient-5"/><linearGradient id="linear-gradient-7" x1="1477.79" y1="1081.63" x2="1249.24" y2="1081.63" xlink:href="#linear-gradient-5"/><linearGradient id="linear-gradient-8" x1="1477.79" y1="916.74" x2="1249.24" y2="916.74" xlink:href="#linear-gradient-5"/><linearGradient id="linear-gradient-9" x1="1430.01" y1="875.52" x2="1263.04" y2="875.52" xlink:href="#linear-gradient-5"/><linearGradient id="linear-gradient-10" x1="1448.96" y1="999.19" x2="1257.57" y2="999.19" xlink:href="#linear-gradient-5"/><linearGradient id="linear-gradient-11" x1="1477.79" y1="957.97" x2="1249.24" y2="957.97" xlink:href="#linear-gradient-5"/><linearGradient id="linear-gradient-12" x1="1300.47" y1="812.44" x2="1482.1" y2="812.44" xlink:href="#linear-gradient-4"/><linearGradient id="linear-gradient-13" x1="1300.47" y1="758.59" x2="1520.44" y2="758.59" xlink:href="#linear-gradient-4"/><filter id="luminosity-noclip-3" x="550.03" y="1191.54" width="910.52" height="25.42" filterUnits="userSpaceOnUse" color-interpolation-filters="sRGB"><feFlood flood-color="#fff" result="bg"/><feBlend in="SourceGraphic" in2="bg"/></filter><mask id="mask-3" x="550.03" y="1191.54" width="910.52" height="25.42" maskUnits="userSpaceOnUse"><g class="cls-1"><polygon class="cls-2" points="1460.55 1216.96 622.73 1216.96 601.94 1196.17 550.03 1196.17 550.03 1191.54 603.86 1191.54 624.64 1212.32 1460.55 1212.32 1460.55 1216.96"/></g></mask><linearGradient id="linear-gradient-14" x1="550.03" y1="1204.25" x2="1460.55" y2="1204.25" gradientUnits="userSpaceOnUse"><stop offset="0" stop-color="#d5e4ff"/><stop offset="0.82" stop-color="#e9fafe"/><stop offset="1" stop-color="#edfffe"/></linearGradient><filter id="luminosity-noclip-4" x="81.96" y="94.56" width="621.91" height="633.95" filterUnits="userSpaceOnUse" color-interpolation-filters="sRGB"><feFlood flood-color="#fff" result="bg"/><feBlend in="SourceGraphic" in2="bg"/></filter><mask id="mask-4" x="81.96" y="94.56" width="621.91" height="633.95" maskUnits="userSpaceOnUse"><g class="cls-3"><polygon class="cls-4" points="86.6 728.51 81.96 728.51 81.96 126.13 422.72 126.13 454.29 94.56 703.87 94.56 703.87 99.19 456.21 99.19 424.64 130.76 86.6 130.76 86.6 728.51"/></g></mask><linearGradient id="linear-gradient-15" x1="81.96" y1="411.54" x2="703.87" y2="411.54" xlink:href="#linear-gradient-14"/><linearGradient id="linear-gradient-16" x1="329.1" y1="509.23" x2="329.1" y2="1063.33" xlink:href="#linear-gradient-3"/><linearGradient id="linear-gradient-17" x1="829.06" y1="-43.54" x2="829.06" y2="900.93" xlink:href="#linear-gradient-3"/><linearGradient id="linear-gradient-18" x1="787.55" y1="-43.54" x2="787.55" y2="900.93" xlink:href="#linear-gradient-3"/><linearGradient id="linear-gradient-19" x1="715.99" y1="-43.54" x2="715.99" y2="900.94" xlink:href="#linear-gradient-3"/></defs><title>analysis_1</title><g class="cls-5"><g id="Layer_2" data-name="Layer 2"><g id="_Layer_" data-name="&lt;Layer&gt;"><rect class="cls-6" width="1716" height="1879.65"/><path class="cls-6" d="M1276.76,1879.65h48.49C1294.74,1880.44,1276.76,1879.65,1276.76,1879.65Z"/><rect class="cls-7" x="134.19" y="173.01" width="1479.25" height="977.42" rx="15.88"/><path class="cls-8" d="M900.48,826.16a101.25,101.25,0,1,0-190.67,68.19q1.16,3.23,2.5,6.31a101.25,101.25,0,0,0,188.17-74.5ZM830.71,931.73a75.84,75.84,0,0,1-95.17-41.18c-.67-1.55-1.29-3.12-1.87-4.73a75.91,75.91,0,1,1,97,45.91Z"/><path class="cls-9" d="M732.68,837.63l-24.19-7.55A101.37,101.37,0,0,1,802.12,759l.76,25.33a76,76,0,0,0-70.2,53.27Z"/><path class="cls-10" d="M735.54,890.55l-23.23,10.11q-1.35-3.09-2.5-6.31a100.77,100.77,0,0,1-1.32-64.27l24.19,7.55a75.58,75.58,0,0,0,1,48.19C734.25,887.43,734.87,889,735.54,890.55Z"/><path class="cls-11" d="M728,925.87a100.63,100.63,0,0,1-15.69-25.21l23.23-10.11a75.55,75.55,0,0,0,11.77,18.9Z"/><rect class="cls-6" x="703.87" y="1042.23" width="202.55" height="15.62"/><rect class="cls-6" x="703.87" y="1075.43" width="151.57" height="15.62"/><path class="cls-12" d="M1482,887.69a.16.16,0,0,1,.1,0C1481.69,887.86,1481.63,887.88,1482,887.69Z"/><path class="cls-6" d="M1198.51,897a101.25,101.25,0,1,0-188.27-74.55q-1.26,3.18-2.29,6.39A101.25,101.25,0,0,0,1198.51,897Zm-122.08,33.3a75.81,75.81,0,0,1-44.34-93.73q.77-2.4,1.71-4.79a75.91,75.91,0,1,1,42.63,98.52Z"/><path class="cls-13" d="M1064.85,794.94l-13.19-21.64a101.39,101.39,0,0,1,117.23,8.38l-16.14,19.53a76,76,0,0,0-87.9-6.27Z"/><path class="cls-14" d="M1032.09,836.59,1008,828.86q1-3.21,2.29-6.39a100.79,100.79,0,0,1,41.42-49.17l13.19,21.64a75.52,75.52,0,0,0-31,36.86Q1032.86,834.19,1032.09,836.59Z"/><path class="cls-15" d="M1003.12,858.16a100.85,100.85,0,0,1,4.83-29.3l24.14,7.73a75.31,75.31,0,0,0-3.63,22Z"/><rect class="cls-6" x="1003.11" y="1041.72" width="111.69" height="15.62"/><rect class="cls-6" x="1003.11" y="1074.92" width="165.78" height="15.62"/><rect class="cls-6" x="230.31" y="278.7" width="3.52" height="369.53"/><rect class="cls-6" x="387.94" y="278.7" width="3.52" height="369.53"/><rect class="cls-6" x="573.69" y="278.7" width="3.52" height="369.53"/><rect class="cls-6" x="777.2" y="278.7" width="3.52" height="369.53"/><rect class="cls-6" x="232.07" y="670.12" width="39.84" height="12.84"/><rect class="cls-6" x="573.69" y="670.12" width="70.38" height="12.84"/><rect class="cls-6" x="384.87" y="670.12" width="70.38" height="12.84"/><rect class="cls-6" x="777.2" y="670.12" width="39.5" height="12.84"/><rect class="cls-16" x="232.07" y="233.17" width="59.98" height="9.63"/><rect class="cls-16" x="232.07" y="250.98" width="85.08" height="9.63"/><path class="cls-17" d="M766.29,506c0-.29-5.47-28.38-30.07-43-18.67-11.1-43.61-11.73-74.12-1.87-31.7,10.24-56.53,15.21-78.08,15.21-46.52,0-77.79-23.15-130-66.4-32.6-27-72.23-36.69-111.59-27.33-42.89,10.2-78.73,41.73-98.33,86.52l-12.21-5.35c21.29-48.65,60.46-83,107.46-94.14a136.55,136.55,0,0,1,63.09-.22,145.5,145.5,0,0,1,60.08,30.25C538,462.17,563.93,478.83,658,448.45c34.41-11.12,63.07-10,85.19,3.19,29.78,17.81,36.21,51.23,36.47,52.63Z"/><rect class="cls-6" x="1300.47" y="990.36" width="228.33" height="17.67"/><rect class="cls-6" x="1300.47" y="1031.58" width="246.72" height="17.67"/><rect class="cls-6" x="1300.47" y="1072.8" width="160.08" height="17.67"/><rect class="cls-18" x="1300.47" y="1031.58" width="128.46" height="17.67"/><rect class="cls-19" x="1300.47" y="1072.8" width="83.35" height="17.67"/><rect class="cls-6" x="1300.47" y="866.69" width="228.33" height="17.67"/><rect class="cls-6" x="1300.47" y="907.91" width="246.72" height="17.67"/><rect class="cls-6" x="1300.47" y="949.13" width="160.08" height="17.67"/><rect class="cls-20" x="1300.47" y="907.91" width="128.46" height="17.67"/><rect class="cls-21" x="1300.47" y="866.69" width="93.85" height="17.67"/><rect class="cls-22" x="1300.47" y="990.36" width="107.58" height="17.67"/><rect class="cls-23" x="1300.47" y="949.13" width="83.35" height="17.67"/><rect class="cls-24" x="1300.47" y="798" width="181.63" height="28.86"/><rect class="cls-25" x="1300.47" y="744.16" width="219.97" height="28.86"/><g class="cls-26"><polygon class="cls-27" points="1460.55 1216.96 622.73 1216.96 601.94 1196.17 550.03 1196.17 550.03 1191.54 603.86 1191.54 624.64 1212.32 1460.55 1212.32 1460.55 1216.96"/></g><g class="cls-28"><polygon class="cls-29" points="86.6 728.51 81.96 728.51 81.96 126.13 422.72 126.13 454.29 94.56 703.87 94.56 703.87 99.19 456.21 99.19 424.64 130.76 86.6 130.76 86.6 728.51"/></g><g class="cls-30"><rect class="cls-31" x="909.25" y="55.64" width="551.64" height="640.7" rx="15.85"/></g><path class="cls-32" d="M1244.14,321.38a141,141,0,1,0-265.48,94.95c1.07,3,2.23,5.92,3.47,8.79a141,141,0,0,0,262-103.74Zm-97.14,147A105.57,105.57,0,0,1,1014.49,411q-1.4-3.22-2.61-6.59A105.69,105.69,0,1,1,1147,468.38Z"/><path class="cls-33" d="M1010.51,337.35l-33.68-10.51a141.13,141.13,0,0,1,130.36-98.93l1,35.27a105.82,105.82,0,0,0-97.73,74.17Z"/><path class="cls-34" d="M1014.49,411l-32.36,14.09c-1.24-2.87-2.4-5.81-3.47-8.79a140.37,140.37,0,0,1-1.83-89.49l33.68,10.51a105.24,105.24,0,0,0,1.37,67.09Q1013.1,407.8,1014.49,411Z"/><path class="cls-35" d="M1004,460.21a140.56,140.56,0,0,1-21.86-35.09L1014.49,411a105.24,105.24,0,0,0,16.38,26.32Z"/><path class="cls-32" d="M1366.37,407.5a58.31,58.31,0,1,0-49.88,105.42c1.19.56,2.39,1.08,3.59,1.56a58.32,58.32,0,0,0,46.29-107ZM1381,478.91a43.66,43.66,0,0,1-55.53,22c-.9-.35-1.8-.74-2.69-1.16A43.72,43.72,0,1,1,1381,478.91Z"/><path class="cls-33" d="M1302.71,480.51l-12.93,6.77a58.42,58.42,0,0,1,9.19-67.07l10.63,10a43.77,43.77,0,0,0-6.89,50.29Z"/><path class="cls-34" d="M1325.42,500.89l-5.34,13.59c-1.2-.48-2.4-1-3.59-1.56a58,58,0,0,1-26.71-25.64l12.93-6.77a43.53,43.53,0,0,0,20,19.22C1323.62,500.15,1324.52,500.54,1325.42,500.89Z"/><path class="cls-32" d="M1394.14,307.57a58.31,58.31,0,1,0-105.42-49.88c-.56,1.18-1.08,2.38-1.55,3.58a58.31,58.31,0,0,0,107,46.3Zm-71.41,14.58a43.66,43.66,0,0,1-22-55.53c.35-.9.74-1.8,1.16-2.69a43.72,43.72,0,1,1,20.82,58.22Z"/><path class="cls-32" d="M1321.13,243.9,1314.36,231a58.42,58.42,0,0,1,67.07,9.19l-10,10.62a43.83,43.83,0,0,0-50.29-6.89Z"/><path class="cls-34" d="M1300.75,266.62l-13.58-5.35c.47-1.2,1-2.4,1.55-3.58A58,58,0,0,1,1314.36,231l6.77,12.92a43.6,43.6,0,0,0-19.22,20C1301.49,264.82,1301.1,265.72,1300.75,266.62Z"/><path class="cls-35" d="M1283.29,277.93a58.11,58.11,0,0,1,3.88-16.66l13.58,5.35a43.35,43.35,0,0,0-2.91,12.49Z"/><polygon class="cls-36" points="1323.52 556.78 1214.63 556.78 1214.63 554.62 1321.35 554.62 1321.35 513.48 1323.52 513.48 1323.52 556.78"/><polygon class="cls-36" points="1118.45 556.78 976.83 556.78 976.83 554.62 1116.29 554.62 1116.29 487.28 1118.45 487.28 1118.45 556.78"/><rect class="cls-32" x="976.83" y="532.09" width="97.45" height="12.99"/><rect class="cls-32" x="1214.63" y="532.09" width="57.32" height="12.99"/><rect class="cls-32" x="954.75" y="110.63" width="46.64" height="9.97"/><rect class="cls-32" x="1149.18" y="148.16" width="72.36" height="9.97"/><rect class="cls-32" x="1055.62" y="148.16" width="44.17" height="9.97"/><rect class="cls-32" x="954.75" y="148.16" width="87.52" height="9.97"/><rect class="cls-32" x="1015.59" y="110.63" width="69.11" height="9.97"/><rect class="cls-32" x="1113.62" y="148.16" width="18.98" height="9.97"/><rect class="cls-32" x="1169.92" y="111.19" width="51.63" height="9.97"/><rect class="cls-32" x="1239.96" y="148.16" width="44.02" height="9.97"/><rect class="cls-32" x="1101.69" y="111.19" width="54.72" height="9.97"/><polygon class="cls-37" points="246.02 516.71 412.73 517.47 412.18 638.31 412.06 663.76 386.72 638.19 245.46 637.54 246.02 516.71"/><path class="cls-6" d="M316.35,582.3a12.73,12.73,0,1,0,12.77-12.69A12.73,12.73,0,0,0,316.35,582.3Z"/><path class="cls-6" d="M274.53,582.17a12.74,12.74,0,1,0,12.78-12.7A12.73,12.73,0,0,0,274.53,582.17Z"/><path class="cls-6" d="M357.21,582.43A12.73,12.73,0,1,0,370,569.73,12.72,12.72,0,0,0,357.21,582.43Z"/><polygon class="cls-38" points="812.09 147.05 860.99 147.05 846.02 116.01 797.13 116.01 812.09 147.05"/><polygon class="cls-39" points="789.21 147.05 800.86 147.05 785.9 116.01 774.25 116.01 789.21 147.05"/><polygon class="cls-40" points="620.28 110.08 818.27 110.08 811.7 94.56 613.71 94.56 620.28 110.08"/><polygon class="cls-41" points="574.77 1439.02 502.04 1742.28 486.02 1742.28 547.7 1438.37 574.77 1439.02"/><polygon class="cls-41" points="654.12 1439.02 581.38 1742.28 565.37 1742.28 627.04 1438.37 654.12 1439.02"/><polygon class="cls-41" points="782.45 1439.02 855.18 1742.28 871.2 1742.28 809.53 1438.37 782.45 1439.02"/><path class="cls-42" d="M851.29,1442H537.89s-21.83-.5-36.45-65.17c-16.44-72.74-49.66-315.71-49.66-315.71s8.81-22.61,146.58-19.72l246.71,320.1S853.49,1411.94,851.29,1442Z"/><rect class="cls-43" x="635.6" y="1163.85" width="599.68" height="20.66"/><rect class="cls-44" x="951.33" y="802.32" width="14.44" height="320.12"/><path class="cls-45" d="M986.74,1163.85H1094.8v-6.55H986.74c-5.63,0-9.69-1.33-12-4a10.57,10.57,0,0,1-2.4-7.51l0-.21V1005.78h-6.55v139.48a17.2,17.2,0,0,0,4,12.34C973.38,1161.75,979.1,1163.85,986.74,1163.85Z"/><path class="cls-44" d="M831.91,1152.39H953.55a0,0,0,0,1,0,0v8.82a2.65,2.65,0,0,1-2.65,2.65h-119a0,0,0,0,1,0,0v-11.47A0,0,0,0,1,831.91,1152.39Z" transform="translate(1785.46 2316.24) rotate(180)"/><rect class="cls-46" x="1172.92" y="1184.51" width="17.04" height="561.22" transform="translate(2362.88 2930.25) rotate(180)"/><rect class="cls-46" x="680.91" y="1184.51" width="17.04" height="561.22" transform="translate(1378.87 2930.25) rotate(180)"/><path class="cls-47" d="M1103.65,1163.85c7.68-3.2,20.09-39.48,26.06-58.26,2.12-6.67,3.43-11.13,3.43-11.13h-70.26c6.07,43.37,20.82,69.39,20.82,69.39Z"/><path class="cls-48" d="M1109.29,1072.85c0-2.52,11.27-13.09,16.91-20s-2.17-20-2.17-20c-25.15,10.41-20.82,40-20.82,40S1109.29,1075.37,1109.29,1072.85Z"/><path class="cls-48" d="M1095,1074h3s2.17-51.08-16.48-58-18.65-20.82-18.65-20.82-5.64,19.09,3.47,29.06,19.51,21.69,17.78,31.23S1095,1074,1095,1074Z"/><path class="cls-49" d="M1129.71,1105.59c2.12-6.67,3.43-11.13,3.43-11.13h-70.26c6.07,43.37,20.82,69.39,20.82,69.39h4.58C1087.43,1123.24,1114.17,1109.9,1129.71,1105.59Z"/><polygon class="cls-50" points="1133.13 1072.85 1062.34 1072.85 1058.31 1094.46 1136 1094.46 1133.13 1072.85"/><path class="cls-51" d="M275.08,1775.88s-26.64,37.43-23,43.36,31.68,6.78,48.73,0,17.46-50.64,25.17-69.49c3.23-7.89-3.68-31.18-13.39-32.87s-20.3,3.27-20.3,3.27S302.39,1746.7,275.08,1775.88Z"/><path class="cls-52" d="M292.13,1719.85s-5.61,15.94-7.66,31.16c-1.7,12.62-19,39.42-18.17,42.81s22.74,6.45,31.68-2.28,14.68-34.16,16.64-49.36c1.84-14.16,4.15-21.15,4.15-21.15S300.65,1710.53,292.13,1719.85Z"/><path class="cls-51" d="M507,1776.5s-25.68,36.81-22,42.74,31.67,6.78,48.73,0,17.46-50.64,25.17-69.49c3.23-7.89-3.68-31.18-13.4-32.87s-21.11,3.63-21.11,3.63S534.28,1747.32,507,1776.5Z"/><path class="cls-52" d="M524.34,1720.51s-2,17.38-5.28,29.66-20.71,40.26-19.9,43.65,22.74,6.45,31.67-2.28,15.84-34,16.65-49.36-2-25.3-2-25.3S532.86,1711.19,524.34,1720.51Z"/><path class="cls-52" d="M396,1111.18s-22.86,111-28.11,138.93-19.95,163.27-21.53,186.29-23.85,109.71-22.8,117.93-33,173.31-33,173.31,11.64,9.78,23.91.89c6.32-4.58,74.79-154.56,74.79-195.65,0-56.81,40.25-131,45.44-143.66,48.25-118,38.75-154.15,45-161.82s6.85,4.74,10.52,21.72S501.78,1413,506.5,1431.57s1.06,81.64,3.69,113.42,14.15,175.52,14.15,175.52,8.93,14.6,21.45.38c2.69-3.06,21.62-160.12,22.15-197.93S569,1433,570,1416.67c9.72-156.66,33.63-179-4-289.91C495.51,919.16,396,1111.18,396,1111.18Z"/><path class="cls-53" d="M549.53,1080.17s65.14,95.12,37.09,297.46c0,0-154.48,21.93-237.24-25.36,0,0,34.22-208.62,46.62-241.09S549.53,1080.17,549.53,1080.17Z"/><polygon class="cls-51" points="326.71 1746.46 326.71 1785.64 321.83 1785.64 321.83 1755.35 326.71 1746.46"/><polygon class="cls-51" points="559.56 1746.46 559.56 1785.64 554.69 1785.64 554.69 1755.35 559.56 1746.46"/><path class="cls-52" d="M472.32,658.38S428.7,702.32,443.55,758.9s38.73,56.89,65,32.55,41.8-49.94,45.28-78.39S512.14,619.19,472.32,658.38Z"/><path class="cls-52" d="M463.78,847.08a257.66,257.66,0,0,0,11-31.46c.8-2.94,1.54-5.93,2.17-8.92,2.23-10.48,3.14-20.8.74-27.89-7-20.55,43.62-6.32,43.62-6.32s-9.8,54.36,0,72.7S463.78,847.08,463.78,847.08Z"/><path class="cls-54" d="M592,873c-8-15.88-13.92-21-29.3-25.86-8.61-2.72-47.08-12.73-47.08-12.73l-46.2-1.7S437.61,838,413,846.52s-57,55.24-57,55.24,44.57,104.63,53.1,134.65,2.84,76.49,2.84,76.49C465.36,1142,551,1110.06,551,1110.06c-6.5-23.46-6.76-50.85-3.35-70.29.4-2.29.85-4.47,1.35-6.52.46-1.87,1.1-4.54,1.83-7.54a2.88,2.88,0,0,0,.09-.4c34,3.48,65.84,4.89,66.68-1.92C621.37,992.69,602.91,894.82,592,873Zm-23.54,119.3c-1.37-.21-4.29-.23-7.36-.5,3.77-10.53,8-19.85,8-19.85C571.45,978.65,580.6,994.1,568.42,992.28Z"/><path class="cls-55" d="M486.54,690s20.86,37.93,33.82,51.52,11.44,24.38,11.44,24.38,50.51-62.31,14.48-99.92-82.5-22.44-96.09,10.43-8.61,73-8.61,73S442,710.85,486.54,690Z"/><path class="cls-55" d="M500.3,650.28s-5-27.77,38.5-38.81,63.11,39.12,57.74,69.73S554,789.42,574.14,799.52s28.09-11.67,28.09-11.67-6.32,38.18-34.4,29.34-24.3-70.88-20.06-95.6S500.3,650.28,500.3,650.28Z"/><path class="cls-56" d="M514.33,786c-.17.4-11.18,25.74-39.55,29.67.8-2.94,1.54-5.93,2.17-8.92C477,806.7,492.5,809.84,514.33,786Z"/><path class="cls-57" d="M568.42,972.3s-2.08,4.38-7.78,21.65c-5.8-48.5-2.77-73.75-2.77-73.75C558.5,946.12,568.42,972.3,568.42,972.3Z"/><path class="cls-54" d="M507.09,644.45s30.9,5.94,46.32,31.11c0,0-3.13-22.79-18.51-29.36S507.09,644.45,507.09,644.45Z"/><path class="cls-57" d="M550.85,1025.71c-.73,3-1.37,5.67-1.83,7.54-.5,2-.95,4.23-1.35,6.52-19.14-10.4-32.89-18.54-32.89-18.54C519.93,1022.38,550.85,1025.71,550.85,1025.71Z"/><path class="cls-52" d="M518.17,835.06,463.78,879.4l5.6-46.71S501.1,825.84,518.17,835.06Z"/><polygon class="cls-58" points="479.5 871.87 463.78 879.39 517.2 826.44 479.5 871.87"/><path class="cls-59" d="M554.06,1021.87c-7.49,31,20.21,100.84,20.21,100.84l-54.9,17.16a14.06,14.06,0,0,1-17.95-10.46c-7.35-34.16-24.58-118.25-26.64-165-2.63-59.65,40.8-130,40.8-130,77.2,13.24,56,130,56,130s-2.8,7.35-6.54,18.85h0c-1,2.88-1.94,6-3,9.4C559.45,1001.3,556.6,1011.32,554.06,1021.87Z"/><path class="cls-59" d="M463.91,835.24l1-2.55s-39.53,6-59.63,16-58.55,61.87-58.55,61.87L397,977c.05,51-8.22,141.78-8.22,141.78l23,13.25a9.36,9.36,0,0,0,14.05-7.94c.65-34.51,2.2-116.45,3-156.14,1.05-51,37.47-133.59,37.47-133.59C465.5,834.66,464.71,835,463.91,835.24Z"/><path class="cls-52" d="M392.24,1074.56s37.93,1.47,43.83,0,45.26-18.54,47.63-35.41-91.46,15.12-91.46,15.12Z"/><polygon class="cls-60" points="509.93 1021.88 356 1003.86 425.54 1060.44 509.93 1021.88"/><polygon class="cls-12" points="425.54 1060.44 509.93 1031.67 509.93 1021.88 422.69 1049.86 425.54 1060.44"/><path class="cls-52" d="M465.21,993.61s-12.73,0-19.86-1.45c-5.52-1.12-19.23.43-22.73,3.52s-14.6,24.67-16.7,26,1.07,4.36,4.76,2.83c0,0,3.39,9.44,11.75,5.91s14-11.25,18.42-12.61,29.89-8.22,29.89-8.22S471.79,991.31,465.21,993.61Z"/><polygon class="cls-61" points="472.29 824.08 442.99 870.48 428.84 879.39 461.81 833.19 472.29 824.08"/><polygon class="cls-58" points="442.99 870.48 463.78 879.39 469.63 832.84 472.29 824.08 442.99 870.48"/><path class="cls-59" d="M396.88,1052.85s-1.58,19.6,0,23.71c0,0-94.93-9.48-103.78-22.76s-8.54-29.4-8.54-29.4Z"/><polygon class="cls-62" points="425.54 1060.44 380.65 893.55 209.97 875.53 256.75 1029.15 425.54 1060.44"/><polygon class="cls-61" points="517.2 826.44 479.5 871.87 500.13 890.27 522.39 835.88 517.2 826.44"/><path class="cls-63" d="M566.33,979.42l-1.26,3.85c-1,2.88-1.94,6-3,9.4-7.28,2.29-70.34-2.33-70.34-2.33S544.53,977.94,566.33,979.42Z"/><path class="cls-59" d="M562.69,991.43c-10.15-.76-26.79-1.85-40.41-1.9-21.18-.1-57.41,2.27-57.41,2.27l4.32,22.63s64.18,10.43,99.23,12.88h0s46.25,5.31,49.69-1.59-1.14-51.21-8.66-91.14S594.19,871.66,585,859.33s-57.79-21.94-57.79-21.94L568.42,972.3s5.91,12,5.61,17.22c-.09,1.58-1.19,2.33-2.67,2.61l-6.46-.53Z"/></g></g></g></svg>