<?xml version="1.0" encoding="utf-8"?>
<!-- Generator: Adobe Illustrator 24.0.1, SVG Export Plug-In . SVG Version: 6.00 Build 0)  -->
<svg version="1.1" id="Layer_1" xmlns="http://www.w3.org/2000/svg" xmlns:xlink="http://www.w3.org/1999/xlink" x="0px" y="0px"
	 viewBox="0 0 617.1 608" style="enable-background:new 0 0 617.1 608;" xml:space="preserve">
<style type="text/css">
	.st0{fill:none;}
	.st1{fill:#71DAFF;}
	.st2{fill:#334451;}
</style>
<title>budget_2</title>
<g id="Layer_2_1_">
	<g id="Layer_2-2">
		<path class="st0" d="M180.3,217.5c-5.4,3.5-10.7,7.3-15.6,11.3c4.5,3.4,9.4,7.6,14.1,12c5-3.9,10.2-7.5,15.7-10.8
			C190.1,225.9,185.2,221.6,180.3,217.5z M156.1,259.3c-0.7-7.6-1.2-15.2-1.4-22c-6.3,5.7-12.2,11.8-17.6,18.4
			c-12,14.8-21,31-26.2,48.2c9.9-8.2,19.5-17,28.5-26.3c0.3,2,0.5,3.9,0.7,5.5c4.7-7.7,10.1-15,16.1-21.7
			C156.2,260.7,156.1,260,156.1,259.3z M539.2,247.3H539c-5.1,0.2-9.1,4.5-8.9,9.6c0.2,4.9,4.2,8.8,9,8.9h0.3
			c4.5-0.1,9-0.8,13.4-1.9C548.7,258.1,544.1,252.5,539.2,247.3L539.2,247.3z M156.1,259.3c-5.6,6.5-11.1,12.6-16.6,18.3
			c0.3,2,0.5,3.9,0.7,5.5c4.7-7.7,10.1-15,16.1-21.7C156.2,260.7,156.1,260,156.1,259.3z M430.2,492.6c-1,0.3-2,0.6-3,0.8
			c0.9-0.4,1.9-0.9,2.9-1.4 M430.2,492.6L430,492 M430.1,492.6L430,492"/>
		<path class="st0" d="M316.5,510.2c-2.6-0.4-5-0.7-7.3-1c-2-0.3-3.8-0.7-5.5-1l-2.7-0.5c-0.9-0.2-1.8-0.4-2.6-0.6 M294.7,525.2
			L294.7,525.2l3.6-18.2 M316.4,510.2l-3.6,18.4 M316.4,510.2c-2.6-0.4-5-0.7-7.3-1c-2-0.3-3.8-0.7-5.5-1l-2.7-0.5
			c-0.9-0.2-1.8-0.4-2.6-0.6L316.4,510.2z"/>
		<path class="st1" d="M583.2,159.7L583.2,159.7c-23.6-9.5-50.4,1.8-59.9,25.4c0,0,0,0.1-0.1,0.1c-7.9,19.8,1.4,42.3,20.9,50.9
			l1,0.4c3.3,1.3,6.9,1.3,10.2-0.1c3.2-1.4,5.8-4,7.1-7.2c1.3-3.3,1.3-7-0.2-10.3c-1.4-3.2-4-5.7-7.2-6.9
			c-6.7-2.7-9.9-10.2-7.2-16.9c2-4.8,5.7-8.7,10.5-10.7c4.8-2.1,10.2-2.1,15-0.2l0.7,0.3c13.8,6,20.4,21.9,14.7,35.9
			c-7.8,19.4-29.8,28.8-49.3,21.2l-0.2-0.1l-0.2-0.1c-45-45.8-118.6-73.2-197.1-73.2c-60,0-117.1,15.7-161.4,44.3
			c-12.4-9.7-22.5-15-30.8-16c-5.9-0.7-11.5,2.5-13.8,8c-3.6,8.5-4.6,23.9-3.1,47C76.5,314.4,16.3,334.7,9.5,336.8l0,0
			c-6.4,1.9-10.4,8.4-9.3,15c0.1,0.7,6.9,37,15.8,81.6c1.5,7.5,5.5,14.3,11.2,19.3c62.7,54.6,131.7,69.2,169,73l14.9,61.4
			c2.9,12.3,13.9,20.9,26.5,20.9h41.2c13,0,24.2-9.2,26.7-22l10.4-53c9,1.1,18,1.6,27,1.6c24,0.1,47.9-3.8,70.7-11.5l13.9,65.6
			c2.4,11.2,12.3,19.3,23.8,19.3h42.8c11.3,0,21.4-7.2,25.1-17.9c16.1-47.2,68.3-204.9,63.7-254c-0.2-1.7-0.6-3.3-1.4-4.8
			c-1.2-21.2-7.9-41.8-20-61.1c23.1-3,42.7-18.2,51.4-39.8C624.3,202.7,610.8,171.1,583.2,159.7z M543.5,419.2
			c-11,44-28.5,101.7-49.2,162.3h-41.1l-15.3-71.7l-4.7-22.2l-5.1,1.4l-0.4-0.4l-2.5,1.2l-0.7,0.3l-0.8,0.4
			c-2.5,1.2-5.3,2.4-8.5,3.7l-1.2,0.5c-0.9,0.3-1.7,0.7-2.6,1l-3.1,1.2c-3.5,1.2-6.7,2.3-9.9,3.2c-3.4,1-7,1.9-10.5,2.7
			s-7,1.5-10.6,2.1s-7.1,1.1-10.7,1.5s-7.2,0.7-10.8,1s-7.1,0.4-10.7,0.4c-9,0.1-18-0.4-26.9-1.6H318c-7.8-1-13.9-2-16.8-2.5
			c-3.4-0.7-6.7,1.5-7.4,4.9c0,0,0,0.1,0,0.1l-2.7,13.6c0,0.1,0,0.3-0.1,0.4l-11.5,58.2c-0.1,0.4-0.4,0.7-0.8,0.7h-41.2
			c-0.4,0-0.7-0.2-0.7-0.6l-14.2-58.7l-5.3-21.7l-3-0.1c-6.1-0.2-12.5-0.8-19.1-1.6c-32.4-3.9-95-17.7-150.6-66
			c-1.4-1.2-2.3-2.8-2.7-4.6c-4.5-22.5-8.9-45.5-13.6-70.1c17.7-6.9,49.8-22.1,85.1-51.3c7.9-6.5,15.6-13.5,23-20.7
			c0.2,1.2,0.3,2.2,0.5,3.2c0.2,1.3,0.4,2.4,0.5,3.2v0.1c1.1,6.4,6.6,11.1,13.1,11.2c0.7,0,1.4-0.1,2.1-0.2
			c7.2-1.2,12.1-7.9,11.1-15.1c-1.3-8.3-2.5-18.1-3.4-27.5c-0.1-0.8-0.1-1.5-0.2-2.2c-0.7-8.1-1.2-15.4-1.3-21.8V237
			c-0.1-1.6-0.1-3.2-0.1-4.7c0-0.9,0-2,0-3c1.1,0.8,2.3,1.7,3.6,2.7c4.2,3.2,8.8,7.2,13.8,11.8c7.2,6.7,14.9,14.4,21,21.3
			c4.9,5.5,13.2,5.9,18.7,1.1c5.5-4.9,5.9-13.2,1.1-18.7c-5.2-5.8-10.6-11.5-16-16.8c39-23.2,88.8-36,141-36
			c55.4,0,108,14.3,148.1,40.3c39.5,25.6,62.7,59.9,65.2,96.5v0.1c0.2,2.2,0.3,4.5,0.3,6.7c0,4.1-0.2,8.1-0.8,12.2l-0.9,6.5l2.3-0.8
			C554.4,371.7,550.1,393.3,543.5,419.2z"/>
		<path class="st2" d="M409.5,229.5c-1.5,4.8-6.6,7.5-11.4,6.1c-27.8-8.5-60.8-8.4-98.3,0.2c-0.7,0.2-1.4,0.2-2.1,0.2
			c-1.7,0-3.4-0.5-4.8-1.4c-4.3-2.7-5.5-8.3-2.9-12.6l0,0c1.3-2.1,3.3-3.5,5.7-4.1c18.7-4.4,37.9-6.8,57.2-6.9
			c17.1-0.1,34.1,2.3,50.5,7.1C408.2,219.6,410.9,224.7,409.5,229.5z"/>
		<path class="st2" d="M350.5,0c-33.9,0-61.4,27.5-61.4,61.3c0,33.9,27.5,61.4,61.3,61.4s61.4-27.5,61.4-61.3c0,0,0,0,0,0
			C411.8,27.5,384.3,0,350.5,0z M350.5,110.4c-27.1,0-49-21.9-49-49s21.9-49,49-49s49,21.9,49,49
			C399.4,88.4,377.5,110.3,350.5,110.4z"/>
		<path class="st2" d="M350.5,24.6c-20.3,0-36.7,16.4-36.7,36.7S330.2,98,350.5,98s36.7-16.4,36.7-36.7
			C387.1,41.1,370.7,24.7,350.5,24.6z M350.5,87.8C335.8,87.8,324,76,324,61.4c0-14.6,11.8-26.5,26.4-26.5
			c14.6,0,26.5,11.8,26.5,26.4c0,0,0,0,0,0C376.9,75.9,365.1,87.8,350.5,87.8z"/>
		<path class="st2" d="M186.5,354.4c0,10.4-8.4,18.8-18.8,18.8c-10.4,0-18.8-8.4-18.8-18.8c0-10.4,8.4-18.8,18.8-18.8c0,0,0,0,0,0
			C178.1,335.6,186.5,344,186.5,354.4z"/>
	</g>
</g>
</svg>
