<svg xmlns="http://www.w3.org/2000/svg" viewBox="0 0 552.8 630.78"><defs><style>.cls-1{fill:#71daff;}.cls-2{fill:#b3b3b3;}.cls-3{fill:#334451;}</style></defs><title>competitors</title><g id="Layer_2" data-name="Layer 2"><g id="icons"><path class="cls-1" d="M89.43,566.26a7.5,7.5,0,0,1-7.5-7.5V432.49a7.5,7.5,0,0,1,15,0V558.76A7.5,7.5,0,0,1,89.43,566.26Z"/><path class="cls-1" d="M87.91,270.68c47.28,0,54.66,29.93,54.66,29.93l19.08,108.44s-1.73,12.58-11.71,12.58-13-12.58-13-12.58l-11.5-70.27-7.81,215.37S91,553.5,72.56,553.5c-9.35,0-16.57.17-17.08.68L50.6,339.11,36.94,411S38,421.2,24.14,421.2s-7.8-23.86-7.8-23.86L36.72,291.06s3.91-20.38,51.19-20.38m0-15c-22.89,0-40.47,4.42-52.25,13.13-10.76,8-13.18,16.89-13.67,19.43L1.68,394.12c-1.37,5.61-4.45,22.36,4.08,33.33a22.74,22.74,0,0,0,18.38,8.75,32.32,32.32,0,0,0,13.6-2.72l2.75,121a15,15,0,0,0,18.6,14.22c1.32-.09,4.81-.24,13.47-.24,18,0,44.43.64,44.7.65h.37a15,15,0,0,0,15-14.45L137,433.21a25.49,25.49,0,0,0,12.92,3.42c15.84,0,24.88-13.23,26.57-25.53a14.81,14.81,0,0,0-.08-4.65L157.34,298q-.09-.5-.21-1c-.48-1.95-3.4-12.19-13.74-22.17-9.07-8.75-26-19.17-55.48-19.17Z"/><path class="cls-1" d="M88.33,260.55a42.22,42.22,0,1,1,42.22-42.22A42.27,42.27,0,0,1,88.33,260.55Zm0-69.43a27.22,27.22,0,1,0,27.22,27.21A27.25,27.25,0,0,0,88.33,191.12Z"/><path class="cls-1" d="M464.23,565.46a7.5,7.5,0,0,1-7.5-7.5V407.53a7.5,7.5,0,0,1,15,0V558A7.49,7.49,0,0,1,464.23,565.46Z"/><path class="cls-2" d="M181.44,630.78a7,7,0,0,1-7-7v-55.2H17.75v55.2a7,7,0,0,1-14,0v-62.2a7,7,0,0,1,7-7H181.44a7,7,0,0,1,7,7v62.2A7,7,0,0,1,181.44,630.78Z"/><path class="cls-1" d="M464.56,266.61c47,0,54.28,30.24,54.28,30.24l19,109.56s-1.72,12.71-11.63,12.71-12.93-12.71-12.93-12.71l-11.41-71L494.07,553s-28.17.82-46.46.82c-9.18,0-15.87-.21-15.26-.83L427.5,335.74l-13.57,72.64s1.08,10.3-12.71,10.3-7.76-24.1-7.76-24.1l20.25-107.37s3.88-20.6,50.85-20.6m0-15c-22.81,0-40.32,4.48-52.06,13.32-10.65,8-13.05,17-13.53,19.51l-20.17,107C377.44,397.06,374.38,414,383,425a22.63,22.63,0,0,0,18.27,8.69,32.14,32.14,0,0,0,13.4-2.66l2.71,121.22a15.16,15.16,0,0,0,1.15,6.66c1.29,3.07,4.74,8.39,13.31,9.43,1.16.14,2.56.24,4.4.32,2.77.11,6.51.17,11.42.17,18.3,0,45.74-.8,46.9-.83a15,15,0,0,0,14.55-14.46l4.38-122.76a25.29,25.29,0,0,0,12.73,3.35c15.81,0,24.82-13.32,26.5-25.7a15.23,15.23,0,0,0-.09-4.57l-19-109.56c0-.32-.12-.65-.2-1-.47-2-3.36-12.24-13.6-22.29-9-8.86-25.94-19.42-55.26-19.42Z"/><path class="cls-2" d="M544.34,630.78a7,7,0,0,1-7-7v-55.2H380.66v55.2a7,7,0,0,1-14,0v-62.2a7,7,0,0,1,7-7H544.34a7,7,0,0,1,7,7v62.2A7,7,0,0,1,544.34,630.78Z"/><path class="cls-3" d="M278.36,507.55a10,10,0,0,1-10-10v-170a10,10,0,0,1,20,0v170A10,10,0,0,1,278.36,507.55Z"/><path class="cls-3" d="M232.79,507.66a10,10,0,0,1-10-10V206.24l-62.55-155c-2.42-3.82-9.45-16.38-6.71-29.22,1.58-7.38,6.11-13.52,13.09-17.74C176-1.37,183.85-.41,188.77,1.4c11.81,4.35,17.37,17.31,18.74,21L253,111a10,10,0,1,1-17.79,9.13l-45.81-89.2a10.12,10.12,0,0,1-.59-1.4c-1.13-3.25-4.19-8.37-7-9.37-1.16-.42-2.8,0-4.87,1.26-2.89,1.75-3.59,3.47-3.88,4.78C172,31.4,175.92,38.79,177.4,41a9.65,9.65,0,0,1,1,1.9l63.65,157.67a10,10,0,0,1,.72,3.74V497.66A10,10,0,0,1,232.79,507.66Z"/><path class="cls-3" d="M323.1,507.66a10,10,0,0,1-10-10V204.29a10,10,0,0,1,.72-3.74L377.47,42.88a10.09,10.09,0,0,1,1-1.94c1.45-2.15,5.41-9.54,4.27-14.73-.29-1.31-1-3-3.88-4.78-2.08-1.26-3.73-1.68-4.89-1.26-2.92,1.08-6,6.58-7,9.37a10.12,10.12,0,0,1-.59,1.4l-45.81,89.2A10,10,0,0,1,302.87,111l45.51-88.62c1.36-3.68,6.93-16.64,18.74-21C372-.41,379.87-1.37,389.27,4.32c7,4.22,11.5,10.36,13.08,17.74,2.75,12.84-4.29,25.4-6.7,29.22l-62.55,155V497.66A10,10,0,0,1,323.1,507.66Z"/><path class="cls-2" d="M373.1,630.78a7,7,0,0,1-7-7V508.55H188.27V623.78a7,7,0,0,1-14,0V501.55a7,7,0,0,1,7-7H373.1a7,7,0,0,1,7,7V623.78A7,7,0,0,1,373.1,630.78Z"/><path class="cls-3" d="M278.19,166.2a44.72,44.72,0,1,1,44.71-44.72A44.77,44.77,0,0,1,278.19,166.2Zm0-69.44a24.72,24.72,0,1,0,24.71,24.72A24.75,24.75,0,0,0,278.19,96.76Z"/><path class="cls-1" d="M465,258.4a42.22,42.22,0,1,1,42.21-42.21A42.27,42.27,0,0,1,465,258.4ZM465,189a27.22,27.22,0,1,0,27.21,27.22A27.25,27.25,0,0,0,465,189Z"/></g></g></svg>