<svg xmlns="http://www.w3.org/2000/svg" xmlns:xlink="http://www.w3.org/1999/xlink" viewBox="0 0 555.07 385.09"><defs><style>.cls-1{fill:url(#linear-gradient);}.cls-2{fill:url(#linear-gradient-2);}.cls-3{fill:#4d7b87;}.cls-4{fill:url(#linear-gradient-3);}.cls-5{fill:#001462;}.cls-6{fill:#ff8080;}.cls-7{fill:#fafafa;}.cls-8{fill:#fff;}.cls-9{fill:#e1e1e1;}.cls-10{fill:#78c2ff;}.cls-11{fill:#d6e8f2;}.cls-12{fill:#ffbf9d;}.cls-13{fill:#ff9a6c;}.cls-14{fill:url(#Gradiente_sem_nome_17);}.cls-15{fill:url(#Gradiente_sem_nome_17-2);}.cls-16{fill:url(#Gradiente_sem_nome_17-3);}.cls-17{fill:url(#Gradiente_sem_nome_17-4);}.cls-18{fill:url(#Gradiente_sem_nome_38);}.cls-19{fill:url(#Gradiente_sem_nome_44);}.cls-20{fill:url(#Gradiente_sem_nome_38-2);}.cls-21{fill:#3ecc85;}.cls-22{fill:url(#Gradiente_sem_nome_14);}</style><linearGradient id="linear-gradient" x1="44.81" y1="107.63" x2="44.81" y2="342.38" gradientUnits="userSpaceOnUse"><stop offset="0.24" stop-color="#47c681"/><stop offset="1" stop-color="#71d1a1" stop-opacity="0"/></linearGradient><linearGradient id="linear-gradient-2" x1="386.19" y1="176.15" x2="520.22" y2="176.15" xlink:href="#linear-gradient"/><linearGradient id="linear-gradient-3" x1="145.7" y1="9.52" x2="345.56" y2="355.67" gradientUnits="userSpaceOnUse"><stop offset="0" stop-color="#e7f0ff"/><stop offset="0.19" stop-color="#e3effd"/><stop offset="0.37" stop-color="#d8edf9"/><stop offset="0.54" stop-color="#c5e8f1"/><stop offset="0.71" stop-color="#abe2e6"/><stop offset="0.88" stop-color="#8adad9"/><stop offset="1" stop-color="#6bd3cc"/></linearGradient><linearGradient id="Gradiente_sem_nome_17" x1="433.55" y1="293.49" x2="510.1" y2="293.49" gradientUnits="userSpaceOnUse"><stop offset="0" stop-color="#8cc6ff"/><stop offset="0.17" stop-color="#83bbfa"/><stop offset="0.48" stop-color="#6b9dee"/><stop offset="0.88" stop-color="#446dda"/><stop offset="0.99" stop-color="#385fd4"/></linearGradient><linearGradient id="Gradiente_sem_nome_17-2" x1="444.37" y1="317.2" x2="468.26" y2="275.81" xlink:href="#Gradiente_sem_nome_17"/><linearGradient id="Gradiente_sem_nome_17-3" x1="444.29" y1="251.13" x2="444.29" y2="222.55" xlink:href="#Gradiente_sem_nome_17"/><linearGradient id="Gradiente_sem_nome_17-4" x1="407.69" y1="296.67" x2="489" y2="296.67" xlink:href="#Gradiente_sem_nome_17"/><linearGradient id="Gradiente_sem_nome_38" x1="443.67" y1="219.33" x2="488.9" y2="219.33" gradientUnits="userSpaceOnUse"><stop offset="0.08" stop-color="#385fd4"/><stop offset="0.21" stop-color="#3358c9"/><stop offset="0.45" stop-color="#2444ab"/><stop offset="0.75" stop-color="#0d257b"/><stop offset="0.9" stop-color="#001462"/></linearGradient><linearGradient id="Gradiente_sem_nome_44" x1="431.11" y1="168.46" x2="493.95" y2="204.75" gradientUnits="userSpaceOnUse"><stop offset="0" stop-color="#385fd4"/><stop offset="0.16" stop-color="#3358c9"/><stop offset="0.44" stop-color="#2444ab"/><stop offset="0.81" stop-color="#0d257b"/><stop offset="0.99" stop-color="#001462"/></linearGradient><linearGradient id="Gradiente_sem_nome_38-2" x1="465.84" y1="176.15" x2="492.81" y2="176.15" xlink:href="#Gradiente_sem_nome_38"/><linearGradient id="Gradiente_sem_nome_14" x1="153.57" y1="334.27" x2="55.67" y2="334.27" gradientUnits="userSpaceOnUse"><stop offset="0" stop-color="#0060ff"/><stop offset="0.09" stop-color="#0b64fc"/><stop offset="0.25" stop-color="#296ef3"/><stop offset="0.45" stop-color="#597ee4"/><stop offset="0.7" stop-color="#9c94d0"/><stop offset="0.98" stop-color="#f0b1b7"/><stop offset="1" stop-color="#f6b3b5"/></linearGradient></defs><title>creation_1</title><g id="Layer_2" data-name="Layer 2"><g id="OBJECTS"><path class="cls-1" d="M88.94,208l-.51.24-.91.44c-.6.29-1.14.59-1.7.89q-1.63.9-3.15,1.86a70.19,70.19,0,0,0-5.81,4.1,80,80,0,0,0-10.17,9.53,88.33,88.33,0,0,0-8.37,11,97.36,97.36,0,0,0-6.52,12A104.79,104.79,0,0,0,47,260.64c-.6,2.15-1.28,4.29-1.75,6.45l-.77,3.25-.62,3.26a136.11,136.11,0,0,0-2,16.1V269.29a98.87,98.87,0,0,1,4-14.83c2.91-8.7,7.2-18.78,12-29.68,3.91-8.91,7.25-16.76,10.34-23.12s6.16-11,8.67-13.55c-2.48,2.48-7.15,5.7-12.19,11.09A78.64,78.64,0,0,0,50,221.3a105,105,0,0,0-8.11,30.35v-44a39.41,39.41,0,0,1,4-8.77c2.9-5,6.91-10.52,10.94-16.88a110.58,110.58,0,0,0,7.51-14.41A71.34,71.34,0,0,1,69,158.18c-1.26,1.86-4.4,3.79-8,6.77a52,52,0,0,0-11.38,12.44A54.72,54.72,0,0,0,41.9,197.1V180.24c1.18-7.77,3.68-19.48,3.68-33,0-14.51-4.29-25.36-4.29-30.49,0,5.13-4.3,16-4.3,30.49,0,13.55,2.5,25.27,3.69,33v18.36a117.63,117.63,0,0,0-8.82-33.27,92.56,92.56,0,0,0-15.51-24.16,118.81,118.81,0,0,0-13-12.26c2.91,2.55,6.11,7.75,9.43,14.65s6.92,15.51,11.2,25.21c5.14,11.91,9.64,22.91,12.67,32.41a105.6,105.6,0,0,1,4,16.27V245.8c-.38-3.51-.87-7-1.48-10.45a168.69,168.69,0,0,0-5.68-22.71,195.24,195.24,0,0,0-8.43-21.71c-1.61-3.54-3.4-7-5.29-10.52a99.07,99.07,0,0,0-6.63-10.49c3.09,4.16,3.51,8.5,3.13,12.67A34.26,34.26,0,0,1,15,188.66c-.63,2-1.35,3.82-2.05,5.54-1,2.5-.86,4.38,0,6a14,14,0,0,0,3.71,4.12c2.87,2.49,5.92,4.84,3.79,8.29s-4.58,6.63-4.38,10.35a11,11,0,0,0,2.54,6.22c1.67,2.37,4.47,5,8.44,8.52a47.19,47.19,0,0,1,6.54,6.95,59.61,59.61,0,0,1,4.54,7c1.16,2.15,1.94,4,2.51,5.37a1.22,1.22,0,0,0,.07.17v32.41c-.12-.73-3.69-21.16-15.83-32.46-11.41-10.62-22-14-24.85-15.55,2.82,1.56,18.88,21.39,24.13,28.22,8.09,10.54,16.54,23.74,16.54,38.34V352.3H41.9V296.44a20,20,0,0,1,1-3.74,24.83,24.83,0,0,1,3.35-5.91A37.15,37.15,0,0,1,50.78,282c1.64-1.42,3.31-2.69,4.88-3.83a7.75,7.75,0,0,0,3.56-5.33,18.45,18.45,0,0,0-.38-6c-.18-1-.36-2-.49-3a12.12,12.12,0,0,1,0-2.76,4.36,4.36,0,0,1,3-3.86c3.9-1.46,7.93-2.28,10.43-5.19a9,9,0,0,0,1.66-2.63,17.43,17.43,0,0,0,1.16-3.74c.6-3,.91-6.87,1.4-12.44a39.35,39.35,0,0,1,6.7-18.16c3.14-4.62,6.38-7.18,6.92-7.38Z"/><path class="cls-2" d="M387.22,136.5l.75.34,1.37.67c.9.44,1.71.88,2.55,1.33,1.62.9,3.19,1.82,4.71,2.78,3,1.92,5.91,4,8.68,6.14A117.59,117.59,0,0,1,420.5,162,132.45,132.45,0,0,1,433,178.4a146.29,146.29,0,0,1,9.74,17.94,158.57,158.57,0,0,1,7.15,18.88c.9,3.22,1.91,6.42,2.61,9.66l1.14,4.85.94,4.88a205.63,205.63,0,0,1,3,24.08V228.16a148.73,148.73,0,0,0-6-22.17c-4.35-13-10.78-28.08-17.91-44.39-5.85-13.33-10.85-25.06-15.48-34.57s-9.2-16.52-13-20.27c3.71,3.71,10.7,8.52,18.23,16.59a117.47,117.47,0,0,1,21.95,33.05,157,157,0,0,1,12.14,45.38V136a59.47,59.47,0,0,0-6-13.12c-4.34-7.46-10.33-15.73-16.36-25.23A164.74,164.74,0,0,1,424,76.05c-2.77-6.31-5-11.28-6.89-14,1.88,2.79,6.59,5.67,12,10.13a77.55,77.55,0,0,1,17,18.6,81.84,81.84,0,0,1,11.47,29.48V95c-1.78-11.62-5.51-29.14-5.51-49.4,0-21.71,6.42-37.93,6.42-45.6,0,7.67,6.42,23.89,6.42,45.6,0,20.27-3.73,37.79-5.51,49.41v27.46a176.16,176.16,0,0,1,13.18-49.76,139,139,0,0,1,23.2-36.14c7.9-8.94,15.14-14.58,19.43-18.32-4.36,3.81-9.15,11.58-14.1,21.91s-10.36,23.19-16.75,37.7c-7.68,17.81-14.42,34.26-19,48.46a157.84,157.84,0,0,0-6,24.33V193q.84-7.89,2.21-15.63a255.08,255.08,0,0,1,8.49-34A292.91,292.91,0,0,1,482.7,111c2.42-5.3,5.09-10.52,7.91-15.73a150.88,150.88,0,0,1,9.92-15.7c-4.62,6.23-5.25,12.73-4.69,19a52,52,0,0,0,2,9.08c.93,2.92,2,5.7,3.06,8.28,1.53,3.73,1.29,6.55,0,8.9s-3.33,4.31-5.54,6.16c-4.3,3.73-8.86,7.24-5.68,12.39s6.86,9.92,6.55,15.48c-.11,2.8-1.14,5.81-3.8,9.31-2.48,3.54-6.67,7.54-12.61,12.73a71,71,0,0,0-9.79,10.4,88.85,88.85,0,0,0-6.78,10.4c-1.74,3.22-2.91,6.05-3.76,8a1.86,1.86,0,0,1-.1.25V258.4c.18-1.09,5.52-31.64,23.67-48.54,17.06-15.88,33-20.93,37.16-23.26-4.22,2.33-28.23,32-36.08,42.21C472,244.57,459.4,264.3,459.4,286.14a0,0,0,0,1,0,0V352.3h-1.82V268.76a30.26,30.26,0,0,0-1.5-5.59,37.38,37.38,0,0,0-5-8.84,56,56,0,0,0-6.77-7.19c-2.46-2.13-5-4-7.3-5.73-3.46-2.45-4.9-5.11-5.33-8s.12-5.91.58-8.92c.25-1.51.53-3,.72-4.48a17.81,17.81,0,0,0,0-4.13,6.51,6.51,0,0,0-4.48-5.77c-5.83-2.18-11.86-3.4-15.6-7.76a13.68,13.68,0,0,1-2.48-3.93,25.66,25.66,0,0,1-1.74-5.59c-.9-4.45-1.36-10.27-2.09-18.62a58.89,58.89,0,0,0-10-27.14c-4.7-6.92-9.54-10.75-10.36-11Z"/><path class="cls-3" d="M508.22,352.57c0,.15-112.15.26-250.45.26S7.3,352.72,7.3,352.57s112.12-.26,250.47-.26S508.22,352.43,508.22,352.57Z"/><path class="cls-4" d="M415.84,51.74H75.42A10.63,10.63,0,0,0,64.79,62.37V302.82a10.63,10.63,0,0,0,10.63,10.63H206.07s8.31,25.7-17.45,39H310.79s-29.09-10-21.61-39H415.85a10.63,10.63,0,0,0,10.62-10.63V62.37A10.63,10.63,0,0,0,415.84,51.74Z"/><path class="cls-5" d="M250.53,288.07c4.63,6.62-2.62,13.87-9.24,9.24a2.52,2.52,0,0,1-.56-.57c-4.62-6.62,2.62-13.86,9.23-9.24A2.21,2.21,0,0,1,250.53,288.07Z"/><rect class="cls-6" x="72.83" y="63.89" width="345.61" height="205" rx="3.27"/><rect class="cls-7" x="72.83" y="78.91" width="345.61" height="189.98"/><path class="cls-8" d="M101.17,71.8A2.76,2.76,0,1,1,98.41,69,2.75,2.75,0,0,1,101.17,71.8Z"/><path class="cls-8" d="M84.44,71.8A2.76,2.76,0,1,1,81.68,69,2.75,2.75,0,0,1,84.44,71.8Z"/><path class="cls-8" d="M92.47,71.8A2.76,2.76,0,1,1,89.71,69,2.75,2.75,0,0,1,92.47,71.8Z"/><path class="cls-5" d="M243.12,167.37c0,.15-12.66.28-28.28.28s-28.28-.13-28.28-.28,12.66-.28,28.28-.28S243.12,167.21,243.12,167.37Z"/><path class="cls-5" d="M243.12,174.94c0,.15-12.66.28-28.28.28s-28.28-.13-28.28-.28,12.66-.29,28.28-.29S243.12,174.78,243.12,174.94Z"/><path class="cls-5" d="M220.46,182.5c0,.16-7.59.29-17,.29s-16.95-.13-16.95-.29,7.59-.28,16.95-.28S220.46,182.35,220.46,182.5Z"/><rect class="cls-5" x="186.56" y="90.03" width="26.89" height="3.41"/><rect class="cls-9" x="186.56" y="101.01" width="59.09" height="57.17"/><polygon class="cls-10" points="191.15 153.29 207.49 123.87 220.86 142.68 228.99 132.69 241.07 153.29 191.15 153.29"/><circle class="cls-10" cx="222.31" cy="118.15" r="4.25"/><path class="cls-5" d="M315.15,167.37c0,.15-12.66.28-28.27.28s-28.28-.13-28.28-.28,12.66-.28,28.28-.28S315.15,167.21,315.15,167.37Z"/><path class="cls-5" d="M315.15,174.94c0,.15-12.66.28-28.27.28s-28.28-.13-28.28-.28,12.66-.29,28.28-.29S315.15,174.78,315.15,174.94Z"/><path class="cls-5" d="M292.49,182.5c0,.16-7.58.29-16.94.29s-16.95-.13-16.95-.29,7.59-.28,16.95-.28S292.49,182.35,292.49,182.5Z"/><rect class="cls-5" x="258.6" y="90.03" width="26.89" height="3.41"/><rect class="cls-9" x="258.6" y="101.01" width="59.09" height="57.17"/><polygon class="cls-10" points="263.18 153.29 279.53 123.87 292.9 142.68 301.02 132.69 313.11 153.29 263.18 153.29"/><path class="cls-10" d="M298.59,118.15a4.25,4.25,0,1,1-4.25-4.25A4.25,4.25,0,0,1,298.59,118.15Z"/><rect class="cls-5" x="188.46" y="193.05" width="26.89" height="3.41"/><rect class="cls-9" x="188.46" y="204.03" width="59.09" height="57.17"/><polygon class="cls-10" points="193.04 256.31 209.38 226.89 222.75 245.69 230.88 235.71 242.97 256.31 193.04 256.31"/><path class="cls-10" d="M228.45,221.17a4.25,4.25,0,1,1-4.25-4.26A4.25,4.25,0,0,1,228.45,221.17Z"/><rect class="cls-5" x="260.54" y="193.05" width="26.89" height="3.41"/><rect class="cls-9" x="260.54" y="204.03" width="59.09" height="57.17"/><polygon class="cls-10" points="265.13 256.31 281.47 226.89 294.84 245.69 302.96 235.71 315.05 256.31 265.13 256.31"/><path class="cls-10" d="M300.54,221.17a4.26,4.26,0,1,1-4.26-4.26A4.26,4.26,0,0,1,300.54,221.17Z"/><rect class="cls-5" x="334.93" y="193.05" width="26.89" height="3.41"/><rect class="cls-9" x="334.93" y="204.03" width="59.09" height="57.17"/><polygon class="cls-10" points="339.51 256.31 355.86 226.89 369.23 245.69 377.35 235.71 389.44 256.31 339.51 256.31"/><path class="cls-10" d="M374.92,221.17a4.25,4.25,0,1,1-4.25-4.26A4.25,4.25,0,0,1,374.92,221.17Z"/><path class="cls-5" d="M388.48,158.18a38.47,38.47,0,0,1,6.49-.28l-.28.28h0v-1.28c0-.42,0-.82,0-1.22,0-.71,0-1.4.06-2.06a6.3,6.3,0,0,1,.2-1.9,6.3,6.3,0,0,1,.2,1.9c0,.66,0,1.35.06,2.06,0,.4,0,.8,0,1.22v1.28h0l-.28.28A37.25,37.25,0,0,1,388.48,158.18Z"/><path class="cls-5" d="M359,158.18a97,97,0,0,1,14.73,0,47.92,47.92,0,0,1-7.37.28A47.73,47.73,0,0,1,359,158.18Z"/><path class="cls-5" d="M337.8,151.7a38.3,38.3,0,0,1,.28,6.48l-.28-.28h2.52l2.06.06a7.22,7.22,0,0,1,1.9.2,6.3,6.3,0,0,1-1.9.2l-2.06.06-1.22,0h-1.3c-.13-.12.28.29-.28-.28A37.09,37.09,0,0,1,337.8,151.7Z"/><path class="cls-5" d="M337.8,122.23a49.48,49.48,0,0,1,.28,7.37,49.29,49.29,0,0,1-.28,7.36,47.73,47.73,0,0,1-.28-7.36A47.92,47.92,0,0,1,337.8,122.23Z"/><path class="cls-5" d="M344.28,101a37.09,37.09,0,0,1-6.48.28l.28-.28h0v.64c0,.22,0,.44,0,.65,0,.41,0,.82,0,1.22,0,.71,0,1.39-.06,2.06a7.31,7.31,0,0,1-.2,1.9,6.37,6.37,0,0,1-.2-1.9c0-.67,0-1.35-.06-2.06,0-.4,0-.81,0-1.22V101h0l.28-.28A38.3,38.3,0,0,1,344.28,101Z"/><path class="cls-5" d="M373.75,101a47.92,47.92,0,0,1-7.37.28A47.73,47.73,0,0,1,359,101a97,97,0,0,1,14.73,0Z"/><path class="cls-5" d="M395,107.5a37.25,37.25,0,0,1-.28-6.49c.56.56.15.16.28.28h-1.31l-1.21,0-2.07-.06a6.37,6.37,0,0,1-1.9-.2,6.37,6.37,0,0,1,1.9-.2l2.07-.06,1.21,0H395c.12.13-.28-.28.28.28A37.25,37.25,0,0,1,395,107.5Z"/><path class="cls-5" d="M395,137a47.73,47.73,0,0,1-.28-7.36,47.92,47.92,0,0,1,.28-7.37,47.92,47.92,0,0,1,.28,7.37A47.73,47.73,0,0,1,395,137Z"/><path class="cls-5" d="M394.14,167.29c0,.15-12.66.28-28.28.28s-28.27-.13-28.27-.28,12.65-.28,28.27-.28S394.14,167.13,394.14,167.29Z"/><path class="cls-5" d="M394.14,174.86c0,.15-12.66.28-28.28.28s-28.27-.13-28.27-.28,12.65-.29,28.27-.29S394.14,174.7,394.14,174.86Z"/><rect class="cls-5" x="337.59" y="89.95" width="26.89" height="3.41"/><path class="cls-9" d="M159.07,134.44a29,29,0,1,1-29-29A29,29,0,0,1,159.07,134.44Z"/><path class="cls-5" d="M164.81,197.6c0,.15-14.88.28-33.24.28s-33.23-.13-33.23-.28,14.87-.29,33.23-.29S164.81,197.44,164.81,197.6Z"/><path class="cls-5" d="M164.81,205c0,.15-14.88.28-33.24.28s-33.23-.13-33.23-.28,14.87-.28,33.23-.28S164.81,204.79,164.81,205Z"/><path class="cls-5" d="M164.81,212.3c0,.16-14.88.28-33.24.28s-33.23-.12-33.23-.28,14.87-.28,33.23-.28S164.81,212.15,164.81,212.3Z"/><path class="cls-5" d="M136.53,219.81c0,.16-8.63.28-19.28.28S98,220,98,219.81s8.63-.28,19.27-.28S136.53,219.66,136.53,219.81Z"/><rect class="cls-5" x="98.34" y="182.59" width="45.8" height="3.35" transform="translate(242.47 368.54) rotate(180)"/><path class="cls-10" d="M111.94,156.57a28.07,28.07,0,0,0,36.75,0c-1.53-5.24-5.27-11.46-14.36-12.84a11.37,11.37,0,0,0,6.78-10.53c0-6.3-4.73-11.42-10.63-11.45s-10.7,5.06-10.73,11.35a11.36,11.36,0,0,0,6.81,10.63C117.31,145.11,113.5,151.36,111.94,156.57Z"/><rect class="cls-10" x="98.34" y="231.29" width="25.68" height="3.13"/><rect class="cls-11" x="336.62" y="164.5" width="59.67" height="3.67"/><rect class="cls-11" x="336.62" y="172" width="59.67" height="3.67"/><path class="cls-5" d="M482.77,122.66l4.38,14.69a6.89,6.89,0,0,1,.39,2.05c0,2.07-2,3.7-4,4.08a13.75,13.75,0,0,1-6.11-.72c-.54,2.11-3,3-5.15,3.4a47.12,47.12,0,0,1-28.33-3.53,76.89,76.89,0,0,0,9.14-17.46l22.34,1a10.33,10.33,0,0,0,3.92-.33,3.5,3.5,0,0,0,2.44-2.83"/><path class="cls-12" d="M457.17,151.35c.28-1.65-.39-8.54-.39-8.54s-6.3-.67-6.68-6.91,0-20.64,0-20.64l11.47-5.6,12.61,9.55-1.91,31.21L458.65,162.6Z"/><path class="cls-13" d="M456.78,142.81a15.57,15.57,0,0,0,8.27-2.79s-1.88,4.58-8.14,4.32Z"/><path class="cls-5" d="M492.34,137.16a4.53,4.53,0,0,1-2.26-.51,6.39,6.39,0,0,1-2.47-2.4,26.47,26.47,0,0,1-1.84-3.95c-1.17-2.9-2-5.6-2.64-7.56-.1-.31-.18-.59-.26-.87a7.92,7.92,0,0,0-.17-.85c-3.4-13-14.84-15.44-17.11-15.44-2.43,0-6.67-1.34-12.86,5.09a14,14,0,0,0-2.35,3.25,13.87,13.87,0,0,0-2.76,5.88,7.09,7.09,0,0,0-.15,3.09c.12,0,.14-1.18.63-3a15.09,15.09,0,0,1,1.19-3.07,11.87,11.87,0,0,0,.64,7.19l2.22-.62,8-2.7c-.72-2.46.34-5.52.94-6.95l.06-.05c1.82,9.34,12.12,10.32,12.12,10.32l-.52,17.73c10.57-2.26,10.71-13.8,10.64-16.67.48,1.62,1.11,3.48,1.89,5.43a23.42,23.42,0,0,0,1.93,4A6.51,6.51,0,0,0,489.9,137a4.28,4.28,0,0,0,2.47.36c.59-.11.86-.3.85-.33S492.9,137.12,492.34,137.16Z"/><path class="cls-3" d="M471.53,127.07c-1.95-.38-3.59-.65-4.15-.69a4.91,4.91,0,0,0,.12-1,5,5,0,0,0-1-3,4.89,4.89,0,0,0-2.35-1.75,5.06,5.06,0,0,0-2.65-.2,4.95,4.95,0,0,0-3.88,3.73,3.85,3.85,0,0,0-.1.9c0,.21,0,.31,0,.31a10.36,10.36,0,0,1,.21-1.17,4.89,4.89,0,0,1,1.79-2.62,4.72,4.72,0,0,1,2-.87,4.77,4.77,0,0,1,2.49.22,4.69,4.69,0,0,1,2.19,1.65,4.69,4.69,0,0,1,0,5.58,4.65,4.65,0,0,1-2.19,1.66,4.77,4.77,0,0,1-2.49.22,4.88,4.88,0,0,1-3.8-3.49,6.55,6.55,0,0,1-.17-.9c.16,0,.25-.08.25-.12s-.11-.1-.29-.13v0s0,0,0,0a3.25,3.25,0,0,0-.59,0,3.15,3.15,0,0,0-.73.08v-.06a5,5,0,0,0-1-3,5,5,0,0,0-2.36-1.75,5.06,5.06,0,0,0-2.65-.2,4.79,4.79,0,0,0-2.1,1,4.89,4.89,0,0,0-1.78,2.77,3.85,3.85,0,0,0-.1.9,1,1,0,0,0,0,.31s0-.43.22-1.17a4.86,4.86,0,0,1,1.78-2.62,4.77,4.77,0,0,1,4.5-.65,4.69,4.69,0,0,1,2.19,1.65,4.69,4.69,0,0,1,0,5.58,4.65,4.65,0,0,1-2.19,1.66,4.77,4.77,0,0,1-2.49.22,4.91,4.91,0,0,1-2-.88,4.85,4.85,0,0,1-1.78-2.61c-.2-.74-.18-1.18-.22-1.18a1.14,1.14,0,0,0,0,.32,3.77,3.77,0,0,0,.1.89,5,5,0,0,0,3.88,3.74,5,5,0,0,0,6-4.7,2.79,2.79,0,0,0,.75.08,4.66,4.66,0,0,0,.58,0v0a3.77,3.77,0,0,0,.1.89,4.88,4.88,0,0,0,1.77,2.78,5,5,0,0,0,2.11,1,5,5,0,0,0,5.85-3.83c.53.17,2.15.55,4.1.93a29.58,29.58,0,0,0,4.37.69A26.89,26.89,0,0,0,471.53,127.07Z"/><path class="cls-12" d="M474.84,131.89a7.79,7.79,0,0,1,.34-3.08,2.91,2.91,0,0,1,2.24-1.94,2.45,2.45,0,0,1,2.54,2,3,3,0,0,1-1.54,3,4,4,0,0,1-3.47.1"/><path class="cls-13" d="M476.67,131c0-.07.33.08.77,0a1.4,1.4,0,0,0,.94-1.33,1.09,1.09,0,0,0-.22-.83.94.94,0,0,0-.68-.2c-.47,0-.8.16-.83.08s.21-.29.77-.45a1.26,1.26,0,0,1,1.05.21,1.42,1.42,0,0,1,.43,1.23,2,2,0,0,1-.47,1.16,1.41,1.41,0,0,1-.92.49C476.9,131.35,476.61,131,476.67,131Z"/><path class="cls-10" d="M500.85,368.63l-7.53-5.11,9.48-14.16,11.09,7.36-.53.91c-2.4,4.06-12.48,20.44-15,22.53C495.5,382.48,500.85,368.63,500.85,368.63Z"/><path class="cls-3" d="M497.42,380c-.13-.09,3.34-5.44,7.75-11.94s8.11-11.71,8.24-11.62-3.34,5.44-7.75,12S497.55,380.11,497.42,380Z"/><path class="cls-3" d="M502.22,369.92c0,.16-.48.25-1,.29s-1,0-1.05-.16.42-.39,1-.42S502.23,369.76,502.22,369.92Z"/><path class="cls-3" d="M502.1,371.16c0,.16-.55.18-1.16.14s-1.11-.13-1.13-.29.51-.33,1.17-.29S502.14,371,502.1,371.16Z"/><path class="cls-3" d="M510.48,360.67c-.08,0-.27-.26-.5-.77a6.25,6.25,0,0,1-.53-2.17,3.5,3.5,0,0,1,.64-2.19c.37-.47.74-.6.78-.54s-.2.31-.43.77a4,4,0,0,0-.4,1.94,10,10,0,0,0,.34,2.05C510.5,360.3,510.56,360.65,510.48,360.67Z"/><path class="cls-3" d="M500.77,369c-.07-.14.21-.42.57-.69s.71-.45.83-.34-.07.5-.48.81S500.84,369.15,500.77,369Z"/><path class="cls-3" d="M500.19,368.29c-.12-.1,0-.55.35-1s.68-.75.82-.67,0,.53-.34,1S500.32,368.39,500.19,368.29Z"/><path class="cls-10" d="M412.1,380.27v-9.1l17-.11.14,13.32-1.06.07c-4.7.29-23.92,1.15-27.07.22C397.64,383.63,412.1,380.27,412.1,380.27Z"/><path class="cls-3" d="M400.75,383.83c0-.16,6.37-.29,14.23-.29s14.24.13,14.24.29-6.37.3-14.24.3S400.75,384,400.75,383.83Z"/><path class="cls-3" d="M411.8,382.13c-.15.08-.48-.25-.82-.69s-.56-.84-.45-1,.55.13.92.61S411.94,382.05,411.8,382.13Z"/><path class="cls-3" d="M410.71,382.73c-.15.06-.46-.35-.77-.88s-.52-1-.39-1.1.56.24.89.8S410.86,382.67,410.71,382.73Z"/><path class="cls-3" d="M424.09,383.77c-.07,0,.07-.37.37-.84a5.91,5.91,0,0,1,1.49-1.66,3.51,3.51,0,0,1,2.17-.7c.6,0,.91.27.88.33s-.36,0-.87.08a4.15,4.15,0,0,0-1.84.76,11.21,11.21,0,0,0-1.51,1.44C424.41,383.58,424.15,383.82,424.09,383.77Z"/><path class="cls-3" d="M411.75,380.42c.08-.14.46-.07.89.08s.77.34.75.5-.46.22-.94.05S411.66,380.56,411.75,380.42Z"/><path class="cls-3" d="M412,379.54c0-.16.47-.29,1-.28s1,.15,1,.31-.45.28-1,.27S412,379.7,412,379.54Z"/><path class="cls-12" d="M455.1,170.15,436.65,164S428.5,187.47,426,187.7c-13.85,1.26-28.66-3.33-33.85-5.14-.53-.59-1.13-1.31-1.8-2.18a8.29,8.29,0,0,1-1.3-2.48,12.21,12.21,0,0,1-.74-3.42,1.09,1.09,0,0,0-1.87-.86c-.6.78-.75,3.74.61,6.93s-3.47.66-5.25-.24-7.41-3.4-8.12-3.07c-1,.49-.71,1.69,1.09,2.54s7,3.78,6.49,4.7-9.5-3.77-9.5-3.77-1.76-1.31-2.4-.27c-1.14,1.87,8.79,6.14,9.74,6.52.67.26.14,1.28-.56,1s-8.86-4.87-10-3c-.91,1.45,8.13,3.58,9.3,5.46s-6.69-2.31-7.5-.88c-.3.53-.45,1,4.41,2.72A102.24,102.24,0,0,0,385.54,195l0,.05s48.55,21.71,59,.79C455.65,173.64,455.1,170.15,455.1,170.15Z"/><path class="cls-14" d="M443.79,221.75S432,300,433.72,303.71s62.21,68,62.21,68l14.17-24.26s-47.76-53.3-47.4-54.73,16.92-77.47,16.92-77.47Z"/><polygon class="cls-15" points="446.37 318.36 456.32 296.51 466.26 274.66 449.5 303.71 446.37 318.36"/><path class="cls-3" d="M452.29,298.87a4.87,4.87,0,0,1,.06.86c0,.62,0,1.44.06,2.48l0-.08c3.79,4.28,12.2,14,21.89,25.36,6.56,7.74,12.5,14.73,16.86,19.86l5.05,6.07,1.36,1.66a4.94,4.94,0,0,1,.44.61,3.4,3.4,0,0,1-.53-.53l-1.44-1.6-5.2-5.94-17-19.75c-9.7-11.35-18-21.17-21.63-25.58l0,0v0c0-1,0-1.86.06-2.48A4.87,4.87,0,0,1,452.29,298.87Z"/><path class="cls-3" d="M505.56,342.47c.14.09-3.16,5.34-7.37,11.72s-7.74,11.49-7.87,11.4,3.15-5.34,7.36-11.73S505.42,342.38,505.56,342.47Z"/><path class="cls-16" d="M439.53,251.13c.12-.82,9.52-22,9.52-22l-4.57-6.43-.81-.18Z"/><path class="cls-17" d="M453,221l-9.34,1.56,5.38,6.61c-8.68,19.62-26.59,61.16-28.74,74.55-2.85,17.74-13.62,73.15-12.55,74s25.92,0,25.92,0l15.82-74,35-60.62a33.82,33.82,0,0,0,3.56-25l-.71-2.88"/><path class="cls-3" d="M425,369.5a1.81,1.81,0,0,1,0-.41c.05-.3.11-.7.19-1.21l.77-4.63c.7-4.05,1.71-9.86,2.95-17s2.81-15.73,4.51-25.21c.87-4.74,1.79-9.72,2.74-14.88.25-1.28.5-2.58.75-3.89.14-.66.25-1.31.41-2,.08-.33.14-.67.24-1l.37-1c1-2.54,2.14-5,3.26-7.59,9.05-20.33,17.47-38.63,23.56-51.87l7.26-15.67,2-4.24.54-1.1a2,2,0,0,1,.2-.37,1.9,1.9,0,0,1-.15.4L474.2,219c-.45,1-1.09,2.45-1.9,4.29L465.2,239c-6,13.29-14.35,31.61-23.4,51.94-1.12,2.54-2.24,5.06-3.25,7.55l-.36.92c-.1.32-.15.65-.23,1-.15.64-.27,1.31-.4,2-.26,1.31-.51,2.6-.76,3.89L434,321.12c-1.74,9.48-3.31,18-4.63,25.19s-2.39,12.94-3.14,17c-.38,2-.67,3.52-.88,4.61l-.24,1.2A2.51,2.51,0,0,1,425,369.5Z"/><path class="cls-3" d="M435.16,370.6c0,.16-6,.18-13.32,0s-13.3-.37-13.3-.53,6-.18,13.31-.05S435.16,370.44,435.16,370.6Z"/><polygon class="cls-18" points="443.67 222.55 444.03 223.4 488.9 219.77 487.32 215.26 443.67 222.55"/><path class="cls-19" d="M462.21,149.45l-3,12.12-.1-8.72.22-1.94.27-1.46-4-1.35-2.05,3.21-.6,0s-16.16-1.61-21.81,19.73L426,183.73l15.64,7.8,0,1,.95,30.19,45.2-7.32c.18-6.78-6.73-19.06-5.21-25.2l5.21-21L481,149.62l-4.72.15h0l-2.67-3.14-11.36,2.82"/><path class="cls-5" d="M441.89,191.31a3,3,0,0,1-1-.51,8,8,0,0,1-2.09-2.16,6.88,6.88,0,0,1-1.06-4.31,9.59,9.59,0,0,1,5-8l-.14.19c.37-2.77.71-5.15,1-6.84a17.12,17.12,0,0,1,.5-2.67,17.36,17.36,0,0,1-.19,2.72c-.18,1.69-.45,4.09-.79,6.86v.12l-.13.07a9.39,9.39,0,0,0-4.7,7.6,6.76,6.76,0,0,0,.9,4.1,8.66,8.66,0,0,0,1.9,2.18A8.19,8.19,0,0,1,441.89,191.31Z"/><path class="cls-6" d="M397.38,162.42l142.19,27.31c10.14,2,16.52,11.21,15.37,21.76,0,.15-.06.3-.08.44a19.16,19.16,0,0,1-22.67,15.19L392.85,199l-30.73-24.58Z"/><path class="cls-9" d="M397.38,162.42s7.77,2.91,6.17,10.35-9.11,7.13-9.11,7.13,7.3,1.62,5.27,12c-1.3,6.72-6.86,7.07-6.86,7.07l-30.73-24.58Z"/><path class="cls-5" d="M368.81,179.78c3-1.49,4.05-5.46,3-8.63l-9.65,3.29Z"/><path class="cls-5" d="M537.66,208.92l-.38,0-1.09-.18-4.19-.75c-3.64-.66-8.9-1.65-15.39-2.9-13-2.5-30.9-6.09-50.65-10.17l-50.59-10.52-15.32-3.21-4.17-.89L394.8,180a1.39,1.39,0,0,1-.36-.1,2,2,0,0,1,.37,0l1.1.19,4.18.8L415.45,184l50.61,10.37c19.76,4.08,37.66,7.73,50.62,10.32L532,207.74l4.17.85,1.08.23A1.59,1.59,0,0,1,537.66,208.92Z"/><path class="cls-5" d="M532.19,227.12a19.16,19.16,0,0,0,22.67-15.19c0-.14.06-.29.08-.44,1.15-10.55-5.23-19.81-15.37-21.76Z"/><path class="cls-12" d="M475.68,168.11S467,195.4,464.6,196c-13.47,3.44-28.83,1.25-34.24.28-.61-.5-1.32-1.12-2.11-1.86a8.22,8.22,0,0,1-1.68-2.25,13,13,0,0,1-1.28-3.26,1.08,1.08,0,0,0-2-.55c-.47.86-.16,3.81,1.7,6.75,0,0-10.85,6.88-13.22,6.82s-9.15-.23-8.45.71,8.45,2.23,8.45,2.23l14,4.75s51.36,13.82,58.39-8.5c4.31-13.68,7.28-21.73,7.95-25Z"/><path class="cls-20" d="M481.06,149.63s11.29,2,11.74,20.5a72.16,72.16,0,0,1-7.08,32.54l-19.88-10.44a123.26,123.26,0,0,0,10-28.13L481,149.62Z"/><rect class="cls-11" x="97.96" y="195.5" width="67.33" height="3.67"/><rect class="cls-11" x="97.96" y="203" width="67.33" height="3.67"/><rect class="cls-11" x="97.96" y="210.25" width="67.33" height="3.67"/><rect class="cls-11" x="97.96" y="217.75" width="45.67" height="3.67"/><rect class="cls-11" x="186.29" y="164.5" width="59.67" height="3.67"/><rect class="cls-11" x="186.29" y="172" width="59.67" height="3.67"/><rect class="cls-11" x="186.29" y="179.25" width="40.47" height="3.67"/><rect class="cls-11" x="258.62" y="164.5" width="59.67" height="3.67"/><rect class="cls-11" x="258.62" y="172" width="59.67" height="3.67"/><rect class="cls-11" x="258.62" y="179.25" width="40.47" height="3.67"/><path class="cls-21" d="M138,301.28c-1.55.42-3.7,2.14-6.08,4.42a94.11,94.11,0,0,1-8.3,7.41c-2,1.54-4,2.93-5.86,4.29s-3.71,2.68-5.3,4c-3.25,2.59-5.73,5.16-6.58,7.08.85-1.9,1.21-5.44,2.83-9.72a31.79,31.79,0,0,1,3.44-6.69,28.08,28.08,0,0,1,6-6.28,22.74,22.74,0,0,1,12-4.32C133.71,301.18,136.45,301.7,138,301.28Z"/><path class="cls-21" d="M104.59,327.05c.15-1.92-.78-5-1.4-9.05a38.65,38.65,0,0,1,.25-14.6,54,54,0,0,1,7.29-16.82c2.8-4.45,5.45-7.66,6.47-10-1,2.31-1.57,6.44-2.16,11.5a161.18,161.18,0,0,1-2.67,17.31,68.89,68.89,0,0,1-4.64,13.15C106.09,322.22,104.74,325.13,104.59,327.05Z"/><path class="cls-21" d="M76,293.89c1.54.72,4.5.73,8.16,1.83a24.67,24.67,0,0,1,11.6,7,31.77,31.77,0,0,1,7.36,15.3c.93,4.78.67,8.54,1.13,10.72-.46-2.21-2.46-5.42-5.29-8.82s-6.42-7-10-11.07c-3-3.27-5.22-6.57-7.33-9.36S77.54,294.61,76,293.89Z"/><path class="cls-22" d="M123,316H92.64a2.69,2.69,0,0,0-2.67,3l3.71,31.07a2.68,2.68,0,0,0,2.67,2.37h23a2.68,2.68,0,0,0,2.67-2.37l3.71-31.07A2.69,2.69,0,0,0,123,316Z"/></g></g></svg>