<svg xmlns="http://www.w3.org/2000/svg" viewBox="0 0 808.92 623.88"><defs><style>.cls-1{fill:#71daff;}.cls-2{fill:#b3b3b3;}.cls-3{fill:#fff;}.cls-4{fill:#334451;}</style></defs><title>engagement</title><g id="Layer_2" data-name="Layer 2"><g id="icons"><path class="cls-1" d="M683.4,449a15.13,15.13,0,0,1-9.71-3.52L558.78,349.43H384.67a62,62,0,0,1-61.94-61.94V61.94A62,62,0,0,1,384.67,0H747a62,62,0,0,1,61.93,61.94V287.49A62,62,0,0,1,747,349.43H698.55v84.43A15.13,15.13,0,0,1,683.4,449ZM384.67,30.3A31.67,31.67,0,0,0,353,61.94V287.49a31.68,31.68,0,0,0,31.64,31.64H564.28a15.12,15.12,0,0,1,9.71,3.53l94.26,78.79V334.28a15.15,15.15,0,0,1,15.15-15.15H747a31.68,31.68,0,0,0,31.64-31.64V61.94A31.68,31.68,0,0,0,747,30.3Z"/><circle class="cls-2" cx="444.35" cy="167.51" r="35.99"/><circle class="cls-2" cx="565.83" cy="167.51" r="35.99"/><circle class="cls-2" cx="687.3" cy="167.51" r="35.99"/><path class="cls-3" d="M424.26,190H61.94a46.79,46.79,0,0,0-46.79,46.79V462.37a46.79,46.79,0,0,0,46.79,46.79h63.58v99.57l119.13-99.57H424.26a46.79,46.79,0,0,0,46.79-46.79V236.82A46.79,46.79,0,0,0,424.26,190Z"/><path class="cls-4" d="M125.52,623.88a15.13,15.13,0,0,1-15.14-15.15V524.3H61.94A62,62,0,0,1,0,462.37V236.82a62,62,0,0,1,61.94-61.94H424.26a62,62,0,0,1,61.94,61.94V462.37a62,62,0,0,1-61.94,61.93H250.15L135.24,620.36A15.15,15.15,0,0,1,125.52,623.88ZM61.94,205.17A31.68,31.68,0,0,0,30.3,236.82V462.37A31.68,31.68,0,0,0,61.94,494h63.59a15.14,15.14,0,0,1,15.14,15.15v67.17l94.26-78.8a15.16,15.16,0,0,1,9.72-3.52H424.26a31.68,31.68,0,0,0,31.64-31.64V236.82a31.69,31.69,0,0,0-31.64-31.65Z"/><circle class="cls-2" cx="121.63" cy="345.99" r="35.99"/><circle class="cls-2" cx="243.1" cy="345.99" r="35.99"/><circle class="cls-2" cx="364.57" cy="345.99" r="35.99"/></g></g></svg>