<svg xmlns="http://www.w3.org/2000/svg" viewBox="0 0 572.93 572.78"><defs><style>.cls-1{fill:#f0f8ff;}</style></defs><title>fb</title><g id="Layer_2" data-name="Layer 2"><g id="Layer_1-2" data-name="Layer 1"><path class="cls-1" d="M404,348.61h6.17c21,0,42-.12,63,.12,4.5,0,6.05-1.47,6.63-5.79,3.5-26.24,7.22-52.45,10.91-78.67.88-6.23.69-6.57-5.57-6.57-25.16,0-50.32-.06-75.49.14-4.43,0-6.07-1-5.95-5.78.5-20.48,0-41,1.07-61.44.83-15.89,9.42-24.62,25.3-26.8,9.52-1.31,19.26-1.11,28.91-1.27,10.33-.17,20.67-.05,31,.13,3.43.06,4.73-1.13,4.72-4.62q-.09-35.75.08-71.49c0-2.8-.46-5-3.81-5.26-32.37-2.6-64.87-6.64-97.06.3-43,9.29-71.42,39.61-78.37,83.18-2,12.76-2.28,25.85-2.63,38.81-.42,16-.24,32,0,48,.08,4.73-1.21,6.29-6.14,6.22-22.5-.29-45-.05-67.49-.29-4.87,0-6.21,1.6-6.17,6.34q.34,39.5.1,79c0,4.59,1.3,6,5.93,5.93,22.83-.24,45.67,0,68.49-.26,4.48,0,5.58,1.34,5.57,5.66q-.27,106.23-.18,212.46c0,4.83-1.42,6.15-6.23,6.14q-129.24-.24-258.47-.18C18.76,572.59,0,553.78,0,524.1Q0,286.64.1,49.16C.11,19.69,19.55.11,49,.1Q287.67,0,526.39,0c26.67,0,46.46,19.34,46.48,45.86q.12,240.46,0,480.93c0,27-19.13,45.77-46.2,45.81-39.16.07-78.32,0-117.48.13-3.39,0-5.49-.14-5.48-4.66q.16-108,0-216C403.75,351.28,403.88,350.45,404,348.61Z"/></g></g></svg>