<svg xmlns="http://www.w3.org/2000/svg" xmlns:xlink="http://www.w3.org/1999/xlink" viewBox="0 0 459.17 440.16"><defs><style>.cls-1{fill:none;}.cls-2{isolation:isolate;}.cls-13,.cls-3{fill:#424242;}.cls-4,.cls-9{fill:#fff;}.cls-5{fill:#616161;}.cls-6{fill:#eee;}.cls-7{fill:#4fc3f7;}.cls-8{fill:#039be5;}.cls-9{font-size:8.45px;font-family:Montserrat-Black, Montserrat;font-weight:800;letter-spacing:0.1em;}.cls-10{letter-spacing:0.1em;}.cls-11{letter-spacing:0.09em;}.cls-12{letter-spacing:0.07em;}.cls-13{opacity:0.2;mix-blend-mode:multiply;}.cls-14{fill:#f24962;}.cls-15{clip-path:url(#clip-path);}.cls-16{fill:url(#radial-gradient);}.cls-17{fill:url(#radial-gradient-2);}.cls-18{clip-path:url(#clip-path-2);}.cls-19{clip-path:url(#clip-path-3);}.cls-20{fill:#334451;}.cls-21{clip-path:url(#clip-path-4);}.cls-22{fill:url(#radial-gradient-7);}.cls-23{fill:url(#radial-gradient-8);}.cls-24{clip-path:url(#clip-path-5);}.cls-25{clip-path:url(#clip-path-6);}.cls-26{clip-path:url(#clip-path-7);}.cls-27{fill:url(#radial-gradient-13);}.cls-28{fill:url(#radial-gradient-14);}.cls-29{clip-path:url(#clip-path-8);}.cls-30{clip-path:url(#clip-path-9);}.cls-31{clip-path:url(#clip-path-10);}.cls-32{fill:url(#radial-gradient-19);}.cls-33{fill:url(#radial-gradient-20);}.cls-34{clip-path:url(#clip-path-11);}.cls-35{clip-path:url(#clip-path-12);}.cls-36{fill:#ec714b;}.cls-37{fill:#ce5c3a;}.cls-38{fill:#f19685;}.cls-39{fill:#9b462b;}.cls-40{fill:#f9d1c1;}.cls-41{fill:#f6b88d;}.cls-42{fill:#ec747c;}.cls-43{fill:#ce7c50;}.cls-44{fill:#f4ad89;}.cls-45{fill:#ed7e56;}.cls-46{fill:#e95e5c;}.cls-47{fill:#c85b30;}</style><clipPath id="clip-path"><path class="cls-1" d="M65,149.05a2.65,2.65,0,1,1-2.14,3.07A2.65,2.65,0,0,1,65,149.05m-.13-.73a3.39,3.39,0,1,0,3.93,2.74,3.39,3.39,0,0,0-3.93-2.74Z"/></clipPath><radialGradient id="radial-gradient" cx="-255.9" cy="381.43" r="20.63" gradientTransform="matrix(0.59, -0.87, 1.22, 0.88, -251.89, -394.83)" gradientUnits="userSpaceOnUse"><stop offset="0.17" stop-color="#f9ed32"/><stop offset="0.27" stop-color="#c4d939"/><stop offset="0.41" stop-color="#7ebd41"/><stop offset="0.5" stop-color="#52ad47"/><stop offset="0.55" stop-color="#41a649"/><stop offset="0.6" stop-color="#3ea151"/><stop offset="0.68" stop-color="#369266"/><stop offset="0.77" stop-color="#2a7a8a"/><stop offset="0.87" stop-color="#1859bb"/><stop offset="0.99" stop-color="#022ef9"/><stop offset="1" stop-color="#002aff"/></radialGradient><radialGradient id="radial-gradient-2" cx="-205.11" cy="387.02" r="20.58" gradientTransform="matrix(0.61, -0.87, 1.25, 0.88, -296.2, -355.46)" gradientUnits="userSpaceOnUse"><stop offset="0.02" stop-color="#fff333"/><stop offset="0.09" stop-color="#ece834"/><stop offset="0.23" stop-color="#bccb38"/><stop offset="0.44" stop-color="#6f9e3d"/><stop offset="0.51" stop-color="#538d3f"/><stop offset="1" stop-color="#36c"/></radialGradient><clipPath id="clip-path-2"><polygon class="cls-1" points="70.56 147.29 69.97 147.4 69.86 146.81 69.85 146.72 69.77 146.74 69.27 146.83 69.19 146.84 69.21 146.92 69.31 147.51 68.72 147.62 68.64 147.63 68.65 147.71 68.74 148.21 68.76 148.29 68.84 148.28 69.43 148.17 69.53 148.76 69.55 148.84 69.63 148.83 70.13 148.74 70.21 148.72 70.19 148.64 70.09 148.05 70.68 147.95 70.76 147.93 70.74 147.85 70.65 147.36 70.64 147.28 70.56 147.29"/></clipPath><clipPath id="clip-path-3"><path class="cls-1" d="M70,144.39l-11.46,2a2.63,2.63,0,0,0-2.25,3l1.8,10.11a2.62,2.62,0,0,0,3.13,2l3.46-.61L67,162.35a.43.43,0,0,0,.54-.1l1.68-2.17,3.46-.62a2.63,2.63,0,0,0,2.25-3l-1.8-10.12A2.63,2.63,0,0,0,70,144.39Zm-1.2,15-.17.23-1.49,1.93-2.07-1.3-.24-.15-3.37.6a3.57,3.57,0,0,1,2.92-3.84l4-.71a3.32,3.32,0,0,1,3.83,2.64Zm5.4-2.76a1.85,1.85,0,0,1-1.29,2,4.06,4.06,0,0,0-4.68-3.2l-4,.71a4.29,4.29,0,0,0-3.52,4.66,1.86,1.86,0,0,1-1.92-1.44l-1.8-10.11a1.9,1.9,0,0,1,1.65-2.1l11.46-2a1.89,1.89,0,0,1,2.28,1.4Z"/></clipPath><clipPath id="clip-path-4"><path class="cls-1" d="M172.07,55.26a2.65,2.65,0,1,1-3,2.22,2.65,2.65,0,0,1,3-2.22m.11-.73A3.39,3.39,0,1,0,175,58.4a3.38,3.38,0,0,0-2.83-3.87Z"/></clipPath><radialGradient id="radial-gradient-7" cx="141.22" cy="316.72" r="20.63" gradientTransform="matrix(0.87, 0.59, -0.88, 1.22, 317.49, -413.02)" xlink:href="#radial-gradient"/><radialGradient id="radial-gradient-8" cx="188.76" cy="319.09" r="20.58" gradientTransform="matrix(0.87, 0.61, -0.88, 1.25, 278.24, -457.22)" xlink:href="#radial-gradient-2"/><clipPath id="clip-path-5"><polygon class="cls-1" points="177.94 55.42 177.35 55.32 177.44 54.73 177.46 54.65 177.38 54.64 176.87 54.56 176.79 54.55 176.78 54.63 176.69 55.22 176.1 55.13 176.02 55.12 176 55.2 175.93 55.7 175.91 55.78 176 55.79 176.59 55.88 176.5 56.48 176.48 56.56 176.56 56.57 177.06 56.65 177.14 56.66 177.16 56.58 177.25 55.98 177.84 56.08 177.92 56.09 177.93 56.01 178.01 55.51 178.02 55.43 177.94 55.42"/></clipPath><clipPath id="clip-path-6"><path class="cls-1" d="M178.39,52.51l-11.51-1.78a2.62,2.62,0,0,0-3.08,2.06L162.23,63a2.62,2.62,0,0,0,2.31,2.9l3.48.54,1.72,2.13a.42.42,0,0,0,.54.09l2.29-1.52,3.48.54a2.62,2.62,0,0,0,3.08-2.07l1.58-10.15A2.63,2.63,0,0,0,178.39,52.51Zm-6,13.81-.24.16-2,1.34-1.54-1.9-.18-.22L165,65.18a3.56,3.56,0,0,1,4-2.69l4,.62a3.32,3.32,0,0,1,2.78,3.74Zm6-.87a1.85,1.85,0,0,1-1.87,1.48,4.06,4.06,0,0,0-3.39-4.55l-4-.61A4.3,4.3,0,0,0,164.3,65a1.86,1.86,0,0,1-1.35-2l1.58-10.16a1.9,1.9,0,0,1,2.24-1.45l11.5,1.78A1.9,1.9,0,0,1,180,55.3Z"/></clipPath><clipPath id="clip-path-7"><path class="cls-1" d="M291.93,211.37a2.65,2.65,0,1,1-2.33,2.94,2.65,2.65,0,0,1,2.33-2.94m-.08-.74a3.39,3.39,0,1,0,3.75,3,3.39,3.39,0,0,0-3.75-3Z"/></clipPath><radialGradient id="radial-gradient-13" cx="-94.71" cy="528.02" r="20.63" gradientTransform="matrix(0.59, -0.87, 1.22, 0.88, -299.13, -321.23)" xlink:href="#radial-gradient"/><radialGradient id="radial-gradient-14" cx="-48.06" cy="529.52" r="20.58" gradientTransform="matrix(0.61, -0.87, 1.25, 0.88, -343.45, -281.86)" xlink:href="#radial-gradient-2"/><clipPath id="clip-path-8"><polygon class="cls-1" points="297.64 209.96 297.04 210.03 296.97 209.43 296.96 209.35 296.88 209.36 296.38 209.42 296.3 209.43 296.31 209.51 296.38 210.1 295.78 210.17 295.7 210.18 295.71 210.26 295.77 210.77 295.78 210.85 295.86 210.84 296.45 210.77 296.52 211.37 296.53 211.45 296.61 211.44 297.12 211.38 297.2 211.37 297.19 211.29 297.12 210.69 297.71 210.63 297.8 210.62 297.79 210.53 297.73 210.03 297.72 209.95 297.64 209.96"/></clipPath><clipPath id="clip-path-9"><path class="cls-1" d="M297.3,207l-11.57,1.33a2.63,2.63,0,0,0-2.43,2.8l1.17,10.21a2.64,2.64,0,0,0,3,2.19l3.5-.4,2.23,1.6a.41.41,0,0,0,.54-.06l1.81-2.07,3.49-.4a2.63,2.63,0,0,0,2.43-2.81l-1.17-10.21A2.63,2.63,0,0,0,297.3,207Zm-2.12,14.9-.19.22L293.38,224l-2-1.42-.23-.17-3.4.4a3.57,3.57,0,0,1,3.15-3.66l4-.46a3.32,3.32,0,0,1,3.66,2.87Zm5.55-2.42a1.85,1.85,0,0,1-1.41,1.92,4,4,0,0,0-4.47-3.49l-4,.46a4.3,4.3,0,0,0-3.8,4.44,1.86,1.86,0,0,1-1.82-1.55L284,211.09a1.91,1.91,0,0,1,1.78-2l11.57-1.32a1.89,1.89,0,0,1,2.18,1.54Z"/></clipPath><clipPath id="clip-path-10"><path class="cls-1" d="M405.57,62.17a2.65,2.65,0,1,1-3.17,2,2.65,2.65,0,0,1,3.17-2m.16-.72a3.39,3.39,0,1,0,2.56,4,3.39,3.39,0,0,0-2.56-4Z"/></clipPath><radialGradient id="radial-gradient-19" cx="357.55" cy="429.69" r="20.63" gradientTransform="matrix(0.87, 0.59, -0.88, 1.22, 461.88, -671.63)" xlink:href="#radial-gradient"/><radialGradient id="radial-gradient-20" cx="400.9" cy="427.93" r="20.58" gradientTransform="matrix(0.87, 0.61, -0.88, 1.25, 422.62, -715.83)" xlink:href="#radial-gradient-2"/><clipPath id="clip-path-11"><polygon class="cls-1" points="411.42 62.72 410.83 62.59 410.96 62 410.98 61.92 410.9 61.9 410.41 61.79 410.33 61.77 410.31 61.85 410.18 62.44 409.6 62.31 409.52 62.29 409.5 62.37 409.39 62.86 409.37 62.94 409.45 62.96 410.03 63.09 409.9 63.68 409.88 63.76 409.96 63.77 410.46 63.88 410.54 63.9 410.56 63.82 410.69 63.24 411.27 63.37 411.35 63.39 411.37 63.31 411.48 62.81 411.5 62.73 411.42 62.72"/></clipPath><clipPath id="clip-path-12"><path class="cls-1" d="M412.06,59.84,400.7,57.29a2.64,2.64,0,0,0-3.22,1.86l-2.25,10a2.64,2.64,0,0,0,2.11,3.06l3.44.77,1.57,2.24a.42.42,0,0,0,.54.12L405.27,74l3.44.77a2.62,2.62,0,0,0,3.21-1.86l2.25-10A2.63,2.63,0,0,0,412.06,59.84Zm-6.91,13.39-.24.14-2.13,1.2-1.4-2-.16-.23-3.35-.75a3.58,3.58,0,0,1,4.18-2.41l3.94.89A3.31,3.31,0,0,1,408.51,74Zm6.05-.47a1.85,1.85,0,0,1-2,1.35,4.06,4.06,0,0,0-3.09-4.76l-3.94-.89a4.3,4.3,0,0,0-5,2.94A1.85,1.85,0,0,1,396,69.34l2.25-10a1.9,1.9,0,0,1,2.34-1.3l11.35,2.55a1.9,1.9,0,0,1,1.56,2.17Z"/></clipPath></defs><title>followers</title><g class="cls-2"><g id="Layer_2" data-name="Layer 2"><g id="followers"><rect class="cls-3" x="32.17" y="114.83" width="79.31" height="147.89" rx="7.37" transform="translate(-31.96 15.5) rotate(-10.09)"/><rect class="cls-4" x="37.8" y="127.05" width="68.07" height="123.45" transform="translate(-31.96 15.5) rotate(-10.09)"/><path class="cls-5" d="M65.94,119.41l-12.51,2.23a1.44,1.44,0,0,0,.5,2.83l12.51-2.23a1.44,1.44,0,1,0-.5-2.83Z"/><path class="cls-5" d="M73.16,119.59a1.44,1.44,0,1,1-1.67-1.17A1.45,1.45,0,0,1,73.16,119.59Z"/><path class="cls-5" d="M46.72,124.29a1.44,1.44,0,1,1,1.67,1.17A1.45,1.45,0,0,1,46.72,124.29Z"/><path class="cls-5" d="M87.11,255a3.45,3.45,0,1,1-4-2.8A3.44,3.44,0,0,1,87.11,255Z"/><rect class="cls-6" x="27.55" y="127.95" width="68.07" height="6.46" transform="translate(-22.03 12.82) rotate(-10.09)"/><rect class="cls-7" x="32.38" y="133.99" width="68.07" height="48.65" transform="translate(-26.71 14.08) rotate(-10.09)"/><circle class="cls-4" cx="66.41" cy="158.32" r="16.27"/><rect class="cls-8" x="65.56" y="167.04" width="15.21" height="58.45" rx="5.09" transform="translate(253.57 89.85) rotate(79.91)"/><rect class="cls-6" x="68.1" y="204.89" width="23.6" height="58.45" transform="translate(296.39 114.44) rotate(79.91)"/><rect class="cls-6" x="72.05" y="185.22" width="8.7" height="58.45" transform="translate(274.15 101.67) rotate(79.91)"/><text class="cls-9" transform="translate(51.87 203.02) rotate(-10.09)">F<tspan class="cls-10" x="6.25" y="0">OL</tspan><tspan class="cls-11" x="20.32" y="0">L</tspan><tspan class="cls-12" x="26.3" y="0">O</tspan><tspan class="cls-10" x="34.11" y="0">W</tspan></text><path class="cls-13" d="M50.64,127.19,52,134.62a7.75,7.75,0,0,1-6.27,9l-7,1.26-5.09,5.53L26.86,147l-1.74.31-2.68-15.06Z"/><path class="cls-14" d="M36.69,105.09,8.07,110.22A9.83,9.83,0,0,0,.15,121.59L3,137.27a9.83,9.83,0,0,0,11.37,7.92L20.87,144c5,3.28,8.14,6.26,9.64,6s3.7-4.74,7-9l5.5-1a9.83,9.83,0,0,0,7.91-11.37L48.06,113A9.83,9.83,0,0,0,36.69,105.09Z"/><circle class="cls-4" cx="24.65" cy="120.83" r="4.8"/><path class="cls-4" d="M31.5,127l-11.19,2a3.28,3.28,0,0,0-2.63,3.78l.58,3.2,17.59-3.15-.58-3.2A3.25,3.25,0,0,0,31.5,127Z"/><g id="Layer_2-2" data-name="Layer 2"><g id="Vertical"><g class="cls-15"><rect class="cls-16" x="57.24" y="145.02" width="17.11" height="17.52" transform="translate(-25.92 13.9) rotate(-10.09)"/><rect class="cls-17" x="57.08" y="145.17" width="17.48" height="17.48" transform="translate(-25.94 13.91) rotate(-10.09)"/></g><g class="cls-18"><rect class="cls-16" x="57.24" y="145.02" width="17.11" height="17.52" transform="translate(-25.92 13.9) rotate(-10.09)"/><rect class="cls-17" x="57.08" y="145.17" width="17.48" height="17.48" transform="translate(-25.94 13.91) rotate(-10.09)"/></g><g class="cls-19"><rect class="cls-16" x="57.24" y="145.02" width="17.11" height="17.52" transform="translate(-25.92 13.9) rotate(-10.09)"/><rect class="cls-17" x="57.08" y="145.17" width="17.48" height="17.48" transform="translate(-25.94 13.91) rotate(-10.09)"/></g><path class="cls-20" d="M63.87,164.81a1.46,1.46,0,0,1,.13.65.85.85,0,0,1,0,.23,2.31,2.31,0,0,1,.74,1.37,2.37,2.37,0,0,1-.4,1.82,2.41,2.41,0,0,1-1.57,1,2.37,2.37,0,0,1-1.82-.4,2.43,2.43,0,0,1-.6-3.38h0a2.29,2.29,0,0,1,1.56-1,2.21,2.21,0,0,1,1.67.29c0,.05,0,.06,0,0a.94.94,0,0,0-.14-.53Zm-1.21,4.61a1.87,1.87,0,0,0,1.27-.81,2,2,0,0,0-.49-2.75,1.92,1.92,0,0,0-1.47-.32,2,2,0,0,0-1.28.81,2,2,0,0,0,.49,2.75A1.9,1.9,0,0,0,62.66,169.42Zm.13.7a1.63,1.63,0,0,1,1.28.28,1.71,1.71,0,0,1,.42,2.38h0a1.66,1.66,0,0,1-1.11.71,1.63,1.63,0,0,1-1.28-.28,1.71,1.71,0,0,1-.43-2.37h0A1.64,1.64,0,0,1,62.79,170.12Zm.51,2.93a1.27,1.27,0,0,0-.4-2.5h0a1.27,1.27,0,0,0,.4,2.5Z"/><path class="cls-20" d="M69.61,167.66a3.28,3.28,0,0,1-.2.31,2.42,2.42,0,0,1-3.38.6h0a2.43,2.43,0,1,1,3.78-2.42h0l.42,2.34-.46.08-.16-.91Zm-1.84.85a2,2,0,1,0-.7-3.87,2,2,0,0,0-.78,3.55A2,2,0,0,0,67.77,168.51Z"/><path class="cls-20" d="M70.43,163.09l-.46.09-.07-.44.46-.08Zm.93,5.2-.46.08-.83-4.66.46-.09Z"/><path class="cls-20" d="M71.61,165.85a2.5,2.5,0,0,1,.33-1.79,2,2,0,0,1,1.37-1,1.94,1.94,0,0,1,1.63.44,2.52,2.52,0,0,1,.93,1.57l.41,2.32-.45.08-.41-2.32a2,2,0,0,0-.74-1.26,1.56,1.56,0,0,0-1.28-.35,1.58,1.58,0,0,0-1.08.76,2.11,2.11,0,0,0-.27,1.44l.42,2.33-.45.08-.41-2.33Z"/><path class="cls-20" d="M66.73,170.51l-.18,0h-.17c-.1,0-.16,0-.17-.13a.16.16,0,0,1,.05-.15.33.33,0,0,1,.19-.08.24.24,0,0,1,.32.21v0l.13,0v0a.36.36,0,0,0-.47-.31h0a.44.44,0,0,0-.24.11.27.27,0,0,0-.09.26.29.29,0,0,0,.26.24h.36a.17.17,0,0,1,.17.14.27.27,0,0,1,0,.09l0,.07a.37.37,0,0,1-.19.09.29.29,0,0,1-.37-.26v0l-.13,0v0a.44.44,0,0,0,.18.32.42.42,0,0,0,.15,0h.18a.34.34,0,0,0,.14-.05.41.41,0,0,0,.11-.07.32.32,0,0,0,.09-.28A.29.29,0,0,0,66.73,170.51Z"/><path class="cls-20" d="M67.88,169.86a.52.52,0,0,0-.7.18.74.74,0,0,0,.14.8l.07,0a.52.52,0,0,0,.34.06.45.45,0,0,0,.35-.25.61.61,0,0,0,.06-.42.62.62,0,0,0-.2-.37A.15.15,0,0,0,67.88,169.86Zm.14.45a.53.53,0,0,1,0,.33l0,.05a.4.4,0,0,1-.26.14.4.4,0,0,1-.28-.08.52.52,0,0,1-.16-.31.47.47,0,0,1,0-.33l0-.05a.36.36,0,0,1,.23-.13.35.35,0,0,1,.31.08.47.47,0,0,1,.16.3Z"/><path class="cls-20" d="M69.21,170.17a.91.91,0,0,1,0,.17.31.31,0,0,1-.06.13.31.31,0,0,1-.23.14.36.36,0,0,1-.3-.08.55.55,0,0,1-.16-.3.58.58,0,0,1,0-.34.34.34,0,0,1,.27-.18.32.32,0,0,1,.23,0,.27.27,0,0,1,.14.19v0l.13,0v0a.38.38,0,0,0-.21-.27.45.45,0,0,0-.3,0,.47.47,0,0,0-.36.24.65.65,0,0,0-.06.43.59.59,0,0,0,.2.37l0,0a.48.48,0,0,0,.38.09.51.51,0,0,0,.31-.19.61.61,0,0,0,.07-.17.82.82,0,0,0,0-.22v0l-.13,0Z"/><rect class="cls-20" x="69.5" y="169.47" width="0.13" height="1.12" transform="translate(-28.71 14.81) rotate(-10.09)"/><path class="cls-20" d="M70.22,169.34l-.11,0-.24,1.19.14,0h0l0-.18,0-.16.44-.08.19.31.14,0-.62-1Zm.23.63-.35.07c0-.09,0-.18.05-.25l0-.22,0,.08.14.23Z"/><polygon class="cls-20" points="71.1 170.2 70.92 169.22 70.8 169.24 71 170.35 71.7 170.22 71.68 170.1 71.1 170.2"/><path class="cls-20" d="M73,168.85h0l-.12.5-.11.46-.55-.84-.13,0,.2,1.1.12,0-.14-.79.49.73.1,0,.11-.48.09-.38.14.8.13,0-.2-1.1-.13,0Z"/><polygon class="cls-20" points="73.59 169.35 74.19 169.25 74.17 169.12 73.57 169.23 73.51 168.89 74.14 168.77 74.12 168.65 73.36 168.78 73.56 169.89 74.33 169.75 74.3 169.63 73.66 169.74 73.59 169.35"/><path class="cls-20" d="M74.68,168.55l-.4.07.19,1.11.36-.07h0a.49.49,0,0,0,.34-.22.59.59,0,0,0,.06-.42.65.65,0,0,0-.18-.37A.44.44,0,0,0,74.68,168.55Zm.29.93a.44.44,0,0,1-.16.06l-.23,0-.16-.86.27,0a.33.33,0,0,1,.3.06.65.65,0,0,1,.14.3h0a.45.45,0,0,1,0,.32A.25.25,0,0,1,75,169.48Z"/><rect class="cls-20" x="75.43" y="168.41" width="0.13" height="1.12" transform="translate(-28.43 15.84) rotate(-10.09)"/><path class="cls-20" d="M76.15,168.29l-.1,0-.25,1.18.14,0v0a1.36,1.36,0,0,1,0-.17,1,1,0,0,1,0-.17l.44-.08.19.31.13,0Zm.24.63L76,169l.1-.47h0l0,.08,0,.06,0,.06a.35.35,0,0,0,0,.08l0,0Z"/></g></g><rect class="cls-3" x="91.77" y="55.42" width="147.89" height="79.31" rx="7.37" transform="translate(46.41 244.3) rotate(-81.2)"/><rect class="cls-4" x="131.68" y="33.35" width="68.07" height="123.45" transform="translate(16.49 -24.23) rotate(8.8)"/><path class="cls-5" d="M182.6,27.54,170,25.6a1.44,1.44,0,0,0-.44,2.84l12.56,1.94a1.43,1.43,0,0,0,1.64-1.2A1.44,1.44,0,0,0,182.6,27.54Z"/><path class="cls-5" d="M189.37,30.05a1.44,1.44,0,1,1-1.2-1.65A1.44,1.44,0,0,1,189.37,30.05Z"/><path class="cls-5" d="M162.83,25.94a1.44,1.44,0,1,1,1.2,1.64A1.44,1.44,0,0,1,162.83,25.94Z"/><path class="cls-5" d="M158.75,162.64a3.45,3.45,0,1,1-2.88-3.94A3.45,3.45,0,0,1,158.75,162.64Z"/><rect class="cls-6" x="140.63" y="34.04" width="68.07" height="6.46" transform="translate(7.76 -26.28) rotate(8.8)"/><rect class="cls-7" x="136.41" y="40.18" width="68.07" height="48.65" transform="translate(11.87 -25.31) rotate(8.8)"/><circle class="cls-4" cx="170.45" cy="64.51" r="16.27"/><rect class="cls-8" x="156.95" y="73.37" width="15.21" height="58.45" rx="5.09" transform="translate(291.11 -44.33) rotate(98.8)"/><rect class="cls-6" x="146.87" y="111.36" width="23.6" height="58.45" transform="translate(321.88 5.28) rotate(98.8)"/><rect class="cls-6" x="157.38" y="91.62" width="8.7" height="58.45" transform="translate(305.89 -20.49) rotate(98.8)"/><text class="cls-9" transform="translate(142.22 102.09) rotate(8.8)">F<tspan class="cls-10" x="6.25" y="0">OL</tspan><tspan class="cls-11" x="20.32" y="0">L</tspan><tspan class="cls-12" x="26.3" y="0">O</tspan><tspan class="cls-10" x="34.11" y="0">W</tspan></text><path class="cls-13" d="M165.61,30l-1.16,7.46a7.75,7.75,0,0,1-8.85,6.47l-7.08-1.09-6.6,3.59L136.71,41,135,40.69l2.34-15.12Z"/><path class="cls-14" d="M159.56,4.53,130.82.11a9.82,9.82,0,0,0-11.17,8.2l-2.42,15.75a9.81,9.81,0,0,0,8.2,11.16l6.56,1c3.68,4.72,5.68,8.55,7.18,8.78s5-3.28,9.48-6.22l5.52.85a9.83,9.83,0,0,0,11.17-8.2l2.41-15.75A9.81,9.81,0,0,0,159.56,4.53Z"/><circle class="cls-4" cx="143.07" cy="15.52" r="4.8"/><path class="cls-4" d="M147.56,23.55l-11.23-1.72a3.26,3.26,0,0,0-3.71,2.72l-.5,3.22,17.67,2.71.49-3.22A3.26,3.26,0,0,0,147.56,23.55Z"/><g id="Layer_2-3" data-name="Layer 2"><g id="Vertical-2" data-name="Vertical"><g class="cls-21"><rect class="cls-22" x="162.57" y="51.46" width="17.52" height="17.11" transform="matrix(0.15, -0.99, 0.99, 0.15, 85.83, 220.15)"/><rect class="cls-23" x="162.57" y="51.4" width="17.48" height="17.48" transform="translate(85.68 220.24) rotate(-81.2)"/></g><g class="cls-24"><rect class="cls-22" x="162.57" y="51.46" width="17.52" height="17.11" transform="matrix(0.15, -0.99, 0.99, 0.15, 85.83, 220.15)"/><rect class="cls-23" x="162.57" y="51.4" width="17.48" height="17.48" transform="translate(85.68 220.24) rotate(-81.2)"/></g><g class="cls-25"><rect class="cls-22" x="162.57" y="51.46" width="17.52" height="17.11" transform="matrix(0.15, -0.99, 0.99, 0.15, 85.83, 220.15)"/><rect class="cls-23" x="162.57" y="51.4" width="17.48" height="17.48" transform="translate(85.68 220.24) rotate(-81.2)"/></g><path class="cls-20" d="M165.94,69.83a1.25,1.25,0,0,1-.09.66.75.75,0,0,1-.1.2,2.3,2.3,0,0,1,.26,1.54,2.38,2.38,0,0,1-1,1.59,2.43,2.43,0,0,1-3.4-.53,2.43,2.43,0,0,1,.52-3.39h0a2.31,2.31,0,0,1,1.8-.44,2.22,2.22,0,0,1,1.48.82s0,0,0,0a1,1,0,0,0,0-.55Zm-2.64,4a1.89,1.89,0,0,0,1.47-.36,2,2,0,0,0-.86-3.54,1.93,1.93,0,0,0-1.47.36A2,2,0,0,0,162,73,1.93,1.93,0,0,0,163.3,73.8Zm-.1.7a1.64,1.64,0,0,1,1.12.68,1.71,1.71,0,0,1-.37,2.39h0a1.6,1.6,0,0,1-1.27.31,1.66,1.66,0,0,1-1.12-.68,1.7,1.7,0,0,1,.36-2.38h0A1.68,1.68,0,0,1,163.2,74.5Zm-.46,2.94a1.26,1.26,0,1,0,.43-2.49h0a1.26,1.26,0,0,0-.44,2.49Z"/><path class="cls-20" d="M170.45,74.38l-.29.23a2.43,2.43,0,0,1-3.39-.52h0A2.43,2.43,0,1,1,171.13,73h0l-.36,2.35-.46-.07.14-.92Zm-2,.21a2,2,0,1,0-1.29-.78A2,2,0,0,0,168.43,74.59Z"/><path class="cls-20" d="M172.71,70.33l-.46-.07.06-.44.46.07Zm-.81,5.21-.46-.07.72-4.68.46.07Z"/><path class="cls-20" d="M172.93,73.31a2.55,2.55,0,0,1,.89-1.58,2,2,0,0,1,3,.47A2.45,2.45,0,0,1,177.2,74l-.36,2.33-.45-.07.36-2.33a2,2,0,0,0-.29-1.43,1.56,1.56,0,0,0-2.37-.37,2.09,2.09,0,0,0-.72,1.27L173,75.72l-.45-.07.37-2.34Z"/><path class="cls-20" d="M166.81,76.14l-.17-.07-.08,0-.08,0c-.09-.05-.13-.1-.12-.18a.17.17,0,0,1,.1-.13.34.34,0,0,1,.2,0,.25.25,0,0,1,.24.31v0l.12,0v0a.37.37,0,0,0-.35-.45h0a.42.42,0,0,0-.27,0,.28.28,0,0,0,0,.52l.14.06.16.07h0a.18.18,0,0,1,.12.19.2.2,0,0,1,0,.08.14.14,0,0,1-.07.06.44.44,0,0,1-.2,0,.29.29,0,0,1-.27-.37v0l-.13,0v0a.41.41,0,0,0,.08.36.27.27,0,0,0,.12.09.33.33,0,0,0,.16,0h.16l.13,0a.31.31,0,0,0,.11-.09.18.18,0,0,0,.06-.14A.32.32,0,0,0,166.81,76.14Z"/><path class="cls-20" d="M168.1,75.9a.52.52,0,0,0-.72-.05.72.72,0,0,0-.12.8.43.43,0,0,0,0,.07.6.6,0,0,0,.31.17.53.53,0,0,0,.41-.12.66.66,0,0,0,.19-.38.67.67,0,0,0-.06-.42A.18.18,0,0,0,168.1,75.9Zm0,.47a.57.57,0,0,1-.15.31l0,0a.38.38,0,0,1-.29.05.35.35,0,0,1-.24-.17.45.45,0,0,1-.05-.34.49.49,0,0,1,.14-.3l0,0a.4.4,0,0,1,.26,0A.39.39,0,0,1,168,76a.47.47,0,0,1,.05.33Z"/><path class="cls-20" d="M169.26,76.63a.77.77,0,0,1-.07.16.28.28,0,0,1-.09.1.36.36,0,0,1-.27.06.34.34,0,0,1-.25-.18.48.48,0,0,1-.06-.33.52.52,0,0,1,.16-.3.36.36,0,0,1,.52,0,.23.23,0,0,1,.07.22v0l.12,0v0a.37.37,0,0,0-.11-.32.51.51,0,0,0-.28-.15.54.54,0,0,0-.42.12.72.72,0,0,0-.19.39.58.58,0,0,0,.07.41l0,0a.48.48,0,0,0,.33.21.45.45,0,0,0,.35-.09.53.53,0,0,0,.13-.13.7.7,0,0,0,.08-.2v0l-.13,0Z"/><rect class="cls-20" x="169.08" y="76.55" width="1.12" height="0.13" transform="translate(67.98 232.53) rotate(-81.2)"/><path class="cls-20" d="M170.48,76.17h-.1l-.62,1,.14,0h0l.09-.16.09-.14.44.07.08.35.14,0-.26-1.16Zm0,.67-.35,0c0-.08.09-.15.13-.22l.11-.19,0,.09.05.26Z"/><polygon class="cls-20" points="171.04 77.27 171.19 76.28 171.07 76.26 170.9 77.37 171.6 77.48 171.62 77.36 171.04 77.27"/><path class="cls-20" d="M173.29,76.61h0l-.27.44-.25.39-.26-1-.13,0-.17,1.11.13,0,.12-.8.23.85h.09l.26-.41.21-.33-.12.79.13,0,.17-1.11-.14,0Z"/><polygon class="cls-20" points="173.67 77.27 174.27 77.37 174.29 77.24 173.69 77.15 173.74 76.8 174.38 76.9 174.4 76.78 173.64 76.66 173.47 77.77 174.24 77.89 174.25 77.77 173.61 77.67 173.67 77.27"/><path class="cls-20" d="M175,76.86l-.4-.06-.18,1.11.36.06h0a.5.5,0,0,0,.39-.1.59.59,0,0,0,.2-.38.62.62,0,0,0-.06-.4A.43.43,0,0,0,175,76.86Zm0,1h-.18l-.23,0,.13-.86.27,0a.32.32,0,0,1,.26.16.54.54,0,0,1,0,.32h0a.49.49,0,0,1-.14.3A.37.37,0,0,1,174.94,77.84Z"/><rect class="cls-20" x="175.03" y="77.47" width="1.12" height="0.13" transform="translate(72.12 239.2) rotate(-81.2)"/><path class="cls-20" d="M176.44,77.09h-.11l-.61,1,.14,0h0L176,78l.09-.14.45.07.08.35.13,0Zm0,.68-.35-.06.24-.41h0a.29.29,0,0,1,0,.09.64.64,0,0,0,0,.07v.06a.44.44,0,0,1,0,.1v0Z"/></g></g><rect class="cls-3" x="256.69" y="177.5" width="79.31" height="147.89" rx="7.37" transform="translate(-26.74 35.43) rotate(-6.55)"/><rect class="cls-4" x="262.31" y="189.72" width="68.07" height="123.45" transform="translate(-26.74 35.43) rotate(-6.55)"/><path class="cls-5" d="M294.75,181.85l-12.62,1.45a1.44,1.44,0,0,0,.32,2.86l12.63-1.45a1.44,1.44,0,0,0-.33-2.86Z"/><path class="cls-5" d="M301.94,182.47a1.44,1.44,0,1,1-1.59-1.26A1.43,1.43,0,0,1,301.94,182.47Z"/><path class="cls-5" d="M275.26,185.53a1.44,1.44,0,1,1,1.6,1.27A1.45,1.45,0,0,1,275.26,185.53Z"/><path class="cls-5" d="M307.51,318.44a3.45,3.45,0,1,1-3.83-3A3.45,3.45,0,0,1,307.51,318.44Z"/><rect class="cls-6" x="255.64" y="190.1" width="68.07" height="6.46" transform="translate(-20.15 34.29) rotate(-6.55)"/><rect class="cls-7" x="258.78" y="196.38" width="68.07" height="48.65" transform="translate(-23.26 34.83) rotate(-6.55)"/><circle class="cls-4" cx="292.82" cy="220.71" r="16.27"/><rect class="cls-8" x="289.61" y="229.78" width="15.21" height="58.45" rx="5.09" transform="translate(520.63 -65.8) rotate(83.45)"/><rect class="cls-6" x="289.79" y="267.97" width="23.6" height="58.45" transform="translate(562.46 -36.32) rotate(83.45)"/><rect class="cls-6" x="294.97" y="248.13" width="8.7" height="58.45" transform="translate(540.73 -51.64) rotate(83.45)"/><text class="cls-9" transform="matrix(0.99, -0.11, 0.11, 0.99, 275.54, 264.43)">F<tspan class="cls-10" x="6.25" y="0">OL</tspan><tspan class="cls-11" x="20.32" y="0">L</tspan><tspan class="cls-12" x="26.3" y="0">O</tspan><tspan class="cls-10" x="34.11" y="0">W</tspan></text><path class="cls-13" d="M279,188.67l.86,7.49a7.75,7.75,0,0,1-6.82,8.59l-7.11.82-5.42,5.21-6.46-3.85-1.76.2-1.75-15.19Z"/><path class="cls-14" d="M266.44,165.75l-28.88,3.35A9.83,9.83,0,0,0,229,180l1.84,15.83a9.83,9.83,0,0,0,10.86,8.6l6.59-.77c4.8,3.58,7.75,6.74,9.26,6.57s4-4.5,7.49-8.51l5.54-.64a9.83,9.83,0,0,0,8.61-10.86l-1.84-15.83A9.83,9.83,0,0,0,266.44,165.75Z"/><circle class="cls-4" cx="253.45" cy="180.72" r="4.8"/><path class="cls-4" d="M259.9,187.27l-11.28,1.31a3.26,3.26,0,0,0-2.86,3.61l.38,3.23,17.75-2.06-.38-3.23A3.27,3.27,0,0,0,259.9,187.27Z"/><g id="Layer_2-4" data-name="Layer 2"><g id="Vertical-3" data-name="Vertical"><g class="cls-26"><rect class="cls-27" x="283.93" y="207.38" width="17.11" height="17.52" transform="translate(-22.74 34.76) rotate(-6.55)"/><rect class="cls-28" x="283.76" y="207.53" width="17.48" height="17.48" transform="translate(-22.75 34.76) rotate(-6.55)"/></g><g class="cls-29"><rect class="cls-27" x="283.93" y="207.38" width="17.11" height="17.52" transform="translate(-22.74 34.76) rotate(-6.55)"/><rect class="cls-28" x="283.76" y="207.53" width="17.48" height="17.48" transform="translate(-22.75 34.76) rotate(-6.55)"/></g><g class="cls-30"><rect class="cls-27" x="283.93" y="207.38" width="17.11" height="17.52" transform="translate(-22.74 34.76) rotate(-6.55)"/><rect class="cls-28" x="283.76" y="207.53" width="17.48" height="17.48" transform="translate(-22.75 34.76) rotate(-6.55)"/></g><path class="cls-20" d="M289.88,227a1.33,1.33,0,0,1,.09.66,1.74,1.74,0,0,1-.05.22,2.33,2.33,0,0,1,.66,1.41,2.37,2.37,0,0,1-.52,1.79,2.43,2.43,0,0,1-3.41.39,2.42,2.42,0,0,1-.4-3.4v0a2.34,2.34,0,0,1,1.63-.9,2.18,2.18,0,0,1,1.64.4s0,0,0,0a.91.91,0,0,0-.12-.53Zm-1.5,4.52a1.88,1.88,0,0,0,1.32-.73,2,2,0,0,0-.31-2.77,1.93,1.93,0,0,0-1.46-.41,1.9,1.9,0,0,0-1.32.73,2,2,0,0,0,.32,2.77A1.91,1.91,0,0,0,288.38,231.56Zm.09.71a1.64,1.64,0,0,1,1.26.36A1.71,1.71,0,0,1,290,235h0a1.66,1.66,0,0,1-1.15.64,1.62,1.62,0,0,1-1.25-.36,1.72,1.72,0,0,1-.29-2.4h0A1.65,1.65,0,0,1,288.47,232.27Zm.33,2.95a1.26,1.26,0,1,0-.24-2.51h0a1.27,1.27,0,0,0,.24,2.52Z"/><path class="cls-20" d="M295.43,230.23a2.1,2.1,0,0,1-.22.3,2.43,2.43,0,0,1-3.41.39h0a2.43,2.43,0,1,1,3.93-2.18h0l.27,2.36-.46.05-.11-.92Zm-1.89.74a2,2,0,1,0-1.45-.41A2,2,0,0,0,293.54,231Z"/><path class="cls-20" d="M296.53,225.73l-.46.05-.05-.44.46-.05Zm.61,5.24-.47.05-.54-4.71.47-.05Z"/><path class="cls-20" d="M297.54,228.55a2.52,2.52,0,0,1,.44-1.77,2,2,0,0,1,3-.34,2.55,2.55,0,0,1,.83,1.62l.27,2.34-.45,0-.27-2.34a2,2,0,0,0-.67-1.3,1.56,1.56,0,0,0-2.38.27,2.05,2.05,0,0,0-.35,1.42l.27,2.35-.45.05-.27-2.35Z"/><path class="cls-20" d="M292.38,232.9l-.17,0H292c-.11,0-.16-.06-.17-.14a.16.16,0,0,1,.06-.15.34.34,0,0,1,.19-.07c.19,0,.28,0,.31.23v0h.12v0a.36.36,0,0,0-.45-.34h0a.58.58,0,0,0-.26.09.29.29,0,0,0,.14.51l.15,0,.18,0h0c.1,0,.16.08.16.16a.14.14,0,0,1,0,.09l-.05.07a.32.32,0,0,1-.19.07c-.21,0-.33-.06-.35-.28v0l-.12,0v0a.44.44,0,0,0,.17.32.35.35,0,0,0,.14.06h.18a.42.42,0,0,0,.15,0,.24.24,0,0,0,.11-.06.47.47,0,0,0,.09-.12.39.39,0,0,0,0-.15A.31.31,0,0,0,292.38,232.9Z"/><path class="cls-20" d="M293.57,232.32a.51.51,0,0,0-.71.14.73.73,0,0,0,.09.81l.07,0a.51.51,0,0,0,.34.08.47.47,0,0,0,.36-.22.69.69,0,0,0,.08-.42.63.63,0,0,0-.17-.39A.15.15,0,0,0,293.57,232.32Zm.11.46a.54.54,0,0,1-.06.33l0,0a.36.36,0,0,1-.26.12.42.42,0,0,1-.28-.1.52.52,0,0,1-.14-.31.56.56,0,0,1,.06-.34l0,0a.37.37,0,0,1,.24-.12.34.34,0,0,1,.3.1.45.45,0,0,1,.14.31Z"/><path class="cls-20" d="M294.88,232.72a1.11,1.11,0,0,1,0,.17.75.75,0,0,1-.07.12.37.37,0,0,1-.53,0,.49.49,0,0,1-.14-.3.5.5,0,0,1,.07-.34.38.38,0,0,1,.28-.17.36.36,0,0,1,.22.05.25.25,0,0,1,.13.2v0l.12,0v0a.44.44,0,0,0-.19-.29.56.56,0,0,0-.31-.06.48.48,0,0,0-.37.23.7.7,0,0,0,.09.8l0,0a.5.5,0,0,0,.37.12.52.52,0,0,0,.32-.18.35.35,0,0,0,.08-.16.85.85,0,0,0,0-.22v0h-.13Z"/><rect class="cls-20" x="295.17" y="232.04" width="0.13" height="1.12" transform="translate(-24.6 35.18) rotate(-6.55)"/><path class="cls-20" d="M295.94,232h-.11l-.32,1.17.14,0h0c0-.06,0-.11,0-.17l.05-.17.44,0,.18.32h.13l-.56-1.06Zm.19.64-.35,0,.06-.24.06-.22a.41.41,0,0,1,.05.09l.13.23A.47.47,0,0,0,296.13,232.59Z"/><polygon class="cls-20" points="296.76 232.86 296.65 231.87 296.52 231.88 296.65 233 297.36 232.92 297.35 232.79 296.76 232.86"/><path class="cls-20" d="M298.76,231.63h0l-.15.49-.13.45-.51-.86h-.12l.13,1.12.12,0L298,232l.44.75h.1l.14-.47c0-.12.07-.25.11-.37l.1.8.12,0-.13-1.11h-.13Z"/><polygon class="cls-20" points="299.3 232.17 299.91 232.1 299.89 231.97 299.29 232.04 299.25 231.7 299.89 231.62 299.87 231.5 299.11 231.59 299.24 232.7 300.01 232.61 300 232.49 299.35 232.56 299.3 232.17"/><path class="cls-20" d="M300.43,231.43l-.4,0,.13,1.12.36,0h0a.47.47,0,0,0,.35-.2.56.56,0,0,0,.09-.41.76.76,0,0,0-.16-.38A.48.48,0,0,0,300.43,231.43Zm.24.95-.16.05-.24,0-.1-.87.27,0a.34.34,0,0,1,.29.09.44.44,0,0,1,.12.3h0a.45.45,0,0,1-.06.32A.32.32,0,0,1,300.67,232.38Z"/><rect class="cls-20" x="301.16" y="231.35" width="0.13" height="1.12" transform="translate(-24.48 35.86) rotate(-6.55)"/><path class="cls-20" d="M301.92,231.26l-.1,0-.32,1.16h.14v0s0-.11.05-.17a1,1,0,0,1,.05-.16l.44-.05.17.31h.14Zm.2.65-.35,0,.13-.47h0a.59.59,0,0,1,0,.08l0,.06,0,.06.05.09v0Z"/></g></g><rect class="cls-3" x="322.61" y="61.81" width="147.89" height="79.31" rx="7.37" transform="translate(210.7 466.17) rotate(-77.35)"/><rect class="cls-4" x="362.52" y="39.74" width="68.07" height="123.45" transform="translate(31.85 -84.38) rotate(12.65)"/><path class="cls-5" d="M417.93,35.22l-12.39-2.78a1.44,1.44,0,1,0-.63,2.8L417.3,38A1.44,1.44,0,0,0,419,36.94,1.43,1.43,0,0,0,417.93,35.22Z"/><path class="cls-5" d="M424.52,38.17a1.44,1.44,0,1,1-2.81-.63,1.44,1.44,0,1,1,2.81.63Z"/><path class="cls-5" d="M398.32,32.29A1.44,1.44,0,1,1,399.41,34,1.44,1.44,0,0,1,398.32,32.29Z"/><path class="cls-5" d="M385.07,168.41a3.45,3.45,0,1,1-2.62-4.12A3.47,3.47,0,0,1,385.07,168.41Z"/><rect class="cls-6" x="375.33" y="41.16" width="68.07" height="6.46" transform="translate(19.66 -88.57) rotate(12.65)"/><rect class="cls-7" x="369.29" y="46.96" width="68.07" height="48.65" transform="translate(25.4 -86.6) rotate(12.65)"/><circle class="cls-4" cx="403.33" cy="71.28" r="16.27"/><rect class="cls-8" x="387.28" y="79.66" width="15.21" height="58.45" rx="5.09" transform="translate(587.61 -252.57) rotate(102.65)"/><rect class="cls-6" x="374.67" y="117.18" width="23.6" height="58.45" transform="translate(613.95 -198.62) rotate(102.65)"/><rect class="cls-6" x="386.49" y="97.69" width="8.7" height="58.45" transform="translate(600.27 -226.65) rotate(102.65)"/><text class="cls-9" transform="translate(372.64 106.89) rotate(12.65)">F<tspan class="cls-10" x="6.25" y="0">OL</tspan><tspan class="cls-11" x="20.32" y="0">L</tspan><tspan class="cls-12" x="26.3" y="0">O</tspan><tspan class="cls-10" x="34.11" y="0">W</tspan></text><path class="cls-13" d="M400.82,36.48l-1.65,7.36a7.76,7.76,0,0,1-9.27,5.87l-7-1.57-6.83,3.14-4.83-5.76-1.73-.39,3.35-14.92Z"/><path class="cls-14" d="M396.49,10.71,368.11,4.37a9.82,9.82,0,0,0-11.69,7.43L353,27.35A9.82,9.82,0,0,0,360.38,39l6.48,1.45c3.35,5,5.09,8.91,6.57,9.24s5.25-2.94,9.88-5.57l5.45,1.22A9.83,9.83,0,0,0,400.45,38l3.47-15.55A9.82,9.82,0,0,0,396.49,10.71Z"/><circle class="cls-4" cx="379.3" cy="20.57" r="4.8"/><path class="cls-4" d="M383.24,28.88l-11.09-2.47a3.26,3.26,0,0,0-3.88,2.47l-.71,3.17L385,35.94l.71-3.17A3.27,3.27,0,0,0,383.24,28.88Z"/><g id="Layer_2-5" data-name="Layer 2"><g id="Vertical-4" data-name="Vertical"><g class="cls-31"><rect class="cls-32" x="395.75" y="58.3" width="17.52" height="17.11" transform="translate(250.69 446.91) rotate(-77.35)"/><rect class="cls-33" x="395.75" y="58.25" width="17.48" height="17.48" transform="translate(250.54 446.99) rotate(-77.35)"/></g><g class="cls-34"><rect class="cls-32" x="395.75" y="58.3" width="17.52" height="17.11" transform="translate(250.69 446.91) rotate(-77.35)"/><rect class="cls-33" x="395.75" y="58.25" width="17.48" height="17.48" transform="translate(250.54 446.99) rotate(-77.35)"/></g><g class="cls-35"><rect class="cls-32" x="395.75" y="58.3" width="17.52" height="17.11" transform="translate(250.69 446.91) rotate(-77.35)"/><rect class="cls-33" x="395.75" y="58.25" width="17.48" height="17.48" transform="translate(250.54 446.99) rotate(-77.35)"/></g><path class="cls-20" d="M398.47,76.29a1.33,1.33,0,0,1-.13.65.82.82,0,0,1-.12.2,2.27,2.27,0,0,1,.16,1.55,2.35,2.35,0,0,1-1.07,1.52,2.43,2.43,0,0,1-3.36-.75,2.44,2.44,0,0,1,.75-3.35h0a2.34,2.34,0,0,1,1.84-.32,2.22,2.22,0,0,1,1.42.92l0,0a1.06,1.06,0,0,0,.07-.55Zm-2.9,3.78a1.91,1.91,0,0,0,1.49-.25,2,2,0,0,0,.61-2.72,2,2,0,0,0-2.72-.61,2,2,0,0,0-.61,2.72A1.91,1.91,0,0,0,395.57,80.07Zm-.15.7a1.64,1.64,0,0,1,1.08.75,1.71,1.71,0,0,1-.53,2.36h0a1.7,1.7,0,0,1-2.36-.53,1.7,1.7,0,0,1,.52-2.35h0A1.63,1.63,0,0,1,395.42,80.77Zm-.65,2.9a1.26,1.26,0,0,0,.59-2.46h0a1.27,1.27,0,0,0-.6,2.46Z"/><path class="cls-20" d="M402.67,81.13a2.11,2.11,0,0,1-.31.21A2.43,2.43,0,0,1,399,80.6h0a2.43,2.43,0,1,1,4.43-.77h0l-.52,2.32-.45-.1.2-.91Zm-2,.08a2,2,0,1,0,.86-3.84,1.93,1.93,0,0,0-1.48.26,2,2,0,0,0-.62,2.71A2,2,0,0,0,400.64,81.21Z"/><path class="cls-20" d="M405.19,77.24l-.45-.1.09-.43.46.11ZM404,82.39l-.46-.1,1-4.62.45.1Z"/><path class="cls-20" d="M405.21,80.24a2.58,2.58,0,0,1,1-1.53,2,2,0,0,1,1.64-.36,2,2,0,0,1,1.33,1,2.52,2.52,0,0,1,.25,1.81l-.51,2.3-.45-.1.52-2.3a2,2,0,0,0-.2-1.44,1.55,1.55,0,0,0-2.34-.53,2.08,2.08,0,0,0-.8,1.22l-.52,2.31-.44-.1.52-2.31Z"/><path class="cls-20" d="M398.91,82.65l-.16-.08a.2.2,0,0,0-.08,0l-.07,0a.18.18,0,0,1-.11-.19.17.17,0,0,1,.11-.12.34.34,0,0,1,.2,0,.25.25,0,0,1,.22.32v0l.13,0v0a.36.36,0,0,0-.31-.47h0a.53.53,0,0,0-.28,0,.28.28,0,0,0-.18.21.28.28,0,0,0,.15.31l.13.07.16.08h0a.17.17,0,0,1,.1.2.19.19,0,0,1,0,.08l-.08,0a.34.34,0,0,1-.2,0,.28.28,0,0,1-.25-.38v0l-.12,0v0a.47.47,0,0,0,.05.36l.12.1a.52.52,0,0,0,.16.06h0a.38.38,0,0,0,.15,0l.13,0a.34.34,0,0,0,.12-.09.27.27,0,0,0,.07-.13A.31.31,0,0,0,398.91,82.65Z"/><path class="cls-20" d="M400.22,82.5a.5.5,0,0,0-.71-.1.71.71,0,0,0-.18.79l0,.07a.54.54,0,0,0,.3.19.51.51,0,0,0,.42-.1.69.69,0,0,0,.21-.36.7.7,0,0,0,0-.43S400.24,82.52,400.22,82.5Zm0,.46a.56.56,0,0,1-.17.3l-.05,0a.37.37,0,0,1-.29,0,.39.39,0,0,1-.23-.19.49.49,0,0,1,0-.34.54.54,0,0,1,.17-.29s0,0,.05,0a.35.35,0,0,1,.26,0,.38.38,0,0,1,.26.19.5.5,0,0,1,0,.34Z"/><path class="cls-20" d="M401.33,83.3a.71.71,0,0,1-.08.15.32.32,0,0,1-.1.1.36.36,0,0,1-.27,0,.33.33,0,0,1-.24-.2.47.47,0,0,1,0-.33.48.48,0,0,1,.17-.29.34.34,0,0,1,.32-.07.28.28,0,0,1,.2.12.27.27,0,0,1,.06.23v0l.13,0v0a.39.39,0,0,0-.08-.33.5.5,0,0,0-.27-.16.48.48,0,0,0-.43.09.71.71,0,0,0-.22.37.67.67,0,0,0,0,.42l0,0a.5.5,0,0,0,.32.23.52.52,0,0,0,.36-.06l.13-.13a1.74,1.74,0,0,0,.1-.19v0l-.13,0Z"/><rect class="cls-20" x="401.14" y="83.24" width="1.12" height="0.13" transform="translate(232.45 457.01) rotate(-77.35)"/><path class="cls-20" d="M402.58,82.92l-.1,0-.69,1,.14,0h0a1.3,1.3,0,0,1,.1-.15l.09-.14.44.1.06.36.13,0-.18-1.18Zm0,.68-.35-.08.15-.21.13-.19s0,.07,0,.1l0,.26A.43.43,0,0,1,402.55,83.6Z"/><polygon class="cls-20" points="403.06 84.06 403.28 83.08 403.16 83.05 402.91 84.15 403.61 84.31 403.64 84.18 403.06 84.06"/><path class="cls-20" d="M405.35,83.55h0q-.15.19-.3.42l-.28.38-.19-1-.12,0-.25,1.09.12,0,.18-.78.17.86.09,0,.29-.4.23-.32-.17.79.12,0,.25-1.1-.13,0Z"/><polygon class="cls-20" points="405.69 84.24 406.28 84.37 406.31 84.25 405.71 84.11 405.79 83.77 406.42 83.92 406.45 83.79 405.69 83.62 405.45 84.72 406.21 84.89 406.24 84.77 405.6 84.63 405.69 84.24"/><path class="cls-20" d="M407,83.92l-.4-.09-.25,1.09.36.08h0a.52.52,0,0,0,.4-.08.55.55,0,0,0,.21-.36.64.64,0,0,0,0-.41A.42.42,0,0,0,407,83.92Zm-.09,1h-.17l-.23,0,.19-.85L407,84a.32.32,0,0,1,.25.17.52.52,0,0,1,0,.33h0a.45.45,0,0,1-.16.28A.51.51,0,0,1,406.91,84.89Z"/><rect class="cls-20" x="407.03" y="84.56" width="1.12" height="0.13" transform="translate(235.75 463.78) rotate(-77.35)"/><path class="cls-20" d="M408.46,84.24l-.1,0-.69,1,.14,0h0a1.3,1.3,0,0,1,.1-.15L408,85l.44.1.06.36.13,0Zm0,.68-.34-.08.27-.4h0a.28.28,0,0,1,0,.09.15.15,0,0,1,0,.07v.06s0,.06,0,.1v0A.43.43,0,0,1,408.43,84.92Z"/></g></g><path class="cls-36" d="M343.44,246.35c1.57-4.29,1.45-12.51-2.93-11.19a32.18,32.18,0,0,0-5.62,3L337,256.72C340.27,251.92,342.91,247.81,343.44,246.35Z"/><path class="cls-36" d="M341.19,262.67a19.73,19.73,0,0,0-3.26,2.07l1.68,14.66c3.81-4.22,6.94-7.92,7.39-9.16C348.25,266.8,345.12,261,341.19,262.67Z"/><path class="cls-36" d="M339.88,222.47c.66-5-1.33-8.08-5.71-6.76a14.21,14.21,0,0,0-1.76.8l1.69,14.77C337.28,227.41,339.68,224,339.88,222.47Z"/><path class="cls-36" d="M347.23,297.39c1.7-3.08,0-10.3-4.1-10.65a7.37,7.37,0,0,0-2.62.48l1.8,15.74A50.35,50.35,0,0,0,347.23,297.39Z"/><path class="cls-36" d="M303.44,321c0-1,0-2,0-2.94.45-14.05,10.62-25.92,9-40.14s-14.32-13.59-17.51-9.11-10.4,24.25-17.3,39.45a111.64,111.64,0,0,1-7.94,14.36c-.89,1.37-1.76,2.64-2.58,3.8a7,7,0,0,1-2.55-4.62l-5.94-51.88c-10.64,14.78-22.41,37-25.37,53.3-4,22.28,4.35,77.73,7.29,92.62.62,3.14,1.82,12.13,3.32,24.34h57.49c-2.27-11.15-3.84-19.42-4.2-22.59-1.77-15.44,6.47-22.56,11-33.37s3-34.52,10.67-50.63a73.84,73.84,0,0,1,7.29-11.85l-22.63,2.6C303.47,323.18,303.45,322.07,303.44,321Z"/><path class="cls-37" d="M303.48,318c.45-14.05,10.62-25.92,9-40.14-.81-7.07-4.35-10.47-8.11-11.55,1.45,4.54,3.64,13.38,1.69,20.52-2.75,10.09-12.53,41.28-11.31,50.76s6.83-7.06,8.77-13.31c0-1.14-.06-2.25-.07-3.34S303.45,319,303.48,318Z"/><path class="cls-37" d="M318.85,333.57a73.84,73.84,0,0,1,7.29-11.85l-10.49,1.21c-4.27,7.2-10.32,18.47-10.51,24.79-.31,9.78-3.37,26-5.2,34.85s-9.17,18.95-11.31,25.37-12.54,14.68-12.23,16.82,8.86-3.06,11-3.36c1.55-.22,2.14,11,3.83,18.76h10.15c-2.27-11.15-3.84-19.42-4.2-22.59-1.77-15.44,6.47-22.56,11-33.37S311.22,349.68,318.85,333.57Z"/><path class="cls-37" d="M342.31,303a50.35,50.35,0,0,0,4.92-5.57c.93-1.68.85-4.56-.06-6.92l-5.51,6.79Z"/><path class="cls-37" d="M339.61,279.4c3.81-4.22,6.94-7.92,7.39-9.16a6.7,6.7,0,0,0-.82-5.47,69.43,69.43,0,0,1-7,10.61Z"/><path class="cls-37" d="M336.54,252.62l.47,4.1c3.26-4.8,5.9-8.91,6.43-10.37a17.06,17.06,0,0,0,.8-7.41c-.8,1.52-1.6,3-2.39,4.55A87.2,87.2,0,0,1,336.54,252.62Z"/><path class="cls-37" d="M333.63,227.14l.47,4.14c3.18-3.87,5.58-7.24,5.78-8.81a9.71,9.71,0,0,0-.28-4.45,25.33,25.33,0,0,1-5.46,8.58Z"/><path class="cls-37" d="M259,337.93c.92-1.53,8.17-11.53,8.17-11.53a7,7,0,0,1-2.55-4.62l-3-26.5a86,86,0,0,0-4.12,9.63C254.08,314.7,258.05,339.46,259,337.93Z"/><path class="cls-38" d="M296.27,270.06c3-3.94,8.87-2.14,10.7.92s-1.53,15.59-3.67,18.65-10.09-2.45-11.31-4.28S294.44,272.51,296.27,270.06Z"/><path class="cls-39" d="M304.1,325.63c-.74-.72-1.38.31-1.66,1-.46,1-.8,2.14-1.22,3.21-.87,2.17-1.82,4.31-2.87,6.41s-2.16,4.13-3.36,6.12c-.62,1-1.26,2-1.89,3a14.75,14.75,0,0,0-.86,1.49,14.44,14.44,0,0,0-.77,1.52c-.11.32.31.68.6.46a9,9,0,0,0,1.13-1.18,12.82,12.82,0,0,0,1.11-1.33c.69-1,1.32-2,1.94-3q1.78-2.94,3.28-6c1-2,1.92-4.15,2.72-6.28.41-1.11.81-2.22,1.17-3.35a6.89,6.89,0,0,1,.51-1.33C304,326.2,304.25,325.78,304.1,325.63Z"/><path class="cls-39" d="M266.87,325.72s0,0,0,0a2.19,2.19,0,0,0-1.2,1.08c-.41.61-.79,1.25-1.18,1.88-.8,1.28-1.58,2.58-2.41,3.84s-1.64,2.46-2.48,3.67c-.42.61-.87,1.2-1.27,1.81s-.69,1.37-1.07,2.06a.28.28,0,0,0,.44.34,17.92,17.92,0,0,0,1.66-1.6c.46-.55.87-1.14,1.28-1.73.87-1.24,1.72-2.49,2.53-3.77s1.57-2.5,2.3-3.78c.39-.67.77-1.36,1.1-2.06A2.34,2.34,0,0,0,266.87,325.72Z"/><path class="cls-39" d="M294.62,409.27c-1,1.65-2,3.37-3.19,4.93a27.37,27.37,0,0,1-4.21,4.33,46.41,46.41,0,0,1-5.42,3.82c-.95.58-1.92,1.12-2.88,1.69a7.52,7.52,0,0,0-2.57,1.86.34.34,0,0,0,.29.51,3.76,3.76,0,0,0,1.52-.48c.56-.25,1.11-.53,1.65-.82,1-.54,2-1.12,3-1.72a43.25,43.25,0,0,0,5.53-3.88,28,28,0,0,0,4.24-4.4,17.25,17.25,0,0,0,1.66-2.56,9.85,9.85,0,0,0,1-3A.32.32,0,0,0,294.62,409.27Z"/><path class="cls-40" d="M116.8,256.12l-38.91,6.63c0-.57-.06-1.12-.08-1.65s0-1.15,0-1.72c.28-13.81,8.14-26.87,9.44-42.63,1.35-16.41-6.8-20.42-12.62-13.2s-19.31,35.24-25,45.75c-1,1.88-2,3.82-3.07,5.74L44,260,33.46,198C26.72,209.59,20.11,224.21,17.27,237c-3.13,14.1.85,128.56,3.85,203.19H80.56c-1.36-7.34-2.68-14.72-3.93-21.9-2-12.09-4.17-25.73-6.14-37.82-1.91-12.95-3-22.42-2.83-25.5.63-10.89,3.5-15.95,11-32.58,6.94-15.32.68-42.08-.66-57.52,6,3,12.41,7.89,12.3,10.1-.15,2.82,3.66,8.71,7.49,7.44s3.6-8.08,3.6-8.08c3.18,2.25,2.64,6.39,6.38,8.24s11.16-1.48,11.61-6.12-5-12.43-5-12.43c2,1.75,9.48-.37,9.73-6.22a9.45,9.45,0,0,0-2.17-5.63A6.93,6.93,0,0,1,116.8,256.12Z"/><path class="cls-41" d="M37.05,219.09A78,78,0,0,0,36,275.34,129.28,129.28,0,0,0,44,260Z"/><path class="cls-41" d="M96,282.46c-4.89-4.74-.19-9.42-1.82-11.94-1.24-1.92-6.38-6.66-9-9l-7.29,1.25.15,2.09c6,3,12.41,7.89,12.3,10.1C90.22,277.31,92.88,281.82,96,282.46Z"/><path class="cls-41" d="M114.4,264c1.19,1.06,4.44.69,6.86-1.08-3.7-.94-6.41-4-8-6.2l-4.14.71C111.44,260.26,114.4,264,114.4,264Z"/><path class="cls-41" d="M96.32,262.72c2,1.53,5.11,11.58,5.11,11.58,3.18,2.25,2.64,6.39,6.38,8.24,1.8.89,4.44.58,6.75-.49-6.53-1.43-7.32-12.56-8.91-15.35-1.22-2.14-4.39-5.54-6.39-7.6L93,260.17Z"/><path class="cls-41" d="M77.89,262.75c0-.57-.06-1.12-.08-1.65s0-1.15,0-1.72c.28-13.81,8.14-26.87,9.44-42.63.66-8-.93-13-3.39-15.25-.57,6.2-2.46,22.2-7.74,37.07-6.72,18.95-10.09,35.46-6.42,46.16s-3.36,45.86-3.67,52.9S52.3,362.7,51.68,364.53s6.12-2.45,8.26-1.53c1.81.78,6.24,55.36,8.31,77.16H80.56c-1.36-7.34-2.68-14.72-3.93-21.9-2-12.09-4.17-25.73-6.14-37.82-1.91-12.95-3-22.42-2.83-25.5.63-10.89,3.5-15.95,11-32.58,6.94-15.32.68-42.08-.66-57.52,1.16.58,2.34,1.24,3.48,1.93l-.18-.53.74-4.21Z"/><path class="cls-42" d="M76.83,203.1c2.41-2.29,6.08-1.37,7.57,2.18.93,2.23-.92,10.66-1.84,13s-9.17-2.14-10.7-3.82S74.37,205.44,76.83,203.1Z"/><path class="cls-43" d="M113.42,261a17.34,17.34,0,0,0-1.25-1.47,12.72,12.72,0,0,0-1.37-1.27,4.42,4.42,0,0,0-1.59-.87,0,0,0,0,0,0,.07,8.28,8.28,0,0,0,1.15,1.36c.43.43.86.86,1.26,1.31s.78.91,1.14,1.39a6.26,6.26,0,0,0,1.25,1.32c.14.1.28-.06.26-.2A3.93,3.93,0,0,0,113.42,261Z"/><path class="cls-43" d="M101.26,272.38q-.23-1-.51-2.07a23.64,23.64,0,0,0-1.45-3.89A17.72,17.72,0,0,0,97.2,263c-.69-.87-1.78-2.27-3-2.4a.17.17,0,0,0-.14.25,10.65,10.65,0,0,0,1.23,1.19,13.68,13.68,0,0,1,1.3,1.55,17.69,17.69,0,0,1,1.91,3.43,27.38,27.38,0,0,1,1.24,3.64c.16.62.31,1.24.45,1.87a4.76,4.76,0,0,0,.55,1.81.36.36,0,0,0,.65-.09A4.09,4.09,0,0,0,101.26,272.38Z"/><path class="cls-43" d="M46.18,255.2a11.33,11.33,0,0,0-1.48,2.46c-.48.91-.94,1.84-1.38,2.77Q42,263.22,40.55,266c-.94,1.85-1.91,3.67-2.9,5.49l-1.5,2.72a16.7,16.7,0,0,0-1.2,2.7.28.28,0,0,0,.46.27,15.63,15.63,0,0,0,1.73-2.39c.51-.9,1-1.8,1.51-2.71q1.51-2.79,2.94-5.61t2.69-5.6c.41-.91.81-1.82,1.16-2.75a10.7,10.7,0,0,0,.88-2.85A.08.08,0,0,0,46.18,255.2Z"/><path class="cls-41" d="M69.72,237s0,0,0,0S69.73,237.05,69.72,237Z"/><path class="cls-41" d="M69.28,237.43h0Z"/><path class="cls-41" d="M49.17,367.58a5.63,5.63,0,0,0-2,1.58c-.63.62-1.24,1.25-1.87,1.87-1.31,1.28-2.63,2.53-4,3.76s-2.67,2.41-4,3.57a23.13,23.13,0,0,0-4,3.79.58.58,0,0,0,.64.84,16.92,16.92,0,0,0,4.56-3.09c1.44-1.21,2.85-2.44,4.21-3.73s2.69-2.58,4-3.94c.6-.65,1.2-1.31,1.75-2A4.77,4.77,0,0,0,49.71,368,.43.43,0,0,0,49.17,367.58Z"/><path class="cls-43" d="M65.2,352.89a19.18,19.18,0,0,0-2.58,3.22,32.76,32.76,0,0,1-2.88,3.13A33.69,33.69,0,0,1,56.5,362c-.56.41-1.13.8-1.72,1.17a6.28,6.28,0,0,0-1.66,1.23c-.15.18-.08.55.21.51a4.57,4.57,0,0,0,1.88-.81c.62-.38,1.22-.78,1.81-1.21a30.28,30.28,0,0,0,3.39-2.79,32.06,32.06,0,0,0,3-3.21,9.47,9.47,0,0,0,2.26-3.7A.26.26,0,0,0,65.2,352.89Z"/><path class="cls-40" d="M352.89,71.82c-7.23.5-8.36,9.47-4.49,12.83,1.51,1.31,5.34,4.53,9.45,8l4.2-19.17C358.06,72.32,354.76,71.68,352.89,71.82Z"/><path class="cls-40" d="M432.75,121.56l-8.37,38.19q-1.23-2.17-2.54-4.19a88.61,88.61,0,0,0-9-11.56c-6.77-7.34-11.25-7.9-19.09-18s-15.19-7.1-16.31,5.64,13.84,28.58,19.9,39.12a20.88,20.88,0,0,1,1.67,3.77,32.46,32.46,0,0,1,1,3.62l-29.43-6.45c5.67,10,11.1,22,12.2,31,2.1,17.21,14.51,44.64,17.37,50.71s4.08,17.65,1.27,40.06c-2.07,16.44-27.94,102.13-41.58,146.65h74.21c9-58,25.26-166.7,25.09-192.21-.24-35.22-11.74-99.3-19.06-115.56A45.6,45.6,0,0,0,432.75,121.56Z"/><path class="cls-40" d="M339.75,131.75c-8,.33-7.56,9.65-3.2,12.7,2,1.39,5.51,2.25,9.23,3.23l3.31-15.06A43.51,43.51,0,0,0,339.75,131.75Z"/><path class="cls-40" d="M337.59,105.31c-8.29,1.54-6.7,15.28-.45,15.4,2.8.05,8.4,1.8,13.74,3.73l4.16-19C349,104.66,342.1,104.48,337.59,105.31Z"/><path class="cls-41" d="M359.72,84.11A33.81,33.81,0,0,1,346.54,77c-.78,2.77-.12,5.94,1.86,7.66,1.51,1.31,5.34,4.53,9.45,8Z"/><path class="cls-41" d="M352.26,118.14a32.32,32.32,0,0,0-8.48-1.18c-3.89-.11-8.07-.19-11.62-1.51.63,2.86,2.41,5.21,5,5.26,2.8.05,8.4,1.8,13.74,3.73Z"/><path class="cls-41" d="M346.91,142.56c-1.53-.13-3.05-.29-4.56-.53a26,26,0,0,1-8.82-2.85,7.83,7.83,0,0,0,3,5.27c2,1.39,5.51,2.25,9.23,3.23Z"/><path class="cls-41" d="M432.93,152.66a47,47,0,0,0-3.5-16l-5.05,23.07s3.66,14,4.27,16.14S432.93,159.69,432.93,152.66Z"/><path class="cls-41" d="M408.17,324.79c2.44-14.07,4.89-56.26,6.11-56.26s12.54,4,10.4,1.53-17.43-26.6-20.79-36.38-9.48-27.82-12.84-37.91c-2.21-6.62-6.64-16-9.44-21.66l-11-2.41c5.67,10,11.1,22,12.2,31,2.1,17.21,14.51,44.64,17.37,50.71s4.08,17.65,1.27,40.06c-2.07,16.44-27.94,102.13-41.58,146.65h24.37C393.24,405.51,406.21,336.06,408.17,324.79Z"/><path class="cls-41" d="M442.8,275c-2.22-.81-4.73-.81-7.05-1.31a35.51,35.51,0,0,1-3.51-.92,23.71,23.71,0,0,0-3.44-1.1c-.54-.09-1.09.56-.59,1a10.6,10.6,0,0,0,3.35,1.7,29.66,29.66,0,0,0,3.7,1.1c2.38.53,5.2,1.07,7.54.16A.33.33,0,0,0,442.8,275Z"/><path class="cls-41" d="M406.33,179.87c-1.52-8.56-12.84-24.15-17.42-31.19-3.6-5.52-9.07-12.74-10.67-21.65a27.26,27.26,0,0,0-.78,4.61c-1.12,12.74,13.84,28.58,19.9,39.12a20.88,20.88,0,0,1,1.67,3.77,32.46,32.46,0,0,1,1,3.62c.49,6.92,3.54,18.23,5.07,20.06S407.86,188.43,406.33,179.87Z"/><path class="cls-42" d="M384.89,122.24c-6.59.75.39,15.48,2,17.35s8.57-1.19,9.78-3.57S388.81,121.8,384.89,122.24Z"/><path class="cls-43" d="M406.46,200.65a63.8,63.8,0,0,1-2-6.23c-1.17-4.26-2-8.61-3.1-12.89-.3-1.18-.64-2.34-1-3.5a7.58,7.58,0,0,0-1.44-3.17.06.06,0,0,0-.1,0,8.63,8.63,0,0,0,.41,3c.25,1.07.51,2.15.75,3.23.47,2.2.93,4.41,1.4,6.61a89.8,89.8,0,0,0,3.45,12.82,20,20,0,0,0,3.54,6.41.33.33,0,0,0,.55-.32C408.16,204.62,407.25,202.66,406.46,200.65Z"/><path class="cls-43" d="M432.81,182.85c-.23-.44-.4-1-.6-1.43s-.39-.87-.6-1.3c-.43-.9-.84-1.81-1.19-2.75-.71-1.87-1.26-3.8-1.82-5.72-.65-2.2-1.3-4.4-2-6.59-.35-1.11-.7-2.22-1.08-3.33a20.36,20.36,0,0,0-1.2-3.09.21.21,0,0,0-.38.11,21.53,21.53,0,0,0,.64,3.37c.28,1.18.58,2.35.89,3.51.6,2.26,1.22,4.5,1.85,6.75.54,1.94,1.07,3.9,1.8,5.78a19.08,19.08,0,0,0,1.24,2.67,7.43,7.43,0,0,0,.82,1.17c.18.21.36.43.55.62s.46.33.67.52A.24.24,0,0,0,432.81,182.85Z"/><path class="cls-43" d="M421.43,270.51c-1.61-1-3.39-1.73-5.08-2.58a46.91,46.91,0,0,1-5-2.95,48.79,48.79,0,0,1-4.57-3.53c-.72-.63-1.43-1.27-2.13-1.93s-1.25-1.42-2-1.62c0,0-.06,0-.06.05a4.8,4.8,0,0,0,1.35,2.17,29.73,29.73,0,0,0,2.11,2.24,39.57,39.57,0,0,0,9.66,6.76A17.18,17.18,0,0,0,421.3,271C421.56,271,421.63,270.63,421.43,270.51Z"/><path class="cls-44" d="M217.59,124.08c-1.82-6-6.24-17.72-11.5-30.53l-5.49,36.13c-.85-1.71-1.74-3.32-2.67-4.85a60.16,60.16,0,0,0-22.67-21.66c-10.71-5.77-15.11,6.81-10.21,15.41s18.47,30.94,14.68,47.74c-.18.77-.32,1.56-.45,2.37-.18,1.07-.32,2.17-.43,3.29l-30.65-4.66c8.56,18.55,19.7,44.42,20.21,54.38.65,12.64-6.77,155.46-10.11,218.46h60.28c.13-72.57.4-237.49.37-254.22C218.91,164.42,222.81,141.43,217.59,124.08Z"/><path class="cls-45" d="M179.28,168.69c-.18,1.07-.32,2.17-.43,3.29l-.9,6.67s9.48-16.51,8-30.27S175.51,123.31,170,117.5a42.07,42.07,0,0,1-6.63-9.4,15.18,15.18,0,0,0,1.68,10.48c4.9,8.61,18.47,30.94,14.68,47.74C179.55,167.09,179.41,167.88,179.28,168.69Z"/><path class="cls-45" d="M200.58,130.65s4.28,13.45,4.58,15.59,5.2-13.45,4-18.35c-.59-2.34-3.43-8.07-6.23-13.4l-2.31,15.19-.21-.41Z"/><path class="cls-45" d="M182.23,440.16c-2.56-22-5.46-85.1-5.2-129.74.31-52,0-90.81,0-90.81s9.18,3.67,8.57,2.14-6.73-11-10.4-18c-2.77-5.32-10.6-25.09-14.26-34.46l-12.74-1.94c8.56,18.55,19.7,44.42,20.21,54.38.65,12.64-6.77,155.46-10.11,218.46Z"/><path class="cls-46" d="M171.09,103.36a6,6,0,0,0-1.82.44c-2.33,1-3.52,2.72-2.8,5.27,1.13,4,5.9,9.92,7.58,10.88s6.79-5.48,8.15-8.6c1-2.2-2.64-4.64-4.08-5.6C176.1,104.4,173.59,103.14,171.09,103.36Z"/><path class="cls-47" d="M180.64,163.81a16.93,16.93,0,0,0-.21-2.76s-.05,0-.06,0a26.24,26.24,0,0,0-.41,2.78c-.13.91-.26,1.81-.37,2.72q-.36,2.82-.82,5.62c-.31,1.85-.66,3.68-1.07,5.51-.22.93-.44,1.86-.67,2.78-.1.43-.21.85-.29,1.28a8.91,8.91,0,0,0-.05,1.46.39.39,0,0,0,.73.2,8.88,8.88,0,0,0,.66-1.16c.16-.45.28-.91.4-1.38.24-.92.45-1.86.64-2.79.39-1.9.73-3.82,1-5.74s.44-3.77.52-5.67C180.67,165.71,180.67,164.76,180.64,163.81Z"/><path class="cls-47" d="M207.68,150.21a27.27,27.27,0,0,0-.6-3,57.05,57.05,0,0,0-1.81-5.74c-.71-1.95-1.44-3.89-2.17-5.84-.37-1-.75-2-1.14-3a13.24,13.24,0,0,0-1.28-2.81c-.13-.19-.5-.14-.48.13a13.39,13.39,0,0,0,.78,2.95c.31.94.64,1.88,1,2.82.68,2,1.37,3.92,2,5.89s1.22,3.74,1.7,5.65c.23.95.44,1.91.6,2.87A20.85,20.85,0,0,0,207,153c.08.26.51.3.57,0A8.41,8.41,0,0,0,207.68,150.21Z"/><path class="cls-47" d="M185.61,221.3a7.57,7.57,0,0,0-2.12-.52c-.8-.11-1.59-.23-2.38-.4a39.63,39.63,0,0,1-4.51-1.24c-1.49-.49-3-1-4.41-1.64l-2.13-.86a6.56,6.56,0,0,0-2.19-.68c-.08,0-.11.1-.06.16a6.38,6.38,0,0,0,1.95,1.23c.68.36,1.37.7,2.06,1,1.47.68,3,1.33,4.48,1.88a33.55,33.55,0,0,0,4.59,1.36c1.4.3,3.26.79,4.65.25C185.76,221.77,185.87,221.43,185.61,221.3Z"/></g></g></g></svg>