<svg xmlns="http://www.w3.org/2000/svg" xmlns:xlink="http://www.w3.org/1999/xlink" viewBox="0 0 976.75 366.71"><defs><style>.cls-1{fill:#606060;}.cls-2{clip-path:url(#clip-path);}.cls-3{clip-path:url(#clip-path-2);}</style><clipPath id="clip-path"><path class="cls-1" d="M181.76,82.25a55.1,55.1,0,1,1-55.11,55.14,55.1,55.1,0,0,1,55.11-55.14m0-15.34a70.44,70.44,0,1,0,70.44,70.44A70.45,70.45,0,0,0,181.76,67Z"/></clipPath><clipPath id="clip-path-2"><path class="cls-1" d="M302.81,5.53H60.69C29.32,5.53,3.88,29,3.88,57.84V271.53c0,28.9,25.44,52.32,56.81,52.32h73.16l42.2,38.38a8.65,8.65,0,0,0,11.4,0l42.2-38.38h73.16c31.38,0,56.82-23.42,56.82-52.32V57.84C359.63,29,334.19,5.53,302.81,5.53Zm-73.16,303a15.31,15.31,0,0,0-10.31,4h0l-37.57,34.17L144.18,312.5h0a15.32,15.32,0,0,0-10.32-4H68.54a74.16,74.16,0,0,1,73.77-67.94h84.06a69,69,0,0,1,68.86,67.94Zm114.61-37c0,18-14.56,33.09-33.72,36.33a84.28,84.28,0,0,0-84.17-82.6H142.31A89.48,89.48,0,0,0,53.2,307.9c-19.3-3.16-34-18.25-34-36.37V57.84c0-20.38,18.6-37,41.47-37H302.81c22.88,0,41.48,16.59,41.48,37Z"/></clipPath></defs><title>gain logo grey</title><g id="Layer_2" data-name="Layer 2"><g id="Layer_2-2" data-name="Layer 2"><path class="cls-1" d="M181.76,82.25a55.1,55.1,0,1,1-55.11,55.14,55.1,55.1,0,0,1,55.11-55.14m0-15.34a70.44,70.44,0,1,0,70.44,70.44A70.45,70.45,0,0,0,181.76,67Z"/><g class="cls-2"><rect class="cls-1" x="3.89" width="355.74" height="364.38"/><rect class="cls-1" y="3.19" width="363.52" height="363.52"/></g><path class="cls-1" d="M302.91,66.76H292.17a1.71,1.71,0,0,1-1.71-1.7V54.31h0a1.7,1.7,0,0,0-1.7-1.7H278.23a1.7,1.7,0,0,0-1.7,1.7h0V65.06a1.7,1.7,0,0,1-1.7,1.7H264.07a1.7,1.7,0,0,0-1.7,1.7h0V79h0a1.7,1.7,0,0,0,1.7,1.7h10.76a1.7,1.7,0,0,1,1.7,1.7V93.15h0a1.7,1.7,0,0,0,1.7,1.7h10.53a1.7,1.7,0,0,0,1.7-1.7h0V82.39a1.71,1.71,0,0,1,1.71-1.7h10.74a1.71,1.71,0,0,0,1.71-1.7h0V68.46h0a1.71,1.71,0,0,0-1.71-1.7Z"/><path class="cls-1" d="M302.81,5.53H60.69C29.32,5.53,3.88,29,3.88,57.84V271.53c0,28.9,25.44,52.32,56.81,52.32h73.16l42.2,38.38a8.65,8.65,0,0,0,11.4,0l42.2-38.38h73.16c31.38,0,56.82-23.42,56.82-52.32V57.84C359.63,29,334.19,5.53,302.81,5.53Zm-73.16,303a15.31,15.31,0,0,0-10.31,4h0l-37.57,34.17L144.18,312.5h0a15.32,15.32,0,0,0-10.32-4H68.54a74.16,74.16,0,0,1,73.77-67.94h84.06a69,69,0,0,1,68.86,67.94Zm114.61-37c0,18-14.56,33.09-33.72,36.33a84.28,84.28,0,0,0-84.17-82.6H142.31A89.48,89.48,0,0,0,53.2,307.9c-19.3-3.16-34-18.25-34-36.37V57.84c0-20.38,18.6-37,41.47-37H302.81c22.88,0,41.48,16.59,41.48,37Z"/><g class="cls-3"><rect class="cls-1" x="3.89" width="355.74" height="364.38"/><rect class="cls-1" y="3.19" width="363.52" height="363.52"/></g><path class="cls-1" d="M587.32,37.78a3.84,3.84,0,0,1,3.75,3,43.56,43.56,0,0,1-.21,18.81,33.59,33.59,0,0,1-2.43,7.16q16.23,20.15,16.13,48.38,0,33-23.4,56.39t-56.39,23.4q-33,0-56.39-23.4T445,115.15q.11-33,23.51-56.39t56.39-23.4q31.71,0,52,19.19c-.36,1.54-.43,1.87-.21,1a28.28,28.28,0,0,0-.39-13.08A3.82,3.82,0,0,1,580,37.76Zm-62.55,142a64.4,64.4,0,0,0,64.61-64.17v-.44a64.61,64.61,0,0,0-129.22,0h0a64.41,64.41,0,0,0,64.21,64.61Zm.11,23.29q23.18,0,39.73,16.55a56.09,56.09,0,0,1,0,79.32l-.14.15A56.19,56.19,0,1,1,485,219.63h0a54.33,54.33,0,0,1,39.84-16.58Zm-.11,97.71a41,41,0,1,0-29.3-12.12,39.9,39.9,0,0,0,29.3,12.09Z"/><path class="cls-1" d="M759.6,167.28a1.69,1.69,0,0,0-2.93-1.16q-2,2.13-5.29,5.42Q728,194.94,695,194.94T638.6,171.53q-23.4-23.4-23.4-56.39t23.51-56.39q23.41-23.39,56.42-23.39t56.39,23.4q23.4,23.4,23.29,56.39v70.39a7.61,7.61,0,0,1-7.61,7.61h0a7.61,7.61,0,0,1-7.6-7.61ZM695,179.76a64.4,64.4,0,0,0,64.61-64.17v-.44a64.61,64.61,0,0,0-129.22-.09v.09a64.41,64.41,0,0,0,64.21,64.61Z"/><path class="cls-1" d="M805.19,20h-.84a7.23,7.23,0,0,1-7.22-7.23h0a7.22,7.22,0,0,1,7.22-7.22h.84a7.23,7.23,0,0,1,7.22,7.23h0A7.22,7.22,0,0,1,805.19,20Zm0,173.17h-.83a7.23,7.23,0,0,1-7.22-7.23V44.9a7.22,7.22,0,0,1,7.22-7.22h.84a7.23,7.23,0,0,1,7.23,7.22v141A7.23,7.23,0,0,1,805.18,193.15Z"/><path class="cls-1" d="M834.65,115.78q.42-32.88,21.08-56.07,20.76-23.4,49.95-23.4t50.07,23.51Q976.39,83,976.75,116v69.94a7.43,7.43,0,0,1-7.43,7.43h0a7.43,7.43,0,0,1-7.43-7.43V116q-.33-26.34-16.76-45-16.33-18.46-39.31-18.46T866.37,70.87q-16.44,18.55-16.86,44.8v70.25a7.43,7.43,0,0,1-7.43,7.43h0a7.43,7.43,0,0,1-7.43-7.43Z"/></g></g></svg>