<svg xmlns="http://www.w3.org/2000/svg" xmlns:xlink="http://www.w3.org/1999/xlink" viewBox="0 0 444.56 455.41"><defs><style>.cls-1{fill:none;}.cls-2{clip-path:url(#clip-path);}.cls-3{fill:url(#radial-gradient);}</style><clipPath id="clip-path"><path class="cls-1" d="M222.28,102.81a68.87,68.87,0,1,1-.07,0h.07m0-19.17a88.07,88.07,0,1,0,88.07,88.07h0a88,88,0,0,0-87.93-88.07h-.14Zm151.48-.21H358.13V65.73H340.79v17.7H323.13v17.38h17.7v17.7h17.3v-17.7h17.7V83.43ZM373.66,7H71C31.81,7,0,36.24,0,72.26v267c0,36.14,31.81,65.42,71,65.42h91.44l52.78,47.93a10.73,10.73,0,0,0,14.22,0l52.78-47.93h91.44c39.19,0,71-29.28,71-65.42v-267C444.66,36.13,412.85,7,373.66,7ZM274.74,385.56l-5.48,5-47,42.67-47-42.67-5.47-5h-89A92.63,92.63,0,0,1,173,300.65H278A86.2,86.2,0,0,1,364,385.56Zm150.64-46.21c0,22.55-18.22,41.4-42.14,45.41A105.41,105.41,0,0,0,278,281.52H173A111.85,111.85,0,0,0,61.63,384.72C37.5,380.82,19.17,362,19.17,339.31v-267c0-25.49,23.28-46.24,51.83-46.24H373.55c28.55,0,51.83,20.75,51.83,46.24Z"/></clipPath><radialGradient id="radial-gradient" cx="-481.33" cy="-284.25" fx="-504.9108822933233" fy="-267.9939186378944" r="536.05" gradientTransform="matrix(0.59, -0.87, 1.22, 0.88, 766.57, 310.51)" gradientUnits="userSpaceOnUse"><stop offset="0" stop-color="#f9ff00"/><stop offset="0.04" stop-color="#edfe04"/><stop offset="0.12" stop-color="#cefa0e"/><stop offset="0.23" stop-color="#9cf41e"/><stop offset="0.35" stop-color="#55ec35"/><stop offset="0.49" stop-color="#00e251"/><stop offset="0.54" stop-color="#00d957"/><stop offset="0.61" stop-color="#00c269"/><stop offset="0.71" stop-color="#019c85"/><stop offset="0.82" stop-color="#0166ad"/><stop offset="0.94" stop-color="#0223df"/><stop offset="1" stop-color="#0200f9"/></radialGradient></defs><title>gain-icon</title><g id="Layer_2" data-name="Layer 2"><g id="Layer_1-2" data-name="Layer 1"><g class="cls-2"><rect class="cls-3" width="444.56" height="455.41"/></g></g></g></svg>