<svg xmlns="http://www.w3.org/2000/svg" xmlns:xlink="http://www.w3.org/1999/xlink" viewBox="0 0 826.41 480.39"><defs><style>.cls-1{fill:url(#linear-gradient);}.cls-2,.cls-30{fill:#fff;}.cls-3{fill:#75e0a8;}.cls-4{fill:#49ce75;}.cls-5{fill:#e9edff;}.cls-6{fill:#f24962;}.cls-7{fill:#a89a76;}.cls-8{fill:#c1272d;}.cls-9{fill:url(#linear-gradient-2);}.cls-10{fill:url(#linear-gradient-3);}.cls-11{fill:url(#linear-gradient-4);}.cls-12,.cls-31{fill:#f2f2f2;}.cls-13{fill:#2586a0;}.cls-14{fill:#534741;}.cls-15{fill:url(#linear-gradient-5);}.cls-16{fill:#2ba0c9;}.cls-17{fill:#754c24;}.cls-18{fill:#6fad3e;}.cls-19{fill:url(#linear-gradient-6);}.cls-20{fill:url(#linear-gradient-7);}.cls-21{fill:#29abe2;}.cls-22{fill:#8c6f62;}.cls-23{fill:#564930;}.cls-24{fill:#3f2e4c;}.cls-25{fill:url(#linear-gradient-8);}.cls-26{fill:#fc9e99;}.cls-27{fill:url(#linear-gradient-9);}.cls-28{fill:url(#linear-gradient-10);}.cls-29{fill:#ccc;}.cls-29,.cls-30,.cls-31{stroke:#3291f9;stroke-miterlimit:10;}</style><linearGradient id="linear-gradient" x1="419.26" y1="480.39" x2="419.26" gradientUnits="userSpaceOnUse"><stop offset="0" stop-color="#fff"/><stop offset="1" stop-color="#81edff"/></linearGradient><linearGradient id="linear-gradient-2" x1="498.25" y1="175.32" x2="585.55" y2="175.32" gradientUnits="userSpaceOnUse"><stop offset="0.01" stop-color="#ce4572"/><stop offset="0.18" stop-color="#d94d73"/><stop offset="0.7" stop-color="#f56174"/><stop offset="1" stop-color="#ff6975"/></linearGradient><linearGradient id="linear-gradient-3" x1="501.42" y1="178.33" x2="547.99" y2="178.33" gradientUnits="userSpaceOnUse"><stop offset="0.01" stop-color="#ce4572"/><stop offset="0.28" stop-color="#d64b73"/><stop offset="0.72" stop-color="#ed5b74"/><stop offset="1" stop-color="#ff6975"/></linearGradient><linearGradient id="linear-gradient-4" x1="393.34" y1="318.2" x2="487.76" y2="318.2" gradientUnits="userSpaceOnUse"><stop offset="0" stop-color="#fdab9b"/><stop offset="0.3" stop-color="#fdb39d"/><stop offset="0.78" stop-color="#fecaa1"/><stop offset="0.99" stop-color="#fed6a3"/></linearGradient><linearGradient id="linear-gradient-5" x1="484.95" y1="229.36" x2="515.87" y2="229.36" xlink:href="#linear-gradient-4"/><linearGradient id="linear-gradient-6" x1="455.26" y1="227.15" x2="494.75" y2="227.15" gradientUnits="userSpaceOnUse"><stop offset="0" stop-color="#fdc29b"/><stop offset="0.1" stop-color="#fed0a1"/><stop offset="0.24" stop-color="#fedba5"/><stop offset="0.44" stop-color="#ffe2a8"/><stop offset="0.99" stop-color="#ffe4a9"/></linearGradient><linearGradient id="linear-gradient-7" x1="453.24" y1="205.48" x2="508.8" y2="205.48" xlink:href="#linear-gradient-3"/><linearGradient id="linear-gradient-8" x1="476.04" y1="219.71" x2="485.1" y2="219.71" xlink:href="#linear-gradient-4"/><linearGradient id="linear-gradient-9" x1="391.55" y1="340.27" x2="526.33" y2="340.27" xlink:href="#linear-gradient-6"/><linearGradient id="linear-gradient-10" x1="489.93" y1="327.5" x2="489.93" y2="317.93" xlink:href="#linear-gradient-4"/></defs><title>gorwth</title><g id="Layer_2" data-name="Layer 2"><g id="grow"><path class="cls-1" d="M767,253.31c13.45-16,16.42-47.11,7.6-72.85-8.73-26.65-29.26-47.91-60.77-65.07C682.44,98,640,84.69,589.57,68.66c-50.39-15.6-108.83-33.93-170.31-51.29C357.79-.48,299.34-4,249,4.24a313.13,313.13,0,0,0-124.3,48.64c-31.51,21.3-52,43.84-60.78,65.34-8.82,22.54-5.85,44.06,7.61,87.06,12.91,37,34.12,87.55,59.12,132.06,25.08,45,53.95,83.92,83.92,108.46,30.05,25,61.2,35.6,92.54,34.51,31.42-.62,63-12.92,95.76-23,25.54,14.58,63.17,27.31,107.76,17.81,33.8-6.39,67.74-37.39,99.47-61,31.29-25.46,60.37-43.53,74.65-66.6,8.85-15.39,10.37-34.94,4.24-55.94C722.18,281.86,750.91,276,767,253.31Z"/><path class="cls-2" d="M257.87,127.78s4.1-14,13-13,10.26,5.13,17.78,2,10.26-13,22.56-10.59,13.68,16.06,27.69,15,18.81-1.37,23.94,6.49Z"/><path class="cls-2" d="M474.62,109s5.62-12.43,21-8.72c15.18,3.66,21.72-18.08,35.23-16.68s12.3,9.87,29.54,12.67,18.62,0,25.88,12.73Z"/><path class="cls-3" d="M742.31,248.62c19.11-2.59,38.56-6.54,53.51-19.58s23.13-31.75,30.44-49.68a1.62,1.62,0,0,0-2.84-1.57c-5.84,8.31-18.3,11.74-26.88,16.61a219.45,219.45,0,0,0-25.57,17,195.81,195.81,0,0,0-36,36c-5.89,3.42-11.66,7.09-17.24,11,2.67-2.87,5.23-5.83,7.67-8.83,7.85-4.85,15.58-9.94,21.62-17,6.53-7.65,11.72-16.58,16.84-25.2,9.45-15.9,17.47-33.35,15-52.28-.23-1.72-2.81-2.37-3.26-.39-4.51,19.75-23,30.06-34.31,45.46a63.66,63.66,0,0,0-9.3,19.47c-2.72,9-2.65,23.07-10.73,29.12-.48.36,0,1.15.49.8l.17-.12.22.15-2.57,2.88c-6.63,7.38-14.13,13.94-20.84,21.23-3.75,3.45-7.35,7.06-10.75,10.85.46-1.28.89-2.56,1.31-3.85a.43.43,0,0,0,.09-.13c5-11.36,13.37-18.21,20.92-27.59,5.63-7,7.62-15.09,8.94-23.82,1.65-11,4.16-20.18,9.56-30a89.19,89.19,0,0,0,10.37-28.33,1.74,1.74,0,0,0-3.36-.86c-3.77,11.57-12.38,19.93-19.88,29.14a137.11,137.11,0,0,0-15.24,23,128.42,128.42,0,0,0-14.44,55.05.49.49,0,0,0,.79.41l.45.74q-1.23,3.56-2.59,7.05c-.79,2-1.67,4-2.62,5.89a132.22,132.22,0,0,0-9.69,13.94c-1.57,2.6-3.05,5.27-4.46,8,0-1.48,0-3,0-4.44l.07-.09c3.62-6.16,4.3-12.92,4.72-19.92.66-11.13,3.76-19.73,8-30A80.42,80.42,0,0,0,684.37,208a1.61,1.61,0,0,0-3.15.46c.76,19.25-11.14,34.45-19.39,50.8-3.32,6.58-5.88,13.71-5.18,21.19.71,7.64,4.58,14.46,8.55,20.89.15,1.85.26,3.7.34,5.55a3.3,3.3,0,0,1-.18.32,1.41,1.41,0,0,0,.26,1.86c0,1.35,0,2.71,0,4.06a62.71,62.71,0,0,1-.53,6.41A139.17,139.17,0,0,0,653.93,356c-.73-3.5-1.65-7-2.72-10.38,9-9.19,9.81-23.06,7.26-35-1.81-8.45-5.45-16.22-7.87-24.47A46.13,46.13,0,0,1,653,254.1a1.92,1.92,0,0,0-3.36-1.86c-5.58,9.3-11.26,18.52-16.94,27.75-4.55,7.39-8.8,14.54-8.55,23.5a48.51,48.51,0,0,0,24.07,41.12c.83,2.93,1.56,5.91,2.18,8.92a117.19,117.19,0,0,1,2,20.56q0,3.71.18,7.43c0,1.62.09,3.24.15,4.88a.86.86,0,0,0,.3.63c.27,2.53.62,5.05,1.07,7.55.26,1.43,2.56,1.05,2.5-.36a176.38,176.38,0,0,1,2.88-41c2.53-3.66,6-7,8.69-9.73,1.22-1.25,2.49-2.45,3.79-3.6,11.88-4.27,23.29-4.85,35.91-6.18a73,73,0,0,0,62.78-50.85c4.92-3.58,8.94-8.05,10.87-13.57.32-.92-.81-1.48-1.52-1.12-11.92,5.91-23.57,7.05-36.06,6.71.41-.71.81-1.44,1.2-2.18,29,1.59,62.83-11.26,66.63-40.8.15-1.13-1.07-2.55-2.24-1.66-15.25,11.65-31.6,15.8-50.42,17.11-13.77,1-24.55,7.91-34.91,16.21l-1.61.63-.53-.23a1.85,1.85,0,0,0-2.59,1.53c-2.52,1.08-5,2.24-7.44,3.47C721.77,261.66,732.21,255.38,742.31,248.62Zm-38.85,35.66a1.48,1.48,0,0,0,1.15.1c2-.58,4,.05,5.88,1.12-.9.48-1.79,1-2.66,1.47a124.68,124.68,0,0,0-17.94,12.09c-3.76,3.13-9,7.27-11.88,12a62.61,62.61,0,0,0-5.86,5q1.64-3.23,3.46-6.37a52.54,52.54,0,0,0,5.37-8.51c.59-.86,1.19-1.71,1.81-2.56a74.43,74.43,0,0,1,14.3-11A71.12,71.12,0,0,1,703.46,284.28Zm-42.18,62.59-.58.78a143,143,0,0,1,7.28-22.6,59.55,59.55,0,0,1,9.63-9.49c17.1-4.34,35.33-10.89,49.45-21.76h.06a43.45,43.45,0,0,0,15.38.28c-27,11.46-58.27,16.93-73.18,43.89A56.88,56.88,0,0,0,661.28,346.87ZM721,267.3a62.67,62.67,0,0,0,14.62,4.34c-1.26.93-2.58,1.81-3.92,2.65-9.87-.42-20.81.34-28.37,7.1a.21.21,0,0,0-.07.14,1.68,1.68,0,0,0-.21.18,74.79,74.79,0,0,0-12,6.58,138.94,138.94,0,0,1,9.76-10A159.79,159.79,0,0,1,719,268.2C719.62,267.89,720.3,267.6,721,267.3Z"/><path class="cls-3" d="M469.18,274.9c-1.72-2.12-3.51-4.2-5.36-6.22a1.86,1.86,0,0,0-1.75-2.46h-.58l-1.2-1.24c-6.05-11.82-13-22.58-25.19-29.1-16.63-8.91-29.84-19.4-39-36.28-.7-1.3-2.4-.5-2.73.59-8.65,28.5,16.93,54.1,44,64.54.05.83.11,1.66.19,2.48-11.52-4.81-21.68-10.63-30.13-20.91-.51-.62-1.76-.58-1.85.4-.5,5.82,1.33,11.55,4.35,16.83a74,74,0,0,0,14.21,52.63,73.29,73.29,0,0,0,22.19,19.5c11,6.39,21.13,11.6,30.21,20.36q1.08,2.39,2,4.84c1.31,3.57,3.13,8.07,3.94,12.44a176.49,176.49,0,0,1-14.18,38.54c-.64,1.27,1.31,2.56,2.13,1.36q2.14-3.15,4.07-6.44a.88.88,0,0,0,.53-.46q1.1-2.21,2.14-4.39,1.72-3.3,3.22-6.7a116.76,116.76,0,0,1,10.27-17.92q2.7-3.74,5.65-7.25a48.48,48.48,0,0,0,38.82-27.62c3.9-8.07,2.95-16.34,1.84-24.94-1.39-10.75-2.8-21.49-4.07-32.25a1.92,1.92,0,0,0-3.82.31,46.16,46.16,0,0,1-11,30.23c-5.59,6.52-12.09,12.12-17.21,19.08-7.22,9.83-12.19,22.81-7.73,34.89a106.15,106.15,0,0,0-6.74,8.36,139.64,139.64,0,0,0,4.8-37.88,61,61,0,0,1,2.14-6.06c.52-1.25,1.09-2.49,1.67-3.71a1.39,1.39,0,0,0,1-1.58l0-.37c.83-1.66,1.7-3.3,2.59-4.92,6.26-4.24,12.59-8.88,16.37-15.55s4.29-14.09,4-21.45c-.81-18.3-5.43-37,3.16-54.28a1.61,1.61,0,0,0-2.68-1.71,80.31,80.31,0,0,0-17.71,47.82c-.34,11.09-1,20.21-5,30.63-2.49,6.55-4.65,13-3.87,20.09,0,.05,0,.08,0,.12-.65,1.33-1.27,2.68-1.84,4q-.26-4.57-.8-9.11a132.24,132.24,0,0,0-3.11-16.69c-.08-2.12-.09-4.27,0-6.44q.19-3.75.53-7.5l.71-.48a.5.5,0,0,0,.9-.05,128.6,128.6,0,0,0,9.41-56.13,137,137,0,0,0-4.45-27.28c-3.06-11.47-7.48-22.63-6.18-34.72a1.73,1.73,0,0,0-3.41-.6,89.11,89.11,0,0,0-2.16,30.09c.9,11.16-.59,20.58-3.58,31.27-2.38,8.51-3.89,16.71-1.62,25.4,3,11.65,7.87,21.33,7.75,33.74a.75.75,0,0,0,0,.16c-.15,1.34-.28,2.69-.39,4q-2.33-7.28-5.35-14.31c-3.13-9.39-7.28-18.45-10.3-27.9-.39-1.23-.78-2.46-1.16-3.69l.26,0a1.62,1.62,0,0,1,.1.18c.32.53,1.07,0,.78-.53-4.89-8.84.95-21.63,2.16-31a63.51,63.51,0,0,0-.5-21.57c-4-18.68-16.63-35.67-12.64-55.53.4-2-2.22-2.46-3.13-1-10,16.24-9.88,35.44-7.79,53.82,1.13,10,2.21,20.23,5,29.89,2.6,8.94,7.56,16.75,12.73,24.39q1.5,5.61,3.38,11.2c-3.48-5.88-7.24-11.59-11.2-17.12a196.13,196.13,0,0,0-18-47.63,216.84,216.84,0,0,0-16.35-26c-5.83-8-15.78-16.2-17.7-26.18a1.62,1.62,0,0,0-3.23.27c-.69,19.36-.89,39.81,7.38,57.79s24.41,29.61,40.77,39.81C456.37,254.22,463.31,264.23,469.18,274.9Zm6,23.08a74.36,74.36,0,0,1,8.51,15.94c.21,1,.41,2.05.6,3.08a52,52,0,0,0,1.41,9.95q.36,3.63.54,7.24a60.87,60.87,0,0,0-3.28-7c-.69-5.46-3.78-11.39-5.94-15.78A123.79,123.79,0,0,0,465.65,293q-.9-1.21-1.83-2.43a7.6,7.6,0,0,1,5.83,1.39,1.51,1.51,0,0,0,1.09.38C472.3,294.16,473.8,296,475.2,298Zm4.64,57.37c-2.54-30.71-28.82-48.53-48.73-70.05a43.75,43.75,0,0,0,14.14,6.06h.06c8.42,15.71,22.35,29.16,36.17,40.13a59.88,59.88,0,0,1,4.89,12.61,142.08,142.08,0,0,1-2.63,23.59c-.08-.34-.15-.66-.21-.95A57,57,0,0,0,479.84,355.35Zm-16.63-84A161.81,161.81,0,0,1,475.58,288q2.75,6.44,4.82,13.09a74.21,74.21,0,0,0-8.22-10.91,1.15,1.15,0,0,0-.12-.25.29.29,0,0,0,0-.16c-4.13-9.26-13.79-14.44-23-18.11-.88-1.32-1.72-2.66-2.5-4a62.52,62.52,0,0,0,15.12,2C462.22,270.25,462.72,270.79,463.21,271.35Z"/><path class="cls-3" d="M167,366.1c4.78-2.67,8.12-7.33,10.68-12.17,1.36-2.58,2.56-5.66,1.38-8.34a3.19,3.19,0,0,0-1.29-1.56,3.67,3.67,0,0,0-3.3.19c-3.66,1.78-5.37,6-6.1,10s-.4,7.27-2.27,10.89"/><path class="cls-3" d="M166.8,365.74a31.93,31.93,0,0,0,8.18-8.61,32.46,32.46,0,0,0,2.66-4.83,10.38,10.38,0,0,0,1-2.69q-4.39-6.66-7.09-1.89c-3.7,5.22-2.2,12.13-5,17.72-.27.57-1.27.16-1-.43,2.24-5.45,1.28-11.69,4.18-16.95,1.41-2.56,5.07-6.41,8.39-4.63,3.9,2.09,1.59,8.12.19,10.87-2.6,5.07-6,9.51-11.09,12.16a.42.42,0,0,1-.43-.72Z"/><path class="cls-3" d="M165.92,366.4c-5.47.16-10.73-2.13-15.4-5-2.5-1.52-5.11-3.55-5.47-6.45a3.28,3.28,0,0,1,.32-2,3.64,3.64,0,0,1,2.92-1.53c4.06-.35,7.72,2.44,10.4,5.51s4.06,6,7.52,8.18"/><path class="cls-3" d="M165.92,366.82c-6.09.35-11.88-2-16.84-5.46-2.48-1.73-6.26-5.34-4.32-8.75s7.17-1.72,9.59-.29c5.14,3,7.44,8.84,12.15,12.32.57.42.05,1.37-.57,1-5.26-3.36-7.43-10-13.28-12.59a7.05,7.05,0,0,0-3.15-.91q-5.44,3.57-1.56,6.53a22.46,22.46,0,0,0,4.89,3.27A32.6,32.6,0,0,0,165.92,366a.42.42,0,0,1,0,.84Z"/><path class="cls-3" d="M162.3,348.83c4.52-3.09,7.42-8,9.52-13.09,1.12-2.69,2-5.87.62-8.43a3.21,3.21,0,0,0-1.44-1.43,3.62,3.62,0,0,0-3.26.49c-3.49,2.1-4.8,6.51-5.16,10.56s.27,7.28-1.27,11.05"/><path class="cls-3" d="M162,348.54a31.45,31.45,0,0,0,6.79-8.22,32.75,32.75,0,0,0,2.87-6.15c1-3.25.86-9.51-4.42-6.5-6.16,3.52-3.2,14.79-5.38,20.46-.26.66-1.3.41-1.09-.3,1.73-5.63.2-11.76,2.63-17.26,1.17-2.66,4.53-6.89,8-5.3,4,1.85,2.27,7.91,1.09,10.84-2.14,5.3-5.07,10-9.93,13.09-.4.25-.88-.35-.52-.66Z"/><path class="cls-3" d="M161.24,349.24c-5.43.65-10.88-1.15-15.79-3.56-2.63-1.28-5.41-3.07-6-5.92a3.17,3.17,0,0,1,.13-2,3.62,3.62,0,0,1,2.77-1.79c4-.73,7.91,1.72,10.85,4.53s4.61,5.64,8.25,7.46"/><path class="cls-3" d="M161.35,349.64c-5.76.86-11.13-.71-16.27-3.33-2.86-1.46-7.38-4.35-6.33-8.26,1-3.72,6.2-3.2,9-2.1,5.83,2.33,8.8,8.3,14,11.51a.56.56,0,0,1-.57,1c-5.26-2.76-9.77-12.13-16.26-11.75q-4.08-1.15-3.14,5.7a13.94,13.94,0,0,0,3,2.1,33.05,33.05,0,0,0,5.08,2.29,31.86,31.86,0,0,0,11.47,2c.46,0,.59.76.11.83Z"/><path class="cls-3" d="M156,331.3c4.27-3.41,6.8-8.56,8.53-13.75.92-2.77,1.59-6,0-8.46a3.22,3.22,0,0,0-1.53-1.32,3.63,3.63,0,0,0-3.22.73c-3.33,2.35-4.31,6.84-4.37,10.91s.8,7.24-.45,11.12"/><path class="cls-3" d="M155.68,331a31.5,31.5,0,0,0,5.94-8.27,34,34,0,0,0,2.19-5.39,17.8,17.8,0,0,0,.92-4.15q-4.11-6.26-6.25-2.37c-4.8,4.36-1.34,14.18-3,19.84a.56.56,0,0,1-1.08-.29c1.31-6-.86-12.29,1.59-18.05,1.15-2.68,4.42-6.82,7.78-4.9,3.75,2.14,2.28,7.87,1.2,11-1.79,5.24-4.3,9.84-8.77,13.22-.39.29-.84-.33-.51-.66Z"/><path class="cls-3" d="M155,331.78c-5.37,1.06-10.93-.34-16-2.38-2.71-1.08-5.62-2.66-6.45-5.46a3.21,3.21,0,0,1,0-2,3.63,3.63,0,0,1,2.64-2c3.94-1,8,1.13,11.15,3.71s5,5.29,8.77,6.84"/><path class="cls-3" d="M155.06,332.19c-6,1.33-12.13,0-17.66-2.66-2.62-1.26-6.91-4.2-5.61-7.81,1.2-3.31,6.08-3,8.74-2.18,6,1.86,9.39,7.66,14.79,10.45.65.34.07,1.26-.57,1-5.62-2.43-11.46-12.32-18.23-10.47-9.32,2.54,2.91,8.44,5.71,9.34A32.66,32.66,0,0,0,155,331.36c.47,0,.57.73.11.83Z"/><path class="cls-3" d="M149.08,315c4.15-3.57,6.5-8.81,8-14.06.82-2.8,1.38-6.06-.31-8.44a3.13,3.13,0,0,0-1.58-1.27,3.65,3.65,0,0,0-3.19.84c-3.24,2.47-4.06,7-4,11.07s1.06,7.2-.05,11.12"/><path class="cls-3" d="M148.78,314.69a31.46,31.46,0,0,0,5.65-8.49,34.88,34.88,0,0,0,2-5.46,17.5,17.5,0,0,0,.77-4.19q-4.37-6-6.35-2.09c-4.6,4.51-.84,14.28-2.28,19.94-.18.71-1.21.4-1.09-.3,1.1-6-1.3-12.25,1-18.1,1-2.58,3.82-6.61,7.16-5.39,4.07,1.48,3.07,7.43,2.23,10.52-1.49,5.49-4,10.52-8.43,14.16-.41.33-1-.2-.6-.6Z"/><path class="cls-3" d="M148.07,315.5c-5.33,1.25-10.94.06-16.09-1.8-2.74-1-5.71-2.46-6.64-5.23a3.28,3.28,0,0,1-.09-2,3.64,3.64,0,0,1,2.56-2.07c3.91-1.17,8.05.84,11.29,3.31s5.19,5.11,9,6.52"/><path class="cls-3" d="M148.18,315.91c-5.91,1.53-12,.44-17.57-2-2.72-1.17-7.15-3.88-6.05-7.59,1-3.4,5.93-3.29,8.6-2.56,6.08,1.67,9.69,7.3,15.23,9.92.57.27.16,1.26-.43,1-6.48-2.54-10.41-10-17.93-9.76-2.61-.55-3.79.86-3.56,4.24a9,9,0,0,0,3.52,2.87,26.72,26.72,0,0,0,5.33,1.92,32.7,32.7,0,0,0,12.75,1.07c.48-.06.56.71.11.83Z"/><path class="cls-3" d="M141.5,298.1c4-3.73,6.14-9.05,7.47-14.36.71-2.83,1.14-6.11-.64-8.43a3.26,3.26,0,0,0-1.63-1.21,3.68,3.68,0,0,0-3.16,1c-3.14,2.59-3.78,7.15-3.53,11.22s1.34,7.15.38,11.11"/><path class="cls-3" d="M141.2,297.8a31.76,31.76,0,0,0,5.77-9.94,36.36,36.36,0,0,0,1.3-4.32,17,17,0,0,0,.59-4.21q-5.62-5.15-7-.79c-3.39,5.42.32,13.08-.95,19-.15.72-1.18.4-1.08-.3.91-6.36-2.12-13.06.66-19.21,1.05-2.3,3.61-5.51,6.54-4.54,4.12,1.34,3.34,7.31,2.62,10.43-1.28,5.55-3.56,10.66-7.87,14.46a.42.42,0,0,1-.6-.59Z"/><path class="cls-3" d="M140.5,298.65c-5.27,1.45-10.92.48-16.14-1.17-2.78-.88-5.8-2.24-6.84-5a3.3,3.3,0,0,1-.17-2,3.58,3.58,0,0,1,2.48-2.17c3.85-1.32,8.07.53,11.4,2.87s5.39,4.89,9.26,6.15"/><path class="cls-3" d="M140.62,299.06c-5.84,1.76-12,.89-17.65-1.29-2.73-1.06-7.36-3.65-6.31-7.37,1-3.41,5.81-3.49,8.51-2.86,6.14,1.45,10,6.91,15.6,9.32.59.25.17,1.23-.43,1-5.48-1.91-10.24-9.24-16.19-9.08q-4.19-1.37-4.8,5.22a8.11,8.11,0,0,0,2.92,1.85,24.84,24.84,0,0,0,4.66,1.58,32.71,32.71,0,0,0,13.46.78.43.43,0,0,1,.23.82Z"/><path class="cls-3" d="M134,283.71c3.78-4,5.6-9.4,6.62-14.77.54-2.87.78-6.17-1.13-8.38a3.28,3.28,0,0,0-1.7-1.11,3.64,3.64,0,0,0-3.09,1.15c-3,2.77-3.36,7.36-2.88,11.4s1.76,7.07,1,11.07"/><path class="cls-3" d="M133.68,283.49a31.37,31.37,0,0,0,5-9.65,39.18,39.18,0,0,0,1.27-5.1c.12-.92.23-1.84.35-2.76q.91-5.85-6.6-2.94c-4.11,5,.64,14.25-.27,20.18-.1.63-1.16.49-1.11-.15.51-6.05-2.46-12.05-.84-18.09.72-2.68,3.14-7,6.61-6.17,4,1,3.84,6.56,3.38,9.59-.9,5.86-2.88,11.39-7.14,15.61-.33.32-1-.13-.66-.52Z"/><path class="cls-3" d="M133.08,284.32c-5.18,1.76-10.88,1.12-16.18-.23-2.83-.71-5.92-1.89-7.12-4.55a3.27,3.27,0,0,1-.29-2,3.63,3.63,0,0,1,2.35-2.32c3.77-1.54,8.08.06,11.55,2.2S129.05,282,133,283"/><path class="cls-3" d="M133.19,284.73c-5.75,2.1-11.92,1.57-17.71-.28-2.83-.9-7.39-3.18-6.7-6.92.61-3.25,5-3.81,7.64-3.53,6.51.7,10.8,6.35,16.72,8.47.67.24.41,1.29-.3,1.09-5.77-1.63-10.48-8.29-16.7-8.11q-4.48-1.17-3.59,6.16a8.56,8.56,0,0,0,2.21,1,26.8,26.8,0,0,0,4.74,1.29,32.69,32.69,0,0,0,13.47,0,.42.42,0,0,1,.22.82Z"/><path class="cls-3" d="M125.45,269.26c3.78-3.95,5.6-9.39,6.62-14.77.54-2.87.78-6.16-1.13-8.37a3.28,3.28,0,0,0-1.7-1.11,3.65,3.65,0,0,0-3.1,1.15c-3,2.77-3.35,7.36-2.87,11.4s1.76,7.07,1,11.07"/><path class="cls-3" d="M125.08,269.05a31.51,31.51,0,0,0,5-9.65,39.18,39.18,0,0,0,1.27-5.1c.11-.92.23-1.84.35-2.76.6-3.91-1.6-4.88-6.6-2.94-4.11,5,.64,14.25-.27,20.18-.1.62-1.16.48-1.11-.15.51-6.05-2.47-12.05-.84-18.09.72-2.68,3.13-7,6.61-6.18,4,1,3.84,6.57,3.38,9.59-.9,5.87-2.88,11.4-7.14,15.61-.33.33-1-.12-.67-.51Z"/><path class="cls-3" d="M124.49,269.88c-5.18,1.76-10.88,1.12-16.19-.23-2.83-.71-5.92-1.89-7.11-4.55a3.2,3.2,0,0,1-.29-2,3.61,3.61,0,0,1,2.34-2.32c3.77-1.54,8.09.06,11.56,2.2s5.66,4.57,9.6,5.6"/><path class="cls-3" d="M124.6,270.28c-5.75,2.11-11.92,1.57-17.71-.27-2.83-.9-7.39-3.18-6.7-6.92.6-3.25,5-3.81,7.64-3.53,6.51.7,10.79,6.34,16.72,8.47a.57.57,0,0,1-.3,1.09c-5.78-1.64-10.49-8.3-16.7-8.12q-4.48-1.15-3.59,6.16a8.21,8.21,0,0,0,2.2,1,27.79,27.79,0,0,0,4.75,1.29,32.86,32.86,0,0,0,13.47,0,.42.42,0,0,1,.22.81Z"/><path class="cls-3" d="M116.71,255.34c3.78-4,5.6-9.39,6.62-14.77.54-2.87.78-6.17-1.13-8.37a3.16,3.16,0,0,0-1.7-1.11,3.61,3.61,0,0,0-3.09,1.15c-3,2.77-3.36,7.36-2.88,11.4s1.76,7.06,1,11.07"/><path class="cls-3" d="M116.35,255.13a31.42,31.42,0,0,0,5-9.66,38.64,38.64,0,0,0,1.27-5.09c.12-.92.23-1.84.35-2.76q.92-5.87-6.6-2.94c-4.11,5,.64,14.25-.27,20.18-.1.62-1.16.48-1.11-.15.51-6.06-2.46-12.06-.84-18.09.72-2.69,3.14-7,6.61-6.18,4,1,3.84,6.57,3.38,9.59-.9,5.87-2.88,11.39-7.14,15.61-.33.33-1-.12-.66-.51Z"/><path class="cls-3" d="M115.75,256c-5.18,1.76-10.88,1.13-16.18-.22-2.83-.72-5.92-1.89-7.12-4.56a3.23,3.23,0,0,1-.29-2,3.63,3.63,0,0,1,2.35-2.32c3.77-1.54,8.08.05,11.55,2.19s5.66,4.58,9.6,5.61"/><path class="cls-3" d="M115.86,256.36c-5.75,2.11-11.92,1.57-17.71-.27-2.83-.9-7.39-3.19-6.7-6.92.61-3.26,5-3.81,7.64-3.53,6.51.7,10.8,6.34,16.72,8.47a.56.56,0,0,1-.3,1.08c-5.77-1.63-10.48-8.29-16.69-8.11q-4.5-1.16-3.6,6.16a8.25,8.25,0,0,0,2.21,1,26.82,26.82,0,0,0,4.74,1.3,32.86,32.86,0,0,0,13.47,0,.42.42,0,0,1,.22.81Z"/><path class="cls-3" d="M106.81,240.39c3.15-4.14,4.29-9.47,4.68-14.65.21-2.77.08-5.91-2-7.79a3,3,0,0,0-1.72-.86A3.44,3.44,0,0,0,105,218.5c-2.52,2.94-2.39,7.3-1.51,11.07s2.41,6.48,2.15,10.34"/><path class="cls-3" d="M106.45,240.17a33.22,33.22,0,0,0,4.38-15.63,13,13,0,0,0-.3-3.41q-5.1-4-6.11-.18c-3.42,5.11,2,13.37,1.81,19a.57.57,0,0,1-1.13,0c-.18-5.79-3.63-11.13-2.7-17,.44-2.77,2.5-7.31,6.06-6.35s3.89,5.68,3.79,8.59c-.2,5.67-1.56,11.09-5.14,15.54-.3.38-.9-.1-.66-.51Z"/><path class="cls-3" d="M106,241.06c-4.7,2.22-10.15,2.22-15.3,1.51-2.75-.38-5.79-1.16-7.2-3.54a3.07,3.07,0,0,1-.49-1.87,3.47,3.47,0,0,1,2-2.44c3.4-1.85,7.64-.8,11.14.85s5.83,3.72,9.66,4.27"/><path class="cls-3" d="M106.18,241.43c-5,2.5-10.25,2.69-15.7,1.84-3-.47-8-1.75-8.16-5.63C82.15,234,87,233,89.76,233.1c6,.32,10.46,4.85,16.14,6.2.71.17.4,1.2-.3,1.09a20.37,20.37,0,0,1-6.83-2.63c-3-1.68-10.1-5.56-13.47-2.43-5.36,5,5.9,6.67,8.49,6.83a31.26,31.26,0,0,0,12.07-1.5.42.42,0,0,1,.32.77Z"/><path class="cls-3" d="M95.67,226.58c3-4,4.09-9,4.46-14,.2-2.64.08-5.64-1.86-7.43a3,3,0,0,0-1.65-.83A3.31,3.31,0,0,0,94,205.68c-2.41,2.8-2.28,7-1.43,10.57s2.3,6.19,2,9.87"/><path class="cls-3" d="M95.3,226.36a29.64,29.64,0,0,0,3.56-9.51,30.49,30.49,0,0,0,.61-5.41,12.18,12.18,0,0,0-.28-3.24q-4.83-3.82-5.78-.17c-3.27,4.87,2,12.76,1.72,18.09a.56.56,0,0,1-1.12,0c-.18-5.53-3.48-10.63-2.59-16.25.42-2.66,2.41-7,5.83-6.08s3.74,5.44,3.64,8.23c-.19,5.42-1.48,10.6-4.93,14.85-.3.38-.9-.1-.66-.51Z"/><path class="cls-3" d="M94.86,227.22c-4.49,2.11-9.69,2.12-14.61,1.44-2.62-.36-5.53-1.1-6.87-3.38a2.92,2.92,0,0,1-.47-1.78,3.33,3.33,0,0,1,1.88-2.33c3.25-1.77,7.3-.77,10.64.81s5.56,3.55,9.22,4.08"/><path class="cls-3" d="M95.08,227.59c-4.74,2.41-9.81,2.59-15,1.77-2.89-.45-7.64-1.68-7.81-5.4-.16-3.5,4.45-4.52,7.14-4.37,5.73.31,10,4.62,15.41,5.93.72.17.4,1.19-.3,1.08A19.18,19.18,0,0,1,88,224.09c-2.88-1.59-9.63-5.29-12.83-2.32-5.06,4.72,5.64,6.31,8.09,6.47a30.38,30.38,0,0,0,11.52-1.42.42.42,0,0,1,.33.77Z"/><path class="cls-3" d="M85.35,213.82c2.83-3.71,3.86-8.49,4.21-13.15.18-2.48.07-5.3-1.76-7a2.74,2.74,0,0,0-1.55-.78,3.1,3.1,0,0,0-2.51,1.27c-2.26,2.63-2.14,6.56-1.35,9.94s2.17,5.82,1.93,9.29"/><path class="cls-3" d="M85,213.61a28.56,28.56,0,0,0,3.33-8.94,27.83,27.83,0,0,0,.57-5.08,11.51,11.51,0,0,0-.26-3q-4.48-3.56-5.36-.15c-3.08,4.55,1.85,12,1.62,17a.57.57,0,0,1-1.13,0c-.18-5.21-3.28-10-2.44-15.3.4-2.52,2.3-6.65,5.54-5.75,7.86,2.17,1.78,18.12-1.21,21.77-.31.38-.9-.1-.66-.51Z"/><path class="cls-3" d="M84.6,214.43c-4.23,2-9.12,2-13.74,1.36-2.47-.34-5.21-1-6.47-3.19a2.77,2.77,0,0,1-.44-1.67,3.11,3.11,0,0,1,1.77-2.19c3-1.66,6.86-.72,10,.76s5.24,3.34,8.68,3.84"/><path class="cls-3" d="M84.81,214.8c-4.46,2.29-9.23,2.46-14.15,1.69-2.74-.43-7.21-1.61-7.38-5.13-.15-3.32,4.21-4.29,6.76-4.15,5.4.29,9.41,4.35,14.51,5.59.71.17.4,1.19-.3,1.08a18,18,0,0,1-6.16-2.36c-2.69-1.48-9-5-12-2.18-4.69,4.39,5.31,5.86,7.59,6A29,29,0,0,0,84.49,214a.42.42,0,0,1,.32.77Z"/><path class="cls-3" d="M75.68,203.34C78.11,200.14,79,196,79.3,192c.16-2.14.06-4.58-1.51-6a2.35,2.35,0,0,0-1.34-.67,2.63,2.63,0,0,0-2.16,1.09c-2,2.27-1.85,5.66-1.17,8.58s1.87,5,1.67,8"/><path class="cls-3" d="M75.31,203.13a25.81,25.81,0,0,0,2.83-7.71,25.42,25.42,0,0,0,.49-4.35,9.88,9.88,0,0,0-.23-2.6q-3.7-3-4.43-.12c-2.66,3.88,1.61,10.35,1.38,14.63a.57.57,0,0,1-1.13,0c-.18-4.5-2.84-8.65-2.11-13.22.35-2.24,2-5.82,4.89-5,6.88,1.9,1.64,15.73-1,18.91-.31.38-.89-.1-.66-.51Z"/><path class="cls-3" d="M75,203.87c-3.65,1.71-7.87,1.71-11.86,1.17-2.13-.3-4.48-.9-5.58-2.75a2.33,2.33,0,0,1-.37-1.44A2.65,2.65,0,0,1,58.74,199c2.63-1.44,5.92-.63,8.63.65s4.52,2.88,7.48,3.31"/><path class="cls-3" d="M75.24,204.23c-3.86,2.05-8,2.18-12.26,1.51-2.42-.38-6.3-1.43-6.43-4.52-.13-2.92,3.66-3.8,5.92-3.67,4.66.24,8.14,3.73,12.53,4.83.72.18.4,1.19-.3,1.09a15.22,15.22,0,0,1-5.33-2c-2.28-1.26-7.75-4.27-10.28-1.88-3.87,3.67,4.6,4.87,6.5,5a25.58,25.58,0,0,0,9.32-1.1.42.42,0,0,1,.33.77Z"/><path class="cls-3" d="M74.24,201.61A53.28,53.28,0,0,0,65.3,188c-1.61-1.79-3.57-3.57-6-3.7a1.8,1.8,0,0,0-1,.17,1.42,1.42,0,0,0-.63,1.17A3.46,3.46,0,0,0,58,187a19,19,0,0,0,5.93,7.92,55.84,55.84,0,0,0,8.4,5.44l1.2.69"/><path class="cls-3" d="M74.14,201.71c-2.11-2.09-3.35-4.81-5-7.24-1.31-1.93-5.47-8.63-8.28-8.69-.76-.65-1.15-.42-1.16.67-.5.55-.51,1-.05,1.47A7.64,7.64,0,0,0,61,189.71a27.9,27.9,0,0,0,3.94,4.19c2.83,2.36,6.93,3.65,9.21,6.51a.89.89,0,0,1-.86,1.48c-4.78-.65-10.52-5.45-13.55-9.1-1.4-1.68-4.88-7.25-2-9.11,3.33-2.16,7.68,2.85,9.45,5,3,3.62,6.79,8.1,7.23,13a.14.14,0,0,1-.24.1Z"/><path class="cls-3" d="M174.25,402.7c-11.81-60.65-35.67-117.86-73-167.31-10.7-14.18-22.54-27.23-34.57-40.27a.38.38,0,0,1,.53-.53c22.35,20.7,41.17,45.95,57,71.88a391.88,391.88,0,0,1,38.54,84.21,338.08,338.08,0,0,1,12.42,51.77c.09.58-.78.85-.9.25Z"/><path class="cls-3" d="M152,351.64c4-3.78,6-9.12,7.3-14.45.67-2.84,1.06-6.12-.75-8.42a3.23,3.23,0,0,0-1.64-1.18,3.6,3.6,0,0,0-3.14,1c-3.11,2.64-3.7,7.2-3.4,11.26s1.43,7.14.52,11.11"/><path class="cls-3" d="M151.74,351.34a34,34,0,0,0,7.14-15.72,10.55,10.55,0,0,0,.3-2.85q-5.93-5.36-7.34-.06c-2.28,6,.9,12.29-.37,18.4-.13.62-1.19.47-1.11-.16.81-5.83-1.68-11.64-.19-17.45.73-2.84,3.31-7.48,7-6.59,4.3,1,3.57,7.47,2.9,10.48-1.25,5.56-3.41,10.7-7.7,14.55a.42.42,0,0,1-.6-.6Z"/><path class="cls-3" d="M151.05,352.21c-5.25,1.52-10.92.61-16.15-1-2.8-.85-5.83-2.17-6.9-4.89a3.17,3.17,0,0,1-.2-2,3.61,3.61,0,0,1,2.45-2.21c3.84-1.36,8.08.43,11.44,2.73s5.45,4.83,9.33,6"/><path class="cls-3" d="M151.16,352.62c-5.81,1.85-12,1-17.67-1.08-2.83-1.06-7.39-3.61-6.37-7.4,1-3.63,6.51-3.46,9.22-2.68,5.73,1.65,9.41,6.7,14.84,8.9.65.27.39,1.31-.31,1.08-5.93-1.93-9.69-7.8-16-8.86a7.12,7.12,0,0,0-3.28-.1q-4.38,4.81.12,6.71a21.78,21.78,0,0,0,5.55,1.94,32.61,32.61,0,0,0,13.69.67.42.42,0,0,1,.21.82Z"/><path class="cls-3" d="M143.17,336.1c3.59-4.12,5.17-9.64,5.94-15.05.41-2.89.5-6.2-1.51-8.32a3.25,3.25,0,0,0-1.75-1,3.62,3.62,0,0,0-3,1.29c-2.86,2.9-3,7.5-2.36,11.52s2.08,7,1.53,11"/><path class="cls-3" d="M142.8,335.89a31.34,31.34,0,0,0,4.52-9.65,33.17,33.17,0,0,0,1.24-6.68c.18-3.39-1.54-9.42-5.9-5.18-5.09,4.94.59,15.11-.1,21.15-.08.7-1.16.72-1.13,0,.27-5.89-2.75-11.44-1.77-17.37.47-2.87,2.66-7.8,6.39-7.12,4.33.8,4.17,7.09,3.76,10.22-.75,5.67-2.42,10.93-6.35,15.16-.32.35-.94-.12-.66-.51Z"/><path class="cls-3" d="M142.24,336.76c-5.1,2-10.82,1.61-16.18.5-2.86-.59-6-1.62-7.32-4.23a3.22,3.22,0,0,1-.38-2,3.62,3.62,0,0,1,2.24-2.42c3.7-1.71,8.08-.31,11.64,1.67s5.86,4.32,9.84,5.17"/><path class="cls-3" d="M142.45,337.12c-5.37,2.27-11,2.1-16.59.84-3.14-.7-8.23-2.37-8.19-6.42,0-3.85,5.2-4.64,8.15-4.27,6.23.8,10.59,5.84,16.42,7.65a.56.56,0,0,1-.31,1.08c-5.78-1.36-12.49-9.3-18.69-7.31q-4.23-.1-1.6,6.3a13.71,13.71,0,0,0,3.38,1.29,33.22,33.22,0,0,0,5.49,1,31.82,31.82,0,0,0,11.62-.89c.44-.12.76.58.32.77Z"/><path class="cls-3" d="M132.66,320.71c3.29-4.38,4.45-10,4.82-15.46.2-2.91,0-6.21-2.11-8.18a3.31,3.31,0,0,0-1.82-.9,3.65,3.65,0,0,0-2.94,1.51c-2.63,3.11-2.46,7.71-1.5,11.66s2.59,6.81,2.34,10.87"/><path class="cls-3" d="M132.3,320.49A31.64,31.64,0,0,0,136,311a34.83,34.83,0,0,0,.77-5.76,17.79,17.79,0,0,0-.15-4.25q-5.54-5-6.64-.73c-3.56,5.42,2.24,14.06,2,20a.56.56,0,0,1-1.12,0c-.22-6.1-3.9-11.68-3-17.88.43-2.88,2.57-7.7,6.3-6.69,4.16,1.14,4.17,7.06,3.92,10.37-.42,5.53-1.7,10.61-5.19,15-.3.38-.9-.12-.66-.52Z"/><path class="cls-3" d="M131.78,321.43c-4.93,2.36-10.67,2.4-16.09,1.7-2.9-.38-6.11-1.18-7.61-3.68a3.22,3.22,0,0,1-.53-2,3.64,3.64,0,0,1,2.06-2.58c3.56-2,8-.91,11.73.81s6.16,3.87,10.2,4.42"/><path class="cls-3" d="M132,321.79c-5.5,2.8-11.74,3-17.76,1.84-2.85-.57-7.74-2.33-7.38-6.16.33-3.5,5.13-4.42,7.91-4.29,6.25.3,11,5.06,16.93,6.42.72.17.39,1.2-.31,1.09-6-1-14.17-9.08-20.27-5.59-8.38,4.79,4.93,7.45,7.87,7.61a32.77,32.77,0,0,0,12.7-1.69c.45-.16.74.56.31.77Z"/><path class="cls-3" d="M121.91,306.63c3.12-4.49,4.09-10.15,4.26-15.61.09-2.92-.18-6.22-2.41-8.11a3.24,3.24,0,0,0-1.85-.83,3.66,3.66,0,0,0-2.88,1.61c-2.52,3.2-2.18,7.79-1.08,11.71s2.83,6.71,2.73,10.78"/><path class="cls-3" d="M121.54,306.42a31.43,31.43,0,0,0,3.35-9.63,35,35,0,0,0,.55-5.79,17.75,17.75,0,0,0-.3-4.24q-5.73-4.78-6.67-.44c-3.32,5.52,2.76,14,2.77,19.87,0,.73-1.07.7-1.12,0-.44-6.08-4.32-11.53-3.6-17.75.32-2.76,2-7.36,5.58-7,4.32.42,4.84,6.43,4.8,9.63-.08,5.69-1.21,11.18-4.63,15.82a.42.42,0,0,1-.73-.43Z"/><path class="cls-3" d="M121.06,307.38c-4.85,2.54-10.58,2.79-16,2.28-2.91-.28-6.14-1-7.74-3.41a3.22,3.22,0,0,1-.59-1.94,3.62,3.62,0,0,1,2-2.65c3.49-2.1,8-1.19,11.75.39s6.3,3.65,10.35,4.06"/><path class="cls-3" d="M121.27,307.75c-5.35,3-11.51,3.42-17.51,2.49-2.93-.46-7.9-2-7.76-5.84.13-3.55,4.92-4.67,7.69-4.63,6.31.09,11.21,4.64,17.23,5.8.62.12.47,1.18-.17,1.1-6.9-.84-12.57-7.06-19.79-5-2.66.12-3.46,1.78-2.38,5a9.1,9.1,0,0,0,4.12,1.9,27.33,27.33,0,0,0,5.63.53A32.71,32.71,0,0,0,121,307c.45-.17.72.55.32.78Z"/><path class="cls-3" d="M110.34,292.17c3-4.61,3.69-10.3,3.65-15.77,0-2.92-.43-6.2-2.72-8a3.28,3.28,0,0,0-1.89-.76,3.65,3.65,0,0,0-2.81,1.72c-2.39,3.3-1.87,7.87-.62,11.75s3.09,6.59,3.15,10.66"/><path class="cls-3" d="M110,292a31.67,31.67,0,0,0,3.1-11.07,35.65,35.65,0,0,0,.18-4.5,17.21,17.21,0,0,0-.47-4.23q-6.75-3.59-7,1c-1.93,6.09,3.58,12.58,3.83,18.64,0,.74-1,.68-1.12,0-.72-6.38-5.32-12.11-4.16-18.76.43-2.49,2.11-6.23,5.2-6,4.32.28,5,6.25,5.14,9.45.14,5.7-.78,11.22-4,16A.42.42,0,0,1,110,292Z"/><path class="cls-3" d="M109.52,293c-4.75,2.72-10.46,3.19-15.93,2.9-2.91-.16-6.17-.72-7.86-3.1a3.22,3.22,0,0,1-.67-1.92,3.64,3.64,0,0,1,1.86-2.73c3.4-2.23,7.94-1.5,11.75-.07s6.44,3.4,10.51,3.65"/><path class="cls-3" d="M109.73,293.32c-5.21,3.16-11.4,3.87-17.41,3.16-2.91-.34-8-1.7-7.95-5.56.07-3.53,4.76-4.83,7.53-4.89,6.3-.13,11.37,4.2,17.43,5.12.63.1.47,1.16-.16,1.11-5.78-.48-12.22-6.39-17.94-4.75q-4.4-.28-3.35,6.26a8.27,8.27,0,0,0,3.29,1.06,25.2,25.2,0,0,0,4.91.36,32.64,32.64,0,0,0,13.23-2.6.42.42,0,0,1,.42.73Z"/><path class="cls-3" d="M99.53,280.1c2.67-4.78,3.08-10.5,2.72-16-.2-2.91-.79-6.16-3.19-7.82a3.24,3.24,0,0,0-1.92-.65,3.62,3.62,0,0,0-2.71,1.88c-2.2,3.43-1.41,8,.06,11.76s3.47,6.4,3.77,10.46"/><path class="cls-3" d="M99.12,280a31.5,31.5,0,0,0,2.44-10.61,38.33,38.33,0,0,0,0-5.25c-.12-.92-.23-1.84-.35-2.76q-.58-5.9-7.12-1.2c-2.73,5.9,4.17,13.64,4.77,19.61.07.63-1,.76-1.1.13-1-6-5.41-11.05-5.34-17.3,0-2.78,1.28-7.59,4.86-7.63,4.07,0,5.35,5.39,5.66,8.44.6,5.9.06,11.75-3,16.9-.24.39-1,.12-.77-.33Z"/><path class="cls-3" d="M98.75,280.93c-4.58,3-10.25,3.81-15.73,3.83-2.92,0-6.2-.35-8-2.63a3.25,3.25,0,0,1-.78-1.88,3.67,3.67,0,0,1,1.69-2.83c3.27-2.43,7.85-2,11.74-.76s6.63,3,10.7,3"/><path class="cls-3" d="M99,281.3c-5,3.47-11.15,4.5-17.22,4.16-3-.16-7.95-1.24-8.21-5-.23-3.3,3.92-4.94,6.51-5.32,6.48-1,12,3.44,18.31,4a.57.57,0,0,1,0,1.13c-6-.14-12.23-5.41-18.2-3.69q-4.63,0-1.93,6.86a8.09,8.09,0,0,0,2.39.45,26.08,26.08,0,0,0,4.92.07,32.77,32.77,0,0,0,13-3.38.42.42,0,0,1,.42.73Z"/><path class="cls-3" d="M87.6,268.26c2.67-4.77,3.08-10.49,2.72-15.95-.19-2.92-.79-6.17-3.19-7.83a3.24,3.24,0,0,0-1.92-.65,3.61,3.61,0,0,0-2.71,1.89c-2.2,3.43-1.41,8,.06,11.76s3.47,6.4,3.77,10.46"/><path class="cls-3" d="M87.19,268.15a31.5,31.5,0,0,0,2.44-10.6,38.48,38.48,0,0,0,0-5.26c-.12-.92-.23-1.84-.35-2.76q-.58-5.9-7.12-1.19C79.4,254.24,86.29,262,86.9,268c.06.62-1,.75-1.11.13-1-6-5.4-11.06-5.34-17.31,0-2.78,1.28-7.59,4.86-7.63,4.07,0,5.35,5.4,5.66,8.44.61,5.9.06,11.75-3,16.9-.23.39-1,.12-.77-.33Z"/><path class="cls-3" d="M86.82,269.09c-4.57,3-10.25,3.81-15.72,3.83-2.92,0-6.21-.35-8-2.63a3.25,3.25,0,0,1-.78-1.87,3.67,3.67,0,0,1,1.7-2.84c3.26-2.43,7.84-2,11.73-.75s6.63,3,10.7,3"/><path class="cls-3" d="M87,269.46c-5,3.48-11.15,4.5-17.21,4.16-3-.16-8-1.23-8.22-5-.23-3.3,3.92-4.94,6.51-5.32,6.48-.95,12,3.44,18.31,4a.57.57,0,0,1,0,1.13c-6-.14-12.22-5.41-18.19-3.69q-4.65,0-1.94,6.87a8.09,8.09,0,0,0,2.39.45,27,27,0,0,0,4.92.06,32.61,32.61,0,0,0,13-3.38.42.42,0,0,1,.42.73Z"/><path class="cls-3" d="M75.66,257c2.67-4.78,3.08-10.5,2.72-16-.19-2.91-.79-6.17-3.19-7.83a3.29,3.29,0,0,0-1.92-.65,3.66,3.66,0,0,0-2.71,1.89c-2.19,3.43-1.41,8,.07,11.76s3.47,6.4,3.76,10.46"/><path class="cls-3" d="M75.25,256.85a31.46,31.46,0,0,0,2.45-10.6,40,40,0,0,0,0-5.25c-.11-.92-.23-1.85-.35-2.77q-.58-5.89-7.12-1.19c-2.72,5.9,4.18,13.64,4.78,19.61.06.62-1,.75-1.11.13-1-6-5.4-11.06-5.34-17.31,0-2.78,1.28-7.58,4.86-7.63,4.07-.05,5.36,5.4,5.67,8.44.6,5.91,0,11.75-3,16.9-.23.4-1,.12-.77-.33Z"/><path class="cls-3" d="M74.88,257.8c-4.57,3-10.25,3.8-15.72,3.82-2.92,0-6.21-.35-8-2.63a3.3,3.3,0,0,1-.79-1.87,3.65,3.65,0,0,1,1.7-2.83c3.26-2.43,7.84-2,11.73-.76s6.63,3,10.7,3"/><path class="cls-3" d="M75.1,258.16c-5,3.48-11.16,4.5-17.22,4.17-3-.17-8-1.24-8.22-5-.23-3.3,3.92-5,6.51-5.33,6.48-.95,12,3.45,18.31,4a.56.56,0,0,1,0,1.12c-6-.14-12.22-5.41-18.19-3.68q-4.64,0-1.94,6.86a8.09,8.09,0,0,0,2.39.45,27.87,27.87,0,0,0,4.92.07,32.79,32.79,0,0,0,13-3.39.42.42,0,0,1,.43.73Z"/><path class="cls-3" d="M62.34,245c2-4.8,1.79-10.24.87-15.35-.49-2.73-1.4-5.74-3.84-7.05a3.06,3.06,0,0,0-1.88-.41,3.43,3.43,0,0,0-2.36,2.07c-1.71,3.47-.49,7.66,1.31,11.09s4,5.67,4.67,9.47"/><path class="cls-3" d="M61.93,244.84a30.72,30.72,0,0,0,1.14-10.58,31.78,31.78,0,0,0-.8-5.65,13.21,13.21,0,0,0-1.14-3.23q-6-2.64-6,1.36c-2,5.8,5.31,12.43,6.48,17.9a.56.56,0,0,1-1.09.28c-1.62-5.56-6.3-9.86-6.86-15.79-.27-2.8.59-7.71,4.28-7.66s5.19,4.53,5.81,7.36C65,234.37,65.06,240,62.7,245.17c-.2.44-.9.12-.77-.33Z"/><path class="cls-3" d="M61.69,245.82c-4,3.32-9.27,4.68-14.44,5.29-2.75.32-5.89.32-7.86-1.64a3.07,3.07,0,0,1-.93-1.68,3.43,3.43,0,0,1,1.29-2.85c2.83-2.65,7.2-2.69,11-2s6.58,2.15,10.42,1.73"/><path class="cls-3" d="M62,246.12c-4.18,3.66-9.26,5.17-14.75,5.71-3,.3-8.16.3-9.3-3.41-1.08-3.49,3.32-5.7,6.07-6.26,5.89-1.18,11.34,2.08,17.17,2,.74,0,.69,1.06,0,1.12a20.08,20.08,0,0,1-7.27-.84c-3.35-.86-11.17-2.85-13.64,1-4,6.16,7.37,5,9.92,4.5a31.24,31.24,0,0,0,11.31-4.47c.4-.26.87.35.51.66Z"/><path class="cls-3" d="M48.09,234.37c1.93-4.58,1.71-9.77.84-14.66-.47-2.6-1.34-5.48-3.67-6.73a3,3,0,0,0-1.8-.39,3.33,3.33,0,0,0-2.25,2c-1.63,3.31-.46,7.32,1.25,10.59s3.78,5.41,4.46,9"/><path class="cls-3" d="M47.69,234.25a29.62,29.62,0,0,0,1.07-10.09,29.9,29.9,0,0,0-.76-5.39,12.56,12.56,0,0,0-1.09-3.08c-3.75-1.66-5.63-1.24-5.63,1.29-2,5.52,5.08,11.86,6.19,17.08a.56.56,0,0,1-1.09.28c-1.56-5.31-6-9.42-6.57-15.08-.25-2.69.59-7.39,4.13-7.35s5,4.33,5.58,7.06c1.16,5.3,1.21,10.64-1.06,15.61-.2.45-.9.13-.77-.33Z"/><path class="cls-3" d="M47.48,235.2c-3.82,3.16-8.86,4.47-13.79,5-2.63.31-5.63.31-7.5-1.56a3,3,0,0,1-.9-1.61,3.32,3.32,0,0,1,1.24-2.72c2.7-2.52,6.87-2.57,10.5-1.87s6.28,2,9.95,1.64"/><path class="cls-3" d="M47.78,235.5c-4,3.51-8.85,4.95-14.1,5.47-2.91.28-7.82.27-8.91-3.29-1-3.35,3.18-5.48,5.82-6,5.62-1.13,10.83,2,16.4,1.89.74,0,.69,1.06,0,1.13a19.22,19.22,0,0,1-6.95-.8c-3.18-.82-10.65-2.72-13,1-3.72,5.83,7,4.71,9.45,4.25a30.15,30.15,0,0,0,10.8-4.26.43.43,0,0,1,.51.67Z"/><path class="cls-3" d="M34.92,224.6c1.81-4.3,1.61-9.19.79-13.79-.44-2.45-1.26-5.15-3.45-6.33a2.74,2.74,0,0,0-1.69-.37A3.1,3.1,0,0,0,28.45,206c-1.53,3.12-.44,6.89,1.18,10s3.55,5.1,4.19,8.51"/><path class="cls-3" d="M34.52,224.48a28.65,28.65,0,0,0,1-9.49,28.17,28.17,0,0,0-.72-5.06,11.88,11.88,0,0,0-1-2.88c-3.48-1.55-5.23-1.15-5.22,1.19-1.85,5.18,4.78,11.16,5.81,16.06a.56.56,0,0,1-1.09.28c-1.48-5-5.68-8.87-6.19-14.2-.24-2.54.57-7,3.92-6.95,8.17.14,6.26,17.1,4.28,21.38-.21.45-.9.12-.77-.33Z"/><path class="cls-3" d="M34.35,225.38c-3.6,3-8.34,4.2-13,4.74-2.48.29-5.3.29-7.06-1.46a2.75,2.75,0,0,1-.84-1.52,3.11,3.11,0,0,1,1.16-2.56c2.54-2.37,6.47-2.41,9.88-1.76s5.9,1.92,9.36,1.55"/><path class="cls-3" d="M34.64,225.68c-3.74,3.33-8.32,4.69-13.28,5.17-2.76.27-7.38.25-8.42-3.12-1-3.18,3-5.2,5.51-5.71,5.29-1.07,10.19,1.86,15.44,1.78.73,0,.68,1.06,0,1.13a17.91,17.91,0,0,1-6.55-.75c-3-.76-10-2.55-12.19.9-3.44,5.42,6.6,4.34,8.85,3.92a28.89,28.89,0,0,0,10.16-4,.42.42,0,0,1,.5.67Z"/><path class="cls-3" d="M22.93,216.87c1.56-3.71,1.39-7.93.68-11.89-.38-2.12-1.08-4.45-3-5.46a2.36,2.36,0,0,0-1.46-.32,2.68,2.68,0,0,0-1.83,1.6c-1.32,2.69-.37,5.94,1,8.59s3.06,4.4,3.61,7.34"/><path class="cls-3" d="M22.53,216.75a25.57,25.57,0,0,0,.81-8.17,23.77,23.77,0,0,0-.62-4.34,9.6,9.6,0,0,0-.86-2.46q-4.34-1.93-4.32,1c-1.61,4.41,4.14,9.62,5,13.81a.56.56,0,0,1-1.09.28c-1.31-4.3-4.92-7.65-5.35-12.26-.22-2.26.52-6.15,3.47-6.1,7.14.12,5.53,14.83,3.74,18.57-.21.44-.89.12-.77-.33Z"/><path class="cls-3" d="M22.44,217.54c-3.11,2.57-7.19,3.62-11.19,4.09-2.13.25-4.57.25-6.09-1.26a2.38,2.38,0,0,1-.72-1.31,2.7,2.7,0,0,1,1-2.21c2.19-2,5.58-2.08,8.52-1.52S19.05,217,22,216.67"/><path class="cls-3" d="M22.73,217.84c-3.22,2.94-7.18,4.1-11.49,4.52-2.44.23-6.46.19-7.36-2.77-.85-2.79,2.6-4.59,4.82-5,4.57-.92,8.81,1.59,13.34,1.56.74,0,.68,1,0,1.12a15.32,15.32,0,0,1-5.67-.63c-2.52-.65-8.57-2.2-10.42.75-2.83,4.52,5.67,3.57,7.54,3.21a25.6,25.6,0,0,0,8.76-3.39.42.42,0,0,1,.5.67Z"/><path class="cls-3" d="M21.11,215.55a53.37,53.37,0,0,0-12-10.94c-2-1.32-4.35-2.56-6.71-2.09a1.88,1.88,0,0,0-.94.42,1.45,1.45,0,0,0-.31,1.29,3.44,3.44,0,0,0,.6,1.23,19.07,19.07,0,0,0,7.73,6.19,56.84,56.84,0,0,0,9.49,3.17l1.33.36"/><path class="cls-3" d="M21,215.67c-2.57-1.5-4.44-3.82-6.65-5.76-1.75-1.54-7.45-7-10.18-6.35-.91-.43-1.23-.12-1,.94-.35.66-.24,1.14.31,1.44a7.7,7.7,0,0,0,1.74,1.4,27.07,27.07,0,0,0,4.86,3.07c3.33,1.58,7.63,1.8,10.55,4a.9.9,0,0,1-.47,1.66c-4.79.56-11.54-2.66-15.39-5.43-1.78-1.29-6.54-5.81-4.23-8.32,2.68-2.92,8.15.84,10.38,2.44,3.85,2.75,8.61,6.14,10.25,10.75a.14.14,0,0,1-.21.16Z"/><path class="cls-3" d="M168.19,385.27c-26.59-55.77-64-105.21-112.49-143.76-13.9-11.06-28.63-20.73-43.53-30.35a.38.38,0,0,1,.38-.65C39.36,225,63.89,244.72,85.69,265.87A392.47,392.47,0,0,1,144,337.78a339,339,0,0,1,25,47c.24.55-.55,1-.81.47Z"/><path class="cls-4" d="M628.57,209c6.88-17.28,4.9-35.08,6.64-53.18a175.76,175.76,0,0,1,11.36-47.36,129.6,129.6,0,0,0-8.82,19.5c-6.33,17.9-6.91,36.66-10.42,55.15-3.42,18-11.92,33.52-20.73,49.35-9.08,16.31-16.45,33.22-20.9,51.4q-1.46,6-2.52,12c4.89-14.83,12.21-28.75,20.13-42.19C612,239,622.23,225,628.57,209Z"/><path class="cls-4" d="M582.74,345.11c-1.72-17.13,1.61-34.72,8.17-50.6,7.25-17.56,19.4-30.57,31.41-44.92a122.93,122.93,0,0,0,26.07-53c4-18.56,2.9-37.58,2.93-56.43,0-17.63,1.24-35.44,8.73-51.42a132,132,0,0,0-10.36,14.44,189.44,189.44,0,0,0-12.24,47.27c-2.06,16.79.17,34.14-4.12,50.61-4,15.17-12.29,28.67-20.32,42-9.2,15.24-18.44,30.49-24.86,47.16a125.72,125.72,0,0,0-7.43,28c-.08.57-.14,1.14-.21,1.71a194.12,194.12,0,0,0,.6,26.74l1.65-1.5S582.74,345.13,582.74,345.11Z"/><path class="cls-4" d="M642.28,374.67a114.54,114.54,0,0,0-12-78.08c-4.9-8.79-10.94-16.89-15.92-25.63a122.76,122.76,0,0,1-16-62.66c.67-35.4,16.42-72.32,2.59-104.91a129.69,129.69,0,0,1,22.2,65c1,17.3-1.42,34.8,1.2,51.94,2.76,18.06,11,34.75,16.68,52.13a189.48,189.48,0,0,1,3.47,105"/><path class="cls-5" d="M642.23,374.67c2.75-19.18,2.19-38.41-3.81-56.94a119.87,119.87,0,0,0-12-26c-4.81-7.82-10.18-15.3-14.5-23.41a123.56,123.56,0,0,1-14.17-49.89c-1.14-17.83,2.2-35.43,5-53,3.25-20.62,5.65-42-2.46-61.82-.33-.82.86-1.58,1.38-.8a133.09,133.09,0,0,1,19.68,45.71c4.14,18.89,2.3,37.69,2.79,56.82.52,20.12,7.45,38,14.36,56.61a199.52,199.52,0,0,1,12.29,53.66,192.44,192.44,0,0,1-5.19,61.88c-.32,1.27-2.36,1-2-.28A191.12,191.12,0,0,0,638.13,267c-6-16.78-13.42-33.22-15.26-51.12-1.91-18.49,1-37.11-1.31-55.59a129.74,129.74,0,0,0-21.22-56.39l1.38-.79c14,34.08-1.83,70.41-2.44,105.34a122,122,0,0,0,13.12,57c8.65,17.09,21.12,31.54,27.1,50,6.12,18.91,7.73,39.87,2.83,59.22a.05.05,0,0,1-.1,0Z"/><path class="cls-5" d="M611.69,120.69A176.83,176.83,0,0,1,618.84,170c0,18.08-5.39,36.36-3.21,54.36,2.13,17.53,10.21,33.47,16.94,49.54,6.62,15.81,12.76,31.95,16.06,48.83A124.12,124.12,0,0,1,651,350.38c-.28,9.38-1.35,20.27-6.11,28.57-.31.56-1.28.42-1.16-.31,1.4-8.4,3.83-16.4,4.39-25a116.78,116.78,0,0,0-1.57-27c-3-17.62-9.35-34.45-16.23-50.87-6.14-14.67-12.92-29.43-15.75-45.18-3-16.83,1.19-33.07,2.29-49.84a188.76,188.76,0,0,0-5.9-59.91c-.11-.41.6-.6.72-.19Z"/><path class="cls-6" d="M345,215.75l-21.86-14.5a8.86,8.86,0,0,0-12.25,2.47l-7.94,12A8.86,8.86,0,0,0,305.46,228l5,3.31c1.23,5.26,1.42,9.16,2.56,9.91s5.37-.78,10.12-1.5l4.19,2.78A8.86,8.86,0,0,0,339.57,240l7.95-12A8.86,8.86,0,0,0,345,215.75Z"/><path class="cls-2" d="M320.9,229.11a1,1,0,0,1-.44-.68l-1.77-7.59c0-.05,0-.18-.07-.36a6.94,6.94,0,0,1-.08-.84,9.32,9.32,0,0,1,0-1.18,6.54,6.54,0,0,1,.25-1.33,4.76,4.76,0,0,1,.61-1.35,5.84,5.84,0,0,1,3.27-2.59,4.74,4.74,0,0,1,3.68.85,4.32,4.32,0,0,1,1,.91,5.08,5.08,0,0,1,.66,1.18,10.83,10.83,0,0,1,.38,1.06,4.6,4.6,0,0,1,.13.5l.52-.07a9.29,9.29,0,0,1,1.13-.06,5.15,5.15,0,0,1,1.34.15,4.15,4.15,0,0,1,1.21.53,4.74,4.74,0,0,1,2.21,3.06,5.89,5.89,0,0,1-1.11,4,6.86,6.86,0,0,1-4.4,2.62l-7.69,1.32A1,1,0,0,1,320.9,229.11Z"/><path class="cls-6" d="M200.79,137.83,172.1,149.65a10.49,10.49,0,0,0-5.69,13.65L172.89,179a10.48,10.48,0,0,0,13.65,5.68l6.55-2.7c6,2.29,9.91,4.68,11.41,4.07s2.78-5.79,5.22-10.92l5.51-2.27a10.49,10.49,0,0,0,5.69-13.65l-6.48-15.72A10.48,10.48,0,0,0,200.79,137.83Z"/><circle class="cls-2" cx="191.79" cy="156.97" r="5.12"/><path class="cls-2" d="M200.32,161.83l-11.21,4.62a3.48,3.48,0,0,0-1.89,4.53l1.32,3.21,17.64-7.26-1.33-3.21A3.47,3.47,0,0,0,200.32,161.83Z"/><path class="cls-6" d="M196.59,277.43,177.76,302.1a10.49,10.49,0,0,0,2,14.66l13.52,10.31a10.48,10.48,0,0,0,14.65-2l4.3-5.64c6.31-1,10.92-1,11.9-2.24s-.5-6.4-1-12.06l3.61-4.74a10.48,10.48,0,0,0-2-14.65l-13.51-10.32A10.49,10.49,0,0,0,196.59,277.43Z"/><circle class="cls-2" cx="198.47" cy="298.5" r="5.12"/><path class="cls-2" d="M208.28,298.4,200.93,308a3.48,3.48,0,0,0,.65,4.87l2.76,2.11,11.57-15.16-2.76-2.11A3.48,3.48,0,0,0,208.28,298.4Z"/><ellipse class="cls-4" cx="619.92" cy="380.51" rx="162.92" ry="17.22"/><ellipse class="cls-7" cx="367.9" cy="403" rx="219.78" ry="26.05"/><path class="cls-8" d="M513.52,188.65a11.28,11.28,0,1,1-11.28-11.28A11.28,11.28,0,0,1,513.52,188.65Z"/><path class="cls-9" d="M506.74,160.11s-1.82-19.48,15.82-20.5c14.92-.86,16.18,10,16.18,10s-3.24-13.54,14-10.45,7,16,7,16,19.41-11.86,24.81,2.16-13.48,14-13.48,14,11.25,9.82,2.13,18.93-16,1.78-16,1.78,8.42,13.72-9.76,16.42-18-9.69-18-9.69,1.73,13.25-9,13c-15.62-.36-17.79-22.44-7.55-26.86,0,0-14.6-1.69-14.6-13.55S506.74,160.11,506.74,160.11Z"/><path class="cls-10" d="M505.94,170.22s-1-10.39,8.44-10.93c8-.46,8.63,5.35,8.63,5.35s-1.72-7.22,7.49-5.57,3.74,8.56,3.74,8.56,10.35-6.33,13.23,1.15-7.19,7.48-7.19,7.48,6,5.24,1.14,10.1-8.56.95-8.56.95,4.49,7.32-5.21,8.76S518,190.9,518,190.9s.92,7.07-4.79,6.94c-8.33-.19-9.49-12-4-14.33,0,0-7.79-.9-7.79-7.23S505.94,170.22,505.94,170.22Z"/><path class="cls-11" d="M474.66,272.21c-4,5.69-68.87,58.79-76.31,66.23s-5,20.11-2.91,24.76,6.4-8.15,17.17-18.91c9.95-10,59.36-37.37,75.15-50.13C486.5,285.25,482.46,277.24,474.66,272.21Z"/><path class="cls-12" d="M503.94,219.83s-5.21,17.38-5.79,18.39c-3.77,6.69-10.39,18.06-26.32,34,7.8,5,13.15,17.05,14.4,26,1.29-1.05,42.42-54.67,44.49-66.12S523.38,215.27,503.94,219.83Z"/><path class="cls-13" d="M517.64,246.9s-29.59-2-32.5,16.65c-2.7,17.28,25.16,57.11,29.18,77.64,6.49-1.18,10.5-2.08,17.52-2-5.33-19.61-7.74-41.18-9.45-47.09-3.07-10.63,48.89,15.71,73.33,7.56S588,246.9,517.64,246.9Z"/><path class="cls-14" d="M496.93,311.39s18.56,44.78,15.82,48.69-7.83,7.39-14.88,9.25-4.11,7.72-4.11,7.72l25.37-.28,3-3.76.8,4L537,374.13l.79-7.7c-1.84-16.51-8.17-54.46-11.5-65.17Z"/><path class="cls-14" d="M526.32,301.26l-29.4,10.13s.77,1.85,2,4.81c6.46-2.4,21.86-8.23,28.41-10.7A38.72,38.72,0,0,0,526.32,301.26Z"/><path class="cls-14" d="M527.72,293.32c-1.34,2.42-.78,4.62-.61,6.3,1.25-13.47,10.36-5.62,0,0C542.84,295.55,532,285.57,527.72,293.32Z"/><polygon class="cls-14" points="495.18 314.95 494.72 309.18 527.24 297.98 529.89 303 495.18 314.95"/><path class="cls-2" d="M584.76,222.17c-10.5-5.81-21.7-11.65-33.37-14.74-14.84-3.92-39.12,6-41.06,6.69,0,0-3.46,23.87,0,31.73s10.47,33.17,23.57,46.27c7.39,7.39,36.05,9.91,59.62,10.71,11.76-15.38,30.46-12.25,44-27.3,1.28-1.42-6.74-12.65-7.61-14.15C619.24,243,603.34,232.46,584.76,222.17Z"/><path class="cls-15" d="M488.41,244.6s12.39-5.29,24.81-1.84c0,0,5-10.88,1.24-20.67-3.06-7.9-4.13-8-4.13-8L493,222,485,228.33Z"/><path class="cls-13" d="M636.75,260.93c-13.52,15.05-30.47,18.61-42.23,34,18.2.61,33.36.2,33.36.2l25.76-5.51S652.76,279.75,636.75,260.93Z"/><path class="cls-16" d="M626.08,268.55c-20.18-7.73-43-10.64-64.15-14.05-23.89-3.84-41.91,1.27-54.21,8.93l48.64,40.14c-5,0,45.19,31.56,70.3,31.56s30.76-18,30.76-31.56C657.42,285.74,640.68,274.14,626.08,268.55Z"/><path class="cls-17" d="M398.49,343.38s-10.77,9.05-9.06,14.93c3.91,13.42,22,9.49,24.23,1.2s-6-16.13-6-16.13Z"/><path class="cls-18" d="M386.16,302.76c-.85,0,2.38,32.37,11.31,41.65h0a8.6,8.6,0,0,0,6.75.28l3.44-1.31s8-39.72,5.23-43.76-5.45,34.13-8.48,33.56,3.72-45.12,0-44.61c-4.4.61-.54,45.29-4.58,42.24s.65-25.54-3.6-68.54c0,0-4.7,29.58-3.39,42.13s5.41,28.21,4.15,29.46S389.11,302.76,386.16,302.76Z"/><path class="cls-18" d="M471.93,370.79c-.66,0,1.85,25.16,8.79,32.37h0a6.72,6.72,0,0,0,5.24.22l2.68-1s6.19-30.87,4.07-34-4.24,26.53-6.6,26.08,2.89-35.07,0-34.66c-3.42.47-.42,35.19-3.56,32.82s.51-19.85-2.8-53.26c0,0-3.65,23-2.63,32.73s4.2,21.93,3.22,22.9S474.22,370.79,471.93,370.79Z"/><path class="cls-19" d="M494.75,223.46c0,12.14-5.93,29.48-13.61,29.48-6.93,0-14-9-17.68-13.89a43.58,43.58,0,0,1-6.68-11.87c-1.93-5.59-1.59-12.32-1.26-18.17.22-4,1.39-7.66,6.07-7.66C469.26,201.35,494.75,211.33,494.75,223.46Z"/><path class="cls-20" d="M454.44,211.76S450.62,203,456.61,197s20-14.17,31.74-13,18,3,18,10.38,5.59,21.16,0,26.75-13.77,6.79-18.76,5.39-24.79-17.81-29.95-17.17A3.58,3.58,0,0,0,454.44,211.76Z"/><path class="cls-21" d="M595.34,343.47c-13.82-18.6-41.51-57.73-48.92-63.3-7.67-5.76-23.55-19.41-33-19.24-4.84.08-7.64,3.85-10.46,8.45-8.14,13.27,56.76,74.23,76,87.88A88,88,0,0,1,595.34,343.47Z"/><path class="cls-14" d="M554.17,338.8s38.25,29.77,37.8,34.53-3.16,10.29-8.37,15.39-.17,8-.17,8l22.33-12.05.75-4.75,2.69,3.12,12-7.47-4.28-9.12c-9.75-13.45-34-43.33-42.19-51Z"/><path class="cls-14" d="M574.72,315.48l-20.56,23.33s1.58,1.23,4.08,3.21c4.43-5.27,14.94-17.94,19.41-23.33A37.38,37.38,0,0,0,574.72,315.48Z"/><path class="cls-22" d="M572,307.88c0,2.76,1.6,4.41,2.59,5.78-5.57-12.33,6.23-10,0,0C586.27,302.36,571.93,299,572,307.88Z"/><polygon class="cls-22" points="554.4 342.77 551.16 337.97 573.89 312.18 578.68 315.23 554.4 342.77"/><path class="cls-23" d="M408.05,340.92c-.05.87-9.53,19.74-5.94,21.71s8.31-12.16,8.31-12.16,7.37-2.83,7.75-8.93S408.05,340.92,408.05,340.92Z"/><path class="cls-24" d="M310.82,408.54s1.89-6.54,17.81-.83S354.2,419.4,345,421.65s-22.63-1.94-22.63-1.94S308.93,415,310.82,408.54Z"/><path class="cls-25" d="M477.58,222.83s-4-10.18.92-8.71,7.21,7.74,6.45,9.76S479.39,226.34,477.58,222.83Z"/><path class="cls-26" d="M477.61,216.7c-.73,1.33-.1,4.34,1.85,5.78C485,226.52,480.16,212.11,477.61,216.7Z"/><path class="cls-24" d="M366.48,396.48c-1.71-2.39-7.18-2.57-9.3-.31-.73.05-1.44.11-2.12.19-3.73-2.32-10.14-.07-8.72,3.05-3.19,5.47,28.1,6.43,28.1.65C374.44,398.49,371.19,397.12,366.48,396.48Z"/><path class="cls-24" d="M478,400.16c-1.71-2.39-7.17-2.57-9.29-.3-.73,0-1.44.11-2.12.18-3.74-2.31-10.15-.07-8.73,3-3.22,5.52,28.1,6.44,28.1.66C486,402.17,482.72,400.81,478,400.16Z"/><path class="cls-24" d="M487.76,407c-13.76,0-13.91-5.86,0-5.86C501.51,401.18,501.66,407,487.76,407Z"/><path class="cls-13" d="M636,262.69l-2.08,1.76c-18.79-15.83-72.56-58.75-96.08-48.66-30.16,12.93,6.56,49.85,6.56,49.85L534.08,268s-21.85-31.16-15.47-44.76,20.66-17.69,42.35-12.62C580.32,215.1,636,262.69,636,262.69Z"/><path class="cls-27" d="M503.51,285.46a130.21,130.21,0,0,1-12,17.3c-18.56,21.39-61.55,38.63-66.79,40.38s-12,10-14.84,16.37S398.71,373,403.07,373s12.22-9.75,12.22-7.13S404.15,380,401.64,382.52s-9.37,5.36-9.77,6.16c-1.76,3.52,4.22,1.6,9-1s14.19-11.13,14.19-11.13c-2,5.68-19.79,18.55-16.95,18.55s16.29-9.38,20.22-13.31,6.55-16.81,13.1-23.35,32.73-11.35,50.2-19.24c8.66-3.92,27.22-19.86,44.68-37.54A87.39,87.39,0,0,0,503.51,285.46Z"/><path class="cls-26" d="M503.51,285.46c-.59,1-1.19,1.94-1.78,2.88l18.57,19.3c2-2,4-4,6-6A87.39,87.39,0,0,0,503.51,285.46Z"/><path class="cls-2" d="M544.39,223.91c-8.74,3-27.45,35.94-43,61.55,8.43,4.27,23.1,18.81,29.59,25.38,17.72-17.95,29.63-46.88,33.57-57.65C572.41,231.81,557.37,219.5,544.39,223.91Z"/><path class="cls-12" d="M560.52,227.08c-6-4.24-14.36-4.67-19.92,1.33-10.12,11.2-24.87,38-39.18,57,5.83-12.23,29.68-58,42.39-62.6A16.26,16.26,0,0,1,560.52,227.08Z"/><path class="cls-28" d="M486.88,318.2s-3.93,9.27,0,9.27,7.84.38,7.84-1.93S488.58,316.49,486.88,318.2Z"/><path class="cls-24" d="M254.16,394.63c-7.52,3.09-25.39,5.27-46.21,5.27-16,0-30.24-1.28-39.39-3.29,7.52-3.09,25.38-5.26,46.21-5.26C230.76,391.35,245,392.62,254.16,394.63Z"/><path class="cls-24" d="M244.34,270.37c-8.85,3.48-19.17,9.37-21.16,18.65-5.65-16.71-14.07-32-16.48-55.45,2.17-6.65,8.77-13.35,14.21-17.73-5.29,3.8-11.43,9.37-14.44,15.11a136.38,136.38,0,0,1,9.67-61.15l-1.5-.71a134.83,134.83,0,0,0-4.27,94.27c-4.59-2.91-11.63-3.86-17.07-3.61,5.73.12,13.59,1.69,17.75,5.71,8.82,26.67,16.25,37.53,11.76,66.88-4.19-7.12-15.3-9.3-23.44-9.34,8.63.49,20.76,3.69,23,11.9a267,267,0,0,1-18.33,61.28l9.1.17a366.38,366.38,0,0,0,13.11-55c7.21-47.74-17.33-55,18.22-70.65a78.82,78.82,0,0,1,9.83-3.54A76.68,76.68,0,0,0,244.34,270.37Z"/><path class="cls-4" d="M215.47,220.12s14.83,3.59,28.92-3.59,17.95-29.09,17.95-29.09S213.35,184,215.47,220.12Z"/><path class="cls-4" d="M153.25,237.52s19.06-3.17,31.76,3.18c5.88,2.94,11.92,10.07,11.19,17-1.07,10.36-13.54,9.75-20.89,7.56-8.36-2.48-16-8-19.65-16.11A28.17,28.17,0,0,1,153.25,237.52Z"/><path class="cls-4" d="M192.33,173.39s-6.42,9.94,0,22.78,17,8.29,17,0S192.33,173.39,192.33,173.39Z"/><path class="cls-4" d="M211.87,148s15,26.31,5.95,31.9-16.31-1.86-16.31-6.83S211.87,148,211.87,148Z"/><path class="cls-4" d="M275.6,257.89s-40.6-12.22-44.54,8.28,8.7,23.83,17.82,21.34S275.6,257.89,275.6,257.89Z"/><path class="cls-4" d="M175.83,303.94s30.1-5.8,36.8,7.25.48,23.61-5.11,23.61S184.94,329.63,175.83,303.94Z"/><path class="cls-24" d="M221.75,391.71c-.51-1.91-4.19-3.44-7.3-2.11s-3.16,2-3.16,2-4.56-4.21-7.35-2.74a3.67,3.67,0,0,0-2,4.2s-2.33-2.67-4.61-2.67-2.59,6.18-2.59,6.18h26.15S222.27,393.62,221.75,391.71Z"/><path class="cls-24" d="M280.38,395.35c5.59,2.3,18.89,3.92,34.39,3.92,11.9,0,22.51-.95,29.32-2.44-5.6-2.31-18.9-3.92-34.4-3.92C297.79,392.91,287.19,393.85,280.38,395.35Z"/><path class="cls-24" d="M287.68,302.87c6.59,2.59,14.27,7,15.76,13.88,4.2-12.44,10.47-23.85,12.26-41.28-1.62-4.94-6.53-9.93-10.58-13.19,3.94,2.83,8.51,7,10.75,11.25a101.31,101.31,0,0,0-7.2-45.51l1.12-.53A100.35,100.35,0,0,1,313,297.65c3.41-2.17,8.65-2.87,12.7-2.68-4.26.08-10.11,1.25-13.21,4.24-6.56,19.85-12.09,27.94-8.75,49.78,3.12-5.3,11.38-6.93,17.44-6.95-6.42.36-15.45,2.75-17.14,8.85a198.71,198.71,0,0,0,13.65,45.62l-6.78.12a272.32,272.32,0,0,1-9.75-40.9c-5.37-35.53,12.89-41-13.57-52.58a56.81,56.81,0,0,0-7.31-2.63A55.24,55.24,0,0,1,287.68,302.87Z"/><path class="cls-4" d="M309.17,265.47s-11,2.67-21.52-2.67-13.36-21.66-13.36-21.66S310.75,238.54,309.17,265.47Z"/><path class="cls-4" d="M355.48,278.41s-14.18-2.35-23.64,2.37c-4.37,2.19-8.87,7.5-8.33,12.68.8,7.71,10.08,7.26,15.55,5.63,6.22-1.85,11.91-6,14.63-12A21.11,21.11,0,0,0,355.48,278.41Z"/><path class="cls-4" d="M326.39,230.69s4.78,7.4,0,16.95-12.63,6.17-12.63,0S326.39,230.69,326.39,230.69Z"/><path class="cls-4" d="M311.85,211.82s-11.17,19.58-4.43,23.74,12.14-1.38,12.14-5.08S311.85,211.82,311.85,211.82Z"/><path class="cls-4" d="M264.42,293.58s30.22-9.1,33.15,6.16-6.48,17.73-13.26,15.88S264.42,293.58,264.42,293.58Z"/><path class="cls-4" d="M338.67,327.85s-22.4-4.31-27.38,5.4-.36,17.57,3.8,17.57S331.89,347,338.67,327.85Z"/><path class="cls-24" d="M304.5,393.17c.38-1.42,3.12-2.56,5.43-1.56s2.35,1.47,2.35,1.47,3.39-3.13,5.47-2a2.75,2.75,0,0,1,1.51,3.13s1.73-2,3.43-2,1.92,4.6,1.92,4.6H305.15S304.11,394.6,304.5,393.17Z"/><path class="cls-6" d="M257.1,237.81l-22.73-21.13a10.49,10.49,0,0,0-14.78.54L208,229.68a10.48,10.48,0,0,0,.54,14.77l5.19,4.83c.42,6.37-.11,11,1.08,12.06s6.41.11,12.1.18l4.36,4.06a10.5,10.5,0,0,0,14.78-.54l11.57-12.46A10.47,10.47,0,0,0,257.1,237.81Z"/><circle class="cls-2" cx="235.95" cy="237.63" r="5.12"/><path class="cls-2" d="M235.1,247.41l-8.88-8.25a3.48,3.48,0,0,0-4.91.18L219,241.88l14,13,2.36-2.54A3.48,3.48,0,0,0,235.1,247.41Z"/><path class="cls-6" d="M299.21,267.82,276,280a8.86,8.86,0,0,0-3.74,11.92l6.67,12.74a8.86,8.86,0,0,0,11.92,3.73l5.31-2.78c5.2,1.47,8.7,3.18,9.91,2.54s1.91-5.08,3.56-9.59l4.47-2.33a8.87,8.87,0,0,0,3.73-11.93l-6.66-12.73A8.87,8.87,0,0,0,299.21,267.82Z"/><path class="cls-2" d="M299.28,295.42a1,1,0,0,1-.81.06l-7.5-2.12a1.66,1.66,0,0,1-.35-.1c-.16-.06-.42-.17-.78-.34a10.08,10.08,0,0,1-1-.56,7,7,0,0,1-1.05-.86,4.93,4.93,0,0,1-.89-1.19,5.92,5.92,0,0,1-.69-4.11,4.74,4.74,0,0,1,2.52-2.81A3.88,3.88,0,0,1,290,283a5.09,5.09,0,0,1,1.35,0c.42,0,.79.11,1.12.18l.5.13c.05-.17.12-.33.18-.49s.29-.64.49-1a5.51,5.51,0,0,1,.78-1.1,4.12,4.12,0,0,1,1.05-.8,4.73,4.73,0,0,1,3.74-.47,5.87,5.87,0,0,1,3,2.92,6.74,6.74,0,0,1,.17,5.11l-2.54,7.37A1,1,0,0,1,299.28,295.42Z"/><path class="cls-29" d="M387.09,270.17l-1.48,9.23a1,1,0,0,0,1.14,1.07l11-2.41s-6.55-7.41-6.64-7.23A30.07,30.07,0,0,1,387.09,270.17Z"/><path class="cls-30" d="M414.7,265.15c-6.06-.59-25.75-2.28-33.21-2.91a1.05,1.05,0,0,0-.83,1.8l5.88,5.85-1.47,9.2a1,1,0,0,0,.36.92c.22.16,3.86-6.08,3.86-6.08s4.58,9.27,6.76,13.66a1.64,1.64,0,0,0,2.76.28l16.58-21.1A1,1,0,0,0,414.7,265.15Z"/><path class="cls-31" d="M385.43,280c.22.16,3.86-6.08,3.86-6.08l18-5.17a.11.11,0,0,0,0-.21l-20.71,1.34-1.47,9.2A1,1,0,0,0,385.43,280Z"/><path class="cls-29" d="M495.89,342.17l1.47,9.23a.94.94,0,0,1-1.13,1.07l-11-2.41s6.56-7.41,6.65-7.23A30.07,30.07,0,0,0,495.89,342.17Z"/><path class="cls-30" d="M468.27,337.15c6.07-.59,25.76-2.28,33.21-2.91a1.05,1.05,0,0,1,.83,1.8l-5.88,5.85,1.47,9.2a1,1,0,0,1-.36.92c-.21.16-3.86-6.08-3.86-6.08l-6.75,13.66a1.64,1.64,0,0,1-2.76.28l-16.59-21.1A1,1,0,0,1,468.27,337.15Z"/><path class="cls-31" d="M497.54,352c-.21.16-3.86-6.08-3.86-6.08l-18-5.17a.11.11,0,0,1,0-.21l20.71,1.34,1.47,9.2A1,1,0,0,1,497.54,352Z"/></g></g></svg>