<svg xmlns="http://www.w3.org/2000/svg" viewBox="0 0 393.37 359.5"><defs><style>.cls-1,.cls-3{fill:#b9d4dd;}.cls-1{opacity:0.14;}.cls-2{opacity:0.29;}.cls-4{fill:#98bfed;}.cls-5{fill:#fde8c9;}.cls-6{fill:#edd6b7;}.cls-7{fill:#2b7775;}.cls-23,.cls-8{fill:#fff;}.cls-9{fill:#1f6360;}.cls-10{fill:#f36648;}.cls-11{fill:#211f2d;}.cls-12{fill:#5e5740;}.cls-13{fill:#756a54;}.cls-14{fill:#64abc1;}.cls-15{fill:#0f0e16;}.cls-16{fill:#ffff8d;}.cls-17{fill:#e5e280;}.cls-18{fill:#edd7b9;}.cls-19{fill:#2d706b;}.cls-20{fill:#3e8985;}.cls-21{fill:#1f5e58;}.cls-22{fill:#f24962;}.cls-23,.cls-24{stroke:#3291f9;stroke-miterlimit:10;}.cls-24{fill:#f2f2f2;}</style></defs><title>garden2</title><g id="Layer_2" data-name="Layer 2"><g id="OBJECTS"><ellipse class="cls-1" cx="194.73" cy="350.31" rx="164.24" ry="9.19"/><g class="cls-2"><path class="cls-3" d="M158.69,333.84c-41,3.81-73.95-2.77-107.79-24.11-17.22-10.85-33.48-27.11-34.57-47.43-.59-10.93,3.34-21.6,4.11-32.52,1.47-20.85-8.49-40.53-15.09-60.36S-3.8,125.49,10,109.75c8.43-9.65,21.94-14.69,27.93-26,3.7-7,3.88-15.21,5.44-23a63.26,63.26,0,0,1,80.21-48c15.33,4.61,28.88,15,44.78,16.9C189.66,32.2,209.5,19,230.64,15.08c21.65-4,46.78,3.75,57.31,23.09,5,9.26,6.84,20.89,15.14,27.4,5.58,4.38,13,5.46,19.85,7.18,30.22,7.54,56,30.94,66.42,60.29,3.84,10.84,5.66,22.88,2.1,33.82-4.07,12.54-14.47,21.81-21.81,32.76a74.79,74.79,0,0,0-12.57,42.8c.15,8.09,1.6,16.44-1,24.11-2.35,7-7.78,12.56-13.31,17.51-47.11,42.2-122.13,62.42-184.11,49.8"/></g><g class="cls-2"><path class="cls-3" d="M169.26,335.27c-30.22,3.48-54.35-1.59-79-18.71-12.56-8.71-24.37-21.84-25-38.42-.33-8.92,2.66-17.67,3.32-26.59,1.27-17-5.88-33-10.55-49.16s-6.33-35.79,3.93-48.76c6.29-8,16.26-12.2,20.77-21.5,2.78-5.73,3-12.45,4.21-18.79C89.62,99.28,97.83,86.5,109,79a43.46,43.46,0,0,1,37.34-5.62c11.24,3.63,21.1,12,32.78,13.4,15.67,1.89,30.38-9.06,45.95-12.46C241,70.84,259.41,77,267,92.66c3.63,7.52,4.85,17,10.89,22.24,4.06,3.53,9.48,4.35,14.53,5.69,22.16,5.88,40.9,24.75,48.29,48.63,2.73,8.81,4,18.63,1.25,27.59-3.11,10.28-10.84,17.94-16.34,26.95A67.21,67.21,0,0,0,316,258.83c0,6.6,1,13.4-.93,19.69-1.79,5.76-5.84,10.33-9.94,14.42-35,34.88-90.38,52.08-135.83,42.33"/></g><path class="cls-4" d="M189.66,194.35a.51.51,0,0,1-.37-.17.49.49,0,0,1,0-.7c1-.88,1.52-1.34,1.52-1.34a.5.5,0,0,1,.63.78s-.54.44-1.48,1.3A.55.55,0,0,1,189.66,194.35Z"/><path class="cls-4" d="M163.71,283.72a.52.52,0,0,1-.47-.32c-.5-1.3-1-2.61-1.4-3.91a.5.5,0,0,1,.95-.32c.42,1.29.89,2.59,1.38,3.86a.5.5,0,0,1-.28.65A.58.58,0,0,1,163.71,283.72Zm-2.58-7.85a.49.49,0,0,1-.48-.37c-.36-1.33-.68-2.69-1-4a.51.51,0,0,1,.39-.59.49.49,0,0,1,.59.39c.28,1.32.59,2.67,1,4a.5.5,0,0,1-.36.61Zm-1.66-8.08a.51.51,0,0,1-.5-.42c-.19-1.37-.35-2.76-.47-4.13a.5.5,0,0,1,.46-.54.51.51,0,0,1,.54.45c.11,1.35.27,2.72.46,4.07a.51.51,0,0,1-.42.57Zm-.69-8.21a.51.51,0,0,1-.5-.49c0-.53,0-1.06,0-1.58,0-.87,0-1.73.05-2.58a.5.5,0,0,1,.52-.48.5.5,0,0,1,.48.52c0,.84-.05,1.68-.05,2.54,0,.51,0,1,0,1.55a.5.5,0,0,1-.49.52Zm.31-8.25H159a.5.5,0,0,1-.45-.55c.13-1.36.31-2.75.53-4.12a.5.5,0,0,1,1,.16c-.21,1.35-.38,2.72-.52,4.06A.49.49,0,0,1,159.09,251.33Zm1.28-8.15h-.11a.49.49,0,0,1-.38-.59c.29-1.34.62-2.69,1-4a.5.5,0,0,1,.61-.35.5.5,0,0,1,.35.62c-.36,1.32-.69,2.66-1,4A.5.5,0,0,1,160.37,243.18Zm2.18-8-.16,0a.5.5,0,0,1-.31-.63c.43-1.29.9-2.61,1.41-3.91a.5.5,0,0,1,.93.37c-.5,1.28-1,2.58-1.39,3.85A.51.51,0,0,1,162.55,235.23Zm3-7.69a.54.54,0,0,1-.21,0,.5.5,0,0,1-.25-.66c.56-1.24,1.16-2.5,1.78-3.75a.5.5,0,0,1,.9.45c-.62,1.24-1.22,2.48-1.77,3.71A.49.49,0,0,1,165.55,227.54Zm3.71-7.38a.54.54,0,0,1-.25-.06.51.51,0,0,1-.19-.68c.67-1.19,1.37-2.4,2.11-3.58a.48.48,0,0,1,.68-.16.49.49,0,0,1,.17.68c-.73,1.18-1.43,2.37-2.09,3.55A.5.5,0,0,1,169.26,220.16Zm4.33-7a.54.54,0,0,1-.28-.08.51.51,0,0,1-.14-.7c.77-1.14,1.58-2.28,2.39-3.39a.5.5,0,0,1,.7-.11.51.51,0,0,1,.11.7c-.81,1.1-1.6,2.23-2.37,3.36A.49.49,0,0,1,173.59,213.13Zm4.87-6.66a.51.51,0,0,1-.31-.11.52.52,0,0,1-.08-.71c.86-1.08,1.75-2.16,2.64-3.2a.5.5,0,0,1,.76.65c-.88,1-1.76,2.1-2.61,3.18A.53.53,0,0,1,178.46,206.47Zm5.37-6.28a.49.49,0,0,1-.34-.14.48.48,0,0,1,0-.7c.95-1,1.92-2,2.87-3a.5.5,0,0,1,.71,0,.5.5,0,0,1,0,.7c-.95.95-1.9,1.95-2.85,3A.48.48,0,0,1,183.83,200.19Z"/><path class="cls-4" d="M166.15,289.35a.49.49,0,0,1-.45-.29c-.3-.61-.58-1.22-.85-1.82a.51.51,0,0,1,.25-.67.5.5,0,0,1,.66.26q.41.9.84,1.8a.5.5,0,0,1-.24.67A.54.54,0,0,1,166.15,289.35Z"/><path class="cls-4" d="M190.42,195.19a.52.52,0,0,1-.29-.09.5.5,0,0,1-.12-.69c.72-1,1.14-1.56,1.14-1.56a.5.5,0,0,1,.78.62s-.41.52-1.1,1.51A.49.49,0,0,1,190.42,195.19Z"/><path class="cls-4" d="M174.66,287.63a.5.5,0,0,1-.47-.34c-.43-1.3-.84-2.61-1.22-3.91a.51.51,0,0,1,.35-.62.51.51,0,0,1,.62.34c.37,1.29.77,2.59,1.2,3.87a.5.5,0,0,1-.32.63A.41.41,0,0,1,174.66,287.63Zm-2.26-7.82a.5.5,0,0,1-.49-.38c-.32-1.32-.63-2.66-.9-4a.5.5,0,0,1,1-.2c.27,1.32.57,2.65.89,3.95a.48.48,0,0,1-.36.6Zm-1.64-8a.49.49,0,0,1-.49-.42c-.22-1.34-.41-2.7-.57-4.05a.5.5,0,0,1,.44-.55.49.49,0,0,1,.55.43c.16,1.33.35,2.68.57,4a.51.51,0,0,1-.42.58Zm-1-8.08a.5.5,0,0,1-.5-.46c-.1-1.36-.18-2.73-.22-4.09a.5.5,0,0,1,.48-.51.53.53,0,0,1,.52.48c0,1.34.12,2.7.22,4a.5.5,0,0,1-.46.54Zm-.27-8.14h0a.5.5,0,0,1-.5-.5c0-1.36.06-2.73.13-4.09a.46.46,0,0,1,.52-.47.5.5,0,0,1,.48.52c-.07,1.35-.12,2.71-.13,4.05A.5.5,0,0,1,169.53,255.61Zm.43-8.12h-.05a.49.49,0,0,1-.45-.54c.13-1.35.29-2.72.48-4.06a.5.5,0,0,1,.56-.43.5.5,0,0,1,.43.56c-.19,1.33-.35,2.68-.47,4A.52.52,0,0,1,170,247.49Zm1.12-8.07H171a.5.5,0,0,1-.41-.59c.25-1.33.52-2.68.82-4a.5.5,0,0,1,.6-.37.48.48,0,0,1,.37.59c-.29,1.32-.56,2.66-.8,4A.51.51,0,0,1,171.08,239.42Zm1.78-7.94-.13,0a.49.49,0,0,1-.35-.61c.35-1.3.73-2.63,1.14-3.93a.5.5,0,0,1,.62-.33.51.51,0,0,1,.33.63c-.4,1.29-.78,2.6-1.13,3.89A.5.5,0,0,1,172.86,231.48Zm2.42-7.77a.5.5,0,0,1-.47-.67c.45-1.28.94-2.56,1.44-3.83a.5.5,0,0,1,.93.37c-.5,1.25-1,2.53-1.43,3.79A.49.49,0,0,1,175.28,223.71Zm3-7.57a.45.45,0,0,1-.2,0,.5.5,0,0,1-.26-.66c.55-1.24,1.13-2.49,1.73-3.71a.5.5,0,1,1,.9.44c-.59,1.21-1.17,2.45-1.72,3.67A.49.49,0,0,1,178.3,216.14Zm3.58-7.31a.53.53,0,0,1-.24-.06.51.51,0,0,1-.2-.68c.64-1.2,1.31-2.4,2-3.57a.49.49,0,0,1,.68-.18.51.51,0,0,1,.18.69c-.68,1.15-1.34,2.34-2,3.53A.5.5,0,0,1,181.88,208.83Zm4.11-7a.53.53,0,0,1-.27-.08.5.5,0,0,1-.15-.69c.72-1.14,1.48-2.29,2.26-3.42a.49.49,0,0,1,.69-.12.49.49,0,0,1,.13.69c-.77,1.12-1.52,2.25-2.24,3.38A.5.5,0,0,1,186,201.8Z"/><path class="cls-4" d="M176.23,292a.51.51,0,0,1-.47-.32c-.24-.63-.47-1.25-.7-1.87a.5.5,0,0,1,.95-.34c.22.61.45,1.23.68,1.85a.5.5,0,0,1-.29.65A.47.47,0,0,1,176.23,292Z"/><path class="cls-4" d="M191.18,196a.43.43,0,0,1-.19,0,.51.51,0,0,1-.28-.65c.47-1.17.76-1.77.76-1.77a.5.5,0,0,1,.9.42s-.27.59-.73,1.72A.49.49,0,0,1,191.18,196Z"/><path class="cls-4" d="M185.11,290.29a.5.5,0,0,1-.49-.38q-.51-2-1-3.9a.51.51,0,0,1,.37-.61.5.5,0,0,1,.6.38c.3,1.28.62,2.58,1,3.88a.5.5,0,0,1-.36.61Zm-1.83-7.82a.5.5,0,0,1-.49-.4c-.27-1.33-.53-2.64-.77-3.95a.51.51,0,0,1,.41-.58.5.5,0,0,1,.58.4c.23,1.3.49,2.61.76,3.93a.49.49,0,0,1-.39.59Zm-1.43-7.9a.5.5,0,0,1-.49-.42c-.21-1.35-.4-2.67-.57-4a.5.5,0,1,1,1-.13c.17,1.31.36,2.63.56,4a.49.49,0,0,1-.41.57Zm-1-8a.5.5,0,0,1-.49-.45c-.14-1.36-.26-2.69-.36-4a.5.5,0,0,1,1-.07c.1,1.31.21,2.64.35,4a.5.5,0,0,1-.45.55Zm-.6-8a.5.5,0,0,1-.5-.48c-.07-1.36-.12-2.7-.14-4a.49.49,0,0,1,.48-.51.48.48,0,0,1,.52.49c0,1.31.07,2.65.14,4a.5.5,0,0,1-.48.52Zm-.18-8h0a.5.5,0,0,1-.5-.5c0-1.37,0-2.71.08-4a.53.53,0,0,1,.51-.48.51.51,0,0,1,.49.51c-.05,1.32-.07,2.65-.08,4A.5.5,0,0,1,180,250.57Zm.26-8h0a.5.5,0,0,1-.47-.53c.08-1.36.18-2.7.3-4a.5.5,0,1,1,1,.08q-.18,2-.3,4A.5.5,0,0,1,180.3,242.54Zm.71-8H181a.5.5,0,0,1-.44-.55c.16-1.36.33-2.7.52-4a.5.5,0,0,1,1,.15c-.19,1.29-.36,2.61-.52,4A.5.5,0,0,1,181,234.55Zm1.15-8h-.09a.51.51,0,0,1-.41-.58q.36-2,.75-4a.51.51,0,0,1,.59-.39.5.5,0,0,1,.39.59c-.26,1.28-.51,2.59-.74,3.94A.49.49,0,0,1,182.16,226.6Zm1.6-7.87h-.11a.51.51,0,0,1-.38-.6c.32-1.36.65-2.66,1-3.91a.5.5,0,0,1,1,.25c-.33,1.25-.66,2.54-1,3.88A.51.51,0,0,1,183.76,218.73Zm2.06-7.76-.14,0a.5.5,0,0,1-.34-.62c.41-1.36.81-2.64,1.21-3.85a.5.5,0,1,1,.95.32q-.6,1.78-1.2,3.81A.49.49,0,0,1,185.82,211Zm2.53-7.62a.47.47,0,0,1-.17,0,.51.51,0,0,1-.3-.65c.52-1.41,1-2.67,1.45-3.76a.5.5,0,1,1,.92.37c-.43,1.09-.92,2.33-1.43,3.74A.52.52,0,0,1,188.35,203.35Z"/><path class="cls-4" d="M186.31,294.64a.52.52,0,0,1-.49-.37l-.54-1.91a.5.5,0,0,1,1-.27c.17.63.35,1.27.54,1.91a.51.51,0,0,1-.35.62Z"/><path class="cls-4" d="M191.94,196.88h-.09a.51.51,0,0,1-.41-.58c.22-1.31.37-2,.37-2a.5.5,0,0,1,1,.2s-.14.67-.36,1.95A.49.49,0,0,1,191.94,196.88Z"/><path class="cls-4" d="M195.25,291.42a.49.49,0,0,1-.49-.41c-.25-1.31-.48-2.61-.7-3.9a.5.5,0,0,1,.4-.58.49.49,0,0,1,.58.41c.23,1.28.46,2.58.7,3.89a.5.5,0,0,1-.4.58Zm-1.36-7.8a.5.5,0,0,1-.49-.42c-.21-1.32-.42-2.62-.62-3.92a.51.51,0,0,1,.42-.57.5.5,0,0,1,.57.42c.2,1.29.4,2.59.62,3.91a.5.5,0,0,1-.42.57Zm-1.18-7.83a.51.51,0,0,1-.5-.43c-.18-1.33-.36-2.63-.53-3.93a.5.5,0,0,1,1-.13c.16,1.29.34,2.6.52,3.92a.49.49,0,0,1-.42.56Zm-1-7.85a.51.51,0,0,1-.5-.45c-.15-1.33-.3-2.64-.44-3.94a.51.51,0,0,1,.45-.55.5.5,0,0,1,.55.45c.13,1.29.28,2.6.43,3.93a.49.49,0,0,1-.43.55Zm-.83-7.88a.5.5,0,0,1-.5-.45c-.12-1.34-.24-2.66-.34-4a.5.5,0,0,1,1-.09c.11,1.3.22,2.61.35,3.94a.51.51,0,0,1-.45.55Zm-.64-7.89a.5.5,0,0,1-.5-.47c-.09-1.34-.18-2.66-.25-3.95a.5.5,0,0,1,.47-.53.48.48,0,0,1,.53.47c.07,1.29.16,2.61.25,3.95a.5.5,0,0,1-.47.53Zm-.45-7.91a.5.5,0,0,1-.5-.47c-.06-1.35-.11-2.67-.15-4a.5.5,0,0,1,.49-.51.51.51,0,0,1,.51.48c0,1.29.09,2.61.15,4a.5.5,0,0,1-.48.52Zm-.24-7.91a.49.49,0,0,1-.5-.49c0-1.35,0-2.68,0-4a.5.5,0,0,1,.5-.5h0a.5.5,0,0,1,.5.5c0,1.29,0,2.6,0,4a.52.52,0,0,1-.49.51Zm0-7.92h0a.5.5,0,0,1-.5-.51c0-1.35,0-2.68.07-4a.48.48,0,0,1,.51-.49.5.5,0,0,1,.49.51c0,1.28,0,2.6-.07,4A.5.5,0,0,1,189.5,228.43Zm.2-7.92h0a.5.5,0,0,1-.48-.52q.08-2.06.18-4a.48.48,0,0,1,.53-.47.49.49,0,0,1,.47.53c-.07,1.26-.13,2.58-.18,3.94A.5.5,0,0,1,189.7,220.51Zm.44-7.9h0a.5.5,0,0,1-.46-.54c.1-1.39.21-2.71.32-3.95a.5.5,0,1,1,1,.09c-.12,1.23-.22,2.54-.33,3.93A.49.49,0,0,1,190.14,212.61Zm.72-7.89h-.06a.5.5,0,0,1-.44-.55c.16-1.48.33-2.79.49-3.94a.49.49,0,0,1,.56-.43.51.51,0,0,1,.43.56c-.16,1.15-.32,2.45-.49,3.92A.49.49,0,0,1,190.86,204.72Z"/><path class="cls-4" d="M196.38,297.28a.5.5,0,0,1-.49-.4l-.39-2a.51.51,0,0,1,.4-.59.48.48,0,0,1,.58.39l.39,2a.49.49,0,0,1-.39.59Z"/><path class="cls-5" d="M184.58,331.74c10.56,3.39,17.68-.69,21.84-4.79a56.32,56.32,0,0,0,.72-6.72,53,53,0,0,0-1.88-16.58H168.64a51.51,51.51,0,0,0-1.86,11.49C168.94,321.57,173.43,328.17,184.58,331.74Z"/><path class="cls-6" d="M167.85,328.92a53,53,0,0,0,8.23,19.46h21.74a53.45,53.45,0,0,0,8.6-21.43c-4.16,4.1-11.28,8.18-21.84,4.79-11.15-3.57-15.64-10.17-17.8-16.6A54.49,54.49,0,0,0,167.85,328.92Z"/><path class="cls-7" d="M187.59,305.73c-11.48.68-23.39-8-25.74-19.23a13.22,13.22,0,0,1,.67-8.59c1.3-2.62,4.22-4.57,7.11-4.07,1.64.29,3.06,1.3,4.64,1.85s3.65.45,4.54-1a5.73,5.73,0,0,0,.61-2.2c.76-4.86,4.42-9.68,9.33-9.94,4-.21,7.71,2.72,9.49,6.33,1.45,2.95,2.15,6.68,5,8.26,1.5.82,3.3.86,4.95,1.32,5.92,1.64,9,8.92,7.44,14.86s-6.78,10.36-12.49,12.66a20.53,20.53,0,0,1-15.59-.29"/><path class="cls-8" d="M187.69,305.76c1.82-10.65,3.54-21.55,1.18-32.27,0-.13-.23-.07-.21.06,2.36,10.68.64,21.53-1.17,32.15,0,.14.18.19.2.06Z"/><path class="cls-8" d="M187.55,305.73c-.65-5.29-3.28-9.87-6.34-14.14-2.57-3.59-5.35-7.74-9.84-8.94a.1.1,0,0,0-.06.2c4.63,1.24,7.53,5.73,10.13,9.43,2.86,4.06,5.28,8.45,5.9,13.45,0,.13.23.14.21,0Z"/><path class="cls-8" d="M187.88,305.78c5-7.6,12.88-12.25,20.58-16.65.12-.07,0-.25-.11-.19-7.73,4.43-15.68,9.1-20.65,16.74-.07.11.11.22.18.1Z"/><path class="cls-9" d="M187.21,307.71A65.94,65.94,0,0,0,170.56,293c-1.6-1-3.71-1.92-5.27-.86s-1.59,3.12-2.93,4.21c-1.73,1.39-4.24.33-6.34-.39a14.07,14.07,0,0,0-10.22.15,9.83,9.83,0,0,0-5.93,8,5.2,5.2,0,0,0,2,4.75c1.21.78,2.74.79,4.12,1.2s2.81,1.59,2.53,3a10.83,10.83,0,0,1-.53,1.33,4,4,0,0,0,1.41,4.24,9.47,9.47,0,0,0,4.37,1.77c12.14,2.4,26-2.8,33.47-12.68"/><path class="cls-8" d="M186.65,306.84a19.47,19.47,0,0,1-13.61-.67c-4-1.55-7.78-3.64-12-4.68-.13,0-.19.17-.06.2,4.69,1.16,8.85,3.64,13.39,5.19a18.69,18.69,0,0,0,12.33.17c.12-.05.07-.25-.06-.21Z"/><path class="cls-8" d="M186.36,307c-4.8,3.2-10.71,2.39-16.13,1.7q-9.48-1.23-19-2c-.14,0-.14.2,0,.21,6.81.56,13.6,1.33,20.38,2.17,5,.63,10.43,1.05,14.86-1.9.11-.08,0-.26-.11-.18Z"/><path class="cls-8" d="M186.34,307c-3.8,3.17-7.43,5.69-12.41,6.45-3.46.53-7,.89-9.54,3.56a.1.1,0,0,0,.15.14c3.29-3.48,8.19-2.89,12.44-4.11,3.66-1,6.64-3.5,9.51-5.89.1-.09-.05-.24-.15-.15Z"/><path class="cls-9" d="M186.51,306.62a66,66,0,0,1,16.66-14.73c1.6-1,3.71-1.91,5.27-.85s1.59,3.12,2.93,4.2c1.73,1.4,4.24.34,6.34-.39a14.18,14.18,0,0,1,10.22.15,9.85,9.85,0,0,1,5.93,8,5.18,5.18,0,0,1-2,4.75c-1.21.79-2.74.79-4.12,1.2s-2.81,1.59-2.53,3a10.83,10.83,0,0,0,.53,1.33,4,4,0,0,1-1.42,4.23A9.51,9.51,0,0,1,220,319.3c-12.14,2.39-26-2.81-33.48-12.68"/><path class="cls-8" d="M187.08,305.75a19.53,19.53,0,0,0,13.61-.68c4-1.55,7.78-3.63,12-4.67a.1.1,0,1,1,0,.2c-4.68,1.16-8.84,3.64-13.38,5.18A18.69,18.69,0,0,1,187,306a.1.1,0,0,1,.06-.2Z"/><path class="cls-8" d="M187.37,305.93c4.8,3.2,10.71,2.4,16.12,1.7q9.48-1.22,19-2c.13,0,.13.2,0,.21-6.81.55-13.6,1.32-20.38,2.17-5,.63-10.44,1-14.86-1.91-.11-.07,0-.25.11-.18Z"/><path class="cls-8" d="M187.39,305.94c3.8,3.17,7.43,5.69,12.41,6.45,3.45.53,7,.89,9.54,3.56.09.1-.05.25-.15.15-3.3-3.48-8.19-2.9-12.45-4.11-3.65-1.05-6.63-3.51-9.5-5.9-.1-.09,0-.23.15-.15Z"/><path d="M187.21,307.25A158,158,0,0,0,170.87,282c-6.57-8.29-14.11-15.71-21.7-23.06a93.4,93.4,0,0,0-13.34-11c-.28-.18-.54.27-.26.45,8.72,5.83,16.09,13.42,23.4,20.9a163.93,163.93,0,0,1,19.29,23.71,158,158,0,0,1,8.5,14.42c.15.3.6,0,.45-.26Z"/><path class="cls-10" d="M135.62,248.69a2.85,2.85,0,0,0,.22-2.36,2.39,2.39,0,0,0-.82-1.42c-.4-.28-.92-.35-1.29-.66s-.59-.93-1.08-1.08l.47,1.14c.07.15.11.36,0,.44a.32.32,0,0,1-.17,0l-1-.08.22.44-1,.16.12.37h-1.4a.6.6,0,0,0-.42.1c-.25.23,0,.62.29.83l1.81,1.45a5.21,5.21,0,0,0,1.89,1.12,1.81,1.81,0,0,0,2-.6"/><path class="cls-10" d="M139.76,250.94a2.64,2.64,0,0,1-1-2.5,9.49,9.49,0,0,1,.61-1.69,2.32,2.32,0,0,0,.11-1.75l.35,1.05a.39.39,0,0,0,.08.14c.12.12.33,0,.41-.17s.12-.35.28-.43.48.11.54.35,0,.49,0,.73a.33.33,0,0,0,.14.26c.12.08.27,0,.41,0a.89.89,0,0,1,.69-.08.57.57,0,0,1,.28.58,1.5,1.5,0,0,1-.23.64,7,7,0,0,1-1.24,1.86,2.51,2.51,0,0,1-2,.77"/><path class="cls-10" d="M139.56,250.78a2.81,2.81,0,0,0-3.15-.18,9.7,9.7,0,0,0-1.3,1.1,2.23,2.23,0,0,1-1.52.65,1.12,1.12,0,0,1,1.48.81c0,.06,0,.14.08.17s.25-.11.39-.13a.38.38,0,0,1,.28.11l.52.43a2.52,2.52,0,0,1,.81.91,4,4,0,0,1,.53-1c.14-.17.31-.31.46-.47a2.76,2.76,0,0,0,.57-2.8"/><path class="cls-10" d="M142.78,253.47a2.39,2.39,0,0,1,.3-2.35c.31-.41.76-.71,1.11-1.09a1.56,1.56,0,0,0,.51-1.4A4.59,4.59,0,0,0,145,250a.85.85,0,0,0,.37-.38c.26.12.16.52.3.77s.49.29.77.32.64.16.68.45-.16.42-.34.57a6.41,6.41,0,0,1-2,1.36,5.89,5.89,0,0,1-2.37.19"/><path class="cls-10" d="M143,253.41a1.32,1.32,0,0,0-1.6,0,7.44,7.44,0,0,0-1.18,1.26,2.06,2.06,0,0,1-1.44.86.44.44,0,0,1,.52.33.38.38,0,0,0,0,.19c.13.14.35-.08.52,0a.66.66,0,0,1,.15.14,3.77,3.77,0,0,0,1.55,1.24.49.49,0,0,0,.29.05c.17,0,.26-.21.34-.37.18-.4.36-.81.53-1.22a3.86,3.86,0,0,0,.39-1.36,1.34,1.34,0,0,0-.55-1.23"/><path d="M187.26,307.39a158.49,158.49,0,0,0-1.24-30c-1.44-10.49-4.16-20.7-7-30.9a93.5,93.5,0,0,0-5.92-16.2c-.14-.31-.6-.05-.45.25,4.54,9.45,7,19.74,9.51,29.89a164.27,164.27,0,0,1,4.55,30.22,161.35,161.35,0,0,1,0,16.75c0,.33.5.34.52,0Z"/><path class="cls-10" d="M172.64,230.73a2.87,2.87,0,0,0,1.39-1.92,2.37,2.37,0,0,0,0-1.64c-.2-.44-.61-.76-.77-1.22s0-1.1-.38-1.48l-.18,1.23c0,.15-.09.36-.25.35a.33.33,0,0,1-.16-.07l-.81-.56,0,.48-.94-.37-.09.38-1.19-.72a.62.62,0,0,0-.42-.13c-.33.08-.29.55-.17.87l.82,2.17a5.21,5.21,0,0,0,1.05,1.92,1.82,1.82,0,0,0,2,.48"/><path class="cls-10" d="M175.06,234.78a2.62,2.62,0,0,1,.37-2.69,8.45,8.45,0,0,1,1.38-1.14,2.33,2.33,0,0,0,1-1.45l-.23,1.07a.49.49,0,0,0,0,.17c0,.16.3.15.45.06s.28-.24.45-.23.36.34.29.57a5.72,5.72,0,0,1-.32.66.4.4,0,0,0,0,.3.49.49,0,0,0,.37.18.82.82,0,0,1,.64.29.6.6,0,0,1,0,.64,1.73,1.73,0,0,1-.53.43,7,7,0,0,1-2,1,2.52,2.52,0,0,1-2.14-.37"/><path class="cls-10" d="M175,234.54a2.84,2.84,0,0,0-2.63-1.77,10.85,10.85,0,0,0-1.67.3,2.24,2.24,0,0,1-1.65-.22,1.12,1.12,0,0,1,.87,1.45.25.25,0,0,0,0,.19c.06.13.27,0,.4.08a.34.34,0,0,1,.18.24l.24.63a2.65,2.65,0,0,1,.23,1.2,3.66,3.66,0,0,1,1-.56c.21-.07.42-.11.63-.17a2.78,2.78,0,0,0,1.92-2.12"/><path class="cls-10" d="M176.37,238.49a2.39,2.39,0,0,1,1.45-1.87,12.79,12.79,0,0,1,1.51-.37,1.56,1.56,0,0,0,1.15-.95,4.45,4.45,0,0,0-.44,1.38.77.77,0,0,0,.51-.15c.17.24-.13.54-.13.83s.27.49.5.67.47.45.36.72-.36.28-.59.33a6.69,6.69,0,0,1-2.44.13,5.87,5.87,0,0,1-2.13-1"/><path class="cls-10" d="M176.62,238.57a1.31,1.31,0,0,0-1.39-.8,6.49,6.49,0,0,0-1.65.48,2.16,2.16,0,0,1-1.69,0,.42.42,0,0,1,.28.54c0,.07-.06.13,0,.2s.33.1.45.24a.32.32,0,0,1,0,.19,3.89,3.89,0,0,0,.71,1.86.5.5,0,0,0,.22.19.54.54,0,0,0,.48-.14l1.09-.78a4.14,4.14,0,0,0,1-1,1.42,1.42,0,0,0,.15-1.35"/><path d="M186.59,306.76A158.56,158.56,0,0,1,192,277.22c2.9-10.18,7-19.91,11.2-29.62a95.41,95.41,0,0,1,8.13-15.22c.19-.28.6,0,.41.32-5.82,8.72-9.72,18.56-13.59,28.27a163.24,163.24,0,0,0-8.74,29.28,159.68,159.68,0,0,0-2.32,16.58c0,.34-.55.27-.52-.07Z"/><path class="cls-10" d="M211.8,232.9a2.83,2.83,0,0,1-1.11-2.09,2.47,2.47,0,0,1,.21-1.63c.26-.4.72-.67.94-1.1s.19-1.09.59-1.41v1.24c0,.16,0,.37.2.38a.26.26,0,0,0,.17,0l.87-.44,0,.48,1-.23,0,.39,1.29-.55a.55.55,0,0,1,.43-.06c.32.11.21.58,0,.87l-1.12,2A5.2,5.2,0,0,1,214,232.5a1.81,1.81,0,0,1-2.05.19"/><path class="cls-10" d="M208.83,236.57a2.59,2.59,0,0,0,0-2.71,8.41,8.41,0,0,0-1.21-1.33,2.29,2.29,0,0,1-.76-1.57l.07,1.1a.29.29,0,0,1,0,.16c-.07.16-.32.11-.45,0s-.25-.27-.42-.29-.4.28-.37.53a5.63,5.63,0,0,0,.24.69.39.39,0,0,1,0,.3c-.08.12-.25.13-.39.13a.86.86,0,0,0-.67.19.59.59,0,0,0,0,.65,1.78,1.78,0,0,0,.45.5,7.25,7.25,0,0,0,1.87,1.24,2.53,2.53,0,0,0,2.17-.07"/><path class="cls-10" d="M209,236.35A2.81,2.81,0,0,1,211.8,235a10.53,10.53,0,0,1,1.62.52,2.22,2.22,0,0,0,1.66,0,1.12,1.12,0,0,0-1.07,1.31c0,.07,0,.14,0,.19s-.27,0-.41,0-.16.12-.21.21l-.32.59a2.48,2.48,0,0,0-.4,1.16,3.78,3.78,0,0,0-.86-.69c-.2-.1-.41-.17-.61-.26a2.78,2.78,0,0,1-1.59-2.37"/><path class="cls-10" d="M207,240.06a2.41,2.41,0,0,0-1.18-2.05,14.13,14.13,0,0,0-1.45-.58,1.57,1.57,0,0,1-1-1.1,4.32,4.32,0,0,1,.24,1.42.73.73,0,0,1-.48-.21c-.2.21,0,.55,0,.84s-.34.45-.6.59-.53.38-.45.67.31.32.53.4a6.67,6.67,0,0,0,2.4.48,6,6,0,0,0,2.26-.74"/><path class="cls-10" d="M206.76,240.11a1.31,1.31,0,0,1,1.48-.6,6.39,6.39,0,0,1,1.58.71,2.13,2.13,0,0,0,1.66.24.43.43,0,0,0-.35.5.46.46,0,0,1,0,.2c-.06.17-.35.06-.48.18a.38.38,0,0,0-.09.18,3.79,3.79,0,0,1-1,1.74.54.54,0,0,1-.24.16c-.17,0-.33-.09-.46-.21l-1-.93a3.92,3.92,0,0,1-.89-1.1,1.4,1.4,0,0,1,0-1.36"/><polygon class="cls-10" points="255.5 180.6 234.72 160.84 215.36 174.11 234.11 200.28 255.5 180.6"/><path class="cls-10" d="M233.28,195.25c-5.43,3.88-11.7,4.17-18,2.42-7.31-2-13.13-8.32-21.24-4.93-1.49.62-2.61-1.64-1.11-2.26,5.2-2.18,10.73-1.2,15.64,1.29,3.62,1.83,6.75,3.56,10.82,4.17a16.05,16.05,0,0,0,12.25-2.57c1.3-.94,3,.94,1.66,1.88Z"/><path class="cls-10" d="M231.73,164.58c-1.19-5,.93-12.82,5.9-15.21,5.39-2.59,12.88,2.2,17.14,5.14,5,3.43,10.09,8.59,9.1,15.17-.44,3-2.29,5.21-4.47,7.14a16,16,0,0,1-3.34,2.38c-1.61.81-3.35.75-5,1.32-1.51.51-2.64-1.74-1.1-2.26,1.92-.66,3.88-.66,5.68-1.73,2.2-1.3,4.68-3.55,5.51-6,1.81-5.43-2.82-10.3-6.8-13.22-3.58-2.62-8.4-5.78-13-6.06-5.82-.36-8.22,8.36-7.14,12.87.37,1.58-2.1,2.07-2.47.49Z"/><path class="cls-11" d="M290.39,51.44c-2.54,1.54-4.27,4.12-5.72,6.71a26.89,26.89,0,0,0-2.88,6.79,12.73,12.73,0,0,0,.22,7.29c.56,1.53,1.5,2.93,1.72,4.54.44,3.09-1.85,6.09-1.35,9.17a14.27,14.27,0,0,0,1.79,4.11c1.09,2.09,1.8,4.56,1.06,6.8a15.51,15.51,0,0,0,10.26-1.95,7.82,7.82,0,0,1,1.65-.85,11.8,11.8,0,0,1,3.15-.15,12,12,0,0,0,4.21-1.13,15.11,15.11,0,0,0,4.12-2.38,6.16,6.16,0,0,0,2.2-4.1"/><path class="cls-12" d="M301.88,81.93c1.23,3.18,3.92,6.44,3.22,9.78-.45,2.19-2.17,5.07-3,7.16-1.82,4.93-3.74,9.61-4.3,14.82a1.17,1.17,0,0,0,.07.72,1.12,1.12,0,0,0,.71.47c7,2.4,14.61,1.85,21.86.47a34.07,34.07,0,0,0,7.88-2.28,1.17,1.17,0,0,0,.63-.52,1.14,1.14,0,0,0,0-.66c-1-5.33-3.12-9.43-6-14-1.84-2.9-5.26-6.79-6.91-9.8-3.95-7.2-1.95-15.89-4.89-23.56a.66.66,0,0,0-1.14-.36,69.56,69.56,0,0,0-6.49,4.11"/><path class="cls-13" d="M295.23,146.89l-7.14-.62a199.18,199.18,0,0,0-21.28-1.13,31.34,31.34,0,0,0-7.1.78c-1.63.41-3.2,1.05-4.85,1.38a26.89,26.89,0,0,0-4.74.95,11.48,11.48,0,0,0-4,3.07,5,5,0,0,0-1.68,3.17c0,1.22,1.3,2.46,2.4,1.92.3,1.4,1.83,2.1,3.18,2.59l2.59,1a3.33,3.33,0,0,0,1.12.26c1,0,1.68-.87,2.28-1.63a15,15,0,0,1,5.34-4.61c3.27-1.47,7.06-.91,10.61-.36,9.75,1.5,19.67,2.67,29.44,1.36"/><path class="cls-12" d="M310.92,198.8l-.33,9.84c-.57,16.61-1.13,33.24-.58,49.85.26,7.89.78,15.78,1.29,23.66l1.22,18.68a41.48,41.48,0,0,1-.13,9.71c-1.57,9-9.19,16.18-17.79,19.42.66,2.1,3.28,2.84,5.48,2.8,8.74-.18,15.72-7,21.71-13.36a4,4,0,0,0,1.11-1.66,4.39,4.39,0,0,0-.27-2.28c-3.26-11.33,2-23.15,3.54-34.83,1.61-12.1-.78-24.38-.22-36.57.9-19.27,9.14-37.95,7.8-57.19"/><path class="cls-14" d="M322.32,313.21c-2.29,3.29-3.94,7.82-6.76,10.66a26.06,26.06,0,0,1-9.93,6.53,11.56,11.56,0,0,1-6.6.47c-1.62-.42-3.1-1.35-4.76-1.55a5.82,5.82,0,0,0-6.07,4.11,1.19,1.19,0,0,0,0,.72,1.28,1.28,0,0,0,.69.62c3.65,1.82,8,1.37,12,.83a36.56,36.56,0,0,0,7.34-1.53c5.23-1.84,9.43-5.89,14.56-8a6.67,6.67,0,0,0,2.31-1.27,4.51,4.51,0,0,0,1-3.25c0-3.06-1.36-6.54-3.81-8.36"/><path class="cls-15" d="M337.57,183.67a74,74,0,0,0,5.63,24.45,18.62,18.62,0,0,1-6,2.46,81.49,81.49,0,0,1-14.77,3.16c-1.88.17-3.77.21-5.66.24l-6.74.13c-.62-11.68-1.23-23.46.49-35"/><path class="cls-13" d="M292.71,196.46C285.18,211,281.05,227.09,277,243a20.32,20.32,0,0,0-.88,5.67c.12,2.93,1.51,5.63,2.87,8.22l24.5,46.73a53.51,53.51,0,0,1,3.28,7.09A27,27,0,0,1,300,338.5c3.67,2.07,8.27,0,11.69-2.5a55,55,0,0,0,12.54-12.62c1.2-1.69,2.35-3.82,1.56-5.74a7.58,7.58,0,0,0-2.42-2.66c-5.92-4.9-9.44-12.12-11.85-19.42s-3.89-14.9-6.65-22.08a65.65,65.65,0,0,0-8.14-15c-1.61-2.2-3.39-4.4-4.05-7.05-1.08-4.4,1.17-8.86,3.36-12.84l23.38-42.48"/><path class="cls-14" d="M322.13,313.89c-1.25,4-1.48,8.95-3.39,12.63a26.85,26.85,0,0,1-7.83,9.53,12.15,12.15,0,0,1-6.42,2.53c-1.74.08-3.5-.38-5.21-.06a6,6,0,0,0-4.76,6,1.28,1.28,0,0,0,.19.72,1.32,1.32,0,0,0,.88.4c4.2.66,8.37-1.13,12.23-2.93a38.11,38.11,0,0,0,6.82-3.78c4.62-3.45,7.53-8.75,12-12.42a6.65,6.65,0,0,0,1.89-2,4.59,4.59,0,0,0,0-3.53c-1-3-3.4-6.05-6.4-7.08"/><path class="cls-11" d="M325.92,147.36q3.16,5.16,6.1,10.46c4,7.29,7.87,15.31,6.9,23.58-.52,4.47-2.42,8.65-3.68,13a46.2,46.2,0,0,0-1.39,19.32l-12.42-1.39a118,118,0,0,1-15.67-2.47,58.7,58.7,0,0,1-18-8,204.1,204.1,0,0,0,10-23.61,37.31,37.31,0,0,0,2.33-9.3c.26-3.18-.23-6.37-.32-9.55s.27-6.53,2-9.2"/><path class="cls-15" d="M302.93,165c1.72.25,3.34-.72,5-1.34,3-1.15,6.3-1.12,9.51-1.08,3.78.06,8.05.33,10.51,3.2a4.36,4.36,0,0,1,1.13,2.57c.09,2.33-2.62,4.06-4.9,3.58-.79-.17-1.68-.51-2.33,0a1.91,1.91,0,0,0-.38,2.12,5.85,5.85,0,0,1,.58,2.21,2.61,2.61,0,0,1-2.13,2.14,7.59,7.59,0,0,1-3.21-.19,34.7,34.7,0,0,1-8.52-2.52,11.91,11.91,0,0,1-6.12-6.18c-.58-1.55-.62-3.53.64-4.61"/><path class="cls-16" d="M306.14,106.27a32.74,32.74,0,0,1-6.43,4.38,5.85,5.85,0,0,0-1.89,1.28,5.71,5.71,0,0,0-.82,1.59q-1.78,4.77-3.26,9.65a14.86,14.86,0,0,0-.81,4.06,15.19,15.19,0,0,0,.9,4.74q1.5,4.82,3.37,9.49a24.1,24.1,0,0,1,2,6.82c0,.46.08,1,.47,1.25a1.45,1.45,0,0,0,.62.19l10.82,1.52a25.26,25.26,0,0,0,7.74.21l7-.66a1.21,1.21,0,0,0,1-.39,1.24,1.24,0,0,0,.14-.76c-.16-8.84,5.33-17.13,4.78-25.94a29.17,29.17,0,0,0-.78-4.82,56.66,56.66,0,0,0-2.53-8,1.05,1.05,0,0,0-1.18-.8c-4.55-.38-8.8-2.36-12.93-4.3"/><path class="cls-17" d="M319.26,109.87c3.23,3.59,7.43,7,8,11.77.43,3.71-1.5,7.29-1.69,11-.27,5.1,2.62,10.59.15,15.06a8.88,8.88,0,0,1-6.36,4.15,17.28,17.28,0,0,1-7.74-.77A14.63,14.63,0,0,1,306,148.3a18.51,18.51,0,0,1-3.3-4.29l-4.8-7.69a20.91,20.91,0,0,1-2.38-4.63,15.57,15.57,0,0,1,.12-8.4c1.48-5.89,5.38-11.74,11.29-13.12"/><path class="cls-16" d="M291,146.81c.08-1.84,2.21-2.72,3.5-4s1.8-3.32,2.2-5.17c.61-2.78,1.21-5.57,1.65-8.38,1.46-9.12,1.43-18.83,6-26.87,1.38-2.44,3.36-4.8,6.09-5.45a7.85,7.85,0,0,1,6.22,1.39,13.64,13.64,0,0,1,4.11,5,30.46,30.46,0,0,1,2.87,14.29,144.31,144.31,0,0,1-1.4,14.65c-.63,5.42-1,10.91-2.39,16.2s-3.95,10.44-8.19,13.88a13.14,13.14,0,0,1-4.51,2.49c-4,1.18-8.21-.18-12.13-1.52a71,71,0,0,0-4.41-16.83"/><path class="cls-13" d="M291.49,51.25a15.87,15.87,0,0,0-3,19.74,9.3,9.3,0,0,1,.9,1.71c.63,1.79-.15,3.74-1,5.42a.73.73,0,0,0-.11.47.55.55,0,0,0,.23.29c.61.46,1.45.53,2.07,1a4.08,4.08,0,0,1,1.14,1.62A52.06,52.06,0,0,0,296,88.74a3.42,3.42,0,0,0,1.13,1.14,2.51,2.51,0,0,0,2.37-.21A9.31,9.31,0,0,0,301.37,88c1.26-1.32,2.66-2.51,3.9-3.86a22.37,22.37,0,0,0,.35-30,10.6,10.6,0,0,0-4-3,13.85,13.85,0,0,0-5.52-.54"/><path class="cls-11" d="M288.81,52.28c-1.87,2.35-3.86,6.39-1.07,9.85,1.89,2.33,6.3,3,9.12,3.94s5.57,1.36,6.29,4.29a2.93,2.93,0,0,1,3.76-2.23,4,4,0,0,1,2.15,2.48,17.83,17.83,0,0,1,.65,3.33,23.46,23.46,0,0,0,1.37,5,8.88,8.88,0,0,0,3.46,4.6c1.68,1,4.14.78,5.22-.86.34-.51.52-1.12.86-1.63,1.15-1.79,3.59-2,5.6-2.62a8.17,8.17,0,0,0,5.24-4.82A5.9,5.9,0,0,0,329.57,67c-1.55-1.08-3.61-1.19-5.18-2.24-1.78-1.18-2.65-3.32-3.23-5.39s-1-4.24-2.29-6A13.35,13.35,0,0,0,317.6,52c-2.77-2.8-5.94-5.51-9.79-6.23a14.48,14.48,0,0,0-3.89-.16c-5.35.38-11.09,2-14.64,6.05a3.79,3.79,0,0,0-.47.65"/><path class="cls-14" d="M306.4,74.24c-.11.71-.27,1.55-.38,2.26a7.7,7.7,0,0,0-.08,2.79,2.59,2.59,0,0,0,1.73,2,.58.58,0,0,0,.37,0,.51.51,0,0,0,.25-.23,3,3,0,0,0,.45-2,5.53,5.53,0,0,0-.56-2,22.86,22.86,0,0,0-1.78-2.77"/><path class="cls-5" d="M110,75.56h48.47s2.79,32.24-24.24,32.17C107.93,107.66,109.18,77.58,110,75.56Z"/><path class="cls-18" d="M134.15,107.88c21.64.05,24.16-20.6,24.31-28.84L111.94,92.78C114.86,100.47,121.13,107.84,134.15,107.88Z"/><path class="cls-19" d="M134.34,78.58c-.89-4.91,2.83-10.24,6-13.7a37.4,37.4,0,0,1,9.89-7.51c7.45-4,20.39-8.08,26.08.76,1.92,3,2.72,6.54,4.62,9.53,1.75,2.75,4.29,4.23,7.22,5.49,8.11,3.5,16.06,8.9,17,18.5,0,.16.27.16.26,0-.61-6.25-4.48-11.37-9.55-14.87-3.16-2.18-6.76-3.23-10.1-5-3.9-2.12-5.45-5.6-7.11-9.48-1.15-2.69-2.39-5.45-4.8-7.24a13.9,13.9,0,0,0-8.51-2.34c-7.31.09-14.76,3.5-20.52,7.83-5.09,3.83-12,11.14-10.74,18.14,0,.16.28.09.25-.07Z"/><path class="cls-20" d="M138.53,62a27.75,27.75,0,0,1-1.75-7.54A13.23,13.23,0,0,1,138.36,47a20.16,20.16,0,0,1,4-4.49c.83-.78,1.89-1.61,3-1.3,1.38.39,1.66,2.19,1.68,3.62.05,3.38.08,6.85-1,10.06s-3.5,6.17-6.79,7"/><path class="cls-21" d="M142.84,49a28.41,28.41,0,0,0-4.25,17.35c0,.16.27.16.26,0a28.27,28.27,0,0,1,4.21-17.22c.09-.14-.13-.27-.22-.13Z"/><path class="cls-20" d="M139.52,70.58a27.59,27.59,0,0,0,7.69-.84,13.21,13.21,0,0,0,6.55-4,20.66,20.66,0,0,0,2.93-5.23c.45-1,.89-2.33.23-3.26-.82-1.17-2.61-.84-4-.39-3.21,1.07-6.49,2.19-9.16,4.26s-4.67,5.34-4.33,8.71"/><path class="cls-21" d="M150.33,62.23a28.45,28.45,0,0,1-15,9.74c-.16,0-.25-.2-.09-.24a28.2,28.2,0,0,0,14.85-9.67.13.13,0,0,1,.2.17Z"/><path class="cls-20" d="M159.17,56.59a18.74,18.74,0,0,0,2.38,4.78,9.18,9.18,0,0,0,4.13,3.29,14.37,14.37,0,0,0,4.08.64c.79,0,1.72,0,2.16-.63.56-.81-.08-1.89-.7-2.66a20.93,20.93,0,0,0-4.94-4.91,7.06,7.06,0,0,0-6.67-.71"/><path class="cls-21" d="M167.15,61.59a19.64,19.64,0,0,1-9.88-7.34c-.06-.1.07-.21.14-.12a19.43,19.43,0,0,0,9.81,7.29.09.09,0,0,1-.07.17Z"/><path class="cls-20" d="M180.09,69a19.08,19.08,0,0,0-1.2,5.2,9.05,9.05,0,0,0,1.1,5.16,14.1,14.1,0,0,0,2.74,3.09c.58.53,1.31,1.11,2.07.89.95-.27,1.14-1.51,1.15-2.5a20.67,20.67,0,0,0-.7-6.93,7.07,7.07,0,0,0-4.69-4.79"/><path class="cls-21" d="M183.08,77.94a19.59,19.59,0,0,1-3-12c0-.11.19-.12.18,0a19.43,19.43,0,0,0,2.93,11.86.09.09,0,0,1-.15.09Z"/><path class="cls-20" d="M190.48,77.2a18.79,18.79,0,0,0-1.2,5.21,9.05,9.05,0,0,0,1.1,5.16,14.1,14.1,0,0,0,2.74,3.09c.58.53,1.31,1.11,2.07.89.95-.27,1.14-1.51,1.15-2.5a20.67,20.67,0,0,0-.7-6.93A7.07,7.07,0,0,0,191,77.33"/><path class="cls-21" d="M193.47,86.14a19.59,19.59,0,0,1-3-12,.09.09,0,1,1,.18,0,19.43,19.43,0,0,0,2.93,11.86.09.09,0,0,1-.15.09Z"/><path class="cls-20" d="M200.73,84.55a19.07,19.07,0,0,0-1.19,5.2,9.13,9.13,0,0,0,1.09,5.16,14,14,0,0,0,2.75,3.1c.57.53,1.31,1.1,2.06.89.95-.28,1.15-1.52,1.16-2.5a20.64,20.64,0,0,0-.7-6.93,7.06,7.06,0,0,0-4.69-4.8"/><path class="cls-21" d="M203.72,93.48a19.55,19.55,0,0,1-2.95-12c0-.11.18-.11.17,0a19.42,19.42,0,0,0,2.94,11.86c.06.1-.1.19-.16.09Z"/><path class="cls-20" d="M148.49,55.42A23.52,23.52,0,0,1,149.75,49a11.08,11.08,0,0,1,3.8-5.2,17.23,17.23,0,0,1,4.6-2.08c.91-.31,2-.58,2.75,0,.92.78.52,2.26,0,3.36a25.25,25.25,0,0,1-4.24,7.37c-1.93,2.09-4.81,3.53-7.62,3"/><path class="cls-21" d="M156.28,47A23.91,23.91,0,0,0,147,58.79c-.05.13.15.22.2.09a23.66,23.66,0,0,1,9.18-11.75c.11-.08,0-.25-.13-.18Z"/><path class="cls-20" d="M162.68,50.77a23.36,23.36,0,0,1,3.65-5.39,11.15,11.15,0,0,1,5.52-3.32,17.42,17.42,0,0,1,5.05-.12c.95.07,2.08.25,2.51,1.11.55,1.07-.39,2.27-1.26,3.1a25.33,25.33,0,0,1-6.77,5.14c-2.6,1.18-5.82,1.38-8.19-.2"/><path class="cls-21" d="M173.15,46A23.88,23.88,0,0,0,160,53.31c-.1.1,0,.26.15.16a23.69,23.69,0,0,1,13-7.25.11.11,0,0,0,0-.21Z"/><path class="cls-20" d="M180.22,56.82a23.26,23.26,0,0,1,6.13-2.19,11.12,11.12,0,0,1,6.41.61,17.12,17.12,0,0,1,4.14,2.89c.73.63,1.53,1.44,1.37,2.38-.19,1.19-1.66,1.6-2.86,1.75a25.29,25.29,0,0,1-8.5.13c-2.79-.6-5.5-2.34-6.47-5"/><path class="cls-21" d="M191.47,59.19a23.92,23.92,0,0,0-14.9-1.91c-.14,0-.11.24,0,.22a23.75,23.75,0,0,1,14.8,1.88c.12.06.21-.13.08-.19Z"/><path class="cls-20" d="M185.88,68.3A23.33,23.33,0,0,1,192,66.11a11.14,11.14,0,0,1,6.41.61,17.52,17.52,0,0,1,4.14,2.89c.72.63,1.52,1.44,1.37,2.38-.2,1.19-1.67,1.6-2.87,1.75a25.29,25.29,0,0,1-8.5.13c-2.78-.6-5.49-2.34-6.47-5"/><path class="cls-21" d="M197.14,70.67a24,24,0,0,0-14.91-1.91c-.13,0-.11.24,0,.22a23.65,23.65,0,0,1,14.79,1.89c.13.06.21-.14.09-.2Z"/><path class="cls-20" d="M200.94,77.51a23.26,23.26,0,0,1,6.13-2.19,11.12,11.12,0,0,1,6.41.61,17.12,17.12,0,0,1,4.14,2.89c.73.63,1.53,1.44,1.37,2.38-.19,1.19-1.66,1.6-2.86,1.75a25,25,0,0,1-8.5.13c-2.79-.59-5.5-2.34-6.47-5"/><path class="cls-21" d="M212.19,79.88A23.93,23.93,0,0,0,197.29,78c-.14,0-.11.24,0,.22a23.68,23.68,0,0,1,14.8,1.89c.12.06.21-.14.08-.2Z"/><path class="cls-20" d="M205.52,85.77a23,23,0,0,1,5.79,3,11.18,11.18,0,0,1,3.94,5.1,17.06,17.06,0,0,1,.72,5c.05,1,0,2.1-.79,2.63-1,.68-2.31-.12-3.24-.89A25.39,25.39,0,0,1,206,94.46c-1.47-2.44-2.05-5.61-.77-8.15"/><path class="cls-21" d="M211.49,95.59a24,24,0,0,0-8.8-12.17c-.12-.08-.26.08-.15.17a23.73,23.73,0,0,1,8.75,12.08c0,.13.24.06.2-.08Z"/><path class="cls-20" d="M169.92,53.94a23.33,23.33,0,0,1,6.45.86,11.09,11.09,0,0,1,5.43,3.47,17.48,17.48,0,0,1,2.36,4.46c.36.89.7,2,.13,2.75-.72,1-2.22.66-3.35.25A25.5,25.5,0,0,1,173.32,62c-2.2-1.8-3.82-4.59-3.46-7.42"/><path class="cls-21" d="M178.85,61.19a23.91,23.91,0,0,0-12.39-8.51c-.13,0-.21.16-.08.2a23.79,23.79,0,0,1,12.3,8.45c.08.11.25,0,.17-.14Z"/><path class="cls-19" d="M138.53,75.05c-1.45-3.76-6.41-5.71-10.19-6.64A31.6,31.6,0,0,0,118,67.75c-7.1.63-18.22,3.68-18.59,12.29-.12,2.91.82,5.69.71,8.59-.1,2.67-1.31,4.83-2.9,7-4.39,6-7.86,13.33-4.45,20.31.06.11-.13.23-.19.11-2.22-4.54-1.59-9.79.6-14.46,1.36-2.92,3.53-5.26,5.18-8,1.92-3.2,1.57-6.28,1.12-9.69-.31-2.35-.58-4.79.4-7.11A12.42,12.42,0,0,1,105,71.36c5.33-3.23,12.19-4.28,18.21-3.92,5.32.32,13.44,2.2,15.5,7.54,0,.13-.16.19-.21.07Z"/><path class="cls-20" d="M128.43,65.61a21.1,21.1,0,0,0-1.93-5.94,10.24,10.24,0,0,0-4.33-4.41A16.86,16.86,0,0,0,117.38,54a3,3,0,0,0-2.73.46c-.83.89-.27,2.25.32,3.23a23,23,0,0,0,5,6.42,8.49,8.49,0,0,0,7.89,1.7"/><path class="cls-21" d="M119.79,58.7a21.87,21.87,0,0,1,10.46,9.92c.06.12-.12.24-.18.12a21.73,21.73,0,0,0-10.38-9.85c-.13-.06,0-.25.1-.19Z"/><path class="cls-20" d="M131.37,71.92a24.89,24.89,0,0,1-5.93,2.9,11.42,11.42,0,0,1-6.44.25,16.06,16.06,0,0,1-4.35-2.25c-.77-.51-1.63-1.18-1.55-2.12.1-1.17,1.54-1.75,2.71-2.06a26.79,26.79,0,0,1,8.46-1.22c2.82.21,5.66,1.54,6.84,4"/><path class="cls-21" d="M120,71.1a24.45,24.45,0,0,0,15-.1c.14,0,.1-.25,0-.2a24.32,24.32,0,0,1-14.88.1.11.11,0,0,0-.07.2Z"/><path class="cls-20" d="M111.18,71.24a15,15,0,0,1,.3,4.34,7.73,7.73,0,0,1-1.6,4.11A12.79,12.79,0,0,1,107.2,82c-.55.39-1.24.79-1.84.55-.75-.3-.74-1.33-.62-2.13a17,17,0,0,1,1.5-5.59,6.31,6.31,0,0,1,4.53-3.5"/><path class="cls-21" d="M107.51,78.26a16.67,16.67,0,0,0,4-9.48.08.08,0,0,0-.15,0,16.5,16.5,0,0,1-4,9.4c-.06.08.06.16.12.09Z"/><path class="cls-20" d="M101.29,89.17a14.66,14.66,0,0,1,3.08,3,7,7,0,0,1,1.4,4,11.55,11.55,0,0,1-.68,3.35c-.19.63-.48,1.35-1.12,1.54-.8.25-1.47-.51-1.89-1.18a15.77,15.77,0,0,1-2.45-5A5.84,5.84,0,0,1,101,89.47"/><path class="cls-21" d="M102.92,96.62a15.09,15.09,0,0,0-2.94-9.5c0-.07-.18,0-.13.08a14.93,14.93,0,0,1,2.92,9.43c0,.09.15.08.15,0Z"/><path class="cls-20" d="M97.24,99.46a14.42,14.42,0,0,1,3.08,3,7,7,0,0,1,1.4,4,11.53,11.53,0,0,1-.67,3.35c-.19.63-.48,1.35-1.12,1.54-.8.25-1.47-.51-1.9-1.18a15.85,15.85,0,0,1-2.44-5A5.84,5.84,0,0,1,97,99.76"/><path class="cls-21" d="M98.88,106.91a15.09,15.09,0,0,0-2.94-9.5c-.06-.07-.19,0-.13.08a15,15,0,0,1,2.92,9.43c0,.09.14.08.15,0Z"/><path class="cls-20" d="M92.93,109.11a14.42,14.42,0,0,1,3.08,3,7,7,0,0,1,1.4,4,11.53,11.53,0,0,1-.67,3.35c-.19.63-.48,1.35-1.12,1.54-.81.25-1.47-.51-1.9-1.18a15.64,15.64,0,0,1-2.44-5,5.84,5.84,0,0,1,1.36-5.39"/><path class="cls-21" d="M94.56,116.56a15.09,15.09,0,0,0-2.94-9.5c-.05-.07-.18,0-.13.08a14.93,14.93,0,0,1,2.92,9.43c0,.09.15.08.15,0Z"/><path class="cls-20" d="M118.41,65.62a17.88,17.88,0,0,0-3.62-3.8,9.08,9.08,0,0,0-5-1.84,14.92,14.92,0,0,0-4.22.66c-.79.2-1.71.51-2,1.27-.34.94.58,1.77,1.4,2.31a20,20,0,0,0,6.21,3.12A7.61,7.61,0,0,0,118,66"/><path class="cls-21" d="M109.17,63.35a19.43,19.43,0,0,1,11.74,3.91c.09.07,0,.22-.1.15a19.32,19.32,0,0,0-11.66-3.88c-.12,0-.1-.18,0-.18Z"/><path class="cls-20" d="M106.15,68.85a18.94,18.94,0,0,0-4.94-2A9.68,9.68,0,0,0,95.8,67a15.66,15.66,0,0,0-3.71,2.2c-.67.48-1.4,1.11-1.36,1.89.06,1,1.26,1.38,2.24,1.55a21.46,21.46,0,0,0,7.1.45,7.76,7.76,0,0,0,5.85-3.83"/><path class="cls-21" d="M96.53,70.33a20.78,20.78,0,0,1,12.63-1,.09.09,0,0,1,0,.18,20.67,20.67,0,0,0-12.53.93c-.11.05-.17-.12-.06-.16Z"/><path class="cls-20" d="M96,80.9a20.82,20.82,0,0,0-5.37,1.28,10,10,0,0,0-4.39,3.31,14.71,14.71,0,0,0-1.77,3.84c-.26.76-.5,1.67,0,2.25s1.89.34,2.82-.1a23,23,0,0,0,6.21-3.75c1.77-1.67,3-4.08,2.56-6.35"/><path class="cls-21" d="M88.85,87.6a21.57,21.57,0,0,1,10-8,.09.09,0,1,1,.07.16,21.35,21.35,0,0,0-9.92,8,.09.09,0,0,1-.15-.1Z"/><path class="cls-20" d="M96.78,91.3a20.72,20.72,0,0,0-5.37,1.28A10,10,0,0,0,87,95.89a14.71,14.71,0,0,0-1.77,3.84c-.27.76-.5,1.67,0,2.25s1.88.33,2.82-.1a23,23,0,0,0,6.21-3.75c1.77-1.67,3-4.08,2.56-6.35"/><path class="cls-21" d="M89.63,98a21.57,21.57,0,0,1,10-8,.09.09,0,1,1,.07.16,21.35,21.35,0,0,0-9.92,8,.09.09,0,0,1-.15-.1Z"/><path class="cls-20" d="M89.78,104.39a20.72,20.72,0,0,0-5.37,1.28A10,10,0,0,0,80,109a14.71,14.71,0,0,0-1.77,3.84c-.26.76-.5,1.67,0,2.25s1.89.34,2.82-.1a23,23,0,0,0,6.21-3.75c1.77-1.67,3-4.08,2.56-6.35"/><path class="cls-21" d="M82.63,111.09a21.57,21.57,0,0,1,10-8,.09.09,0,1,1,.07.16,21.35,21.35,0,0,0-9.92,8,.09.09,0,0,1-.15-.1Z"/><path class="cls-20" d="M90,112.1a19.89,19.89,0,0,0-2.93,4.65,9.07,9.07,0,0,0-.7,5.26,13.29,13.29,0,0,0,1.6,3.74c.38.67.9,1.43,1.7,1.43,1,0,1.62-1.12,2-2.07a21.05,21.05,0,0,0,1.68-6.84,6.6,6.6,0,0,0-2.91-5.92"/><path class="cls-21" d="M89.83,121.51A19.41,19.41,0,0,1,91,109.22c0-.11.22-.06.18,0a19.13,19.13,0,0,0-1.2,12.2c0,.11-.16.15-.18,0Z"/><path class="cls-20" d="M102.25,74.28a21.17,21.17,0,0,0-4.31,3.5,9.57,9.57,0,0,0-2.46,4.82,13.56,13.56,0,0,0,.19,4.12c.11.77.33,1.66,1.07,1.93.93.34,1.89-.55,2.53-1.34a22.11,22.11,0,0,0,3.92-6c.83-2.22.82-4.86-.64-6.63"/><path class="cls-21" d="M98.86,83.27a20.54,20.54,0,0,1,5.36-11.41c.08-.08.22,0,.14.11A20.36,20.36,0,0,0,99,83.28a.09.09,0,0,1-.18,0Z"/><path d="M134.72.18a.26.26,0,0,0-.43-.11.25.25,0,0,0-.41.11q-11.62,38-24.27,75.66c-.11.31.39.45.49.14Q122.66,38.57,134.21.86l-.12,43.43Q134,62.74,134,81.17v5.3H110.4V87H134v20.76a.26.26,0,0,0,.51,0q0-10.38,0-20.76h23.26v-.5H134.52q0-12.14,0-24.26.06-18.47.11-36.92,0-8.1,0-16.2c0-2.07.26-4.38.19-6.55.11.37.21.65.23.7q1.56,5.12,3.16,10.22,3.25,10.45,6.58,20.89Q151.52,55.22,158.5,76c.1.31.6.17.49-.14Q146.35,38.17,134.72.18Z"/><path class="cls-19" d="M138.15,75.67c2.94-4.17,7.87-7.31,13.11-5.79s8,6.32,9,11.27c.92,4.75,1.51,10.6.29,15.35-1.16,4.5-3.63,8.47-4.62,13.08a42.91,42.91,0,0,0,2.63,25.65c3.92,9.46,9.61,18.45,8.51,29.12,0,.17.24.17.26,0,.87-8.5-2.56-16.25-6.09-23.77-4-8.54-6.74-17-5.75-26.57a44.34,44.34,0,0,1,3.79-13.38,23.51,23.51,0,0,0,2.09-10.49c-.18-6.64-.68-14.55-6.56-18.79s-13-1.31-16.86,4.19c-.1.13.13.26.22.13Z"/><path class="cls-20" d="M144.8,69.34a17.17,17.17,0,0,1,3-3.9,8.6,8.6,0,0,1,4.33-2.28,13.44,13.44,0,0,1,3.85.09c.72.09,1.57.26,1.87.91.38.82-.38,1.69-1.08,2.28A19.25,19.25,0,0,1,151.4,70a6.66,6.66,0,0,1-6.23-.44"/><path class="cls-21" d="M153,66.15a18.45,18.45,0,0,0-10.28,5c-.07.07,0,.19.11.12a18.29,18.29,0,0,1,10.2-5c.11,0,.08-.17,0-.16Z"/><path class="cls-20" d="M158.61,72.12A17.14,17.14,0,0,1,163.39,71a8.57,8.57,0,0,1,4.79,1,13.43,13.43,0,0,1,2.91,2.52c.51.53,1,1.2.87,1.9-.23.87-1.37,1-2.28,1.06a19.5,19.5,0,0,1-6.42-.63,6.67,6.67,0,0,1-4.52-4.31"/><path class="cls-21" d="M166.93,74.85a18.51,18.51,0,0,0-11.1-2.7c-.11,0-.1.17,0,.16a18.26,18.26,0,0,1,11,2.69c.09,0,.17-.09.08-.15Z"/><path class="cls-20" d="M163.19,85.1A17.45,17.45,0,0,1,168,86.22a8.55,8.55,0,0,1,3.86,3,13.93,13.93,0,0,1,1.5,3.55,2.23,2.23,0,0,1-.06,2.09c-.6.68-1.7.34-2.52-.06a19.37,19.37,0,0,1-5.48-3.4,6.68,6.68,0,0,1-2.15-5.86"/><path class="cls-21" d="M169.44,91.23a18.47,18.47,0,0,0-8.77-7.33c-.09,0-.16.11-.07.15a18.29,18.29,0,0,1,8.7,7.27c.06.09.19,0,.14-.09Z"/><path class="cls-20" d="M162.86,95.76a17,17,0,0,1,3.7,3.22,8.57,8.57,0,0,1,2,4.46,13.45,13.45,0,0,1-.34,3.84c-.13.72-.36,1.56-1,1.82-.84.32-1.66-.5-2.2-1.23a19.51,19.51,0,0,1-3.25-5.57,6.71,6.71,0,0,1,.84-6.19"/><path class="cls-21" d="M165.52,104.1a18.48,18.48,0,0,0-4.32-10.58c-.06-.08-.2,0-.13.1a18.32,18.32,0,0,1,4.29,10.49c0,.11.17.09.16,0Z"/><path class="cls-20" d="M158.51,108a17.41,17.41,0,0,1,3,3.91,8.55,8.55,0,0,1,1,4.78,13.53,13.53,0,0,1-1.11,3.69c-.28.67-.67,1.44-1.38,1.56-.89.15-1.52-.82-1.91-1.65a19.57,19.57,0,0,1-2-6.11,6.7,6.7,0,0,1,2.09-5.89"/><path class="cls-21" d="M159.41,116.75a18.39,18.39,0,0,0-2.07-11.24c-.05-.09-.19,0-.14.07a18.33,18.33,0,0,1,2.05,11.15.08.08,0,0,0,.16,0Z"/><path class="cls-20" d="M158.09,127.1a14.92,14.92,0,0,1,3.85,1.65,7.38,7.38,0,0,1,2.8,3.11,11.7,11.7,0,0,1,.73,3.21c.08.62.12,1.36-.36,1.74s-1.48,0-2.11-.41a16.58,16.58,0,0,1-4.1-3.68,5.73,5.73,0,0,1-1-5.25"/><path class="cls-21" d="M162.44,133.19a15.81,15.81,0,0,0-6.29-7.47c-.07,0-.16.07-.08.12a15.61,15.61,0,0,1,6.24,7.41c0,.08.16,0,.13-.06Z"/><path class="cls-20" d="M162.17,139.51a14.92,14.92,0,0,1,3.85,1.65,7.38,7.38,0,0,1,2.8,3.11,11.55,11.55,0,0,1,.73,3.2c.08.62.12,1.36-.36,1.75s-1.48,0-2.11-.42a16.54,16.54,0,0,1-4.1-3.67,5.71,5.71,0,0,1-.95-5.26"/><path class="cls-21" d="M166.52,145.59a15.78,15.78,0,0,0-6.29-7.46c-.08,0-.16.06-.08.11a15.66,15.66,0,0,1,6.24,7.41c0,.08.16,0,.13-.06Z"/><path class="cls-20" d="M166.91,150.93a14.56,14.56,0,0,1,3.85,1.64,7.38,7.38,0,0,1,2.8,3.11,11.7,11.7,0,0,1,.73,3.21c.08.62.12,1.36-.36,1.75s-1.48,0-2.11-.42a16.58,16.58,0,0,1-4.1-3.68,5.7,5.7,0,0,1-.95-5.25"/><path class="cls-21" d="M171.26,157a15.85,15.85,0,0,0-6.29-7.47c-.08,0-.16.07-.08.12a15.66,15.66,0,0,1,6.24,7.41c0,.08.16,0,.13-.06Z"/><path class="cls-20" d="M167.33,158.76a15,15,0,0,1,1.66,3.85,7.34,7.34,0,0,1-.12,4.18,11.44,11.44,0,0,1-1.68,2.83c-.37.51-.85,1.07-1.46,1-.77-.06-1.1-1-1.25-1.76a16.43,16.43,0,0,1-.43-5.49,5.74,5.74,0,0,1,2.93-4.46"/><path class="cls-21" d="M166.29,166.17a15.79,15.79,0,0,0,.59-9.74c0-.09-.16-.06-.14,0a15.7,15.7,0,0,1-.58,9.67c0,.09.09.13.13,0Z"/><path class="cls-20" d="M145.87,73.1a27.41,27.41,0,0,1,7.73.44,13.23,13.23,0,0,1,6.75,3.61,20.69,20.69,0,0,1,3.2,5.07c.51,1,1,2.27.4,3.24-.76,1.21-2.57,1-3.95.6-3.26-.91-6.59-1.84-9.37-3.78s-4.95-5.09-4.78-8.47"/><path class="cls-21" d="M157.11,80.88a28.43,28.43,0,0,0-15.45-8.95c-.16,0-.24.21-.07.25a28.2,28.2,0,0,1,15.33,8.87c.11.13.3,0,.19-.17Z"/><path class="cls-20" d="M158.67,91.47a19,19,0,0,0-5,1.82A9.15,9.15,0,0,0,149.92,97a14.09,14.09,0,0,0-1.11,4c-.13.77-.22,1.7.38,2.22s1.89.13,2.72-.39a21,21,0,0,0,5.44-4.36,7,7,0,0,0,1.47-6.54"/><path class="cls-21" d="M152.79,98.83a19.64,19.64,0,0,1,8.43-9c.1-.06.2.09.1.14A19.47,19.47,0,0,0,153,98.91a.09.09,0,1,1-.16-.08Z"/><path class="cls-20" d="M153.87,109a18.92,18.92,0,0,0-5,1.82,9.08,9.08,0,0,0-3.74,3.73,14.27,14.27,0,0,0-1.11,4,2.39,2.39,0,0,0,.38,2.22c.74.65,1.89.14,2.73-.39a20.93,20.93,0,0,0,5.43-4.36,7.06,7.06,0,0,0,1.48-6.54"/><path class="cls-21" d="M148,116.34a19.56,19.56,0,0,1,8.42-9c.1-.06.2.09.1.14a19.45,19.45,0,0,0-8.36,8.91.09.09,0,1,1-.16-.08Z"/><path class="cls-20" d="M153.92,121.05a19,19,0,0,0-2.94,4.46,9.14,9.14,0,0,0-.77,5.22,14.1,14.1,0,0,0,1.49,3.86c.35.7.84,1.49,1.62,1.55,1,.08,1.6-1,2-1.94a20.68,20.68,0,0,0,1.76-6.74,7,7,0,0,0-2.72-6.12"/><path class="cls-21" d="M153.6,130.47a19.64,19.64,0,0,1,1.4-12.23c.05-.1.22,0,.17.06a19.44,19.44,0,0,0-1.39,12.14c0,.11-.16.14-.18,0Z"/><path class="cls-20" d="M157.51,136.63a15.16,15.16,0,0,0-2.31,3.48,7.12,7.12,0,0,0-.61,4.08,11.07,11.07,0,0,0,1.17,3c.28.55.66,1.17,1.28,1.22.77.06,1.25-.8,1.53-1.52a16.27,16.27,0,0,0,1.39-5.26,5.47,5.47,0,0,0-2.14-4.79"/><path class="cls-21" d="M157.26,144a15.2,15.2,0,0,1,1.1-9.56c0-.08.17,0,.13,0a15.1,15.1,0,0,0-1.1,9.48c0,.09-.12.11-.13,0Z"/><path class="cls-20" d="M163,149.05a14.65,14.65,0,0,0-2.3,3.49,7.07,7.07,0,0,0-.61,4.07,11.13,11.13,0,0,0,1.17,3c.28.55.66,1.16,1.28,1.21.77.06,1.25-.79,1.53-1.51a16.26,16.26,0,0,0,1.39-5.27,5.54,5.54,0,0,0-2.14-4.79"/><path class="cls-21" d="M162.71,156.41a15.28,15.28,0,0,1,1.11-9.56c0-.08.16,0,.13.05a15.13,15.13,0,0,0-1.1,9.49c0,.09-.12.11-.14,0Z"/><path class="cls-7" d="M73.4,204.07c-3-4.43-4.76-9.42-6.84-14.29a70.59,70.59,0,0,0-7.19-12.69A129.45,129.45,0,0,0,40.1,155.27c-.26-.23-.6.18-.34.41a128.26,128.26,0,0,1,19.55,22.26A71.56,71.56,0,0,1,66.7,191.5c1.84,4.42,3.58,8.88,6.27,12.88.19.29.62,0,.43-.31Z"/><path class="cls-7" d="M40.46,155.82c-2.82-.33-5.13-2.33-7.23-4.25-.85-.77-1.7-1.54-2.48-2.39a24.56,24.56,0,0,1-3-4.26,36.71,36.71,0,0,1-2.23-4.54,28.73,28.73,0,0,1,6.67,5.36c.83.9,1.61,1.86,2.46,2.75,2.17,2.27,4.93,4.29,5.75,7.32"/><path class="cls-7" d="M45.15,160.21a36.16,36.16,0,0,1-2.1-21.59,4.19,4.19,0,0,1,1.24,2.44,65.09,65.09,0,0,1,1.8,9.69,24.51,24.51,0,0,1-.94,9.75"/><path class="cls-7" d="M50.78,166.52A36.91,36.91,0,0,1,53.23,144c.48.12.66.7.75,1.19a36.61,36.61,0,0,1-.81,16.42,16.61,16.61,0,0,1-2.18,5"/><path class="cls-7" d="M56.82,173.94a15.43,15.43,0,0,1-.06-5.38c.77-6.42,2.46-12.83,5.89-18.3,1.07,3.57.42,7.42-.4,11.06-1,4.42-2.14,9.51-5.43,12.62"/><path class="cls-7" d="M62.66,182.77c.44-6.55,1-13.36,4.29-19a19.31,19.31,0,0,1,.43,4.62c0,1.12,0,2.25-.07,3.37a20.3,20.3,0,0,1-4.57,11.34"/><path class="cls-7" d="M45.2,160.24a10.32,10.32,0,0,1-4,2.23,25.64,25.64,0,0,1-8.7,1.58A17.47,17.47,0,0,1,24,161.86a4.2,4.2,0,0,1,1.26-.29c6.58-.87,13.21-1.73,19.83-1.26"/><path class="cls-7" d="M51.06,166.5c-2.1,2.89-5.77,4.14-9.27,4.85a22.37,22.37,0,0,1-3.45.48,14.52,14.52,0,0,1-7-1.45c-.13-.07-.28-.16-.3-.3s.22-.37.44-.45c6.21-2.08,12.71-4.19,19.18-3.18"/><path class="cls-7" d="M56.76,173.76c-2.5,3.29-6.76,4.72-10.84,5.33-2.83.42-5.82.52-8.44-.63a17.83,17.83,0,0,1,6.43-2.31L49.16,175a34.07,34.07,0,0,1,7.6-1.24"/><path class="cls-7" d="M64.19,185a23.3,23.3,0,0,1-19.72.65.73.73,0,0,1-.33-.23c-.23-.35.22-.74.61-.89a15.93,15.93,0,0,1,5.11-.74c4.69-.17,9.49-.32,14,1.07"/><path class="cls-7" d="M73.42,205.89c3.14-1.87,6.65-2.73,10.07-3.83a40.69,40.69,0,0,0,9-4.3,78.92,78.92,0,0,0,15.69-12.95c.17-.18-.1-.5-.27-.32a79.08,79.08,0,0,1-16,13.13A41.37,41.37,0,0,1,82.3,202a40.83,40.83,0,0,0-9.08,3.54c-.21.12,0,.5.2.38Z"/><path class="cls-7" d="M107.77,185c.33-2.23,1.79-3.85,3.18-5.32a23.24,23.24,0,0,1,1.73-1.71,14,14,0,0,1,3-1.94,20.45,20.45,0,0,1,3.2-1.26,19.28,19.28,0,0,1-3.92,4.73c-.66.57-1.34,1.08-2,1.66-1.64,1.48-3.13,3.46-5.24,3.77"/><path class="cls-7" d="M104.58,188.3a21.45,21.45,0,0,1,14.93.83,2.44,2.44,0,0,1-1.73.71,36.74,36.74,0,0,1-6.72.31,15.56,15.56,0,0,1-6.68-1.88"/><path class="cls-7" d="M100,192.08a23.8,23.8,0,0,1,15.4,4.6c-.09.38-.5.45-.84.47a22.82,22.82,0,0,1-11.26-2.57,12.2,12.2,0,0,1-3.34-2.33"/><path class="cls-7" d="M94.73,196.08a9.37,9.37,0,0,1,3.7.58,31.77,31.77,0,0,1,12.37,6.86c-2.49.45-5.11-.52-7.59-1.61-3-1.31-6.46-2.82-8.48-5.83"/><path class="cls-7" d="M88.45,199.74c4.48,1.12,9.15,2.33,12.92,5.67a11.13,11.13,0,0,1-3.19-.2,22.92,22.92,0,0,1-2.31-.44,15.12,15.12,0,0,1-7.64-5"/><path class="cls-7" d="M104.56,188.33a10,10,0,0,1-1.39-3.44,25.14,25.14,0,0,1-.78-7.19,14.63,14.63,0,0,1,1.81-6.6,4.16,4.16,0,0,1,.15,1.05,92.11,92.11,0,0,1,.16,16.09"/><path class="cls-7" d="M100.05,192.31c-1.92-2-2.64-5.12-3-8a22.61,22.61,0,0,1-.21-2.84A12.45,12.45,0,0,1,98.08,176c0-.1.11-.21.22-.21s.24.22.29.41c1.21,5.23,2.43,10.7,1.5,15.79"/><path class="cls-7" d="M94.85,196.05c-2.17-2.39-3-6-3.28-9.34A14,14,0,0,1,92.3,180a17.33,17.33,0,0,1,1.36,5.44l.61,4.35a33.38,33.38,0,0,1,.58,6.26"/><path class="cls-7" d="M86.86,200.71a21.73,21.73,0,0,1,.26-15.92.51.51,0,0,1,.17-.25c.25-.14.5.27.59.6a15.51,15.51,0,0,1,.32,4.19c0,3.8-.11,7.67-1.23,11.12"/><path class="cls-9" d="M80.12,175.12c3.15-1.87,6.65-2.73,10.08-3.83a40.69,40.69,0,0,0,9-4.3,79.21,79.21,0,0,0,15.69-13c.17-.18-.11-.5-.27-.32a78.75,78.75,0,0,1-16,13.12A41.14,41.14,0,0,1,89,171.2a41.1,41.1,0,0,0-9.09,3.54c-.2.12,0,.5.2.38Z"/><path class="cls-9" d="M114.48,154.27c.32-2.23,1.78-3.85,3.17-5.32a21.59,21.59,0,0,1,1.74-1.71,13.75,13.75,0,0,1,3-1.94,20.45,20.45,0,0,1,3.2-1.26,19.1,19.1,0,0,1-3.93,4.73c-.65.57-1.33,1.08-2,1.66-1.64,1.48-3.12,3.46-5.24,3.77"/><path class="cls-9" d="M111.29,157.53a21.36,21.36,0,0,1,14.92.83,2.4,2.4,0,0,1-1.72.71,36.81,36.81,0,0,1-6.73.31,15.56,15.56,0,0,1-6.67-1.88"/><path class="cls-9" d="M106.75,161.31a23.81,23.81,0,0,1,15.4,4.6c-.1.38-.5.45-.84.47a22.82,22.82,0,0,1-11.26-2.57,12.4,12.4,0,0,1-3.35-2.33"/><path class="cls-9" d="M101.43,165.31a9.45,9.45,0,0,1,3.71.58,31.77,31.77,0,0,1,12.37,6.86c-2.49.45-5.12-.52-7.59-1.61-3-1.31-6.46-2.82-8.49-5.83"/><path class="cls-9" d="M95.15,169c4.49,1.12,9.16,2.33,12.93,5.67a11.13,11.13,0,0,1-3.19-.2c-.77-.12-1.55-.24-2.32-.44a15.16,15.16,0,0,1-7.64-5"/><path class="cls-9" d="M111.27,157.56a10,10,0,0,1-1.39-3.44,25.14,25.14,0,0,1-.78-7.19,14.63,14.63,0,0,1,1.81-6.6,4.67,4.67,0,0,1,.15,1,94.1,94.1,0,0,1,.16,16.09"/><path class="cls-9" d="M106.75,161.54c-1.91-2-2.64-5.12-3-8a22.75,22.75,0,0,1-.21-2.84,12.28,12.28,0,0,1,1.25-5.43c0-.1.11-.21.21-.21s.25.22.29.4c1.22,5.24,2.44,10.71,1.51,15.8"/><path class="cls-9" d="M101.56,165.28c-2.17-2.39-3-6-3.28-9.34a14,14,0,0,1,.73-6.71,17.61,17.61,0,0,1,1.36,5.44L101,159a34.16,34.16,0,0,1,.58,6.26"/><path class="cls-9" d="M93.57,169.94A21.72,21.72,0,0,1,93.83,154a.51.51,0,0,1,.17-.25c.24-.14.5.27.58.6a15.13,15.13,0,0,1,.33,4.19c0,3.8-.11,7.67-1.23,11.12"/><path class="cls-9" d="M71.42,201.44a37,37,0,0,0-7.25-2.7,30.83,30.83,0,0,1-6.47-3,58.85,58.85,0,0,1-11.37-8.91c-.12-.12.07-.33.19-.21a58.29,58.29,0,0,0,11.59,9,31.75,31.75,0,0,0,6.91,3,31.26,31.26,0,0,1,6.53,2.48c.15.09,0,.34-.13.26Z"/><path class="cls-9" d="M46.61,187a7,7,0,0,0-2.33-3.62c-.41-.41-.82-.82-1.26-1.18a11.25,11.25,0,0,0-2.2-1.34,15.58,15.58,0,0,0-2.3-.88,13.84,13.84,0,0,0,2.86,3.23c.47.39,1,.74,1.44,1.14,1.19,1,2.27,2.36,3.79,2.59"/><path class="cls-9" d="M48.93,189.23a16.15,16.15,0,0,0-10.66.39,1.79,1.79,0,0,0,1.24.49,27.57,27.57,0,0,0,4.81.3,11.57,11.57,0,0,0,4.75-1.19"/><path class="cls-9" d="M52.22,191.83a17.4,17.4,0,0,0-11,2.92c.07.25.37.31.61.32a16.83,16.83,0,0,0,8-1.59,8.65,8.65,0,0,0,2.36-1.54"/><path class="cls-9" d="M56.07,194.59a6.89,6.89,0,0,0-2.65.34,22.22,22.22,0,0,0-8.76,4.48,10,10,0,0,0,5.41-1c2.13-.85,4.58-1.82,6-3.82"/><path class="cls-9" d="M60.6,197.12c-3.2.7-6.52,1.47-9.18,3.67a8,8,0,0,0,2.28-.1,15.75,15.75,0,0,0,1.65-.27,10.5,10.5,0,0,0,5.41-3.27"/><path class="cls-9" d="M48.94,189.26a6.23,6.23,0,0,0,1-2.31,15.44,15.44,0,0,0,.47-4.82A9.57,9.57,0,0,0,49,177.66a3.38,3.38,0,0,0-.1.71A59.21,59.21,0,0,0,49,189.19"/><path class="cls-9" d="M52.22,192c1.34-1.34,1.83-3.42,2.05-5.36a13.61,13.61,0,0,0,.12-1.91,8,8,0,0,0-1-3.67c0-.07-.08-.14-.15-.14s-.18.14-.21.27c-.8,3.5-1.61,7.18-.89,10.61"/><path class="cls-9" d="M56,194.56c1.53-1.58,2.08-4,2.24-6.24a9,9,0,0,0-.6-4.53,11.07,11.07,0,0,0-.91,3.65l-.38,2.92a21.4,21.4,0,0,0-.35,4.2"/><path class="cls-9" d="M61.74,197.8a13.89,13.89,0,0,0-.37-10.73.33.33,0,0,0-.12-.16c-.18-.1-.36.17-.41.39a9.54,9.54,0,0,0-.19,2.82,24.54,24.54,0,0,0,1,7.5"/><path class="cls-7" d="M71.83,230.27a180.32,180.32,0,0,1,23-88.82c.17-.3-.32-.52-.49-.22a180.69,180.69,0,0,0-23.08,89.09c0,.34.54.29.54,0Z"/><path class="cls-7" d="M94.16,142.22a17.6,17.6,0,0,1,1.52-9.53,25,25,0,0,1,5.74-7.82A27.91,27.91,0,0,1,94,142.78"/><path class="cls-7" d="M89.13,152.28a27.88,27.88,0,0,1-4.81-24.08,89.32,89.32,0,0,1,4.73,24.27"/><path class="cls-7" d="M85.42,160.72c-7.28-6-11.57-16.72-10.66-26.13,5.87,7.44,8.34,16.94,10.66,26.13"/><path class="cls-7" d="M81.4,171.08a6.3,6.3,0,0,1-3.2-1.49,28,28,0,0,1-10.91-23.14,6.14,6.14,0,0,1,3,2.73,96.54,96.54,0,0,1,11.3,22.14"/><path class="cls-7" d="M88.8,152.09a84.07,84.07,0,0,1,9.07-7.7,28.68,28.68,0,0,1,10.77-4.89c-4.24,6.51-12.11,10.42-19.51,12.78"/><path class="cls-7" d="M85.25,160.15c6.49-4.28,13.88-7.91,21.66-7.59a19.14,19.14,0,0,1-6.29,4.36A43.13,43.13,0,0,1,93.27,160a15.83,15.83,0,0,1-7.9.45"/><path class="cls-7" d="M81.29,170.88c7.61-1.4,14.7-4.76,22.07-7.12a2.8,2.8,0,0,1,2.23-.07c-2.45,3.62-6.51,5.82-10.61,7.35a25.38,25.38,0,0,1-4.07,1.22,17.29,17.29,0,0,1-9.78-.91"/><path class="cls-7" d="M77.64,182.46l17.3-4.16a12,12,0,0,1,5.87-.41c-.16,1-1.12,1.63-2,2.11a32.29,32.29,0,0,1-21.07,3.2"/><path class="cls-7" d="M77.85,183.49c-3.2-.36-5.68-2.87-7.88-5.23a22.16,22.16,0,0,1-2.59-3.14,23.1,23.1,0,0,1-2.46-6c.49-.23,1,.21,1.36.62q5.85,6.68,11.39,13.62"/><path class="cls-7" d="M74.81,196.78c6.77-3.45,13.9-6.93,21.51-6.89-.19,1.28-1.49,2.05-2.65,2.61-6,2.93-12.47,5.42-19.15,5.2"/><path class="cls-7" d="M74.62,197.56a20.59,20.59,0,0,1-10.75-16.84c.41-.24.91.07,1.26.38a24.41,24.41,0,0,1,5,6.88q2.52,4.65,4.59,9.53"/><path class="cls-9" d="M78.1,180.32a44.82,44.82,0,0,0-4.83-7.8,38.32,38.32,0,0,1-3.9-7.49A71.14,71.14,0,0,1,65,148.56c0-.2.3-.25.33-.05a70.35,70.35,0,0,0,4.46,16.74,39.31,39.31,0,0,0,4.27,7.86,39.09,39.09,0,0,1,4.32,7.08c.08.18-.23.31-.31.13Z"/><path class="cls-9" d="M65.18,148.92a8.17,8.17,0,0,0,.36-5,18.81,18.81,0,0,0-.35-2,13.05,13.05,0,0,0-1.1-2.84,19.76,19.76,0,0,0-1.51-2.5,16.34,16.34,0,0,0,.4,5c.16.7.38,1.39.53,2.09.4,1.8.46,3.83,1.7,5.16"/><path class="cls-9" d="M65.78,152.65a19.66,19.66,0,0,0-10.13-7.52,2.21,2.21,0,0,0,.8,1.36,34.2,34.2,0,0,0,4.25,3.82,13.81,13.81,0,0,0,5.22,2.43"/><path class="cls-9" d="M67,157.44A20.79,20.79,0,0,0,54.85,152c-.1.29.12.55.34.74a20.32,20.32,0,0,0,8.53,4.48,9.84,9.84,0,0,0,3.25.35"/><path class="cls-9" d="M68.66,162.77A8.31,8.31,0,0,0,66,161.14a25.92,25.92,0,0,0-11.22-2.42c1.42,1.63,3.58,2.43,5.69,3.09,2.57.81,5.52,1.74,8.21,1"/><path class="cls-9" d="M71.09,168.42c-3.44-1.72-7-3.49-11-3.45a10.15,10.15,0,0,0,2.17,1.6c.56.34,1.13.68,1.72,1a12.17,12.17,0,0,0,7.27,1"/><path class="cls-9" d="M65.78,152.68a6.92,6.92,0,0,0,2.48-1.38,17.26,17.26,0,0,0,3.79-4,11.06,11.06,0,0,0,1.84-5.06,2.8,2.8,0,0,0-.58.56,66.17,66.17,0,0,0-7.46,9.88"/><path class="cls-9" d="M66.91,157.58c2.17-.23,4.06-1.75,5.62-3.35A13.88,13.88,0,0,0,74,152.59a9.2,9.2,0,0,0,1.67-4,.27.27,0,0,0,0-.25c-.1-.09-.27,0-.38.09-3.18,2.59-6.48,5.32-8.2,9"/><path class="cls-9" d="M68.6,162.68c2.51-.3,4.69-2.08,6.4-4a9.92,9.92,0,0,0,2.59-4.54,12,12,0,0,0-3.37,2.63l-2.39,2.37a23,23,0,0,0-3.23,3.55"/><path class="cls-9" d="M71.68,169.88a15.36,15.36,0,0,0,7.11-10,.43.43,0,0,0,0-.25c-.09-.21-.45-.1-.65.06A10.49,10.49,0,0,0,76,162.11a27.5,27.5,0,0,0-4.28,7.54"/><path class="cls-11" d="M53.09,205.08,98.15,205a1.37,1.37,0,0,1,1.42,1.53L93.1,246.41a1.41,1.41,0,0,1-1.42,1.13H59.56a1.41,1.41,0,0,1-1.42-1.13l-6.47-39.8A1.37,1.37,0,0,1,53.09,205.08Z"/><polygon class="cls-11" points="47.16 348.11 45.9 347.98 58.89 245.09 60.15 245.23 47.16 348.11"/><polygon class="cls-11" points="103.87 348.11 90.89 245.23 92.14 245.09 105.13 347.98 103.87 348.11"/><path class="cls-11" d="M75.44,303.91c-8.15,0-23.55-.82-23.55-4S67.29,296,75.44,296,99,296.84,99,300,83.58,303.91,75.44,303.91Zm0-6.72c-14.33,0-22,1.78-22.28,2.78.27,1,8,2.76,22.28,2.76s22-1.77,22.28-2.77C97.41,299,89.73,297.19,75.44,297.19Z"/><rect class="cls-11" x="75.11" y="245.16" width="1.27" height="104.9"/><path class="cls-22" d="M140.62,232.39,126,241.9a5.91,5.91,0,0,0-1.74,8.15l5.21,8a5.9,5.9,0,0,0,8.14,1.73l3.35-2.17c3.55.65,6,1.56,6.73,1.07s.94-3.49,1.76-6.58l2.82-1.83a5.9,5.9,0,0,0,1.74-8.14l-5.21-8A5.9,5.9,0,0,0,140.62,232.39Z"/><circle class="cls-8" cx="137.61" cy="243.92" r="2.88"/><path class="cls-8" d="M142.84,245.73l-5.73,3.71a2,2,0,0,0-.58,2.71l1.06,1.64,9-5.85-1.07-1.64a2,2,0,0,0-2.7-.57Z"/><path class="cls-22" d="M224.87,229.25l-14.2-9.41a5.74,5.74,0,0,0-7.95,1.6l-5.15,7.79a5.74,5.74,0,0,0,1.62,8h0l3.24,2.15c.8,3.42.92,6,1.66,6.44s3.49-.51,6.57-1l2.73,1.81a5.74,5.74,0,0,0,7.94-1.62l5.16-7.8A5.75,5.75,0,0,0,224.87,229.25Z"/><path class="cls-8" d="M209.22,237.93a.69.69,0,0,1-.29-.45l-1.14-4.92a.58.58,0,0,0,0-.24,3.29,3.29,0,0,1-.05-.54,5,5,0,0,1,0-.77,4.21,4.21,0,0,1,.16-.86,3.18,3.18,0,0,1,.4-.88,3.77,3.77,0,0,1,2.12-1.68,3.32,3.32,0,0,1,3,1.14,3.62,3.62,0,0,1,.43.77,7,7,0,0,1,.24.69,1.68,1.68,0,0,1,.09.32l.34,0a4.41,4.41,0,0,1,.73,0,3.22,3.22,0,0,1,.87.09,2.74,2.74,0,0,1,.78.35,3,3,0,0,1,1.44,2,3.83,3.83,0,0,1-.72,2.6,4.41,4.41,0,0,1-2.86,1.7l-5,.86A.68.68,0,0,1,209.22,237.93Z"/><path class="cls-23" d="M190.07,226.2c-5.19-.51-22.06-1.95-28.45-2.49a.9.9,0,0,0-1,.81.94.94,0,0,0,.27.73l5,5-1.26,7.88a.85.85,0,0,0,.31.79c.19.13,3.31-5.21,3.31-5.21s3.92,7.94,5.79,11.7a1.4,1.4,0,0,0,2.36.24l14.2-18.07a.86.86,0,0,0-.13-1.21A.85.85,0,0,0,190.07,226.2Z"/><path class="cls-24" d="M165,238.92c.19.14,3.31-5.21,3.31-5.21l15.41-4.43a.1.1,0,0,0,.07-.12.14.14,0,0,0-.07-.06L166,230.25l-1.25,7.88A.85.85,0,0,0,165,238.92Z"/></g></g></svg>