<?xml version="1.0" encoding="utf-8"?>
<!-- Generator: Adobe Illustrator 24.0.1, SVG Export Plug-In . SVG Version: 6.00 Build 0)  -->
<svg version="1.1" id="Layer_1" xmlns="http://www.w3.org/2000/svg" xmlns:xlink="http://www.w3.org/1999/xlink" x="0px" y="0px"
	 viewBox="0 0 587.2 591.1" style="enable-background:new 0 0 587.2 591.1;" xml:space="preserve">
<style type="text/css">
	.st0{fill:#71DAFF;}
	.st1{fill:#334451;}
	.st2{fill:none;stroke:#000000;stroke-width:3;stroke-linecap:round;stroke-linejoin:round;}
</style>
<title>growth</title>
<g id="Layer_2_1_">
	<g id="Layer_2-2">
		<path class="st0" d="M546.8,9C546.8,9,546.8,9,546.8,9c-0.1-1.2-0.4-2.3-0.9-3.3c-0.1-0.1-0.1-0.2-0.2-0.3
			c-0.3-0.7-0.8-1.3-1.3-1.9c-0.2-0.2-0.4-0.4-0.6-0.6l-0.4-0.4c-0.8-0.7-1.6-1.2-2.6-1.6l-0.5-0.2c-1-0.4-2-0.6-3.1-0.6
			c-0.1,0-0.1,0-0.2,0c-78.2-0.8-136.4,19.6-173.3,60.8c-47.3,52.8-44.5,124.1-41.8,148.5c-9.8,13.1-25.8,40.3-32.9,83.7
			c-4.3-12.7-9.6-25.1-15.6-37.1c2.9-23.8,6.9-95.7-40.1-149.5c-36.4-41.6-94.5-62.7-172.6-62.7c-0.1,0-0.1,0-0.2,0
			c-1.1,0-2.1,0.2-3.2,0.6c-0.1,0-0.3,0.1-0.4,0.2c-1,0.4-1.8,0.9-2.6,1.6l-0.4,0.4c-0.2,0.2-0.4,0.4-0.6,0.6
			c-0.5,0.6-0.9,1.2-1.3,1.9c-0.1,0.1-0.1,0.2-0.2,0.3c-0.5,1-0.9,2.1-1,3.2c0,0,0,0,0,0.1c-0.4,3.9-8.9,96.4,50.3,159.6
			c34.7,37,85.1,55.8,150,55.8c2,0,4.1-0.1,6.1-0.1c30.6,62,37.1,149.5,37.2,150.4c0.4,5.2,4.6,9.2,9.8,9.2c0.2,0,0.5,0,0.7,0
			c5.4-0.4,9.5-5.1,9.1-10.5c-1.7-20.5-4.6-40.8-8.5-61c-4.2-74.8,19.8-117.6,31.6-134c3.5,0.1,7,0.3,10.5,0.3
			c63.1,0,112.4-18.2,146.9-54.1C554.6,105.5,547.1,12.9,546.8,9z M115.7,198.8c-37.3-39.7-44.5-94.3-45.5-123.6
			c38.3,34.2,134.9,122.1,173.5,173C188.1,246.8,145.3,230.2,115.7,198.8z M255.4,231.1c-41.1-51.7-127.7-131-167.5-166.6
			c58.5,4.3,102.4,22.7,130.7,55C250.1,155.6,255.6,201.5,255.4,231.1z M340.4,185.2c0-29.6,6.1-75.5,38.1-111.2
			c28.7-32,72.8-50,131.3-53.6C469.5,55.6,382.1,134,340.4,185.2L340.4,185.2z M480.4,154.5c-29.9,31.1-73.1,47.2-128.6,47.9
			C391,152,488.6,65.1,527.2,31.3C525.9,60.7,518.1,115.2,480.4,154.5L480.4,154.5z"/>
		<path class="st1" d="M462.3,470.2L462.3,470.2c-26.9-40.5-70.1-64.4-116.6-64.4c-35.3,0-68.8,13.7-95.1,38.8
			c-14.7-5.4-30.3-8.1-46-8.1c-48.8,0-93,26.3-114.6,67.5C40.2,505.1,0,539.3,0,581.2c0,5.4,4.4,9.8,9.9,9.8h567.3
			c5.2,0,9.4-4,9.8-9.1c0.2-2.3,0.3-4.6,0.3-6.9C587.2,517.2,531.2,470.2,462.3,470.2z M20.8,571.4c5.9-27.1,35.9-47.8,71.9-47.8
			l3.3,0.1c3.9,0,7.5-2.2,9.2-5.8c17.1-37.5,56.2-61.8,99.5-61.8c15.3,0,30.5,3,44.5,9c3.8,1.6,8.2,0.7,11-2.2
			c23.2-24.1,53.6-37.4,85.6-37.4c41.4,0,79.8,22.4,102.8,59.8c1.8,3.1,5.2,4.9,8.8,4.7c1.7-0.1,3.3-0.1,5-0.1
			c56.5,0,102.7,36.3,105.1,81.5H20.8z"/>
		<line class="st2" x1="557.7" y1="581.2" x2="557.4" y2="581.2"/>
	</g>
</g>
</svg>
