<svg xmlns="http://www.w3.org/2000/svg" viewBox="0 0 706.97 631.46"><defs><style>.cls-1{fill:#334451;}</style></defs><title>hashtags</title><g id="Layer_2" data-name="Layer 2"><g id="icons"><path class="cls-1" d="M171.89,631.46c-13.68,0-27,0-40.21,0-10.16,0-17.7-3.11-22.42-9.16s-5.91-14.3-3.41-24.35q8.34-33.52,16.72-67.06,4.84-19.35,9.67-38.71H28.5c-11.13,0-18.92-3.06-23.82-9.33s-5.91-14.52-3.32-24.92c5.5-22,11.14-44.43,16.6-66.08l3.82-15.17C25.8,360.69,33,355,49.18,355q42.83,0,85.66,0h31.71l19.66-78.56H160.78q-39.43,0-78.87,0c-4,0-16.28,0-23.43-9.15s-4.18-20.84-3.22-24.7C62,215.48,68.73,188.68,75.6,161.32c4.23-16.83,10.87-22,28.41-22H220.42l2-7.85q4.53-18.3,9-36.46Q235,80.55,238.51,66.1q5.53-22.51,11.1-45c3.64-14.71,11.61-21,26.62-21C304.51,0,332.75,0,360.18.05c12.26,0,18.7,5,21.95,9.15s6.48,11.56,3.57,23.36q-9.42,38.07-18.91,76.11l-7.62,30.66h17.12c19.59,0,39.81,0,59.77.12,6.68-27.69,13.62-55.73,20.33-82.88q4-16.33,8.06-32.67C469.06,5.16,475.66,0,495.13,0h16.49q31.64,0,63.26,0c10.42,0,18.09,3.09,22.8,9.13s5.86,14.4,3.29,24.71q-8.24,33-16.49,66.08-4.92,19.7-9.83,39.38H678.06c4.19,0,16.94,0,24.22,9.33s4.21,21.28,3.22,25.24c-6.19,24.75-12.52,49.89-18.65,74.21l-1.77,7c-3.9,15.48-11.22,21.24-27,21.26l-24.21,0c-30.28.06-61.58.12-92.41-.22-.51,0-.94,0-1.29,0-.06.23-.13.5-.2.82-5.08,22.15-10.54,43.68-16.33,66.48q-1.44,5.7-2.9,11.44,52,0,103.93,0c4.11,0,16.6,0,23.77,9.19s4.15,21.09,3.17,25c-6.09,24.42-12.34,49.23-18.38,73.23l-2,8c-4.07,16.18-11.13,21.64-28,21.64H486.48l-7.17,29c-7.28,29.42-14.48,58.5-21.66,87.57C456,615.22,454,622,448.38,626.45s-12.74,5-19.43,5c-27.59,0-54.56,0-81.15,0-10.53,0-18.28-3.11-23-9.18s-5.84-14.25-3.33-24.37q8.82-35.57,17.72-71.11,4.26-17,8.51-34.08H270.84l-11.59,46.75-4.89,19.73c-4.18,16.88-8.5,34.34-12.81,51.5-3.75,14.91-11.21,20.73-26.63,20.75C200.09,631.44,185.81,631.46,171.89,631.46ZM127.57,608a15.26,15.26,0,0,0,4.15.46c26.6.05,53.8.05,83.16,0a29.13,29.13,0,0,0,3.4-.15,27,27,0,0,0,1-3.2c4.3-17.13,8.62-34.57,12.79-51.43q2.44-9.87,4.9-19.74l13.75-55.48a11.5,11.5,0,0,1,11.16-8.73H362.07a11.51,11.51,0,0,1,11.31,13.59c-.13.68-.23,1.29-.33,1.86-.22,1.32-.45,2.68-.81,4.12q-5.37,21.54-10.75,43.08-8.88,35.53-17.72,71.08a17.35,17.35,0,0,0-.64,4.51,17.07,17.07,0,0,0,4.71.5c26.56.05,53.51,0,81.09,0a39.49,39.49,0,0,0,4.92-.22,42,42,0,0,0,1.47-5C442.5,574.11,449.7,545,457,515.61l9.33-37.74a11.5,11.5,0,0,1,11.17-8.73H603.23a42.11,42.11,0,0,0,4.49-.18,39.84,39.84,0,0,0,1.2-4.07l2-8c6-24,12.28-48.79,18.36-73.19a20.33,20.33,0,0,0,.76-5.11,20.51,20.51,0,0,0-5.39-.54q-55.11,0-110.24,0c-2.09,0-4-.12-6.09-.24l-2.78-.14a11.51,11.51,0,0,1-10.63-14.29q3.21-12.81,6.43-25.43c5.75-22.66,11.18-44.07,16.2-66,3.89-16.95,15.66-18.81,24.17-18.69,30.67.34,61.9.28,92.1.22l24.23,0a29.85,29.85,0,0,0,3.59-.17,30.77,30.77,0,0,0,1.13-3.71l1.77-7c6.12-24.3,12.46-49.44,18.63-74.16a19.34,19.34,0,0,0,.76-5.37,20.5,20.5,0,0,0-5.89-.63H560.16a11.49,11.49,0,0,1-11.31-13.54c.1-.6.19-1.08.26-1.5.15-.93.3-1.82.55-2.81q6.24-25.05,12.5-50.1,8.25-33,16.49-66.07a17.78,17.78,0,0,0,.68-4.82,17.17,17.17,0,0,0-4.49-.46q-31.61-.06-63.21,0h-16.5a48.74,48.74,0,0,0-6.57.29,50.75,50.75,0,0,0-1.78,6.07q-4,16.35-8.06,32.69c-6.93,28-14.1,57-21,85.56-2.39,9.91-8.83,14.92-19.18,14.82-20.74-.17-41.85-.15-62.26-.14h-25c-1.71,0-3.27-.1-4.92-.21l-2.25-.13a11.5,11.5,0,0,1-10.64-14c.18-.82.34-1.57.49-2.29.33-1.55.64-3,1-4.53q4.72-19,9.47-38.1,9.48-38,18.9-76.08a12.81,12.81,0,0,0,.47-3.56,12.72,12.72,0,0,0-3.71-.43c-27.4-.07-55.6-.07-83.84,0a20.17,20.17,0,0,0-3.3.22,20.86,20.86,0,0,0-1.05,3.35q-5.58,22.49-11.09,45-3.57,14.47-7.13,29c-3,12.14-6,24.27-9,36.48l-4.11,16.59a11.49,11.49,0,0,1-11.16,8.73H104c-2.49,0-4,.08-4.83.17-.29.8-.71,2.15-1.28,4.41-6.87,27.34-13.6,54.12-20.33,81.21a19.18,19.18,0,0,0-.71,4.79,19.21,19.21,0,0,0,5.06.51q39.42,0,78.85,0h40.16a11.51,11.51,0,0,1,11.16,14.29L186.69,369.3A11.5,11.5,0,0,1,175.53,378h-40.7Q92,378,49.2,378a35.22,35.22,0,0,0-3.9.17,35.71,35.71,0,0,0-1.21,4l-3.83,15.18c-5.45,21.64-11.09,44-16.58,66a17.41,17.41,0,0,0-.69,5.07,18.38,18.38,0,0,0,5.51.62H146.65A11.49,11.49,0,0,1,158,482.52c-.08.51-.15,1-.21,1.37-.16,1.06-.32,2.16-.63,3.4q-6.12,24.57-12.26,49.14-8.37,33.51-16.72,67A15.24,15.24,0,0,0,127.57,608ZM387,378.07h-.13c-21-.1-42.42-.12-63.12-.14l-30.4,0a14.53,14.53,0,0,1-5.59-1.2c-.18-.07-.39-.16-.66-.24a11.5,11.5,0,0,1-7.49-13.68l3-12.16q3.5-14,7-28l4.12-16.42c3.18-12.64,6.46-25.71,9.61-38.57,2.31-9.46,7.91-14.26,16.65-14.26h.12c21.05.1,42.47.12,63.19.14l30.33,0a14.66,14.66,0,0,1,5.58,1.2l.64.24a11.51,11.51,0,0,1,7.52,13.68l-3.19,12.82q-3.4,13.68-6.8,27.31l-4.23,16.86c-3.14,12.5-6.39,25.43-9.5,38.14C401.3,373.27,395.7,378.07,387,378.07Zm-81.73-23.16,18.5,0c19.12,0,38.84,0,58.34.12,2.88-11.71,5.85-23.52,8.72-35L395,303.24q3.33-13.33,6.64-26.69l-18.43,0c-19.15,0-38.89,0-58.41-.12-2.91,11.86-5.92,23.82-8.83,35.42Q314,320,311.9,328.22,308.56,341.56,305.25,354.91Z"/></g></g></svg>