<svg xmlns="http://www.w3.org/2000/svg" viewBox="0 0 221.86 227.96"><defs><style>.cls-1{fill:#fff;}</style></defs><title>how it works white</title><g id="Layer_2" data-name="Layer 2"><g id="Layer_2-2" data-name="Layer 2"><path class="cls-1" d="M72.74,129H66.26a2.5,2.5,0,0,1-2.48-2.19l-1-8.31c-1.56-.23-3.11-.54-4.62-.92l-4.2,7.22a2.5,2.5,0,0,1-3.13,1l-6-2.53a2.51,2.51,0,0,1-1.43-3l2.25-7.92c-1.14-.69-2.26-1.42-3.33-2.19l-6.46,5a2.49,2.49,0,0,1-3.3-.2L28,110.45a2.49,2.49,0,0,1-.2-3.3l4.89-6.3a45.85,45.85,0,0,1-2.82-4.11l-7.62,2a2.52,2.52,0,0,1-3-1.49l-2.43-6a2.5,2.5,0,0,1,1.1-3.12l6.64-3.7c-.37-1.41-.68-2.85-.92-4.3l-7.45-.93A2.5,2.5,0,0,1,14,76.74V70.26a2.5,2.5,0,0,1,2.19-2.48l7.15-.9a47.4,47.4,0,0,1,1-5.4L18.2,57.93a2.51,2.51,0,0,1-1.05-3.14l2.53-6a2.52,2.52,0,0,1,3-1.43l6.55,1.86c.81-1.38,1.7-2.76,2.67-4.09l-4.13-5.31a2.5,2.5,0,0,1,.2-3.3L32.55,32a2.5,2.5,0,0,1,3.3-.2l5.15,4a47.18,47.18,0,0,1,4.89-3.32l-1.66-6.23a2.51,2.51,0,0,1,1.49-3l6-2.43a2.5,2.5,0,0,1,3.12,1.1l3.08,5.54a47.51,47.51,0,0,1,5-1l.85-6.78a2.5,2.5,0,0,1,2.48-2.19h6.48a2.5,2.5,0,0,1,2.48,2.19l.85,6.78a48.21,48.21,0,0,1,5.76,1.19l3.44-5.93a2.51,2.51,0,0,1,3.14-1l6,2.53a2.5,2.5,0,0,1,1.42,3l-1.91,6.71A47,47,0,0,1,98,35.72l5.55-4.32a2.5,2.5,0,0,1,3.3.21l4.59,4.58a2.52,2.52,0,0,1,.21,3.31l-4.45,5.72a45.22,45.22,0,0,1,3,4.71l7.1-1.88a2.49,2.49,0,0,1,3,1.48l2.43,6a2.5,2.5,0,0,1-1.1,3.12l-6.66,3.71a44.49,44.49,0,0,1,.77,4.45l7.66,1a2.5,2.5,0,0,1,2.19,2.48v6.48a2.5,2.5,0,0,1-2.19,2.48l-8,1a47.16,47.16,0,0,1-1.1,5l7,4.08a2.51,2.51,0,0,1,1,3.14l-2.53,6a2.5,2.5,0,0,1-3,1.42l-8.08-2.3c-.72,1.12-1.5,2.23-2.32,3.3l5.21,6.7a2.52,2.52,0,0,1-.21,3.31l-4.58,4.58a2.52,2.52,0,0,1-3.31.21l-6.86-5.34c-1.28.91-2.59,1.77-3.93,2.54L95,121.25a2.5,2.5,0,0,1-1.48,3l-6,2.43a2.5,2.5,0,0,1-3.12-1.1L80,117.8c-1.22.28-2.48.51-3.77.7l-1,8.31A2.5,2.5,0,0,1,72.74,129Zm-6-3h5.6l1-8.26a2.5,2.5,0,0,1,2.15-2.16c1.45-.2,2.87-.46,4.22-.78A2.5,2.5,0,0,1,82.46,116l4.29,7.68,5.19-2.09-2.23-8.41a2.5,2.5,0,0,1,1.19-2.81,42,42,0,0,0,4.27-2.77,2.52,2.52,0,0,1,3,0L105,113l4-4-5.18-6.67a2.49,2.49,0,0,1,0-3.07,42.83,42.83,0,0,0,2.59-3.67,2.51,2.51,0,0,1,2.8-1.07l8,2.28,2.19-5.16-7-4a2.48,2.48,0,0,1-1.13-2.86,43.79,43.79,0,0,0,1.19-5.35,2.51,2.51,0,0,1,2.15-2.09l7.9-1V70.7l-7.62-1a2.52,2.52,0,0,1-2.17-2.2,42.13,42.13,0,0,0-.83-4.88,2.51,2.51,0,0,1,1.21-2.74l6.6-3.68-2.09-5.19-7.06,1.87a2.48,2.48,0,0,1-2.83-1.22,44.44,44.44,0,0,0-3.2-5,2.51,2.51,0,0,1,0-3L109,38l-4-4-5.52,4.3a2.51,2.51,0,0,1-3.08,0,43.15,43.15,0,0,0-4.39-3,2.51,2.51,0,0,1-1.11-2.82l1.9-6.66-5.16-2.19-3.41,5.89a2.51,2.51,0,0,1-2.84,1.14,44.45,44.45,0,0,0-6.09-1.26,2.49,2.49,0,0,1-2.16-2.16L72.3,20.5H66.7l-.84,6.73a2.49,2.49,0,0,1-2.15,2.16,42.66,42.66,0,0,0-5.38,1.07,2.48,2.48,0,0,1-2.83-1.19l-3.06-5.5-5.19,2.1,1.64,6.18a2.51,2.51,0,0,1-1.17,2.8,42.69,42.69,0,0,0-5.17,3.51,2.49,2.49,0,0,1-3.08,0l-5.11-4-4,4,4.1,5.27a2.51,2.51,0,0,1,0,3,44.19,44.19,0,0,0-2.89,4.43,2.5,2.5,0,0,1-2.85,1.17L22.27,50.4l-2.19,5.15,6.08,3.53a2.52,2.52,0,0,1,1.16,2.77,45.16,45.16,0,0,0-1,5.76,2.49,2.49,0,0,1-2.17,2.2L17,70.7v5.6l7.39.92a2.51,2.51,0,0,1,2.15,2.1,42.68,42.68,0,0,0,1,4.72,2.48,2.48,0,0,1-1.19,2.84l-6.6,3.68,2.1,5.19,7.56-2a2.5,2.5,0,0,1,2.77,1.13,44.51,44.51,0,0,0,3,4.43,2.48,2.48,0,0,1,0,3.07l-4.86,6.26,4,4,6.41-5a2.49,2.49,0,0,1,3,0A43.34,43.34,0,0,0,47.5,110a2.49,2.49,0,0,1,1.14,2.83l-2.24,7.88,5.15,2.19,4.17-7.18a2.49,2.49,0,0,1,2.79-1.15,44.11,44.11,0,0,0,5,1,2.49,2.49,0,0,1,2.14,2.16Z"/><path class="cls-1" d="M149.19,210a2.51,2.51,0,0,1-2.43-1.87l-2.1-8.12a46,46,0,0,1-4.7-.31l-3.22,7.7a2.51,2.51,0,0,1-3,1.45l-6.25-1.75a2.51,2.51,0,0,1-1.8-2.77l1.22-8.15c-1.22-.53-2.43-1.12-3.59-1.74l-5.76,5.81a2.49,2.49,0,0,1-3.3.22l-5.14-3.95a2.5,2.5,0,0,1-.63-3.25l4-6.87a49.29,49.29,0,0,1-3.33-3.72l-7.29,3a2.5,2.5,0,0,1-3.13-1.09L95.62,179a2.5,2.5,0,0,1,.69-3.23l6.11-4.53a43.3,43.3,0,0,1-1.47-4.14l-7.51,0h0A2.51,2.51,0,0,1,91,164.93l-.84-6.43A2.5,2.5,0,0,1,92,155.76l7-1.81a47.66,47.66,0,0,1,.28-5.48l-6.54-2.74a2.51,2.51,0,0,1-1.44-3L93,136.5a2.52,2.52,0,0,1,2.77-1.8l6.74,1a45.51,45.51,0,0,1,2.12-4.4l-4.78-4.74a2.49,2.49,0,0,1-.22-3.3l3.95-5.14a2.51,2.51,0,0,1,3.25-.63l5.62,3.31a47.22,47.22,0,0,1,4.42-3.92l-2.44-6a2.51,2.51,0,0,1,1.08-3.13l5.66-3.18a2.5,2.5,0,0,1,3.23.69l3.78,5.1a45.52,45.52,0,0,1,4.82-1.63l0-6.83a2.5,2.5,0,0,1,2.18-2.49l6.43-.84a2.5,2.5,0,0,1,2.74,1.85l1.71,6.62a47.71,47.71,0,0,1,5.87.43l2.64-6.32a2.51,2.51,0,0,1,3-1.44l6.25,1.75a2.5,2.5,0,0,1,1.8,2.78l-1,6.89a46.34,46.34,0,0,1,4.38,2.26l5-5a2.5,2.5,0,0,1,3.3-.22l5.14,4a2.5,2.5,0,0,1,.63,3.25l-3.67,6.24a44.46,44.46,0,0,1,3.58,4.29l6.8-2.78a2.51,2.51,0,0,1,3.13,1.08L196,129.9a2.51,2.51,0,0,1-.69,3.24l-6.12,4.53c.51,1.42,1,2.87,1.33,4.32l7.72,0h0a2.49,2.49,0,0,1,2.47,2.18l.84,6.43a2.5,2.5,0,0,1-1.85,2.74l-7.77,2a47,47,0,0,1-.45,5.08l7.48,3.14a2.51,2.51,0,0,1,1.45,3l-1.75,6.25a2.5,2.5,0,0,1-2.77,1.8l-8.32-1.24c-.56,1.2-1.19,2.4-1.87,3.57l6,6a2.5,2.5,0,0,1,.22,3.3l-4,5.14a2.5,2.5,0,0,1-3.25.63l-7.49-4.41a46.48,46.48,0,0,1-3.57,3l3.31,8.1a2.5,2.5,0,0,1-1.08,3.12l-5.65,3.18a2.51,2.51,0,0,1-3.24-.69l-5.27-7.12c-1.17.44-2.4.83-3.65,1.18l.05,8.38a2.51,2.51,0,0,1-2.18,2.49l-6.43.84Zm-9.54-13.34.31,0a43.41,43.41,0,0,0,5.11.34,2.49,2.49,0,0,1,2.4,1.86l2.09,8.06,5.55-.72,0-8.32a2.51,2.51,0,0,1,1.85-2.42c1.41-.38,2.79-.83,4.09-1.32a2.48,2.48,0,0,1,2.89.84l5.24,7.07,4.88-2.75-3.29-8a2.49,2.49,0,0,1,.81-2.94,43.11,43.11,0,0,0,3.88-3.3,2.51,2.51,0,0,1,3-.35l7.44,4.38,3.42-4.44-6-5.93a2.48,2.48,0,0,1-.39-3.05c.77-1.3,1.47-2.64,2.09-4a2.46,2.46,0,0,1,2.63-1.43l8.25,1.23,1.51-5.4L189.92,163a2.49,2.49,0,0,1-1.5-2.68,42.6,42.6,0,0,0,.5-5.47,2.52,2.52,0,0,1,1.86-2.35l7.71-2-.72-5.56-7.68,0h0a2.48,2.48,0,0,1-2.42-1.91,47.54,47.54,0,0,0-1.46-4.72,2.49,2.49,0,0,1,.85-2.87l6.07-4.5-2.75-4.88-6.76,2.77a2.5,2.5,0,0,1-3-.85,43.83,43.83,0,0,0-3.82-4.57,2.49,2.49,0,0,1-.35-3l3.64-6.2-4.44-3.41-4.92,5a2.49,2.49,0,0,1-3,.38,45.08,45.08,0,0,0-4.74-2.45,2.48,2.48,0,0,1-1.46-2.64l1-6.85-5.4-1.51L154.5,109a2.51,2.51,0,0,1-2.67,1.5,42.59,42.59,0,0,0-6.2-.46,2.51,2.51,0,0,1-2.41-1.87l-1.71-6.57-5.55.72,0,6.79a2.48,2.48,0,0,1-1.85,2.42,43.51,43.51,0,0,0-5.2,1.75,2.48,2.48,0,0,1-3-.82l-3.75-5.06-4.88,2.75,2.43,5.92A2.52,2.52,0,0,1,119,119a44.09,44.09,0,0,0-4.68,4.14,2.49,2.49,0,0,1-3,.42l-5.58-3.29-3.42,4.44,4.75,4.7a2.5,2.5,0,0,1,.41,3,43.39,43.39,0,0,0-2.29,4.77,2.48,2.48,0,0,1-2.68,1.52l-6.69-1-1.51,5.39,6.48,2.72a2.49,2.49,0,0,1,1.51,2.59,44,44,0,0,0-.29,5.85,2.49,2.49,0,0,1-1.87,2.46l-6.94,1.8.73,5.55,7.44,0h0a2.51,2.51,0,0,1,2.39,1.8,44.76,44.76,0,0,0,1.61,4.55,2.48,2.48,0,0,1-.81,3l-6.07,4.49,2.75,4.89,7.24-3a2.5,2.5,0,0,1,2.9.76,43,43,0,0,0,3.6,4,2.5,2.5,0,0,1,.4,3l-4,6.84,4.44,3.42,5.72-5.78a2.51,2.51,0,0,1,3-.42,43.22,43.22,0,0,0,4,1.94,2.49,2.49,0,0,1,1.5,2.67l-1.21,8.09,5.4,1.51,3.21-7.65A2.49,2.49,0,0,1,139.65,196.7Zm-38.32-29.63ZM198.54,151h0Z"/><path class="cls-1" d="M73.63,101H65.38a1.51,1.51,0,0,1-1.49-1.27L63,93.83a21.78,21.78,0,0,1-3.7-1.65l-4.56,3.33a1.49,1.49,0,0,1-2-.15l-5.83-5.83a1.5,1.5,0,0,1-.15-2l3.51-4.81A22.15,22.15,0,0,1,48.84,79l-5.57-.87A1.51,1.51,0,0,1,42,76.63V68.38a1.51,1.51,0,0,1,1.27-1.49l5.9-.92a21.78,21.78,0,0,1,1.65-3.7l-3.33-4.56a1.51,1.51,0,0,1,.15-2l5.83-5.83a1.51,1.51,0,0,1,2-.15l4.81,3.51A22.83,22.83,0,0,1,63,52.16l.92-5.89A1.51,1.51,0,0,1,65.38,45h8.25a1.51,1.51,0,0,1,1.48,1.27L76,51.84a22.15,22.15,0,0,1,3.79,1.45l4.81-3.51a1.5,1.5,0,0,1,2,.15l5.83,5.83a1.51,1.51,0,0,1,.15,2l-3.33,4.56A21.78,21.78,0,0,1,90.83,66l5.9.92A1.51,1.51,0,0,1,98,68.38v8.25a1.51,1.51,0,0,1-1.27,1.48L91.16,79a22.15,22.15,0,0,1-1.45,3.79l3.51,4.81a1.5,1.5,0,0,1-.15,2l-5.83,5.83a1.49,1.49,0,0,1-1.95.15l-4.56-3.33a21.89,21.89,0,0,1-4.75,2l-.87,5.57A1.51,1.51,0,0,1,73.63,101Zm-7-3h5.68l.83-5.28a1.49,1.49,0,0,1,1.14-1.23A18.93,18.93,0,0,0,80,89.12a1.49,1.49,0,0,1,1.68.06L86,92.33l4-4-3.3-4.52a1.49,1.49,0,0,1-.11-1.61,18.82,18.82,0,0,0,1.86-4.87,1.49,1.49,0,0,1,1.23-1.14L95,75.34V69.66l-5.55-.87a1.5,1.5,0,0,1-1.21-1.06A18.87,18.87,0,0,0,86.12,63a1.49,1.49,0,0,1,.06-1.68L89.33,57l-4-4-4.52,3.31a1.51,1.51,0,0,1-1.61.1,18.82,18.82,0,0,0-4.87-1.86,1.48,1.48,0,0,1-1.14-1.23L72.34,48H66.66l-.87,5.55a1.49,1.49,0,0,1-1.06,1.21,19,19,0,0,0-3.91,1.61,1.51,1.51,0,0,1-1.61-.1L54.69,53l-4,4,3.15,4.32A1.49,1.49,0,0,1,53.88,63a18.87,18.87,0,0,0-2.12,4.75,1.49,1.49,0,0,1-1.21,1.06L45,69.66v5.68l5.28.83a1.49,1.49,0,0,1,1.23,1.14,18.82,18.82,0,0,0,1.86,4.87,1.49,1.49,0,0,1-.11,1.61L50,88.31l4,4,4.32-3.15A1.49,1.49,0,0,1,60,89.12a18.87,18.87,0,0,0,4.75,2.12,1.5,1.5,0,0,1,1.06,1.21ZM96.5,76.63h0Z"/><path class="cls-1" d="M70,84A11,11,0,1,1,81,73,11,11,0,0,1,70,84Zm0-19a8,8,0,1,0,8,8A8,8,0,0,0,70,65Z"/><path class="cls-1" d="M70,111a38,38,0,1,1,38-38A38,38,0,0,1,70,111Zm0-73a35,35,0,1,0,35,35A35,35,0,0,0,70,38Z"/><path class="cls-1" d="M146.5,178A23.5,23.5,0,1,1,170,154.5,23.52,23.52,0,0,1,146.5,178Zm0-44A20.5,20.5,0,1,0,167,154.5,20.53,20.53,0,0,0,146.5,134Z"/><path class="cls-1" d="M146.5,163a8.5,8.5,0,1,1,8.5-8.5A8.51,8.51,0,0,1,146.5,163Zm0-14a5.5,5.5,0,1,0,5.5,5.5A5.51,5.51,0,0,0,146.5,149Z"/><path class="cls-1" d="M143,228H143a66.58,66.58,0,0,1-8.13-.77,1.5,1.5,0,1,1,.45-3,69.61,69.61,0,0,0,7.79.74,1.5,1.5,0,0,1-.06,3Zm-15.77-2.44a1.39,1.39,0,0,1-.4-.06,68.41,68.41,0,0,1-7.73-2.65,1.5,1.5,0,1,1,1.14-2.78,64.43,64.43,0,0,0,7.39,2.54,1.5,1.5,0,0,1-.4,3Zm-14.77-6.07a1.47,1.47,0,0,1-.73-.19,69.79,69.79,0,0,1-6.89-4.39,1.5,1.5,0,1,1,1.76-2.43,67.42,67.42,0,0,0,6.59,4.2,1.5,1.5,0,0,1-.73,2.81ZM99.52,210.1a1.51,1.51,0,0,1-1-.39,69.94,69.94,0,0,1-5.68-5.87,1.5,1.5,0,1,1,2.27-2,65.56,65.56,0,0,0,5.44,5.62,1.5,1.5,0,0,1-1,2.6ZM89.11,198a1.49,1.49,0,0,1-1.24-.66,68.24,68.24,0,0,1-4.17-7A1.5,1.5,0,0,1,86.37,189a65.17,65.17,0,0,0,4,6.72,1.5,1.5,0,0,1-.4,2.08A1.46,1.46,0,0,1,89.11,198Zm-7.32-14.18a1.5,1.5,0,0,1-1.4-1A71.83,71.83,0,0,1,78,175.05a1.5,1.5,0,0,1,2.92-.71,64.92,64.92,0,0,0,2.3,7.46,1.51,1.51,0,0,1-.88,1.94A1.6,1.6,0,0,1,81.79,183.83ZM78,168.33A1.5,1.5,0,0,1,76.52,167a69.26,69.26,0,0,1-.52-8.15,1.51,1.51,0,0,1,1.49-1.51h0a1.5,1.5,0,0,1,1.5,1.49,67.66,67.66,0,0,0,.49,7.81,1.5,1.5,0,0,1-1.3,1.67Z"/><path class="cls-1" d="M221.42,162.58l-6.86-6.87a1.51,1.51,0,0,0-2.12,0l-6.86,6.87a1.49,1.49,0,0,0,0,2.12,1.51,1.51,0,0,0,2.12,0l4.22-4.23A66.57,66.57,0,0,1,145.5,224c-.82,0-1.63,0-2.44,0a1.5,1.5,0,1,0-.11,3c.84,0,1.7.05,2.55.05a69.58,69.58,0,0,0,69.43-66.68l4.37,4.38a1.53,1.53,0,0,0,1.06.44,1.5,1.5,0,0,0,1.06-2.56Z"/><path class="cls-1" d="M145.42,62.71a1.51,1.51,0,0,0-2.12,0l-4.36,4.37A69.57,69.57,0,0,0,69.5,0C68.76,0,68,0,67.29,0a2,2,0,0,0-.35.06,1.42,1.42,0,0,0-.36,0,70.88,70.88,0,0,0-8.12.81,1.5,1.5,0,0,0,.23,3,1,1,0,0,0,.24,0,67.41,67.41,0,0,1,7.78-.77A1.91,1.91,0,0,0,67,3a1.27,1.27,0,0,0,.34,0c.7,0,1.41,0,2.12,0a66.58,66.58,0,0,1,66.44,64l-4.24-4.24a1.51,1.51,0,0,0-2.12,0,1.49,1.49,0,0,0,0,2.12l6.86,6.87a1.5,1.5,0,0,0,2.12,0l6.86-6.87A1.49,1.49,0,0,0,145.42,62.71Z"/><path class="cls-1" d="M13.75,30.52a1.5,1.5,0,0,0-2.08.42A69.07,69.07,0,0,0,7.54,38a1.49,1.49,0,0,0,.65,2,1.4,1.4,0,0,0,.68.17,1.49,1.49,0,0,0,1.34-.82,67.27,67.27,0,0,1,4-6.75A1.5,1.5,0,0,0,13.75,30.52Z"/><path class="cls-1" d="M2.14,60A1.52,1.52,0,0,0,.47,61.35,71.44,71.44,0,0,0,0,69.5a1.5,1.5,0,0,0,3,0,67.48,67.48,0,0,1,.45-7.8A1.5,1.5,0,0,0,2.14,60Z"/><path class="cls-1" d="M6.19,44.59a1.49,1.49,0,0,0-1.92.89A69,69,0,0,0,1.9,53.3,1.5,1.5,0,0,0,3,55.11a1.39,1.39,0,0,0,.35,0A1.5,1.5,0,0,0,4.82,54a65.2,65.2,0,0,1,2.26-7.49A1.49,1.49,0,0,0,6.19,44.59Z"/><path class="cls-1" d="M50.48,2.64a67.63,67.63,0,0,0-7.71,2.69,1.5,1.5,0,0,0,.57,2.88,1.46,1.46,0,0,0,.58-.11A66.47,66.47,0,0,1,51.3,5.52a1.5,1.5,0,1,0-.82-2.88Z"/><path class="cls-1" d="M22.25,18.53a71.38,71.38,0,0,0-5.65,5.89,1.5,1.5,0,0,0,.17,2.12,1.49,1.49,0,0,0,1,.35,1.46,1.46,0,0,0,1.14-.52,67.12,67.12,0,0,1,5.42-5.64,1.5,1.5,0,1,0-2.05-2.2Z"/><path class="cls-1" d="M35.43,8.91a69.78,69.78,0,0,0-6.87,4.42A1.5,1.5,0,0,0,29.45,16a1.47,1.47,0,0,0,.88-.29,68.63,68.63,0,0,1,6.57-4.23,1.5,1.5,0,1,0-1.47-2.61Z"/></g></g></svg>