<svg xmlns="http://www.w3.org/2000/svg" viewBox="0 0 651.93 664.63"><defs><style>.cls-1{fill:#69e28e;stroke:#69e28e;stroke-width:6px;}.cls-1,.cls-2{stroke-miterlimit:10;}.cls-2{fill:#334451;stroke:#334451;stroke-width:8px;}.cls-3{fill:#b3b3b3;}.cls-4{fill:#fff;}</style></defs><title>human-growth</title><g id="Layer_2" data-name="Layer 2"><g id="icons"><path class="cls-1" d="M334.08,306.64a6.77,6.77,0,0,1-6.76-6.77V61.78q0-.31,0-.63c0-.2,1.72-21.26-10.11-34.19C310.9,20,301.52,16.53,289.35,16.53H199.12a6.77,6.77,0,0,1,0-13.53h90.23c16.16,0,28.93,5,37.94,14.9,15,16.53,13.81,40.8,13.55,44.15V299.87A6.76,6.76,0,0,1,334.08,306.64Z"/><path class="cls-1" d="M335.23,216.92a6.77,6.77,0,0,1-4.7-11.63l40.23-38.87a6.76,6.76,0,0,1,9.4,9.73L339.93,215A6.74,6.74,0,0,1,335.23,216.92Z"/><path class="cls-1" d="M328.42,258.84a6.71,6.71,0,0,1-4.69-1.9L283.5,218.07a6.76,6.76,0,0,1,9.4-9.73l40.23,38.87a6.77,6.77,0,0,1-4.71,11.63Z"/><path class="cls-1" d="M374.87,177.77a6.76,6.76,0,0,1-6.75-6.38C368,169.63,366,128,393.8,99.08c17.3-18,42-26.92,73.59-26.41a6.77,6.77,0,0,1,6.43,5c.39,1.48,9.38,36.54-12,65.24-16.39,21.94-45.56,33.66-86.72,34.83Zm86.8-91.55c-25,.59-44.5,8.06-58.12,22.23-17.65,18.39-21.19,43.61-21.83,55.48,33-2,56.23-11.78,69.14-29C464.1,117.31,463,95.82,461.67,86.22Z"/><path class="cls-1" d="M290.54,220.38h-.28c-38.32-1.56-66-13.1-82.16-34.27-21.94-28.7-14.21-64.06-13.87-65.56a6.76,6.76,0,0,1,6.49-5.25c31.54-.49,56,8.39,72.86,26.42,27.06,29,23.84,70.72,23.69,72.48A6.77,6.77,0,0,1,290.54,220.38Zm-83.89-91.55c-1,9.82-1.32,31.46,12.28,49.16,12.7,16.53,34.53,26.09,64.95,28.46-.31-11.87-3.12-37.29-20.26-55.59C250.52,136.86,231.37,129.46,206.65,128.83Z"/><path class="cls-1" d="M174.17,58.22a77.17,77.17,0,0,1-19.41-2.46A6.75,6.75,0,0,1,150,47.94c3.52-17.68,11.52-30.36,23.79-37.69,19.64-11.73,42.68-4.88,43.66-4.58a6.75,6.75,0,0,1,4.76,6.9c-1.1,17-7.23,29.55-18.22,37.3C194.64,56.44,183.5,58.22,174.17,58.22ZM164.89,44c7.91,1.14,21.52,1.71,31.33-5.23C202.48,34.34,206.45,27.2,208,17.5c-6.53-.94-17.82-1.36-27.41,4.41C173.3,26.32,168,33.74,164.89,44Z"/><path class="cls-1" d="M334.08,101.64H281.43c-14.66-.1-42.3-8.86-42.3-41.27,0-29-22.93-36.68-23.16-36.76a6.76,6.76,0,0,1,4.13-12.87c11.26,3.61,32.56,18.64,32.56,49.63,0,26.55,25.89,27.7,28.84,27.75h52.58a6.76,6.76,0,0,1,0,13.52Z"/><path class="cls-2" d="M110.45,660.63a6.77,6.77,0,0,1-5.71-3.13L6.59,503.37a6.84,6.84,0,0,1-1.06-3.59L4,280.47a6.75,6.75,0,0,1,1.25-4c4.45-6.25,18.11-15.37,38-5.17.71.36,1.41.74,2.09,1.13,16.11,9.17,26.13,26.76,26.13,45.9V430.26a6.77,6.77,0,1,1-13.53,0V318.37c0-14.29-7.39-27.38-19.29-34.15-.51-.29-1-.57-1.57-.84-10.86-5.57-17-2.34-19.53-.31l1.51,214.67,97.1,152.49a6.77,6.77,0,0,1-5.7,10.4Z"/><path class="cls-2" d="M162.33,570.4a6.76,6.76,0,0,1-6.75-6.52c-.87-24-12.51-32.71-13-33.07a6.28,6.28,0,0,1-1.42-1.35c-15.34-19.6-51.75-9.52-52.11-9.42a6.77,6.77,0,0,1-7.31-2.5L69,500.16a6.77,6.77,0,0,1-1.31-4V459.72c-5.08-45.16-53.46-41.36-55.52-41.18a6.76,6.76,0,1,1-1.2-13.47,84.14,84.14,0,0,1,32.18,4.39c15.54,5.48,34.74,18.47,38,49.17a5.79,5.79,0,0,1,0,.72v34.59l8.81,12c12-2.5,44-6.7,61.3,14.53,3.7,3,16.82,15.63,17.81,42.94a6.75,6.75,0,0,1-6.51,7Z"/><path class="cls-2" d="M119.91,463.35a6.76,6.76,0,0,1-6.77-6.76V292.87c0-14.2-7.2-27.48-18.79-34.66-5.18-3.21-13-6.41-20.61-3.4-3.12,1.22-9.1,5.6-10.24,7.74,0,3.88.31,29.05.31,29.05l-13.52.15L50,262.2c-.13-11.62,18.64-19.91,18.83-20,10-3.93,21.64-2.33,32.67,4.5,15.54,9.62,25.2,27.31,25.2,46.16V456.59A6.76,6.76,0,0,1,119.91,463.35Z"/><path class="cls-2" d="M172.56,432.14a6.77,6.77,0,0,1-6.76-6.77V261.66c0-14.21-7.2-27.49-18.8-34.67-5.18-3.21-12.95-6.4-20.61-3.4-3.11,1.22-9.09,5.6-10.24,7.74,0,3.89.32,29,.32,29l-13.53.15L102.62,231c-.13-11.61,18.64-19.91,18.83-20,10-3.93,21.65-2.34,32.67,4.49,15.55,9.63,25.2,27.32,25.2,46.17V425.37A6.77,6.77,0,0,1,172.56,432.14Z"/><path class="cls-2" d="M279.91,657.56a6.94,6.94,0,0,1-2.35-.42,6.77,6.77,0,0,1-4-8.7c16.78-45.22,11.27-74.24,11.21-74.53s-.07-.43-.09-.65C278.89,516,229,468.92,228.53,468.45a6.77,6.77,0,0,1-2.15-4.95V326.84c0-14.21-7.21-27.49-18.8-34.67-5.18-3.21-13-6.4-20.61-3.4-2.82,1.11-7,4.47-7.54,6.1a6.77,6.77,0,0,1-13.53-.07c-.1-9.25,10.83-16.54,16.13-18.62,10-3.94,21.64-2.34,32.67,4.49,15.55,9.63,25.2,27.32,25.2,46.17v133.8c10.23,10.16,52.43,55.14,58.22,111,.69,3.85,5.42,34.94-11.87,81.53A6.77,6.77,0,0,1,279.91,657.56Z"/><path class="cls-2" d="M541.47,660.63a6.77,6.77,0,0,1-5.69-10.4l97.1-152.49,1.5-214.66c-2.5-2.07-8.69-5.26-19.52.3-.54.27-1.06.56-1.57.84C601.39,291,594,304.08,594,318.37V430.26a6.77,6.77,0,1,1-13.53,0V318.37c0-19.14,10-36.73,26.13-45.9.68-.39,1.38-.77,2.09-1.13,19.88-10.2,33.54-1.08,38,5.17a6.75,6.75,0,0,1,1.25,4L646.4,499.78a6.84,6.84,0,0,1-1.06,3.59L547.19,657.5A6.78,6.78,0,0,1,541.47,660.63Z"/><path class="cls-2" d="M489.6,570.4h-.25a6.75,6.75,0,0,1-6.51-7c1-27.31,14.11-39.91,17.81-42.94,17.34-21.23,49.3-17,61.3-14.53l8.81-12V459.35a5.79,5.79,0,0,1,0-.72c3.28-30.7,22.48-43.69,38-49.17A84.14,84.14,0,0,1,641,405.07a6.76,6.76,0,1,1-1.19,13.47c-2.16-.18-50.48-3.72-55.53,41.18v36.44a6.77,6.77,0,0,1-1.31,4l-12.78,17.38a6.78,6.78,0,0,1-7.32,2.5c-.35-.11-36.76-10.18-52.1,9.42a7.06,7.06,0,0,1-1.49,1.4c-.42.31-12.06,9.07-12.93,33A6.76,6.76,0,0,1,489.6,570.4Z"/><path class="cls-2" d="M532,463.35a6.76,6.76,0,0,1-6.76-6.76V292.87c0-18.85,9.66-36.54,25.2-46.16,11-6.83,22.63-8.43,32.67-4.5.19.08,19,8.37,18.83,20l-.32,29.56-13.52-.15s.27-25.12.31-29.05c-1.14-2.14-7.12-6.52-10.24-7.74-7.65-3-15.43.19-20.61,3.4-11.59,7.18-18.79,20.46-18.79,34.66V456.59A6.76,6.76,0,0,1,532,463.35Z"/><path class="cls-2" d="M479.37,432.14a6.76,6.76,0,0,1-6.76-6.77V261.66c0-18.85,9.65-36.54,25.2-46.17,11-6.83,22.63-8.42,32.66-4.49.2.07,19,8.37,18.84,20L549,260.53l-13.53-.15s.28-25.12.32-29c-1.14-2.14-7.13-6.52-10.24-7.74-7.66-3-15.44.19-20.61,3.4-11.6,7.18-18.8,20.46-18.8,34.67V425.37A6.77,6.77,0,0,1,479.37,432.14Z"/><path class="cls-2" d="M372,657.56a6.77,6.77,0,0,1-6.34-4.41c-17.29-46.59-12.56-77.68-11.87-81.53,5.79-55.84,48-100.82,58.22-111V326.84c0-18.85,9.65-36.54,25.2-46.17,11-6.83,22.63-8.43,32.67-4.49,5.3,2.08,16.23,9.37,16.12,18.62a6.76,6.76,0,0,1-6.76,6.69h-.07a6.76,6.76,0,0,1-6.69-6.62c-.58-1.63-4.72-5-7.54-6.1-7.65-3-15.43.19-20.61,3.4-11.59,7.18-18.8,20.46-18.8,34.67V463.5a6.76,6.76,0,0,1-2.15,4.95c-.5.47-50.36,47.56-56.16,104.81,0,.22-.05.43-.09.65s-5.44,29.66,11.21,74.53a6.77,6.77,0,0,1-4,8.7A6.94,6.94,0,0,1,372,657.56Z"/><path class="cls-3" d="M421.23,357.11h0c0-.2,0-.39,0-.58A63.83,63.83,0,0,0,303,323.09C285.6,307.54,258.33,308.64,241,326a46.8,46.8,0,0,0-13.79,31.23,64.41,64.41,0,0,0-60.52,64.29h0a64.41,64.41,0,0,0,64.41,64.41H421.23a64.41,64.41,0,0,0,64.41-64.41h0A64.41,64.41,0,0,0,421.23,357.11Z"/><path class="cls-4" d="M421.23,492.69H231.06A71.17,71.17,0,0,1,221,351.07a53.65,53.65,0,0,1,15.2-29.86c17.92-17.91,45.28-20.76,65.3-7.78a70.6,70.6,0,0,1,126.27,37.21,71.17,71.17,0,0,1-6.52,142.05ZM274,318.91a40.52,40.52,0,0,0-40.09,38.59l-.24,6.12-6.12.37a57.64,57.64,0,0,0,3.49,115.18H421.23a57.65,57.65,0,0,0,0-115.3h-6.82l0-6.81c0-.16,0-.31,0-.47a57.08,57.08,0,0,0-105.7-29.95l-4.23,6.87-6-5.38A36.63,36.63,0,0,0,274,318.91Z"/></g></g></svg>