<svg xmlns="http://www.w3.org/2000/svg" viewBox="0 0 651.93 664.63"><defs><style>.cls-1{fill:#69e28e;}.cls-2{fill:#334451;}.cls-3{fill:#b3b3b3;}.cls-4{fill:#fff;}</style></defs><title>human-growth_1</title><g id="Layer_2" data-name="Layer 2"><g id="icons"><path class="cls-1" d="M334.08,306.64a6.77,6.77,0,0,1-6.76-6.77V61.78q0-.31,0-.63c0-.2,1.72-21.26-10.11-34.19C310.9,20,301.52,16.53,289.35,16.53H199.12a6.77,6.77,0,0,1,0-13.53h90.23c16.16,0,28.93,5,37.94,14.9,15,16.53,13.81,40.8,13.55,44.15V299.87A6.76,6.76,0,0,1,334.08,306.64Z"/><path class="cls-1" d="M334.08,309.64a9.78,9.78,0,0,1-9.76-9.77V61.78c0-.3,0-.6,0-.9S325.88,40.83,315,29c-5.74-6.27-14.38-9.45-25.67-9.45H199.12a9.77,9.77,0,0,1,0-19.53h90.23c17,0,30.55,5.34,40.15,15.88C345.05,33,344.21,57.17,343.84,62.16V299.87A9.78,9.78,0,0,1,334.08,309.64ZM199.12,6a3.77,3.77,0,0,0,0,7.53h90.23c13,0,23.17,3.83,30.1,11.4,12.71,13.88,10.91,36.26,10.89,36.48a2.36,2.36,0,0,0,0,.37V299.87a3.76,3.76,0,1,0,7.52,0v-238c.2-2.64,1.53-26.2-12.78-41.91C316.65,10.68,304.63,6,289.35,6Z"/><path class="cls-1" d="M335.23,216.92a6.77,6.77,0,0,1-4.7-11.63l40.23-38.87a6.76,6.76,0,0,1,9.4,9.73L339.93,215A6.74,6.74,0,0,1,335.23,216.92Z"/><path class="cls-1" d="M335.23,219.92a9.76,9.76,0,0,1-6.78-16.78l40.22-38.88a9.76,9.76,0,1,1,13.57,14L342,217.18A9.73,9.73,0,0,1,335.23,219.92Zm40.23-52.4a3.73,3.73,0,0,0-2.62,1.06l-40.22,38.87a3.76,3.76,0,0,0,2.61,6.47,3.78,3.78,0,0,0,2.62-1.06L378.07,174a3.77,3.77,0,0,0,1.15-2.64,3.77,3.77,0,0,0-3.76-3.83Z"/><path class="cls-1" d="M328.42,258.84a6.71,6.71,0,0,1-4.69-1.9L283.5,218.07a6.76,6.76,0,0,1,9.4-9.73l40.23,38.87a6.77,6.77,0,0,1-4.71,11.63Z"/><path class="cls-1" d="M328.42,261.84a9.75,9.75,0,0,1-6.78-2.74l-40.22-38.88a9.76,9.76,0,1,1,13.56-14l40.23,38.87a9.77,9.77,0,0,1-6.79,16.79Zm-40.22-52.4h-.06a3.77,3.77,0,0,0-2.56,6.47l40.23,38.87a3.76,3.76,0,0,0,5.32-.09,3.71,3.71,0,0,0,1.06-2.68,3.77,3.77,0,0,0-1.15-2.64L290.81,210.5A3.69,3.69,0,0,0,288.2,209.44Z"/><path class="cls-1" d="M374.87,177.77a6.76,6.76,0,0,1-6.75-6.38C368,169.63,366,128,393.8,99.08c17.3-18,42-26.92,73.59-26.41a6.77,6.77,0,0,1,6.43,5c.39,1.48,9.38,36.54-12,65.24-16.39,21.94-45.56,33.66-86.72,34.83Zm86.8-91.55c-25,.59-44.5,8.06-58.12,22.23-17.65,18.39-21.19,43.61-21.83,55.48,33-2,56.23-11.78,69.14-29C464.1,117.31,463,95.82,461.67,86.22Z"/><path class="cls-1" d="M374.87,180.77a9.77,9.77,0,0,1-9.75-9.22C365,169.74,363,126.86,391.64,97c17.92-18.66,43.43-27.86,75.8-27.33a9.81,9.81,0,0,1,9.28,7.26c.41,1.53,9.73,38-12.54,67.8-17,22.72-46.91,34.84-89,36ZM464.82,75.65c-29.44,0-52.6,8.58-68.86,25.51-26.88,28-24.94,68.35-24.85,70.06a3.77,3.77,0,0,0,3.76,3.55h.1c40.2-1.14,68.6-12.45,84.4-33.63,20.56-27.54,11.93-61.25,11.55-62.67a3.78,3.78,0,0,0-3.58-2.8Zm-86.28,91.48.18-3.36c.73-13.38,4.64-38.62,22.67-57.4,14.17-14.75,34.43-22.54,60.21-23.15l2.67-.06.37,2.64c1.28,9,2.73,32.15-11.38,51-13.45,17.92-37.46,28.07-71.36,30.18ZM459,89.31c-22.85,1-40.77,8.16-53.31,21.22-15.29,15.91-19.62,37.08-20.77,50.16,30.25-2.42,51.61-11.68,63.51-27.54C460,117.74,460,98.9,459,89.31Z"/><path class="cls-1" d="M290.54,220.38h-.28c-38.32-1.56-66-13.1-82.16-34.27-21.94-28.7-14.21-64.06-13.87-65.56a6.78,6.78,0,0,1,6.49-5.26c31.54-.48,56,8.4,72.86,26.43,27.06,29,23.84,70.72,23.69,72.48A6.77,6.77,0,0,1,290.54,220.38Zm-83.89-91.55c-1,9.82-1.32,31.46,12.28,49.16,12.7,16.53,34.53,26.09,64.95,28.46-.31-11.87-3.12-37.29-20.26-55.59C250.52,136.86,231.37,129.46,206.65,128.83Z"/><path class="cls-1" d="M290.54,223.38h-.41c-39.25-1.6-67.65-13.53-84.41-35.45-22.79-29.79-14.77-66.49-14.41-68a9.73,9.73,0,0,1,9.36-7.59c32.4-.5,57.7,8.71,75.11,27.37,27.94,30,24.63,73,24.48,74.79A9.82,9.82,0,0,1,290.54,223.38ZM203.15,118.27h-2.38a3.76,3.76,0,0,0-3.61,2.93c-.33,1.44-7.77,35.48,13.32,63.07,15.63,20.43,42.51,31.57,79.9,33.1h.16a3.78,3.78,0,0,0,3.74-3.44c.15-1.71,3.26-42.16-22.89-70.19C255.61,126.84,232.65,118.27,203.15,118.27ZM287,209.7l-3.32-.26c-31.29-2.43-53.87-12.4-67.1-29.62-14-18.17-14.07-39.94-12.89-51.3l.29-2.75,2.77.07c25.55.64,45.43,8.37,59.09,23,17.51,18.7,20.72,44.09,21.07,57.56Zm-77.58-77.76c-.63,9.74,0,28.74,11.91,44.22,11.69,15.21,31.68,24.28,59.44,27-.77-13.15-4.49-34.43-19.31-50.25C249.41,140.06,231.91,133,209.39,131.94Z"/><path class="cls-1" d="M174.17,58.22a77.17,77.17,0,0,1-19.41-2.46A6.75,6.75,0,0,1,150,47.94c3.52-17.68,11.52-30.36,23.79-37.69,19.64-11.73,42.68-4.88,43.66-4.58a6.75,6.75,0,0,1,4.76,6.9c-1.1,17-7.23,29.55-18.22,37.29C194.64,56.44,183.5,58.22,174.17,58.22ZM164.89,44c7.91,1.14,21.52,1.71,31.33-5.23C202.48,34.34,206.45,27.2,208,17.5c-6.53-.94-17.82-1.36-27.41,4.41C173.3,26.32,168,33.74,164.89,44Z"/><path class="cls-1" d="M174.17,61.22a80,80,0,0,1-20.23-2.57,9.82,9.82,0,0,1-6.9-11.3c3.69-18.54,12.17-31.89,25.19-39.67C193-4.75,217.28,2.49,218.31,2.8a9.74,9.74,0,0,1,6.88,10C224,30.71,217.46,44,205.7,52.32,197.32,58.23,186.71,61.22,174.17,61.22ZM200.38,6.38c-7.51,0-16.63,1.4-25.07,6.45-11.51,6.87-19,18.88-22.39,35.69a3.79,3.79,0,0,0,2.66,4.36,75,75,0,0,0,18.59,2.34c11.28,0,20.72-2.62,28.07-7.81,10.21-7.2,15.92-19,17-35a3.75,3.75,0,0,0-2.65-3.84A59.27,59.27,0,0,0,200.38,6.38ZM174.19,47.69a68.38,68.38,0,0,1-9.73-.71l-3.47-.5,1-3.35c3.36-11,9.1-19,17.06-23.79C189.63,13,202,13.6,208.47,14.54l3,.43-.5,3C209.27,28.5,204.88,36.32,198,41.23,190.74,46.33,181.73,47.69,174.19,47.69Zm-5.26-6.23c7.3.64,17.86.32,25.55-5.13,4.91-3.47,8.26-8.92,10-16.21-6-.49-14.79-.15-22.29,4.36C176.35,28,171.9,33.69,168.93,41.46Z"/><path class="cls-1" d="M334.08,101.64H281.43c-14.66-.1-42.3-8.86-42.3-41.27,0-29-22.93-36.68-23.16-36.76a6.76,6.76,0,0,1,4.13-12.87c11.26,3.61,32.56,18.64,32.56,49.63,0,26.55,25.89,27.7,28.84,27.75h52.58a6.76,6.76,0,0,1,0,13.52Z"/><path class="cls-1" d="M334.08,104.64H281.43c-15.68-.11-45.3-9.51-45.3-44.27,0-26.51-20.24-33.62-21.1-33.91a9.76,9.76,0,0,1,6-18.58c12,3.85,34.64,19.77,34.64,52.49,0,23.18,21.56,24.68,25.89,24.75h52.53a9.76,9.76,0,0,1,0,19.52ZM218,13.41a3.69,3.69,0,0,0-1.71.42,3.76,3.76,0,0,0,.57,6.93c.24.08,25.24,8.39,25.24,39.61,0,30.05,25.72,38.17,39.32,38.27h52.63a3.76,3.76,0,0,0,0-7.52H281.5c-11.85-.18-31.84-6.86-31.84-30.75,0-29.26-19.93-43.39-30.47-46.78A3.85,3.85,0,0,0,218,13.41Z"/><path class="cls-2" d="M110.45,660.63a6.77,6.77,0,0,1-5.71-3.13L6.59,503.37a6.84,6.84,0,0,1-1.06-3.59L4,280.47a6.8,6.8,0,0,1,1.25-4c4.45-6.24,18.11-15.36,38-5.16.71.36,1.41.74,2.09,1.13,16.11,9.17,26.13,26.76,26.13,45.9V430.26a6.77,6.77,0,1,1-13.53,0V318.37c0-14.29-7.39-27.38-19.29-34.15-.51-.29-1-.57-1.57-.84-10.86-5.57-17-2.35-19.53-.31l1.51,214.67,97.1,152.49a6.77,6.77,0,0,1-5.7,10.4Z"/><path class="cls-2" d="M110.45,664.63a10.72,10.72,0,0,1-9.08-5L3.22,505.51a10.73,10.73,0,0,1-1.69-5.7L0,280.5a10.63,10.63,0,0,1,2-6.31c5.14-7.22,20.75-17.86,43.08-6.41.76.39,1.51.8,2.23,1.21,17.37,9.88,28.16,28.8,28.16,49.38V430.26a10.77,10.77,0,1,1-21.53,0V318.37c0-12.86-6.62-24.61-17.27-30.67-.46-.26-.93-.52-1.41-.76C28.31,283.38,24,284,21.56,285.21L23,496.56l96.49,151.52a10.77,10.77,0,0,1-9.08,16.55ZM25.94,270.77c-8.91,0-14.93,4.54-17.43,8.05A2.79,2.79,0,0,0,8,280.45l1.53,219.3a2.84,2.84,0,0,0,.44,1.47l98.15,154.13a2.75,2.75,0,0,0,2.33,1.28,2.67,2.67,0,0,0,1.48-.44,2.75,2.75,0,0,0,.85-3.81L15.05,498.92,13.53,281.2,15,280c2.8-2.3,10.72-6.92,23.9-.16.59.3,1.16.61,1.72.93,13.14,7.48,21.31,21.89,21.31,37.62V430.26a2.77,2.77,0,1,0,5.53,0V318.37c0-17.71-9.24-34-24.11-42.43-.63-.35-1.28-.7-1.93-1A33.9,33.9,0,0,0,25.94,270.77Z"/><path class="cls-2" d="M162.33,570.4a6.76,6.76,0,0,1-6.75-6.52c-.87-24-12.51-32.71-13-33.07a6.28,6.28,0,0,1-1.42-1.35c-15.34-19.6-51.75-9.52-52.11-9.42a6.77,6.77,0,0,1-7.31-2.5L69,500.16a6.77,6.77,0,0,1-1.31-4V459.72c-5.08-45.16-53.46-41.36-55.52-41.18a6.76,6.76,0,1,1-1.2-13.47,84.25,84.25,0,0,1,32.18,4.38c15.54,5.49,34.74,18.48,38,49.18a5.79,5.79,0,0,1,0,.72v34.59l8.81,12c12-2.5,44-6.7,61.3,14.53,3.7,3,16.82,15.63,17.81,42.94a6.75,6.75,0,0,1-6.51,7Z"/><path class="cls-2" d="M162.33,574.4A10.72,10.72,0,0,1,151.58,564c-.78-21.57-10.62-29.43-11.34-30a10.42,10.42,0,0,1-2.23-2.13c-13.58-17.36-47.54-8.14-47.88-8a10.81,10.81,0,0,1-11.61-4L65.74,502.53a10.66,10.66,0,0,1-2.09-6.37V459.94c-4.78-41.06-49.27-37.58-51.16-37.41a10.76,10.76,0,1,1-1.92-21.44,89,89,0,0,1,33.87,4.59c16.62,5.87,37.17,19.75,40.67,52.52a10.93,10.93,0,0,1,.06,1.15v33.27l6.53,8.89c14.62-2.67,44.87-5,62.42,16.11,4.59,3.86,17.95,17.48,19,45.62a10.76,10.76,0,0,1-10.36,11.15ZM110,513.33c11.87,0,25.76,2.76,34.3,13.67a2.31,2.31,0,0,0,.54.52l.09.06c1.4,1,13.71,10.73,14.64,36.15a2.75,2.75,0,0,0,2.75,2.67h.09a2.77,2.77,0,0,0,1.94-.88,2.8,2.8,0,0,0,.74-2c-.93-25.46-12.75-37-16.36-40l-.31-.26-.25-.31c-15.82-19.37-45.4-15.65-57.38-13.15l-2.52.53L77.17,495.25v-35.9a2.81,2.81,0,0,0,0-.29c-3.06-28.64-20.93-40.73-35.38-45.83a79.79,79.79,0,0,0-30.5-4.17,2.76,2.76,0,0,0,.49,5.5c2.22-.2,54.35-4.26,59.85,44.71l0,.45v36.44a2.74,2.74,0,0,0,.53,1.63L85,515.17a2.77,2.77,0,0,0,3,1A89.51,89.51,0,0,1,110,513.33Z"/><path class="cls-2" d="M119.91,463.35a6.77,6.77,0,0,1-6.77-6.76V292.87c0-14.2-7.2-27.48-18.79-34.66-5.18-3.21-13-6.41-20.61-3.4-3.12,1.22-9.1,5.6-10.24,7.74,0,3.88.31,29.05.31,29.05l-13.52.15L50,262.2c-.13-11.62,18.64-19.91,18.83-20,10-3.93,21.64-2.33,32.67,4.5,15.54,9.62,25.2,27.31,25.2,46.16V456.59A6.76,6.76,0,0,1,119.91,463.35Z"/><path class="cls-2" d="M119.91,467.35a10.78,10.78,0,0,1-10.77-10.76V292.87c0-12.83-6.47-24.81-16.9-31.26-4.4-2.73-10.93-5.48-17-3.08a30,30,0,0,0-7.69,5.34l.34,31.69-21.52.23L46,262.24c-.16-14.6,21.15-23.66,21.36-23.75,11.25-4.4,24.12-2.69,36.24,4.82,16.72,10.35,27.1,29.34,27.1,49.56V456.59A10.78,10.78,0,0,1,119.91,467.35ZM80.2,249.6c5.17,0,10.67,1.75,16.25,5.21,12.77,7.9,20.69,22.49,20.69,38.06V456.59a2.77,2.77,0,0,0,5.53,0V292.87c0-17.47-8.93-33.86-23.31-42.76-9.9-6.14-20.21-7.62-29-4.2C66,247.81,53.89,254.77,54,262.15l.27,25.55,5.53-.06-.28-26.08.48-.9c1.77-3.32,8.71-8.17,12.31-9.58A21.5,21.5,0,0,1,80.2,249.6Z"/><path class="cls-2" d="M172.56,432.14a6.77,6.77,0,0,1-6.76-6.77V261.66c0-14.21-7.2-27.49-18.8-34.67-5.18-3.21-12.95-6.4-20.61-3.4-3.11,1.22-9.09,5.6-10.24,7.74,0,3.89.32,29,.32,29l-13.53.15L102.62,231c-.13-11.61,18.64-19.91,18.83-20,10-3.93,21.65-2.34,32.67,4.49,15.55,9.63,25.2,27.32,25.2,46.17V425.37A6.77,6.77,0,0,1,172.56,432.14Z"/><path class="cls-2" d="M172.56,436.14a10.78,10.78,0,0,1-10.76-10.77V261.66c0-12.83-6.48-24.81-16.91-31.27-4.4-2.73-10.92-5.47-17-3.07a29.76,29.76,0,0,0-7.68,5.33l.34,31.69L99,264.57,98.62,231c-.16-14.6,21.15-23.66,21.37-23.74,11.25-4.41,24.11-2.7,36.24,4.81,16.71,10.35,27.09,29.34,27.09,49.57V425.37A10.78,10.78,0,0,1,172.56,436.14ZM132.85,218.39c5.18,0,10.68,1.74,16.26,5.2,12.76,7.9,20.69,22.49,20.69,38.07V425.37a2.76,2.76,0,1,0,5.52,0V261.66c0-17.48-8.93-33.87-23.3-42.77-9.91-6.13-20.22-7.62-29-4.19-4.33,1.89-16.44,8.86-16.36,16.24l.28,25.55,5.52-.06-.28-26.08.48-.91c1.78-3.32,8.72-8.17,12.31-9.57A21.54,21.54,0,0,1,132.85,218.39Z"/><path class="cls-2" d="M279.91,657.56a6.94,6.94,0,0,1-2.35-.42,6.77,6.77,0,0,1-4-8.7c16.78-45.22,11.27-74.24,11.21-74.53s-.07-.43-.09-.65C278.89,516,229,468.92,228.53,468.45a6.77,6.77,0,0,1-2.15-4.95V326.84c0-14.21-7.21-27.49-18.8-34.67-5.18-3.21-13-6.4-20.61-3.4-2.82,1.11-7,4.47-7.54,6.1a6.77,6.77,0,0,1-13.53-.07c-.1-9.25,10.83-16.54,16.13-18.62,10-3.94,21.64-2.34,32.67,4.49,15.55,9.63,25.2,27.32,25.2,46.17v133.8c10.23,10.16,52.43,55.14,58.22,111,.69,3.85,5.42,34.94-11.87,81.53A6.77,6.77,0,0,1,279.91,657.56Z"/><path class="cls-2" d="M279.91,661.56h0a10.93,10.93,0,0,1-3.74-.67,10.79,10.79,0,0,1-6.35-13.84c16.22-43.71,11.09-72.1,11-72.38a7.75,7.75,0,0,1-.15-1c-5.63-55.56-54.42-101.83-54.91-102.29a10.79,10.79,0,0,1-3.42-7.88V326.84c0-12.83-6.48-24.81-16.91-31.27-4.4-2.73-10.93-5.47-17-3.07a17.31,17.31,0,0,0-5.09,3.65,10.71,10.71,0,0,1-10.56,9.34,10.58,10.58,0,0,1-7.59-3,10.78,10.78,0,0,1-3.29-7.65c-.11-10.93,11.39-19.53,18.67-22.39,11.25-4.4,24.11-2.69,36.24,4.82,16.71,10.35,27.09,29.34,27.09,49.57V459c13.67,13.84,52.47,57.51,58.18,112.08.73,4.22,5.41,36.33-12.07,83.48A10.82,10.82,0,0,1,279.91,661.56Zm-86.48-378c5.17,0,10.68,1.74,16.26,5.2,12.76,7.9,20.69,22.49,20.69,38.07V463.5a2.79,2.79,0,0,0,.88,2c.51.47,51.46,48.57,57.41,107.33,0,.08,0,.17,0,.26.06.3,5.78,30.44-11.39,76.71a2.77,2.77,0,0,0,1.63,3.56,2.81,2.81,0,0,0,3.55-1.63c17-45.78,12.27-76.13,11.68-79.44l0-.29c-5.7-55-48.53-100.09-57.06-108.55l-1.18-1.18V326.84c0-17.48-8.93-33.87-23.3-42.77-9.94-6.15-20.27-7.63-29.11-4.17-4.77,1.87-13.66,8.15-13.59,14.86a2.79,2.79,0,0,0,.85,2,2.56,2.56,0,0,0,1.9.75,2.75,2.75,0,0,0,2.78-2.7v-.65l.22-.61c1.16-3.28,6.61-7.21,9.85-8.48A21.5,21.5,0,0,1,193.43,283.57Z"/><path class="cls-2" d="M541.47,660.63a6.77,6.77,0,0,1-5.69-10.4l97.1-152.49,1.5-214.66c-2.5-2.07-8.69-5.26-19.52.3-.54.27-1.06.56-1.57.84C601.39,291,594,304.08,594,318.37V430.26a6.77,6.77,0,1,1-13.53,0V318.37c0-19.14,10-36.73,26.13-45.9.68-.39,1.38-.77,2.09-1.13,19.88-10.2,33.54-1.08,38,5.17a6.75,6.75,0,0,1,1.25,4L646.4,499.78a6.84,6.84,0,0,1-1.06,3.59L547.19,657.5A6.78,6.78,0,0,1,541.47,660.63Z"/><path class="cls-2" d="M541.47,664.63a10.77,10.77,0,0,1-9.07-16.55l96.49-151.52,1.48-211.35c-2.44-1.21-6.75-1.83-13.69,1.73-.49.25-1,.5-1.42.76C604.62,293.76,598,305.51,598,318.37V430.26a10.77,10.77,0,1,1-21.53,0V318.37c0-20.58,10.79-39.5,28.16-49.38.73-.42,1.48-.82,2.24-1.21,22.32-11.45,37.93-.81,43.07,6.41a10.65,10.65,0,0,1,2,6.31L650.4,499.81a10.82,10.82,0,0,1-1.69,5.71L550.56,659.64A10.73,10.73,0,0,1,541.47,664.63ZM626,276.29a17.05,17.05,0,0,1,11,3.7l1.47,1.21-1.52,217.72L539.15,652.38a2.75,2.75,0,0,0,.85,3.81,2.67,2.67,0,0,0,1.47.44,2.76,2.76,0,0,0,2.34-1.28L642,501.22a2.84,2.84,0,0,0,.44-1.47l1.53-219.3a2.79,2.79,0,0,0-.51-1.63c-3.75-5.27-15.45-12.87-32.9-3.92-.67.34-1.31.69-1.94,1-14.87,8.46-24.11,24.72-24.11,42.43V430.26a2.77,2.77,0,1,0,5.53,0V318.37c0-15.73,8.16-30.14,21.31-37.62.56-.32,1.13-.63,1.73-.94A28.37,28.37,0,0,1,626,276.29Z"/><path class="cls-2" d="M489.6,570.4h-.25a6.75,6.75,0,0,1-6.51-7c1-27.31,14.11-39.91,17.81-42.94,17.34-21.23,49.3-17,61.3-14.53l8.81-12V459.35a5.79,5.79,0,0,1,0-.72c3.28-30.7,22.48-43.69,38-49.18A84.25,84.25,0,0,1,641,405.07a6.76,6.76,0,1,1-1.19,13.47c-2.16-.18-50.48-3.72-55.53,41.18v36.44a6.77,6.77,0,0,1-1.31,4l-12.78,17.38a6.78,6.78,0,0,1-7.32,2.5c-.35-.11-36.76-10.18-52.1,9.42a7.06,7.06,0,0,1-1.49,1.4c-.42.31-12.06,9.07-12.93,33A6.76,6.76,0,0,1,489.6,570.4Z"/><path class="cls-2" d="M489.6,574.4h-.42a10.76,10.76,0,0,1-10.34-11.15c1-28.14,14.38-41.76,19-45.62,17.55-21.11,47.79-18.78,62.42-16.11l6.53-8.89V459.35a10.93,10.93,0,0,1,.06-1.15c3.5-32.77,24-46.65,40.66-52.52a87.39,87.39,0,0,1,33.87-4.59,10.76,10.76,0,0,1-1.88,21.44c-1.9-.16-46.44-3.45-51.19,37.41v36.22a10.66,10.66,0,0,1-2.09,6.37l-12.78,17.38a10.8,10.8,0,0,1-11.64,4c-.32-.09-34.26-9.32-47.85,8a11,11,0,0,1-2.3,2.17c-.67.52-10.49,8.39-11.27,29.93A10.73,10.73,0,0,1,489.6,574.4Zm52.3-66.61c-13,0-28.26,3.08-38.15,15.19l-.25.31-.32.26c-3.6,2.94-15.42,14.52-16.35,40a2.8,2.8,0,0,0,.74,2,2.76,2.76,0,0,0,1.92.88h.11a2.75,2.75,0,0,0,2.75-2.67c.93-25.38,13.17-35.07,14.57-36.09l.09-.07a3,3,0,0,0,.61-.57c16.94-21.65,54.74-11.27,56.34-10.81a2.79,2.79,0,0,0,3-1l12.78-17.38a2.74,2.74,0,0,0,.53-1.63l0-36.89c5.48-48.74,57.62-44.9,59.83-44.71a2.77,2.77,0,1,0,.51-5.51,80.14,80.14,0,0,0-30.5,4.18c-14.45,5.1-32.32,17.19-35.38,45.83a2.81,2.81,0,0,0,0,.29v35.9l-11.11,15.11-2.52-.53A96.77,96.77,0,0,0,541.9,507.79Z"/><path class="cls-2" d="M532,463.35a6.76,6.76,0,0,1-6.76-6.76V292.87c0-18.85,9.66-36.54,25.2-46.16,11-6.83,22.63-8.43,32.67-4.5.19.08,19,8.37,18.83,20l-.32,29.56-13.52-.15s.27-25.12.31-29.05c-1.14-2.14-7.12-6.52-10.24-7.74-7.65-3-15.43.19-20.61,3.4-11.59,7.18-18.79,20.46-18.79,34.66V456.59A6.77,6.77,0,0,1,532,463.35Z"/><path class="cls-2" d="M532,467.35a10.78,10.78,0,0,1-10.76-10.76V292.87c0-20.22,10.38-39.21,27.09-49.56,12.13-7.51,25-9.22,36.24-4.82.22.09,21.53,9.13,21.37,23.74l-.36,33.56-21.52-.23.34-31.7a30.29,30.29,0,0,0-7.69-5.33c-6.11-2.39-12.64.35-17,3.08-10.43,6.45-16.9,18.43-16.9,31.26V456.59A10.78,10.78,0,0,1,532,467.35Zm39.8-223.24c-6.25,0-12.83,2-19.25,6-14.38,8.9-23.31,25.29-23.31,42.76V456.59a2.77,2.77,0,0,0,5.53,0V292.87c0-15.57,7.92-30.16,20.69-38.06,8.54-5.29,16.9-6.58,24.17-3.73,3.59,1.41,10.54,6.26,12.31,9.58l.48.9-.28,26.08,5.53.06.27-25.55c.08-7.38-12-14.34-16.35-16.24A27.06,27.06,0,0,0,571.82,244.11Z"/><path class="cls-2" d="M479.37,432.14a6.76,6.76,0,0,1-6.76-6.77V261.66c0-18.85,9.65-36.54,25.2-46.17,11-6.83,22.63-8.43,32.66-4.49.2.07,19,8.37,18.84,20L549,260.53l-13.53-.15s.28-25.12.32-29c-1.14-2.14-7.13-6.52-10.24-7.74-7.66-3-15.44.19-20.61,3.4-11.6,7.18-18.8,20.46-18.8,34.67V425.37A6.77,6.77,0,0,1,479.37,432.14Z"/><path class="cls-2" d="M479.37,436.14a10.77,10.77,0,0,1-10.76-10.77V261.66c0-20.23,10.38-39.22,27.09-49.57,12.13-7.51,25-9.22,36.23-4.82.22.09,21.54,9.13,21.38,23.75L553,264.57l-21.53-.23.34-31.7a30.21,30.21,0,0,0-7.68-5.32c-6.12-2.4-12.65.34-17.05,3.07-10.42,6.46-16.9,18.44-16.9,31.27V425.37A10.78,10.78,0,0,1,479.37,436.14Zm39.79-223.25c-6.24,0-12.83,2-19.25,6-14.37,8.9-23.3,25.29-23.3,42.77V425.37a2.76,2.76,0,1,0,5.52,0V261.66c0-15.58,7.93-30.17,20.69-38.07,8.54-5.29,16.9-6.58,24.18-3.72,3.59,1.4,10.53,6.26,12.31,9.58l.48.9-.28,26.08,5.52.06.28-25.56c.08-7.37-12-14.34-16.36-16.23A26.78,26.78,0,0,0,519.16,212.89Z"/><path class="cls-2" d="M372,657.56a6.77,6.77,0,0,1-6.34-4.41c-17.29-46.59-12.56-77.68-11.87-81.53,5.79-55.84,48-100.82,58.22-111V326.84c0-18.85,9.65-36.54,25.2-46.17,11-6.83,22.63-8.43,32.67-4.49,5.3,2.08,16.23,9.37,16.12,18.62a6.76,6.76,0,0,1-6.76,6.69h-.07a6.76,6.76,0,0,1-6.69-6.62c-.58-1.63-4.72-5-7.54-6.1-7.65-3-15.43.19-20.61,3.4-11.59,7.18-18.8,20.46-18.8,34.67V463.5a6.77,6.77,0,0,1-2.15,4.95c-.5.47-50.36,47.56-56.16,104.81,0,.22-.05.43-.09.65s-5.44,29.66,11.21,74.53a6.77,6.77,0,0,1-4,8.7A6.94,6.94,0,0,1,372,657.56Z"/><path class="cls-2" d="M372,661.56a10.79,10.79,0,0,1-10.09-7c-17.5-47.15-12.81-79.26-12.08-83.48C355.56,516.49,394.36,472.82,408,459V326.84c0-20.23,10.38-39.22,27.09-49.57,12.13-7.51,25-9.22,36.24-4.82,7.28,2.86,18.78,11.46,18.66,22.4a10.79,10.79,0,0,1-10.76,10.64h-.15a10.7,10.7,0,0,1-10.52-9.34,17.13,17.13,0,0,0-5.09-3.65c-6.11-2.4-12.64.34-17,3.07C436,302,429.55,314,429.55,326.84V463.5a10.8,10.8,0,0,1-3.43,7.88c-.48.46-49.27,46.74-54.9,102.29a9.13,9.13,0,0,1-.15,1c-.05.23-5.05,29,11,72.35a10.78,10.78,0,0,1-6.35,13.84A10.93,10.93,0,0,1,372,661.56Zm86.56-383.49c-6.24,0-12.83,2-19.25,6C425,293,416,309.36,416,326.84V462.3l-1.18,1.18c-8.53,8.46-51.36,53.5-57.06,108.55l0,.29c-.59,3.31-5.31,33.66,11.68,79.44a2.81,2.81,0,0,0,3.55,1.63,2.77,2.77,0,0,0,1.63-3.56c-17-45.93-11.45-76.38-11.39-76.68,0-.12,0-.21,0-.29,5.95-58.72,56.9-106.85,57.41-107.33a2.79,2.79,0,0,0,.88-2V326.84c0-15.58,7.93-30.17,20.69-38.07,8.54-5.29,16.9-6.58,24.18-3.72,3.24,1.27,8.69,5.2,9.85,8.48l.22.61v.65a2.74,2.74,0,0,0,2.73,2.7h0a2.78,2.78,0,0,0,2.8-2.73c.07-6.71-8.82-13-13.59-14.86A27,27,0,0,0,458.58,278.07Z"/><path class="cls-3" d="M421.23,357.11h0c0-.2,0-.39,0-.58A63.83,63.83,0,0,0,303,323.09C285.6,307.54,258.33,308.64,241,326a46.8,46.8,0,0,0-13.79,31.23,64.41,64.41,0,0,0-60.52,64.29h0a64.41,64.41,0,0,0,64.41,64.41H421.23a64.41,64.41,0,0,0,64.41-64.41h0A64.41,64.41,0,0,0,421.23,357.11Z"/><path class="cls-4" d="M421.23,492.69H231.06A71.17,71.17,0,0,1,221,351.07a53.65,53.65,0,0,1,15.2-29.86c17.92-17.91,45.28-20.76,65.3-7.78a70.6,70.6,0,0,1,126.27,37.21,71.17,71.17,0,0,1-6.52,142.05ZM274,318.91a40.52,40.52,0,0,0-40.09,38.59l-.24,6.12-6.12.37a57.64,57.64,0,0,0,3.49,115.18H421.23a57.65,57.65,0,0,0,0-115.3h-6.82l0-6.81c0-.16,0-.31,0-.47a57.08,57.08,0,0,0-105.7-29.95l-4.23,6.87-6-5.38A36.63,36.63,0,0,0,274,318.91Z"/></g></g></svg>