<svg xmlns="http://www.w3.org/2000/svg" xmlns:xlink="http://www.w3.org/1999/xlink" viewBox="0 0 1172.4 2283"><defs><style>.cls-1,.cls-10,.cls-14,.cls-8{fill:none;}.cls-2{clip-path:url(#clip-path);}.cls-3{fill:#487fe5;}.cls-4{fill:#7facf6;}.cls-5{fill:#4858b7;}.cls-6{fill:#4f5963;}.cls-7{fill:#ccc;}.cls-8{stroke:#b3b3b3;}.cls-10,.cls-8{stroke-linecap:round;stroke-width:15px;}.cls-10,.cls-14,.cls-8{stroke-miterlimit:10;}.cls-9{fill:#b3b3b3;}.cls-10{stroke:#ccc;}.cls-11{fill:#5ea8dc;}.cls-12{fill:#2a5297;}.cls-13{fill:#017bb6;}.cls-14{stroke:#5ea8dc;stroke-width:10px;}.cls-15{fill:#cb2127;}.cls-16{clip-path:url(#clip-path-2);}.cls-17{fill:url(#linear-gradient);}.cls-18{clip-path:url(#clip-path-3);}.cls-19{fill:url(#radial-gradient);}.cls-20{fill:#241029;}</style><clipPath id="clip-path"><path class="cls-1" d="M802.7,647.3H958a54.82,54.82,0,0,1,54.8,54.8V857.4A54.82,54.82,0,0,1,958,912.2H802.7a54.82,54.82,0,0,1-54.8-54.8V702A54.73,54.73,0,0,1,802.7,647.3Z"/></clipPath><clipPath id="clip-path-2"><path class="cls-1" d="M667.8,320.3a54.88,54.88,0,0,0-12.2-16.5,57.14,57.14,0,0,0-15.3-10.3,53.57,53.57,0,0,0-22.6-5h-82c-3.1,0-6.4.2-9.9.5a51.07,51.07,0,0,0-17.4,5,56.58,56.58,0,0,0-16.6,12.2,59.05,59.05,0,0,0-10.2,15.1,53.63,53.63,0,0,0-5.1,23c-.1,19.8-.1,39.9,0,59.4v23.7a75.87,75.87,0,0,0,.9,11.7,55.81,55.81,0,0,0,6.4,17.8,54.47,54.47,0,0,0,12,14.6,56.93,56.93,0,0,0,16.7,10.1,58.28,58.28,0,0,0,21.1,3.7h54.5c8.4,0,17.5,0,26.6-.1a82.2,82.2,0,0,0,9.9-.6,51.39,51.39,0,0,0,17.1-5.2,57.25,57.25,0,0,0,26.2-26.9,54,54,0,0,0,5.2-23.4V347.5c0-3.5-.3-6.9-.5-9.7A46.12,46.12,0,0,0,667.8,320.3ZM663.6,430a44.69,44.69,0,0,1-4.9,20.3,41.76,41.76,0,0,1-9.2,12.4A45.57,45.57,0,0,1,628,474.2a46.24,46.24,0,0,1-10.5,1.1H531.3c-10.2,0-19.7-3.6-28.3-10.5a45.63,45.63,0,0,1-11.8-14.7,44,44,0,0,1-4.3-13.6,53.14,53.14,0,0,1-.5-6.8V378c0-11.6,0-23.5.1-35.3A46,46,0,0,1,500.4,311a44.94,44.94,0,0,1,18.9-10.9,49.42,49.42,0,0,1,13.2-1.8h86.4a43.64,43.64,0,0,1,17.8,4,45,45,0,0,1,14.1,9.9A47.25,47.25,0,0,1,661.6,331a49.24,49.24,0,0,1,1.9,13.7C663.6,373.1,663.6,402,663.6,430ZM642,329.4a9.61,9.61,0,0,1-9.6,9.3,9.45,9.45,0,1,1,9.6-9.3ZM523.5,388.5a51.5,51.5,0,0,0,51.6,49.8h1.6a51.52,51.52,0,0,0-1.7-103h-.2a51.42,51.42,0,0,0-51.3,53.2Zm51.6-43.7h0A42.06,42.06,0,0,1,617,386.9v.1a42,42,0,0,1-41.7,41.8h-.5a42,42,0,0,1,.6-84Zm77.4,179.4H497.3a59.9,59.9,0,0,1-59.8-59.8V309.2a59.9,59.9,0,0,1,59.8-59.8H652.6a59.9,59.9,0,0,1,59.8,59.8V464.5a59.83,59.83,0,0,1-59.9,59.7ZM497.3,259.5a49.87,49.87,0,0,0-49.8,49.8V464.6a49.72,49.72,0,0,0,49.8,49.7H652.6a49.87,49.87,0,0,0,49.8-49.8V309.2a49.87,49.87,0,0,0-49.8-49.8H497.3Z"/></clipPath><linearGradient id="linear-gradient" x1="486.79" y1="-2606.31" x2="663.21" y2="-2911.89" gradientTransform="translate(0 3146)" gradientUnits="userSpaceOnUse"><stop offset="0" stop-color="#fcb604"/><stop offset="0.45" stop-color="#d06a63"/><stop offset="1" stop-color="#960adf"/></linearGradient><clipPath id="clip-path-3"><path class="cls-1" d="M586.15,1245.46a68.87,68.87,0,1,1-.07,0h.07m0-19.17a88.07,88.07,0,1,0,88.07,88.07h0a88,88,0,0,0-88-88.07Zm151.48-.21H722v-17.7H704.66v17.7H687v17.38h17.7v17.7H722v-17.7h17.7v-17.38Zm-.1-76.48H434.87c-39.19,0-71,29.29-71,65.31v267c0,36.14,31.81,65.42,71,65.42h91.44l52.78,47.93a10.73,10.73,0,0,0,14.22,0l52.78-47.93h91.44c39.19,0,71-29.28,71-65.42v-267C808.53,1178.78,776.72,1149.6,737.53,1149.6Zm-98.92,378.61-5.48,5-47,42.67-47-42.67-5.47-5h-89a92.63,92.63,0,0,1,92.18-84.91h105a86.2,86.2,0,0,1,86.07,84.91ZM789.25,1482c0,22.55-18.22,41.4-42.14,45.41a105.41,105.41,0,0,0-105.24-103.24h-105A111.85,111.85,0,0,0,425.5,1527.37c-24.13-3.9-42.46-22.76-42.46-45.41v-267c0-25.49,23.28-46.24,51.83-46.24H737.42c28.55,0,51.83,20.75,51.83,46.24Z"/></clipPath><radialGradient id="radial-gradient" cx="-416.79" cy="804.2" fx="-440.3678666040615" fy="820.4601468179775" r="536.05" gradientTransform="matrix(0.59, -0.87, -1.22, -0.88, 1726.69, 1966.86)" gradientUnits="userSpaceOnUse"><stop offset="0" stop-color="#f9ff00"/><stop offset="0.04" stop-color="#edfe04"/><stop offset="0.12" stop-color="#cefa0e"/><stop offset="0.23" stop-color="#9cf41e"/><stop offset="0.35" stop-color="#55ec35"/><stop offset="0.49" stop-color="#00e251"/><stop offset="0.54" stop-color="#00d957"/><stop offset="0.61" stop-color="#00c269"/><stop offset="0.71" stop-color="#019c85"/><stop offset="0.82" stop-color="#0166ad"/><stop offset="0.94" stop-color="#0223df"/><stop offset="1" stop-color="#0200f9"/></radialGradient></defs><title>industry2</title><g id="Layer_2" data-name="Layer 2"><g id="Layer_1-2" data-name="Layer 1"><g class="cls-2"><path class="cls-3" d="M949.9,895a44.07,44.07,0,0,1-40.8-27.9c-7.6-18.8-.5-40.8,16.9-52.3,14.6-9.7,36.2-9,50.1,1.6,1,.8,3.9,2.9,3.9,6.5,0,2.3-1.2,4.4-3.5,6.1l-1.5,1.5-.2.2c-.5.4-.9,1-1.4,1.5a16.79,16.79,0,0,1-5.8,4.8c-4.6,2.1-8.1-.8-9.8-2.1a5,5,0,0,0-1.2-.8c-7.4-3.3-16-.5-21.5,6.9-4.7,6.3-3.9,16.4,1.6,22.4a18.53,18.53,0,0,0,14.8,6.1,16.31,16.31,0,0,0,11.3-5.3H953c-4.9,0-7.8-2.7-8.1-7.6v-.1c-.4-7.2-.6-11.1,2.3-14.2s6.9-3.1,14.2-3.1h22.5a7.55,7.55,0,0,1,8,7.5c2,24.8-11.4,43.5-34.2,47.5h0A34.45,34.45,0,0,1,949.9,895Zm-.2-77.1a32.67,32.67,0,0,0-18.2,5.2c-13.2,8.8-18.8,26.1-13.1,40.3a34.13,34.13,0,0,0,37.5,21.2h0c17.1-3,27-16.4,26.1-35.2H961.4a59.47,59.47,0,0,0-6.6.2c0,1.6,0,3.2.1,4.8h12.2c3.5-.1,5.9,1,7.3,3.2s1.2,4.8-.4,7.8a27.06,27.06,0,0,1-2.1,3.7l-.2.3a26,26,0,0,1-19.6,10.4,28.67,28.67,0,0,1-22.8-9.3c-8.8-9.5-9.8-25-2.3-35.1,8.1-11,21.9-15.2,33.5-10.1a14.61,14.61,0,0,1,3.3,2.2l.3.3c.5-.5,1.1-1.2,1.6-1.7s1.2-1.3,1.8-2l.6-.7a32.34,32.34,0,0,0-18.4-5.5Z"/><path class="cls-4" d="M919.7,790.1a42.12,42.12,0,0,1-8.7-.9,46.67,46.67,0,0,1-26.4-16.4c-8.7-10.9-9.3-22.1-9.2-33.6.1-16.8.1-34,.1-50.5V653.2c-3,.1-6,0-9,0-3.9-.1-7.6-.1-11.3.1a257,257,0,0,1-35.1.1c-.9,9.1-2.2,18.3-3.4,27.2l-1.4,10.2c-1.3,9.6-2.7,19.5-4,29.3-.9,6.6-1.6,12.5-2.2,17.9-.3,3.1-.7,6.2-1,9.3a43.3,43.3,0,0,1-2.3,11.8c-6,16.2-18,26.9-33.9,30-10.4,2.1-22.1-.4-32-6.8-14.8-9.6-21.9-24.9-18.7-40,1.2-5.6,2.9-11.2,4.5-16.6,1-3.4,2.1-7,3-10.4,1.6-6.2,3.2-12.4,4.8-18.7l3-11.6c.6-2.4,1.3-4.8,1.9-7.3l1.1-4.3c.4-1.4.7-2.9,1-4.5a39.6,39.6,0,0,1,3.8-12c5.3-9.6,13.6-14.5,24.6-14.5,41.8.1,84.2.1,126,0q32.7,0,65.4-.1h32.8c3.8,0,11.8,0,17.1,6.8l12,15.3-17.9-7.6c-4.6-1.9-8.8-3.5-13.3-3.7-5.8-.2-11.8,0-17.5.1-7.4.2-15,.4-22.6,0,.7,5.3,1.4,10.6,2.1,15.8l1.8,14.1,2.1,15.6c1.4,10.4,2.9,21.2,4.2,31.8.2,1.9.5,3.7.8,5.7,1,5.9,2,12.6.1,19.5a47.81,47.81,0,0,1-15.9,24.6A41.62,41.62,0,0,1,919.7,790.1ZM885.5,652.4h0v36.2c0,16.6,0,33.8-.1,50.6-.1,12.1.9,19.7,7,27.3a36.61,36.61,0,0,0,20.7,12.9,31.3,31.3,0,0,0,26.6-6.7,38.56,38.56,0,0,0,12.6-19.5c1.3-4.9.5-9.9-.3-15.3-.3-2-.7-4-.9-6.1-1.3-10.5-2.7-21.2-4.2-31.5-.7-5.2-1.4-10.5-2.1-15.7-.6-4.7-1.2-9.4-1.8-14.2-.7-5.5-1.4-11.3-2.2-16.9,0-.3-.1-.7-.1-1H894.9Zm-116.8,0c-7.4,0-12.2,2.9-15.8,9.3-1.5,2.6-2.1,5.8-2.7,9.1-.3,1.6-.7,3.3-1.1,5L748,680l-1.9,7.2c-1,3.9-2,7.7-3,11.6-1.6,6.2-3.2,12.5-4.8,18.7-.9,3.6-2,7.2-3,10.7-1.5,5.2-3.2,10.7-4.3,15.9-2.8,13.1,5.5,23.8,14.3,29.5h0c7.7,5,16.7,7,24.6,5.4,15.8-3.1,23.1-14.6,26.4-23.7a32.75,32.75,0,0,0,1.9-9.3c.3-3.1.6-6.3,1-9.4.6-5.5,1.3-11.4,2.2-18.1,1.3-9.8,2.7-19.8,4-29.4l1.4-10.2c1.2-8.8,2.5-17.8,3.4-26.7-13.9.3-27.7.2-41.5.2Z"/><path class="cls-5" d="M996.7,790c-10.8,0-21.7-3.8-29.5-11.3a48.47,48.47,0,0,1-13.9-23.8h0c-.1-.3-.1-.5-.2-.8a98,98,0,0,1-1.6-14.2c-.2-2.9-.3-5.6-.7-8.3-1.3-10.5-2.7-21.2-4.2-31.6-.7-5.2-1.4-10.5-2.1-15.7L943,672.9c-.8-6.5-1.7-13.1-2.6-19.6-.3-2.2-.4-5.4,1.8-7.9,1.7-1.8,4.1-2.6,7.3-2.4,7.7.5,15.6.3,23.3.1,5.9-.2,12-.3,18-.2,14.2.3,23.9,8.9,29.5,26,3.6,11,6.2,22.3,8.8,33.2,1.5,6.5,3,13.2,4.8,19.7,2,7.6,3.8,14.6,5.3,21.3,2.8,12-2.3,25.1-13.9,36C1017.8,786.5,1007.3,790,996.7,790Zm-33.6-37.3a38.9,38.9,0,0,0,11.1,18.8c11.6,11.2,32.8,11.3,44.5.4,4.2-4,13.8-14.5,11-26.4-1.5-6.6-3.3-13.5-5.3-21-1.8-6.7-3.3-13.4-4.8-20-2.5-10.7-5-21.8-8.5-32.3-4.3-13-10.6-18.9-20.3-19.2-5.8-.1-11.8,0-17.5.2-7.4.2-15,.4-22.5,0,.9,6.2,1.7,12.5,2.4,18.6l1.5,11.4,2.1,15.6c1.4,10.4,2.9,21.1,4.2,31.8.4,3,.5,6,.7,8.8a91.12,91.12,0,0,0,1.4,12.8c-.1.1,0,.3,0,.5Z"/><path class="cls-4" d="M1013.8,664.3c-1.4-2.9-2.8-5.7-4.2-8.6C1012.8,657.7,1013.4,661,1013.8,664.3Z"/><path class="cls-6" d="M1014.6,667.1l-1.3-2.6c-.9-1.9-1.8-3.7-2.7-5.6l-2.2-4.6,1.5,1c3.4,2.2,4,5.6,4.4,9Zm-3.4-9.4.4.7,1.2,2.5A13.69,13.69,0,0,0,1011.2,657.7Z"/><path class="cls-4" d="M1009.4,655.5c-1.2-.3-2.4-.8-2.4-2.4A2.76,2.76,0,0,1,1009.4,655.5Z"/><path class="cls-6" d="M1010.1,656.2l-.8-.2c-1-.3-2.8-.8-2.7-2.9v-.5h.5a3,3,0,0,1,2.8,2.8Zm-2.5-2.4a1.65,1.65,0,0,0,1,1A1.44,1.44,0,0,0,1007.6,653.8Z"/><path class="cls-5" d="M843.7,790.1a48.07,48.07,0,0,1-22.3-5.8c-11.9-6.4-20.3-17-23-29h0a20.53,20.53,0,0,1-.6-4.9,137.85,137.85,0,0,1,1.7-17c.3-2,.5-4,.8-6,1.2-9.8,2.6-19.8,3.9-29.4.7-4.9,1.3-9.7,2-14.6.3-2.3.6-4.7,1-7,1.1-8.3,2.3-16.8,3.1-25.2.3-2.5,1.7-8.4,9.7-7.8a248.27,248.27,0,0,0,34.5-.1c4.1-.3,8.1-.2,12-.2,3.3,0,6.5.1,9.6,0,1.1,0,4.5-.2,6.9,2.2s2.5,5.6,2.5,7.2v63.6c0,2.7,0,5.5-.1,8.2-.1,6.5-.2,13.2.2,19.7,1,19.2-10.4,37.1-27.7,43.6A42.43,42.43,0,0,1,843.7,790.1Zm-35.5-37c2.1,9.2,8.6,17.3,18,22.4s19.5,6,28.2,2.7c13.2-5,21.9-18.8,21.2-33.7-.3-6.8-.3-13.7-.2-20.3,0-2.7.1-5.4.1-8.1v-63c-3.1.1-6.1.1-9.1,0-3.9,0-7.5-.1-11.2.1a257,257,0,0,1-35.1.1c-.8,8.2-2,16.4-3.1,24.4-.3,2.3-.7,4.7-1,7-.7,4.9-1.3,9.8-2,14.7-1.3,9.6-2.7,19.5-3.9,29.2-.2,2-.5,4.1-.8,6.1a138.6,138.6,0,0,0-1.6,15.8,10.68,10.68,0,0,0,.3,2.5Z"/></g><path class="cls-7" d="M635,104.4H519a14,14,0,0,1,0-28H635a14,14,0,0,1,0,28Zm-116-18a4,4,0,0,0,0,8H635a4,4,0,0,0,0-8Z"/><path class="cls-7" d="M701.8,109.1a18.6,18.6,0,1,1,18.6-18.6A18.56,18.56,0,0,1,701.8,109.1Zm0-27.3a8.6,8.6,0,1,0,8.6,8.6A8.6,8.6,0,0,0,701.8,81.8Z"/><line class="cls-8" x1="9.4" y1="312.8" x2="9.4" y2="380.8"/><line class="cls-8" x1="9.4" y1="475.4" x2="9.4" y2="625.3"/><line class="cls-8" x1="9.4" y1="687.3" x2="9.4" y2="829.3"/><path class="cls-9" d="M1159.8,784.8a7.55,7.55,0,0,1-7.5-7.5v-244a7.5,7.5,0,0,1,15,0v244A7.43,7.43,0,0,1,1159.8,784.8Z"/><path class="cls-7" d="M973.3,2283h-782c-94,0-170.5-76.5-170.5-170.5V170.5C20.8,76.5,97.3,0,191.3,0h782c94,0,170.5,76.5,170.5,170.5v1942C1143.8,2206.5,1067.3,2283,973.3,2283ZM191.3,15C105.5,15,35.8,84.8,35.8,170.5v1942c0,85.7,69.8,155.5,155.5,155.5h782c85.7,0,155.5-69.8,155.5-155.5V170.5C1128.8,84.8,1059,15,973.3,15Z"/><path class="cls-7" d="M967.9,2154.2H196.6c-70-.1-126.8-56.8-126.8-126.8V186.7c.1-70,56.8-126.8,126.8-126.8h88.3a23,23,0,0,1,23,23,60,60,0,0,0,60,60H796.5a60,60,0,0,0,60-60,23,23,0,0,1,23-23H968a127.05,127.05,0,0,1,126.9,126.8V2027.4A127.2,127.2,0,0,1,967.9,2154.2ZM196.6,69.8A116.87,116.87,0,0,0,79.8,186.6V2027.3a116.87,116.87,0,0,0,116.8,116.8H967.9a117,117,0,0,0,116.9-116.8V186.7A116.89,116.89,0,0,0,967.9,69.9H879.4a13,13,0,0,0-13,13,70.08,70.08,0,0,1-70,70H367.9a70.08,70.08,0,0,1-70-70,13,13,0,0,0-13-13Z"/><path class="cls-7" d="M7.5,390.6A7.55,7.55,0,0,1,0,383.1v-68a7.55,7.55,0,0,1,7.5-7.5,7.55,7.55,0,0,1,7.5,7.5v68A7.55,7.55,0,0,1,7.5,390.6Z"/><path class="cls-7" d="M7.5,635.2A7.55,7.55,0,0,1,0,627.7v-150a7.55,7.55,0,0,1,7.5-7.5,7.55,7.55,0,0,1,7.5,7.5v150A7.55,7.55,0,0,1,7.5,635.2Z"/><path class="cls-7" d="M7.5,839.2A7.55,7.55,0,0,1,0,831.7v-142a7.55,7.55,0,0,1,7.5-7.5,7.55,7.55,0,0,1,7.5,7.5v142A7.55,7.55,0,0,1,7.5,839.2Z"/><line class="cls-10" x1="1164.9" y1="535.7" x2="1164.9" y2="779.7"/><path class="cls-11" d="M300.7,307.5c11.2,0,21.2,3.6,29.4,11.9a1.74,1.74,0,0,0,1.1.6,1.8,1.8,0,0,0,.9-.4l1-.1.8-.3h.1c.1,0,.1,0,.2-.1a13.55,13.55,0,0,0,5.2-1.5l1-.2a27.8,27.8,0,0,0,7.4-2.9c2.9-.9,5.4-2.7,8.5-4.1-2.9,9.1-8.5,15.8-15.7,21.4a68.19,68.19,0,0,0,21.2-5.8c-3.8,6.1-7.8,11.1-12.9,14.9s-7.2,8-7.3,14.7c-.4,21.4-7,41.2-18.5,59.4a111.49,111.49,0,0,1-32.8,33.5A116.48,116.48,0,0,1,266,460.4a11.36,11.36,0,0,0-2.5.6,109.65,109.65,0,0,1-28.9,5.1c-2.3.1-4.7.2-7,.1-4.9,0-9.7-.2-14.5-.6l-1-.1c-4.3-.9-8.7-1.9-13-2.8-5.3-1.2-10.2-3.5-15.4-4.9a10.66,10.66,0,0,0-4.6-2.1c-.4-.8-1.4-.8-2.1-1.3-2.9-1.9-6.5-2.6-8.8-5.4h4c1.5,0,3,.1,4.6.1a13.72,13.72,0,0,0,4-.5c16.3-.6,30.7-6.4,44.3-16.4-4-.8-7.3-1.1-10.6-2.2-12.2-3.9-20.4-11.9-25.4-23.6-.8-1.9-.9-2.5.2-2.5a9.85,9.85,0,0,1,1.7.2,26.29,26.29,0,0,0,4.9.4,38.17,38.17,0,0,0,9.5-1.3c-3.5-1.4-6.6-2.3-9.3-3.8-13.3-7.2-20.5-18.4-21.6-33.5-.1-1.4.1-2,.8-2a7.49,7.49,0,0,1,1.6.5,37.43,37.43,0,0,0,15.1,3.8c-2.4-2.2-4.4-3.9-6.3-5.8-11.6-11.6-14.2-30.6-6.9-45.5.5-1,.8-1.6,1.4-1.6s.9.3,1.6,1.1q27.15,31.35,67.9,38.7a105.49,105.49,0,0,0,11.3,1.2h.5c.8,0,1.3-.3,1.1-1.5-2.2-12,.7-22.9,8.1-32.6l8.2-7.9a57.85,57.85,0,0,1,16.5-6.7l2.6-.2a20.18,20.18,0,0,0,2.7.1m0-10c-1.3,0-2.6,0-3.9.1h-.3l-2.6.2a5.85,5.85,0,0,0-1.3.2,67.46,67.46,0,0,0-19.3,7.8,9.51,9.51,0,0,0-2,1.5l-8.2,7.9a10,10,0,0,0-1,1.1c-6.9,9-10.5,18.7-10.9,29.1l-.4-.1c-25.1-4.6-45.4-16.2-62.1-35.4v-.1a11.84,11.84,0,0,0-9.1-4.5c-2.6,0-7.4.9-10.4,7.2a51.37,51.37,0,0,0-.7,43.2,10.7,10.7,0,0,0-1.6,1.4,11.72,11.72,0,0,0-3,9.3v.1c.9,13.4,6.1,24.7,15.1,33.2-2.2,4.5-.3,8.7.4,10.5,4.5,10.8,11.4,18.8,20.5,24.3a61.85,61.85,0,0,1-19.9,4,6.2,6.2,0,0,0-2.3.4,6.6,6.6,0,0,1-1.4.1h-1.9c-.7,0-1.7-.1-2.7-.1h-4a10,10,0,0,0-7.7,16.4,24,24,0,0,0,9,6.4,18.31,18.31,0,0,1,2,1c.4.3.9.5,1.4.8a10.37,10.37,0,0,0,4.4,2c.1,0,.2.1.3.1a8.8,8.8,0,0,0,3.5,1.7c1.9.5,4,1.3,6.1,2a85.11,85.11,0,0,0,9.8,3c4.4,1,8.8,1.9,13,2.8h.1c.4.1.8.1,1.2.2l1,.1c5.1.5,10.3.7,15.4.7,2.5,0,4.9,0,7.4-.2a120.36,120.36,0,0,0,31.5-5.5h.1c.1,0,.5-.1.7-.1l.7-.1a7.37,7.37,0,0,0,1.4-.4,124.17,124.17,0,0,0,26.4-12.9,121,121,0,0,0,35.8-36.5c12.9-20.1,19.6-41.9,20.1-64.5.1-3.9.8-5,3.3-6.9,5.6-4.2,10.5-9.8,15.4-17.6a10,10,0,0,0-3.2-13.8,9.73,9.73,0,0,0-2.3-1.1,23.07,23.07,0,0,0,1-2.8,10.11,10.11,0,0,0-6.1-12.8,11.34,11.34,0,0,0-3.1-.6h-.8a10.21,10.21,0,0,0-3.8,1c-1.5.7-2.7,1.4-3.9,2a21.1,21.1,0,0,1-3.4,1.6,8.75,8.75,0,0,0-2.2,1,15.42,15.42,0,0,1-4.5,1.7l-.7.2a10.64,10.64,0,0,0-2.5.9,1.93,1.93,0,0,1-1,.3c-9.1-7.7-20.2-11.6-32.8-11.5Z"/><path class="cls-12" d="M916.3,523.7h-.6c-7.3-.2-14.8-.1-22.1-.1H881.2c-3.7,0-6.7,0-9-2.3s-2.4-5.4-2.4-9V411.5a12.1,12.1,0,0,0-1.9.1h-.2c-2.5.1-5,.1-7.4.1h-4.6a8.94,8.94,0,0,1-6.6-2.3,9.31,9.31,0,0,1-2.4-6.9c.2-10.1.2-20.3,0-30.4a9.31,9.31,0,0,1,2.4-6.9c2.2-2.2,5.1-2.4,7.1-2.4H862c2.6,0,5.2,0,7.8.1a235.55,235.55,0,0,1,.5-29.1c2.1-25.3,20.5-42.7,45.7-43.3l16.2-.3c6-.1,12.2-.1,18.3-.3,2.5-.1,5.8.1,8.3,2.6,2.8,2.8,2.6,6.8,2.6,8.1-.3,9.6-.2,19.3,0,28.3,0,1.1.1,4.7-2.4,7.1a9.12,9.12,0,0,1-7,2.2c-5.4-.2-10.9-.1-16,0-7,.1-8.7,1.7-9.6,8.8a70.72,70.72,0,0,0-.3,9.2v6.3h10.7c4.6,0,9.3,0,13.9-.1,1.5,0,5.2-.2,7.8,2.6s2.1,6.4,2,7.6c-1.2,10.6-2.2,21.3-3,31.3-.3,3.7-2.2,8-9.8,8h-7.6c-4.4,0-8.9,0-13.3-.1.2,12.6.1,25.3.1,37.6V460l.2.1v15.8c0,12-.1,24.3.1,36.5,0,2.5-.2,6-2.8,8.5C922,523.3,918.8,523.7,916.3,523.7Zm-14.5-10.2c4.7,0,9.4,0,14.2.1h1.2v-1.1c-.2-12.2-.2-24.6-.1-36.6V464.3l-.2-.1V449.3c0-12.5,0-25.4-.1-38-.1-2,.1-5.1,2.4-7.3s5.2-2.4,7.5-2.3c4.4.2,8.9.1,13.4.1h7.5c.8-9.5,1.7-19.5,2.8-29.5-4.6.1-9.2.1-13.6.1H925.2c-1.1,0-4.6.1-7-2.4a8.69,8.69,0,0,1-2.2-6.7c.1-2.3.1-4.6.1-7a75.16,75.16,0,0,1,.4-10.6c1.5-11.9,7.5-17.4,19.3-17.5,4.9-.1,10.2-.2,15.6,0-.1-8.9-.2-18.4.1-28v-.3H951c-6.2.2-12.5.3-18.5.4-5.3.1-10.7.1-16,.3-20.1.5-34.2,13.9-35.9,34.1a244.38,244.38,0,0,0-.4,28.4c0,1.3.2,5-2.5,7.7s-6.6,2.3-7.8,2.2c-2.3-.2-4.8-.1-7.4-.1h-5.4c.1,9.6.1,19.3,0,28.8h10.6c4.5-.2,7.4-.3,9.8,2s2.5,5.4,2.5,10.1v99.9h13.8Z"/><path class="cls-13" d="M328.3,880.4a8.21,8.21,0,0,1-6.5-2.3c-2.1-2.1-2.4-4.9-2.4-7.1.1-21.4.1-43.3,0-64.4a53.9,53.9,0,0,0-1.4-13.2c-1.7-7.1-5.4-10.6-11.9-11.4-6.3-.7-14.6.1-18.6,8.1-3.1,6.1-3.3,13.1-3.3,19.8-.1,23.1-.1,42.5.1,60.9,0,2.2-.3,5-2.4,7.1s-5,2.3-7,2.3c-10.8-.2-21.9-.1-32.5-.1-7.3,0-8.9-4.6-8.9-8.5.1-41.2.1-82.9,0-124,0-7.5,5.3-8.6,8.4-8.6,9.6.1,20.8.2,32.1,0a8.5,8.5,0,0,1,6.5,2.2c2.3,2.3,2.2,5.5,2.2,6.7v1.4c16.5-14.5,38.4-17.9,59.5-8.9,11,4.7,18.8,13.3,23.2,25.4s4.9,24.2,5,35.5c-.2,28-.2,49.4-.1,69.3h0c0,2-.3,5-2.5,7.2s-5,2.3-7.3,2.3c-10.5-.2-21.1-.2-31.6,0Zm16.2-10.2c5.2,0,10.4,0,15.5.2-.1-19.8-.1-41,.1-68.8-.1-10.5-.6-21.6-4.4-32.2-3.4-9.5-9.2-16-17.7-19.6-21.1-9.1-42.3-3.3-56.7,15.3a5,5,0,0,1-7,1,4.79,4.79,0,0,1-2-4V749.2c-10.3.2-20.4.1-29.2,0,.1,40.2.1,80.9,0,121,10.1-.1,20.5-.1,30.8.1-.1-18.3-.1-37.5-.1-60.3,0-7.9.4-16.3,4.5-24.3,5.1-10,15.6-14.9,28.7-13.5,10.7,1.3,17.8,7.8,20.5,19a67.55,67.55,0,0,1,1.7,15.5c.1,20.8.1,42.5,0,63.7,5.2-.1,10.3-.2,15.3-.2Z"/><path class="cls-13" d="M208.7,880.4h-.4c-11.5-.2-23.1-.1-32.9,0h0a8,8,0,0,1-6.4-2.3,8.26,8.26,0,0,1-2.1-6.2c.1-41.2.1-83,0-124.3,0-7.5,5.7-8.3,8.1-8.3,10.2.1,22.2.2,34.2,0a8.26,8.26,0,0,1,6.2,2.1c2.2,2.1,2.2,4.9,2.1,6.6v86.4c0,12,0,24.3.1,36.5h0c0,1.6,0,4.8-2.4,7.2A9.13,9.13,0,0,1,208.7,880.4Zm-15.3-10.1c4.6,0,9.4,0,14.2.1-.1-12-.1-24.1-.1-35.9V749.4c-10.8.2-21.4.1-30.7,0,.1,40.1.1,80.8,0,121C182,870.3,187.6,870.3,193.4,870.3Z"/><path class="cls-13" d="M192.4,731.4H192a28.55,28.55,0,0,1,.1-57.1h.2a28.68,28.68,0,0,1,28.6,28.4v.4a28.57,28.57,0,0,1-28.5,28.3Zm-.1-47.1h-.1a18.63,18.63,0,0,0-18.5,18.4,18.19,18.19,0,0,0,5.3,13.2,18.56,18.56,0,0,0,13.1,5.5h.2A18.5,18.5,0,0,0,210.8,703v-.3A18.57,18.57,0,0,0,192.3,684.3Z"/><path class="cls-14" d="M187.2,254.5H342.5a54.82,54.82,0,0,1,54.8,54.8V464.5a54.82,54.82,0,0,1-54.8,54.8H187.2a54.82,54.82,0,0,1-54.8-54.8V309.2A54.86,54.86,0,0,1,187.2,254.5Z"/><path class="cls-12" d="M957.9,524.2H802.7a59.9,59.9,0,0,1-59.8-59.8V309.2a59.9,59.9,0,0,1,59.8-59.8H958a59.9,59.9,0,0,1,59.8,59.8V464.5A60,60,0,0,1,957.9,524.2ZM802.7,259.5a49.87,49.87,0,0,0-49.8,49.8V464.6a49.72,49.72,0,0,0,49.8,49.7H958a49.87,49.87,0,0,0,49.8-49.8V309.2A49.87,49.87,0,0,0,958,259.4H802.7Z"/><path class="cls-13" d="M342.5,917H187.2a59.9,59.9,0,0,1-59.8-59.8V702a59.9,59.9,0,0,1,59.8-59.8H342.5A59.9,59.9,0,0,1,402.3,702V857.3A59.81,59.81,0,0,1,342.5,917ZM187.2,652.3a49.87,49.87,0,0,0-49.8,49.8V857.4a49.87,49.87,0,0,0,49.8,49.8H342.5a49.87,49.87,0,0,0,49.8-49.8V702a49.87,49.87,0,0,0-49.8-49.8H187.2Z"/><path class="cls-15" d="M533.5,882.2a7.61,7.61,0,0,1-2.1-.3c-2.6-.8-4.1-2.9-4.5-6v-.2c-2.7-18.2-1.9-34.9,2.3-51,3.1-11.8,5.9-23.9,8.6-35.6,1.2-5.3,2.5-10.7,3.7-16.1v-.5l-.1-.2c-4.3-12.1-4.3-23.7,0-34.3,2.9-7.1,7.4-12.2,13.5-15.2,6.7-3.3,13.9-3.3,19.8.1s9.6,9.6,10.2,17c.5,6.2-.9,11.9-2.4,17.2-1.5,5.1-3,10.3-4.5,15.3-.9,2.9-1.7,5.8-2.5,8.6-1.9,6.2-1,10.6,2.8,14.1,4.2,3.9,9.3,4.6,15.9,2.4,5.1-1.8,9.3-5.4,13.3-11.5,5.3-8.1,8.5-17.6,9.9-29.9.8-6.8,1.3-14.1-.2-21.2-2.9-13-10.4-21.6-22.2-25.5-20-6.6-37.5-3.6-52.1,8.8-13,11.1-18.3,25.8-15.8,43.8a21.94,21.94,0,0,0,5.3,11.3,11.62,11.62,0,0,1,2.6,12.3c-.4,1.3-.8,2.7-1.1,4.1a26.81,26.81,0,0,1-.7,2.7c-.4,1.3-1.4,5.4-5.1,7.2s-7.5.1-8.7-.5a38.51,38.51,0,0,1-20.8-23.3c-8.3-24-4.3-46.8,11.8-67.6,13.2-16.9,31.8-27.1,55.3-30.2,18.2-2.4,34.4-.3,49.3,6.7,27.6,12.9,43.1,39.8,40.4,70.2-1.6,17.6-5.8,31.3-13.3,43.2-10.7,17.1-25.5,27-44.1,29.5-10.3,1.3-19.1,0-27-4.3a30.18,30.18,0,0,1-5.6-3.7c-1.7,6.6-3.5,13.6-5.3,20.4-4.2,15.6-13,28.6-21,39.2A6.67,6.67,0,0,1,533.5,882.2Zm17.2-113.3a10.72,10.72,0,0,1,.5,6.4c-1.3,5.4-2.5,10.8-3.7,16.1-2.7,11.8-5.5,24-8.6,35.9a113.77,113.77,0,0,0-3,39.4c5.9-8.4,11.6-18.2,14.5-29.1,2.6-9.9,5.3-20.2,7.6-29.3a5,5,0,0,1,6.1-3.6,4.72,4.72,0,0,1,2.9,2.1,22.29,22.29,0,0,0,8.6,7.8c6,3.2,12.9,4.3,21,3.2,15.7-2.1,27.8-10.3,37-24.9,6.6-10.5,10.4-22.8,11.8-38.8,2.3-26.1-10.9-49.2-34.6-60.3-13.2-6.1-27.5-8-43.8-5.8-21.1,2.8-37,11.4-48.7,26.4-14,18-17.4,37.5-10.3,58.2,2.8,8.3,8,14.1,15.4,17.5h0V790c.2-.8.4-1.7.6-2.5.4-1.6.8-3.3,1.3-5,0-.1.1-.2.1-.3a1.74,1.74,0,0,0-.4-1.8l-.2-.2a31.71,31.71,0,0,1-7.9-16.7c-3-21.3,3.7-39.5,19.2-52.8,17.5-14.8,38.2-18.4,61.7-10.7,15.2,5,25.2,16.4,28.8,32.8,1.9,8.6,1.3,17.3.4,24.5-1.6,13.7-5.4,24.8-11.5,34.2-5.2,8-11.3,13-18.5,15.5-10,3.4-18.9,1.8-25.8-4.5s-8.7-14.3-5.7-24.3c.8-2.9,1.7-5.8,2.5-8.6,1.5-5,3-10.1,4.5-15.2,1.3-4.4,2.4-9.1,2-13.7-.3-4.1-2.2-7.4-5.1-9.1s-6.7-1.6-10.4.2c-3.9,1.9-6.8,5.2-8.7,10-3.1,8.4-3.1,17.2.4,27.1Z"/><path class="cls-15" d="M652.6,917H497.3a59.9,59.9,0,0,1-59.8-59.8V702a59.9,59.9,0,0,1,59.8-59.8H652.6A59.9,59.9,0,0,1,712.4,702V857.3A59.81,59.81,0,0,1,652.6,917ZM497.3,652.3a49.87,49.87,0,0,0-49.8,49.8V857.4a49.87,49.87,0,0,0,49.8,49.8H652.6a49.87,49.87,0,0,0,49.8-49.8V702a49.87,49.87,0,0,0-49.8-49.8H497.3Z"/><path class="cls-3" d="M957.9,917H802.7a59.9,59.9,0,0,1-59.8-59.8V702a59.9,59.9,0,0,1,59.8-59.8H958a59.9,59.9,0,0,1,59.8,59.8V857.3A60,60,0,0,1,957.9,917ZM802.7,652.3a49.87,49.87,0,0,0-49.8,49.8V857.4a49.87,49.87,0,0,0,49.8,49.8H958a49.87,49.87,0,0,0,49.8-49.8V702A49.87,49.87,0,0,0,958,652.2H802.7Z"/><g class="cls-16"><circle class="cls-17" cx="575" cy="386.9" r="176.4"/></g><g class="cls-18"><rect class="cls-19" x="363.87" y="1142.65" width="444.56" height="455.41"/></g><path class="cls-20" d="M465.45,1648.1a43.64,43.64,0,0,1,.5,21.8,30.94,30.94,0,0,1-2.4,7.2c10.8,13.4,16.2,29.6,16.1,48.4q0,33-23.4,56.4t-56.4,23.4q-33,0-56.4-23.4t-23.4-56.4q.15-33,23.5-56.4t56.4-23.4c21.1,0,38.5,6.4,52,19.2-.4,1.5-.4,1.9-.2,1,1.2-5.1.6-11-1.8-17.8Zm-65.6,142a64.37,64.37,0,0,0,64.6-64.12v-.48a64.6,64.6,0,0,0-129.2,0h0a64.35,64.35,0,0,0,64.12,64.6h.48Zm.2,23.3a53.8,53.8,0,0,1,39.7,16.6,56.06,56.06,0,0,1,0,79.29h0l-.1.1a56.21,56.21,0,0,1-79.5-79.5h0A54,54,0,0,1,400.05,1813.4Zm-.2,97.7a41.11,41.11,0,1,0-29.3-12.2A40.41,40.41,0,0,0,399.85,1911.1Z"/><path class="cls-20" d="M634.75,1773c-.7,1.1-3.4,4.1-8.2,8.9q-23.4,23.4-56.4,23.4t-56.4-23.4q-23.4-23.4-23.4-56.4t23.5-56.4q23.4-23.55,56.4-23.5t56.4,23.4q23.4,23.4,23.3,56.4v78h-15.2Zm-64.6,17a64.37,64.37,0,0,0,64.6-64.12v-.48a64.65,64.65,0,0,0-129.3-.1v.1a64.35,64.35,0,0,0,64.12,64.6h.58Z"/><path class="cls-20" d="M687.55,1630.3h-15.3v-14.5h15.3Zm0,173.1h-15.3V1648h15.3Z"/><path class="cls-20" d="M709.75,1726.1q.45-32.85,21.1-56.1t50-23.4c19.5,0,36.1,7.8,50.1,23.5q20.7,23.25,21,56.2v77.4h-14.9v-77.4q-.3-26.4-16.8-45c-10.9-12.3-24-18.5-39.3-18.5s-28.5,6.1-39.4,18.3q-16.5,18.6-16.9,44.8v77.7h-14.9Z"/><path class="cls-20" d="M510.45,1870.9l-5.9-1.5c-1-.3-1.9-.5-2.9-.7-.8-.2-1.8-.4-2.8-.7-3.4-1.1-5.1-2.9-5.1-5.6a5.49,5.49,0,0,1,2.7-5,12.62,12.62,0,0,1,6.6-1.5c6.4,0,9.6,3,9.8,9.1a.47.47,0,0,0,.44.5h2.86a.76.76,0,0,0,.4-.2c.1-.1.1-.2.1-.4-.3-8.6-5-12.9-13.7-12.9h0a16,16,0,0,0-8.8,2.1,9.5,9.5,0,0,0-4.4,8.3q0,6.6,6.9,9l4.9,1.2,4.8,1.3.9.3a3.09,3.09,0,0,0,.9.2h0c3.4,1.2,5.1,3.1,5.1,6.1a6.43,6.43,0,0,1-.8,3,7.82,7.82,0,0,1-2.1,2.3,12.4,12.4,0,0,1-6.8,1.7c-7.4,0-11.1-3.6-11.1-10.9a.48.48,0,0,0-.44-.5h-2.76c-.1,0-.3.1-.4.1s-.1.2-.1.4c0,5.1,1.4,9,4.3,11.4a14.2,14.2,0,0,0,4.7,2.5,18.66,18.66,0,0,0,5.7.8h.3a20.23,20.23,0,0,0,4.9-.6,15,15,0,0,0,4.1-1.8,11.81,11.81,0,0,0,3.4-3.6,10.2,10.2,0,0,0,1.2-4.8Q517.35,1873.3,510.45,1870.9Z"/><path class="cls-20" d="M552.35,1855.9a16.75,16.75,0,0,0-12.5-4,17,17,0,0,0-11.6,6c-2.8,3.5-4.2,8.1-4.2,13.6s1.4,10.1,4.3,13.7a17,17,0,0,0,1.9,1.9,16.75,16.75,0,0,0,11.1,4.1,6.56,6.56,0,0,0,1.4-.1,17.19,17.19,0,0,0,11.7-6c2.8-3.6,4.2-8.2,4.2-13.6s-1.4-10-4.3-13.6C553.65,1857.2,553.05,1856.5,552.35,1855.9Zm2.3,15.6a17.31,17.31,0,0,1-3.4,11.2,9.75,9.75,0,0,1-1.4,1.4,13.25,13.25,0,0,1-18.6-1.4,17.31,17.31,0,0,1-3.4-11.2,17.66,17.66,0,0,1,3.4-11.1,8.83,8.83,0,0,1,1.4-1.4,13.48,13.48,0,0,1,8.6-3.2,13.26,13.26,0,0,1,10,4.6A17.66,17.66,0,0,1,554.65,1871.5Z"/><path class="cls-20" d="M598.65,1873.8h-3a.46.46,0,0,0-.5.4,22.86,22.86,0,0,1-1.4,5.7,13.26,13.26,0,0,1-2.6,4,11.89,11.89,0,0,1-8.8,3.4,11.32,11.32,0,0,1-9.6-4.7,17,17,0,0,1-3.5-10.9,17.52,17.52,0,0,1,3.6-11.3,12.15,12.15,0,0,1,10.2-4.7h.2a12.77,12.77,0,0,1,7.3,2.4,9.71,9.71,0,0,1,3.8,7.4.47.47,0,0,0,.44.5h3c.1,0,.3-.1.4-.1s.1-.2.1-.4a13.38,13.38,0,0,0-5.3-10.4,16.2,16.2,0,0,0-9.7-3.3h-.2a16.32,16.32,0,0,0-13.2,6,21.8,21.8,0,0,0-4.4,13.9,21.29,21.29,0,0,0,4.3,13.4,6.21,6.21,0,0,0,.8.9,16.56,16.56,0,0,0,12,5.1,15.54,15.54,0,0,0,14.8-9.8,29.18,29.18,0,0,0,1.8-7,.63.63,0,0,0-.1-.4C599,1873.9,598.85,1873.8,598.65,1873.8Z"/><path class="cls-20" d="M609.05,1852.7h-2.9a.46.46,0,0,0-.5.44v36.76a.47.47,0,0,0,.44.5h3a.47.47,0,0,0,.5-.44V1853.2a.48.48,0,0,0-.44-.5Z"/><path class="cls-20" d="M633.55,1853a.56.56,0,0,0-.5-.3h-2.6a.55.55,0,0,0-.5.3l-14.7,36.7c-.1.2,0,.3,0,.5s.2.2.4.2H619a.56.56,0,0,0,.5-.3c.7-1.8,1.4-3.6,2.2-5.7l2.2-5.4h15.5l4.4,11.1a.55.55,0,0,0,.5.3h3.2a.54.54,0,0,0,.4-.2.8.8,0,0,0,.1-.5Zm-8.1,22c1.2-2.9,2.3-5.7,3.3-8.3l3.1-7.6,1.4,3.5c.4.9.7,1.8,1.1,2.7l.6,1.5.5,1.3c.4,1,.8,2,1.2,2.9q.75,1.8,1.5,3.9h-12.7Z"/><path class="cls-20" d="M677.35,1886.5h-19.6v-33.3a.48.48,0,0,0-.44-.5h-3a.46.46,0,0,0-.5.44v36.76a.47.47,0,0,0,.44.5h23.06a.47.47,0,0,0,.5-.44v-3a.48.48,0,0,0-.44-.5Z"/><path class="cls-20" d="M733.75,1852.7h-3.2a.55.55,0,0,0-.5.3c-2.3,5.3-4.6,10.6-7,16l-6.5,15L703,1853a.56.56,0,0,0-.5-.3h-3.2a.46.46,0,0,0-.5.44v36.76a.47.47,0,0,0,.44.5h3a.47.47,0,0,0,.5-.44V1862.4l12.1,27.7a.55.55,0,0,0,.5.3h2.3a.56.56,0,0,0,.5-.3c2.1-4.9,4.3-9.9,6.5-14.9,1.9-4.3,3.7-8.6,5.6-12.9l.1,27.6a.47.47,0,0,0,.44.5h3a.47.47,0,0,0,.5-.44V1853.2c0-.1-.1-.3-.1-.4S734,1852.7,733.75,1852.7Z"/><path class="cls-20" d="M767.65,1886.5h-21.6v-13.8h20.2a.47.47,0,0,0,.5-.44v-3a.48.48,0,0,0-.44-.5H746.05v-12.2h21.4a.47.47,0,0,0,.5-.44v-3a.48.48,0,0,0-.44-.5H742.65a.46.46,0,0,0-.5.44v36.76a.47.47,0,0,0,.44.5h25.06a.47.47,0,0,0,.5-.44v-3a.48.48,0,0,0-.44-.5Z"/><path class="cls-20" d="M787.15,1852.7h-13a.46.46,0,0,0-.5.44v36.76a.47.47,0,0,0,.44.5h11.56c5.5,0,9.9-1.8,13.2-5.3q4.5-5.1,4.5-13.5h0c0-5.4-1.3-9.8-3.7-13.2C796.75,1854.6,792.55,1852.7,787.15,1852.7Zm12.3,18.8c0,4.5-1.1,8.1-3.4,10.8a13.21,13.21,0,0,1-4.3,3.1,12.85,12.85,0,0,1-5.8,1.1h-8.4v-29.9H787c4.4,0,7.6,1.4,9.6,4.1s2.9,6.2,2.9,10.8Z"/><path class="cls-20" d="M813.45,1852.7h-2.9a.46.46,0,0,0-.5.44v36.76a.47.47,0,0,0,.44.5h3a.47.47,0,0,0,.5-.44V1853.2a.48.48,0,0,0-.44-.5Z"/><path class="cls-20" d="M852.35,1889.7,838,1853a.56.56,0,0,0-.5-.3h-2.6a.55.55,0,0,0-.5.3l-14.8,36.7c-.1.2,0,.3,0,.5s.2.2.4.2h3.3a.56.56,0,0,0,.5-.3c.7-1.9,1.5-3.8,2.2-5.7l2.2-5.4h15.5l4.4,11.1a.55.55,0,0,0,.5.3h3.2a.54.54,0,0,0,.4-.2A.56.56,0,0,0,852.35,1889.7Zm-22.5-14.7q1.65-4.35,3.3-8.1l.1-.1c1-2.4,2-5,3.1-7.6.5,1.2.9,2.4,1.3,3.5l.5,1.3c.4,1,.8,2,1.1,2.9.5,1.4,1.1,2.8,1.7,4.2q.75,1.8,1.5,3.9Z"/></g></g></svg>