<svg xmlns="http://www.w3.org/2000/svg" xmlns:xlink="http://www.w3.org/1999/xlink" viewBox="0 0 1172.4 2283"><defs><style>.cls-1,.cls-10,.cls-14,.cls-8{fill:none;}.cls-2{clip-path:url(#clip-path);}.cls-3{fill:#487fe5;}.cls-4{fill:#7facf6;}.cls-5{fill:#4858b7;}.cls-6{fill:#4f5963;}.cls-7{fill:#ccc;}.cls-8{stroke:#b3b3b3;}.cls-10,.cls-8{stroke-linecap:round;stroke-width:15px;}.cls-10,.cls-14,.cls-8{stroke-miterlimit:10;}.cls-9{fill:#b3b3b3;}.cls-10{stroke:#ccc;}.cls-11{fill:#5ea8dc;}.cls-12{fill:#2a5297;}.cls-13{fill:#017bb6;}.cls-14{stroke:#5ea8dc;stroke-width:10px;}.cls-15{fill:#cb2127;}.cls-16{clip-path:url(#clip-path-2);}.cls-17{fill:url(#linear-gradient);}</style><clipPath id="clip-path"><rect class="cls-1" x="747.9" y="647.3" width="264.75" height="264.75" rx="54.75"/></clipPath><clipPath id="clip-path-2"><path class="cls-1" d="M667.82,320.28a55.35,55.35,0,0,0-12.18-16.54,56.79,56.79,0,0,0-15.26-10.3,53.24,53.24,0,0,0-22.57-5c-9.72,0-20.23-.05-32.14-.05h0q-18.09,0-36.14,0l-13.75,0c-3.12,0-6.37.17-9.93.51a50.08,50.08,0,0,0-17.36,5,55.63,55.63,0,0,0-16.56,12.21,57.32,57.32,0,0,0-10.21,15.1,54.05,54.05,0,0,0-5.09,22.95c-.07,19.78-.06,39.9,0,59.35q0,11.86,0,23.72a67.58,67.58,0,0,0,.93,11.73A54.61,54.61,0,0,0,484,456.79,56.43,56.43,0,0,0,496,471.44a55.2,55.2,0,0,0,16.72,10.07,58.26,58.26,0,0,0,21.09,3.71h54.49c8.43,0,17.49,0,26.58-.1a86,86,0,0,0,9.91-.57,51.16,51.16,0,0,0,17.1-5.16,55.42,55.42,0,0,0,16-11.85,57.12,57.12,0,0,0,10.2-15,54.55,54.55,0,0,0,5.22-23.42c0-27.09,0-54.55,0-81.63,0-3.47-.26-6.87-.51-9.73A49.3,49.3,0,0,0,667.82,320.28ZM663.59,430a44.91,44.91,0,0,1-4.94,20.33,43.83,43.83,0,0,1-9.19,12.44A45.8,45.8,0,0,1,628,474.24a48.55,48.55,0,0,1-10.48,1.14H574.11c-17.27,0-30.48,0-42.81,0-10.23,0-19.74-3.56-28.27-10.47a44.33,44.33,0,0,1-11.75-14.68A41.81,41.81,0,0,1,487,436.61a56.35,56.35,0,0,1-.49-6.84c0-14.33,0-28.87,0-42.92v-8.79c0-11.57,0-23.53.07-35.34a43.18,43.18,0,0,1,4.32-18.2A44.87,44.87,0,0,1,500.48,311a45.48,45.48,0,0,1,18.86-10.94,48.91,48.91,0,0,1,13.24-1.84H533c28.63,0,57.77,0,86,0a43,43,0,0,1,17.81,4.05,44.59,44.59,0,0,1,14.14,9.94A46.13,46.13,0,0,1,661.75,331a47.22,47.22,0,0,1,1.87,13.74C663.59,373.11,663.59,402,663.59,430ZM642,324.61a4.83,4.83,0,0,1-4.83,4.65,4.74,4.74,0,1,1,4.83-4.65Zm-118.53,63.9a51.44,51.44,0,0,0,51.63,49.82l1.58,0a51.43,51.43,0,0,0,49.7-53.09,51.49,51.49,0,0,0-51.37-49.86h-.17A51.74,51.74,0,0,0,538,351,51.21,51.21,0,0,0,523.51,388.51Zm51.68-43.66h.07A41.94,41.94,0,0,1,617,386.92V387a42,42,0,0,1-41.74,41.8,3.84,3.84,0,0,1-.55,0h0a42,42,0,0,1,.54-84Zm77.4,179.37H497.34a59.81,59.81,0,0,1-59.75-59.75V309.22a59.82,59.82,0,0,1,59.75-59.75H652.59a59.83,59.83,0,0,1,59.75,59.75V464.47A59.82,59.82,0,0,1,652.59,524.22ZM497.34,259.47a49.8,49.8,0,0,0-49.75,49.75V464.47a49.8,49.8,0,0,0,49.75,49.75H652.59a49.8,49.8,0,0,0,49.75-49.75V309.22a49.81,49.81,0,0,0-49.75-49.75Z"/></clipPath><linearGradient id="linear-gradient" x1="486.76" y1="-1402.38" x2="663.16" y2="-1707.92" gradientTransform="translate(0 1942)" gradientUnits="userSpaceOnUse"><stop offset="0" stop-color="#fcb604"/><stop offset="0.45" stop-color="#d06a63"/><stop offset="1" stop-color="#960adf"/></linearGradient></defs><title>industry</title><g id="Layer_2" data-name="Layer 2"><g id="Layer_1-2" data-name="Layer 1"><g class="cls-2"><path class="cls-3" d="M949.91,895A44,44,0,0,1,909.1,867.1c-7.58-18.77-.49-40.78,16.86-52.34,14.63-9.72,36.18-9,50.12,1.64,1,.78,3.89,2.92,3.89,6.53,0,2.3-1.17,4.37-3.48,6.13a16.32,16.32,0,0,0-1.5,1.5l-.23.24c-.45.44-.92,1-1.43,1.55a17.5,17.5,0,0,1-5.81,4.84c-4.57,2.06-8.13-.75-9.83-2.11a10,10,0,0,0-1.15-.83c-7.41-3.25-16-.49-21.46,6.87-4.66,6.32-3.93,16.36,1.63,22.39a18.74,18.74,0,0,0,14.85,6.08,15.78,15.78,0,0,0,11.27-5.32h-3.18c-2.17,0-4.42,0-6.58,0-4.9.05-7.83-2.69-8.09-7.63v-.09c-.41-7.18-.63-11.13,2.27-14.2s6.9-3.08,14.15-3.08h7.16l5.09,0c3.29,0,6.69,0,10,0h.21c4.61,0,7.68,2.87,8,7.54,2,24.83-11.39,43.52-34.24,47.54h0A43.91,43.91,0,0,1,949.91,895Zm-.19-77.11a33.07,33.07,0,0,0-18.22,5.16c-13.2,8.79-18.85,26.1-13.13,40.26a34,34,0,0,0,37.52,21.16h0c17.14-3,27-16.44,26.11-35.21-2.82,0-5.65,0-8.4,0l-5,0H961.4c-2.59,0-5.25,0-6.64.18a47,47,0,0,0,.11,4.79c1.62,0,3.25,0,4.84,0,2.56,0,5,0,7.39,0,3.51-.07,5.91,1,7.27,3.23s1.19,4.8-.4,7.79a32,32,0,0,1-2.12,3.72l-.18.26a25.8,25.8,0,0,1-19.56,10.36,28.68,28.68,0,0,1-22.75-9.28c-8.79-9.53-9.81-24.95-2.33-35.1,8.14-11,21.92-15.19,33.52-10.11a15.52,15.52,0,0,1,3.35,2.16l.31.25c.51-.48,1.1-1.15,1.61-1.73s1.16-1.32,1.82-2l.62-.66A34.55,34.55,0,0,0,949.72,817.93Z"/><path class="cls-4" d="M919.67,790.08a41.45,41.45,0,0,1-8.74-.94,46.51,46.51,0,0,1-26.43-16.41c-8.66-10.87-9.27-22.08-9.15-33.57.09-16.82.09-34,.09-50.55q0-17.75,0-35.48c-3,.1-6,0-9,0-3.93-.06-7.63-.12-11.32.14a264.84,264.84,0,0,1-35.09.13c-.93,9.13-2.2,18.29-3.43,27.16l-1.41,10.17c-1.32,9.6-2.69,19.53-4,29.29-.86,6.63-1.58,12.48-2.18,17.9-.35,3.08-.68,6.17-1,9.25A43.1,43.1,0,0,1,805.68,759c-6,16.21-18,26.87-33.86,30-10.43,2.07-22.09-.42-32-6.84-14.77-9.58-21.92-24.91-18.65-40,1.21-5.62,2.87-11.22,4.47-16.63,1-3.42,2.06-7,3-10.38q2.45-9.32,4.83-18.65l3-11.62c.63-2.42,1.27-4.83,1.9-7.25l1.11-4.25c.37-1.41.66-2.89,1-4.45.73-3.72,1.56-8,3.75-12,5.3-9.63,13.56-14.52,24.56-14.52,41.81.08,84.19.08,126,0q32.74,0,65.44-.06l32.75-.05c3.83,0,11.79,0,17.14,6.78l12.05,15.26-17.92-7.56c-4.59-1.94-8.77-3.55-13.34-3.68-5.78-.15-11.75,0-17.52.14-7.37.19-15,.38-22.57,0,.73,5.29,1.41,10.64,2.07,15.83.6,4.7,1.2,9.4,1.84,14.09q1,7.83,2.12,15.64c1.42,10.4,2.89,21.15,4.17,31.76.2,1.88.5,3.72.81,5.66,1,5.9,2,12.59.11,19.49A47.74,47.74,0,0,1,946,780.36,41,41,0,0,1,919.67,790.08Zm-34.2-137.65v.05q0,18.07,0,36.13c0,16.6,0,33.75-.09,50.62-.13,12.13.92,19.67,7,27.27a36.46,36.46,0,0,0,20.73,12.86,30.8,30.8,0,0,0,26.56-6.73,37.83,37.83,0,0,0,12.59-19.54c1.34-4.87.53-9.94-.33-15.31-.32-2-.65-4-.87-6.1-1.27-10.48-2.73-21.18-4.15-31.54-.71-5.22-1.43-10.45-2.12-15.67-.64-4.7-1.24-9.43-1.85-14.16-.71-5.55-1.44-11.29-2.22-16.91,0-.32-.09-.67-.12-1q-22.9,0-45.83,0Zm-116.76,0c-7.37,0-12.24,2.88-15.78,9.33-1.45,2.64-2.06,5.76-2.71,9.07-.32,1.64-.65,3.33-1.1,5.05L748,680.11l-1.89,7.24q-1.5,5.79-3,11.6-2.42,9.34-4.85,18.68c-.94,3.59-2,7.2-3,10.68-1.55,5.24-3.15,10.66-4.29,15.92-2.83,13.07,5.54,23.81,14.32,29.5h0c7.74,5,16.71,7,24.61,5.42,15.76-3.13,23.07-14.6,26.43-23.67a33.13,33.13,0,0,0,1.89-9.28q.46-4.69,1-9.38c.61-5.48,1.33-11.39,2.2-18.08,1.28-9.8,2.65-19.75,4-29.36l1.4-10.18c1.22-8.76,2.47-17.8,3.38-26.74Q789.38,652.46,768.71,652.41Z"/><path class="cls-5" d="M996.74,790.05c-10.81,0-21.65-3.78-29.47-11.3A48.2,48.2,0,0,1,953.37,755h0c-.06-.26-.12-.52-.17-.77A98.41,98.41,0,0,1,951.6,740c-.18-2.87-.35-5.57-.67-8.26-1.27-10.54-2.74-21.24-4.16-31.6-.71-5.22-1.43-10.45-2.12-15.67-.5-3.8-1-7.61-1.47-11.41-.81-6.45-1.66-13.12-2.6-19.64-.3-2.21-.44-5.4,1.84-7.87,1.67-1.8,4.11-2.6,7.28-2.4,7.67.49,15.59.29,23.25.1,5.89-.15,12-.3,18-.15,14.22.35,23.89,8.86,29.55,26,3.63,11,6.24,22.29,8.77,33.23,1.49,6.47,3,13.17,4.77,19.67,2,7.6,3.77,14.56,5.33,21.28,2.78,12-2.29,25.1-13.9,36C1017.82,786.45,1007.29,790.05,996.74,790.05Zm-33.62-37.32a38.74,38.74,0,0,0,11.08,18.81c11.6,11.16,32.8,11.35,44.48.41,4.23-4,13.77-14.49,11-26.43-1.54-6.62-3.26-13.48-5.26-21-1.77-6.66-3.33-13.44-4.85-20-2.47-10.72-5-21.8-8.51-32.34-4.3-13-10.56-18.91-20.31-19.15-5.81-.14-11.78,0-17.55.15-7.37.18-15,.37-22.54,0,.87,6.2,1.67,12.49,2.44,18.58q.72,5.68,1.46,11.36c.7,5.21,1.41,10.41,2.12,15.63,1.42,10.39,2.9,21.14,4.17,31.75.36,3,.55,6,.73,8.83a89.35,89.35,0,0,0,1.41,12.8c0,.21.08.4.13.6Z"/><path class="cls-4" d="M1013.8,664.32c-1.41-2.86-2.78-5.71-4.19-8.61C1012.77,657.73,1013.42,661,1013.8,664.32Z"/><path class="cls-6" d="M1014.62,667.11l-1.27-2.57q-1.38-2.81-2.74-5.62l-2.23-4.58,1.5.95c3.38,2.16,4,5.62,4.42,9Zm-3.47-9.37.36.74,1.2,2.48A8.61,8.61,0,0,0,1011.15,657.74Z"/><path class="cls-4" d="M1009.42,655.52c-1.22-.34-2.4-.76-2.36-2.36A2.55,2.55,0,0,1,1009.42,655.52Z"/><path class="cls-6" d="M1010.08,656.23l-.8-.22c-1-.3-2.77-.79-2.72-2.86v-.53l.53,0a3,3,0,0,1,2.81,2.76Zm-2.45-2.44a1.57,1.57,0,0,0,1,1A1.74,1.74,0,0,0,1007.63,653.79Z"/><path class="cls-5" d="M843.73,790.07a47.12,47.12,0,0,1-22.29-5.8c-11.93-6.43-20.33-17-23-29h0a20.39,20.39,0,0,1-.57-4.92,146.89,146.89,0,0,1,1.68-17c.28-2,.55-4,.8-6,1.19-9.82,2.57-19.75,3.9-29.36q1-7.31,2-14.61.46-3.48.95-7c1.14-8.29,2.31-16.85,3.14-25.24.25-2.55,1.7-8.42,9.73-7.81a254.35,254.35,0,0,0,34.49-.08c4.07-.26,8.1-.2,12-.15,3.32.05,6.46.09,9.61,0,1.1,0,4.45-.19,6.91,2.17s2.45,5.63,2.45,7.21q0,19.23,0,38.43,0,12.58,0,25.17c0,2.73,0,5.47-.07,8.21-.07,6.48-.15,13.19.18,19.68,1,19.15-10.42,37.07-27.66,43.57A40.19,40.19,0,0,1,843.73,790.07Zm-35.57-37c2.07,9.16,8.64,17.32,18,22.38s19.53,6,28.18,2.71c13.23-5,21.94-18.85,21.2-33.71-.34-6.8-.26-13.66-.19-20.3,0-2.7.07-5.41.07-8.11q0-12.57,0-25.15,0-18.9,0-37.78c-3.07.1-6.14.06-9.11,0-3.87,0-7.54-.1-11.19.13a264.37,264.37,0,0,1-35.06.13c-.84,8.17-2,16.4-3.06,24.38q-.48,3.48-1,7-1,7.34-2,14.65c-1.32,9.57-2.69,19.46-3.88,29.2-.24,2-.53,4.08-.81,6.14a137.89,137.89,0,0,0-1.59,15.85,10.79,10.79,0,0,0,.32,2.51Z"/></g><path class="cls-7" d="M635,104.45H519a14,14,0,0,1,0-28H635a14,14,0,0,1,0,28Zm-116-18a4,4,0,0,0,0,8H635a4,4,0,0,0,0-8Z"/><path class="cls-7" d="M701.83,109.07a18.62,18.62,0,1,1,18.63-18.62A18.64,18.64,0,0,1,701.83,109.07Zm0-27.24a8.62,8.62,0,1,0,8.63,8.62A8.63,8.63,0,0,0,701.83,81.83Z"/><line class="cls-8" x1="9.41" y1="312.75" x2="9.41" y2="380.75"/><line class="cls-8" x1="9.41" y1="475.35" x2="9.41" y2="625.35"/><line class="cls-8" x1="9.41" y1="687.35" x2="9.41" y2="829.35"/><path class="cls-9" d="M1159.81,784.85a7.5,7.5,0,0,1-7.5-7.5v-244a7.5,7.5,0,1,1,15,0v244A7.5,7.5,0,0,1,1159.81,784.85Z"/><path class="cls-7" d="M973.27,2283h-782c-94,0-170.5-76.49-170.5-170.5V170.5C20.77,76.49,97.25,0,191.27,0h782c94,0,170.5,76.49,170.5,170.5v1942C1143.77,2206.51,1067.28,2283,973.27,2283ZM191.27,15c-85.74,0-155.5,69.76-155.5,155.5v1942c0,85.74,69.76,155.5,155.5,155.5h782c85.74,0,155.5-69.76,155.5-155.5V170.5C1128.77,84.76,1059,15,973.27,15Z"/><path class="cls-7" d="M967.92,2154.23H196.62A127,127,0,0,1,69.77,2027.38V186.7A127,127,0,0,1,196.62,59.85h88.25a23,23,0,0,1,23,23,60.07,60.07,0,0,0,60,60h428.6a60.07,60.07,0,0,0,60-60,23,23,0,0,1,23-23h88.45A127,127,0,0,1,1094.77,186.7V2027.38A127,127,0,0,1,967.92,2154.23ZM196.62,69.85A117,117,0,0,0,79.77,186.7V2027.38a117,117,0,0,0,116.85,116.85h771.3a117,117,0,0,0,116.85-116.85V186.7A117,117,0,0,0,967.92,69.85H879.47a13,13,0,0,0-13,13,70.08,70.08,0,0,1-70,70H367.87a70.08,70.08,0,0,1-70-70,13,13,0,0,0-13-13Z"/><path class="cls-7" d="M7.5,390.57a7.5,7.5,0,0,1-7.5-7.5v-68a7.5,7.5,0,0,1,15,0v68A7.5,7.5,0,0,1,7.5,390.57Z"/><path class="cls-7" d="M7.5,635.17a7.5,7.5,0,0,1-7.5-7.5v-150a7.5,7.5,0,0,1,15,0v150A7.5,7.5,0,0,1,7.5,635.17Z"/><path class="cls-7" d="M7.5,839.17a7.5,7.5,0,0,1-7.5-7.5v-142a7.5,7.5,0,0,1,15,0v142A7.5,7.5,0,0,1,7.5,839.17Z"/><line class="cls-10" x1="1164.9" y1="535.67" x2="1164.9" y2="779.67"/><path class="cls-9" d="M840.53,2212.4H324a5,5,0,0,1,0-10H840.53a5,5,0,1,1,0,10Z"/><path class="cls-11" d="M300.67,307.51c11.23,0,21.17,3.63,29.41,11.87a1.74,1.74,0,0,0,1.14.63,1.23,1.23,0,0,0,.85-.41l1-.09.76-.31a.24.24,0,0,0,.12,0,.28.28,0,0,0,.19-.07,13.32,13.32,0,0,0,5.17-1.51l1-.22a28.19,28.19,0,0,0,7.39-2.92c2.88-.93,5.36-2.66,8.5-4.07-2.88,9.11-8.5,15.75-15.67,21.42a67.34,67.34,0,0,0,21.16-5.76c-3.81,6.11-7.83,11.11-12.88,14.87s-7.17,8-7.3,14.7c-.44,21.42-7,41.24-18.55,59.35a111.92,111.92,0,0,1-32.83,33.5,115.61,115.61,0,0,1-24.3,11.86,24.85,24.85,0,0,0-2.48.57,109.8,109.8,0,0,1-28.9,5.09q-3.51.15-7,.15c-4.87,0-9.69-.21-14.52-.63l-1-.09c-4.33-.93-8.67-1.86-13-2.83-5.31-1.2-10.22-3.5-15.44-4.92a10.81,10.81,0,0,0-4.65-2.08c-.44-.84-1.42-.84-2.12-1.32-2.88-1.86-6.47-2.62-8.77-5.4,1.11,0,2.22,0,3.28-.05h.7c1.51,0,3,.12,4.55.12a15,15,0,0,0,4-.46c16.33-.62,30.72-6.42,44.3-16.38-4-.84-7.34-1.15-10.62-2.21C202,426,193.72,418,188.76,406.34c-.81-1.9-.91-2.49.23-2.49a11.35,11.35,0,0,1,1.68.19,28.7,28.7,0,0,0,4.88.41A40,40,0,0,0,205,403.2c-3.49-1.37-6.55-2.26-9.34-3.76q-20-10.83-21.55-33.51c-.09-1.4.07-2.05.75-2.05a4.14,4.14,0,0,1,1.6.55,36.37,36.37,0,0,0,15.09,3.81c-2.44-2.17-4.43-3.9-6.29-5.76-11.59-11.59-14.16-30.62-6.86-45.54.46-1,.83-1.56,1.35-1.56s.89.34,1.57,1.12q27.09,31.33,67.89,38.72c3.72.67,7.53.89,11.29,1.24l.48,0c.8,0,1.29-.27,1.07-1.53-2.17-12,.66-22.88,8.1-32.57l8.23-7.88a58.5,58.5,0,0,1,16.51-6.68l2.56-.23c1.1-.06,2.19-.09,3.26-.09m55.56,2.93h0m-55.57-12.93c-1.26,0-2.56,0-3.85.11l-.27,0-2.56.22a9.07,9.07,0,0,0-1.27.2,68,68,0,0,0-19.32,7.75,9.82,9.82,0,0,0-2,1.47l-8.24,7.88a9.22,9.22,0,0,0-1,1.14c-6.86,8.95-10.49,18.72-10.85,29.15l-.39-.07c-25.12-4.57-45.43-16.16-62.08-35.42l0-.06c-2.63-3-5.69-4.52-9.09-4.52-2.58,0-7.35.94-10.35,7.22a51.15,51.15,0,0,0-.67,43.2,10,10,0,0,0-1.64,1.42,12.08,12.08,0,0,0-3,9.33v.09c.95,13.4,6.1,24.67,15.08,33.19-2.16,4.45-.34,8.73.4,10.45C184.1,421,191,429.05,200.08,434.49a63,63,0,0,1-19.93,4,9.18,9.18,0,0,0-2.27.35,6,6,0,0,1-1.39.1c-.56,0-1.2,0-1.88-.05s-1.71-.07-2.67-.07l-1,0h-.13c-.85,0-1.83,0-2.86,0a10,10,0,0,0-7.71,16.36,23.85,23.85,0,0,0,9,6.39c.8.38,1.55.73,2,1a13.49,13.49,0,0,0,1.36.78,10,10,0,0,0,4.42,2,.71.71,0,0,1,.33.15,10,10,0,0,0,3.51,1.74c1.94.53,4,1.25,6.1,2a82.68,82.68,0,0,0,9.77,3c4.36,1,8.77,1.93,13,2.84l.08,0a12.13,12.13,0,0,0,1.23.18l1,.09c5.15.45,10.32.67,15.39.67,2.46,0,4.95-.05,7.42-.16a120.58,120.58,0,0,0,31.5-5.54l.08,0c.14,0,.46-.1.71-.15l.72-.15a8.11,8.11,0,0,0,1.36-.39,124.75,124.75,0,0,0,26.39-12.91,121.15,121.15,0,0,0,35.78-36.5c12.85-20.14,19.62-41.85,20.09-64.49.07-3.91.8-5,3.27-6.87,5.64-4.21,10.53-9.8,15.4-17.61a10,10,0,0,0-5.53-14.84c.35-.91.68-1.83,1-2.78a10,10,0,0,0-9.23-13.33h-.77a10.09,10.09,0,0,0-3.76,1c-1.46.67-2.74,1.35-3.88,2a23.63,23.63,0,0,1-3.36,1.61,10.16,10.16,0,0,0-2.17,1,18.4,18.4,0,0,1-4.55,1.73l-.74.16a9.69,9.69,0,0,0-2.54.93,3.22,3.22,0,0,1-1,.33c-9.19-7.72-20.28-11.63-33-11.63Z"/><path class="cls-12" d="M916.35,523.69h-.58c-7.34-.16-14.82-.14-22.06-.11-4.12,0-8.25,0-12.38,0h-.05c-3.71,0-6.67,0-9-2.26s-2.4-5.44-2.4-9.05V413.65c0-.72,0-1.49,0-2.16-.59,0-1.25,0-1.86.07h-.15c-2.49.1-5,.08-7.36.06-1.55,0-3.09,0-4.63,0a8.77,8.77,0,0,1-6.57-2.33,9.29,9.29,0,0,1-2.37-6.89c.15-10.08.15-20.3,0-30.39a9.28,9.28,0,0,1,2.39-6.88c2.2-2.21,5.1-2.42,7.09-2.38s3.82.05,5.8,0c2.56,0,5.2,0,7.85.11a243.9,243.9,0,0,1,.45-29.06c2.14-25.28,20.48-42.66,45.65-43.29,5.38-.15,10.85-.21,16.15-.28,6-.07,12.22-.15,18.29-.34,2.55-.1,5.84.11,8.3,2.56,2.78,2.76,2.64,6.77,2.59,8.09-.31,9.63-.19,19.28,0,28.33,0,1.15.08,4.66-2.44,7.1s-5.91,2.27-7,2.21c-5.4-.2-10.86-.14-16,0-7,.11-8.66,1.67-9.56,8.8a66.13,66.13,0,0,0-.28,9.2c0,2,0,4.13,0,6.26,3.61,0,7.23,0,10.74,0,4.56,0,9.28,0,13.88-.06,1.52,0,5.24-.16,7.76,2.56s2.14,6.39,2,7.6c-1.21,10.59-2.15,21.29-3,31.28-.29,3.66-2.23,8.05-9.79,8.05-2.54,0-5,0-7.56,0-4.36,0-8.86.05-13.33-.1.15,12.59.13,25.31.11,37.62,0,3.53,0,7.07,0,10.6l.15.15v2.08c0,4.57,0,9.16,0,13.74,0,12-.06,24.34.13,36.47,0,2.45-.24,6-2.85,8.54C922,523.32,918.77,523.69,916.35,523.69Zm-14.52-10.14c4.7,0,9.44,0,14.16.14a9.55,9.55,0,0,0,1.2,0,10,10,0,0,0,0-1.12c-.19-12.19-.16-24.61-.13-36.63q0-5.82,0-11.64l-.15-.15V462q0-6.33,0-12.69c0-12.47,0-25.36-.11-38-.06-2,.13-5.09,2.4-7.33s5.19-2.37,7.52-2.27c4.37.16,8.94.13,13.36.11,2.51,0,5,0,7.53,0,.8-9.47,1.69-19.52,2.81-29.49-4.58.08-9.18.07-13.62.06-3.81,0-7.74,0-11.59,0-1.1,0-4.57.08-7-2.43a8.57,8.57,0,0,1-2.18-6.69c.14-2.32.11-4.6.08-7a74.69,74.69,0,0,1,.36-10.59c1.5-11.94,7.46-17.36,19.3-17.55,4.93-.09,10.22-.16,15.59,0-.14-8.92-.24-18.4.07-28,0-.12,0-.23,0-.33H951c-6.2.2-12.46.28-18.52.35-5.26.07-10.69.13-16,.28-20.13.5-34.23,13.88-35.94,34.08a232.56,232.56,0,0,0-.4,28.39c0,1.27.21,5-2.53,7.66s-6.58,2.32-7.84,2.22c-2.33-.16-4.8-.14-7.41-.11-1.74,0-3.54,0-5.36,0,.14,9.57.14,19.27,0,28.84h3.64c2.37,0,4.62,0,6.87-.05h.13c4.46-.19,7.41-.32,9.84,2s2.46,5.42,2.46,10.07v98.62c0,.34,0,.82,0,1.3h1.45c4.13,0,8.23,0,12.33,0Zm45.74-110.4Zm-76.05-40.22Z"/><path class="cls-13" d="M328.27,880.4a8.93,8.93,0,0,1-6.55-2.25c-2.14-2.1-2.41-4.89-2.41-7.1.14-21.44.07-43.29,0-64.43a55.17,55.17,0,0,0-1.4-13.16c-1.72-7.07-5.41-10.6-11.93-11.36-6.25-.7-14.6.14-18.64,8.09C284.23,796.28,284,803.32,284,810c-.08,23.1-.06,42.46.08,60.94,0,2.23-.28,5-2.41,7.11s-5.05,2.31-7,2.26c-10.81-.21-21.85-.14-32.52-.07-7.34,0-8.88-4.61-8.88-8.47.08-41.16.08-82.89,0-124,0-7.45,5.27-8.56,8.41-8.56,9.57.13,20.82.23,32.12,0a8.75,8.75,0,0,1,6.53,2.23c2.31,2.31,2.22,5.48,2.19,6.67,0,.46,0,.91,0,1.37C299,735,320.88,731.54,342,740.6c11,4.73,18.79,13.28,23.16,25.43,4.27,12,4.93,24.15,5,35.55-.18,28-.2,49.4-.07,69.3v0c0,2-.26,5-2.47,7.18s-5,2.35-7.27,2.31c-10.48-.22-21.11-.22-31.59,0Zm16.28-10.16c5.18,0,10.37,0,15.52.15-.12-19.79-.1-41,.08-68.81-.07-10.46-.65-21.64-4.42-32.18-3.43-9.55-9.22-16-17.68-19.61-21.11-9.06-42.31-3.32-56.71,15.33a5,5,0,0,1-9-3c0-1.43,0-2.77,0-4.06,0-3.2,0-6,.05-8.8-10.29.18-20.42.11-29.21,0,.07,40.17.07,80.87,0,121,10.09-.07,20.53-.13,30.83.06-.13-18.27-.15-37.48-.07-60.32,0-7.89.35-16.28,4.46-24.34,5.1-10,15.56-14.94,28.69-13.49,10.71,1.26,17.8,7.83,20.52,19a64.41,64.41,0,0,1,1.66,15.53c.08,20.84.15,42.47,0,63.7C334.37,870.28,339.46,870.24,344.55,870.24Zm-72.11-123Z"/><path class="cls-13" d="M208.68,880.4h-.41c-11.54-.23-23.12-.13-32.93,0h0a8.48,8.48,0,0,1-6.45-2.25A8.32,8.32,0,0,1,166.8,872c.07-41.23.07-83,0-124.26,0-7.53,5.67-8.34,8.11-8.34,10.21.13,22.21.23,34.23,0a8.43,8.43,0,0,1,6.21,2.12c2.17,2.14,2.16,4.92,2.15,6.58v62.13q0,12.1,0,24.27c0,12,0,24.3.1,36.45v0c0,1.56,0,4.81-2.39,7.15A9.05,9.05,0,0,1,208.68,880.4ZM193.4,870.26c4.65,0,9.44,0,14.24.12-.09-12-.09-24.12-.1-35.87q0-12.15,0-24.27V749.43c-10.79.18-21.43.1-30.7,0,.07,40.14.07,80.82,0,121C182,870.31,187.57,870.26,193.4,870.26Z"/><path class="cls-13" d="M192.35,731.44H192a28.53,28.53,0,0,1-20.14-8.53,28.19,28.19,0,0,1-8.19-20.28,28.65,28.65,0,0,1,28.43-28.33h.16a28.57,28.57,0,0,1,28.55,28.36v.42a28.51,28.51,0,0,1-28.48,28.36Zm-.07-47.14h-.1a18.62,18.62,0,0,0-18.49,18.42A18.3,18.3,0,0,0,179,715.89a18.61,18.61,0,0,0,13.13,5.55h.21A18.5,18.5,0,0,0,210.83,703v-.35A18.56,18.56,0,0,0,192.28,684.3Zm23.55,18.75h0Z"/><rect class="cls-14" x="132.47" y="254.47" width="264.75" height="264.75" rx="54.75"/><path class="cls-12" d="M957.9,524.22H802.65a59.82,59.82,0,0,1-59.75-59.75V309.22a59.83,59.83,0,0,1,59.75-59.75H957.9a59.82,59.82,0,0,1,59.75,59.75V464.47A59.81,59.81,0,0,1,957.9,524.22ZM802.65,259.47a49.81,49.81,0,0,0-49.75,49.75V464.47a49.8,49.8,0,0,0,49.75,49.75H957.9a49.8,49.8,0,0,0,49.75-49.75V309.22a49.8,49.8,0,0,0-49.75-49.75Z"/><path class="cls-13" d="M342.47,917.05H187.22a59.81,59.81,0,0,1-59.75-59.75V702.05a59.81,59.81,0,0,1,59.75-59.75H342.47a59.82,59.82,0,0,1,59.75,59.75V857.3A59.82,59.82,0,0,1,342.47,917.05ZM187.22,652.3a49.8,49.8,0,0,0-49.75,49.75V857.3a49.8,49.8,0,0,0,49.75,49.75H342.47a49.81,49.81,0,0,0,49.75-49.75V702.05a49.81,49.81,0,0,0-49.75-49.75Z"/><path class="cls-15" d="M533.53,882.24a7,7,0,0,1-2.1-.33c-2.61-.84-4.14-2.87-4.54-6l0-.22c-2.66-18.2-1.92-34.87,2.26-50.95,3.08-11.79,5.87-23.9,8.58-35.61q1.84-8,3.74-16.08a.88.88,0,0,0,0-.45l-.09-.22c-4.32-12.13-4.32-23.67,0-34.31,2.86-7.06,7.41-12.18,13.53-15.2,6.7-3.31,13.91-3.28,19.78.07s9.6,9.57,10.16,17c.45,6.19-.88,11.93-2.39,17.21-1.46,5.12-3,10.3-4.47,15.3q-1.29,4.32-2.55,8.64c-1.88,6.24-1,10.57,2.85,14.07,4.24,3.88,9.29,4.64,15.89,2.41,5.08-1.75,9.33-5.41,13.34-11.53,5.31-8.12,8.47-17.62,9.94-29.88.81-6.79,1.35-14.06-.24-21.2-2.89-13-10.36-21.59-22.23-25.51-20-6.57-37.5-3.6-52.11,8.81-13,11.1-18.32,25.83-15.83,43.78a21.34,21.34,0,0,0,5.3,11.28,11.65,11.65,0,0,1,2.59,12.26c-.42,1.31-.75,2.69-1.09,4.14-.22.91-.44,1.82-.68,2.74-.36,1.35-1.43,5.4-5.14,7.17s-7.46.06-8.7-.5c-9.93-4.47-17.13-12.55-20.81-23.35-8.3-24-4.33-46.78,11.83-67.58,13.16-16.94,31.76-27.09,55.29-30.16,18.24-2.43,34.39-.26,49.33,6.66,27.64,12.88,43.11,39.78,40.37,70.22-1.57,17.59-5.79,31.33-13.29,43.23-10.68,17.08-25.52,27-44.11,29.51-10.28,1.35-19.11,0-27-4.25a31.35,31.35,0,0,1-5.58-3.69c-1.7,6.62-3.5,13.58-5.29,20.37-4.17,15.62-13,28.56-21,39.15A6.61,6.61,0,0,1,533.53,882.24Zm17.19-113.36a10.78,10.78,0,0,1,.46,6.37c-1.27,5.4-2.51,10.75-3.74,16.09-2.72,11.78-5.53,24-8.64,35.88a113.22,113.22,0,0,0-2.95,39.42c5.93-8.43,11.59-18.15,14.53-29.11,2.61-9.92,5.25-20.23,7.58-29.32a5,5,0,0,1,9-1.49,22.7,22.7,0,0,0,8.56,7.84c6,3.23,12.9,4.26,21,3.19,15.71-2.11,27.8-10.26,37-24.92,6.63-10.52,10.38-22.84,11.8-38.8,2.35-26.13-10.91-49.22-34.62-60.26-13.16-6.09-27.5-8-43.81-5.81-21.13,2.75-37,11.38-48.7,26.37-14,18-17.41,37.55-10.27,58.2,2.81,8.25,8,14.13,15.45,17.48h0l0-.11c.22-.84.42-1.67.61-2.5.39-1.62.79-3.3,1.35-5a2.49,2.49,0,0,1,.11-.29,1.64,1.64,0,0,0-.38-1.78l-.15-.16a31.29,31.29,0,0,1-7.89-16.68c-3-21.29,3.7-39.54,19.24-52.81,17.47-14.84,38.23-18.43,61.74-10.7,15.22,5,25.2,16.39,28.85,32.85,1.92,8.62,1.28,17.25.41,24.55-1.64,13.66-5.4,24.84-11.5,34.17-5.23,8-11.27,13-18.49,15.51-10,3.39-18.94,1.84-25.85-4.48-6.77-6.17-8.69-14.35-5.7-24.3.84-2.86,1.69-5.75,2.55-8.64,1.47-5,3-10.13,4.45-15.2,1.25-4.4,2.36-9.1,2-13.73-.31-4.09-2.18-7.41-5.14-9.09s-6.68-1.63-10.4.21c-3.91,1.93-6.75,5.2-8.7,10C547.19,750.19,547.23,759,550.72,768.88Z"/><path class="cls-15" d="M652.59,917.05H497.34a59.81,59.81,0,0,1-59.75-59.75V702.05a59.81,59.81,0,0,1,59.75-59.75H652.59a59.82,59.82,0,0,1,59.75,59.75V857.3A59.82,59.82,0,0,1,652.59,917.05ZM497.34,652.3a49.8,49.8,0,0,0-49.75,49.75V857.3a49.8,49.8,0,0,0,49.75,49.75H652.59a49.81,49.81,0,0,0,49.75-49.75V702.05a49.81,49.81,0,0,0-49.75-49.75Z"/><path class="cls-3" d="M957.9,917.05H802.65A59.82,59.82,0,0,1,742.9,857.3V702.05a59.82,59.82,0,0,1,59.75-59.75H957.9a59.81,59.81,0,0,1,59.75,59.75V857.3A59.81,59.81,0,0,1,957.9,917.05ZM802.65,652.3a49.81,49.81,0,0,0-49.75,49.75V857.3a49.81,49.81,0,0,0,49.75,49.75H957.9a49.8,49.8,0,0,0,49.75-49.75V702.05A49.8,49.8,0,0,0,957.9,652.3Z"/><g class="cls-16"><circle class="cls-17" cx="574.96" cy="386.85" r="176.38"/></g><path d="M259.48,1280.63v31.76H155.61V1187.47H257.16v31.77H197v14.63h52.82v30.34H197v16.42Z"/><path d="M383.15,1214.78l-39.26,97.61H302.13l-39.26-97.61h41.4l19.63,52.29L345,1214.78Z"/><path d="M490.05,1273H422.23c2.86,7.49,9.64,11.42,19.63,11.42,8.92,0,13.92-2.32,20.35-7.14l21.05,21.23c-9.45,10.35-23.19,15.71-42.65,15.71-35.87,0-59.07-21.59-59.07-50.68,0-29.63,23.74-50.51,55.33-50.51,28.91,0,53.71,17.49,53.71,50.51C490.58,1266.35,490.22,1270.1,490.05,1273Zm-68.53-19.46h31.41c-1.61-8.21-7.5-13-15.71-13C428.83,1240.48,423.12,1245.29,421.52,1253.5Z"/><path d="M573.21,1213v35.7a55.44,55.44,0,0,0-8.92-.72c-12.14,0-20.7,5.53-20.7,21.06v43.36H503.25v-97.61h38.37v10.53C548.76,1217.1,559.65,1213,573.21,1213Z"/><path d="M696,1214.78l-40.15,99.58c-10.71,26.77-26.42,34.44-47.12,34.44-10.71,0-23-3.39-29.62-8.74l13.38-27.67a24.92,24.92,0,0,0,14.28,5.18c4.82,0,7.85-1.43,10-3.93l-41-98.86h41.4l20.17,52.29,20.52-52.29Z"/><path d="M155.61,1401.63h42.12v124.92H155.61Z"/><path d="M324.61,1470.87v55.68H284.28v-48.72c0-12.14-4.64-16.78-11.95-16.78-8.21,0-15.17,5.18-15.17,19.63v45.87H216.82v-97.62h38.37v9.64c7.68-7.68,18-11.42,29.45-11.42C307.12,1427.15,324.61,1440.17,324.61,1470.87Z"/><path d="M451.85,1394.13v132.42H413.49v-8c-5.89,6.6-14.64,9.81-26.77,9.81-25.52,0-47.12-19.27-47.12-50.68s21.6-50.5,47.12-50.5c10.7,0,18.91,2.67,24.8,8.38v-41.4Zm-39.61,83.52c0-12.67-7-19.09-15.89-19.09s-15.88,6.42-15.88,19.09,7,19.27,15.88,19.27S412.24,1490.32,412.24,1477.65Z"/><path d="M576.42,1428.93v97.62H538.05v-9.28c-7.32,7.49-17.13,11.06-27.66,11.06-23.38,0-41.05-13.74-41.05-45.5v-53.9h40.33v46.94c0,13.92,4.82,18.55,12.67,18.55,7,0,13.75-5.17,13.75-19.63v-45.86Z"/><path d="M588.2,1518.7l11.06-26.59c9.28,5.53,22.49,8.74,34.09,8.74,9.81,0,12.49-1.78,12.49-4.64,0-10-56.22,3.39-56.22-35.69,0-18.38,17.14-33.37,50-33.37,14.28,0,29.45,2.67,39.8,8l-11.07,26.59a57.71,57.71,0,0,0-28.19-7.14c-10.35,0-13.21,2.32-13.21,4.64,0,10.17,56-3,56,36,0,17.66-16.6,33-50.51,33C615.68,1528.33,598.19,1524.41,588.2,1518.7Z"/><path d="M767,1523.16c-6.24,3.57-15.35,5.17-24.8,5.17-27,0-42.66-12.67-42.66-39.62v-25H686.17v-29.44h13.38V1407h40.34v27.31h20v29.44h-20v24.63c0,6.06,3.56,9.46,8.38,9.46a16.45,16.45,0,0,0,9.1-2.68Z"/><path d="M847.14,1427.15v35.69a55.44,55.44,0,0,0-8.92-.72c-12.14,0-20.71,5.54-20.71,21.06v43.37H777.18v-97.62h38.37v10.53C822.69,1431.25,833.58,1427.15,847.14,1427.15Z"/><path d="M969.92,1428.93l-40.16,99.58c-10.7,26.77-26.41,34.44-47.11,34.44-10.71,0-23-3.39-29.62-8.74l13.38-27.66a25,25,0,0,0,14.28,5.17c4.82,0,7.85-1.42,10-3.92l-41-98.87H891l20.17,52.29,20.52-52.29Z"/><path d="M150.62,1678.24c0-38.37,29.44-65.31,69.6-65.31,24.44,0,43.72,8.92,56,25l-26.59,23.73c-7.32-9.28-16.06-14.63-27.3-14.63-17.49,0-29.27,12.13-29.27,31.23s11.78,31.23,29.27,31.23c11.24,0,20-5.35,27.3-14.63l26.59,23.73c-12.31,16.06-31.59,25-56,25C180.06,1743.56,150.62,1716.61,150.62,1678.24Z"/><path d="M279.29,1691.8c0-29.62,23.73-50.5,56.74-50.5,33.2,0,56.75,20.88,56.75,50.5s-23.55,50.69-56.75,50.69C303,1742.49,279.29,1721.43,279.29,1691.8Zm72.63,0c0-12.67-7-19.09-15.89-19.09s-15.88,6.42-15.88,19.09,7,19.28,15.88,19.28S351.92,1704.47,351.92,1691.8Z"/><path d="M511.46,1643.08,472.2,1740.7H430.44l-39.26-97.62h41.4l19.63,52.29,21.06-52.29Z"/><path d="M618.36,1701.26H550.54c2.86,7.5,9.64,11.42,19.63,11.42,8.93,0,13.92-2.32,20.35-7.14l21.06,21.24c-9.46,10.35-23.2,15.71-42.66,15.71-35.87,0-59.06-21.6-59.06-50.69,0-29.62,23.73-50.5,55.32-50.5,28.91,0,53.71,17.49,53.71,50.5C618.89,1694.66,618.54,1698.41,618.36,1701.26Zm-68.53-19.45h31.41c-1.61-8.21-7.5-13-15.71-13C557.15,1668.78,551.44,1673.6,549.83,1681.81Z"/><path d="M701.52,1641.3V1677a56.5,56.5,0,0,0-8.92-.71c-12.14,0-20.7,5.53-20.7,21.06v43.36H631.57v-97.62h38.36v10.53C677.07,1645.4,688,1641.3,701.52,1641.3Z"/><path d="M815.38,1701.26H747.57c2.85,7.5,9.63,11.42,19.63,11.42,8.92,0,13.92-2.32,20.34-7.14l21.06,21.24c-9.46,10.35-23.2,15.71-42.65,15.71-35.87,0-59.07-21.6-59.07-50.69,0-29.62,23.73-50.5,55.32-50.5,28.91,0,53.71,17.49,53.71,50.5C815.91,1694.66,815.56,1698.41,815.38,1701.26Zm-68.53-19.45h31.41c-1.61-8.21-7.49-13-15.7-13C754.17,1668.78,748.46,1673.6,746.85,1681.81Z"/><path d="M936.55,1608.28V1740.7H898.19v-8c-5.89,6.6-14.64,9.82-26.77,9.82-25.52,0-47.12-19.28-47.12-50.69s21.6-50.5,47.12-50.5c10.7,0,18.91,2.68,24.8,8.39v-41.41Zm-39.61,83.52c0-12.67-7-19.09-15.89-19.09s-15.88,6.42-15.88,19.09,7,19.28,15.88,19.28S896.94,1704.47,896.94,1691.8Z"/><path d="M949.05,1719.29c0-13.75,10.17-22.85,23.55-22.85s23.56,9.1,23.56,22.85c0,13.56-10.17,23.2-23.56,23.2S949.05,1732.85,949.05,1719.29Z"/></g></g></svg>