<?xml version="1.0" encoding="utf-8"?>
<!-- Generator: Adobe Illustrator 23.0.2, SVG Export Plug-In . SVG Version: 6.00 Build 0)  -->
<svg version="1.1" id="Layer_1" xmlns="http://www.w3.org/2000/svg" xmlns:xlink="http://www.w3.org/1999/xlink" x="0px" y="0px"
	 viewBox="0 0 1172.4 2283" style="enable-background:new 0 0 1172.4 2283;" xml:space="preserve">
<style type="text/css">
	.st0{clip-path:url(#SVGID_2_);}
	.st1{fill:#487FE5;}
	.st2{fill:#7FACF6;}
	.st3{fill:#4858B7;}
	.st4{fill:#4F5963;}
	.st5{fill:#CCCCCC;}
	.st6{fill:none;stroke:#B3B3B3;stroke-width:15;stroke-linecap:round;stroke-miterlimit:10;}
	.st7{fill:#B3B3B3;}
	.st8{fill:none;stroke:#CCCCCC;stroke-width:15;stroke-linecap:round;stroke-miterlimit:10;}
	.st9{fill:#5EA8DC;}
	.st10{fill:#2A5297;}
	.st11{fill:#017BB6;}
	.st12{fill:none;stroke:#5EA8DC;stroke-width:10;stroke-miterlimit:10;}
	.st13{fill:#CB2127;}
	.st14{clip-path:url(#SVGID_4_);}
	.st15{fill:url(#SVGID_5_);}
</style>
<title>industry</title>
<g>
	<defs>
		<path id="SVGID_1_" d="M802.7,647.3h155.3c30.2,0,54.8,24.5,54.8,54.8v155.3c0,30.2-24.5,54.8-54.8,54.8H802.7
			c-30.2,0-54.8-24.5-54.8-54.8V702C747.9,671.8,772.4,647.3,802.7,647.3z"/>
	</defs>
	<clipPath id="SVGID_2_">
		<use xlink:href="#SVGID_1_"  style="overflow:visible;"/>
	</clipPath>
	<g class="st0">
		<path class="st1" d="M949.9,895c-18-0.1-34.2-11.1-40.8-27.9c-7.6-18.8-0.5-40.8,16.9-52.3c14.6-9.7,36.2-9,50.1,1.6
			c1,0.8,3.9,2.9,3.9,6.5c0,2.3-1.2,4.4-3.5,6.1c-0.5,0.5-1,1-1.5,1.5l-0.2,0.2c-0.5,0.4-0.9,1-1.4,1.5c-1.6,2-3.5,3.7-5.8,4.8
			c-4.6,2.1-8.1-0.8-9.8-2.1c-0.4-0.3-0.7-0.6-1.2-0.8c-7.4-3.3-16-0.5-21.5,6.9c-4.7,6.3-3.9,16.4,1.6,22.4
			c3.8,4.2,9.2,6.4,14.8,6.1c4.3-0.2,8.4-2.1,11.3-5.3h-3.2c-2.2,0-4.4,0-6.6,0c-4.9,0-7.8-2.7-8.1-7.6v-0.1
			c-0.4-7.2-0.6-11.1,2.3-14.2s6.9-3.1,14.2-3.1h7.2h5.1c3.3,0,6.7,0,10,0h0.2c4.6,0,7.7,2.9,8,7.5c2,24.8-11.4,43.5-34.2,47.5l0,0
			C955.1,894.8,952.5,895,949.9,895z M949.7,817.9c-6.4-0.1-12.8,1.7-18.2,5.2c-13.2,8.8-18.8,26.1-13.1,40.3
			c5.9,15.1,21.6,23.9,37.5,21.2l0,0c17.1-3,27-16.4,26.1-35.2c-2.8,0-5.7,0-8.4,0h-5h-7.2c-2.6,0-5.3,0-6.6,0.2
			c0,1.6,0,3.2,0.1,4.8c1.6,0,3.3,0,4.8,0c2.6,0,5,0,7.4,0c3.5-0.1,5.9,1,7.3,3.2s1.2,4.8-0.4,7.8c-0.6,1.3-1.3,2.5-2.1,3.7
			l-0.2,0.3c-4.6,6.2-11.8,10-19.6,10.4c-8.6,0.5-16.9-2.9-22.8-9.3c-8.8-9.5-9.8-25-2.3-35.1c8.1-11,21.9-15.2,33.5-10.1
			c1.2,0.6,2.3,1.3,3.3,2.2l0.3,0.3c0.5-0.5,1.1-1.2,1.6-1.7s1.2-1.3,1.8-2l0.6-0.7C962.7,819.7,956.3,817.9,949.7,817.9
			L949.7,817.9z"/>
		<path class="st2" d="M919.7,790.1c-2.9,0-5.9-0.3-8.7-0.9c-10.4-2.3-19.8-8.1-26.4-16.4c-8.7-10.9-9.3-22.1-9.2-33.6
			c0.1-16.8,0.1-34,0.1-50.5c0-11.8,0-23.7,0-35.5c-3,0.1-6,0-9,0c-3.9-0.1-7.6-0.1-11.3,0.1c-11.7,0.8-23.4,0.9-35.1,0.1
			c-0.9,9.1-2.2,18.3-3.4,27.2l-1.4,10.2c-1.3,9.6-2.7,19.5-4,29.3c-0.9,6.6-1.6,12.5-2.2,17.9c-0.3,3.1-0.7,6.2-1,9.3
			c-0.2,4-1,8-2.3,11.8c-6,16.2-18,26.9-33.9,30c-10.4,2.1-22.1-0.4-32-6.8c-14.8-9.6-21.9-24.9-18.7-40c1.2-5.6,2.9-11.2,4.5-16.6
			c1-3.4,2.1-7,3-10.4c1.6-6.2,3.2-12.4,4.8-18.7l3-11.6c0.6-2.4,1.3-4.8,1.9-7.3l1.1-4.3c0.4-1.4,0.7-2.9,1-4.5
			c0.7-3.7,1.6-8,3.8-12c5.3-9.6,13.6-14.5,24.6-14.5c41.8,0.1,84.2,0.1,126,0c21.8,0,43.6,0,65.4-0.1l32.8,0c3.8,0,11.8,0,17.1,6.8
			l12,15.3l-17.9-7.6c-4.6-1.9-8.8-3.5-13.3-3.7c-5.8-0.2-11.8,0-17.5,0.1c-7.4,0.2-15,0.4-22.6,0c0.7,5.3,1.4,10.6,2.1,15.8
			c0.6,4.7,1.2,9.4,1.8,14.1c0.7,5.2,1.4,10.4,2.1,15.6c1.4,10.4,2.9,21.2,4.2,31.8c0.2,1.9,0.5,3.7,0.8,5.7c1,5.9,2,12.6,0.1,19.5
			c-2.6,9.7-8.2,18.3-15.9,24.6C938.6,786.6,929.3,790,919.7,790.1z M885.5,652.4L885.5,652.4c0,12.1,0,24.1,0,36.2
			c0,16.6,0,33.8-0.1,50.6c-0.1,12.1,0.9,19.7,7,27.3c5.2,6.5,12.5,11.1,20.7,12.9c9.4,2,19.2-0.5,26.6-6.7
			c6.1-5,10.5-11.9,12.6-19.5c1.3-4.9,0.5-9.9-0.3-15.3c-0.3-2-0.7-4-0.9-6.1c-1.3-10.5-2.7-21.2-4.2-31.5
			c-0.7-5.2-1.4-10.5-2.1-15.7c-0.6-4.7-1.2-9.4-1.8-14.2c-0.7-5.5-1.4-11.3-2.2-16.9c0-0.3-0.1-0.7-0.1-1c-15.3,0-30.5,0-45.8,0
			L885.5,652.4z M768.7,652.4c-7.4,0-12.2,2.9-15.8,9.3c-1.5,2.6-2.1,5.8-2.7,9.1c-0.3,1.6-0.7,3.3-1.1,5l-1.1,4.2l-1.9,7.2
			c-1,3.9-2,7.7-3,11.6c-1.6,6.2-3.2,12.5-4.8,18.7c-0.9,3.6-2,7.2-3,10.7c-1.5,5.2-3.2,10.7-4.3,15.9c-2.8,13.1,5.5,23.8,14.3,29.5
			l0,0c7.7,5,16.7,7,24.6,5.4c15.8-3.1,23.1-14.6,26.4-23.7c1.1-3,1.7-6.1,1.9-9.3c0.3-3.1,0.6-6.3,1-9.4c0.6-5.5,1.3-11.4,2.2-18.1
			c1.3-9.8,2.7-19.8,4-29.4l1.4-10.2c1.2-8.8,2.5-17.8,3.4-26.7C796.3,652.5,782.5,652.4,768.7,652.4L768.7,652.4z"/>
		<path class="st3" d="M996.7,790c-10.8,0-21.7-3.8-29.5-11.3c-6.8-6.4-11.7-14.7-13.9-23.8l0,0c-0.1-0.3-0.1-0.5-0.2-0.8
			c-0.9-4.7-1.4-9.5-1.6-14.2c-0.2-2.9-0.3-5.6-0.7-8.3c-1.3-10.5-2.7-21.2-4.2-31.6c-0.7-5.2-1.4-10.5-2.1-15.7
			c-0.5-3.8-1-7.6-1.5-11.4c-0.8-6.5-1.7-13.1-2.6-19.6c-0.3-2.2-0.4-5.4,1.8-7.9c1.7-1.8,4.1-2.6,7.3-2.4
			c7.7,0.5,15.6,0.3,23.3,0.1c5.9-0.2,12-0.3,18-0.2c14.2,0.3,23.9,8.9,29.5,26c3.6,11,6.2,22.3,8.8,33.2c1.5,6.5,3,13.2,4.8,19.7
			c2,7.6,3.8,14.6,5.3,21.3c2.8,12-2.3,25.1-13.9,36C1017.8,786.5,1007.3,790,996.7,790z M963.1,752.7c1.8,7.2,5.7,13.7,11.1,18.8
			c11.6,11.2,32.8,11.3,44.5,0.4c4.2-4,13.8-14.5,11-26.4c-1.5-6.6-3.3-13.5-5.3-21c-1.8-6.7-3.3-13.4-4.8-20
			c-2.5-10.7-5-21.8-8.5-32.3c-4.3-13-10.6-18.9-20.3-19.2c-5.8-0.1-11.8,0-17.5,0.2c-7.4,0.2-15,0.4-22.5,0
			c0.9,6.2,1.7,12.5,2.4,18.6c0.5,3.8,1,7.6,1.5,11.4c0.7,5.2,1.4,10.4,2.1,15.6c1.4,10.4,2.9,21.1,4.2,31.8c0.4,3,0.5,6,0.7,8.8
			c0.2,4.3,0.6,8.6,1.4,12.8C963,752.3,963.1,752.5,963.1,752.7L963.1,752.7z"/>
		<path class="st2" d="M1013.8,664.3c-1.4-2.9-2.8-5.7-4.2-8.6C1012.8,657.7,1013.4,661,1013.8,664.3z"/>
		<path class="st4" d="M1014.6,667.1l-1.3-2.6c-0.9-1.9-1.8-3.7-2.7-5.6l-2.2-4.6l1.5,1c3.4,2.2,4,5.6,4.4,9L1014.6,667.1z
			 M1011.2,657.7l0.4,0.7l1.2,2.5C1012.4,659.8,1011.9,658.7,1011.2,657.7z"/>
		<path class="st2" d="M1009.4,655.5c-1.2-0.3-2.4-0.8-2.4-2.4C1008.3,653.3,1009.3,654.3,1009.4,655.5z"/>
		<path class="st4" d="M1010.1,656.2l-0.8-0.2c-1-0.3-2.8-0.8-2.7-2.9v-0.5h0.5c1.5,0.1,2.7,1.3,2.8,2.8L1010.1,656.2z
			 M1007.6,653.8c0.2,0.5,0.5,0.8,1,1C1008.5,654.3,1008.1,654,1007.6,653.8z"/>
		<path class="st3" d="M843.7,790.1c-7.8-0.1-15.5-2.1-22.3-5.8c-11.9-6.4-20.3-17-23-29l0,0c-0.4-1.6-0.6-3.3-0.6-4.9
			c0.2-5.7,0.8-11.4,1.7-17c0.3-2,0.5-4,0.8-6c1.2-9.8,2.6-19.8,3.9-29.4c0.7-4.9,1.3-9.7,2-14.6c0.3-2.3,0.6-4.7,1-7
			c1.1-8.3,2.3-16.8,3.1-25.2c0.3-2.5,1.7-8.4,9.7-7.8c11.5,0.8,23,0.7,34.5-0.1c4.1-0.3,8.1-0.2,12-0.2c3.3,0,6.5,0.1,9.6,0
			c1.1,0,4.5-0.2,6.9,2.2s2.5,5.6,2.5,7.2c0,12.8,0,25.6,0,38.4c0,8.4,0,16.8,0,25.2c0,2.7,0,5.5-0.1,8.2
			c-0.1,6.5-0.2,13.2,0.2,19.7c1,19.2-10.4,37.1-27.7,43.6C853.4,789.2,848.6,790.1,843.7,790.1z M808.2,753.1
			c2.1,9.2,8.6,17.3,18,22.4s19.5,6,28.2,2.7c13.2-5,21.9-18.8,21.2-33.7c-0.3-6.8-0.3-13.7-0.2-20.3c0-2.7,0.1-5.4,0.1-8.1
			c0-8.4,0-16.8,0-25.2c0-12.6,0-25.2,0-37.8c-3.1,0.1-6.1,0.1-9.1,0c-3.9,0-7.5-0.1-11.2,0.1c-11.7,0.8-23.4,0.9-35.1,0.1
			c-0.8,8.2-2,16.4-3.1,24.4c-0.3,2.3-0.7,4.7-1,7c-0.7,4.9-1.3,9.8-2,14.7c-1.3,9.6-2.7,19.5-3.9,29.2c-0.2,2-0.5,4.1-0.8,6.1
			c-0.8,5.2-1.4,10.5-1.6,15.8c0,0.8,0.1,1.7,0.3,2.5L808.2,753.1z"/>
	</g>
</g>
<path class="st5" d="M635,104.4H519c-7.7,0-14-6.3-14-14s6.3-14,14-14h116c7.7,0,14,6.3,14,14S642.7,104.4,635,104.4z M519,86.4
	c-2.2,0-4,1.8-4,4s1.8,4,4,4h116c2.2,0,4-1.8,4-4s-1.8-4-4-4H519z"/>
<path class="st5" d="M701.8,109.1c-10.3,0-18.6-8.3-18.6-18.6c0-10.3,8.3-18.6,18.6-18.6c10.3,0,18.6,8.3,18.6,18.6
	C720.4,100.7,712.1,109.1,701.8,109.1z M701.8,81.8c-4.8,0-8.6,3.9-8.6,8.6c0,4.8,3.9,8.6,8.6,8.6c4.8,0,8.6-3.9,8.6-8.6
	C710.5,85.7,706.6,81.8,701.8,81.8z"/>
<line class="st6" x1="9.4" y1="312.8" x2="9.4" y2="380.8"/>
<line class="st6" x1="9.4" y1="475.4" x2="9.4" y2="625.3"/>
<line class="st6" x1="9.4" y1="687.3" x2="9.4" y2="829.3"/>
<path class="st7" d="M1159.8,784.8c-4.1,0-7.5-3.4-7.5-7.5v-244c0-4.1,3.4-7.5,7.5-7.5s7.5,3.4,7.5,7.5v244
	C1167.3,781.5,1164,784.8,1159.8,784.8z"/>
<path class="st5" d="M973.3,2283h-782c-94,0-170.5-76.5-170.5-170.5v-1942C20.8,76.5,97.3,0,191.3,0h782
	c94,0,170.5,76.5,170.5,170.5v1942C1143.8,2206.5,1067.3,2283,973.3,2283z M191.3,15C105.5,15,35.8,84.8,35.8,170.5v1942
	c0,85.7,69.8,155.5,155.5,155.5h782c85.7,0,155.5-69.8,155.5-155.5v-1942C1128.8,84.8,1059,15,973.3,15H191.3z"/>
<path class="st5" d="M967.9,2154.2H196.6c-70-0.1-126.8-56.8-126.8-126.8V186.7c0.1-70,56.8-126.8,126.8-126.8h88.3
	c12.7,0,23,10.3,23,23c0,33.1,26.9,60,60,60h428.6c33.1,0,60-26.9,60-60c0-12.7,10.3-23,23-23h88.5c70,0.1,126.8,56.8,126.9,126.8
	v1840.7C1094.7,2097.4,1037.9,2154.1,967.9,2154.2z M196.6,69.8c-64.5,0.1-116.8,52.3-116.8,116.8v1840.7
	c0.1,64.5,52.3,116.8,116.8,116.8h771.3c64.5-0.1,116.8-52.3,116.9-116.8V186.7c-0.1-64.5-52.3-116.8-116.9-116.8h-88.5
	c-7.2,0-13,5.8-13,13c0,38.6-31.4,70-70,70H367.9c-38.6,0-70-31.4-70-70c0-7.2-5.8-13-13-13L196.6,69.8z"/>
<path class="st5" d="M7.5,390.6c-4.1,0-7.5-3.4-7.5-7.5v-68c0-4.1,3.4-7.5,7.5-7.5s7.5,3.4,7.5,7.5v68
	C15,387.2,11.6,390.6,7.5,390.6z"/>
<path class="st5" d="M7.5,635.2c-4.1,0-7.5-3.4-7.5-7.5v-150c0-4.1,3.4-7.5,7.5-7.5c4.1,0,7.5,3.4,7.5,7.5v150
	C15,631.8,11.6,635.2,7.5,635.2z"/>
<path class="st5" d="M7.5,839.2c-4.1,0-7.5-3.4-7.5-7.5v-142c0-4.1,3.4-7.5,7.5-7.5s7.5,3.4,7.5,7.5v142
	C15,835.8,11.6,839.2,7.5,839.2z"/>
<line class="st8" x1="1164.9" y1="535.7" x2="1164.9" y2="779.7"/>
<path class="st7" d="M840.5,2212.4H324c-2.8,0-5-2.2-5-5s2.2-5,5-5h516.5c2.8,0,5,2.2,5,5S843.3,2212.4,840.5,2212.4z"/>
<path class="st9" d="M300.7,307.5c11.2,0,21.2,3.6,29.4,11.9c0.3,0.3,0.7,0.6,1.1,0.6c0.3,0,0.6-0.2,0.9-0.4l1-0.1l0.8-0.3
	c0,0,0.1,0,0.1,0c0.1,0,0.1,0,0.2-0.1c1.8-0.1,3.6-0.7,5.2-1.5l1-0.2c2.6-0.6,5.1-1.6,7.4-2.9c2.9-0.9,5.4-2.7,8.5-4.1
	c-2.9,9.1-8.5,15.8-15.7,21.4c7.3-0.8,14.5-2.7,21.2-5.8c-3.8,6.1-7.8,11.1-12.9,14.9s-7.2,8-7.3,14.7c-0.4,21.4-7,41.2-18.5,59.4
	c-8.5,13.4-19.6,24.8-32.8,33.5c-7.6,4.9-15.8,8.9-24.3,11.9c-0.8,0.1-1.7,0.3-2.5,0.6c-9.4,3-19.1,4.7-28.9,5.1
	c-2.3,0.1-4.7,0.2-7,0.1c-4.9,0-9.7-0.2-14.5-0.6l-1-0.1c-4.3-0.9-8.7-1.9-13-2.8c-5.3-1.2-10.2-3.5-15.4-4.9
	c-1.4-1.1-3-1.8-4.6-2.1c-0.4-0.8-1.4-0.8-2.1-1.3c-2.9-1.9-6.5-2.6-8.8-5.4c1.1,0,2.2,0,3.3,0h0.7c1.5,0,3,0.1,4.6,0.1
	c1.3,0,2.7-0.1,4-0.5c16.3-0.6,30.7-6.4,44.3-16.4c-4-0.8-7.3-1.1-10.6-2.2c-12.2-3.9-20.4-11.9-25.4-23.6c-0.8-1.9-0.9-2.5,0.2-2.5
	c0.6,0,1.1,0.1,1.7,0.2c1.6,0.3,3.2,0.4,4.9,0.4c3.2,0,6.4-0.5,9.5-1.3c-3.5-1.4-6.6-2.3-9.3-3.8c-13.3-7.2-20.5-18.4-21.6-33.5
	c-0.1-1.4,0.1-2,0.8-2c0.6,0.1,1.1,0.3,1.6,0.5c4.7,2.3,9.8,3.6,15.1,3.8c-2.4-2.2-4.4-3.9-6.3-5.8c-11.6-11.6-14.2-30.6-6.9-45.5
	c0.5-1,0.8-1.6,1.4-1.6s0.9,0.3,1.6,1.1c18.1,20.9,40.7,33.8,67.9,38.7c3.7,0.7,7.5,0.9,11.3,1.2h0.5c0.8,0,1.3-0.3,1.1-1.5
	c-2.2-12,0.7-22.9,8.1-32.6l8.2-7.9c5.1-3.1,10.7-5.3,16.5-6.7l2.6-0.2C298.6,307.5,299.6,307.5,300.7,307.5 M356.3,310.4
	L356.3,310.4 M300.7,297.5c-1.3,0-2.6,0-3.9,0.1h-0.3l-2.6,0.2c-0.4,0-0.9,0.1-1.3,0.2c-6.8,1.6-13.3,4.2-19.3,7.8
	c-0.7,0.4-1.4,0.9-2,1.5l-8.2,7.9c-0.4,0.4-0.7,0.7-1,1.1c-6.9,9-10.5,18.7-10.9,29.1l-0.4-0.1c-25.1-4.6-45.4-16.2-62.1-35.4v-0.1
	c-2.6-3-5.7-4.5-9.1-4.5c-2.6,0-7.4,0.9-10.4,7.2c-6.6,13.6-6.8,29.4-0.7,43.2c-0.6,0.4-1.1,0.9-1.6,1.4c-2.3,2.5-3.4,5.9-3,9.3v0.1
	c0.9,13.4,6.1,24.7,15.1,33.2c-2.2,4.5-0.3,8.7,0.4,10.5c4.5,10.8,11.4,18.8,20.5,24.3c-6.4,2.4-13.1,3.8-19.9,4
	c-0.8,0-1.5,0.1-2.3,0.4c-0.5,0.1-0.9,0.1-1.4,0.1c-0.6,0-1.2,0-1.9,0s-1.7-0.1-2.7-0.1h-1h-0.1c-0.9,0-1.8,0-2.9,0
	c-5.5,0-10,4.5-10,10c0,2.3,0.8,4.6,2.3,6.4c2.5,2.8,5.5,5,9,6.4c0.8,0.4,1.6,0.7,2,1c0.4,0.3,0.9,0.5,1.4,0.8c1.3,1,2.8,1.7,4.4,2
	c0.1,0,0.2,0.1,0.3,0.1c1,0.8,2.2,1.4,3.5,1.7c1.9,0.5,4,1.3,6.1,2c3.2,1.2,6.5,2.2,9.8,3c4.4,1,8.8,1.9,13,2.8h0.1
	c0.4,0.1,0.8,0.1,1.2,0.2l1,0.1c5.1,0.5,10.3,0.7,15.4,0.7c2.5,0,4.9,0,7.4-0.2c10.7-0.4,21.3-2.3,31.5-5.5h0.1
	c0.1,0,0.5-0.1,0.7-0.1l0.7-0.1c0.5-0.1,0.9-0.2,1.4-0.4c9.3-3.2,18.1-7.6,26.4-12.9c14.4-9.5,26.6-21.9,35.8-36.5
	c12.9-20.1,19.6-41.9,20.1-64.5c0.1-3.9,0.8-5,3.3-6.9c5.6-4.2,10.5-9.8,15.4-17.6c2.9-4.7,1.5-10.9-3.2-13.8
	c-0.7-0.5-1.5-0.8-2.3-1.1c0.4-0.9,0.7-1.8,1-2.8c1.8-5.2-0.9-10.9-6.1-12.8c-1-0.4-2.1-0.5-3.1-0.6h-0.8c-1.3,0.1-2.6,0.4-3.8,1
	c-1.5,0.7-2.7,1.4-3.9,2c-1.1,0.6-2.2,1.2-3.4,1.6c-0.8,0.2-1.5,0.6-2.2,1c-1.4,0.8-3,1.4-4.5,1.7l-0.7,0.2
	c-0.9,0.2-1.7,0.5-2.5,0.9c-0.3,0.2-0.7,0.3-1,0.3C324.4,301.3,313.3,297.4,300.7,297.5L300.7,297.5z"/>
<path class="st10" d="M916.3,523.7h-0.6c-7.3-0.2-14.8-0.1-22.1-0.1c-4.1,0-8.3,0-12.4,0h0c-3.7,0-6.7,0-9-2.3s-2.4-5.4-2.4-9v-98.6
	c0-0.7,0-1.5,0-2.2c-0.6,0-1.3,0-1.9,0.1h-0.2c-2.5,0.1-5,0.1-7.4,0.1c-1.5,0-3.1,0-4.6,0c-2.4,0.2-4.8-0.7-6.6-2.3
	c-1.7-1.9-2.6-4.4-2.4-6.9c0.2-10.1,0.2-20.3,0-30.4c-0.2-2.5,0.7-5,2.4-6.9c2.2-2.2,5.1-2.4,7.1-2.4s3.8,0,5.8,0
	c2.6,0,5.2,0,7.8,0.1c-0.4-9.7-0.3-19.4,0.5-29.1c2.1-25.3,20.5-42.7,45.7-43.3c5.4-0.1,10.8-0.2,16.2-0.3c6-0.1,12.2-0.1,18.3-0.3
	c2.5-0.1,5.8,0.1,8.3,2.6c2.8,2.8,2.6,6.8,2.6,8.1c-0.3,9.6-0.2,19.3,0,28.3c0,1.1,0.1,4.7-2.4,7.1s-5.9,2.3-7,2.2
	c-5.4-0.2-10.9-0.1-16,0c-7,0.1-8.7,1.7-9.6,8.8c-0.3,3.1-0.4,6.1-0.3,9.2c0,2,0,4.1,0,6.3c3.6,0,7.2,0,10.7,0c4.6,0,9.3,0,13.9-0.1
	c1.5,0,5.2-0.2,7.8,2.6s2.1,6.4,2,7.6c-1.2,10.6-2.2,21.3-3,31.3c-0.3,3.7-2.2,8-9.8,8c-2.5,0-5,0-7.6,0c-4.4,0-8.9,0-13.3-0.1
	c0.2,12.6,0.1,25.3,0.1,37.6c0,3.5,0,7.1,0,10.6l0.2,0.1v2.1c0,4.6,0,9.2,0,13.7c0,12-0.1,24.3,0.1,36.5c0,2.5-0.2,6-2.8,8.5
	C922,523.3,918.8,523.7,916.3,523.7z M901.8,513.5c4.7,0,9.4,0,14.2,0.1c0.4,0,0.8,0,1.2,0c0-0.4,0-0.7,0-1.1
	c-0.2-12.2-0.2-24.6-0.1-36.6c0-3.9,0-7.8,0-11.6l-0.2-0.1V462c0-4.2,0-8.4,0-12.7c0-12.5,0-25.4-0.1-38c-0.1-2,0.1-5.1,2.4-7.3
	s5.2-2.4,7.5-2.3c4.4,0.2,8.9,0.1,13.4,0.1c2.5,0,5,0,7.5,0c0.8-9.5,1.7-19.5,2.8-29.5c-4.6,0.1-9.2,0.1-13.6,0.1
	c-3.8,0-7.7,0-11.6,0c-1.1,0-4.6,0.1-7-2.4c-1.7-1.8-2.4-4.3-2.2-6.7c0.1-2.3,0.1-4.6,0.1-7c-0.1-3.5,0-7.1,0.4-10.6
	c1.5-11.9,7.5-17.4,19.3-17.5c4.9-0.1,10.2-0.2,15.6,0c-0.1-8.9-0.2-18.4,0.1-28c0-0.1,0-0.2,0-0.3H951c-6.2,0.2-12.5,0.3-18.5,0.4
	c-5.3,0.1-10.7,0.1-16,0.3c-20.1,0.5-34.2,13.9-35.9,34.1c-0.7,9.4-0.8,18.9-0.4,28.4c0,1.3,0.2,5-2.5,7.7s-6.6,2.3-7.8,2.2
	c-2.3-0.2-4.8-0.1-7.4-0.1c-1.7,0-3.5,0-5.4,0c0.1,9.6,0.1,19.3,0,28.8h3.6c2.4,0,4.6,0,6.9,0h0.1c4.5-0.2,7.4-0.3,9.8,2
	s2.5,5.4,2.5,10.1v98.6c0,0.3,0,0.8,0,1.3h1.5c4.1,0,8.2,0,12.3,0L901.8,513.5z"/>
<path class="st11" d="M328.3,880.4c-2.4,0.2-4.8-0.6-6.5-2.3c-2.1-2.1-2.4-4.9-2.4-7.1c0.1-21.4,0.1-43.3,0-64.4
	c0.1-4.4-0.4-8.8-1.4-13.2c-1.7-7.1-5.4-10.6-11.9-11.4c-6.3-0.7-14.6,0.1-18.6,8.1c-3.1,6.1-3.3,13.1-3.3,19.8
	c-0.1,23.1-0.1,42.5,0.1,60.9c0,2.2-0.3,5-2.4,7.1s-5,2.3-7,2.3c-10.8-0.2-21.9-0.1-32.5-0.1c-7.3,0-8.9-4.6-8.9-8.5
	c0.1-41.2,0.1-82.9,0-124c0-7.5,5.3-8.6,8.4-8.6c9.6,0.1,20.8,0.2,32.1,0c2.4-0.2,4.8,0.6,6.5,2.2c2.3,2.3,2.2,5.5,2.2,6.7
	c0,0.5,0,0.9,0,1.4c16.5-14.5,38.4-17.9,59.5-8.9c11,4.7,18.8,13.3,23.2,25.4c4.3,12,4.9,24.2,5,35.5c-0.2,28-0.2,49.4-0.1,69.3l0,0
	c0,2-0.3,5-2.5,7.2s-5,2.3-7.3,2.3c-10.5-0.2-21.1-0.2-31.6,0L328.3,880.4z M344.5,870.2c5.2,0,10.4,0,15.5,0.2
	c-0.1-19.8-0.1-41,0.1-68.8c-0.1-10.5-0.6-21.6-4.4-32.2c-3.4-9.5-9.2-16-17.7-19.6c-21.1-9.1-42.3-3.3-56.7,15.3
	c-1.7,2.2-4.8,2.7-7,1c-1.3-0.9-2-2.4-2-4c0-1.4,0-2.8,0-4.1c0-3.2,0-6,0-8.8c-10.3,0.2-20.4,0.1-29.2,0c0.1,40.2,0.1,80.9,0,121
	c10.1-0.1,20.5-0.1,30.8,0.1c-0.1-18.3-0.1-37.5-0.1-60.3c0-7.9,0.4-16.3,4.5-24.3c5.1-10,15.6-14.9,28.7-13.5
	c10.7,1.3,17.8,7.8,20.5,19c1.2,5.1,1.7,10.3,1.7,15.5c0.1,20.8,0.1,42.5,0,63.7C334.4,870.3,339.5,870.2,344.5,870.2L344.5,870.2z"
	/>
<path class="st11" d="M208.7,880.4h-0.4c-11.5-0.2-23.1-0.1-32.9,0l0,0c-2.4,0.2-4.7-0.6-6.4-2.3c-1.5-1.7-2.3-3.9-2.1-6.2
	c0.1-41.2,0.1-83,0-124.3c0-7.5,5.7-8.3,8.1-8.3c10.2,0.1,22.2,0.2,34.2,0c2.3-0.2,4.5,0.6,6.2,2.1c2.2,2.1,2.2,4.9,2.1,6.6v62.1
	c0,8.1,0,16.2,0,24.3c0,12,0,24.3,0.1,36.5l0,0c0,1.6,0,4.8-2.4,7.2C213.4,879.7,211.1,880.5,208.7,880.4z M193.4,870.3
	c4.6,0,9.4,0,14.2,0.1c-0.1-12-0.1-24.1-0.1-35.9c0-8.1,0-16.2,0-24.3v-60.8c-10.8,0.2-21.4,0.1-30.7,0c0.1,40.1,0.1,80.8,0,121
	C182,870.3,187.6,870.3,193.4,870.3z"/>
<path class="st11" d="M192.4,731.4H192c-7.6-0.1-14.8-3.1-20.1-8.5c-5.3-5.4-8.3-12.7-8.2-20.3c0.2-15.6,12.8-28.2,28.4-28.3h0.2
	c15.7,0,28.4,12.7,28.6,28.4v0.4C220.7,718.8,208,731.4,192.4,731.4L192.4,731.4z M192.3,684.3h-0.1c-10.2,0.1-18.4,8.3-18.5,18.4
	c-0.1,4.9,1.8,9.7,5.3,13.2c3.5,3.5,8.2,5.5,13.1,5.5h0.2c10.2,0,18.5-8.3,18.5-18.4v-0.3C210.7,692.5,202.4,684.3,192.3,684.3z
	 M215.8,703L215.8,703z"/>
<path class="st12" d="M187.2,254.5h155.3c30.2,0,54.8,24.5,54.8,54.8v155.2c0,30.2-24.5,54.8-54.8,54.8H187.2
	c-30.2,0-54.8-24.5-54.8-54.8V309.2C132.5,279,157,254.5,187.2,254.5z"/>
<path class="st10" d="M957.9,524.2H802.7c-33,0-59.7-26.8-59.8-59.8V309.2c0-33,26.8-59.7,59.8-59.8h155.3c33,0,59.7,26.8,59.8,59.8
	v155.3C1017.6,497.5,990.9,524.2,957.9,524.2z M802.7,259.5c-27.5,0-49.7,22.3-49.8,49.8v155.3c0,27.5,22.3,49.7,49.8,49.7h155.3
	c27.5,0,49.7-22.3,49.8-49.8V309.2c0-27.5-22.3-49.7-49.8-49.8H802.7z"/>
<path class="st11" d="M342.5,917H187.2c-33,0-59.7-26.8-59.8-59.8V702c0-33,26.8-59.7,59.8-59.8h155.3c33,0,59.7,26.8,59.8,59.8
	v155.3C402.2,890.3,375.5,917,342.5,917z M187.2,652.3c-27.5,0-49.7,22.3-49.8,49.8v155.3c0,27.5,22.3,49.7,49.8,49.8h155.3
	c27.5,0,49.7-22.3,49.8-49.8V702c0-27.5-22.3-49.7-49.8-49.8H187.2z"/>
<path class="st13" d="M533.5,882.2c-0.7,0-1.4-0.1-2.1-0.3c-2.6-0.8-4.1-2.9-4.5-6v-0.2c-2.7-18.2-1.9-34.9,2.3-51
	c3.1-11.8,5.9-23.9,8.6-35.6c1.2-5.3,2.5-10.7,3.7-16.1c0-0.1,0-0.3,0-0.5l-0.1-0.2c-4.3-12.1-4.3-23.7,0-34.3
	c2.9-7.1,7.4-12.2,13.5-15.2c6.7-3.3,13.9-3.3,19.8,0.1s9.6,9.6,10.2,17c0.5,6.2-0.9,11.9-2.4,17.2c-1.5,5.1-3,10.3-4.5,15.3
	c-0.9,2.9-1.7,5.8-2.5,8.6c-1.9,6.2-1,10.6,2.8,14.1c4.2,3.9,9.3,4.6,15.9,2.4c5.1-1.8,9.3-5.4,13.3-11.5c5.3-8.1,8.5-17.6,9.9-29.9
	c0.8-6.8,1.3-14.1-0.2-21.2c-2.9-13-10.4-21.6-22.2-25.5c-20-6.6-37.5-3.6-52.1,8.8c-13,11.1-18.3,25.8-15.8,43.8
	c0.6,4.2,2.5,8.1,5.3,11.3c3.2,3.2,4.2,8,2.6,12.3c-0.4,1.3-0.8,2.7-1.1,4.1c-0.2,0.9-0.4,1.8-0.7,2.7c-0.4,1.3-1.4,5.4-5.1,7.2
	s-7.5,0.1-8.7-0.5c-9.9-4.5-17.1-12.5-20.8-23.3c-8.3-24-4.3-46.8,11.8-67.6c13.2-16.9,31.8-27.1,55.3-30.2
	c18.2-2.4,34.4-0.3,49.3,6.7c27.6,12.9,43.1,39.8,40.4,70.2c-1.6,17.6-5.8,31.3-13.3,43.2c-10.7,17.1-25.5,27-44.1,29.5
	c-10.3,1.3-19.1,0-27-4.3c-2-1-3.9-2.3-5.6-3.7c-1.7,6.6-3.5,13.6-5.3,20.4c-4.2,15.6-13,28.6-21,39.2
	C537.8,881.1,535.8,882.2,533.5,882.2z M550.7,768.9c0.8,2,1,4.2,0.5,6.4c-1.3,5.4-2.5,10.8-3.7,16.1c-2.7,11.8-5.5,24-8.6,35.9
	c-3.3,12.9-4.3,26.2-3,39.4c5.9-8.4,11.6-18.2,14.5-29.1c2.6-9.9,5.3-20.2,7.6-29.3c0.7-2.7,3.4-4.3,6.1-3.6c1.2,0.3,2.2,1,2.9,2.1
	c2.1,3.3,5.1,6,8.6,7.8c6,3.2,12.9,4.3,21,3.2c15.7-2.1,27.8-10.3,37-24.9c6.6-10.5,10.4-22.8,11.8-38.8
	c2.3-26.1-10.9-49.2-34.6-60.3c-13.2-6.1-27.5-8-43.8-5.8c-21.1,2.8-37,11.4-48.7,26.4c-14,18-17.4,37.5-10.3,58.2
	c2.8,8.3,8,14.1,15.4,17.5l0,0v-0.1c0.2-0.8,0.4-1.7,0.6-2.5c0.4-1.6,0.8-3.3,1.3-5c0-0.1,0.1-0.2,0.1-0.3c0.2-0.6,0.1-1.3-0.4-1.8
	l-0.2-0.2c-4.2-4.6-7-10.5-7.9-16.7c-3-21.3,3.7-39.5,19.2-52.8c17.5-14.8,38.2-18.4,61.7-10.7c15.2,5,25.2,16.4,28.8,32.8
	c1.9,8.6,1.3,17.3,0.4,24.5c-1.6,13.7-5.4,24.8-11.5,34.2c-5.2,8-11.3,13-18.5,15.5c-10,3.4-18.9,1.8-25.8-4.5
	c-6.8-6.2-8.7-14.3-5.7-24.3c0.8-2.9,1.7-5.8,2.5-8.6c1.5-5,3-10.1,4.5-15.2c1.3-4.4,2.4-9.1,2-13.7c-0.3-4.1-2.2-7.4-5.1-9.1
	s-6.7-1.6-10.4,0.2c-3.9,1.9-6.8,5.2-8.7,10C547.2,750.2,547.2,759,550.7,768.9L550.7,768.9z"/>
<path class="st13" d="M652.6,917H497.3c-33,0-59.7-26.8-59.8-59.8V702c0-33,26.8-59.7,59.8-59.8h155.3c33,0,59.7,26.8,59.8,59.8
	v155.3C712.3,890.3,685.6,917,652.6,917z M497.3,652.3c-27.5,0-49.7,22.3-49.8,49.8v155.3c0,27.5,22.3,49.7,49.8,49.8h155.3
	c27.5,0,49.7-22.3,49.8-49.8V702c0-27.5-22.3-49.7-49.8-49.8H497.3z"/>
<path class="st1" d="M957.9,917H802.7c-33,0-59.7-26.8-59.8-59.8V702c0-33,26.8-59.7,59.8-59.8h155.3c33,0,59.7,26.8,59.8,59.8
	v155.3C1017.6,890.3,990.9,917,957.9,917z M802.7,652.3c-27.5,0-49.7,22.3-49.8,49.8v155.3c0,27.5,22.3,49.7,49.8,49.8h155.3
	c27.5,0,49.7-22.3,49.8-49.8V702c0-27.5-22.3-49.7-49.8-49.8H802.7z"/>
<g>
	<defs>
		<path id="SVGID_3_" d="M667.8,320.3c-3-6.2-7.1-11.8-12.2-16.5c-4.5-4.2-9.6-7.7-15.3-10.3c-7.1-3.3-14.8-5-22.6-5
			c-9.7,0-20.2,0-32.1,0l0,0c-12.1,0-24.1,0-36.1,0h-13.8c-3.1,0-6.4,0.2-9.9,0.5c-6,0.6-11.9,2.3-17.4,5c-6.2,3-11.8,7.1-16.6,12.2
			c-4.2,4.5-7.6,9.6-10.2,15.1c-3.4,7.2-5.1,15-5.1,23c-0.1,19.8-0.1,39.9,0,59.4c0,7.9,0,15.8,0,23.7c0,3.9,0.3,7.9,0.9,11.7
			c1.1,6.3,3.3,12.3,6.4,17.8c3.1,5.5,7.2,10.5,12,14.6c4.9,4.3,10.6,7.7,16.7,10.1c6.7,2.5,13.9,3.8,21.1,3.7h54.5
			c8.4,0,17.5,0,26.6-0.1c3.3,0,6.6-0.2,9.9-0.6c6-0.7,11.7-2.5,17.1-5.2c6-3,11.4-7,16-11.9c4.2-4.4,7.6-9.5,10.2-15
			c3.5-7.3,5.2-15.3,5.2-23.4c0-27.1,0-54.5,0-81.6c0-3.5-0.3-6.9-0.5-9.7C672.2,331.7,670.5,325.7,667.8,320.3z M663.6,430
			c0,7.1-1.7,14-4.9,20.3c-2.3,4.7-5.4,8.9-9.2,12.4c-6,5.7-13.4,9.7-21.5,11.5c-3.4,0.8-7,1.1-10.5,1.1h-43.4
			c-17.3,0-30.5,0-42.8,0c-10.2,0-19.7-3.6-28.3-10.5c-4.9-4-8.9-9-11.8-14.7c-2.2-4.3-3.6-8.9-4.3-13.6c-0.3-2.3-0.5-4.6-0.5-6.8
			c0-14.3,0-28.9,0-42.9v-8.8c0-11.6,0-23.5,0.1-35.3c0.1-6.3,1.6-12.5,4.3-18.2c2.3-5.1,5.6-9.6,9.6-13.5
			c5.3-5.1,11.8-8.9,18.9-10.9c4.3-1.2,8.8-1.8,13.2-1.8h0.4c28.6,0,57.8,0,86,0c6.2,0.1,12.2,1.4,17.8,4c5.3,2.4,10.1,5.7,14.1,9.9
			c5,5.3,8.7,11.8,10.8,18.8c1.3,4.5,1.9,9.1,1.9,13.7C663.6,373.1,663.6,402,663.6,430z M642,329.4c-0.2,5.2-4.4,9.3-9.6,9.3
			c-5.2-0.1-9.4-4.4-9.3-9.6c0.1-5.2,4.4-9.4,9.6-9.3C638,319.9,642.1,324.2,642,329.4z M523.5,388.5c0.9,27.8,23.8,49.9,51.6,49.8
			h1.6c28.4-0.9,50.6-24.7,49.7-53.1c-0.9-27.8-23.6-49.8-51.4-49.9h-0.2c-13.9,0.1-27.2,5.7-36.8,15.6
			C528.3,361,523,374.6,523.5,388.5L523.5,388.5z M575.1,344.8L575.1,344.8c23.2,0.1,41.9,18.9,41.9,42.1v0.1
			c-0.1,23-18.7,41.7-41.7,41.8c-0.2,0-0.4,0-0.5,0l0,0c-23.2-0.1-41.9-19.1-41.7-42.3c0.1-23.2,19.1-41.9,42.3-41.7L575.1,344.8z
			 M652.5,524.2H497.3c-33,0-59.7-26.8-59.8-59.8V309.2c0-33,26.8-59.7,59.8-59.8h155.3c33,0,59.7,26.8,59.8,59.8v155.3
			C712.3,497.5,685.6,524.2,652.5,524.2L652.5,524.2z M497.3,259.5c-27.5,0-49.7,22.3-49.8,49.8v155.3c0,27.5,22.3,49.7,49.8,49.7
			h155.3c27.5,0,49.7-22.3,49.8-49.8V309.2c0-27.5-22.3-49.7-49.8-49.8H497.3z"/>
	</defs>
	<clipPath id="SVGID_4_">
		<use xlink:href="#SVGID_3_"  style="overflow:visible;"/>
	</clipPath>
	<g class="st14">
		
			<linearGradient id="SVGID_5_" gradientUnits="userSpaceOnUse" x1="486.7567" y1="3686.3743" x2="663.1634" y2="3991.9258" gradientTransform="matrix(1 0 0 -1 0 4226)">
			<stop  offset="0" style="stop-color:#FCB604"/>
			<stop  offset="0.45" style="stop-color:#D06A63"/>
			<stop  offset="1" style="stop-color:#960ADF"/>
		</linearGradient>
		<circle class="st15" cx="575" cy="386.9" r="176.4"/>
	</g>
</g>
<path d="M259.5,1280.6v31.8H155.6v-124.9h101.6v31.8H197v14.6h52.8v30.3H197v16.4H259.5z"/>
<path d="M383.1,1214.8l-39.3,97.6h-41.8l-39.3-97.6h41.4l19.6,52.3l21.1-52.3H383.1z"/>
<path d="M490,1273h-67.8c2.9,7.5,9.6,11.4,19.6,11.4c8.9,0,13.9-2.3,20.4-7.1l21,21.2c-9.5,10.3-23.2,15.7-42.6,15.7
	c-35.9,0-59.1-21.6-59.1-50.7c0-29.6,23.7-50.5,55.3-50.5c28.9,0,53.7,17.5,53.7,50.5C490.6,1266.3,490.2,1270.1,490,1273z
	 M421.5,1253.5h31.4c-1.6-8.2-7.5-13-15.7-13C428.8,1240.5,423.1,1245.3,421.5,1253.5L421.5,1253.5z"/>
<path d="M573.2,1213v35.7c-2.9-0.5-5.9-0.7-8.9-0.7c-12.1,0-20.7,5.5-20.7,21.1v43.4h-40.3v-97.6h38.4v10.5
	C548.8,1217.1,559.7,1213,573.2,1213z"/>
<path d="M696,1214.8l-40.2,99.6c-10.7,26.8-26.4,34.4-47.1,34.4c-10.7,0-23-3.4-29.6-8.7l13.4-27.7c4.1,3.2,9.1,5,14.3,5.2
	c4.8,0,7.8-1.4,10-3.9l-41-98.9h41.4l20.2,52.3l20.5-52.3L696,1214.8z"/>
<path d="M155.6,1401.6h42.1v124.9h-42.1V1401.6z"/>
<path d="M324.6,1470.9v55.7h-40.3v-48.7c0-12.1-4.6-16.8-12-16.8c-8.2,0-15.2,5.2-15.2,19.6v45.9h-40.3v-97.6h38.4v9.6
	c7.7-7.7,18-11.4,29.5-11.4C307.1,1427.2,324.6,1440.2,324.6,1470.9z"/>
<path d="M451.9,1394.1v132.4h-38.4v-8c-5.9,6.6-14.6,9.8-26.8,9.8c-25.5,0-47.1-19.3-47.1-50.7s21.6-50.5,47.1-50.5
	c10.7,0,18.9,2.7,24.8,8.4v-41.4L451.9,1394.1z M412.2,1477.7c0-12.7-7-19.1-15.9-19.1s-15.9,6.4-15.9,19.1s7,19.3,15.9,19.3
	S412.2,1490.3,412.2,1477.7z"/>
<path d="M576.4,1428.9v97.6H538v-9.3c-7.3,7.5-17.1,11.1-27.7,11.1c-23.4,0-41-13.7-41-45.5v-53.9h40.3v46.9
	c0,13.9,4.8,18.6,12.7,18.6c7,0,13.8-5.2,13.8-19.6v-45.9H576.4z"/>
<path d="M588.2,1518.7l11.1-26.6c9.3,5.5,22.5,8.7,34.1,8.7c9.8,0,12.5-1.8,12.5-4.6c0-10-56.2,3.4-56.2-35.7
	c0-18.4,17.1-33.4,50-33.4c14.3,0,29.5,2.7,39.8,8l-11.1,26.6c-8.6-4.7-18.3-7.2-28.2-7.1c-10.3,0-13.2,2.3-13.2,4.6
	c0,10.2,56-3,56,36c0,17.7-16.6,33-50.5,33C615.7,1528.3,598.2,1524.4,588.2,1518.7z"/>
<path d="M767,1523.2c-6.2,3.6-15.3,5.2-24.8,5.2c-27,0-42.7-12.7-42.7-39.6v-25h-13.4v-29.4h13.4V1407h40.3v27.3h20v29.4h-20v24.6
	c0,6.1,3.6,9.5,8.4,9.5c3.2,0,6.4-0.9,9.1-2.7L767,1523.2z"/>
<path d="M847.1,1427.2v35.7c-2.9-0.5-5.9-0.7-8.9-0.7c-12.1,0-20.7,5.5-20.7,21.1v43.4h-40.3v-97.6h38.4v10.5
	C822.7,1431.3,833.6,1427.2,847.1,1427.2z"/>
<path d="M969.9,1428.9l-40.2,99.6c-10.7,26.8-26.4,34.4-47.1,34.4c-10.7,0-23-3.4-29.6-8.7l13.4-27.7c4.1,3.2,9.1,5,14.3,5.2
	c4.8,0,7.8-1.4,10-3.9l-41-98.9H891l20.2,52.3l20.5-52.3L969.9,1428.9z"/>
<path d="M150.6,1678.2c0-38.4,29.4-65.3,69.6-65.3c24.4,0,43.7,8.9,56,25l-26.6,23.7c-7.3-9.3-16.1-14.6-27.3-14.6
	c-17.5,0-29.3,12.1-29.3,31.2s11.8,31.2,29.3,31.2c11.2,0,20-5.3,27.3-14.6l26.6,23.7c-12.3,16.1-31.6,25-56,25
	C180.1,1743.6,150.6,1716.6,150.6,1678.2z"/>
<path d="M279.3,1691.8c0-29.6,23.7-50.5,56.7-50.5c33.2,0,56.8,20.9,56.8,50.5s-23.5,50.7-56.8,50.7
	C303,1742.5,279.3,1721.4,279.3,1691.8z M351.9,1691.8c0-12.7-7-19.1-15.9-19.1s-15.9,6.4-15.9,19.1s7,19.3,15.9,19.3
	S351.9,1704.5,351.9,1691.8z"/>
<path d="M511.5,1643.1l-39.3,97.6h-41.8l-39.3-97.6h41.4l19.6,52.3l21.1-52.3H511.5z"/>
<path d="M618.4,1701.3h-67.8c2.9,7.5,9.6,11.4,19.6,11.4c8.9,0,13.9-2.3,20.3-7.1l21.1,21.2c-9.5,10.3-23.2,15.7-42.7,15.7
	c-35.9,0-59.1-21.6-59.1-50.7c0-29.6,23.7-50.5,55.3-50.5c28.9,0,53.7,17.5,53.7,50.5C618.9,1694.7,618.5,1698.4,618.4,1701.3z
	 M549.8,1681.8h31.4c-1.6-8.2-7.5-13-15.7-13C557.2,1668.8,551.4,1673.6,549.8,1681.8L549.8,1681.8z"/>
<path d="M701.5,1641.3v35.7c-2.9-0.5-5.9-0.7-8.9-0.7c-12.1,0-20.7,5.5-20.7,21.1v43.4h-40.3v-97.6h38.4v10.5
	C677.1,1645.4,688,1641.3,701.5,1641.3z"/>
<path d="M815.4,1701.3h-67.8c2.8,7.5,9.6,11.4,19.6,11.4c8.9,0,13.9-2.3,20.3-7.1l21.1,21.2c-9.5,10.3-23.2,15.7-42.7,15.7
	c-35.9,0-59.1-21.6-59.1-50.7c0-29.6,23.7-50.5,55.3-50.5c28.9,0,53.7,17.5,53.7,50.5C815.9,1694.7,815.6,1698.4,815.4,1701.3z
	 M746.8,1681.8h31.4c-1.6-8.2-7.5-13-15.7-13C754.2,1668.8,748.5,1673.6,746.8,1681.8z"/>
<path d="M936.5,1608.3v132.4h-38.4v-8c-5.9,6.6-14.6,9.8-26.8,9.8c-25.5,0-47.1-19.3-47.1-50.7s21.6-50.5,47.1-50.5
	c10.7,0,18.9,2.7,24.8,8.4v-41.4L936.5,1608.3z M896.9,1691.8c0-12.7-7-19.1-15.9-19.1s-15.9,6.4-15.9,19.1s7,19.3,15.9,19.3
	S896.9,1704.5,896.9,1691.8z"/>
<path d="M949,1719.3c0-13.8,10.2-22.8,23.5-22.8s23.6,9.1,23.6,22.8c0,13.6-10.2,23.2-23.6,23.2S949,1732.8,949,1719.3z"/>
</svg>
