<svg xmlns="http://www.w3.org/2000/svg" xmlns:xlink="http://www.w3.org/1999/xlink" viewBox="0 0 500 500"><defs><style>.cls-1{fill:#d5ab95;}.cls-2{fill:#54bbef;}.cls-3,.cls-6{fill:#fff;}.cls-3,.cls-4,.cls-5{fill-rule:evenodd;}.cls-4{fill:#d9e8f3;}.cls-5{fill:#edf5fb;}.cls-7{fill:#4398ba;}.cls-8{fill:#dc5758;}.cls-9{fill:#777;}.cls-10{fill:#1e1e1e;}.cls-11{fill:#222221;}.cls-12{fill:#935950;}.cls-13{fill:#ed7a7a;}.cls-14{fill:#ff8585;}.cls-15,.cls-23,.cls-30,.cls-35,.cls-37{fill:none;}.cls-15{stroke:#af2b4e;}.cls-15,.cls-23,.cls-30,.cls-35{stroke-miterlimit:10;}.cls-15,.cls-23{stroke-width:0.74px;}.cls-16{fill:#77433d;}.cls-17{fill:#1f2326;}.cls-18{fill:#cc484e;}.cls-19{fill:#4429b7;}.cls-20{fill:#e2d28d;}.cls-21{fill:#050006;}.cls-22{fill:#232322;}.cls-23{stroke:#cc484e;}.cls-24{fill:#5833c5;}.cls-25{fill:#cd9380;}.cls-26{fill:#96544a;}.cls-27{fill:#0b090a;}.cls-28{fill:#b26554;}.cls-29{fill:#ffd16c;}.cls-30{stroke:#4228b2;}.cls-30,.cls-35{stroke-width:0.75px;}.cls-31{clip-path:url(#clip-path);}.cls-32{fill:#b59e5d;}.cls-33{fill:#24263a;}.cls-34{fill:#fff87d;}.cls-35{stroke:#afaf28;}.cls-36{fill:#141934;}.cls-37{stroke:#141934;stroke-linecap:round;stroke-linejoin:round;stroke-width:1.3px;}</style><clipPath id="clip-path"><path class="cls-1" d="M322,95.49a11.52,11.52,0,1,0,4.35-15.7A11.52,11.52,0,0,0,322,95.49Z"/></clipPath></defs><title>instagrowth-mob-header</title><g id="Layer_2" data-name="Layer 2"><g id="BACKGROUND"><rect class="cls-2" width="500" height="500"/></g><g id="OBJECTS"><path class="cls-3" d="M216.45,95.84a1.54,1.54,0,0,0-1.23-2.68,1.48,1.48,0,0,0-.82.38c-.78.69-1.55,1.4-2.31,2.12a1.54,1.54,0,1,0,2.12,2.24c.74-.7,1.49-1.38,2.24-2.06ZM356.11,449.08a1.55,1.55,0,0,0,.06,3.09l1.28,0,1.61,0h.23a1.54,1.54,0,0,0,.73-2.86,1.52,1.52,0,0,0-.86-.22l-1.77.05-1.28,0Zm12.18-.67a1.54,1.54,0,0,0,.34,3.07l1.4-.14,1.7-.2a1.55,1.55,0,0,0,.69-2.79,1.51,1.51,0,0,0-1.09-.27l-1.63.19-1.41.14Zm12.08-1.76a1.52,1.52,0,0,0-1.11.9,1.55,1.55,0,0,0,1.72,2.13l.91-.18,1.44-.3L384,449a1.54,1.54,0,0,0,.22-2.94,1.49,1.49,0,0,0-.91-.07l-.67.15-1.4.29-.91.18Zm11.81-2.94a1.55,1.55,0,0,0,.25,3,1.43,1.43,0,0,0,.68-.06l1.25-.38,1.33-.44.4-.13a1.54,1.54,0,1,0-1-2.92l-.36.12-1.29.42-1.25.39Zm11.43-4.19a1.54,1.54,0,1,0,1.25,2.82l1-.45,1.22-.55.59-.28a1.55,1.55,0,0,0-.5-2.93,1.64,1.64,0,0,0-.82.14l-.56.26-1.18.54-1,.45Zm10.86-5.46a1.55,1.55,0,0,0,.91,2.87,1.47,1.47,0,0,0,.65-.21l.46-.27,1.12-.66,1.11-.68a1.55,1.55,0,0,0-.94-2.85,1.71,1.71,0,0,0-.69.23l-1.07.66-1.09.64-.46.27Zm10.12-6.72a1.54,1.54,0,1,0,1.88,2.45l.68-.51,1-.78.79-.63a1.54,1.54,0,0,0-.8-2.73,1.51,1.51,0,0,0-1.14.33l-.76.61-1,.75-.68.51Zm9.23-7.9a1.55,1.55,0,1,0,2.17,2.2l.62-.61.88-.88.71-.72a1.57,1.57,0,0,0,.42-1.27,1.54,1.54,0,0,0-2.64-.87l-.68.69-.86.85-.62.61Zm8.19-9a1.54,1.54,0,1,0,2.42,1.92l.44-.56.76-1,.72-.94a1.54,1.54,0,0,0-2.46-1.86l-.69.91-.74.94-.45.55Zm7.05-9.9a1.54,1.54,0,1,0,2.62,1.62l.25-.39.64-1.05.74-1.24a1.55,1.55,0,0,0-2.68-1.54l-.7,1.19-.62,1-.25.4Zm5.84-10.67a1.54,1.54,0,1,0,2.79,1.32l.59-1.28.51-1.12.2-.46a1.54,1.54,0,1,0-2.83-1.22l-.19.43-.49,1.08-.58,1.25Zm4.59-11.26a1.54,1.54,0,0,0,2.45,1.67,1.5,1.5,0,0,0,.47-.69l.37-1.08.38-1.16.23-.73a1.54,1.54,0,1,0-2.95-.91l-.22.69-.37,1.14-.36,1.07Zm3.33-11.71a1.55,1.55,0,0,0,2.64,1.38,1.57,1.57,0,0,0,.38-.72l.2-.9.26-1.2.19-1a1.55,1.55,0,0,0-2.7-1.29,1.64,1.64,0,0,0-.33.69l-.19.92L463,366l-.2.9Zm2.08-12a1.56,1.56,0,0,0,.76,1.51,1.54,1.54,0,0,0,2.31-1.16l.09-.78.14-1.23.1-1.09a1.54,1.54,0,0,0-2.7-1.16,1.51,1.51,0,0,0-.37.87l-.1,1.06-.14,1.2-.09.78Zm.84-12.16a1.54,1.54,0,0,0,3,.61,1.62,1.62,0,0,0,.12-.57v-3.11a1.55,1.55,0,1,0-3.09,0v3.05Zm-.39-12.18a1.55,1.55,0,0,0,2.79.78,1.57,1.57,0,0,0,.29-1.05l-.06-.74-.12-1.25-.11-1.11a1.52,1.52,0,0,0-.39-.86,1.54,1.54,0,0,0-2.68,1.19l.11,1.08.11,1.22.06.74Zm-1.59-12.08a1.52,1.52,0,0,0,.87,1.11,1.54,1.54,0,0,0,2.16-1.68l-.16-.86-.24-1.24-.2-1a1.53,1.53,0,0,0-1.37-1.22,1.55,1.55,0,0,0-1.65,1.85l.19.93.24,1.22.16.85ZM461,306.64a1.54,1.54,0,0,0,3-.88l-.31-1.05-.37-1.23-.22-.7a1.54,1.54,0,0,0-3,.21,1.46,1.46,0,0,0,.05.72l.21.68.37,1.2.3,1.05ZM457,295.09a1.56,1.56,0,0,0,1.09.94A1.54,1.54,0,0,0,459.9,294l-.54-1.35-.5-1.19-.15-.36a1.54,1.54,0,0,0-2.83,1.24l.14.32.48,1.16.54,1.32ZM452,284a1.54,1.54,0,0,0,2.9-.74,1.57,1.57,0,0,0-.17-.7l-.3-.57-.61-1.15-.56-1a1.55,1.55,0,0,0-2.9.78,1.49,1.49,0,0,0,.2.71l.54,1,.6,1.12.3.57Zm-6.15-10.52a1.54,1.54,0,0,0,2.57-1.71l-.71-1.08-.74-1.09-.29-.42a1.54,1.54,0,1,0-2.53,1.77l.27.39.73,1.07.7,1.07Zm-7.17-9.85a1.54,1.54,0,0,0,2.71-1.25,1.48,1.48,0,0,0-.32-.71l-.52-.64-.86-1-.61-.73a1.54,1.54,0,0,0-2.71.87,1.5,1.5,0,0,0,.36,1.13l.6.71.83,1,.52.64Zm-8.13-9.09a1.55,1.55,0,0,0,2.6-1.46,1.58,1.58,0,0,0-.41-.72l-.4-.41-1-1-.84-.81a1.54,1.54,0,0,0-2.57,1.46,1.49,1.49,0,0,0,.43.76l.82.79.95,1,.4.41Zm-9-8.24a1.55,1.55,0,0,0,2.52-1.33,1.52,1.52,0,0,0-.56-1.05l-.47-.39-1.1-.9-.85-.68a1.55,1.55,0,0,0-1.91,2.43l.83.66,1.07.87.47.39ZM411.81,239a1.54,1.54,0,1,0,1.71-2.57l-.83-.56-1.21-.8-.56-.36a1.54,1.54,0,1,0-1.66,2.6l.53.34,1.19.79.83.56Zm-10.41-6.38a1.55,1.55,0,0,0,1.49-2.71l-.29-.16-1.32-.71-1.14-.61a1.55,1.55,0,0,0-1.43,2.74l1.12.59,1.29.7.28.16Zm-10.94-5.42a1.54,1.54,0,0,0,2.09-1.89,1.52,1.52,0,0,0-.84-.93l-1.47-.64-1.4-.59a1.54,1.54,0,0,0-1.92,2.2,1.45,1.45,0,0,0,.74.64l1.36.58,1.44.63Zm-11.37-4.46a1.55,1.55,0,0,0,1.83-2.26,1.57,1.57,0,0,0-.82-.66l-.22-.08-2.73-.91a1.54,1.54,0,1,0-1,2.93l2.68.9.22.08Zm-11.7-3.66a1.57,1.57,0,0,0,1.62-.5,1.55,1.55,0,0,0-.77-2.47l-3-.84a1.57,1.57,0,0,0-1.16.14,1.55,1.55,0,0,0,.35,2.84l2.95.83ZM355.51,216a1.54,1.54,0,0,0,1.39-2.65,1.49,1.49,0,0,0-.67-.35c-1-.18-2.05-.48-3-.71a1.55,1.55,0,0,0-1.6,2.41,1.57,1.57,0,0,0,.91.6c1,.22,2,.53,3,.7Zm-12-2.62a1.54,1.54,0,0,0,1.45-2.54,1.5,1.5,0,0,0-.85-.49l-3-.59a1.54,1.54,0,0,0-1.29,2.69,1.57,1.57,0,0,0,.71.34l3,.59Zm-12.1-2.2a1.54,1.54,0,0,0,1.31-2.64,1.45,1.45,0,0,0-.8-.4l-3.06-.49a1.54,1.54,0,0,0-1.06,2.83,1.56,1.56,0,0,0,.58.21l3,.49Zm-12.16-1.82a1.54,1.54,0,1,0,.41-3.06l-3.07-.4a1.54,1.54,0,1,0-.39,3.06l3.05.4ZM307,207.84a1.54,1.54,0,1,0,.34-3.07l-3.08-.33a1.54,1.54,0,0,0-1.15,2.71,1.45,1.45,0,0,0,.84.36l3,.33Zm-12.25-1.21a1.55,1.55,0,0,0,1.12-2.73,1.48,1.48,0,0,0-.85-.34L292,203.3a1.54,1.54,0,1,0-.25,3.07l3.06.26Zm-12.33-1.1a1.54,1.54,0,0,0,1-2.82,1.5,1.5,0,0,0-.68-.24l-3.05-.35a1.55,1.55,0,0,0-.37,3.07l3.08.34Zm-12.31-1.61a1.54,1.54,0,0,0,1.58-2.29,1.52,1.52,0,0,0-1.1-.75c-1-.16-2-.32-3-.5a1.54,1.54,0,0,0-.53,3c1,.18,2.05.34,3.07.5Zm-12.22-2.28a1.54,1.54,0,0,0,1.51-2.49,1.46,1.46,0,0,0-.85-.52l-3-.68a1.54,1.54,0,0,0-1.67,2.3,1.52,1.52,0,0,0,1,.7c1,.24,2,.47,3,.69Zm-12.07-3.09a1.54,1.54,0,0,0,1.64-2.44,1.47,1.47,0,0,0-.76-.51c-1-.29-1.95-.59-2.92-.9a1.54,1.54,0,0,0-1.7,2.4,1.48,1.48,0,0,0,.75.53c1,.32,2,.63,3,.92Zm-11.8-4.07a1.54,1.54,0,0,0,1.15-2.86c-.95-.38-1.88-.77-2.82-1.17a1.55,1.55,0,0,0-1.75,2.46,1.66,1.66,0,0,0,.53.38c1,.41,1.92.81,2.89,1.19Zm-11.35-5.27a1.54,1.54,0,0,0,1.47-2.71c-.89-.48-1.77-1-2.65-1.48a1.52,1.52,0,0,0-1.36-.11,1.55,1.55,0,0,0-.2,2.76c.9.53,1.81,1,2.74,1.54Zm-10.61-6.74a1.54,1.54,0,0,0,2.39-1.72A1.46,1.46,0,0,0,214,180c-.81-.6-1.6-1.23-2.38-1.86a1.54,1.54,0,1,0-2,2.38c.82.67,1.64,1.31,2.48,1.94ZM202.72,174a1.55,1.55,0,0,0,2.66-1.36A1.52,1.52,0,0,0,205,172c-.67-.74-1.33-1.5-2-2.28a1.54,1.54,0,0,0-2.39,2c.67.82,1.35,1.62,2.06,2.4Zm-7.42-10.28a1.54,1.54,0,0,0,2.71-1.48c-.49-.88-.94-1.76-1.37-2.66a1.55,1.55,0,1,0-2.8,1.31c.46,1,.94,1.9,1.46,2.83Zm-4.69-11.81a1.54,1.54,0,0,0,3-.74c-.24-1-.45-1.94-.63-2.92a1.54,1.54,0,0,0-3-.15,1.46,1.46,0,0,0,0,.69c.19,1.05.42,2.08.67,3.12Zm-1.42-12.64a1.55,1.55,0,0,0,2.89.79,1.61,1.61,0,0,0,.2-.71c0-1,.07-2,.15-3a1.54,1.54,0,1,0-3.07-.27c-.1,1-.15,2.12-.17,3.18Zm2-12.57a1.46,1.46,0,0,0,0,1,1.54,1.54,0,0,0,2.92-.07c.28-.9.61-2,1-2.83a1.54,1.54,0,1,0-2.88-1.1c-.38,1-.73,2-1,3Zm5.12-11.58a1.54,1.54,0,1,0,2.67,1.55c.5-.87,1-1.73,1.57-2.58a1.54,1.54,0,1,0-2.6-1.66c-.57.88-1.11,1.78-1.64,2.69Zm7.19-10.32a1.54,1.54,0,0,0,1.3,2.51,1.52,1.52,0,0,0,1.09-.56q1-1.17,1.95-2.31A1.54,1.54,0,0,0,206.2,102a1.61,1.61,0,0,0-.63.43C204.88,103.2,204.2,104,203.54,104.82Z"/><polygon class="cls-4" points="220.54 58.88 225.31 86.32 287.16 36.57 222.57 52.45 220.54 58.88"/><path class="cls-5" d="M225.3,86.32l23.86-19.19a39.29,39.29,0,0,1,1.11-4.86l-20,5.38Z"/><polygon class="cls-3" points="287.16 36.57 203.51 52.04 220.54 58.88 287.16 36.57"/><polygon class="cls-3" points="287.16 36.57 249.57 86.51 230.23 67.65 287.16 36.57"/><path class="cls-6" d="M24.2,210.46c-1.24,0-1.72-1.32-.67-1.85a6.48,6.48,0,0,1,1.15-.44c3.37-1,5.49.24,8.17-3.29s5.68-1.8,10.12-2.49,7.68-12.85,17.25-13.09,9.87,11.36,21,13.57c0,0,2.48.72,6-2.12s6.93-3.69,10.65-3.1c3.47.55,8,6.11,8.56,12,.07.67-.6,1.24-1.44,1.24Z"/><path class="cls-6" d="M368.8,99a.29.29,0,0,1-.11-.56c3.11-1.24,10.42-4.44,15.75-9.19,6.95-6.18,10.43-10.89,20.56-6.18S417,96,427.42,89s12.74-.15,17.09,2.73c3.46,2.28,13.71,5.55,17.75,6.79a.25.25,0,0,1-.08.49Z"/><ellipse class="cls-7" cx="249.65" cy="383.48" rx="143" ry="6.64"/><rect class="cls-8" x="99.07" y="171.25" width="294.34" height="175.12" rx="23.76"/><polygon class="cls-8" points="208.83 342.74 246.85 382.05 283.65 342.74 208.83 342.74"/><path class="cls-6" d="M182.11,240.93c-4.21-4.79-10.41-11.27-17.3-11.27-.27,0-.54,0-.79,0a19.83,19.83,0,0,0-15.91,8.78,20.84,20.84,0,0,0,2.14,25.72L182,298.57a.51.51,0,0,0,.72,0l31.74-34.39a20.79,20.79,0,0,0,2.15-25.71,19.83,19.83,0,0,0-15.92-8.79c-.26,0-.52,0-.79,0C192.86,229.66,186.35,236,182.11,240.93Z"/><path class="cls-9" d="M368.94,369.89l.64,6.69,2.08,3.91a4.58,4.58,0,0,1-.84,5.44l-.68.66-14.86-18.13,7.45-6.11Z"/><polyline class="cls-6" points="355.1 368.49 370.08 386.76 371.7 385.44 356.71 367.16 355.1 368.49"/><polygon class="cls-6" points="362.73 362.35 370.73 355.46 376.76 362.66 368.94 369.89 362.73 362.35"/><polygon class="cls-10" points="385.71 311.21 388.5 334.47 365.7 357.3 375.16 368.02 403.44 343.61 392.2 307.48 385.71 311.21"/><path class="cls-9" d="M423.38,375.17l6.15,2.67,4.43.07a4.61,4.61,0,0,1,4.36,3.37l.25.92-23.06,4.23L413.77,377Z"/><polyline class="cls-6" points="415.44 386.61 438.69 382.33 438.31 380.28 415.07 384.55 415.44 386.61"/><polygon class="cls-6" points="413.77 376.96 411.61 366.62 420.83 364.83 423.38 375.17 413.77 376.96"/><path class="cls-11" d="M407.31,302.11l18.08,68.32-15.56,3-11.71-39.91s-13.49-24.48-14.67-32.87Z"/><path class="cls-12" d="M436.41,247.68a5.21,5.21,0,1,1-7.36-.2A5.21,5.21,0,0,1,436.41,247.68Z"/><path d="M439.07,236.45h0a1,1,0,0,1,.33,1.38l-8.18,13.43a1,1,0,0,1-1.37.33h0a1,1,0,0,1-.34-1.38l8.18-13.43A1,1,0,0,1,439.07,236.45Z"/><polygon class="cls-12" points="424.96 263.73 430.08 253.35 435.2 255.8 430.99 266.26 424.96 263.73"/><path class="cls-13" d="M403.18,251.72s5.07,1.65,11.74,12.65l4.59,7.28,6.21-13.86,10.3,3.3-9.48,21.25a6.75,6.75,0,0,1-10.63,2.32L411,280.34Z"/><path class="cls-13" d="M380.22,318.53s6.75,3.31,6.73,3-1-8.36-1-8.36Z"/><path class="cls-14" d="M400.18,250.82s8.5,0,10.12,15,5.16,47.49,5.16,47.49l-9.62,2.27-5.94-57.11Z"/><path class="cls-6" d="M388.49,251.05s3.28-1.62,9-.9,8.2,7.8,8.61,12.63S408,304.24,408,304.24l-19.77-.09Z"/><path class="cls-14" d="M391.79,250.17s-4.3-.22-10.61,6.13a2.3,2.3,0,0,0-.67,1.61l-.29,60.62a50,50,0,0,0,20.86-3Z"/><path class="cls-12" d="M355.69,318.57A5.21,5.21,0,1,1,363,318,5.21,5.21,0,0,1,355.69,318.57Z"/><polygon class="cls-12" points="359.19 299.53 356.07 310.37 361.72 311.46 366.44 300.45 359.19 299.53"/><path class="cls-14" d="M386.49,252s-22.61,13.31-32.19,54l13.48,1.86s7.07-27.58,20.74-38.92C388.52,269,393.28,259.28,386.49,252Z"/><path class="cls-15" d="M380.36,278.52s4.38-7.34,8.16-9.52"/><path class="cls-12" d="M392.23,250.14l0-11.8,8.47,0-.05,11.81a4.23,4.23,0,0,1-4.25,4.22h0A4.24,4.24,0,0,1,392.23,250.14Z"/><path class="cls-16" d="M392,239s.89,11.1,8.71,10.94v-6.06Z"/><path class="cls-17" d="M405.27,225.83s8.16,1.41,1.51,9.62l-1.51-5Z"/><path class="cls-12" d="M399.21,247.18h0c4.54,0,8.25-2.74,8.25-7.27v-9a3.6,3.6,0,0,0-3.59-3.59h-9.31a3.59,3.59,0,0,0-3.59,3.59v7.77C391,243.17,395.39,247.18,399.21,247.18Z"/><path class="cls-17" d="M392.32,235.56h0a6,6,0,0,0,2.24-8.28h-4.64a2.26,2.26,0,0,0-2.28,1c-1,1.35,1.46,7.26,1.46,7.26Z"/><circle class="cls-12" cx="390.29" cy="236.61" r="2.95"/><path class="cls-17" d="M403,220.79a5.16,5.16,0,0,0-6.49.18,5.18,5.18,0,0,0-2.83-.84,4.61,4.61,0,0,0-4.72,3.7,3.23,3.23,0,0,0,.29,6.42,3,3,0,0,0,2.73-1.86,5.27,5.27,0,0,0,1.7.29,5.09,5.09,0,0,0,1.72-.3c3.63.25,13.82.66,14.09-2.55A5,5,0,0,0,403,220.79Z"/><path class="cls-17" d="M394.09,232.31s-.58,6,.68,7.83,2.64-.22,7.45-.74,5.46,1.68,5.46,1.68-.66,6.36-6.93,6.36c-4.87,0-9.79-1.37-8.47-9.1s-2.36-11.06-2.36-11.06Z"/><polygon class="cls-18" points="148.74 141.71 166.99 137.35 166.24 142.33 149.76 150.72 148.74 141.71"/><path class="cls-18" d="M143.85,117.57s3.39,2.35,4.61,8.4,3.59,25,3.59,25l-9.69,4.39Z"/><path class="cls-19" d="M178.79,131.68a23.64,23.64,0,0,0-2-1.88,6.56,6.56,0,0,0-8.38-.09l-16,13-15.52,17.17a9.38,9.38,0,0,0,4.37,3.92,12.82,12.82,0,0,0,13.75-2.14l18-16.57,5.74-13.42"/><polygon class="cls-20" points="182.16 158.51 185.32 165.64 191.4 164.83 188.21 157.82 182.16 158.51"/><path class="cls-6" d="M191.83,163.84l6,3,3.71.63a3.89,3.89,0,0,1,3.22,3.39l.1.8-19.55.61-.6-8.2Z"/><path class="cls-21" d="M185.24,172.41l19.7-.62,0-1.3a.47.47,0,0,0-.48-.46l-19.24.6.06,1.78"/><path class="cls-19" d="M181.49,161.73l-15.12-23.9a7.37,7.37,0,0,1,4.68-9.42h0a7.36,7.36,0,0,1,9.4,5.11l12.42,25.32Z"/><path class="cls-8" d="M128.41,117.05a4.24,4.24,0,0,0-1.17.27l-.2.08a9.58,9.58,0,0,0-5.75,8.24l1.91,32.24c20.15-.18,25.26-2.83,25.26-2.83l-2.72-32.65c-.24-3.11-1.67-6-5.21-6.33h0Z"/><path class="cls-22" d="M154,121.42l4.52,1.65a2.11,2.11,0,0,0,2.57-.85l5.42-10.38a1.54,1.54,0,0,0-1-2.15L161,108a2.13,2.13,0,0,0-2.56.85L153,119.27A1.53,1.53,0,0,0,154,121.42Z"/><path class="cls-20" d="M157,125.1c1.81,1.49,3.77,1,5.27-.84s1.94-4.23.13-5.72a4.25,4.25,0,0,0-5.4,6.56Z"/><path class="cls-20" d="M157,128.93l3.12-3.79a2.34,2.34,0,0,0-.32-3.29h0a2.34,2.34,0,0,0-3.28.32L153.39,126a2.35,2.35,0,0,0,.32,3.29h0A2.34,2.34,0,0,0,157,128.93Z"/><path class="cls-8" d="M159.63,129.62l-5.82-6L143.2,135.46,130,120.72c-2.89-2.52-5.93,0-7.24,1.66h0c-1.31,1.64-1.18,4.7.46,6l16.66,17.78a3.82,3.82,0,0,0,4.1.42Z"/><polyline class="cls-23" points="134.38 125.31 143.13 134.83 146.97 130.61"/><path class="cls-23" d="M149.07,141.75l-4,4a3.76,3.76,0,0,1-5.69.19L123.64,132.5"/><polygon class="cls-20" points="161.97 198.49 161.57 205.34 167.68 205.81 168.03 199.07 161.97 198.49"/><path class="cls-6" d="M168.31,204.94l5.24,4.18,3.5,1.39a3.91,3.91,0,0,1,2.44,4l-.07.8-20.14-3.68,2-8Z"/><path class="cls-21" d="M159.17,211.74l20.3,3.71.24-1.28a.48.48,0,0,0-.38-.55L159.49,210l-.32,1.74"/><path class="cls-24" d="M146.86,155.38l20.59.94a6.56,6.56,0,0,1,6.2,5.65,24.57,24.57,0,0,1,.22,2.7c.22,6.35-2.49,36.85-2.49,36.85l-11.91-2.07.57-27.89-23.85-.3a12.83,12.83,0,0,1-11.69-7.56,9.32,9.32,0,0,1-.65-5.82Z"/><path class="cls-20" d="M131.59,116.45l.78-10.53,7.74.58L139.33,117c-.16,2.26-2,3.18-4.11,3h0C133.08,119.88,131.42,118.71,131.59,116.45Z"/><path class="cls-25" d="M131.77,103.87s.18,9.85,7.81,9.82l.36-4.9Z"/><path class="cls-17" d="M131.37,89s-2.72-11.1-11.12-6.79c-6.22,3.19-4.2,11.56,6,12.56Z"/><path class="cls-8" d="M127.12,96.63s-3.28-2.86-.22-6.77,6.59-.28,6.59-.28Z"/><path class="cls-17" d="M147.31,98.69a10.87,10.87,0,1,1-10-11.65A10.87,10.87,0,0,1,147.31,98.69Z"/><path class="cls-20" d="M132.81,93.07H143a3.59,3.59,0,0,1,3.59,3.59v7.18a7.76,7.76,0,0,1-7.76,7.76h-.29a7.76,7.76,0,0,1-7.76-7.76V95.08a2,2,0,0,1,2-2Z" transform="translate(6.94 -8.79) rotate(3.72)"/><path class="cls-17" d="M135.38,96.48s-.21,4.42-3.18,4.69-1-5-1-5Z"/><path class="cls-20" d="M133,101.38a2.62,2.62,0,1,1-2.44-2.78A2.62,2.62,0,0,1,133,101.38Z"/><path class="cls-17" d="M146,94.48s-5.66,5.85-13.45,3.34c0,0-3-.55-1.48-5.11S145.06,88.67,146,94.48Z"/><path class="cls-17" d="M145.08,94.1s2.73.84,1.85,6.41c0,0,3.71-5.53,2.14-8.44-2.53-4.69-8.27-1.64-8.27-1.64Z"/><path class="cls-26" d="M109.37,331.26l-3.87,4.33-7.11,6.22,22.91,33.93c1.7,2.71,11.74,11.77,18.14,9.51,4-1.41,7.82-4.65,9.92-11.38Z"/><polygon class="cls-6" points="99.07 367.89 95.18 383.06 86.9 381.88 90.81 366.84 99.07 367.89"/><path class="cls-27" d="M87.28,381.07l-6.78,3.47-4.4.68a4.61,4.61,0,0,0-3.87,3.95l-.12.95,24.21,1.06-.24-9.7Z"/><polyline class="cls-6" points="96.41 391.34 72.01 390.28 72.1 388.18 96.5 389.25 96.41 391.34"/><path class="cls-26" d="M94.61,337.31l-9.44,38,15.61.4L112,339a8.74,8.74,0,0,0-8.32-10.17h0C99.07,328.59,95.65,332.54,94.61,337.31Z"/><path class="cls-28" d="M117.72,362.27l-23.2-3.44L97.29,376l37.19,10.76c2.94,1.27,11.4,1.16,15.4-4.33,2.49-3.41,3.84-8.25,1.76-15Z"/><polygon class="cls-6" points="60.54 383.72 46.7 388.62 44.47 380.56 58.2 375.74 60.54 383.72"/><path class="cls-27" d="M45.36,380.58l-5.89-4.82L37.09,372a4.63,4.63,0,0,0-5.17-2l-.93.27,8.72,22.61,8.8-4.1Z"/><polyline class="cls-6" points="39.6 393.06 30.81 370.27 32.77 369.51 41.56 392.3 39.6 393.06"/><path class="cls-28" d="M92.41,359.45,51.34,376.62l5.75,13.07,40.69-13.63a8.74,8.74,0,0,0,6-11.7h0A8.74,8.74,0,0,0,92.41,359.45Z"/><path class="cls-1" d="M130.64,317.17l8.68-5.27,5.27,13.52c1,2.51-.75,4.44-3.25,5.47h0c-2.51,1-4.82.75-5.87-1.75Z"/><path class="cls-25" d="M132.6,322s4.09-1.47,4.91-3.9a11.09,11.09,0,0,1-3.92,6.35Z"/><path class="cls-1" d="M126.4,304.53,125,314.12c-1,4,2.3,9.07,6.32,8.21l1.1-.28a6,6,0,0,0,4.47-6.65l-1.63-11.49C134.89,303.26,128.12,300.6,126.4,304.53Z"/><path class="cls-1" d="M126.11,309.68l-2.38,3a1,1,0,0,0,.09,1.3l1.15.67Z"/><path class="cls-27" d="M137.12,313.25s-1.74,4.84,5,4.91l3.09-5.68a9,9,0,0,0,1.17-7.49c-.62-2.05-1.83-3.75-4.79-5.17-7.53-3.62-15.53,1.49-16.11,4.59,0,0,2.51,1.35,7.76.38Z"/><path class="cls-27" d="M132.69,302.87s-1.89,5.24,2.73,6.71Z"/><path class="cls-27" d="M133.65,307.85l-.24,1.89a2,2,0,0,0,1.62,2.18l1.34.22-.51-3.63Z"/><path class="cls-1" d="M134.87,310.44a3,3,0,1,0,2.8-1.87A3,3,0,0,0,134.87,310.44Z"/><path class="cls-6" d="M140.75,297.31c8,3.56,7.29,9.81,5.9,13.54L128,300.8C129.82,298.19,134.09,294.34,140.75,297.31Z"/><path class="cls-6" d="M146.65,310.85c-.15.41-.32.8-.49,1.17L119.5,297.83a.71.71,0,0,1-.26-1h0a.72.72,0,0,1,.93-.23Z"/><path class="cls-29" d="M140.47,323.61s6.44-1.18,10.94,12.27c5.17,15.43,3.23,39.37,3.23,39.37S138.47,377,128.31,364.1c0,0,5.18-22.29,5.39-32.87C133.7,331.23,133.49,324,140.47,323.61Z"/><path class="cls-29" d="M136.07,325.31l-22.19,17.24a6.35,6.35,0,0,0-.74,9.4h0a6.35,6.35,0,0,0,8,1l22.51-14a7.65,7.65,0,0,0,1.57-11.11h0C142.58,324.62,139.35,322.79,136.07,325.31Z"/><polygon class="cls-1" points="107.28 322.89 100.4 313.95 95.31 315.69 101.03 325.04 107.28 322.89"/><path class="cls-1" d="M99.7,305.59c-3-.33-5.54,3.77-5.56,6.71a5.23,5.23,0,0,0,5.34,5.26,5.47,5.47,0,0,0,5.43-5.37C104.94,309.25,104,306.08,99.7,305.59Z"/><path class="cls-27" d="M103.94,296.67h0a1.16,1.16,0,0,0-1.3,1l-2.2,13.84a1.1,1.1,0,0,0,.94,1.27h0a1.17,1.17,0,0,0,1.3-1l2.2-13.85A1.1,1.1,0,0,0,103.94,296.67Z"/><path class="cls-29" d="M124.73,346.31l-18.41-27.93-10.51,4,16.86,28.71a5.34,5.34,0,0,0,7.76,1.86h0C122.8,351.32,125.36,348.51,124.73,346.31Z"/><line class="cls-30" x1="131.91" y1="346.24" x2="140.71" y2="340.75"/><line class="cls-30" x1="131.91" y1="346.24" x2="140.71" y2="340.75"/><path class="cls-1" d="M344.93,111.09l.77-.44a5.33,5.33,0,0,0,2-7.26l-9.62-17-9.23,5.22,10.52,18.05C340.57,111.76,342.68,112,344.93,111.09Z"/><path class="cls-25" d="M337.06,105.68a6.55,6.55,0,0,0,2.61-5.57,7.05,7.05,0,0,1-1.19,8Z"/><path class="cls-1" d="M322,95.49a11.52,11.52,0,1,0,4.35-15.7A11.52,11.52,0,0,0,322,95.49Z"/><path class="cls-1" d="M336.56,106h0a5.48,5.48,0,0,0,2.07-7.46l-5.44-9.6-11.3,6.39,4.43,7.83A7.52,7.52,0,0,0,336.56,106Z"/><path class="cls-1" d="M323.54,97.57l-.36,4.46a.9.9,0,0,0,1.39.76l2.81-1Z"/><path class="cls-1" d="M322,95.49a11.52,11.52,0,1,0,4.35-15.7A11.52,11.52,0,0,0,322,95.49Z"/><g class="cls-31"><path class="cls-17" d="M333.49,94.74s-4,.5-5.05-5.67c0,0-6.73,4.89-9.68,3.29,0,0-1.95-17.55,12.63-17.81s16.67,15.37,16.67,15.37l-7.72,7.86Z"/></g><path class="cls-1" d="M332.93,95a3.17,3.17,0,1,0,1.19-4.31A3.16,3.16,0,0,0,332.93,95Z"/><path class="cls-17" d="M341.67,92.15l2.46,4.92s-4.51,4.09-7.21-.66l3.4-1.18Z"/><path class="cls-17" d="M328.44,89.07s-9,7.9-13.15,2c-3.28-4.72-.16-8.1,4.68-7.59,2.1.22,3-1.25,4.59-2.45Z"/><path class="cls-32" d="M307.17,165.73s-4.46,2.36-3.06,6.39,6.87,2.56,6.87,2.56l15.54-2.88s1.57-2.26,0-3.25S307.17,165.73,307.17,165.73Z"/><path class="cls-33" d="M333.6,153.56H304.35c-3.06,0-4.74,2.38-5.19,5.41h0c-.47,3.13.58,6,3.65,6.76l25,6.43s26.36,5.43,29.45-8.7S333.6,153.56,333.6,153.56Z"/><path class="cls-34" d="M336.44,115.93s1.74-5,3.41-6.44c1.19-1,5.41-4.2,7.6-4.74a2.18,2.18,0,0,1,1.86.4,31.3,31.3,0,0,1,11,18.14c2.18,10.18-.45,40.39-.45,40.39L334,152.89C336.41,135.54,332.46,132,336.44,115.93Z"/><path class="cls-1" d="M318.72,146.2,311,142.42a2,2,0,0,0-2,.11l-3.93,2.54a1.82,1.82,0,0,0,.1,3.12h0a1.84,1.84,0,0,0,1.94-.1l1.89-1.32s5.56,4,8.47,3.43Z"/><path class="cls-34" d="M343.33,112.53,339,138.88l-22.18,3.21v8.17l26.65.16a7.2,7.2,0,0,0,6.29-3.17l6.62-28.44Z"/><polyline class="cls-35" points="334.84 139.48 338.98 138.88 342.48 117.69"/><path class="cls-35" d="M334,150.37l12-.09a4.06,4.06,0,0,0,4-3.18L354.49,127"/><path class="cls-36" d="M296.25,153.73h31.24a1.73,1.73,0,0,0,1.74-1.73h0a1.74,1.74,0,0,0-1.74-1.74H296.25a1.74,1.74,0,0,0-1.73,1.74h0A1.73,1.73,0,0,0,296.25,153.73Z"/><line class="cls-37" x1="282.24" y1="127.63" x2="296.87" y2="151.5"/><circle class="cls-6" cx="302.06" cy="246.47" r="18.95"/><path class="cls-6" d="M324.45,275.1l-44.88.07A12.88,12.88,0,0,0,266.73,288v12.85l70.61-.08-.05-12.86a12.83,12.83,0,0,0-12.85-12.83Z"/></g></g></svg>