<?xml version="1.0" encoding="utf-8"?>
<!-- Generator: Adobe Illustrator 24.0.1, SVG Export Plug-In . SVG Version: 6.00 Build 0)  -->
<svg version="1.1" id="Layer_1" xmlns="http://www.w3.org/2000/svg" xmlns:xlink="http://www.w3.org/1999/xlink" x="0px" y="0px"
	 viewBox="0 0 653.5 633.7" style="enable-background:new 0 0 653.5 633.7;" xml:space="preserve">
<style type="text/css">
	.st0{fill:#334451;stroke:#334451;stroke-width:20;stroke-linecap:round;stroke-linejoin:round;stroke-miterlimit:10;}
	.st1{fill:#FFFFFF;}
	.st2{fill:#71DAFF;}
</style>
<title>interaction_1</title>
<g id="Layer_2_1_">
	<g id="Layer_3">
		<path class="st0" d="M627.6,12.8C495.4,81.4,363.2,150,231,218.6c-3.6,1.9-5.9,6.4-8.8,9.7c3.3,2.6,6.2,6.2,9.9,7.5
			c36,12.8,72.1,25.4,108.4,37.7c4.9,1.7,7.8,4.2,9.5,9.3c9.4,28.6,19.1,57.2,28.9,85.7c3.8,11,8.5,21.6,12.8,32.4h5
			c24-25.4,48.2-50.6,71.9-76.2c4.3-4.6,7.8-5.4,13.7-3.2c28.5,10.7,57.1,20.9,85.7,31.3c11,4,13.1,3,15.2-8.5
			c11.7-63.4,23.2-126.7,34.7-190.1c7.9-43.6,15.9-87.3,23.8-130.9c0.2-1.3,1.2-2.4,1.8-3.6v-5C638.9,7.9,633.7,9.6,627.6,12.8z
			 M343.4,260.3c-30.2-10.9-60.6-21.3-90.9-31.9c-1.2-0.4-2.4-1.1-5.4-2.6c113-58.6,224.5-116.4,336.1-174.3l2.2,2.8
			c-2.1,1.3-4.5,2.3-6.3,3.9c-73.9,66.3-147.8,132.7-221.7,199.1C353,261.3,349.3,262.4,343.4,260.3z M393.3,360.9
			c-0.7,0.1-1.4,0.2-2.1,0.3c-1.1-3-2.3-6-3.4-9.1c-8.2-24-16.4-48-24.6-72.1c-1.4-4-2.5-7.3,1.8-11
			C430.4,210.4,495.8,151.7,561.1,93c0.8-0.7,1.8-1.2,3.8-0.9c-1.8,2.2-3.5,4.5-5.3,6.7c-48.3,59.1-96.4,118.3-145,177.2
			c-6.4,7.8-9.4,16-10.9,25.6C400.5,321.4,396.8,341.1,393.3,360.9z M408.2,368.9l-2.1-1c4-22.7,8-45.4,12.2-69.3l41.7,15.1
			L408.2,368.9z M570.3,338.9L424.5,286c66.1-81,131.6-161,197-241.1l2,1C605.9,143.1,588.2,240.3,570.3,338.9L570.3,338.9z"/>
		<path class="st1" d="M585.5,54.2c-2.1,1.3-4.5,2.3-6.3,3.9c-73.9,66.3-147.8,132.7-221.7,199.1c-4.5,4-8.2,5.1-14.1,3
			c-30.2-10.9-60.6-21.3-90.9-31.9c-1.2-0.4-2.4-1.1-5.4-2.6c113-58.6,224.5-116.4,336.1-174.3L585.5,54.2z"/>
		<path class="st1" d="M623.5,45.9c-17.7,97.2-35.3,194.4-53.2,293L424.5,286c66.1-81,131.6-161,197-241.1L623.5,45.9z"/>
		<path class="st1" d="M460.1,313.7l-51.9,55.2l-2.1-1c4-22.7,8-45.4,12.2-69.3L460.1,313.7z"/>
		<path class="st1" d="M564.9,92.1c-1.8,2.2-3.5,4.5-5.3,6.7c-48.3,59.1-96.4,118.3-145,177.2c-6.4,7.8-9.4,16-10.9,25.6
			c-3.2,19.8-6.9,39.5-10.4,59.3c-0.7,0.1-1.4,0.2-2.1,0.3c-1.1-3-2.3-6-3.4-9.1c-8.2-24-16.4-48-24.6-72.1c-1.4-4-2.5-7.3,1.8-11
			C430.5,210.4,495.8,151.7,561.1,93C561.9,92.3,562.9,91.8,564.9,92.1z"/>
		<path class="st2" d="M0.4,517.8c-1.2-2.8,0.1-6.1,3-7.3c2.5-1.1,5.5-0.1,6.9,2.2c7.7,12.4,16.3,24.3,25.8,35.5
			c2,2.4,1.7,5.9-0.6,7.9c-2.4,2-5.9,1.7-7.9-0.6c-9.8-11.6-18.7-23.9-26.7-36.8C0.7,518.3,0.5,518,0.4,517.8z M58.4,585.4
			c-1.2-2.8,0.2-6.1,3-7.3c1.9-0.8,4.1-0.5,5.7,0.8c11.2,9.3,23.3,17.3,36.2,24.1c2.7,1.5,3.6,5,2.1,7.6c-1.4,2.5-4.6,3.5-7.2,2.3
			c-13.6-7.1-26.4-15.6-38.1-25.4C59.3,587,58.8,586.2,58.4,585.4L58.4,585.4z M137.3,625.8c-1.2-2.8,0.2-6.1,3-7.3
			c1.1-0.5,2.3-0.6,3.4-0.3c14,3.4,28.4,4.7,42.8,4.1c3.1-0.1,5.7,2.2,5.8,5.3c0.1,3.1-2.2,5.7-5.3,5.8c-15.4,0.7-30.9-0.8-45.9-4.4
			C139.5,628.7,138,627.5,137.3,625.8L137.3,625.8z M225.4,621.5c0-0.1-0.1-0.2-0.1-0.3c-1-2.9,0.5-6.1,3.4-7.1c0,0,0,0,0,0
			c2.3-0.8,4.7-1.7,7-2.7c11-4.6,21.4-10.5,31-17.5c2.4-2,5.9-1.7,7.9,0.7s1.7,5.9-0.7,7.9c-0.2,0.2-0.4,0.3-0.6,0.4
			c-10.3,7.5-21.5,13.9-33.3,18.8c-2.5,1-5,2-7.5,2.9C229.7,625.6,226.5,624.2,225.4,621.5L225.4,621.5z M198.9,464.7
			c-3-7.3-4.1-15.3-3.3-23.2c0.3-3.1,3-5.3,6.1-5s5.3,3,5,6.1c-1.3,13.7,4,25.4,15.4,33.8c2.5,1.8,3,5.3,1.2,7.8
			c-1.8,2.5-5.3,3-7.8,1.2C208.2,480.1,202.5,472.9,198.9,464.7z M255.6,496.6c-1.2-2.9,0.2-6.1,3-7.3c0.8-0.3,1.6-0.5,2.5-0.4
			c14.2,0.8,28.3-1.5,41.6-6.5c2.9-1.1,6.1,0.4,7.2,3.2c1.1,2.9-0.3,6.1-3.2,7.2c-14.7,5.6-30.5,8-46.2,7.2
			C258.3,499.9,256.4,498.6,255.6,496.6z M222.9,413.9c-1.2-2.9,0.2-6.1,3-7.3c0.5-0.2,1-0.3,1.5-0.4c13.5-1.5,29.9,1.9,46.3,9.7
			c2.7,1.4,3.8,4.8,2.4,7.5c-1.3,2.6-4.5,3.7-7.2,2.6c-14.3-6.8-29-9.9-40.3-8.7C226.2,417.6,223.9,416.2,222.9,413.9z M297.2,569.8
			c-0.8-1.9-0.5-4.1,0.9-5.7c3.8-4.6,7.5-9.6,11-14.7c4.7-6.7,8.5-14,11.4-21.6c1-2.9,4.2-4.4,7.1-3.4s4.4,4.2,3.4,7.1
			c0,0.1,0,0.1-0.1,0.2c-3.2,8.5-7.5,16.5-12.6,24c-3.7,5.4-7.6,10.6-11.6,15.5c-2,2.4-5.5,2.7-7.9,0.8
			C298.1,571.4,297.5,570.6,297.2,569.8z M302.2,449.3c-1.2-2.8,0-6.1,2.9-7.4c2.2-1,4.8-0.4,6.4,1.4c11.5,12.4,19.3,26.5,22.8,41.2
			c0.7,3-1.1,6-4.1,6.8c-3,0.7-6-1.1-6.8-4.1c0,0,0-0.1,0-0.1c-3-12.8-9.9-25.2-20.1-36.1C302.8,450.4,302.4,449.8,302.2,449.3z
			 M336.2,464.9c-0.8-2-0.5-4.3,1-5.9c9.5-10.7,17.2-22.9,22.6-36.2c1.2-2.8,4.5-4.1,7.4-2.9c2.8,1.2,4.1,4.4,2.9,7.3
			c-6,14.4-14.3,27.7-24.6,39.3c-2.1,2.3-5.6,2.5-7.9,0.4C336.9,466.3,336.5,465.6,336.2,464.9L336.2,464.9z"/>
	</g>
</g>
</svg>
