<svg xmlns="http://www.w3.org/2000/svg" viewBox="0 0 600.27 618.38"><defs><style>.cls-1{fill:#71daff;}.cls-2{fill:#e0e2e7;}.cls-3{fill:#b3b3b3;}.cls-4{fill:#334451;}</style></defs><title>location_1</title><g id="Layer_2" data-name="Layer 2"><g id="icons"><path class="cls-1" d="M192.78,257.13c-5.56.34-9.91,3.7-14.54,6.16-14.75,7.84-29.31,16-44,24-3,1.59-6.1,1.78-9.64,1.5-6-.48-12,.53-18.09.58-11.23.1-22.36,1.67-33.65,1.42-5.75-.12-11.7.92-17.57,1-10.65.11-21.22,1.95-31.93,1.22-3.65-.25-7.39.66-11.07,1.14a3.26,3.26,0,0,0-.49.1q1-13.71,3.3-27c.75.64,2.1.78,4.2.69,31.47-1.42,63-2.53,94.44-4,3.84-.18,8,.5,11.61-1.46q27.78-15,55.5-30.2A203.67,203.67,0,0,1,192.78,257.13Z"/><path class="cls-2" d="M70.08,490.81l-.22-.28A284.35,284.35,0,0,1,10.5,315.7c0-7.17.27-14.41.8-21.52l0-.35.34-.1a4.27,4.27,0,0,1,.56-.11c1-.13,2-.29,2.95-.45a36.59,36.59,0,0,1,8.21-.69,134,134,0,0,0,19-.53c4.2-.32,8.55-.65,12.85-.69,2.67,0,5.4-.27,8-.5a86.83,86.83,0,0,1,9.54-.49c6.23.13,12.52-.29,18.6-.7,4.92-.33,10-.68,15-.72,2.36,0,4.77-.19,7.09-.36a74,74,0,0,1,11-.22c2.88.23,6.25.23,9.36-1.44,6.12-3.31,12.32-6.72,18.32-10,8.39-4.62,17.08-9.39,25.68-14,1-.55,2.05-1.14,3.05-1.72,3.38-2,6.87-4,11-4.45a207,207,0,0,0-11.41-23.82L168,239.74c-13.9,7.58-28.29,15.42-42.45,23.09-2.85,1.54-6,1.51-9,1.49-.94,0-1.92,0-2.85,0-17.33.82-35,1.53-52,2.23-13.91.56-28.3,1.15-42.44,1.79-2.06.08-3.62,0-4.54-.81l-.22-.19,0-.28A283.66,283.66,0,0,1,60.41,153.9l.22-.3A287.11,287.11,0,0,1,292.05,28.67h.22l.15.16c1.6,1.67,3.23,3.51,4.86,5.47.65.78,1.37,1.54,2.06,2.27l.54.57c2.45-5.37,6.32-7.5,12.14-6.67,3.5.5,7.39.86,12.25,1.14,21.34,1.21,43.8,6.14,70.68,15.53,9,3.15,18.32,6.4,27.05,11.9l.57.36-.51.45a82.8,82.8,0,0,0-19.32,24.09c-10.75,20.3-14.71,38.38-12.48,56.9A166.75,166.75,0,0,0,398,175c3.14,9.22,8,17.79,12.61,26.08,1.39,2.47,2.83,5,4.2,7.58,11.75,21.77,13.64,43.38,5.62,64.23h0c-8.18,21.25-23.83,38.85-49.26,55.38-2.54,1.65-4.35,1.43-6.66-.81-12.31-12-27.41-16.76-44.9-14.19-3.47.51-7,.59-8.93-4.51a59.32,59.32,0,0,0-4.67-9.11c-1-1.76-2.08-3.57-3-5.41-1.54-3-3.45-3.81-6.6-2.67-1.85.66-3.75,1.29-5.58,1.9a103.35,103.35,0,0,0-13.12,5l3.18,5.9c2.82,5.23,5.73,10.65,8.69,15.9,2.22,3.94,1.07,6.64-1.35,9.47-11.83,13.91-16.35,27.94-13.82,42.9.78,4.57.61,9.16-5.84,11.84a152.35,152.35,0,0,0-15.48,7.92c-2,1.1-3.91,2.2-5.88,3.27l-16.92,9.1c-18.46,9.92-37.55,20.17-56.22,30.44-2,1.1-3.51,1.43-4.81,1-1.65-.49-2.69-2.1-3.57-3.76-7.88-14.81-16.46-30.84-27-50.47-4.75-8.87-9.05-16.86-13.53-24.83-.16-.28-.3-.61-.45-.94-.42-.9-.84-1.84-1.58-2.08a2.56,2.56,0,0,0-2,.42c-2.94,1.63-5.91,3.23-8.88,4.82q-3.36,1.8-6.71,3.63a4.29,4.29,0,0,0-2.4,2.45,5.07,5.07,0,0,0,.84,3.61c5.23,9.59,10.49,19.38,15.58,28.84,8,14.82,16.21,30.15,24.54,45.1,1.4,2.52,1.83,4.29,1.4,5.74-.5,1.67-2.07,2.79-4.28,4l-5.43,2.86c-20.82,11-42.36,22.36-63.25,34a13,13,0,0,1-2.16,1ZM12.27,294.62c-.51,7-.77,14.06-.77,21.08A283.35,283.35,0,0,0,70.43,489.63a13,13,0,0,0,1.67-.79c20.9-11.68,42.44-23,63.27-34l5.43-2.87c2.35-1.24,3.44-2.21,3.78-3.36s-.06-2.7-1.32-5c-8.33-15-16.57-30.29-24.54-45.12-5.09-9.46-10.35-19.24-15.58-28.83a5.94,5.94,0,0,1-.93-4.36,5.25,5.25,0,0,1,2.89-3.06c2.23-1.22,4.48-2.43,6.72-3.63,3-1.59,5.93-3.18,8.87-4.81a3.39,3.39,0,0,1,2.75-.5c1.16.38,1.7,1.57,2.18,2.62a8.6,8.6,0,0,0,.42.86c4.48,8,8.78,16,13.53,24.85,10.54,19.62,19.12,35.66,27,50.47,1.07,2,1.93,3,3,3.27s2.31,0,4-.95c18.67-10.28,37.76-20.53,56.22-30.45l16.92-9.1c2-1.06,3.92-2.16,5.87-3.26a150.34,150.34,0,0,1,15.59-8c5.47-2.28,6.05-5.94,5.24-10.75-2.58-15.27,2-29.57,14-43.72,2.64-3.09,3-5.27,1.23-8.33-3-5.26-5.87-10.68-8.69-15.92l-3.43-6.35-.25-.45.47-.23a101,101,0,0,1,13.71-5.33c1.83-.6,3.72-1.23,5.56-1.89,3.64-1.32,6.06-.35,7.84,3.16.91,1.81,2,3.61,3,5.35a62.24,62.24,0,0,1,4.74,9.27c1.5,4,3.91,4.45,7.85,3.87,17.8-2.61,33.19,2.25,45.74,14.46,2.21,2.14,3.51,1.93,5.42.69,25.24-16.41,40.77-33.85,48.86-54.9h0c7.92-20.56,6-41.89-5.56-63.4-1.37-2.53-2.81-5.09-4.2-7.56-4.67-8.33-9.51-16.94-12.67-26.25a167.41,167.41,0,0,1-7.82-34.4c-2.25-18.73,1.75-37,12.6-57.49a83.76,83.76,0,0,1,19-23.94c-8.47-5.22-17.51-8.38-26.27-11.44-26.79-9.36-49.16-14.28-70.41-15.48-4.88-.28-8.8-.64-12.33-1.15-5.62-.8-9.13,1.29-11.39,6.78l-.3.73-.53-.59-1.05-1.12c-.7-.75-1.42-1.52-2.1-2.32-1.56-1.88-3.13-3.65-4.66-5.26a286.14,286.14,0,0,0-230.4,124.5c-.08.11-.15.22-.24.33A282.48,282.48,0,0,0,15.65,267a7.21,7.21,0,0,0,3.63.42c14.14-.64,28.53-1.23,42.44-1.79,17-.7,34.67-1.41,52-2.23,1-.05,1.94,0,2.9,0,2.88,0,5.87,0,8.49-1.37,14.17-7.67,28.55-15.51,42.46-23.09L181,231.51l.25.43a206.24,206.24,0,0,1,12,25l.26.64-.69.05c-4.21.25-7.79,2.34-11.26,4.36-1,.58-2,1.19-3.08,1.74-8.6,4.57-17.28,9.34-25.67,14-6,3.3-12.2,6.71-18.32,10-3.34,1.8-6.89,1.79-9.92,1.56a73.51,73.51,0,0,0-10.9.22c-2.34.17-4.76.34-7.15.36-5,0-10.07.38-15,.72-6.11.41-12.42.83-18.69.7a88.16,88.16,0,0,0-9.44.48c-2.66.24-5.41.47-8.12.51-4.26,0-8.6.37-12.79.69a135.72,135.72,0,0,1-19.17.53,36.06,36.06,0,0,0-8,.68c-1,.16-2,.32-3,.45Z"/><path class="cls-1" d="M442,74.25c2.85-2.72,4.82-1.24,7.21.27a287.29,287.29,0,0,1,83.16,78.92c27.43,39.19,44.2,82.5,49.83,130.08.16,1.39,0,3,.66,4.33-14-145.2-136.37-258.73-285.25-258.73-1.84,0-3.69,0-5.52.05,1.66,1.74,3.27,3.56,4.84,5.44,1,1.19,2.09,2.29,3.13,3.43,2.2-5.34,5.74-8,11.92-7.08,4.05.58,8.21.91,12.29,1.14,24.38,1.38,47.68,7.52,70.55,15.51,9.1,3.18,18.29,6.4,26.94,11.85A83.21,83.21,0,0,0,402.3,83.7c-9.37,17.7-15.05,36.35-12.54,57.19a167.32,167.32,0,0,0,7.79,34.3c4.09,12,10.86,22.67,16.84,33.74,11,20.42,14,42.06,5.59,63.81C410.66,297,392.31,314,370.92,327.88c-2.2,1.43-3.75,1.47-6-.75-12.64-12.3-27.88-16.88-45.32-14.32-3.66.54-6.67.41-8.39-4.19-1.91-5.1-5.22-9.67-7.71-14.57-1.64-3.23-3.8-4.16-7.22-2.92-6.28,2.27-12.77,4-19.22,7.2,4.05,7.47,8,14.92,12.12,22.26,1.95,3.45,1.31,5.85-1.29,8.9-10.58,12.44-16.78,26.44-13.93,43.31.84,4.95.24,8.89-5.54,11.29-7.4,3.09-14.31,7.38-21.41,11.21-24.4,13.14-48.86,26.19-73.14,39.55-4.16,2.29-5.88.91-7.7-2.52q-13.44-25.26-27-50.47c-4.45-8.31-8.91-16.62-13.53-24.84-.9-1.61-1.43-4.58-4.67-2.79-5.17,2.86-10.41,5.61-15.59,8.44-2.94,1.6-3.52,3.51-1.76,6.74C117,394,130.05,418.86,143.7,443.36c2.74,4.92,1.66,6.72-2.67,9-23,12.14-46,24.23-68.69,36.91a12.6,12.6,0,0,1-2.08,1q7.8,10.15,16.48,19.57a15.77,15.77,0,0,1,2.59-1.61c19.67-10.37,39.14-21.12,58.75-31.58,21.52-11.48,43.15-22.74,64.68-34.19C236.25,429.93,259.49,417,283.25,405l11.39,4.25c9.63,7.74,21.08,12.65,32.73,10.9,12.59-1.9,17,3.81,21.77,13.3,10.58,20.88,22.08,41.3,33.36,61.83,1.85,3.36.79,4.53-2.22,6.22-22.3,12.54-44.47,25.33-66.72,38-2.9,1.65-3.41,3.38-1.6,6.18a134.3,134.3,0,0,1,7.89,13.16c2.14,4.34,4.6,4.51,8.44,2.27q29.82-17.42,59.8-34.6c8.49-4.9,8.8-5,13.43,3.23,7.7,13.73,15,27.7,22.44,41.57.25.46.51.91.71,1.36q11.7-5.8,22.76-12.61a34.08,34.08,0,0,1-2.32-4c-10.24-19.25-20.77-38.34-31.16-57.51-4.69-8.65-9.21-17.39-14-26-2-3.63-.63-5.14,2.88-5.5,16.38-1.67,32.77-3.14,49.14-4.91,15.38-1.65,30.74-3.64,46.11-5.38,9.12-1,18.18-2.42,25.95,4.9,3.67,3.45,8.38,5.8,12.64,8.62a7.53,7.53,0,0,1,1.54,1.17q7.06-10.91,13.16-22.47c-10.13-6.51-19.8-12.73-29.49-18.92-1.75-1.12-3.73-1-5.74-.78Q452.09,436.13,388,443c-2.52.27-4.31.07-5.89-2.49-6.59-10.71-11.22-22.51-18.52-32.81-1.07-1.51.21-1.71,1-2.57,12.6-13.61,19.84-29.19,16.38-48.16-.75-4.14.52-6,3.75-8.05a173.21,173.21,0,0,0,38.1-32.61c10.11-11.48,18.45-24.08,23-38.9a17.13,17.13,0,0,0,2.3-8.26c5.51-20.68,2.55-40.61-5.25-60.13-4.49-11.22-11.44-21.14-16.7-32-10.41-21.43-15-43.6-7.52-67C423.09,96,431.37,84.38,442,74.25ZM356.24,369.42A34.39,34.39,0,0,1,352.07,381c-7.64,13.4-25.14,17.71-39.2,9.85l-9.17-9.51c-10.16-17.87-2.88-37,15.92-42.7,13-3.93,27.22,2.33,34.1,15.6A27.28,27.28,0,0,1,356.24,369.42Z"/><path class="cls-3" d="M300.13,618.38A300.13,300.13,0,0,1,87.91,106,300.14,300.14,0,0,1,512.36,530.48,298.2,298.2,0,0,1,300.13,618.38Zm0-578.26C146.77,40.12,22,164.89,22,318.25S146.77,596.38,300.13,596.38,578.27,471.61,578.27,318.25,453.5,40.12,300.13,40.12Z"/><path class="cls-2" d="M327.69,395.24a30.77,30.77,0,0,1-15.06-3.95l-.12-.09-9.25-9.61c-5.09-9-6.06-18.5-2.73-26.86,3.18-7.94,9.9-13.83,18.94-16.56,13.47-4.08,27.74,2.43,34.69,15.85h0a27.72,27.72,0,0,1,2.57,15.47,35.12,35.12,0,0,1-4.23,11.77A28.29,28.29,0,0,1,327.69,395.24Zm-14.51-4.78c13.79,7.67,31,3.32,38.45-9.7a34.33,34.33,0,0,0,4.12-11.42,26.83,26.83,0,0,0-2.47-14.86c-6.73-13-20.52-19.3-33.52-15.35-8.74,2.64-15.24,8.32-18.3,16-3.21,8-2.28,17.26,2.64,25.94Z"/><path class="cls-2" d="M297.58,602.78A286.31,286.31,0,0,1,86.37,510.14l-.36-.4.41-.33a16.41,16.41,0,0,1,2.68-1.67c11.23-5.92,22.59-12.07,33.58-18,8.24-4.46,16.76-9.07,25.16-13.55,11.51-6.14,23.23-12.31,34.57-18.29,9.88-5.2,20.09-10.57,30.12-15.9,7.54-4,15.19-8.15,22.58-12.14,15.63-8.45,31.78-17.17,47.92-25.28l.19-.1L295,408.87c7.49,6,19.17,12.77,32.34,10.79s17.79,4.66,22.3,13.57c8.53,16.85,17.82,33.68,26.81,49.95l6.54,11.87c2,3.6.8,5.09-2.42,6.89-13.63,7.67-27.45,15.56-40.81,23.2q-12.94,7.4-25.9,14.76c-1.39.79-2.14,1.55-2.34,2.4a4,4,0,0,0,.91,3.08l.75,1.16a120.92,120.92,0,0,1,7.17,12c.92,1.88,1.91,2.95,3,3.29s2.63,0,4.7-1.23c17.7-10.33,35.77-20.75,53.24-30.82l6.56-3.78c4.47-2.58,6.72-3.88,8.67-3.34s3.16,2.67,5.45,6.76c5.52,9.85,10.92,20,16.14,29.79q3.15,5.89,6.3,11.79l.16.29c.2.37.4.74.57,1.1l.19.44-.43.21A284.26,284.26,0,0,1,297.58,602.78ZM87.48,509.86a286.94,286.94,0,0,0,210.1,91.92A283.3,283.3,0,0,0,424,572.41c-.1-.2-.21-.4-.32-.6l-.16-.3q-3.16-5.88-6.3-11.79c-5.22-9.8-10.62-19.93-16.14-29.77-2.09-3.74-3.35-5.87-4.84-6.28s-3.8.87-7.9,3.24l-6.56,3.78c-17.47,10.07-35.54,20.48-53.24,30.82-2.32,1.35-4,1.76-5.49,1.32s-2.58-1.64-3.65-3.8a120.57,120.57,0,0,0-7.11-11.95l-.75-1.16c-1-1.53-1.32-2.75-1.05-3.86s1.18-2.09,2.82-3q13-7.35,25.9-14.76c13.37-7.64,27.18-15.53,40.82-23.2,3-1.69,3.64-2.62,2-5.54q-3.26-5.94-6.54-11.87c-9-16.28-18.28-33.11-26.83-50-4.46-8.83-8.6-14.94-21.25-13-13.48,2-25.41-4.82-33.05-10.95l-11.11-4.15c-16,8.07-32.14,16.76-47.69,25.17-7.4,4-15.05,8.12-22.6,12.14-10,5.33-20.23,10.71-30.11,15.91-11.34,6-23.06,12.14-34.56,18.28-8.41,4.48-16.93,9.09-25.16,13.55-11,5.95-22.35,12.1-33.6,18A19.13,19.13,0,0,0,87.48,509.86Z"/><path class="cls-4" d="M317,78.54c-2.36-14.94-8.95-28-17-40.5-1-1.14-2.14-2.24-3.13-3.43-1.57-1.88-3.18-3.7-4.84-5.44A96.77,96.77,0,0,0,247,2.1c-3.61-1-32.2-4.16-49.14,0a95.72,95.72,0,0,0-70.56,79.44c-.21,1.43-.51,2.85-.81,4.26-.15.7-.3,1.41-.44,2.11-1.24,22.89,5.94,43.52,16,63.68,13.35,26.66,25.88,53.73,38.76,80.62a203.67,203.67,0,0,1,11.93,24.94l29.59,59.8c1.86-3.67,3.34-6.42,4.69-9.24q41.38-86.61,82.74-173.24C318.29,116.63,320.06,97.93,317,78.54ZM249.65,108.4c-9.45,13.84-28.25,18.48-42.1,10.39a8.48,8.48,0,0,1-4.48-2.6,7.06,7.06,0,0,1-3.8-3.25A21.36,21.36,0,0,1,192,102.3a7.88,7.88,0,0,1-1.79-4.89,26,26,0,0,1,1.07-18.86q4.62-15.48,20.11-20.07a26.68,26.68,0,0,1,18.84-1.07,7.62,7.62,0,0,1,4.87,1.84l3.43,1.6,1.29.92.07,0-.09-.09A2.24,2.24,0,0,1,242,63.16l.05,0,1.22,1.08h0l1.19,1.15h0C257.14,75.65,259.37,94.17,249.65,108.4Z"/><path class="cls-2" d="M242,63.15a2.15,2.15,0,0,1-2.21-1.42A2.24,2.24,0,0,1,242,63.15Z"/><path class="cls-2" d="M239.86,61.81l-1.36-1Z"/><path class="cls-2" d="M243.25,64.26,242,63.19Z"/><path class="cls-2" d="M244.45,65.43l-1.19-1.15Z"/></g></g></svg>