<svg xmlns="http://www.w3.org/2000/svg" xmlns:xlink="http://www.w3.org/1999/xlink" viewBox="0 0 1006.5 432.3"><defs><style>.cls-1{fill:none;}.cls-2{clip-path:url(#clip-path);}.cls-3{fill:url(#radial-gradient);}.cls-4{fill:#fff;}</style><clipPath id="clip-path" transform="translate(0 6.6)"><path class="cls-1" d="M211,91a65.4,65.4,0,1,1-65.4,65.5A65.42,65.42,0,0,1,211,91m0-18.2a83.6,83.6,0,1,0,83.6,83.6A83.56,83.56,0,0,0,211,72.8Zm143.8-.2H340V55.8H323.5V72.6H306.7V89.1h16.8v16.8H340V89.1h16.8V72.6ZM354.7,0H67.4C30.2,0,0,27.8,0,62V315.5c0,34.3,30.2,62.1,67.4,62.1h86.8l50.1,45.5a10.21,10.21,0,0,0,13.5,0l50.1-45.5h86.8c37.2,0,67.4-27.8,67.4-62.1V62C422.1,27.7,391.9,0,354.7,0ZM260.8,359.4l-5.2,4.7L211,404.6l-44.6-40.5-5.2-4.7H76.7a87.94,87.94,0,0,1,87.5-80.6h99.7a81.82,81.82,0,0,1,81.7,80.6Zm143-43.9c0,21.4-17.3,39.3-40,43.1a100.06,100.06,0,0,0-99.9-98H164.2a106.18,106.18,0,0,0-105.7,98c-22.9-3.7-40.3-21.6-40.3-43.1V62c0-24.2,22.1-43.9,49.2-43.9H354.6c27.1,0,49.2,19.7,49.2,43.9Z"/></clipPath><radialGradient id="radial-gradient" cx="-21.81" cy="257.53" fx="-44.1933770558725" fy="272.962663653543" r="508.85" gradientTransform="matrix(0.59, -0.87, 1.22, 0.88, -172.42, 209.21)" gradientUnits="userSpaceOnUse"><stop offset="0" stop-color="#f9ff00"/><stop offset="0.04" stop-color="#edfe04"/><stop offset="0.12" stop-color="#cefa0e"/><stop offset="0.23" stop-color="#9cf41e"/><stop offset="0.35" stop-color="#55ec35"/><stop offset="0.49" stop-color="#00e251"/><stop offset="0.54" stop-color="#00d957"/><stop offset="0.61" stop-color="#00c269"/><stop offset="0.71" stop-color="#019c85"/><stop offset="0.82" stop-color="#0166ad"/><stop offset="0.94" stop-color="#0223df"/><stop offset="1" stop-color="#0200f9"/></radialGradient></defs><title>logo-drk-bg</title><g id="Layer_2" data-name="Layer 2"><g id="Layer_1-2" data-name="Layer 1"><g class="cls-2"><rect class="cls-3" width="422" height="432.3"/></g><path class="cls-4" d="M619.6,65.7a43.52,43.52,0,0,1,.5,21.8,30.48,30.48,0,0,1-2.4,7.2c10.8,13.4,16.2,29.6,16.1,48.4q0,33-23.4,56.4T554,222.9q-33,0-56.4-23.4t-23.4-56.4q.15-33,23.5-56.4t56.4-23.4c21.1,0,38.5,6.4,52,19.2-.4,1.5-.4,1.9-.2,1,1.2-5.1.6-11-1.8-17.8ZM554,207.7a64.36,64.36,0,0,0,64.6-64.2v-.4a64.6,64.6,0,1,0-129.2,0h0a64.36,64.36,0,0,0,64.2,64.6Zm.2,23.3a53.78,53.78,0,0,1,39.7,16.6,56.07,56.07,0,0,1,0,79.3l-.1.1a56.21,56.21,0,0,1-79.5-79.5h0A54,54,0,0,1,554.2,231Zm-.2,97.7a41.1,41.1,0,1,0-29.3-12.2A40.42,40.42,0,0,0,554,328.7Z" transform="translate(0 6.6)"/><path class="cls-4" d="M788.9,190.6c-.7,1.1-3.4,4.1-8.2,8.9q-23.4,23.4-56.4,23.4t-56.4-23.4q-23.4-23.4-23.4-56.4T668,86.7q23.4-23.55,56.4-23.5t56.4,23.4Q804.2,110,804.1,143v78H788.9Zm-64.6,17a64.36,64.36,0,0,0,64.6-64.2V143a64.65,64.65,0,1,0-129.3-.1v.1a64.36,64.36,0,0,0,64.2,64.6Z" transform="translate(0 6.6)"/><path class="cls-4" d="M841.7,47.9H826.4V33.4h15.3Zm0,173.1H826.4V65.6h15.3Z" transform="translate(0 6.6)"/><path class="cls-4" d="M863.9,143.7q.45-32.85,21.1-56.1t50-23.4c19.5,0,36.1,7.8,50.1,23.5q20.7,23.25,21,56.2v77.4H991.2V143.9q-.3-26.4-16.8-45c-10.9-12.3-24-18.5-39.3-18.5s-28.5,6.1-39.4,18.3q-16.5,18.6-16.9,44.8v77.7H863.9V143.7Z" transform="translate(0 6.6)"/><path class="cls-4" d="M664.6,288.5l-5.9-1.5c-1-.3-1.9-.5-2.9-.7-.8-.2-1.8-.4-2.8-.7-3.4-1.1-5.1-2.9-5.1-5.6a5.5,5.5,0,0,1,2.7-5,12.58,12.58,0,0,1,6.6-1.5c6.4,0,9.6,3,9.8,9.1a.47.47,0,0,0,.5.5h2.8a.76.76,0,0,0,.4-.2c.1-.1.1-.2.1-.4-.3-8.6-5-12.9-13.7-12.9h0a16,16,0,0,0-8.8,2.1,9.5,9.5,0,0,0-4.4,8.3q0,6.6,6.9,9l4.9,1.2,4.8,1.3.9.3a2.92,2.92,0,0,0,.9.2h0c3.4,1.2,5.1,3.1,5.1,6.1a6.41,6.41,0,0,1-.8,3,7.71,7.71,0,0,1-2.1,2.3,12.31,12.31,0,0,1-6.8,1.7c-7.4,0-11.1-3.6-11.1-10.9a.47.47,0,0,0-.5-.5h-2.7c-.1,0-.3.1-.4.1s-.1.2-.1.4c0,5.1,1.4,9,4.3,11.4a14.21,14.21,0,0,0,4.7,2.5,18.7,18.7,0,0,0,5.7.8h.3a19.93,19.93,0,0,0,4.9-.6,15,15,0,0,0,4.1-1.8,11.7,11.7,0,0,0,3.4-3.6,10.05,10.05,0,0,0,1.2-4.8Q671.5,290.9,664.6,288.5Z" transform="translate(0 6.6)"/><path class="cls-4" d="M706.5,273.5a16.74,16.74,0,0,0-12.5-4,17,17,0,0,0-11.6,6c-2.8,3.5-4.2,8.1-4.2,13.6s1.4,10.1,4.3,13.7a17,17,0,0,0,1.9,1.9,16.75,16.75,0,0,0,11.1,4.1,6.6,6.6,0,0,0,1.4-.1,17.17,17.17,0,0,0,11.7-6c2.8-3.6,4.2-8.2,4.2-13.6s-1.4-10-4.3-13.6C707.8,274.8,707.2,274.1,706.5,273.5Zm2.3,15.6a17.3,17.3,0,0,1-3.4,11.2,9.27,9.27,0,0,1-1.4,1.4,13.25,13.25,0,0,1-18.6-1.4,17.3,17.3,0,0,1-3.4-11.2,17.69,17.69,0,0,1,3.4-11.1,9.27,9.27,0,0,1,1.4-1.4,13.5,13.5,0,0,1,8.6-3.2,13.27,13.27,0,0,1,10,4.6,17.69,17.69,0,0,1,3.4,11.1Z" transform="translate(0 6.6)"/><path class="cls-4" d="M752.8,291.4h-3a.46.46,0,0,0-.5.4,22.64,22.64,0,0,1-1.4,5.7,13.13,13.13,0,0,1-2.6,4,11.9,11.9,0,0,1-8.8,3.4,11.32,11.32,0,0,1-9.6-4.7,17,17,0,0,1-3.5-10.9A17.56,17.56,0,0,1,727,278a12.15,12.15,0,0,1,10.2-4.7h.2a12.75,12.75,0,0,1,7.3,2.4,9.68,9.68,0,0,1,3.8,7.4.47.47,0,0,0,.5.5h2.9c.1,0,.3-.1.4-.1s.1-.2.1-.4a13.37,13.37,0,0,0-5.3-10.4,16.22,16.22,0,0,0-9.7-3.3h-.2a16.36,16.36,0,0,0-13.2,6,21.81,21.81,0,0,0-4.4,13.9,21.29,21.29,0,0,0,4.3,13.4,6.47,6.47,0,0,0,.8.9,16.58,16.58,0,0,0,12,5.1,15.53,15.53,0,0,0,14.8-9.8,28.85,28.85,0,0,0,1.8-7,.6.6,0,0,0-.1-.4C753.1,291.5,753,291.4,752.8,291.4Z" transform="translate(0 6.6)"/><path class="cls-4" d="M763.2,270.3h-2.9a.47.47,0,0,0-.5.5v36.7a.47.47,0,0,0,.5.5h2.9a.47.47,0,0,0,.5-.5V270.8A.47.47,0,0,0,763.2,270.3Z" transform="translate(0 6.6)"/><path class="cls-4" d="M787.7,270.6a.55.55,0,0,0-.5-.3h-2.6a.55.55,0,0,0-.5.3l-14.7,36.7c-.1.2,0,.3,0,.5s.2.2.4.2h3.3a.55.55,0,0,0,.5-.3c.7-1.8,1.4-3.6,2.2-5.7l2.2-5.4h15.5l4.4,11.1a.55.55,0,0,0,.5.3h3.2a.52.52,0,0,0,.4-.2.75.75,0,0,0,.1-.5Zm-8.1,22c1.2-2.9,2.3-5.7,3.3-8.3l3.1-7.6,1.4,3.5c.4.9.7,1.8,1.1,2.7l.6,1.5.5,1.3c.4,1,.8,2,1.2,2.9q.75,1.8,1.5,3.9H779.6Z" transform="translate(0 6.6)"/><path class="cls-4" d="M831.5,304.1H811.9V270.8a.47.47,0,0,0-.5-.5h-2.9a.47.47,0,0,0-.5.5v36.7a.47.47,0,0,0,.5.5h23a.47.47,0,0,0,.5-.5v-2.9A.47.47,0,0,0,831.5,304.1Z" transform="translate(0 6.6)"/><path class="cls-4" d="M887.9,270.3h-3.2a.55.55,0,0,0-.5.3c-2.3,5.3-4.6,10.6-7,16l-6.5,15-13.6-31a.55.55,0,0,0-.5-.3h-3.2a.47.47,0,0,0-.5.5v36.7a.47.47,0,0,0,.5.5h2.9a.47.47,0,0,0,.5-.5V280l12.1,27.7a.55.55,0,0,0,.5.3h2.3a.55.55,0,0,0,.5-.3c2.1-4.9,4.3-9.9,6.5-14.9,1.9-4.3,3.7-8.6,5.6-12.9l.1,27.6a.47.47,0,0,0,.5.5h2.9a.47.47,0,0,0,.5-.5V270.8c0-.1-.1-.3-.1-.4S888.1,270.3,887.9,270.3Z" transform="translate(0 6.6)"/><path class="cls-4" d="M921.8,304.1H900.2V290.3h20.2a.47.47,0,0,0,.5-.5v-2.9a.47.47,0,0,0-.5-.5H900.2V274.2h21.4a.47.47,0,0,0,.5-.5v-2.9a.47.47,0,0,0-.5-.5H896.8a.47.47,0,0,0-.5.5v36.7a.47.47,0,0,0,.5.5h25a.47.47,0,0,0,.5-.5v-2.9A.47.47,0,0,0,921.8,304.1Z" transform="translate(0 6.6)"/><path class="cls-4" d="M941.3,270.3h-13a.47.47,0,0,0-.5.5v36.7a.47.47,0,0,0,.5.5h11.5c5.5,0,9.9-1.8,13.2-5.3q4.5-5.1,4.5-13.5h0c0-5.4-1.3-9.8-3.7-13.2C950.9,272.2,946.7,270.3,941.3,270.3Zm12.3,18.8c0,4.5-1.1,8.1-3.4,10.8a13.13,13.13,0,0,1-4.3,3.1,12.78,12.78,0,0,1-5.8,1.1h-8.4V274.2h9.4c4.4,0,7.6,1.4,9.6,4.1s2.9,6.2,2.9,10.8Z" transform="translate(0 6.6)"/><path class="cls-4" d="M967.6,270.3h-2.9a.47.47,0,0,0-.5.5v36.7a.47.47,0,0,0,.5.5h2.9a.47.47,0,0,0,.5-.5V270.8A.47.47,0,0,0,967.6,270.3Z" transform="translate(0 6.6)"/><path class="cls-4" d="M1006.5,307.3l-14.4-36.7a.55.55,0,0,0-.5-.3H989a.55.55,0,0,0-.5.3l-14.8,36.7c-.1.2,0,.3,0,.5s.2.2.4.2h3.3a.55.55,0,0,0,.5-.3c.7-1.9,1.5-3.8,2.2-5.7l2.2-5.4h15.5l4.4,11.1a.55.55,0,0,0,.5.3h3.2a.52.52,0,0,0,.4-.2A.55.55,0,0,0,1006.5,307.3ZM984,292.6q1.65-4.35,3.3-8.1l.1-.1c1-2.4,2-5,3.1-7.6.5,1.2.9,2.4,1.3,3.5l.5,1.3c.4,1,.8,2,1.1,2.9.5,1.4,1.1,2.8,1.7,4.2q.75,1.8,1.5,3.9Z" transform="translate(0 6.6)"/></g></g></svg>