<?xml version="1.0" encoding="utf-8"?>
<!-- Generator: Adobe Illustrator 24.0.1, SVG Export Plug-In . SVG Version: 6.00 Build 0)  -->
<svg version="1.1" id="Layer_1" xmlns="http://www.w3.org/2000/svg" xmlns:xlink="http://www.w3.org/1999/xlink" x="0px" y="0px"
	 viewBox="0 0 1014.7 435.1" style="enable-background:new 0 0 1014.7 435.1;" xml:space="preserve">
<style type="text/css">
	.st0{clip-path:url(#SVGID_2_);fill:url(#SVGID_3_);}
	.st1{clip-path:url(#SVGID_2_);fill:url(#SVGID_4_);}
	.st2{clip-path:url(#SVGID_6_);fill:url(#SVGID_7_);}
	.st3{clip-path:url(#SVGID_6_);fill:url(#SVGID_8_);}
	.st4{clip-path:url(#SVGID_10_);fill:url(#SVGID_11_);}
	.st5{clip-path:url(#SVGID_10_);fill:url(#SVGID_12_);}
	.st6{fill:#334451;}
</style>
<title>Gain Logo Horizontal</title>
<g>
	<defs>
		<path id="SVGID_1_" d="M215.6,97.6c36.1,0,65.4,29.3,65.4,65.4c0,36.1-29.3,65.4-65.4,65.4c-36.1,0-65.3-29.2-65.4-65.3
			C150.3,126.9,179.5,97.7,215.6,97.6 M215.6,79.4c-46.2,0-83.6,37.4-83.6,83.6s37.4,83.6,83.6,83.6s83.6-37.4,83.6-83.6
			S261.8,79.4,215.6,79.4C215.6,79.4,215.6,79.4,215.6,79.4z"/>
	</defs>
	<clipPath id="SVGID_2_">
		<use xlink:href="#SVGID_1_"  style="overflow:visible;"/>
	</clipPath>
	
		<radialGradient id="SVGID_3_" cx="30.3141" cy="306.3054" r="508.85" fx="7.9325" fy="321.7388" gradientTransform="matrix(0.59 -0.87 -1.22 -0.88 489.3 750.73)" gradientUnits="userSpaceOnUse">
		<stop  offset="0.17" style="stop-color:#F9ED32"/>
		<stop  offset="0.27" style="stop-color:#C4D939"/>
		<stop  offset="0.41" style="stop-color:#7EBD41"/>
		<stop  offset="0.5" style="stop-color:#52AD47"/>
		<stop  offset="0.55" style="stop-color:#41A649"/>
		<stop  offset="0.6" style="stop-color:#3EA151"/>
		<stop  offset="0.68" style="stop-color:#369266"/>
		<stop  offset="0.77" style="stop-color:#2A7A8A"/>
		<stop  offset="0.87" style="stop-color:#1859BB"/>
		<stop  offset="0.99" style="stop-color:#022EF9"/>
		<stop  offset="1" style="stop-color:#002AFF"/>
	</radialGradient>
	<rect x="4.6" class="st0" width="422" height="432.3"/>
	
		<radialGradient id="SVGID_4_" cx="85.4313" cy="300.367" r="507.64" fx="63.1004" fy="315.7698" gradientTransform="matrix(0.61 -0.87 -1.25 -0.88 455.69 795.94)" gradientUnits="userSpaceOnUse">
		<stop  offset="2.000000e-02" style="stop-color:#FFF333"/>
		<stop  offset="9.000000e-02" style="stop-color:#ECE834"/>
		<stop  offset="0.23" style="stop-color:#BCCB38"/>
		<stop  offset="0.44" style="stop-color:#6F9E3D"/>
		<stop  offset="0.51" style="stop-color:#538D3F"/>
		<stop  offset="1" style="stop-color:#3366CC"/>
	</radialGradient>
	<rect y="3.8" class="st1" width="431.3" height="431.3"/>
</g>
<g>
	<defs>
		<polygon id="SVGID_5_" points="359.4,79.2 344.6,79.2 344.6,64.4 344.6,62.4 342.6,62.4 330.1,62.4 328.1,62.4 328.1,64.4 
			328.1,79.2 313.3,79.2 311.3,79.2 311.3,81.2 311.3,93.7 311.3,95.7 313.3,95.7 328.1,95.7 328.1,110.5 328.1,112.5 330.1,112.5 
			342.6,112.5 344.6,112.5 344.6,110.5 344.6,95.7 359.4,95.7 361.4,95.7 361.4,93.7 361.4,81.2 361.4,79.2 		"/>
	</defs>
	<clipPath id="SVGID_6_">
		<use xlink:href="#SVGID_5_"  style="overflow:visible;"/>
	</clipPath>
	
		<radialGradient id="SVGID_7_" cx="30.3141" cy="306.3054" r="508.85" fx="7.9325" fy="321.7388" gradientTransform="matrix(0.59 -0.87 -1.22 -0.88 489.3 750.73)" gradientUnits="userSpaceOnUse">
		<stop  offset="0.17" style="stop-color:#F9ED32"/>
		<stop  offset="0.27" style="stop-color:#C4D939"/>
		<stop  offset="0.41" style="stop-color:#7EBD41"/>
		<stop  offset="0.5" style="stop-color:#52AD47"/>
		<stop  offset="0.55" style="stop-color:#41A649"/>
		<stop  offset="0.6" style="stop-color:#3EA151"/>
		<stop  offset="0.68" style="stop-color:#369266"/>
		<stop  offset="0.77" style="stop-color:#2A7A8A"/>
		<stop  offset="0.87" style="stop-color:#1859BB"/>
		<stop  offset="0.99" style="stop-color:#022EF9"/>
		<stop  offset="1" style="stop-color:#002AFF"/>
	</radialGradient>
	<rect x="4.6" class="st2" width="422" height="432.3"/>
	
		<radialGradient id="SVGID_8_" cx="85.4313" cy="300.367" r="507.64" fx="63.1004" fy="315.7698" gradientTransform="matrix(0.61 -0.87 -1.25 -0.88 455.69 795.94)" gradientUnits="userSpaceOnUse">
		<stop  offset="2.000000e-02" style="stop-color:#FFF333"/>
		<stop  offset="9.000000e-02" style="stop-color:#ECE834"/>
		<stop  offset="0.23" style="stop-color:#BCCB38"/>
		<stop  offset="0.44" style="stop-color:#6F9E3D"/>
		<stop  offset="0.51" style="stop-color:#538D3F"/>
		<stop  offset="1" style="stop-color:#3366CC"/>
	</radialGradient>
	<rect y="3.8" class="st3" width="431.3" height="431.3"/>
</g>
<g>
	<defs>
		<path id="SVGID_9_" d="M359.3,6.6H72C34.8,6.6,4.6,34.4,4.6,68.6v253.5c0,34.3,30.2,62.1,67.4,62.1h86.8l50.1,45.5
			c3.9,3.4,9.7,3.4,13.5,0l50.1-45.5h86.8c37.2,0,67.4-27.8,67.4-62.1V68.6C426.7,34.3,396.5,6.6,359.3,6.6z M265.4,366l-5.2,4.7
			l-44.6,40.5l-44.6-40.5l-5.2-4.7H81.3c3.8-45.5,41.8-80.5,87.5-80.6h99.7c44.7,0.1,81,35.9,81.7,80.6H265.4z M408.4,322.1
			c0,21.4-17.3,39.3-40,43.1c-1.1-54.4-45.5-97.9-99.9-98h-99.7c-55.4,0.1-101.5,42.8-105.7,98c-22.9-3.7-40.3-21.6-40.3-43.1V68.6
			c0-24.2,22.1-43.9,49.2-43.9h287.2c27.1,0,49.2,19.7,49.2,43.9L408.4,322.1z"/>
	</defs>
	<clipPath id="SVGID_10_">
		<use xlink:href="#SVGID_9_"  style="overflow:visible;"/>
	</clipPath>
	
		<radialGradient id="SVGID_11_" cx="30.3141" cy="306.3054" r="508.85" fx="7.9325" fy="321.7388" gradientTransform="matrix(0.59 -0.87 -1.22 -0.88 489.3 750.73)" gradientUnits="userSpaceOnUse">
		<stop  offset="0.17" style="stop-color:#F9ED32"/>
		<stop  offset="0.27" style="stop-color:#C4D939"/>
		<stop  offset="0.41" style="stop-color:#7EBD41"/>
		<stop  offset="0.5" style="stop-color:#52AD47"/>
		<stop  offset="0.55" style="stop-color:#41A649"/>
		<stop  offset="0.6" style="stop-color:#3EA151"/>
		<stop  offset="0.68" style="stop-color:#369266"/>
		<stop  offset="0.77" style="stop-color:#2A7A8A"/>
		<stop  offset="0.87" style="stop-color:#1859BB"/>
		<stop  offset="0.99" style="stop-color:#022EF9"/>
		<stop  offset="1" style="stop-color:#002AFF"/>
	</radialGradient>
	<rect x="4.6" class="st4" width="422" height="432.3"/>
	
		<radialGradient id="SVGID_12_" cx="85.4313" cy="300.367" r="507.64" fx="63.1004" fy="315.7698" gradientTransform="matrix(0.61 -0.87 -1.25 -0.88 455.69 795.94)" gradientUnits="userSpaceOnUse">
		<stop  offset="2.000000e-02" style="stop-color:#FFF333"/>
		<stop  offset="9.000000e-02" style="stop-color:#ECE834"/>
		<stop  offset="0.23" style="stop-color:#BCCB38"/>
		<stop  offset="0.44" style="stop-color:#6F9E3D"/>
		<stop  offset="0.51" style="stop-color:#538D3F"/>
		<stop  offset="1" style="stop-color:#3366CC"/>
	</radialGradient>
	<rect y="3.8" class="st5" width="431.3" height="431.3"/>
</g>
<path class="st6" d="M624.2,72.3c2,7.1,2.2,14.6,0.5,21.8c-0.5,2.5-1.3,4.9-2.4,7.2c10.8,13.4,16.2,29.6,16.1,48.4
	c0,22-7.8,40.8-23.4,56.4s-34.4,23.4-56.4,23.4c-22,0-40.8-7.8-56.4-23.4c-15.6-15.6-23.4-34.4-23.4-56.4c0.1-22,7.9-40.8,23.5-56.4
	s34.4-23.4,56.4-23.4c21.1,0,38.5,6.4,52,19.2c-0.4,1.5-0.4,1.9-0.2,1c1.2-5.1,0.6-11-1.8-17.8L624.2,72.3z M558.6,214.3
	c35.6,0.1,64.5-28.6,64.6-64.2c0-0.1,0-0.3,0-0.4c0-35.7-28.9-64.6-64.6-64.6S494,114,494,149.7l0,0c-0.1,35.6,28.6,64.5,64.2,64.6
	C558.4,214.3,558.5,214.3,558.6,214.3z M558.8,237.6c15.5,0,28.7,5.5,39.7,16.6c21.9,21.9,21.9,57.4,0,79.3c0,0-0.1,0.1-0.1,0.1
	c-21.9,21.9-57.5,21.9-79.5,0c-21.9-21.9-21.9-57.5,0-79.5l0,0C529.3,243.3,543.8,237.3,558.8,237.6L558.8,237.6z M558.6,335.3
	c22.9,0,41.4-18.6,41.4-41.5c0-11-4.4-21.5-12.1-29.3c-16.4-16-42.6-15.6-58.6,0.8c-15.7,16.1-15.7,41.7,0,57.8
	C537,331,547.6,335.4,558.6,335.3L558.6,335.3z"/>
<path class="st6" d="M793.5,197.2c-0.7,1.1-3.4,4.1-8.2,8.9c-15.6,15.6-34.4,23.4-56.4,23.4c-22,0-40.8-7.8-56.4-23.4
	c-15.6-15.6-23.4-34.4-23.4-56.4s7.8-40.8,23.5-56.4C688.2,77.6,707,69.8,729,69.8s40.8,7.8,56.4,23.4
	c15.6,15.6,23.4,34.4,23.3,56.4v78h-15.2V197.2z M728.9,214.2c35.6,0.1,64.5-28.6,64.6-64.2c0-0.1,0-0.3,0-0.4
	c0-35.7-28.9-64.6-64.6-64.7c-35.7,0-64.6,28.9-64.7,64.6c0,0,0,0.1,0,0.1c-0.1,35.6,28.6,64.5,64.2,64.6
	C728.6,214.2,728.7,214.2,728.9,214.2z"/>
<path class="st6" d="M846.3,54.5H831V40h15.3L846.3,54.5z M846.3,227.6H831V72.2h15.3L846.3,227.6z"/>
<path class="st6" d="M868.5,150.3c0.3-21.9,7.3-40.6,21.1-56.1c13.8-15.6,30.5-23.4,50-23.4s36.1,7.8,50.1,23.5
	c13.8,15.5,20.8,34.2,21,56.2v77.4h-14.9v-77.4c-0.2-17.6-5.8-32.6-16.8-45C968.1,93.2,955,87,939.7,87c-15.3,0-28.5,6.1-39.4,18.3
	c-11,12.4-16.6,27.3-16.9,44.8v77.7h-14.9V150.3z"/>
<g>
	<path class="st6" d="M669.2,295.1l-5.9-1.5c-1-0.3-1.9-0.5-2.9-0.7c-0.8-0.2-1.8-0.4-2.8-0.7c-3.4-1.1-5.1-2.9-5.1-5.6
		c-0.1-2.1,1-4,2.7-5c2-1.1,4.3-1.6,6.6-1.5c6.4,0,9.6,3,9.8,9.1c0,0.3,0.2,0.5,0.5,0.5h2.8c0.1,0,0.3-0.1,0.4-0.2
		c0.1-0.1,0.1-0.2,0.1-0.4c-0.3-8.6-5-12.9-13.7-12.9c0,0,0,0,0,0c-3.1-0.2-6.1,0.6-8.8,2.1c-2.8,1.8-4.5,4.9-4.4,8.3
		c0,4.4,2.3,7.4,6.9,9c1.6,0.4,3.3,0.8,4.9,1.2l4.8,1.3c0.3,0.1,0.6,0.2,0.9,0.3c0.3,0.1,0.6,0.2,0.9,0.2c0,0,0,0,0,0
		c3.4,1.2,5.1,3.1,5.1,6.1c0,1-0.3,2.1-0.8,3c-0.5,0.9-1.3,1.7-2.1,2.3c-2,1.2-4.4,1.8-6.8,1.7c-7.4,0-11.1-3.6-11.1-10.9
		c0-0.3-0.2-0.5-0.5-0.5H648c-0.1,0-0.3,0.1-0.4,0.1s-0.1,0.2-0.1,0.4c0,5.1,1.4,9,4.3,11.4c1.4,1.1,3,2,4.7,2.5
		c1.9,0.6,3.8,0.8,5.7,0.8c0.1,0,0.2,0,0.3,0c1.7,0,3.3-0.2,4.9-0.6c1.5-0.4,2.8-1,4.1-1.8c1.4-0.9,2.5-2.2,3.4-3.6
		c0.8-1.5,1.2-3.1,1.2-4.8C676.1,299.9,673.8,296.7,669.2,295.1z"/>
	<path class="st6" d="M711.1,280.1c-3.5-3-7.9-4.4-12.5-4c-4.5,0.4-8.7,2.5-11.6,6c-2.8,3.5-4.2,8.1-4.2,13.6s1.4,10.1,4.3,13.7
		c0.6,0.7,1.2,1.3,1.9,1.9c3.1,2.7,7,4.1,11.1,4.1c0.5,0,0.9,0,1.4-0.1c4.6-0.4,8.7-2.5,11.7-6c2.8-3.6,4.2-8.2,4.2-13.6
		c0-5.5-1.4-10-4.3-13.6C712.4,281.4,711.8,280.7,711.1,280.1z M713.4,295.7c0.2,4-1,8-3.4,11.2c-0.4,0.5-0.9,1-1.4,1.4
		c-5.5,4.7-13.9,4.1-18.6-1.4c-2.4-3.2-3.6-7.2-3.4-11.2c0-4.5,1.2-8.3,3.4-11.1c0.4-0.5,0.9-1,1.4-1.4c2.5-2.1,5.6-3.2,8.6-3.2
		c3.7,0,7.4,1.6,10,4.6C712.2,287.4,713.4,291.2,713.4,295.7C713.4,295.7,713.4,295.7,713.4,295.7z"/>
	<path class="st6" d="M757.4,298l-3,0c0,0,0,0,0,0c-0.3,0-0.5,0.2-0.5,0.4c-0.2,1.9-0.7,3.9-1.4,5.7c-0.6,1.5-1.5,2.8-2.6,4
		c-2.3,2.3-5.5,3.5-8.8,3.4c-3.8,0.1-7.4-1.6-9.6-4.7c-2.4-3.1-3.6-6.9-3.5-10.9c-0.1-4.1,1.1-8.1,3.6-11.3
		c2.4-3.1,6.2-4.9,10.2-4.7c0.1,0,0.1,0,0.2,0c2.6,0,5.2,0.9,7.3,2.4c2.3,1.8,3.7,4.4,3.8,7.4c0,0.3,0.2,0.5,0.5,0.5h2.9
		c0.1,0,0.3-0.1,0.4-0.1s0.1-0.2,0.1-0.4c-0.1-4.1-2-7.9-5.3-10.4c-2.8-2.1-6.2-3.3-9.7-3.3c-0.1,0-0.1,0-0.2,0
		c-5.1-0.2-10,2.1-13.2,6c-2.9,3.7-4.4,8.3-4.4,13.9c0,5.3,1.5,9.8,4.3,13.4c0.2,0.3,0.5,0.6,0.8,0.9c3.3,3.4,7.6,5.1,12,5.1
		c4.1,0,8.2-1.5,11.4-4.6c1.5-1.5,2.6-3.3,3.4-5.2c0.9-2.3,1.5-4.6,1.8-7c0-0.1,0-0.3-0.1-0.4C757.7,298.1,757.6,298,757.4,298z"/>
	<path class="st6" d="M767.8,276.9h-2.9c-0.3,0-0.5,0.2-0.5,0.5v36.7c0,0.3,0.2,0.5,0.5,0.5h2.9c0.3,0,0.5-0.2,0.5-0.5v-36.7
		C768.3,277.1,768.1,276.9,767.8,276.9z"/>
	<path class="st6" d="M792.3,277.2c-0.1-0.2-0.3-0.3-0.5-0.3h-2.6c-0.2,0-0.4,0.1-0.5,0.3L774,313.9c-0.1,0.2,0,0.3,0,0.5
		s0.2,0.2,0.4,0.2h3.3c0.2,0,0.4-0.1,0.5-0.3c0.7-1.8,1.4-3.6,2.2-5.7l2.2-5.4h15.5l4.4,11.1c0.1,0.2,0.3,0.3,0.5,0.3h3.2
		c0.2,0,0.3-0.1,0.4-0.2c0.1-0.1,0.1-0.3,0.1-0.5L792.3,277.2z M784.2,299.2c1.2-2.9,2.3-5.7,3.3-8.3l3.1-7.6l1.4,3.5
		c0.4,0.9,0.7,1.8,1.1,2.7c0.2,0.5,0.4,1,0.6,1.5l0.5,1.3c0.4,1,0.8,2,1.2,2.9c0.5,1.2,1,2.5,1.5,3.9H784.2z"/>
	<path class="st6" d="M836.1,310.7h-19.6v-33.3c0-0.3-0.2-0.5-0.5-0.5h-2.9c-0.3,0-0.5,0.2-0.5,0.5v36.7c0,0.3,0.2,0.5,0.5,0.5h23
		c0.3,0,0.5-0.2,0.5-0.5v-2.9C836.6,310.9,836.4,310.7,836.1,310.7z"/>
	<path class="st6" d="M892.5,276.9h-3.2c-0.2,0-0.4,0.1-0.5,0.3c-2.3,5.3-4.6,10.6-7,16l-6.5,15l-13.6-31c-0.1-0.2-0.3-0.3-0.5-0.3
		h-3.2c-0.3,0-0.5,0.2-0.5,0.5v36.7c0,0.3,0.2,0.5,0.5,0.5h2.9c0.3,0,0.5-0.2,0.5-0.5v-27.5l12.1,27.7c0.1,0.2,0.3,0.3,0.5,0.3h2.3
		c0.2,0,0.4-0.1,0.5-0.3c2.1-4.9,4.3-9.9,6.5-14.9c1.9-4.3,3.7-8.6,5.6-12.9l0.1,27.6c0,0.3,0.2,0.5,0.5,0.5h2.9
		c0.3,0,0.5-0.2,0.5-0.5l0-36.7c0-0.1-0.1-0.3-0.1-0.4S892.7,276.9,892.5,276.9z"/>
	<path class="st6" d="M926.4,310.7h-21.6v-13.8H925c0.3,0,0.5-0.2,0.5-0.5v-2.9c0-0.3-0.2-0.5-0.5-0.5h-20.2v-12.2h21.4
		c0.3,0,0.5-0.2,0.5-0.5v-2.9c0-0.3-0.2-0.5-0.5-0.5h-24.8c-0.3,0-0.5,0.2-0.5,0.5v36.7c0,0.3,0.2,0.5,0.5,0.5h25
		c0.3,0,0.5-0.2,0.5-0.5v-2.9C926.9,310.9,926.7,310.7,926.4,310.7z"/>
	<path class="st6" d="M945.9,276.9h-13c-0.3,0-0.5,0.2-0.5,0.5v36.7c0,0.3,0.2,0.5,0.5,0.5h11.5c5.5,0,9.9-1.8,13.2-5.3
		c3-3.4,4.5-7.9,4.5-13.5c0,0,0,0,0,0c0-5.4-1.3-9.8-3.7-13.2C955.5,278.8,951.3,276.9,945.9,276.9z M958.2,295.7
		c0,4.5-1.1,8.1-3.4,10.8c-1.2,1.3-2.7,2.4-4.3,3.1c-1.8,0.8-3.8,1.2-5.8,1.1h-8.4v-29.9h9.4c4.4,0,7.6,1.4,9.6,4.1
		C957.2,287.5,958.2,291.1,958.2,295.7C958.2,295.7,958.2,295.7,958.2,295.7z"/>
	<path class="st6" d="M972.2,276.9h-2.9c-0.3,0-0.5,0.2-0.5,0.5v36.7c0,0.3,0.2,0.5,0.5,0.5h2.9c0.3,0,0.5-0.2,0.5-0.5v-36.7
		C972.7,277.1,972.5,276.9,972.2,276.9z"/>
	<path class="st6" d="M1011.1,313.9l-14.4-36.7c-0.1-0.2-0.3-0.3-0.5-0.3h-2.6c-0.2,0-0.4,0.1-0.5,0.3l-14.8,36.7
		c-0.1,0.2,0,0.3,0,0.5s0.2,0.2,0.4,0.2h3.3c0.2,0,0.4-0.1,0.5-0.3c0.7-1.9,1.5-3.8,2.2-5.7l2.2-5.4h15.5l4.4,11.1
		c0.1,0.2,0.3,0.3,0.5,0.3h3.2c0.2,0,0.3-0.1,0.4-0.2C1011.1,314.2,1011.1,314.1,1011.1,313.9z M988.6,299.2
		c1.1-2.9,2.2-5.6,3.3-8.1l0.1-0.1c1-2.4,2-5,3.1-7.6c0.5,1.2,0.9,2.4,1.3,3.5l0.5,1.3c0.4,1,0.8,2,1.1,2.9c0.5,1.4,1.1,2.8,1.7,4.2
		c0.5,1.2,1,2.5,1.5,3.9H988.6z"/>
</g>
</svg>
