<?xml version="1.0" encoding="utf-8"?>
<!-- Generator: Adobe Illustrator 24.0.1, SVG Export Plug-In . SVG Version: 6.00 Build 0)  -->
<svg version="1.1" id="Layer_1" xmlns="http://www.w3.org/2000/svg" xmlns:xlink="http://www.w3.org/1999/xlink" x="0px" y="0px"
	 viewBox="0 0 431.3 684.7" style="enable-background:new 0 0 431.3 684.7;" xml:space="preserve">
<style type="text/css">
	.st0{clip-path:url(#SVGID_2_);}
	.st1{fill:url(#SVGID_3_);}
	.st2{fill:url(#SVGID_4_);}
	.st3{clip-path:url(#SVGID_6_);}
	.st4{fill:url(#SVGID_7_);}
	.st5{fill:url(#SVGID_8_);}
	.st6{clip-path:url(#SVGID_10_);}
	.st7{fill:url(#SVGID_11_);}
	.st8{fill:url(#SVGID_12_);}
	.st9{fill:#334451;}
</style>
<title>Gain Logo Vertical</title>
<g id="Layer_2_1_">
	<g id="Vertical">
		<g>
			<defs>
				<path id="SVGID_1_" d="M215.6,97.6c36.1,0,65.4,29.3,65.4,65.4c0,36.1-29.3,65.4-65.4,65.4c-36.1,0-65.3-29.2-65.4-65.3
					C150.3,126.9,179.5,97.7,215.6,97.6 M215.6,79.4c-46.2,0-83.6,37.4-83.6,83.6s37.4,83.6,83.6,83.6s83.6-37.4,83.6-83.6
					S261.8,79.4,215.6,79.4C215.6,79.4,215.6,79.4,215.6,79.4z"/>
			</defs>
			<clipPath id="SVGID_2_">
				<use xlink:href="#SVGID_1_"  style="overflow:visible;"/>
			</clipPath>
			<g class="st0">
				
					<radialGradient id="SVGID_3_" cx="-11.9277" cy="231.2186" r="508.85" fx="-34.3129" fy="246.6557" gradientTransform="matrix(0.59 -0.87 -1.22 -0.88 422.99 648.28)" gradientUnits="userSpaceOnUse">
					<stop  offset="0.17" style="stop-color:#F9ED32"/>
					<stop  offset="0.27" style="stop-color:#C4D939"/>
					<stop  offset="0.41" style="stop-color:#7EBD41"/>
					<stop  offset="0.5" style="stop-color:#52AD47"/>
					<stop  offset="0.55" style="stop-color:#41A649"/>
					<stop  offset="0.6" style="stop-color:#3EA151"/>
					<stop  offset="0.68" style="stop-color:#369266"/>
					<stop  offset="0.77" style="stop-color:#2A7A8A"/>
					<stop  offset="0.87" style="stop-color:#1859BB"/>
					<stop  offset="0.99" style="stop-color:#022EF9"/>
					<stop  offset="1" style="stop-color:#002AFF"/>
				</radialGradient>
				<rect x="4.6" class="st1" width="422" height="432.3"/>
				
					<radialGradient id="SVGID_4_" cx="31.8109" cy="229.8563" r="507.64" fx="9.4788" fy="245.2626" gradientTransform="matrix(0.61 -0.87 -1.25 -0.88 400.61 687.65)" gradientUnits="userSpaceOnUse">
					<stop  offset="2.000000e-02" style="stop-color:#FFF333"/>
					<stop  offset="9.000000e-02" style="stop-color:#ECE834"/>
					<stop  offset="0.23" style="stop-color:#BCCB38"/>
					<stop  offset="0.44" style="stop-color:#6F9E3D"/>
					<stop  offset="0.51" style="stop-color:#538D3F"/>
					<stop  offset="1" style="stop-color:#3366CC"/>
				</radialGradient>
				<rect y="3.8" class="st2" width="431.3" height="431.3"/>
			</g>
		</g>
		<g>
			<defs>
				<polygon id="SVGID_5_" points="359.4,79.2 344.6,79.2 344.6,64.4 344.6,62.4 342.6,62.4 330.1,62.4 328.1,62.4 328.1,64.4 
					328.1,79.2 313.3,79.2 311.3,79.2 311.3,81.2 311.3,93.7 311.3,95.7 313.3,95.7 328.1,95.7 328.1,110.5 328.1,112.5 
					330.1,112.5 342.6,112.5 344.6,112.5 344.6,110.5 344.6,95.7 359.4,95.7 361.4,95.7 361.4,93.7 361.4,81.2 361.4,79.2 				"/>
			</defs>
			<clipPath id="SVGID_6_">
				<use xlink:href="#SVGID_5_"  style="overflow:visible;"/>
			</clipPath>
			<g class="st3">
				
					<radialGradient id="SVGID_7_" cx="-11.9277" cy="231.2186" r="508.85" fx="-34.3129" fy="246.6557" gradientTransform="matrix(0.59 -0.87 -1.22 -0.88 422.99 648.28)" gradientUnits="userSpaceOnUse">
					<stop  offset="0.17" style="stop-color:#F9ED32"/>
					<stop  offset="0.27" style="stop-color:#C4D939"/>
					<stop  offset="0.41" style="stop-color:#7EBD41"/>
					<stop  offset="0.5" style="stop-color:#52AD47"/>
					<stop  offset="0.55" style="stop-color:#41A649"/>
					<stop  offset="0.6" style="stop-color:#3EA151"/>
					<stop  offset="0.68" style="stop-color:#369266"/>
					<stop  offset="0.77" style="stop-color:#2A7A8A"/>
					<stop  offset="0.87" style="stop-color:#1859BB"/>
					<stop  offset="0.99" style="stop-color:#022EF9"/>
					<stop  offset="1" style="stop-color:#002AFF"/>
				</radialGradient>
				<rect x="4.6" class="st4" width="422" height="432.3"/>
				
					<radialGradient id="SVGID_8_" cx="31.8109" cy="229.8563" r="507.64" fx="9.4788" fy="245.2626" gradientTransform="matrix(0.61 -0.87 -1.25 -0.88 400.61 687.65)" gradientUnits="userSpaceOnUse">
					<stop  offset="2.000000e-02" style="stop-color:#FFF333"/>
					<stop  offset="9.000000e-02" style="stop-color:#ECE834"/>
					<stop  offset="0.23" style="stop-color:#BCCB38"/>
					<stop  offset="0.44" style="stop-color:#6F9E3D"/>
					<stop  offset="0.51" style="stop-color:#538D3F"/>
					<stop  offset="1" style="stop-color:#3366CC"/>
				</radialGradient>
				<rect y="3.8" class="st5" width="431.3" height="431.3"/>
			</g>
		</g>
		<g>
			<defs>
				<path id="SVGID_9_" d="M359.3,6.6H72C34.8,6.6,4.6,34.4,4.6,68.6v253.5c0,34.3,30.2,62.1,67.4,62.1h86.8l50.1,45.5
					c3.9,3.4,9.7,3.4,13.5,0l50.1-45.5h86.8c37.2,0,67.4-27.8,67.4-62.1V68.6C426.7,34.3,396.5,6.6,359.3,6.6z M265.4,366l-5.2,4.7
					l-44.6,40.5l-44.6-40.5l-5.2-4.7H81.3c3.8-45.5,41.8-80.5,87.5-80.6h99.7c44.7,0.1,81,35.9,81.7,80.6H265.4z M408.4,322.1
					c0,21.4-17.3,39.3-40,43.1c-1.1-54.4-45.5-97.9-99.9-98h-99.7c-55.4,0.1-101.5,42.8-105.7,98c-22.9-3.7-40.3-21.6-40.3-43.1
					V68.6c0-24.2,22.1-43.9,49.2-43.9h287.2c27.1,0,49.2,19.7,49.2,43.9L408.4,322.1z"/>
			</defs>
			<clipPath id="SVGID_10_">
				<use xlink:href="#SVGID_9_"  style="overflow:visible;"/>
			</clipPath>
			<g class="st6">
				
					<radialGradient id="SVGID_11_" cx="-11.9277" cy="231.2186" r="508.85" fx="-34.3129" fy="246.6557" gradientTransform="matrix(0.59 -0.87 -1.22 -0.88 422.99 648.28)" gradientUnits="userSpaceOnUse">
					<stop  offset="0.17" style="stop-color:#F9ED32"/>
					<stop  offset="0.27" style="stop-color:#C4D939"/>
					<stop  offset="0.41" style="stop-color:#7EBD41"/>
					<stop  offset="0.5" style="stop-color:#52AD47"/>
					<stop  offset="0.55" style="stop-color:#41A649"/>
					<stop  offset="0.6" style="stop-color:#3EA151"/>
					<stop  offset="0.68" style="stop-color:#369266"/>
					<stop  offset="0.77" style="stop-color:#2A7A8A"/>
					<stop  offset="0.87" style="stop-color:#1859BB"/>
					<stop  offset="0.99" style="stop-color:#022EF9"/>
					<stop  offset="1" style="stop-color:#002AFF"/>
				</radialGradient>
				<rect x="4.6" class="st7" width="422" height="432.3"/>
				
					<radialGradient id="SVGID_12_" cx="31.8109" cy="229.8563" r="507.64" fx="9.4788" fy="245.2626" gradientTransform="matrix(0.61 -0.87 -1.25 -0.88 400.61 687.65)" gradientUnits="userSpaceOnUse">
					<stop  offset="2.000000e-02" style="stop-color:#FFF333"/>
					<stop  offset="9.000000e-02" style="stop-color:#ECE834"/>
					<stop  offset="0.23" style="stop-color:#BCCB38"/>
					<stop  offset="0.44" style="stop-color:#6F9E3D"/>
					<stop  offset="0.51" style="stop-color:#538D3F"/>
					<stop  offset="1" style="stop-color:#3366CC"/>
				</radialGradient>
				<rect y="3.8" class="st8" width="431.3" height="431.3"/>
			</g>
		</g>
		<path class="st9" d="M121.1,475.9c1.5,5.3,1.7,11,0.4,16.4c-0.4,1.9-1,3.7-1.8,5.4c8.1,10.1,12.2,22.2,12.1,36.4
			c0.2,15.9-6.1,31.3-17.6,42.4c-11.1,11.5-26.4,17.8-42.4,17.6c-15.9,0.2-31.3-6.1-42.4-17.6C6.1,553.1,6,515.3,29.3,491.9
			c0.1-0.1,0.2-0.2,0.3-0.3c11.1-11.5,26.4-17.8,42.4-17.6c15.9,0,28.9,4.8,39.1,14.4c-0.3,1.2-0.3,1.4-0.2,0.8
			c0.9-3.8,0.5-8.3-1.3-13.4L121.1,475.9z M71.8,582.6c12.9,0.2,25.4-4.9,34.4-14.2c18.9-19,18.9-49.7,0-68.8
			c-9-9.2-21.5-14.4-34.4-14.2c-12.9-0.2-25.3,4.9-34.4,14.2c-18.9,19-18.9,49.7,0,68.8C46.5,577.7,58.9,582.8,71.8,582.6z
			 M71.9,600.1c11.2-0.2,22.1,4.3,29.9,12.4c16.5,16.5,16.5,43.2,0,59.6c0,0-0.1,0.1-0.1,0.1c-7.8,8.1-18.6,12.6-29.9,12.4
			c-11.2,0.2-22-4.3-29.8-12.4c-16.5-16.4-16.6-43-0.2-59.5c0.1-0.1,0.1-0.1,0.2-0.2C49.8,604.4,60.7,600,71.9,600.1z M71.8,673.5
			c17.2,0.3,31.4-13.4,31.7-30.6s-13.4-31.4-30.6-31.7c-0.4,0-0.7,0-1.1,0c-17.2-0.3-31.4,13.4-31.7,30.6s13.4,31.4,30.6,31.7
			C71.1,673.5,71.5,673.5,71.8,673.5z"/>
		<path class="st9" d="M248.3,569.8c-1.9,2.4-4,4.6-6.2,6.7c-23.4,23.4-61.3,23.4-84.7,0.1c0,0-0.1-0.1-0.1-0.1
			c-23.4-23.5-23.3-61.5,0.2-84.9c11.2-11.2,26.4-17.5,42.3-17.5c33.1,0,59.9,26.8,59.9,59.9c0,0,0,0.1,0,0.1v58.6h-11.4V569.8z
			 M199.8,582.6c26.8,0,48.5-21.8,48.5-48.6c0-26.8-21.8-48.5-48.6-48.5c-12.8,0-25.1,5.1-34.2,14.2c-19,18.9-19,49.7-0.1,68.7
			C174.4,577.5,186.8,582.6,199.8,582.6z"/>
		<path class="st9" d="M288,462.5h-11.5v-10.8H288V462.5z M288,592.7h-11.5V475.8H288V592.7z"/>
		<path class="st9" d="M304.7,534.5c0.2-16.5,5.5-30.5,15.8-42.1c10.4-11.7,22.9-17.6,37.5-17.6c14.6,0,27.2,5.9,37.6,17.7
			c10.4,11.6,15.6,25.7,15.8,42.2v58.1h-11.2v-58.1c-0.2-13.2-4.4-24.5-12.6-33.8c-8.2-9.2-18-13.9-29.5-13.9
			c-11.5,0-21.4,4.6-29.6,13.8c-8.2,9.3-12.5,20.6-12.7,33.7v58.4h-11.2V534.5z"/>
		<g>
			<path class="st9" d="M166.1,626.6l-4.3-1.1c-0.7-0.2-1.4-0.4-2.1-0.5c-0.7-0.2-1.4-0.3-2-0.5c-2.5-0.8-3.6-2-3.6-4
				c-0.1-1.5,0.7-2.8,1.9-3.5c1.4-0.8,3.1-1.2,4.8-1.1c4.6,0,6.8,2.1,7,6.5l0,0.5h3.1l0-0.5c-0.3-6.3-3.7-9.5-10.1-9.5c0,0,0,0,0,0
				c-2.3-0.1-4.5,0.4-6.5,1.6c-2.1,1.3-3.4,3.7-3.2,6.1c0,3.2,1.7,5.5,5.2,6.7c1.2,0.3,2.4,0.6,3.6,0.9l4.2,1.1l0.2,0.1
				c0.2,0.1,0.4,0.1,0.6,0.2c2.4,0.8,3.6,2.2,3.6,4.3c0,0.7-0.2,1.5-0.5,2.1c-0.4,0.6-0.9,1.2-1.5,1.6c-1.5,0.9-3.1,1.3-4.9,1.2
				c-5.3,0-7.9-2.5-7.9-7.8v-0.5h-3.1v0.5c0,3.8,1.1,6.6,3.2,8.4c1,0.8,2.2,1.4,3.4,1.8c1.4,0.4,2.8,0.6,4.2,0.6c0.1,0,0.2,0,0.2,0
				c1.2,0,2.4-0.1,3.6-0.5c1.1-0.3,2.1-0.7,3-1.3c1-0.7,1.9-1.6,2.5-2.7c0.6-1.1,0.9-2.3,0.9-3.6
				C171.3,630.2,169.6,627.9,166.1,626.6z"/>
			<path class="st9" d="M196.8,615.8c-5.3-4.5-13.2-3.8-17.8,1.5c-4.1,6-4.1,14,0,20c0.4,0.5,0.9,1,1.4,1.4c2.4,2,5.3,3,8.1,3
				c3.6,0,7.1-1.5,9.6-4.5c2.1-2.9,3.2-6.4,3.1-10c0.1-3.6-1-7.1-3.1-10C197.8,616.7,197.3,616.2,196.8,615.8z M198.2,627.3
				c0.1,2.9-0.8,5.7-2.4,8c-0.3,0.4-0.6,0.7-1,1c-1.9,1.7-4.4,2.5-6.9,2.3c-2.5-0.2-4.8-1.3-6.5-3.2c-1.7-2.3-2.6-5.2-2.5-8.1
				c-0.1-2.9,0.7-5.7,2.4-8c0.3-0.4,0.6-0.7,1-1c1.8-1.5,4-2.3,6.2-2.3c2.7,0,5.3,1.1,7.2,3.3C197.5,621.5,198.3,624.3,198.2,627.3
				L198.2,627.3L198.2,627.3z"/>
			<path class="st9" d="M227.7,629.2c-0.2,1.4-0.5,2.8-1,4.1c-0.4,1.1-1.1,2-1.9,2.8c-1.7,1.6-3.9,2.5-6.3,2.4
				c-2.7,0.1-5.3-1.2-6.9-3.3c-1.7-2.2-2.6-5-2.5-7.8c-0.1-2.9,0.8-5.8,2.6-8.1c1.7-2.2,4.5-3.5,7.3-3.4c1.9-0.1,3.8,0.6,5.4,1.8
				c1.7,1.3,2.7,3.2,2.7,5.2l0,0.5h3.1l0-0.5c0-3-1.5-5.8-3.9-7.6c-2.1-1.6-4.7-2.4-7.3-2.4c-3.8-0.1-7.4,1.5-9.7,4.5
				c-2.2,2.9-3.4,6.5-3.3,10.2c-0.1,3.5,1,7,3.2,9.8c0.2,0.2,0.4,0.4,0.6,0.6c2.4,2.5,5.6,3.8,8.8,3.8c3,0,6.1-1.1,8.4-3.4
				c1.1-1.1,1.9-2.4,2.5-3.8c0.7-1.6,1.1-3.4,1.4-5.1l0.1-0.6l-3.2,0L227.7,629.2z"/>
			<rect x="235.3" y="613.4" class="st9" width="3.1" height="27.7"/>
			<path class="st9" d="M255.8,613.4h-2.6l-11.1,27.7h3.5l0.1-0.3c0.5-1.4,1.1-2.7,1.6-4.1l1.6-3.9h11.1l3.3,8.3h3.4l-10.7-27.4
				L255.8,613.4z M258.7,629.7H250c0.8-2,1.6-4,2.3-5.8l2.1-5.2c0.3,0.8,0.6,1.6,0.9,2.2l2.4,6.2C258,627.9,258.4,628.7,258.7,629.7
				z"/>
			<polygon class="st9" points="273.5,638 273.5,613.4 270.4,613.4 270.4,641.1 288.1,641.1 288.1,638 			"/>
			<path class="st9" d="M326,613.4l-0.1,0.3c-1.6,3.8-3.3,7.7-5,11.7l-4.6,10.6l-9.9-22.6h-3.1v27.7h3.1v-19.8l8.7,19.8h2.4
				l4.8-11.2c1.3-2.9,2.5-5.9,3.8-8.8l0.1,19.9h3.1l0-27.7H326z"/>
			<polygon class="st9" points="337.7,628.2 352.7,628.2 352.7,625.1 337.7,625.1 337.7,616.5 353.6,616.5 353.6,613.4 334.6,613.4 
				334.6,641.1 353.8,641.1 353.8,638 337.7,638 			"/>
			<path class="st9" d="M367.5,613.4h-10v27.7l8.9,0c0.2,0,0.4,0,0.6,0c3.4,0,6.7-1.4,9.1-4c2.2-2.5,3.3-5.8,3.3-9.9
				c0.1-3.4-0.8-6.8-2.8-9.6C374.5,614.8,371.4,613.4,367.5,613.4z M370.7,637.2c-1.3,0.5-2.7,0.8-4.2,0.8h-5.9v-21.5h6.7
				c3.2,0,5.4,1,6.9,2.9c1.4,1.8,2.1,4.5,2.1,7.8l0,0c0.1,2.8-0.7,5.5-2.4,7.7C373,635.9,371.9,636.7,370.7,637.2z"/>
			<rect x="384" y="613.4" class="st9" width="3.1" height="27.7"/>
			<path class="st9" d="M404.5,613.4h-2.6l-11.1,27.7h3.5l0.1-0.3c0.5-1.3,1-2.7,1.6-4.1c0.5-1.3,1.1-2.6,1.6-3.9h11.1l3.3,8.3h3.4
				L404.5,613.4z M407.5,629.7h-8.7l4.4-11l0,0.1c0.3,0.7,0.6,1.4,0.8,2.1c0.2,0.6,0.4,1.1,0.6,1.6c0.2,0.5,0.4,1,0.6,1.5
				c0.3,0.8,0.6,1.5,0.9,2.3l0.3,0.8C406.8,627.9,407.1,628.7,407.5,629.7z"/>
		</g>
	</g>
</g>
</svg>
