<?xml version="1.0" encoding="utf-8"?>
<!-- Generator: Adobe Illustrator 24.0.1, SVG Export Plug-In . SVG Version: 6.00 Build 0)  -->
<svg version="1.1" id="Layer_1" xmlns="http://www.w3.org/2000/svg" xmlns:xlink="http://www.w3.org/1999/xlink" x="0px" y="0px"
	 viewBox="0 0 577.1 723.9" style="enable-background:new 0 0 577.1 723.9;" xml:space="preserve">
<style type="text/css">
	.st0{fill:#71DAFF;}
	.st1{fill:#334451;}
</style>
<title>quality</title>
<g id="Layer_2_1_">
	<g id="Layer_2-2">
		<path class="st0" d="M556.7,333.3c9.5-12.8,20.4-27.3,20.4-44.8s-10.8-32-20.4-44.8c-6.3-8.4-12.1-16.2-14-23.3
			c-2-7.6-0.8-17.7,0.4-28.4c1.8-15.6,3.8-33.2-4.6-47.8c-8.6-14.9-25-21.9-39.5-28.2c-8.5-3.6-16.6-7.1-22.1-11.5
			c-0.8-0.6-1.6-1.3-2.3-2c-5.4-5.4-9.4-14.6-13.5-24.3c-6.3-14.5-13.3-30.9-28.2-39.5c-14.6-8.5-32.3-6.4-47.9-4.6
			c-10.7,1.3-20.8,2.4-28.4,0.4c-7.1-1.9-14.9-7.8-23.3-14C320.6,10.8,306,0,288.5,0s-32,10.8-44.8,20.4c-8.4,6.2-16.2,12.1-23.3,14
			c-7.6,2-17.7,0.9-28.3-0.4c-15.6-1.8-33.2-3.8-47.9,4.6c-14.8,8.6-21.9,25-28.2,39.5c-4.2,9.8-8.2,19-13.5,24.3
			c-0.7,0.7-1.5,1.4-2.3,2c-5.5,4.4-13.6,7.9-22.1,11.5c-14.5,6.3-30.9,13.3-39.5,28.2c-8.4,14.6-6.4,32.3-4.6,47.8
			c1.2,10.7,2.4,20.8,0.4,28.4c-1.9,7.1-7.8,14.9-14,23.3C10.8,256.5,0,271,0,288.5s10.8,32,20.4,44.8c6.2,8.4,12.1,16.2,14,23.3
			c2,7.6,0.8,17.7-0.4,28.3c-1.8,15.6-3.8,33.2,4.6,47.9c8.6,14.8,25,21.9,39.5,28.2c9.8,4.2,19,8.2,24.4,13.5s9.2,14.2,13.2,23.7
			L58,657.5c-1.6,4.5-0.5,9.6,2.7,13.1c3.3,3.5,8.3,4.8,13,3.4l76.7-23l45.4,67.3c2.4,3.5,6.3,5.6,10.5,5.6c0.5,0,1,0,1.6-0.1
			c4.8-0.6,8.8-3.8,10.4-8.3L270,573.1c5.9,2.6,12.2,3.9,18.6,4c3.7,0,7.4-0.5,11-1.4l50.7,139.9c1.6,4.5,5.5,7.6,10.2,8.3
			c0.6,0.1,1.2,0.1,1.8,0.1c4.1,0,7.9-2,10.3-5.3l48.9-68.2l80,21.5c6.8,1.8,13.7-2.2,15.6-9c0.7-2.5,0.6-5.2-0.3-7.6l-56.2-155.2
			c0.1-0.4,0.4-0.9,0.5-1.3c4.2-9.7,8.2-19,13.5-24.3s14.6-9.4,24.4-13.5c14.5-6.3,30.9-13.3,39.5-28.2c8.4-14.6,6.4-32.3,4.6-47.9
			c-1.2-10.6-2.4-20.8-0.4-28.3C544.6,349.5,550.5,341.7,556.7,333.3z M203,683.3l-36.6-54.3c-2.3-3.5-6.3-5.6-10.5-5.6
			c-1.2,0-2.5,0.2-3.6,0.5l-61.5,18.4L132,528c3.4,4.2,7.5,7.7,12.2,10.5c14.6,8.4,32.3,6.4,47.8,4.6c10.7-1.2,20.8-2.4,28.4-0.4
			c7.1,1.9,14.9,7.8,23.3,14c1.3,1,2.7,2,4,3L203,683.3z M484.4,641l-64.9-17.4c-5.1-1.4-10.6,0.6-13.6,4.9l-39.9,55.7l-43.4-119.7
			c3.7-2.5,7.3-5.2,10.8-7.8c8.4-6.2,16.2-12.1,23.3-14c7.6-2,17.7-0.8,28.3,0.4c15.6,1.8,33.2,3.8,47.9-4.6
			c4.2-2.5,7.9-5.6,11.1-9.2L484.4,641z M536.3,318.1c-7.4,9.9-15,20.2-18.2,31.9c-3.3,12.3-1.8,25.3-0.4,37.9
			c1.5,12.8,2.8,24.9-1.4,32.2c-4.4,7.5-15.6,12.4-27.5,17.6c-11.5,4.9-23.5,10-32.3,18.9c-3.1,3.1-5.8,6.6-8.1,10.4
			c-4.4,6.8-7.6,14.5-10.8,22c-1.5,3.6-3.1,7-4.6,10.3c-3.6,7.7-7.6,14.2-13,17.3c-7.3,4.3-19.4,2.8-32.2,1.4
			c-12.5-1.4-25.5-3-37.8,0.3c-11.8,3.2-22,10.8-32,18.2c-1.5,1.1-3.1,2.3-4.5,3.3c-8,5.9-15.6,10.9-22.8,11.8
			c-0.7,0.1-1.5,0.2-2.2,0.2c-3.4-0.1-6.8-1-9.9-2.5c-6.3-2.8-12.9-7.7-19.7-12.8c-0.7-0.6-1.5-1.1-2.2-1.6
			c-9.2-6.9-18.8-13.7-29.8-16.6c-5.4-1.4-11-2.1-16.6-2c-7.1,0.1-14.2,0.7-21.2,1.7c-12.8,1.5-24.9,2.9-32.2-1.4
			c-5.7-3.3-9.9-10.6-13.8-19.1c-1.3-2.7-2.5-5.6-3.7-8.4c-3.4-8-6.9-16.2-11.8-23.4c-2.1-3.2-4.4-6.2-7.1-8.9
			c-8.8-8.9-20.7-14-32.3-19c-11.9-5.1-23.2-10-27.5-17.5c-4.3-7.3-2.8-19.4-1.4-32.2c1.5-12.6,3-25.5-0.3-37.9
			c-3.1-11.8-10.8-22-18.2-31.9c-7.9-10.5-15.3-20.5-15.3-29.6s7.4-19,15.3-29.5c7.4-9.9,15-20.2,18.2-32
			c3.3-12.3,1.8-25.3,0.3-37.9c-1.5-12.8-2.8-24.9,1.4-32.1c4.4-7.6,15.6-12.4,27.5-17.6c11.6-4.9,23.5-10.1,32.3-18.9
			c4.6-4.7,8.4-10.1,11.4-16c2.8-5.3,5.2-10.8,7.5-16.3c5.2-11.9,10-23.2,17.6-27.5c7.3-4.2,19.4-2.9,32.2-1.4
			c12.5,1.5,25.5,3,37.8-0.3c11.8-3.1,22-10.8,32-18.1c10.5-7.9,20.5-15.3,29.6-15.3s19,7.4,29.6,15.3c9.9,7.4,20.2,15,32,18.1
			c12.3,3.3,25.3,1.8,37.8,0.3c12.8-1.4,24.9-2.8,32.2,1.4c7.5,4.3,12.4,15.6,17.6,27.5c2.3,5.5,4.7,11,7.5,16.3
			c3,5.9,6.8,11.3,11.4,16c8.8,8.9,20.7,14,32.3,19c11.9,5.1,23.2,10,27.5,17.5c4.3,7.3,2.8,19.4,1.4,32.1
			c-1.5,12.6-3,25.5,0.4,37.9c3.1,11.8,10.8,22,18.2,32c7.9,10.5,15.3,20.5,15.3,29.6S544.2,307.6,536.3,318.1L536.3,318.1z"/>
		<path class="st1" d="M389.2,263.3c-7.5-12.9-15-25.6-22.4-38.2c-0.2-0.3-1.2-2-2.5-2h-0.8V223H215.4v0.1h-1.1
			c-1.7,0.2-3.2,1.1-4.1,2.6c-4.3,7.1-8.6,14.4-12.7,21.5l-3.7,6.4L183.5,271l105.1,119.5L393.7,271L389.2,263.3z M354.1,232.5h0.6
			L338.3,261l-16.7-28.5L354.1,232.5z M330.2,265.6h-33.4l16.5-28.8L330.2,265.6z M255.6,232.6L238.9,261l-16.3-28.4H255.6z
			 M264,236.8l16.5,28.9h-33.5L264,236.8z M214.3,236.8l16.6,28.9h-33.5L214.3,236.8z M199.7,275.3c0.8-0.1,1.3-0.1,1.9-0.1h10.1
			c7.1,0,14.4,0,21.7,0c1.9,0,2.7,0.5,3.4,2.1c8.4,19.1,16.9,38.5,25.1,57.3c3.3,7.6,6.7,15.2,10,22.8L199.7,275.3z M283.7,360.9
			L246,275.1h37.7L283.7,360.9z M288.6,260.9l-16.2-28.3h32.5L288.6,260.9z M293.5,275.4h36.3L293.5,358L293.5,275.4z M302.5,360.8
			c0-0.1,0.1-0.3,0.2-0.4c6.9-15.7,13.8-31.3,20.7-47l15.9-36.1c0.7-1.6,1.1-2.3,2.6-2.3l0,0c8.5,0.1,17,0.1,25.4,0.1h10.6h0.1
			L302.5,360.8z M346.4,265.7l16.6-28.9l16.9,28.9L346.4,265.7z"/>
		<path class="st0" d="M288.6,465c-96.2,0-174.5-78.3-174.5-174.5S192.4,116,288.6,116s174.5,78.3,174.5,174.5S384.9,465,288.6,465z
			 M288.6,141c-82.4,0-149.5,67.1-149.5,149.5S206.2,440,288.6,440s149.5-67.1,149.5-149.5S371.1,141,288.6,141z"/>
	</g>
</g>
</svg>
