<?xml version="1.0" encoding="utf-8"?>
<!-- Generator: Adobe Illustrator 24.0.1, SVG Export Plug-In . SVG Version: 6.00 Build 0)  -->
<svg version="1.1" id="Layer_1" xmlns="http://www.w3.org/2000/svg" xmlns:xlink="http://www.w3.org/1999/xlink" x="0px" y="0px"
	 viewBox="0 0 706.3 618" style="enable-background:new 0 0 706.3 618;" xml:space="preserve">
<style type="text/css">
	.st0{fill:#71DAFF;}
	.st1{fill:#FFFFFF;}
	.st2{fill:#4F5963;}
	.st3{fill:#334451;}
	.st4{fill:#808080;}
	.st5{fill:none;stroke:#4F5963;stroke-width:12;stroke-linecap:round;stroke-linejoin:round;}
	.st6{fill:none;stroke:#B3B3B3;stroke-width:12;stroke-linecap:round;stroke-linejoin:round;}
</style>
<title>registration_1</title>
<g id="Layer_2_1_">
	<g id="Layer_2-2">
		<path class="st0" d="M690.4,82H17.8V64.8c0-27.7,21.5-50.3,47.8-50.3h577c26.4,0,47.8,22.5,47.8,50.3L690.4,82z M29.8,70h648.6
			v-5.2c0-21.1-16.1-38.3-35.8-38.3h-577c-19.8,0-35.8,17.2-35.8,38.3L29.8,70z"/>
		<path class="st1" d="M220.6,209c6.1-2.4,12.6-3.6,19.1-3.6L220.6,209z"/>
		<circle class="st2" cx="60" cy="49.8" r="6.4"/>
		<circle class="st2" cx="87" cy="49.8" r="6.4"/>
		<circle class="st2" cx="114" cy="49.8" r="6.4"/>
		<path class="st3" d="M703.6,43.1c-7.7-25.9-29.8-43-56.7-43C451.4,0,255.8,0,60.3,0.1C31,0.1,8.1,18.9,1.5,47.5
			c-0.4,1.8-1,3.5-1.5,5.2v453.8c0.8,2.6,1.6,5.2,2.3,7.9C10,541.8,32.5,559,60.7,559c89.4,0,178.8,0,268.2,0h8.8v29.3H152.8
			c-2.5-0.1-5.1,0-7.6,0.3c-7.7,1.2-12.9,7.3-12.8,14.7c0.1,7.2,5,13,12.5,14.3c2.3,0.3,4.6,0.4,6.9,0.4h402.6
			c2.3,0.1,4.6,0,6.9-0.4c7.5-1.3,12.4-7.1,12.5-14.3c0.1-7.4-5.1-13.5-12.8-14.7c-2.5-0.3-5-0.4-7.6-0.3h-185V559h274.4
			c33,0,54.8-17.5,62.4-49.9c0.3-0.9,0.7-1.7,1.1-2.5V51.4C705.4,48.6,704.4,45.9,703.6,43.1z M29.3,64.8c0-18.4,8.6-31.2,23.4-34.7
			c3.4-0.7,6.9-0.9,10.3-0.8c193.6,0,387.1,0,580.7,0c19.7,0,32.2,12,33.2,31.7c0.1,1.8,0,3.7,0,5.5v344.7H29.6
			c-0.1-2.7-0.3-4.9-0.3-7.2C29.3,291.1,29.3,178,29.3,64.8z M676.9,494.7c-0.1,22.7-12.4,35-34.9,35H64.9
			c-23.4,0-35.5-12.1-35.5-35.8c0-16.8,0.1-33.6,0.1-50.3c0-0.4,0.3-0.8,0.8-1.9h646.3c0.1,2.4,0.3,4.6,0.3,6.8
			C677,463.9,677,479.3,676.9,494.7z"/>
		<path class="st4" d="M382.4,485.8c-0.3,16.2-13.6,29.1-29.8,28.8c-16.2-0.3-29.1-13.6-28.8-29.8c0.3-16.2,13.6-29.1,29.8-28.8
			C369.8,456.3,382.7,469.6,382.4,485.8C382.4,485.7,382.4,485.8,382.4,485.8z"/>
		<line class="st5" x1="77.7" y1="342" x2="125.7" y2="342"/>
		<line class="st5" x1="153.2" y1="342.5" x2="241.2" y2="342.5"/>
		<rect x="303.9" y="158.5" class="st6" width="52" height="52"/>
		<rect x="304.4" y="238" class="st6" width="52" height="52"/>
		<line class="st6" x1="380.4" y1="172" x2="381.4" y2="172"/>
		<line class="st6" x1="399.4" y1="172" x2="422.4" y2="172"/>
		<line class="st6" x1="380.4" y1="192" x2="381.4" y2="192"/>
		<line class="st6" x1="399.4" y1="192" x2="442.4" y2="192"/>
		<line class="st6" x1="380.4" y1="253" x2="381.4" y2="253"/>
		<line class="st6" x1="399.4" y1="253" x2="422.4" y2="253"/>
		<line class="st6" x1="380.4" y1="273" x2="381.4" y2="273"/>
		<line class="st6" x1="399.4" y1="273" x2="442.4" y2="273"/>
		<rect x="480.9" y="158.5" class="st6" width="52" height="52"/>
		<rect x="481.4" y="238" class="st6" width="52" height="52"/>
		<line class="st6" x1="557.4" y1="172" x2="558.4" y2="172"/>
		<line class="st6" x1="576.4" y1="172" x2="599.4" y2="172"/>
		<line class="st6" x1="557.4" y1="192" x2="558.4" y2="192"/>
		<line class="st6" x1="576.4" y1="192" x2="619.4" y2="192"/>
		<line class="st6" x1="557.4" y1="253" x2="558.4" y2="253"/>
		<line class="st6" x1="576.4" y1="253" x2="599.4" y2="253"/>
		<line class="st6" x1="557.4" y1="273" x2="558.4" y2="273"/>
		<line class="st6" x1="576.4" y1="273" x2="619.4" y2="273"/>
		<path class="st0" d="M332.1,200c-1.9,0-3.7-0.8-5-2.1l-13-13.3c-2.8-2.6-3-7-0.4-9.9c2.6-2.8,7-3,9.9-0.4c0.2,0.2,0.4,0.3,0.5,0.5
			l7.8,8l22.7-25.4c2.6-2.9,7-3.2,9.9-0.6s3.2,7,0.6,9.9l-27.7,31c-1.3,1.4-3.1,2.3-5.1,2.3H332.1z"/>
		<path class="st0" d="M332.1,281c-1.9,0-3.7-0.8-5-2.1l-13-13.3c-2.8-2.6-3-7-0.4-9.9c2.6-2.8,7-3,9.9-0.4c0.2,0.2,0.4,0.3,0.5,0.5
			l7.8,8l22.7-25.4c2.6-2.9,7-3.2,9.9-0.6c2.9,2.6,3.2,7,0.6,9.9l-27.7,31c-1.3,1.4-3.1,2.3-5.1,2.3H332.1z"/>
		<path class="st0" d="M509.1,200c-1.9,0-3.7-0.8-5-2.1l-13-13.3c-2.8-2.6-3-7-0.4-9.9c2.6-2.8,7-3,9.9-0.4c0.2,0.2,0.4,0.3,0.5,0.5
			l7.8,8l22.7-25.4c2.6-2.9,7-3.2,9.9-0.6c2.9,2.6,3.2,7,0.6,9.9l-27.7,31c-1.3,1.4-3.1,2.3-5.1,2.3H509.1z"/>
		<path class="st0" d="M509.1,281c-1.9,0-3.7-0.8-5-2.1l-13-13.3c-2.8-2.6-3-7-0.4-9.9c2.6-2.8,7-3,9.9-0.4c0.2,0.2,0.4,0.3,0.5,0.5
			l7.8,8l22.7-25.4c2.6-2.9,7-3.2,9.9-0.6c2.9,2.6,3.2,7,0.6,9.9l0,0l-27.7,31c-1.3,1.4-3.1,2.3-5.1,2.3H509.1z"/>
		<path class="st0" d="M223.2,289c-2.6-7.5-7.7-13.8-15.4-18.8c-6.5-4-13.6-6.9-21-8.7c-8.8-2.2-17.7-3.4-26.8-3.5
			c-8.7,0.2-17.4,1.4-25.9,3.6c-18.7,4.9-31.3,14.3-36.4,27.2l-1.3,3.2l13.9,5.5l1.3-3.3c8.3-20.8,48-21.3,48.4-21.3
			c7.8,0.2,15.6,1.3,23.2,3.2c9.9,2.5,22.3,7.7,25.8,17.7l1.1,3.3l14.2-4.8L223.2,289z"/>
		<path class="st2" d="M248.9,189.6c-0.9-2.7-2-5.4-3.2-8h-1.8c-2.2,0-4.3,0.8-5.8,2.4l-0.1,0.1c1.2,2.6,2.3,5.3,3.2,8
			c15.3,44.2-8.1,92.5-52.3,107.8s-92.5-8.1-107.8-52.3s8.1-92.5,52.3-107.8c21-7.3,43.9-6,64,3.5c2.7,1.3,5.4,2.7,8,4.3
			c0-1.4,0-2.9,0-4.3v-0.1c0-1.2,0.1-2.3,0.3-3.5c0.1-0.4,0.3-0.7,0.4-1c-2.3-1.3-4.7-2.5-7.2-3.6c-46.7-20.8-101.3,0.3-122.1,46.9
			s0.3,101.3,46.9,122.1c46.7,20.8,101.3-0.3,122.1-46.9C255.4,235.9,256.5,211.8,248.9,189.6L248.9,189.6z"/>
		<path class="st3" d="M230,151.4c-37.9-37.9-99.3-37.9-137.2,0s-37.9,99.3,0,137.2s99.3,37.9,137.2,0
			c18.2-18.2,28.4-42.9,28.4-68.6C258.5,194.3,248.2,169.6,230,151.4z M161.4,300.7c-44.6,0-80.7-36.1-80.7-80.7
			s36.1-80.7,80.7-80.7s80.7,36.1,80.7,80.7C242,264.5,205.9,300.6,161.4,300.7z"/>
		<path class="st3" d="M160.3,180.5c-21,0-38,17-38,38s17,38,38,38s38-17,38-38l0,0C198.2,197.6,181.3,180.6,160.3,180.5z
			 M182,218.5c0,12-9.7,21.7-21.7,21.7c-12,0-21.7-9.7-21.7-21.7c0-12,9.7-21.7,21.7-21.7l0,0C172.3,196.8,182,206.6,182,218.5
			L182,218.5z"/>
	</g>
</g>
</svg>
