<svg xmlns="http://www.w3.org/2000/svg" xmlns:xlink="http://www.w3.org/1999/xlink" viewBox="0 0 599.74 374.72"><defs><style>.cls-1{fill:#d08b73;}.cls-2{fill:#ee5f43;}.cls-3{fill:#434e84;}.cls-4{fill:#12a189;}.cls-5{fill:#4485f4;}.cls-41,.cls-6{fill:#bc6c56;}.cls-46,.cls-65,.cls-7{fill:#034c8a;}.cls-8{fill:#38aae3;}.cls-9{fill:#faae26;}.cls-10{isolation:isolate;}.cls-11{fill:#a5def6;opacity:0.47;}.cls-12{opacity:0.3;}.cls-13{fill:#4385f4;}.cls-14,.cls-15,.cls-16,.cls-17,.cls-18,.cls-19,.cls-20,.cls-21,.cls-24,.cls-25,.cls-26,.cls-27,.cls-28,.cls-29,.cls-45,.cls-54,.cls-64,.cls-68,.cls-74{fill:none;}.cls-14,.cls-15,.cls-16,.cls-17,.cls-18,.cls-19,.cls-20{stroke:#0254a9;}.cls-14,.cls-15,.cls-16,.cls-17,.cls-18,.cls-19,.cls-20,.cls-21,.cls-24,.cls-25,.cls-26,.cls-27,.cls-28,.cls-29,.cls-45,.cls-46,.cls-54,.cls-64,.cls-65,.cls-74{stroke-linecap:round;}.cls-14,.cls-15,.cls-16,.cls-17,.cls-18,.cls-19,.cls-20,.cls-25,.cls-26,.cls-27,.cls-28,.cls-29,.cls-45,.cls-46,.cls-54,.cls-64,.cls-65,.cls-74{stroke-linejoin:round;}.cls-14{stroke-width:0.77px;}.cls-15{stroke-width:1.9px;}.cls-16{stroke-width:1.72px;}.cls-17{stroke-width:2.73px;}.cls-18{stroke-width:3.22px;}.cls-19{stroke-width:1.99px;}.cls-20{stroke-width:2.4px;}.cls-21,.cls-24{stroke:#363a69;}.cls-21,.cls-24,.cls-68{stroke-miterlimit:10;}.cls-21{stroke-width:1.22px;}.cls-22{fill:#3ca3a4;}.cls-23{fill:#f8ad26;}.cls-24{stroke-width:1.54px;}.cls-25,.cls-26,.cls-27,.cls-28,.cls-29{stroke:#148b7a;}.cls-25{stroke-width:0.41px;}.cls-26{stroke-width:0.59px;}.cls-27{stroke-width:0.42px;}.cls-28{stroke-width:0.43px;}.cls-29{stroke-width:0.44px;}.cls-30{fill:#ee5e43;}.cls-31,.cls-72{fill:#c4422b;}.cls-32{fill:#20d189;}.cls-33{fill:#ed5f5f;}.cls-34{fill:#fff87d;}.cls-35{clip-path:url(#clip-path);}.cls-36{clip-path:url(#clip-path-2);}.cls-37{fill:#282e5b;}.cls-38{clip-path:url(#clip-path-3);}.cls-39{clip-path:url(#clip-path-4);}.cls-40{clip-path:url(#clip-path-5);}.cls-41,.cls-59,.cls-72{opacity:0.5;mix-blend-mode:multiply;}.cls-42{clip-path:url(#clip-path-6);}.cls-43{fill:#363a68;}.cls-44{fill:#346ec1;}.cls-45,.cls-46,.cls-64,.cls-65,.cls-68{stroke:#034c8a;}.cls-45{stroke-width:3.44px;}.cls-46{stroke-width:0.97px;}.cls-47{clip-path:url(#clip-path-7);}.cls-48{clip-path:url(#clip-path-8);}.cls-49{clip-path:url(#clip-path-9);}.cls-50{fill:#d38309;}.cls-51{clip-path:url(#clip-path-10);}.cls-52{clip-path:url(#clip-path-11);}.cls-53{clip-path:url(#clip-path-12);}.cls-54{stroke:#282e5b;stroke-width:0.93px;}.cls-55{fill:#13b5a0;}.cls-56{clip-path:url(#clip-path-13);}.cls-57{fill:#148a77;}.cls-58{clip-path:url(#clip-path-14);}.cls-60{fill:#0254a9;}.cls-61{clip-path:url(#clip-path-15);}.cls-62{clip-path:url(#clip-path-16);}.cls-63{clip-path:url(#clip-path-17);}.cls-64{stroke-width:3.05px;}.cls-65{stroke-width:1.03px;}.cls-66{clip-path:url(#clip-path-18);}.cls-67{clip-path:url(#clip-path-19);}.cls-68{stroke-width:0.9px;}.cls-69{clip-path:url(#clip-path-20);}.cls-70{clip-path:url(#clip-path-21);}.cls-71{clip-path:url(#clip-path-22);}.cls-73{fill:#bec6c4;}.cls-74{stroke:#434e84;stroke-width:4.29px;}.cls-75{fill:#fefefe;}</style><clipPath id="clip-path"><path class="cls-1" d="M175.66,164.53c.11.51.21,1,.28,1.53a19.55,19.55,0,0,1,.22,3.33c0,1-.25,2.05-.22,3.07a3.76,3.76,0,0,0,.66,1.67,18.78,18.78,0,0,1,1.3,2.62c.14.45.22,1.09-.31,1.29s-1.67-.1-1.89.71c-.11.41.05.87-.1,1.27s-.35.35-.55.54a1,1,0,0,0-.28.65,5.4,5.4,0,0,1-.17,1.44c-.16.44-.48.63-.72,1a1.91,1.91,0,0,0-.19,1c0,1,0,2.17-1.24,2.44a6.4,6.4,0,0,1-2.18-.08,11.13,11.13,0,0,0-2.76-.19,1.68,1.68,0,0,0-1.07.62,7.37,7.37,0,0,0-1.23,2.07,29.57,29.57,0,0,0,1.4,5.8c.8,1.68-2.53,2.4-2.53,2.4l-8.72-4L152.28,189l2.05-5.29a9.16,9.16,0,0,0,.61-2.63l.45-17.39,11.74-4.15,8.57,4.91Z"/></clipPath><clipPath id="clip-path-2"><path class="cls-2" d="M151,217.55a33.88,33.88,0,0,1-2.7-10.22,26.34,26.34,0,0,1,.94-10.07c.49-1.62,1.36-3,1.7-4.71l2.39-6.5a50.75,50.75,0,0,0,8.32,6.69,9.11,9.11,0,0,0,4.12,1.39h.53l10.13,11.71a9.07,9.07,0,0,1,2.3,2.6,10.35,10.35,0,0,1,1.13,5.73c-.09,1.22-.32,2.42-.4,3.63a13.55,13.55,0,0,0,.22,3.18c.41,2.41.81,4.79,1.06,7.22.28,2.62,1.43,17.68,1.61,19.06s.36,2.43.49,3.16a17,17,0,0,1-7.6,2.59c-4,.31-8.56-1-10.78,0-.21.09-1,.44-1.51.16-.33-.18-.32-.8-.36-1.09-.09-.61-.16-1.22-.26-1.82a1.49,1.49,0,0,0-.13-.59.26.26,0,0,0-.38-.12c-.3.12-2.12,2.06-2.42,2.31-.79.63-3.39-.45-10.79-7.07a9.7,9.7,0,0,0,2.8-2.08,8.53,8.53,0,0,0,1-1.33,2.83,2.83,0,0,1,1.12-1.27,3,3,0,0,0,1.05-1c.25-.38.27-.87.5-1.24s.58-.38.86-.56a2.6,2.6,0,0,0,.81-1Z"/></clipPath><clipPath id="clip-path-3"><path class="cls-5" d="M296.15,247.58s-5,15.91-5.3,20.21-4.92,32.49-5.49,35.08c-2.78,12.76-5.78,40.86-5.78,40.86l2,2.58-2,3.87v4.95a27,27,0,0,1,4.72-.87c1.5,0,5.6,1.74,5.6,1.74s4.43-12.17,4.43-14,2-2.65,1.82-4-.64-4.8,0-6.29a144.62,144.62,0,0,0,3.8-18.23c.25-3.48,4.22-14.41,4.22-14.41s4.72-13.91,5.47-15.9,1.93-12.43,6.55-12.43,12.09,14.91,13.33,20.38,9.19,32.3,10.43,34.29,6,8.7,6,8.7l-1.84,7.23,1.26,9.9s.81,5.12.93,6.24,4.26,0,4.26,0,7.69-1.63,8.93-2.25,1.37-3.36,1.12-4.23a18.14,18.14,0,0,1-1-3.47c0-.87-5.34-36.18-5.84-38.91s-4.64-12.32-5.55-16.3A111.88,111.88,0,0,1,346.42,276c0-3-.49-6.21-.49-7.45s-7-23.11-7-23.11Z"/></clipPath><clipPath id="clip-path-4"><path class="cls-7" d="M300.79,175.19c-1.45.8-1.72.7-6.42,2.4a43.37,43.37,0,0,0-4.85,1.87c-2.64,2.36-1,6.27-2.32,12.46-.69,3.23-3.22,6.28-3,7.62s4.37,1.2,7.62,1.16c3.61,0,4.18-.87,5.14-.33,3.82,2.18-3.55,16.64-3,31.64.06,1.42.3,6,0,12.18-.13,2.84-.34,5.16-.49,6.71a127.24,127.24,0,0,0,23.36,4c9.76.72,14.2-.12,18.13-2.24a23.42,23.42,0,0,0,6.71-5.46,16,16,0,0,1-1.49-6.21c0-2.07.39-2.85.25-5.47a28.48,28.48,0,0,0-.74-4.72c-.81-3.75-1.31-5.09-1.74-7-.52-2.26-2.43-10.52,1.74-16.4a12.45,12.45,0,0,1,1.24-1.49c.72.44,1.32,1.78,2.15,1.33s2-9.08,3.07-11.68a18.61,18.61,0,0,0,2-6.8,9.32,9.32,0,0,0-4-9.11c-.65-.51-2-1.52-7.46-4-1.87-.84-2.8-1.26-3.72-1.58a30.4,30.4,0,0,0-6.22-1.4c-8.81-1.11-10.85,1.3-17.18,0a9,9,0,0,0-4.43-.09C303.36,173.1,303.14,173.88,300.79,175.19Z"/></clipPath><clipPath id="clip-path-5"><path class="cls-6" d="M316.19,160.12Q315.11,167.07,314,174h12.42l-2-14.25Z"/></clipPath><clipPath id="clip-path-6"><path class="cls-6" d="M285.48,199.59c-.49,3.4.7,12.06.89,18.34a6.57,6.57,0,0,0,5.47,7.12c4,1.07,15.77,2.13,31.64,2.65l11.1-5.3c3.54-3.73,5.33-7.82,4-9.84-1.66-2.58-8.21-1.42-12.32,1.06a16.16,16.16,0,0,0-6.13,7c-3.72-.76-7.72-1.73-11.93-3-3.68-1.09-7.11-2.27-10.27-3.48a39,39,0,0,0,.48-7.44,28.56,28.56,0,0,0-.73-6.33C293.62,199.19,287.91,198.9,285.48,199.59Z"/></clipPath><clipPath id="clip-path-7"><path class="cls-8" d="M376.25,343.59c.68-4.5,1.54-8.83,1.14-13.4-.46-5.15-.87-10.25-1-15.43,0-2.58-.05-5.17-.05-7.76a50,50,0,0,1,.22-6.81,7.83,7.83,0,0,1,2.88-5.42c2.7-2,6.52-2,9.73-2,1.21,0,2.41,0,3.61,0l0,.34h0a.35.35,0,0,0,.28-.15.37.37,0,0,0,0-.29h.22c13.19-1,26.36-2.15,39.54-3.34a3.27,3.27,0,0,0,2.82-1.89,74.74,74.74,0,0,1,13.48,10.82c-.08.35-.16.7-.25,1.05s-.21.58-.34.9a4.44,4.44,0,0,0-.21.71l.26,0c.21,2.54,0,6.23-2,8.08-2.26,2-6,2.08-8.83,2.26-5.11.32-10.25.19-15.37.07-5.35-.13-10.71-.32-16.06-.6q-3.71-.19-7.4-.61a43.11,43.11,0,0,1-7-1.17c-.38-.1-1.11-.38-1.11-.38a55.17,55.17,0,0,1,.71,13.52c-.37,4.95-1.52,9.81-2.4,14.68a35.06,35.06,0,0,0-.76,6.54,23,23,0,0,0,.24,2.87c0,.18.1.44.17.73a2.08,2.08,0,0,1,0,1.23c-.16.3-.63.37-.93.44a18,18,0,0,1-3,.29,26.8,26.8,0,0,1-6.75-.5A7.28,7.28,0,0,1,377,348a1.55,1.55,0,0,1-.86-.67C375.57,346.31,376.1,344.58,376.25,343.59Z"/></clipPath><clipPath id="clip-path-8"><path class="cls-1" d="M435.84,237.59a97.61,97.61,0,0,0-10.18,6.3h0a.36.36,0,0,0,0-.27.36.36,0,0,0-.22-.16.43.43,0,0,1,0-.18,3,3,0,0,1,.1-.62c.32-1.54.72-3.11,1.11-4.65a5.56,5.56,0,0,1,.82-2,4.22,4.22,0,0,1,.58-.62c.12-.11.26-.19.4-.32a.78.78,0,0,0,.3-.61v-.12h0a3.07,3.07,0,0,0-.8-1.57,2.33,2.33,0,0,0-1.69-.84c-.43,0-.4.22-1.14.46a2.5,2.5,0,0,1-1.71.11,1.93,1.93,0,0,1-.78-.71,3,3,0,0,1-.27-.43,3.84,3.84,0,0,1-.41-1.26,33.69,33.69,0,0,0-2.44-5.82,1.52,1.52,0,0,0-.91-.54,2.92,2.92,0,0,1-.78-.19.5.5,0,0,1-.25-.22.78.78,0,0,1-.08-.37,2,2,0,0,1,.16-.69c.28-.62.92-1.13,1.28-2a7.11,7.11,0,0,0,.24-2.22c.08-1.33.44-2.71.59-4.12a27.91,27.91,0,0,1,.78-4.58,16,16,0,0,1,.57-1.69l0-.15a6.43,6.43,0,0,1-.06-.8c0-.46,0-.82.25-1,4.92-3.47,29.86-5.67,19.7,19.57a5.8,5.8,0,0,0-.25,1.17,1.72,1.72,0,0,1-.32.85l-.07.06a.36.36,0,0,0-.3,0,.35.35,0,0,0-.14.27q0,.72.09,1.44c0,.06,0,.23,0,.39a1.14,1.14,0,0,0,.14.54.66.66,0,0,0,.2.21.48.48,0,0,0,.28.08h.26a.87.87,0,0,1,.68.27,3.42,3.42,0,0,1,.68,1.42,7.26,7.26,0,0,1,.22,1.73,2.62,2.62,0,0,1,0,.28c0,.13-.05.3-.08.52a1.85,1.85,0,0,0,0,.23.49.49,0,0,0,0,.12,12.94,12.94,0,0,0-3,1.17A32.63,32.63,0,0,0,435.84,237.59Z"/></clipPath><clipPath id="clip-path-9"><path class="cls-9" d="M449.19,298.21a11.79,11.79,0,0,0,.31-2.12v-.2c0-1.49-.71-2.78-1.05-4.39-.64-3.07,1.42,4-.15-22v0c0-4.92,4.48-8.55-.32-22.45a63.77,63.77,0,0,0-3.29-7.87c-.63-1.24-1.31-2.46-2-3.65-.1-.16,0-.62-.07-.74s-.22.17-.23.07c-1,.25-2.67-.58-3.62-.07a36.2,36.2,0,0,0-3.89,1.3c-3.54,1.71-5.87,5.63-9.19,7.78-1.42,4.34-6.43,7.73-4.46,17.83A95,95,0,0,1,423,272.13c.08.94.16,1.91.16,2.87a14.66,14.66,0,0,1-.07,1.48,27.05,27.05,0,0,1-.66,2.94c-.15.74-.25,1.49-.35,2.24,0,.26-.36,3.31-.39,3.57,1.58.29,3.46-2.16,5-1.76C435.28,285.72,442.8,292,449.19,298.21ZM437.06,253.3l0,0a1.73,1.73,0,0,1,.21.32A1.66,1.66,0,0,1,437.06,253.3Z"/></clipPath><clipPath id="clip-path-10"><path class="cls-9" d="M442.59,234.81a50.83,50.83,0,0,1,5.2,10.75,38.24,38.24,0,0,1,2.78,11.9,22.44,22.44,0,0,1-.42,5c-.37,1.86-1.1,3.63-1.41,5.5a23.32,23.32,0,0,0,0,4.87c.09,2,.34,4,.51,6a60.08,60.08,0,0,1,.2,6.15,17.51,17.51,0,0,1-.56,4.67c-.62,2.09.88,3.87.91,6a13.8,13.8,0,0,1-.76,4.27c-1.44,4.5-4.89-2.28-15.83-2.29-7.75,0-6-5.93-9.79-5.72L434.57,282Z"/></clipPath><clipPath id="clip-path-11"><path class="cls-1" d="M513.18,353s.46,5.65.61,7,1.53,2.9,1.53,5.5-14.81,5-14.81,5H490.43l2.44-6.26s7.79-3.2,9-4.58,2.08-7.94,2.08-7.94Z"/></clipPath><clipPath id="clip-path-12"><path class="cls-3" d="M516.08,246.85s4.12,9.16,3.67,12.68-3.36,9.16-3.67,15.72S512.87,293,512.87,295s.46,12.06.46,12.06,4.35,5.65,5,16.41,1.41,30.69,1.41,30.69a39,39,0,0,1-6.91,1.38c-2.06,0-10.07-2.29-10.07-2.29s.69-19.47,0-22.45-2.75-9.85-3-11.91-3.21-3.89-3.21-6.18-2.29-18.55-3.43-19.47-4.78-19.69-4.57-21.53.72,1.15-.1-4.35,0-8.24,0-8.24l.25-2.64s7.63-11.8,10.53-12S516.08,246.85,516.08,246.85Z"/></clipPath><clipPath id="clip-path-13"><path class="cls-1" d="M509.34,183.38c-.9-1-1.75-2-2.55-3a7.23,7.23,0,0,1-1.42-2.23,6.27,6.27,0,0,1-.36-1.86,5.07,5.07,0,0,1-.89-1,5.23,5.23,0,0,1-.77-2c-.19-.86-.88-2.05-3.13-3.48,0-.35.47-3.8-1.61-5.58a4.8,4.8,0,0,0-1.87-.93c-3.36-.87-4.45,2.66-2,5.05a6.86,6.86,0,0,1,.84,8.8c-.92,1.44-1.43,2.53-1.84,3a7.53,7.53,0,0,1-.81.81c-.49.42-1.61.81-4.43,2,2.16-.88,4.79,1.34,5.87,3.69s-.08,4.45.78,5.2S499.56,191.45,509.34,183.38Z"/></clipPath><clipPath id="clip-path-14"><path class="cls-1" d="M517,203l6.64,21.53s2.06,3.32,1.37,4.92S518.6,238,518.6,238s-14.12,15-15.34,15.88-1.23,5.65-1.45,6.64-3.82,3.74-4.89,4.12-5.5-5-5.57-5.72.61-2.68.38-3.29-2.67.54-3.05-.61,1.06-2.9,2-2.9,5.8.31,6.57-.3,15.42-24.13,15-26-2.75-3-3.67-5-5.95-16.49-5.95-16.49Z"/></clipPath><clipPath id="clip-path-15"><path class="cls-4" d="M80,227.34a19.1,19.1,0,0,0-2,3.95c-.69,1.68-1.32,3.39-1.9,5.11A81.5,81.5,0,0,0,73.29,247c-1.5,7.74-1.81,15.63-2.29,23.48-.23,3.7-.5,7.4-.75,11.1A17.4,17.4,0,0,0,71.39,290c.38.85,1.11,2.22,2.25,1.84a3.92,3.92,0,0,0,1.46-1.16,22.1,22.1,0,0,1,3-3c2.65-1.91,6.13-2.73,9.23-3.57,3.61-1,7.29-1.5,10.91-2.38a22.8,22.8,0,0,0,2.27-.69c.63-6,1.24-12,2-17.93a44.33,44.33,0,0,0-1.17-18.36,34.54,34.54,0,0,0-3.91-8.67c-1.77-2.8-4.26-5.32-6.31-7.95L81.38,226Z"/></clipPath><clipPath id="clip-path-16"><path class="cls-1" d="M89.39,268.57a25.37,25.37,0,0,0,2.1,7.12,9,9,0,0,0,2,3,18.34,18.34,0,0,0,5.34,3.16c6.5,2.92,4.19,2.07,8.38,3.46a199.86,199.86,0,0,0,20.9,5.39c3,3.15,5.43,3.83,6.37,4a19.54,19.54,0,0,0,3.35.41,21,21,0,0,1,2.86.13c1.44.24,2.7,1.06,4.11,1.43,1.26.33,2.78-.06,3-1.55a2.16,2.16,0,0,0-.77-1.79,15.8,15.8,0,0,0-5.23-3.49c-3.41-1.14-7.23-2.35-11.51-3.57a131.46,131.46,0,0,0-17.84-10.35c-2.24-1-6.81-2.9-9.94-7.61a23.18,23.18,0,0,1-1.67-2.9Z"/></clipPath><clipPath id="clip-path-17"><path class="cls-1" d="M94.14,229.29a7.43,7.43,0,0,1,1.93-2.73,9.9,9.9,0,0,1,3.85-1.66c.89-.27,1.72-.55,1.78-1.58,0-.09,1.2-6.87,1.28-7,.34-.41,1.13-.34,1.59-.51,2.57-.91-.81-4.58-1.43-5.55s-.12-1.36-.14-2.3a4.76,4.76,0,0,0-.51-1.6,5.74,5.74,0,0,1-.3-1.88c0-.44-.08-.86-.13-1.29-.74.39-.5-.1-1.3-.08s-1.15.84-1.41,1.59A7.67,7.67,0,0,1,97.51,208a5.17,5.17,0,0,0-1.88,2.74c-.08.41.27,4.8-1.34,3.72-.8-.54-.73-2.39-.87-3.15a4.15,4.15,0,0,0-1.5-2.33c-1-.95-1.15-2.74-3-2.26-2.37.63-1.23,3.46-.83,5a5.92,5.92,0,0,0,1.37,2.9,1.73,1.73,0,0,0,1.95.11l-.12.2c-.45.85.08,1.68.1,2.41,0,1.23-1.33,2.21-2,2.66a5.88,5.88,0,0,1-4.06,1,5.38,5.38,0,0,1-4.24,2.26Z"/></clipPath><clipPath id="clip-path-18"><path class="cls-3" d="M206.37,277s-9.78,4.56-13.37,9.62-4.89,4.56-6.52,6.68-1.95,3.75-.81,6.36,1.79,47.93,1.79,47.93v6.2s3.79-1.15,5.58-1,6.65,1,8.44,1.3,1.14-5.54,1.14-5.54l1.47-4.73s1.3-30.81,2.28-33.42,9.13-7.17,9.13-7.17,0-1.31,8.81,0,17.28-2.94,19.23-.66,2.29,13.7,2.29,19.89.65,10.44,0,14,1.3,13,1.63,14.34a10.57,10.57,0,0,1,.21,2.82,9.38,9.38,0,0,1,5-1.19c3.26,0,8.81-.32,8.81-.32s-2.29-7.5,0-12.39,3.26-23.15,3.26-28.37,2.28-15.33,0-19.24S240.61,277,240.61,277Z"/></clipPath><clipPath id="clip-path-19"><path class="cls-5" d="M215.66,219.48c-9.7,3.93-21.48,6.73-24.35,18-.71,2.77-1.07,5.62-1.82,8.38-.51,1.89-2.5,4.94-1.57,6.9,1.26,2.65,7.87,3.45,10.38,3.65l17.36,28.2,22.5-5.38,13.05-24.78,4.07-1.22s2.45.24,2.45-1.06c0-3.18-1.4-6.78-2.12-9.84-1.05-4.51-1.48-10.23-3.51-14.35-2.34-4.76-8.42-4.93-13-6q-5.18-1.25-10.37-2.45Z"/></clipPath><clipPath id="clip-path-20"><path class="cls-1" d="M214,219.89c-.24.06,0,6.19,0,6.73a4.78,4.78,0,0,0,.33,2.47,6.94,6.94,0,0,0,5.28,3.83,11.51,11.51,0,0,0,12.66-5.69V215.49Z"/></clipPath><clipPath id="clip-path-21"><path class="cls-1" d="M243.05,255.92s2.39-3.63,5.32-3.87a58.47,58.47,0,0,1,8.07.26l-3.12,19.5s1,2.2.25,3.31-4.4,2.44-4.4,2.44l-19.93,11.62h-1.71l-1-2.33-2.69-.49-2.08,2.82h-2.45v-7.1l3.79-2.32,2.82,1.84s13.2-8.18,14.91-10.45l1.71-2.27Z"/></clipPath><clipPath id="clip-path-22"><path class="cls-6" d="M204.17,255.55l.49,13.08,14.67,13.45v7.1h2.45l2.08-2.82,2.69.49,1,2.33s3.05.73,3.3,1.59-1.72,7.09-2.69,7.33-7.83-.61-7.83-.61l-6-4s.24-7.34,0-8.44-17-7.95-18.59-9.9c-.66-.82-1-2.39-1.83-5.38a127.77,127.77,0,0,1-3.63-16.43c1.29-.33,3.47,0,5.22-.06C199.41,253.06,202.11,254.78,204.17,255.55Z"/></clipPath></defs><title>research</title><g class="cls-10"><g id="Layer_2" data-name="Layer 2"><g id="BACKGROUND"><path class="cls-11" d="M499.23,371.31c13.2-14.57,27.36-35.45,25.19-59s-20.93-29.79-26.55-54.92c-8.7-38.9,15.39-55.75,17.26-91.08,3.35-63.41-67.41-138.1-135.38-146-41.05-4.77-46.82,18.81-98.22,15.93C218.24,32.68,207-4.19,162.08.39,110.82,5.62,57.3,60.57,57.22,110.56c-.08,51.54,56.7,74.63,45.13,114.14-7.64,26.11-37,24.73-53.09,55.74C34,309.89,58.39,355.19,71.17,371.31Z"/><circle class="cls-11" cx="63.5" cy="26.12" r="19.66"/><circle class="cls-11" cx="71.17" cy="212.24" r="19.66"/><circle class="cls-11" cx="109.95" cy="58.51" r="10.77" transform="translate(-9.17 94.88) rotate(-45)"/><path class="cls-11" d="M508.89,239.75a11.5,11.5,0,1,1,11.49,11.5A11.48,11.48,0,0,1,508.89,239.75Z"/><circle class="cls-11" cx="516.94" cy="214.07" r="8.05" transform="translate(0.04 428.23) rotate(-45)"/><circle class="cls-11" cx="52.09" cy="69.28" r="8.25" transform="translate(-33.73 57.12) rotate(-45)"/><circle class="cls-11" cx="273.88" cy="20.08" r="8.25" transform="translate(66.02 199.54) rotate(-45)"/><circle class="cls-11" cx="446.58" cy="28.33" r="8.25" transform="translate(347.08 464.6) rotate(-80.78)"/><g class="cls-12"><path class="cls-13" d="M242.37,357.51a9.58,9.58,0,0,0-.05-4.06,11.16,11.16,0,0,0-1.51-3.59,12.62,12.62,0,0,0-4.15-4A15.76,15.76,0,0,0,235,345a24.16,24.16,0,0,0-6.12-1.71l-2.53-.38-2.53-.34a147.67,147.67,0,0,0-23.22-1.11c-14.35.45-33.41,3.17-33.43,6.36s18.63,6.42,33.4,7.11a138,138,0,0,0,23-.87c1.68-.2,3.41-.45,4.85-.68a19.47,19.47,0,0,1,3.84-.34,6.7,6.7,0,0,1,1.65.27,5.41,5.41,0,0,1,1.53.74,4.46,4.46,0,0,1,1.94,2.84Z"/><path class="cls-14" d="M239.88,356.77a7.08,7.08,0,0,0-.69-3.12,8,8,0,0,0-1.68-2.35,9,9,0,0,0-2.23-1.62,11.16,11.16,0,0,0-2.41-.88,20.81,20.81,0,0,0-4.59-.49l-4.26,0-17-.1-34-.2"/><line class="cls-14" x1="187.96" y1="348.07" x2="184.47" y2="351.27"/><line class="cls-14" x1="191.98" y1="348.09" x2="189.29" y2="343.86"/><line class="cls-14" x1="200.72" y1="348.15" x2="198.17" y2="351.91"/><line class="cls-14" x1="207.02" y1="348.18" x2="203.3" y2="343.73"/><line class="cls-14" x1="214.06" y1="348.22" x2="210.35" y2="352.85"/><line class="cls-14" x1="225.45" y1="348.29" x2="222.35" y2="345.19"/><path class="cls-13" d="M276.43,372.16c-.56-2.51-5.85-9-7.28-11.37a32.89,32.89,0,0,0-5.37-6.55,61.28,61.28,0,0,0-11.35-8.16c-3.25-1.89-6.65-3.86-10.25-5.77s-7.36-3.84-11.34-5.64c-2-.91-4-1.83-6.07-2.74s-4.19-1.74-6.34-2.6-4.35-1.71-6.6-2.51-4.53-1.6-6.85-2.38a240.94,240.94,0,0,0-29.86-7.64c-17.76-3.3-38.72-4.89-55.17-4S91.6,316.45,91.3,320.3s10.58,8.53,25.59,13.55S151.05,344.44,168,349c19.47,5.22,37.47,9.19,53.7,12.27,4.06.76,8,1.52,11.81,2.15s7.54,1.32,11,1.86a47.66,47.66,0,0,1,9.27,2.12,16.91,16.91,0,0,1,3.9,2,12.18,12.18,0,0,1,3.09,3.15Z"/><path class="cls-15" d="M266,369.65a19.17,19.17,0,0,0-1.65-3.06c-.32-.48-.68-.94-1-1.4s-.79-.9-1.18-1.34a25.76,25.76,0,0,0-5.15-4.07,55.56,55.56,0,0,0-10.31-4.68q-9.84-3.64-19.78-6.93-19.86-6.57-40.07-11.67A578.89,578.89,0,0,0,105.33,322"/><path class="cls-15" d="M141.28,326.89c-3.22,2.13-6.41,4.29-9.56,6.45"/><path class="cls-15" d="M150.93,328.6q-2.31-5.66-4.75-11.34"/><path class="cls-15" d="M171.84,332.91c-2.68,2.54-5.36,5.16-8,7.75"/><path class="cls-15" d="M186.85,336.5c-2.09-4.24-4.22-8.55-6.45-12.75"/><path class="cls-15" d="M203.51,341q-5.89,4.2-11.67,8.58"/><path class="cls-15" d="M230.28,349.28c-1.62-3.22-3.3-6.38-5-9.59"/><path class="cls-13" d="M357.78,368.88c9.87-4,21.82-8.93,35.38-14.63s28.79-12.07,45.48-19.46c14-6.22,30.62-13.25,44-19.06s23.39-10.68,22.84-14.25c-.53-3.4-11.67-5.36-27-4.62-1.92.1-3.9.21-5.93.37s-4.09.43-6.21.69c-4.23.46-8.57,1.27-13,2.07-2.2.39-4.39.94-6.58,1.44s-4.4,1-6.56,1.62-4.3,1.24-6.42,1.88l-3.14,1L427.59,307q-3.48,1.23-6.86,2.52c-2.23.92-4.41,1.85-6.56,2.8L411,313.71c-1.05.5-2.08,1-3.1,1.53-2.05,1-4.05,2.05-6,3.09s-3.84,2.18-5.7,3.28-3.7,2.16-5.44,3.34-3.46,2.31-5.13,3.46l-2.47,1.73-2.38,1.78a168.5,168.5,0,0,0-28.85,27.64Z"/><path class="cls-16" d="M355.22,363.78a348.34,348.34,0,0,1,137.25-60.27"/><path class="cls-16" d="M459.92,311.66c1.79-3,3.63-6.1,5.54-9.06"/><polyline class="cls-16" points="451.34 314.37 455.65 317.87 459.91 321.48"/><polyline class="cls-16" points="432.99 321 434.09 316.03 435.27 311.11"/><path class="cls-16" d="M420,326.41c3.88,1.9,7.66,3.78,11.42,5.84"/><path class="cls-16" d="M405.89,333c.9-4.31,1.92-8.56,3-12.88"/><path class="cls-16" d="M383.75,345c3.15.83,6.21,1.6,9.31,2.54"/><path class="cls-13" d="M279.58,277.56C271,262.41,255.76,236,240.7,216.33A361.91,361.91,0,0,0,182.64,156c-2.49-2.08-5.17-4.08-7.84-6.14s-5.39-4.11-8.2-6.11-5.69-3.95-8.56-5.9l-4.32-2.9-4.42-2.76c-3-1.82-5.9-3.6-8.81-5.33s-5.94-3.3-8.84-4.86-5.77-3.08-8.63-4.44-5.69-2.63-8.42-3.82l-4-1.74-2-.82-2-.74c-2.6-1-5.1-1.83-7.47-2.61s-4.63-1.46-6.74-2-4.17-.95-6-1.27c-7.43-1.28-12.3-.89-13.64,1.58s.82,6.86,5.35,12.42c1.12,1.41,2.44,2.82,3.8,4.42s2.88,3.25,4.5,5,3.36,3.48,5.2,5.29S95.3,137,97.28,139s4,4,6.17,6,4.23,4.25,6.44,6.4c4.48,4.22,9,8.85,13.65,13.3l1.76,1.69,1.74,1.73,3.5,3.45c2.33,2.3,4.73,4.51,7.05,6.82s4.66,4.58,7,6.8l3.48,3.32,3.42,3.31q3.91,3.75,7.82,7.33t7.71,7.17l3.84,3.46,3.79,3.46q3.79,3.41,7.57,6.67c5,4.41,9.93,8.6,14.8,12.66s9.67,7.91,14.35,11.66a589.78,589.78,0,0,0,50.76,36.15Z"/><path class="cls-17" d="M273.68,276.45c-27.34-29.08-60.49-60.33-89.78-87.46-14.65-13.56-29.71-26.61-45.33-38.81A484.15,484.15,0,0,0,89.94,116.6"/><path class="cls-17" d="M132.8,145.8c-5.51.58-10.9,1.12-16.38,1.93"/><path class="cls-17" d="M143.9,154.43l.89-8.83c.28-2.94.5-5.86.72-8.82"/><polyline class="cls-17" points="167.42 174.12 159.72 176.21 152.03 178.43"/><path class="cls-17" d="M183.9,189c.28-6.8.58-13.71.65-20.55"/><path class="cls-17" d="M201.88,206.06c-6.89.87-13.81,1.86-20.65,2.86"/><path class="cls-17" d="M230.26,234.58c0-5.15.09-10.35.05-15.52"/><path class="cls-13" d="M331.59,273.33a457.66,457.66,0,0,0-13.27-74.47,457.71,457.71,0,0,0-14.26-44.49c-2.93-7.7-6.08-15.47-9.65-23.45-1.74-4-3.68-8-5.61-12s-4.06-8.11-6.24-12.18a301.32,301.32,0,0,0-26.74-41.45A204.64,204.64,0,0,0,222.75,31c-2.74-2.3-5.63-4.31-8.35-6.21-1.37-.94-2.7-1.86-4-2.72s-2.7-1.61-4-2.36-2.56-1.45-3.79-2.12l-1.82-1L199,15.77q-3.62-1.62-6.72-2.75a35.56,35.56,0,0,0-5.8-1.61,26.36,26.36,0,0,0-4.69-.53c-2.72,0-4.6.62-5.55,2s-1,3.36-.31,5.87a27,27,0,0,0,1.56,4.13c.34.75.74,1.51,1.15,2.32s.82,1.7,1.28,2.59c.93,1.77,2,3.64,3.18,5.58s2.34,4.18,3.69,6.38,2.66,4.61,4.12,7c.71,1.23,1.48,2.44,2.21,3.73l2.2,4c6.06,10.67,12.52,23.09,18.81,36.35s12.41,27.34,18.32,40.77l5.09,11.48q2.58,5.72,5.11,11.28c3.42,7.46,6.89,14.79,10.35,21.85,6.94,14.13,13.89,27.37,20.72,39.71,13.67,24.65,26.8,45.71,38,62.73Z"/><path class="cls-18" d="M321,275Q298,207.75,268.92,143.22c-9.64-21.48-20.12-42.59-32.28-62.41a297.65,297.65,0,0,0-19.85-28.33l-2.69-3.33-1.35-1.67c-.45-.55-.94-1.07-1.4-1.61L205.7,39.5l-5.91-6.08c-1-1-2-2-3-2.91l-3.09-2.86"/><path class="cls-18" d="M232.08,73.67c-3.11-.8-6.35-1.46-9.48-2.11s-6.25-1.28-9.4-1.78"/><path class="cls-18" d="M240.75,87.68c3.14-6.16,6.23-12.48,9-18.9"/><path class="cls-18" d="M257.8,119.51c-6.24-.83-12.51-1.54-18.71-2.19"/><path class="cls-18" d="M268.92,143.22c3.48-7.27,6.82-14.6,10.14-22.06"/><path class="cls-18" d="M280.68,170q-11.9-3.26-23.78-6.32"/><path class="cls-18" d="M298.65,214q3.62-8.4,7.11-16.89"/><path class="cls-13" d="M306.43,370.66c-7.79-10-28.05-33.5-40.26-46.3a426.74,426.74,0,0,0-43.93-40.17c-28.85-22.86-70.5-49.73-75.93-43.54s25.42,43.94,53.49,70A320.86,320.86,0,0,0,247.06,347c15,9.46,28.59,19.47,40.12,24.56Z"/><path class="cls-19" d="M297.61,368.88c-45.67-36-96.3-79.69-140.25-118.06"/><line class="cls-19" x1="186.35" y1="276.06" x2="174.18" y2="276.45"/><line class="cls-19" x1="194.18" y1="282.83" x2="196.01" y2="270.04"/><line class="cls-19" x1="211.25" y1="297.5" x2="199.97" y2="300.66"/><line class="cls-19" x1="223.61" y1="308.03" x2="223.65" y2="293.09"/><line class="cls-19" x1="237.45" y1="319.7" x2="222.49" y2="322.74"/><line class="cls-19" x1="260.02" y1="338.41" x2="258.87" y2="327.18"/><path class="cls-13" d="M322.38,373c9.59-11.52,21.1-25.64,33.81-42.05s26.75-35,41.44-56.14c12.33-17.74,26.81-38.58,38.05-55.66s18.92-30.56,15.5-34.22-17.58,2.91-34.8,15.36c-2.14,1.56-4.36,3.19-6.59,4.9s-4.44,3.57-6.7,5.45c-4.58,3.71-9.07,7.85-13.61,12-2.29,2.09-4.45,4.32-6.66,6.52s-4.4,4.42-6.51,6.69-4.17,4.58-6.19,6.86l-3,3.42-2.86,3.47c-2.16,2.64-4.25,5.27-6.3,7.89s-3.92,5.33-5.8,8l-2.78,4c-.9,1.33-1.76,2.67-2.62,4q-2.58,4-5,7.92c-1.6,2.63-3.08,5.29-4.55,7.89s-2.91,5.17-4.2,7.78-2.57,5.16-3.79,7.69l-1.79,3.78-1.66,3.78c-8.71,20-15.08,44.49-18.09,59.37Z"/><path class="cls-20" d="M313.68,371.66a672.68,672.68,0,0,1,55.6-93.41,627.76,627.76,0,0,1,68.44-80.91"/><path class="cls-20" d="M405.91,231.57c-.16-4.9-.31-9.88-.32-14.79"/><polyline class="cls-20" points="397.8 241.14 405.51 242.09 413.22 243.17"/><polyline class="cls-20" points="380.87 262.46 378.58 255.74 376.38 249.03"/><path class="cls-20" d="M369.28,278.25c6-.49,11.9-1,17.89-1.24"/><path class="cls-20" d="M356.93,296.21c-1.93-5.83-3.72-11.66-5.5-17.59"/><path class="cls-20" d="M338.38,326.14c4.4-1.15,8.68-2.31,13.09-3.34"/></g></g><g id="OBJECTS"><path class="cls-2" d="M483.07,290.49l-.34.17c-3.51,1.68-5.38,1.4-8.8-.18A36.47,36.47,0,0,1,465.1,285a18.48,18.48,0,0,1-6.4-11.26,4,4,0,0,1,.47-2.86,3.22,3.22,0,0,1,3.71-.77,11.24,11.24,0,0,1,3.28,2.39,3.58,3.58,0,0,0,1.44.93,1.37,1.37,0,0,0,1.53-.51c.45-.8-.33-1.73-1-2.32-1.64-1.37-3.18-2.16-4.9-3.37a16.21,16.21,0,0,1-5.36-5.75,8.48,8.48,0,0,1-.21-7.63,4.63,4.63,0,0,1,1.57-1.8,5.6,5.6,0,0,1,4.15-.42,39.85,39.85,0,0,0,4.16,1c3.35.35,4.67-2,4.61-5.1-.05-2.07-.72-4.08-.84-6.15-.21-3.64,1.59-7.52,4.88-9.07s7.9-.07,9.08,3.38c1.28,3.75-1.64,8,.3,11.54a10.84,10.84,0,0,0,3.17,3.46c1.84,1.14,4.49-.19,6.63-.1a2,2,0,0,1,1.33.43,1.89,1.89,0,0,1,.41,1,7.93,7.93,0,0,1-2.4,7.23c-2.22,2-6.06,3-7,6.2-.59,2-.34,6.86,2.79,6.36,1.17-.18,2-1.34,3.08-1.72a3.12,3.12,0,0,1,3.6,1.78,5.49,5.49,0,0,1-.1,4.28,18.06,18.06,0,0,1-4.11,5.55C489.61,285.06,487.44,288.34,483.07,290.49Z"/><line class="cls-21" x1="478.43" y1="244.88" x2="478.43" y2="372.42"/><polyline class="cls-21" points="487.27 258.09 478.43 266.93 469.58 258.09"/><polyline class="cls-21" points="487.27 275.85 478.43 284.69 469.58 275.85"/><path class="cls-22" d="M496.88,344.35l-.3.15c-3.15,1.5-4.83,1.25-7.9-.17a32.23,32.23,0,0,1-7.91-4.92A16.55,16.55,0,0,1,475,329.33a3.6,3.6,0,0,1,.42-2.57,2.89,2.89,0,0,1,3.33-.69,10.23,10.23,0,0,1,2.94,2.14A3.18,3.18,0,0,0,483,329a1.21,1.21,0,0,0,1.37-.45c.41-.72-.29-1.55-.93-2.08-1.47-1.23-2.85-1.94-4.39-3a14.44,14.44,0,0,1-4.8-5.15,7.64,7.64,0,0,1-.2-6.84,4.22,4.22,0,0,1,1.41-1.61,5.07,5.07,0,0,1,3.72-.38,34.78,34.78,0,0,0,3.73.88c3,.31,4.19-1.8,4.13-4.57,0-1.86-.64-3.66-.74-5.51-.19-3.26,1.42-6.74,4.37-8.13s7.08-.06,8.14,3c1.15,3.36-1.48,7.13.26,10.34a9.85,9.85,0,0,0,2.84,3.11c1.65,1,4-.18,5.95-.09a1.77,1.77,0,0,1,1.19.38,1.67,1.67,0,0,1,.37.86,7.11,7.11,0,0,1-2.15,6.48c-2,1.81-5.44,2.73-6.28,5.56-.53,1.76-.3,6.15,2.5,5.7,1.05-.17,1.75-1.2,2.76-1.55a2.8,2.8,0,0,1,3.23,1.6,4.93,4.93,0,0,1-.09,3.84,16,16,0,0,1-3.69,5C502.74,339.48,500.8,342.42,496.88,344.35Z"/><line class="cls-21" x1="492.72" y1="303.46" x2="492.72" y2="371.63"/><polyline class="cls-21" points="500.64 315.3 492.71 323.23 484.79 315.3"/><polyline class="cls-21" points="500.64 331.22 492.71 339.15 484.79 331.22"/><path class="cls-23" d="M42,358.23l-.41.19c-4.18,2-6.41,1.67-10.49-.21a43,43,0,0,1-10.52-6.55c-3.94-3.48-7-8.19-7.63-13.41a4.72,4.72,0,0,1,.56-3.41c.95-1.31,2.91-1.5,4.42-.92a13.73,13.73,0,0,1,3.91,2.85,4.27,4.27,0,0,0,1.72,1.1,1.61,1.61,0,0,0,1.82-.6c.54-1-.39-2.06-1.24-2.77-1.95-1.63-3.79-2.57-5.84-4a19.37,19.37,0,0,1-6.38-6.85,10.14,10.14,0,0,1-.26-9.1,5.53,5.53,0,0,1,1.87-2.14,6.66,6.66,0,0,1,4.95-.5,50.21,50.21,0,0,0,5,1.16c4,.42,5.57-2.4,5.49-6.08-.05-2.46-.85-4.86-1-7.32-.25-4.34,1.89-9,5.81-10.82s9.42-.08,10.83,4c1.52,4.47-2,9.49.34,13.76a13.26,13.26,0,0,0,3.79,4.13c2.19,1.35,5.35-.24,7.9-.12a2.25,2.25,0,0,1,1.58.51,2.18,2.18,0,0,1,.49,1.13,9.45,9.45,0,0,1-2.86,8.62c-2.64,2.41-7.22,3.63-8.35,7.4-.69,2.34-.39,8.17,3.33,7.58,1.4-.22,2.33-1.6,3.67-2.06a3.72,3.72,0,0,1,4.3,2.13,6.55,6.55,0,0,1-.12,5.1c-1,2.56-3,4.62-4.9,6.61C49.79,351.76,47.19,355.66,42,358.23Z"/><line class="cls-24" x1="36.45" y1="303.86" x2="36.45" y2="372.58"/><polyline class="cls-24" points="46.99 319.6 36.45 330.14 25.91 319.6"/><polyline class="cls-24" points="46.99 340.77 36.45 351.31 25.91 340.77"/><path class="cls-22" d="M553.51,326.94a41,41,0,0,0-8.86-4.54A78.8,78.8,0,0,0,531.8,319c-8.27-1.55-20.29-2.37-20.27-4.16,0-.83,2.89-1.77,7-2.46a54.15,54.15,0,0,1,14.51-.42,34.38,34.38,0,0,1,14.39,5,24.54,24.54,0,0,1,7.87,8.07Z"/><path class="cls-25" d="M554.34,325.86c-4.58-5-11.17-8.07-18-9.63s-14.1-1.67-21.16-1.55"/><line class="cls-25" x1="524.52" y1="314.75" x2="522.42" y2="312.98"/><path class="cls-25" d="M527,314.9q-1,1.05-1.86,2.13"/><path class="cls-25" d="M532.47,315.5c-.4-.74-.82-1.48-1.26-2.2"/><path class="cls-25" d="M536.33,316.23c-1,.59-1.86,1.2-2.75,1.84"/><path class="cls-25" d="M540.54,317.4c-.45-1-.94-2-1.47-3"/><path class="cls-25" d="M547,320.18c-.84.18-1.64.35-2.44.59"/><path class="cls-22" d="M558.18,327.83a36.07,36.07,0,0,1-6.08-5.38c-1.94-2.1-3.79-4.44-5.63-6.71a63.93,63.93,0,0,0-5.92-6.5,76.26,76.26,0,0,0-7.62-6.23,147.39,147.39,0,0,0-16.19-9.73c-5.14-2.73-9-4.88-8.63-6.08s4.79-1.29,10.87-.16a61.29,61.29,0,0,1,9.93,2.72,54.61,54.61,0,0,1,10,4.88,43,43,0,0,1,9.12,7.67,39.86,39.86,0,0,1,5.86,8.71c1.4,2.82,2.48,5.4,3.54,7.73a51.89,51.89,0,0,0,3.28,6.26Z"/><path class="cls-26" d="M559.3,326.21c-3.82-3.88-6.31-8.42-9-12.64-.67-1.05-1.38-2.09-2.1-3.1s-1.55-2-2.33-2.94a50.75,50.75,0,0,0-5.4-5.27,63.82,63.82,0,0,0-12.88-8.17,100.18,100.18,0,0,0-14.36-5.53"/><path class="cls-26" d="M525.87,293.3c-.59-1.18-1.22-2.33-1.88-3.49"/><path class="cls-26" d="M529.14,294.88c-1.24.58-2.44,1.15-3.64,1.8"/><path class="cls-26" d="M535.93,298.87c-.06-1.22-.17-2.44-.31-3.65"/><path class="cls-26" d="M540.45,302.26a47.08,47.08,0,0,0-4.68.61"/><path class="cls-26" d="M545,306.57a40.71,40.71,0,0,0,.21-4.83"/><path class="cls-26" d="M551,314.65c-1.17-.38-2.33-.75-3.49-1.06"/><path class="cls-22" d="M555.8,324.55c-1-6.17-2.33-15-3.13-25.67-.34-4.5-.69-9.76-.85-14s-.09-7.35.77-7.54S555,280,556.49,284A74,74,0,0,1,560,298.28a66.64,66.64,0,0,1-1.5,26.22Z"/><path class="cls-27" d="M557.19,324.36A173.06,173.06,0,0,0,553.5,281"/><line class="cls-27" x1="555.25" y1="290.5" x2="556.63" y2="288.05"/><path class="cls-27" d="M555.63,293.06c-.84-.49-1.68-1-2.54-1.43"/><line class="cls-27" x1="556.33" y1="298.64" x2="558.21" y2="296.83"/><path class="cls-27" d="M556.72,302.66c-.88-.75-1.75-1.48-2.64-2.21"/><line class="cls-27" x1="557.04" y1="307.16" x2="559.42" y2="304.68"/><line class="cls-27" x1="557.31" y1="314.44" x2="555.58" y2="312.46"/><path class="cls-22" d="M559,326.39a105.88,105.88,0,0,1,4.91-26.7c2.92-9,8.14-20.53,9.84-19.95s-.27,12.83-2.62,22.24a117,117,0,0,1-9.4,24.95Z"/><path class="cls-28" d="M560.42,326.5q5.67-21.69,12.25-43.07"/><line class="cls-28" x1="569.82" y1="292.83" x2="572.19" y2="291.2"/><line class="cls-28" x1="569.07" y1="295.37" x2="567.32" y2="292.93"/><line class="cls-28" x1="567.46" y1="300.89" x2="569.95" y2="299.93"/><line class="cls-28" x1="566.31" y1="304.88" x2="564.62" y2="301.76"/><line class="cls-28" x1="565.06" y1="309.34" x2="568.21" y2="307.77"/><line class="cls-28" x1="563.06" y1="316.59" x2="561.94" y2="314.1"/><path class="cls-22" d="M553.2,331a29.69,29.69,0,0,1,8.87-9.71,50,50,0,0,1,14.6-7.41,54.62,54.62,0,0,1,7.67-1.76,60.51,60.51,0,0,1,7.37-.59,49.21,49.21,0,0,0,5.38-.4c1.39-.2,2.34-.37,2.6,0s-.26,1.33-1.54,2.4a18.18,18.18,0,0,1-5.53,2.87c-2.25.77-4.53,1.51-6.76,2.27s-4.67,1.68-6.85,2.54c-5,2-9.57,3.91-13.61,5.73a44.48,44.48,0,0,0-9.88,5.67Z"/><path class="cls-29" d="M554.51,331.66a33,33,0,0,1,9-7.47A75.45,75.45,0,0,1,573.8,319a77.7,77.7,0,0,1,10.79-3.53c1.84-.46,3.67-.82,5.54-1.15a39.91,39.91,0,0,0,5.72-1.28"/><path class="cls-29" d="M585.93,315.19c.88.44,1.73.87,2.58,1.34"/><path class="cls-29" d="M583.34,315.83c.39-.94.81-1.87,1.25-2.8"/><path class="cls-29" d="M577.75,317.54c.76.5,1.5,1,2.23,1.53"/><path class="cls-29" d="M573.8,319c.47-1.11,1-2.21,1.52-3.32"/><path class="cls-29" d="M569.49,321c1.1.43,2.21.92,3.28,1.4"/><path class="cls-29" d="M562.73,324.7c.31-.88.63-1.77,1-2.64"/><path class="cls-30" d="M542.73,322.12h25.92a7.4,7.4,0,0,1,7.4,7.4v24.08a19,19,0,0,1-19,19h-5.12a16.2,16.2,0,0,1-16.2-16.2V329.13A7,7,0,0,1,542.73,322.12Z"/><path class="cls-31" d="M542.29,359.33V327.86a5.74,5.74,0,0,1,5.73-5.74h-6.55a5.74,5.74,0,0,0-5.74,5.74v31.47A13.27,13.27,0,0,0,549,372.61h6.55A13.27,13.27,0,0,1,542.29,359.33Z"/><rect class="cls-30" x="530.86" y="320.24" width="49.21" height="9.21" rx="3"/><path class="cls-32" d="M382,160.45h55.83l15,9.73V128.85c0-8.31-7.73-15-17.26-15H382c-9.53,0-17.25,6.73-17.25,15v16.56C364.71,153.72,372.43,160.45,382,160.45Z"/><path class="cls-33" d="M103.72,138.8h30.94l16.88,11V103.21c0-9.36-8.7-16.94-19.43-16.94H103.72c-10.73,0-19.43,7.58-19.43,16.94v18.65C84.29,131.22,93,138.8,103.72,138.8Z"/><path class="cls-13" d="M368.15,104.46H337.21l-16.88,11V68.86c0-9.35,8.7-16.94,19.43-16.94h28.39c10.73,0,19.43,7.59,19.43,16.94V87.52C387.58,96.87,378.88,104.46,368.15,104.46Z"/><path class="cls-34" d="M266,156.53H235.05l-16.88,11V120.94c0-9.36,8.7-16.94,19.43-16.94H266c10.73,0,19.43,7.58,19.43,16.94v18.65C285.42,149,276.72,156.53,266,156.53Z"/><path class="cls-6" d="M170.11,206.1a4.83,4.83,0,0,0,1.28-3.16,4.9,4.9,0,0,0-.6-2.67,5.41,5.41,0,0,0-2.18-2.06,5.12,5.12,0,0,0-3-.51,8.59,8.59,0,0,0-4.21,1.68,5.29,5.29,0,0,0-1.77,2.52,9.27,9.27,0,0,0-.34,4.7,9.38,9.38,0,0,0,.83,2.15c.47,1,1,2,1.45,2.95,1,1.93,2.15,3.76,3.25,5.63a22,22,0,0,1,1.36,2.53,15.57,15.57,0,0,0,1,2.25,3.11,3.11,0,0,0,1.15,1.07c.83.44,1.69.78,2.49,1.29,1.78,1.11,3.52,2.29,5.38,3.27a29.82,29.82,0,0,0,5.44,2.15,40.65,40.65,0,0,0,5.92,1.42c1.24.2,2.41.44,4,.59a36.46,36.46,0,0,0,4.85.11l8-3.82.42-3.65L202.3,221l-1.91-.44-6,2.95-1.68,2.3-2.81.17a40.18,40.18,0,0,1-5.34-3.42,51.2,51.2,0,0,0-4.9-3.65c-1.55-1-2.41-1.44-2.41-1.44a16.69,16.69,0,0,1-2.47-1.4,6.58,6.58,0,0,1-1.95-3.09c-.42-1.06-.84-2.11-1.24-3.17s-.8-1.9-1.2-2.86c-.61-1.46-1.5-3.37-2.63-5.65Z"/><path class="cls-7" d="M185.79,367.22a12.54,12.54,0,0,0-4-.41,13.67,13.67,0,0,1-5.13-1.5,31.07,31.07,0,0,1-4.75-3,22.93,22.93,0,0,1-2.16-1.78,1.69,1.69,0,0,0-.81-.59l-.38-.06c.49-.29.22-.89.08-1.35-.32-1-.68-2-1-3-.2-.74-.21-1.49-.36-2.23-.21-1.12-1-2.15-.92-3.31a2.44,2.44,0,0,0,.05-.85c-.09-.31-.37-.53-.45-.84a7.29,7.29,0,0,1,0-1.55c0-1.16-.1-2.32-.15-3.47-.09-2.07-.13-4.14-.07-6.21s.19-3.92.41-5.86c.27-2.33.53-4.63.64-7a19.85,19.85,0,0,1,.28-2.77,18.19,18.19,0,0,0,.17-2.66,6.5,6.5,0,0,1,.39-1.95c.31-.9.51-1.83.8-2.73a16.08,16.08,0,0,1,.95-2,11.53,11.53,0,0,0,.79-2.52,33.73,33.73,0,0,0,.42-6.19,30.25,30.25,0,0,1,1-5.82c.53-2.3,1.18-4.56,1.78-6.84.5-1.88,1-3.76,1.44-5.65a57.13,57.13,0,0,0,1.07-5.93c.27-2.28.59-4.56.78-6.85.09-1,.1-2.09.18-3.14.07-.89.27-1.75.35-2.64a22.46,22.46,0,0,0-.07-2.46,9,9,0,0,1,.63-2.9,11.89,11.89,0,0,1,.64-1.47,6.69,6.69,0,0,0,.72-1.44,27.54,27.54,0,0,0,.57-3,22.92,22.92,0,0,0,.18-2.87l-24.25-7.27c-.68.78-1.31,1.6-1.92,2.43a26.25,26.25,0,0,0-3.29,5.63,15.06,15.06,0,0,0-1,6.23,28.78,28.78,0,0,0,1.42,6.8c.35,1.14.72,2.27,1.09,3.4a12.19,12.19,0,0,0,1,2.56c.2.36.55.61.76,1a1.6,1.6,0,0,1,.11.84c0,1.5.82,2.77,1,4.23a5.1,5.1,0,0,1-.18,1.45,5,5,0,0,0,.16,1.59,18.2,18.2,0,0,1,.1,2.86c0,1.27,0,2.54,0,3.81,0,2.33,0,4.66.12,7,.06,1.44.13,2.88.18,4.32a12.94,12.94,0,0,1-.15,2.78,8.34,8.34,0,0,0-.28,2.22,5.59,5.59,0,0,1-.15,1.82,9.28,9.28,0,0,0-.42,2.26,11.42,11.42,0,0,0,.26,1.64,10.71,10.71,0,0,1-.07,2c0,1.12,0,2.23-.07,3.34-.18,2.32-.58,4.62-.81,6.93a67.83,67.83,0,0,0-.42,7.12,48,48,0,0,0,.59,7c.34,2.33.8,4.64,1.05,7,.28,2.59.4,5.2.57,7.8.15,2.2.52,4.38.67,6.58.09,1.2.1,2.4.15,3.59a4.73,4.73,0,0,0,.3,1.8c-.46.1-.63.61-.76,1a23,23,0,0,0-.86,5.61,14.14,14.14,0,0,0,0,2.52,1.37,1.37,0,0,0,.19.63c.4.57,1.43.66,2,.74a33.76,33.76,0,0,0,4.72.19h8.23a101.36,101.36,0,0,0,11.56-.29,15.43,15.43,0,0,0,5.08-1.31c.55-.28,1.07-.61,1.12-1.28A3.35,3.35,0,0,0,185.79,367.22Z"/><path class="cls-1" d="M175.66,164.53c.11.51.21,1,.28,1.53a19.55,19.55,0,0,1,.22,3.33c0,1-.25,2.05-.22,3.07a3.76,3.76,0,0,0,.66,1.67,18.78,18.78,0,0,1,1.3,2.62c.14.45.22,1.09-.31,1.29s-1.67-.1-1.89.71c-.11.41.05.87-.1,1.27s-.35.35-.55.54a1,1,0,0,0-.28.65,5.4,5.4,0,0,1-.17,1.44c-.16.44-.48.63-.72,1a1.91,1.91,0,0,0-.19,1c0,1,0,2.17-1.24,2.44a6.4,6.4,0,0,1-2.18-.08,11.13,11.13,0,0,0-2.76-.19,1.68,1.68,0,0,0-1.07.62,7.37,7.37,0,0,0-1.23,2.07,29.57,29.57,0,0,0,1.4,5.8c.8,1.68-2.53,2.4-2.53,2.4l-8.72-4L152.28,189l2.05-5.29a9.16,9.16,0,0,0,.61-2.63l.45-17.39,11.74-4.15,8.57,4.91Z"/><g class="cls-35"><path class="cls-6" d="M168.31,186.9s-5.05-2.25-6.51-6.89c.09,3.67,4.43,9.7,4.43,9.7Z"/></g><path class="cls-8" d="M174.06,252.4a22.92,22.92,0,0,1-.18,2.87,27.57,27.57,0,0,1-.58,3,6.22,6.22,0,0,1-.71,1.44,12,12,0,0,0-.65,1.47,9,9,0,0,0-.62,2.9,22.46,22.46,0,0,1,.07,2.46c-.09.89-.28,1.75-.35,2.64-.08,1.05-.1,2.1-.18,3.14-.2,2.29-.51,4.57-.79,6.85a57.1,57.1,0,0,1-1.06,5.93c-.44,1.89-.94,3.77-1.44,5.65-.6,2.28-1.25,4.54-1.78,6.84a29.5,29.5,0,0,0-1,5.82,33.73,33.73,0,0,1-.42,6.19,11,11,0,0,1-.8,2.52,16,16,0,0,0-.94,2c-.29.9-.49,1.83-.81,2.73a6.81,6.81,0,0,0-.38,1.95,18.19,18.19,0,0,1-.17,2.66,19.85,19.85,0,0,0-.28,2.77c-.11,2.34-.37,4.64-.64,7-.23,1.94-.35,3.9-.41,5.86s0,4.14.07,6.21l.15,3.47a7.3,7.3,0,0,0,0,1.55c.09.31.37.53.45.84a2.44,2.44,0,0,1,0,.85c-.12,1.16.71,2.19.92,3.31.14.74.16,1.49.36,2.23.28,1,.64,2,1,3,.15.47.44,1.09-.11,1.38l-2.79,4.49c-1.86.9-9.46-1.34-9.46-1.34a4.73,4.73,0,0,1-.3-1.8c0-1.19-.06-2.39-.15-3.59-.16-2.2-.53-4.38-.67-6.58-.18-2.6-.3-5.21-.57-7.8-.25-2.34-.71-4.65-1.06-7a49.41,49.41,0,0,1-.58-7,67.82,67.82,0,0,1,.41-7.12c.24-2.31.64-4.61.81-6.93.09-1.11,0-2.22.08-3.34a11.68,11.68,0,0,0,.07-2,11.42,11.42,0,0,1-.26-1.64,9.77,9.77,0,0,1,.41-2.26,5.33,5.33,0,0,0,.15-1.82,8.35,8.35,0,0,1,.29-2.22,13.61,13.61,0,0,0,.15-2.78c-.05-1.44-.12-2.88-.18-4.32-.1-2.33-.11-4.66-.12-7,0-1.27,0-2.54,0-3.81a18.2,18.2,0,0,0-.1-2.86,5,5,0,0,1-.16-1.59,4.76,4.76,0,0,0,.17-1.45c-.15-1.46-1-2.73-1-4.23a1.51,1.51,0,0,0-.12-.84c-.2-.35-.55-.6-.76-1a13.4,13.4,0,0,1-1-2.56c-.37-1.13-.74-2.26-1.08-3.4a28.78,28.78,0,0,1-1.42-6.8,15.06,15.06,0,0,1,1-6.23,25.84,25.84,0,0,1,3.29-5.63c.6-.83,1.24-1.65,1.91-2.43Z"/><path class="cls-2" d="M151,217.55a33.88,33.88,0,0,1-2.7-10.22,26.34,26.34,0,0,1,.94-10.07c.49-1.62,1.36-3,1.7-4.71l2.39-6.5a50.75,50.75,0,0,0,8.32,6.69,9.11,9.11,0,0,0,4.12,1.39h.53l10.13,11.71a9.07,9.07,0,0,1,2.3,2.6,10.35,10.35,0,0,1,1.13,5.73c-.09,1.22-.32,2.42-.4,3.63a13.55,13.55,0,0,0,.22,3.18c.41,2.41.81,4.79,1.06,7.22.28,2.62,1.43,17.68,1.61,19.06s.36,2.43.49,3.16a17,17,0,0,1-7.6,2.59c-4,.31-8.56-1-10.78,0-.21.09-1,.44-1.51.16-.33-.18-.32-.8-.36-1.09-.09-.61-.16-1.22-.26-1.82a1.49,1.49,0,0,0-.13-.59.26.26,0,0,0-.38-.12c-.3.12-2.12,2.06-2.42,2.31-.79.63-3.39-.45-10.79-7.07a9.7,9.7,0,0,0,2.8-2.08,8.53,8.53,0,0,0,1-1.33,2.83,2.83,0,0,1,1.12-1.27,3,3,0,0,0,1.05-1c.25-.38.27-.87.5-1.24s.58-.38.86-.56a2.6,2.6,0,0,0,.81-1Z"/><g class="cls-36"><path class="cls-31" d="M165.13,205.55s-3.45,13.65-3.11,14.58,3.87,20.14,3.87,20.14L154.94,217.6l6.32-12.3Z"/></g><path class="cls-37" d="M150.47,363c-.46.1-.64.61-.76,1a23,23,0,0,0-.87,5.61,15.15,15.15,0,0,0,0,2.52,1.26,1.26,0,0,0,.19.63c.4.57,1.43.66,2,.74a33.88,33.88,0,0,0,4.72.19H164a101.3,101.3,0,0,0,11.56-.29,15.36,15.36,0,0,0,5.08-1.31c.56-.28,1.07-.61,1.13-1.28a3.35,3.35,0,0,0-1.81-3.63,12.54,12.54,0,0,0-4-.41,13.62,13.62,0,0,1-5.13-1.5,31.07,31.07,0,0,1-4.75-3A21.72,21.72,0,0,1,164,360.5a1.74,1.74,0,0,0-.81-.59c-2-.47-2.77,1.84-3.95,2.89a5,5,0,0,1-2.72,1.1,8.46,8.46,0,0,1-2.56-.11c-.89-.16-1.73-.5-2.6-.7A2.18,2.18,0,0,0,150.47,363Z"/><path class="cls-1" d="M161.15,210.45a5.54,5.54,0,0,0,3-2.66,6.24,6.24,0,0,0,.81-3.26,7.09,7.09,0,0,0-1.16-3.54,6.3,6.3,0,0,0-2.81-2.31,9.67,9.67,0,0,0-5.27-.68,5.9,5.9,0,0,0-3.18,1.69,11.3,11.3,0,0,0-2.87,4.89,12.77,12.77,0,0,0-.29,2.83c0,1.35-.07,2.71-.07,4.06,0,2.68.21,5.36.36,8a30.24,30.24,0,0,1,.05,3.56,19.11,19.11,0,0,0-.16,3,3.91,3.91,0,0,0,.61,1.84c.63,1,1.33,1.86,1.9,2.88,1.25,2.27,2.41,4.57,3.82,6.74a42.24,42.24,0,0,0,4.48,5.56c1.8,2,3.56,4,5.5,5.87a75.75,75.75,0,0,0,5.85,4.92,13.88,13.88,0,0,0,4.9,2,16.19,16.19,0,0,0,8.22-.28,9.63,9.63,0,0,0,2.37-5.67,9.86,9.86,0,0,0-.67-4.31,16.5,16.5,0,0,1-5.58-1.86l-.7-.4a10.16,10.16,0,0,1,2.85-1.33c1-.27,1.69-.3,1.94-.86a1.79,1.79,0,0,0-.34-1.61,2.84,2.84,0,0,0-3.18-.75l-9.24,5.61-.55-.53c-2-2-2.48-4-3.91-6.71-1.24-2.38-2.35-4.85-3.59-7.23a34.31,34.31,0,0,0-1.73-3,20.88,20.88,0,0,1-1.8-3,8.57,8.57,0,0,1-.37-4.52c.13-1.39.25-2.78.4-4.16s.19-2.55.29-3.83a70.14,70.14,0,0,0,.3-7.68Z"/><path class="cls-7" d="M175.25,166.78c-3.13,2.75-5.12,3-6.41,2.64-1.47-.44-2.8-2-3.77-1.44a1.44,1.44,0,0,0-.64,1,4.8,4.8,0,0,1,.56,2.4c0,1.06-.48,2.54-1,2.57-1,.06-1.6-3.68-2.41-3.61s-.6,2.84-1.49,6.26c-.71,2.73-1.81,6.95-5.23,9-.47.28-3.79,2.2-6.83.62a6.16,6.16,0,0,1-3.28-4.89,6.39,6.39,0,0,1,1.46-4.5,7.37,7.37,0,0,1-3.71-3.83c-.1-.25-1.33-3.43.24-5.77,1.15-1.71,2.68-1.39,3.13-2.81s-1.13-2.21-1.2-4.49c-.1-3,2.58-5.1,2.72-5.21a7.1,7.1,0,0,1,3.45-1.36,8.53,8.53,0,0,1,5.77,1.44,6.78,6.78,0,0,1,2.49-3.44,7.22,7.22,0,0,1,5.37-1.05,6.36,6.36,0,0,1,4,1.85,5.52,5.52,0,0,1,1.21,2.16,7.62,7.62,0,0,1,3.92-2.32,6.62,6.62,0,0,1,4.73.48c2.83,1.54,3.25,4.91,3.29,5.29.25,2.36-1,2.68-.88,5.21.13,3.36,2.38,4.63,1.6,6.09-.63,1.18-2.77,1.58-4.41,1A4.54,4.54,0,0,1,175.25,166.78Z"/><path class="cls-1" d="M163,172.14c0-.11-.09-.27-.16-.45a4.83,4.83,0,0,0-.33-.72,3.33,3.33,0,0,0-2-1.57,1.93,1.93,0,0,0-2,.88c-.65,1.11-.08,2.85.45,3.89s1.41,2.37,2.59,2.63c.12,0,1.11.14,1.54-.49a1.32,1.32,0,0,0,.14-1Z"/><path class="cls-6" d="M161.15,173.47c-.08-.81-1-.35-1.13-1.05s.79-.57.74-1.18-1.77-.49-1.46,1.54S161.21,174.16,161.15,173.47Z"/><path class="cls-37" d="M348.33,360.23c0,1.49,2.82,10.43,2.82,10.43H364.9s1.16-3,.82-4.14-4.76-4.47-5-5.13-3.63-9.28-3.63-9.28S348.33,358.74,348.33,360.23Z"/><path class="cls-37" d="M281.32,352s-2.11,6.71-3.1,8.32-6.71,5.72-7,6.21-1,5.1-1,5.1h19s.87-7,.87-8.45-.62-5.59-.62-5.59l-.49-4.85Z"/><path class="cls-5" d="M296.15,247.58s-5,15.91-5.3,20.21-4.92,32.49-5.49,35.08c-2.78,12.76-5.78,40.86-5.78,40.86l2,2.58-2,3.87v4.95a27,27,0,0,1,4.72-.87c1.5,0,5.6,1.74,5.6,1.74s4.43-12.17,4.43-14,2-2.65,1.82-4-.64-4.8,0-6.29a144.62,144.62,0,0,0,3.8-18.23c.25-3.48,4.22-14.41,4.22-14.41s4.72-13.91,5.47-15.9,1.93-12.43,6.55-12.43,12.09,14.91,13.33,20.38,9.19,32.3,10.43,34.29,6,8.7,6,8.7l-1.84,7.23,1.26,9.9s.81,5.12.93,6.24,4.26,0,4.26,0,7.69-1.63,8.93-2.25,1.37-3.36,1.12-4.23a18.14,18.14,0,0,1-1-3.47c0-.87-5.34-36.18-5.84-38.91s-4.64-12.32-5.55-16.3A111.88,111.88,0,0,1,346.42,276c0-3-.49-6.21-.49-7.45s-7-23.11-7-23.11Z"/><g class="cls-38"><path class="cls-37" d="M307.91,268.17c2.68,1.71,6.15,2.36,9.67,3C312.64,278.66,311.06,271.89,307.91,268.17Z"/><polygon class="cls-37" points="297.97 339.85 291.35 341.18 295.49 345.32 297.97 339.85"/><polygon class="cls-37" points="341.08 330.29 348.79 335.63 342.32 334.14 341.08 330.29"/></g><path class="cls-7" d="M300.79,175.19c-1.45.8-1.72.7-6.42,2.4a43.37,43.37,0,0,0-4.85,1.87c-2.64,2.36-1,6.27-2.32,12.46-.69,3.23-3.22,6.28-3,7.62s4.37,1.2,7.62,1.16c3.61,0,4.18-.87,5.14-.33,3.82,2.18-3.55,16.64-3,31.64.06,1.42.3,6,0,12.18-.13,2.84-.34,5.16-.49,6.71a127.24,127.24,0,0,0,23.36,4c9.76.72,14.2-.12,18.13-2.24a23.42,23.42,0,0,0,6.71-5.46,16,16,0,0,1-1.49-6.21c0-2.07.39-2.85.25-5.47a28.48,28.48,0,0,0-.74-4.72c-.81-3.75-1.31-5.09-1.74-7-.52-2.26-2.43-10.52,1.74-16.4a12.45,12.45,0,0,1,1.24-1.49c.72.44,1.32,1.78,2.15,1.33s2-9.08,3.07-11.68a18.61,18.61,0,0,0,2-6.8,9.32,9.32,0,0,0-4-9.11c-.65-.51-2-1.52-7.46-4-1.87-.84-2.8-1.26-3.72-1.58a30.4,30.4,0,0,0-6.22-1.4c-8.81-1.11-10.85,1.3-17.18,0a9,9,0,0,0-4.43-.09C303.36,173.1,303.14,173.88,300.79,175.19Z"/><g class="cls-39"><path class="cls-37" d="M298.47,188.28s.62,6.75.62,11.37c0,1.82-1.71.09-1.87.89-.54,2.83-1.18,4.58-2.4,5.79C298.76,208.73,304.53,199.55,298.47,188.28Z"/><path class="cls-37" d="M331.74,198.87s4.17-9.6,4.66-11.09-8.11,9.77-8.11,9.77Z"/></g><path class="cls-6" d="M316.19,160.12Q315.11,167.07,314,174h12.42l-2-14.25Z"/><g class="cls-40"><path class="cls-41" d="M312,164.75,329.28,166s-2,6.34-8.64,6.34-8.63-7-8.63-7"/></g><path class="cls-6" d="M305.18,172.62A14.38,14.38,0,0,0,333,174.11a42,42,0,0,0-27.83-1.49Z"/><path class="cls-37" d="M311.89,156.22l-.63-10.93a11.2,11.2,0,0,1,20.38.37L330.89,157Z"/><polygon class="cls-41" points="310.11 171.49 309.94 176.26 314.04 179.55 315.59 183.67 319.09 195.27 316.2 178.17 312.19 174.99 310.55 169.41 310.11 171.49"/><path class="cls-6" d="M285.48,199.59c-.49,3.4.7,12.06.89,18.34a6.57,6.57,0,0,0,5.47,7.12c4,1.07,15.77,2.13,31.64,2.65l11.1-5.3c3.54-3.73,5.33-7.82,4-9.84-1.66-2.58-8.21-1.42-12.32,1.06a16.16,16.16,0,0,0-6.13,7c-3.72-.76-7.72-1.73-11.93-3-3.68-1.09-7.11-2.27-10.27-3.48a39,39,0,0,0,.48-7.44,28.56,28.56,0,0,0-.73-6.33C293.62,199.19,287.91,198.9,285.48,199.59Z"/><g class="cls-42"><rect class="cls-41" x="283.68" y="196.48" width="16.28" height="5.72"/><path class="cls-41" d="M321.84,215.17s4,4.25,8.42,3.75S341,211.67,341,211.67l-6.75-1.25Z"/></g><path class="cls-6" d="M329.4,147.4l.33,7a2,2,0,0,1,1.58.21c.87.61.71,2,.62,2.77a2.52,2.52,0,0,1-.7,1.78,2.11,2.11,0,0,1-1.37.46,13.94,13.94,0,0,1-2.69,6.54c-1.13,1.47-3.35,4.37-6.34,4.23-2.72-.14-4.53-2.72-5.84-4.6a15.78,15.78,0,0,1-2.61-6.58,1.5,1.5,0,0,1-1.12-.25c-.21-.2-.34-.5-.24-2.12.11-2.08.37-2.4.52-2.56a2.1,2.1,0,0,1,1.34-.54c.41-2.53.83-5.05,1.24-7.58a11.12,11.12,0,0,1,6.62-2.56A11.52,11.52,0,0,1,329.4,147.4Z"/><path class="cls-41" d="M317,178.74c.4,2.83.84,3.38,1.23,5.9,2.15-1.06,4.65-.46,7.09-1.82-1.46-3.29-1.73-3.77-2.14-5,.25-2.17.54-3.91.77-5.12s.39-1.85.58-3.06a38.43,38.43,0,0,0,.44-4.1l-1.49.31-1.68,2.55c-.8-1-1.71-2-2.73-3s-2-1.88-2.9-2.66l-1.75,1.76c.2,1.78,3.1,4.1,3.31,5.88C319.58,172.19,315.2,177,317,178.74Z"/><path class="cls-6" d="M333.75,200c1.63,1.05,2.9,1.28,5.3,2.82A23.63,23.63,0,0,1,342,205c-1,5.78-4.64,10.37-9.44,11.72a12,12,0,0,1-6.69-.12,7.5,7.5,0,0,1-1.77-1,9.07,9.07,0,0,1-3.05-5.31c-.83-3.44-2.83-14.48-5-29.57l-5.47-5.38c-.21-1.78-.41-3.57-.62-5.35l5.26-5.26c.93.78,1.9,1.66,2.9,2.66s1.93,2,2.73,3l1.68-2.55,1.49-.31a38.43,38.43,0,0,1-.44,4.1c-.19,1.21-.35,1.86-.58,3.06s-.52,2.95-.77,5.12c.76,2.28,3.45,10.11,7.4,15.76A14.65,14.65,0,0,0,333.75,200Z"/><path class="cls-43" d="M401.15,315.25l.51.06-.55.21,0-.27Z"/><path class="cls-43" d="M393.59,371.64a.71.71,0,0,1,.18-.24,6.74,6.74,0,0,1,.62-.47,40.36,40.36,0,0,0,3.62-3.39c.13-.13.39-.24.61-.45a1.49,1.49,0,0,0,.35-.67c.07-.24.1-.48.14-.67a13.75,13.75,0,0,0-.1-3.85c-.24-2.18-1-8.09-1-8.88,0-.15,0-.4,0-.65a3.25,3.25,0,0,0-.06-.77l0-.15a5.41,5.41,0,0,0,1,0,21.79,21.79,0,0,0,5.6-.92,14.56,14.56,0,0,0,2.4-.85c.23-.11.6-.26.66-.54a1.79,1.79,0,0,0-.27-1l.46.28c.4.2.81.37,1.09.52a5.37,5.37,0,0,1,1.18.78,4.64,4.64,0,0,1,1.09,1.61,8.19,8.19,0,0,1,.44,1.29c.54,2.2.14,4.48.39,6.91.2,1.93.51,3.85.86,5.76.09.49.3,1.52.3,1.52,0,.19.19.62.27,1a1.48,1.48,0,0,1,.05.24v0l-.07,0-.46.13-.27.06h0l0-.05c0-.12,0-.28-.07-.41s0-.26-.06-.34c-.54-2.2-1.65-6.6-1.65-6.6,0-.16-.09-.65-.2-1.09a3.11,3.11,0,0,0-.18-.54,1,1,0,0,0-.36-.43.58.58,0,0,0-.41-.05,2.66,2.66,0,0,0-1.12.77,10.28,10.28,0,0,0-.81,1,6.37,6.37,0,0,0-.89,1.86,36.36,36.36,0,0,0-.79,5.29,3.35,3.35,0,0,1-.61,1.78,4.91,4.91,0,0,1-2.26,1.07c-.59.18-1.19.33-1.8.48-1.35.33-2.73.61-4.1.93h0c-.28.06-.7.2-1.18.31a6.47,6.47,0,0,1-1.22.2,1.76,1.76,0,0,1-.95-.17.66.66,0,0,1-.31-.38l0,0A.26.26,0,0,1,393.59,371.64Z"/><path class="cls-43" d="M396.38,347.91c-.36-3.92-.55-7.72-1.81-11.48-1.43-4.23-2.8-8.44-3.93-12.77-.57-2.16-1.1-4.34-1.63-6.51a43.7,43.7,0,0,1-1.22-5.76,6.84,6.84,0,0,1,1.24-5.12c1.78-2.24,4.89-3,7.49-3.66l2.94-.72,0,.29h0a.27.27,0,0,0,.19-.18.29.29,0,0,0,0-.24l.18,0c10.53-3.42,21-7,31.48-10.63a2.74,2.74,0,0,0,1.9-2.15,62.84,62.84,0,0,1,13.19,6.41c0,.31,0,.63,0,.93a7,7,0,0,1-.09.83,4.52,4.52,0,0,0,0,.64l.2-.08c.69,2.09,1.3,5.22,0,7.19-1.42,2.15-4.45,2.93-6.72,3.64-4.09,1.28-8.3,2.2-12.48,3.11-4.39.95-8.78,1.85-13.19,2.67-2,.38-4.09.71-6.15,1a34.41,34.41,0,0,1-5.91.4c-2.69-.13.25-1.53,2.36,11.12a127.16,127.16,0,0,1,1.05,12.8,30.76,30.76,0,0,0,.72,5.65,20.36,20.36,0,0,0,.78,2.36c.06.14.18.35.29.58a1.79,1.79,0,0,1,.27,1c-.06.28-.43.43-.66.54a14.56,14.56,0,0,1-2.4.85,21.79,21.79,0,0,1-5.6.92,5.41,5.41,0,0,1-1,0,1.35,1.35,0,0,1-.84-.39C396.39,350.33,396.46,348.77,396.38,347.91Z"/><rect class="cls-44" x="402.23" y="308.17" width="44.3" height="8.46" rx="2.03" transform="translate(848.77 624.8) rotate(180)"/><path class="cls-44" d="M457.15,281.36c0-7.2-.19-14.31.09-21.47a76.9,76.9,0,0,0-.55-14.23c-.3-2.07-1.69-11.52-5.79-9.74a3,3,0,0,0-1.28,2l.54,43.44a3.17,3.17,0,0,0,2.83,3.42h1.34A3.16,3.16,0,0,0,457.15,281.36Z"/><path class="cls-45" d="M457.33,257v45.46a13.81,13.81,0,0,1-13.8,13.81h-34"/><rect class="cls-46" x="425.45" y="316.63" width="3.45" height="49.38" transform="translate(854.34 682.64) rotate(180)"/><rect class="cls-46" x="422.69" y="339.19" width="8.96" height="16.89" transform="translate(854.34 695.27) rotate(180)"/><path class="cls-46" d="M397,367.66a54.41,54.41,0,0,1,60.32,0v-2.8a56.17,56.17,0,0,0-60.32,0Z"/><path class="cls-46" d="M453.48,367.66a3.86,3.86,0,1,1,3.85,3.86A3.85,3.85,0,0,1,453.48,367.66Z"/><path class="cls-46" d="M393.15,367.66a3.86,3.86,0,1,1,3.86,3.86A3.85,3.85,0,0,1,393.15,367.66Z"/><path class="cls-46" d="M423.53,367.66a3.64,3.64,0,1,1,3.64,3.65A3.64,3.64,0,0,1,423.53,367.66Z"/><path class="cls-1" d="M366.29,369.49a1.14,1.14,0,0,1,.28-.22c.26-.14.6-.25.86-.36a45.59,45.59,0,0,0,5.16-2.82c.19-.11.52-.16.83-.33a1.62,1.62,0,0,0,.59-.66,8,8,0,0,0,.36-.72,15.63,15.63,0,0,0,1-4.35c.33-2.51,1.15-9.36,1.29-10.26,0-.18.11-.45.18-.74a3.84,3.84,0,0,0,.14-.88V348a7.28,7.28,0,0,0,1.21.32,26.8,26.8,0,0,0,6.75.5,18,18,0,0,0,3-.29c.3-.07.77-.14.93-.44a2.08,2.08,0,0,0,0-1.23c.14.15.3.3.46.44.4.34.83.64,1.11.88a6.55,6.55,0,0,1,1.15,1.21,5.11,5.11,0,0,1,.81,2.11,8.38,8.38,0,0,1,.14,1.56c0,2.62-1.1,5.08-1.5,7.87-.31,2.23-.49,4.47-.62,6.71,0,.58-.09,1.8-.09,1.8,0,.22.05.75.05,1.16a2.53,2.53,0,0,1,0,.29h-.08l-.57,0h-.36v-.06c0-.14,0-.32,0-.49s0-.29,0-.39c0-2.62-.05-7.87-.05-7.87,0-.19.07-.75.08-1.28a4.62,4.62,0,0,0-.06-.66,1.06,1.06,0,0,0-.3-.57.7.7,0,0,0-.46-.18,3.25,3.25,0,0,0-1.51.56,11.1,11.1,0,0,0-1.23.89,7.24,7.24,0,0,0-1.55,1.85,42.21,42.21,0,0,0-2.42,5.72,3.82,3.82,0,0,1-1.21,1.84,6.14,6.14,0,0,1-2.92.58c-.74,0-1.48,0-2.22,0-1.67,0-3.35-.06-5-.08h-.06c-.33,0-.86,0-1.45,0a7.89,7.89,0,0,1-1.47-.12,2.09,2.09,0,0,1-1.06-.45.84.84,0,0,1-.26-.51v0A.32.32,0,0,1,366.29,369.49Z"/><path class="cls-8" d="M376.25,343.59c.68-4.5,1.54-8.83,1.14-13.4-.46-5.15-.87-10.25-1-15.43,0-2.58-.05-5.17-.05-7.76a50,50,0,0,1,.22-6.81,7.83,7.83,0,0,1,2.88-5.42c2.7-2,6.52-2,9.73-2,1.21,0,2.41,0,3.61,0l0,.34h0a.35.35,0,0,0,.28-.15.37.37,0,0,0,0-.29h.22c13.19-1,26.36-2.15,39.54-3.34a3.27,3.27,0,0,0,2.82-1.89,74.74,74.74,0,0,1,13.48,10.82c-.08.35-.16.7-.25,1.05s-.21.58-.34.9a4.44,4.44,0,0,0-.21.71l.26,0c.21,2.54,0,6.23-2,8.08-2.26,2-6,2.08-8.83,2.26-5.11.32-10.25.19-15.37.07-5.35-.13-10.71-.32-16.06-.6q-3.71-.19-7.4-.61a43.11,43.11,0,0,1-7-1.17c-.38-.1-1.11-.38-1.11-.38a55.17,55.17,0,0,1,.71,13.52c-.37,4.95-1.52,9.81-2.4,14.68a35.06,35.06,0,0,0-.76,6.54,23,23,0,0,0,.24,2.87c0,.18.1.44.17.73a2.08,2.08,0,0,1,0,1.23c-.16.3-.63.37-.93.44a18,18,0,0,1-3,.29,26.8,26.8,0,0,1-6.75-.5A7.28,7.28,0,0,1,377,348a1.55,1.55,0,0,1-.86-.67C375.57,346.31,376.1,344.58,376.25,343.59Z"/><g class="cls-47"><path class="cls-7" d="M385.53,304.5l8.18,5.95v4.45S386.17,309,385.53,304.5Z"/></g><path class="cls-1" d="M435.84,237.59a97.61,97.61,0,0,0-10.18,6.3h0a.36.36,0,0,0,0-.27.36.36,0,0,0-.22-.16.43.43,0,0,1,0-.18,3,3,0,0,1,.1-.62c.32-1.54.72-3.11,1.11-4.65a5.56,5.56,0,0,1,.82-2,4.22,4.22,0,0,1,.58-.62c.12-.11.26-.19.4-.32a.78.78,0,0,0,.3-.61v-.12h0a3.07,3.07,0,0,0-.8-1.57,2.33,2.33,0,0,0-1.69-.84c-.43,0-.4.22-1.14.46a2.5,2.5,0,0,1-1.71.11,1.93,1.93,0,0,1-.78-.71,3,3,0,0,1-.27-.43,3.84,3.84,0,0,1-.41-1.26,33.69,33.69,0,0,0-2.44-5.82,1.52,1.52,0,0,0-.91-.54,2.92,2.92,0,0,1-.78-.19.5.5,0,0,1-.25-.22.78.78,0,0,1-.08-.37,2,2,0,0,1,.16-.69c.28-.62.92-1.13,1.28-2a7.11,7.11,0,0,0,.24-2.22c.08-1.33.44-2.71.59-4.12a27.91,27.91,0,0,1,.78-4.58,16,16,0,0,1,.57-1.69l0-.15a6.43,6.43,0,0,1-.06-.8c0-.46,0-.82.25-1,4.92-3.47,29.86-5.67,19.7,19.57a5.8,5.8,0,0,0-.25,1.17,1.72,1.72,0,0,1-.32.85l-.07.06a.36.36,0,0,0-.3,0,.35.35,0,0,0-.14.27q0,.72.09,1.44c0,.06,0,.23,0,.39a1.14,1.14,0,0,0,.14.54.66.66,0,0,0,.2.21.48.48,0,0,0,.28.08h.26a.87.87,0,0,1,.68.27,3.42,3.42,0,0,1,.68,1.42,7.26,7.26,0,0,1,.22,1.73,2.62,2.62,0,0,1,0,.28c0,.13-.05.3-.08.52a1.85,1.85,0,0,0,0,.23.49.49,0,0,0,0,.12,12.94,12.94,0,0,0-3,1.17A32.63,32.63,0,0,0,435.84,237.59Z"/><g class="cls-48"><path class="cls-6" d="M425.87,232.08s4.35-2.48,5.89-5l1.54-2.48L428,233.89Z"/></g><path class="cls-1" d="M437.1,253.26a1.73,1.73,0,0,1,.21.32,1.66,1.66,0,0,1-.25-.28Z"/><path class="cls-9" d="M449.19,298.21a11.79,11.79,0,0,0,.31-2.12v-.2c0-1.49-.71-2.78-1.05-4.39-.64-3.07,1.42,4-.15-22v0c0-4.92,4.48-8.55-.32-22.45a63.77,63.77,0,0,0-3.29-7.87c-.63-1.24-1.31-2.46-2-3.65-.1-.16,0-.62-.07-.74s-.22.17-.23.07c-1,.25-2.67-.58-3.62-.07a36.2,36.2,0,0,0-3.89,1.3c-3.54,1.71-5.87,5.63-9.19,7.78-1.42,4.34-6.43,7.73-4.46,17.83A95,95,0,0,1,423,272.13c.08.94.16,1.91.16,2.87a14.66,14.66,0,0,1-.07,1.48,27.05,27.05,0,0,1-.66,2.94c-.15.74-.25,1.49-.35,2.24,0,.26-.36,3.31-.39,3.57,1.58.29,3.46-2.16,5-1.76C435.28,285.72,442.8,292,449.19,298.21ZM437.06,253.3l0,0a1.73,1.73,0,0,1,.21.32A1.66,1.66,0,0,1,437.06,253.3Z"/><g class="cls-49"><path class="cls-50" d="M433.3,253.42s-5,13.76-5.71,20.75-.43,8.57-.43,8.57l7.84-3.59Z"/></g><path class="cls-9" d="M442.59,234.81a50.83,50.83,0,0,1,5.2,10.75,38.24,38.24,0,0,1,2.78,11.9,22.44,22.44,0,0,1-.42,5c-.37,1.86-1.1,3.63-1.41,5.5a23.32,23.32,0,0,0,0,4.87c.09,2,.34,4,.51,6a60.08,60.08,0,0,1,.2,6.15,17.51,17.51,0,0,1-.56,4.67c-.62,2.09.88,3.87.91,6a13.8,13.8,0,0,1-.76,4.27c-1.44,4.5-4.89-2.28-15.83-2.29-7.75,0-6-5.93-9.79-5.72L434.57,282Z"/><g class="cls-51"><path class="cls-50" d="M445.27,255.75s-.64,28.69-1.28,30.81-20.12,5.52-20.12,5.52l16.74-12Z"/></g><path class="cls-37" d="M388.08,348.47a18.58,18.58,0,0,1-.78,2.43,42.62,42.62,0,0,1-3.79,6.23c-1.42,2.17-2.73,4.42-4.18,6.58a4.22,4.22,0,0,1-2.93,2.14,6.3,6.3,0,0,1-1.89,0c-.39-.07-.78-.32-1.15-.35a1.67,1.67,0,0,0-.9.32c-1,.55-2,1.26-3,1.83s-1.85.8-2.77,1.24c-.29.14-.7.31-.8.65-.14.5.38,1,.76,1.22,1.17.64,2.92.38,4.19.39a60.2,60.2,0,0,0,8.17-.06,3.44,3.44,0,0,0,2.37-1c1.1-1.33,1.47-3.33,2.09-4.89a10.72,10.72,0,0,1,2.18-3.68,7.25,7.25,0,0,1,2.64-1.64c.34-.12.5-.22.66.13a6.17,6.17,0,0,1,.05,2.19c0,1.26.05,7.61.05,8.07,0,.18-.09.65,0,.81s0,.08.31.15a3.41,3.41,0,0,0,1.15,0c.23-.16.11-1.45.12-1.8.05-1.26.12-2.52.23-3.77a41,41,0,0,1,1-7.25,17.54,17.54,0,0,0,1-5.6,7.38,7.38,0,0,0-.75-3.17c-.76-1.38-2.26-2.42-3.42-3.44Z"/><path class="cls-50" d="M439.14,230.26a41.2,41.2,0,0,0-7.54,2.59,11.75,11.75,0,0,0-4.33,2.76c-1.08,1.31-1.19,3.26-1.57,4.84-.1.43-1.25,3.16-.27,3.34s2.12-1.31,2.6-1.76a28.87,28.87,0,0,1,6.39-4.88,14.24,14.24,0,0,1,5.68-1.81c.78-.05,2.21.24,2.58-.73a5.59,5.59,0,0,0-.43-3.41,1.54,1.54,0,0,0-1.81-1.19A11.47,11.47,0,0,0,439.14,230.26Z"/><path class="cls-37" d="M435.36,221.14a29.94,29.94,0,0,1,.91,4.49c.72,5.93-.93,7.61.42,10,1.8,3.19,5.64,1.82,7.41,5.18,1.29,2.46-.42,3.85.85,6.67s4.52,5.2,7.43,4.69c3.89-.69,6.47-6.57,5.38-10.62-1.21-4.44-6.27-4.49-7.41-9.52-.66-2.91.92-3.38.1-6.67-.94-3.83-3.31-4.15-4.12-7.92-.59-2.75.59-2.94.31-6.48-.13-1.67-.52-6.7-4.32-9.31a9.58,9.58,0,0,0-6.31-1.5,11,11,0,0,0-9.11-.94,10.52,10.52,0,0,0-5.87,6c-.52,1.23-1.27,3.66-.56,4.13.17.12.31,0,.62.06,1.14.16,1.61,1.78,2.39,3a8.36,8.36,0,0,0,3.16,2.54c2.63,1.26,5.55.28,6.74-.2Z"/><path class="cls-1" d="M431.76,221.17a1.6,1.6,0,0,0,2,1.28c1.08-.24,1.78-1.44,2.23-2.35a7.09,7.09,0,0,0,.89-3.91c-.24-1.81-2-2.72-3.46-1.49Z"/><path class="cls-6" d="M433.86,216.19c-.23.87.92.74.77,1.51s-1,.29-1.21.94,1.65,1.16,2.09-1S434.05,215.46,433.86,216.19Z"/><path class="cls-9" d="M432.6,253.11c-.26,1-.59,2.48-.89,4.23a68.78,68.78,0,0,0-.84,9.74c-.09,3-.09,6.88.21,11.43-3,1.8-5.65,3.16-7.66,4.13A69.2,69.2,0,0,1,416,285.8a49.72,49.72,0,0,1-7.48,1.91c-.85.18-.89.7-.73,1.48.37,1.8,1.33,3.44,1.45,5.29.06.81,0,1.66,1,1.74,1.74.14,3.71-.81,5.32-1.33,2.79-.9,5.57-1.83,8.33-2.81s5.2-1.9,7.78-2.91,5.22-1.94,7.7-3.15c2.72-1.32,3.41-4.06,3.92-6.88.4-2.22.6-4.47.81-6.72q.56-5.9,1.1-11.8c.2-2.23.45-4.46.48-6.7a35.26,35.26,0,0,0-1-8.25Z"/><path class="cls-1" d="M407.72,288.34c-8-.42-3.11-4.45-12.56,1.22-.37.21-4.58,3.72-.91,3.05,6.2-1.13,7.42.7,11.23,1.38a10.52,10.52,0,0,0,3.71-.08Z"/><path class="cls-1" d="M513.18,353s.46,5.65.61,7,1.53,2.9,1.53,5.5-14.81,5-14.81,5H490.43l2.44-6.26s7.79-3.2,9-4.58,2.08-7.94,2.08-7.94Z"/><g class="cls-52"><path class="cls-6" d="M500.94,355.49s7.21,1.71,8.95,1.63,7.79,0,7.79,0l-2.36-6.47-20.42-.82Z"/></g><path class="cls-37" d="M515.56,361.9a2,2,0,0,0-3.14-1.11,41.42,41.42,0,0,1-4.32,3c-1.61.8-8.32.3-11,.3s-4.28.15-4.28.15-7.82,2.91-9.54,3a1.84,1.84,0,0,0-1.14,3.24c1.26,1.11,32.63,1,32.63,1s2.64-1.84,2.06-4.24C516.58,366,516,363.75,515.56,361.9Z"/><path class="cls-3" d="M516.08,246.85s4.12,9.16,3.67,12.68-3.36,9.16-3.67,15.72S512.87,293,512.87,295s.46,12.06.46,12.06,4.35,5.65,5,16.41,1.41,30.69,1.41,30.69a39,39,0,0,1-6.91,1.38c-2.06,0-10.07-2.29-10.07-2.29s.69-19.47,0-22.45-2.75-9.85-3-11.91-3.21-3.89-3.21-6.18-2.29-18.55-3.43-19.47-4.78-19.69-4.57-21.53.72,1.15-.1-4.35,0-8.24,0-8.24l.25-2.64s7.63-11.8,10.53-12S516.08,246.85,516.08,246.85Z"/><g class="cls-53"><path class="cls-54" d="M490.85,258.66s5.56,9.28,13.71,10"/><path class="cls-54" d="M505.24,255.7s-1.71,29.36-1.28,35.75,6.63,28.7,6.94,30.72,4.42,34.95,4.42,34.95"/><polyline class="cls-54" points="521.2 252.29 515.7 253.92 501.6 255.7 482.15 261.05"/></g><path class="cls-55" d="M507.85,181.66S493,190.51,491,194.79s-3.2,12.83-2.14,15.27.31,18,.31,18l-.46,29.17s11-4,17.56-5.2,12.52-2.44,12.52-2.44-4.12-11-4.43-19.85,2.14-25,.61-31.75S507.85,181.66,507.85,181.66Z"/><path class="cls-37" d="M503.66,178.5c10.46-11.47-.26-23.19-4.8-28.46-3.26-3.79-18.77,4.1-19.39,4.82-1,1.15-1.35,3.43,0,4.15s2.81,1,4.15,1.66c1.72,1.4,3.51,2.75,5.28,4.1-.36,1.27,1.9,2.85,2.77,5.09s4.76,1.19,4.76-2.44C496.44,166.35,502.51,179,503.66,178.5Z"/><path class="cls-1" d="M481.36,159.68a26.72,26.72,0,0,0-1,4.87c-.09,1.54.55,1.54,1,3s-1.44,3.62-1.31,5a.89.89,0,0,0,.17.46c.6.94,2.37.73,2.77.67,1.14,2.5,2.29,5,3.41,7.51a2.79,2.79,0,0,0,1.18,1.38c1.72.93,4.11-.79,4.89-1.35a10.69,10.69,0,0,0,3.88-5.74,11.67,11.67,0,0,0-.4-7.25l-3.17,1.34a29.18,29.18,0,0,0-2.13-4.72,2.23,2.23,0,0,0-.82-.89c-.84-.45-1.71.09-2.31-1-.81-1.41-1.46-3.93-3-3.87S482.68,159.62,481.36,159.68Z"/><path class="cls-1" d="M509.34,183.38c-.9-1-1.75-2-2.55-3a7.23,7.23,0,0,1-1.42-2.23,6.27,6.27,0,0,1-.36-1.86,5.07,5.07,0,0,1-.89-1,5.23,5.23,0,0,1-.77-2c-.19-.86-.88-2.05-3.13-3.48,0-.35.47-3.8-1.61-5.58a4.8,4.8,0,0,0-1.87-.93c-3.36-.87-4.45,2.66-2,5.05a6.86,6.86,0,0,1,.84,8.8c-.92,1.44-1.43,2.53-1.84,3a7.53,7.53,0,0,1-.81.81c-.49.42-1.61.81-4.43,2,2.16-.88,4.79,1.34,5.87,3.69s-.08,4.45.78,5.2S499.56,191.45,509.34,183.38Z"/><g class="cls-56"><polygon class="cls-6" points="488.97 182.08 496.77 173.35 492.87 185.91 487.17 182.54 488.97 182.08"/></g><path class="cls-57" d="M499.9,198.68l11,24.08c-2.42.34-12.05-13.68-11-16.43C500.83,203.92,499.9,198.68,499.9,198.68Z"/><path class="cls-1" d="M517,203l6.64,21.53s2.06,3.32,1.37,4.92S518.6,238,518.6,238s-14.12,15-15.34,15.88-1.23,5.65-1.45,6.64-3.82,3.74-4.89,4.12-5.5-5-5.57-5.72.61-2.68.38-3.29-2.67.54-3.05-.61,1.06-2.9,2-2.9,5.8.31,6.57-.3,15.42-24.13,15-26-2.75-3-3.67-5-5.95-16.49-5.95-16.49Z"/><g class="cls-58"><path class="cls-6" d="M505.27,212s5.09-4.06,6.6-4.53,7,1.43,7,1.43l-1.62-5s-5.46-1.16-7.44,0a58.22,58.22,0,0,0-6.1,4.93Z"/></g><path class="cls-55" d="M507.84,181.2s7.94,6.72,9.46,11.91,1.53,14,1.53,14-3.44-2.6-5-2.14a33.94,33.94,0,0,0-7.33,3.78,6.94,6.94,0,0,1-1.83,1.26l-7.1-9.28s-5-6.45-4.2-7.82S496.84,186.09,507.84,181.2Z"/><g class="cls-59"><path class="cls-2" d="M498,167.38c-.06-.1.28-.29.3-.63a1.51,1.51,0,0,0-.86-1.17,1.47,1.47,0,0,0-1.49.1c-.34.31-.69.52-.75.41s.07-.3.37-.78a1.82,1.82,0,0,1,2.2-.41,1.76,1.76,0,0,1,1,2,.84.84,0,0,1-.54.52Q498.06,167.46,498,167.38Z"/></g><path class="cls-37" d="M129.25,366.68c-.1-1.36-1.18-2.38-1.9-3.43a20.09,20.09,0,0,1-3.12-6.37,27.21,27.21,0,0,1-.86-5.63c0-1.14.12-2.27.08-3.41a2.44,2.44,0,0,0-.17-1c-.15-.26-.61-.24-.71-.38s0,0,0,0c.91-1,1.76-2.09,2.64-3.12.41.18.74.36,1.17.53a7.13,7.13,0,0,0,3,.75c1.91-.1,3.28-2.24,4.31-3.42a87.24,87.24,0,0,0,13.77-20.56c1.87-4,2.6-7.81,3.62-12,.46-1.91,1-3.64,1.55-5.5a12.63,12.63,0,0,0,.53-2.91,10,10,0,0,0-.76-3.62c-13.79-10-27.58-17.06-44.39-21.15-7,.38-18.73,2.51-23.7,5.95s-4.49,6.33-5.34,10.15-.06,5.69.85,8.81a12,12,0,0,0,3.78,5.85c1.49,1.25,3.39,1.39,5.22,1.45a47.62,47.62,0,0,0,10.43-1.21A212.54,212.54,0,0,1,121.39,303c1.77-.14,3.41.07,5.07,0s3.07-.37,4.67-.51a6.39,6.39,0,0,1,3.45.25,1.56,1.56,0,0,1,.84.88,1.52,1.52,0,0,1,0,.72,7.75,7.75,0,0,1-.78,2.16c-.67,1.57-1.15,3-1.94,4.58a45.73,45.73,0,0,1-5.47,8.65,63.11,63.11,0,0,1-7.11,7.86c-2.38,2.11-5.2,4.39-7.12,7-.5.67,0,1.42-.34,2.11,0,0,0,0,0,0l-1.89,1.91a2.54,2.54,0,0,0-.16-.28,1.44,1.44,0,0,0-1.65-.69,15.82,15.82,0,0,0-4.8,2c-1.58.89-3.52,1.83-4.63,3.36a1.82,1.82,0,0,0-.28,2,11.51,11.51,0,0,0,2.58,3.08c2.35,2.39,4.66,4.65,7,7.05,3.57,3.66,7.06,7.41,11,10.77a22.48,22.48,0,0,0,4.91,3.33,3.8,3.8,0,0,0,2.56.47A2.82,2.82,0,0,0,129.25,366.68Z"/><path class="cls-6" d="M85.54,251.6a25.4,25.4,0,0,0,2.75,6.9,9,9,0,0,0,2.27,2.81,18.83,18.83,0,0,0,5.6,2.65c2.86,1,5.78,1.8,8.67,2.67,4.65,1.39,7,1.91,7.71,2a39.61,39.61,0,0,0,12.74.3,12.19,12.19,0,0,0,3.27,2.91,11.87,11.87,0,0,0,4.3,1.58,14.21,14.21,0,0,0,3.38.1,21,21,0,0,1,2.86-.14c1.46.12,2.79.81,4.22,1.05s2.77-.32,2.84-1.83c0-.27-.06-.54-.93-1.7-.68-.91-1.29-1.63-1.73-2.12-1.91-.43-3.42-.84-4.37-1.1-5.22-1.46-8.22-2.4-13.42-3.53h0c-.33-.06-.84-.16-1.46-.3-6.15-1.36-8.19-3.54-15.76-7.45-5.08-2.62-7.34-3.28-9.91-6.3a18.84,18.84,0,0,1-1.93-2.73Z"/><path class="cls-37" d="M86.25,225.88c-.79-.07-.58-.25-3-1-2.2-.67-3.3-1-3.71-1.43a3.74,3.74,0,0,1-1.07-2,4.95,4.95,0,0,1-4.34-8,9.23,9.23,0,0,1-.67-6.54,9.4,9.4,0,0,1,4.73-5.74,7.08,7.08,0,0,1,2.22-6.1,6.71,6.71,0,0,1,7.2-.92A6.41,6.41,0,0,1,94,191a6.6,6.6,0,0,1,4.62,3.51,8.08,8.08,0,0,1,4.56,3.71c1.66,3.22.64,7.7-2.76,10.77a45.71,45.71,0,0,1-2.68,5.5,38.51,38.51,0,0,1-4.36,6.26C90.84,223.69,88.74,226.09,86.25,225.88Z"/><path class="cls-1" d="M152.55,355.19c-.29-1.31-.54-2.62-.76-3.94l-9.61-1.76-4.11,5.14L139,362l15.4-.22Z"/><path class="cls-60" d="M71.14,292.51a14.32,14.32,0,0,0,.66,8.39,14.54,14.54,0,0,0,3.81,5.94,11.5,11.5,0,0,0,5.44,2,64,64,0,0,0,10.8.64c7.88-.06,15.69-.63,23.56-.17a41.88,41.88,0,0,0,5.6.11c1.76-.14,3.49-.5,5.24-.68a15.33,15.33,0,0,1,4.06-.05,1.44,1.44,0,0,1,1.2.66,2.33,2.33,0,0,1,.14.78c.1.94.15,1.88.23,2.82.19,2.06.4,4.11.61,6.17.41,4,1,7.91,1.53,11.87s1.11,7.69,1.42,11.57c.28,3.35.15,7,1.11,10.3.26.9.67,1.83,1.73,1.83a16.92,16.92,0,0,0,3.68-.85c2-.48,4-.94,6-1.45a45,45,0,0,0,5-1.51,7.7,7.7,0,0,0,2.52-1.36c1.25-1.2.51-3.62.32-5.07-1-7.91-2.06-15.82-3.37-23.69-.7-4.17-1.48-8.34-2-12.53-.24-1.91-.33-3.82-.46-5.74a9.89,9.89,0,0,0-.57-2.91,14.27,14.27,0,0,0-2-3.42l-46.55-16.72s-19.19,0-24.07,3.58A15.12,15.12,0,0,0,71.14,292.51Z"/><path class="cls-37" d="M138.11,357.33a1.26,1.26,0,0,0-1.62.66,13.76,13.76,0,0,0-1.39,5,20.15,20.15,0,0,0-.32,5.9,2,2,0,0,0,1.13,1.72,11.13,11.13,0,0,0,4.07.37l10,.05c5.07,0,10.23.29,15.28-.15a20.41,20.41,0,0,0,5.74-1.16,4.23,4.23,0,0,0,2.14-1.55,3.32,3.32,0,0,0-.61-3.86c-.95-.92-2.46-.95-3.68-1.15a27.89,27.89,0,0,1-6.91-2.11,20.68,20.68,0,0,1-5.05-3.07c-.9-.76-1.69-1.63-2.6-2.37a2.8,2.8,0,0,0-.93-.6c-1-.27-1.35,1.19-1.72,1.81a4.47,4.47,0,0,1-1.79,1.71c-2.79,1.52-5.65,1-8.49,0C140.28,358.07,139.21,357.63,138.11,357.33Z"/><path class="cls-4" d="M80,227.34a19.1,19.1,0,0,0-2,3.95c-.69,1.68-1.32,3.39-1.9,5.11A81.5,81.5,0,0,0,73.29,247c-1.5,7.74-1.81,15.63-2.29,23.48-.23,3.7-.5,7.4-.75,11.1A17.4,17.4,0,0,0,71.39,290c.38.85,1.11,2.22,2.25,1.84a3.92,3.92,0,0,0,1.46-1.16,22.1,22.1,0,0,1,3-3c2.65-1.91,6.13-2.73,9.23-3.57,3.61-1,7.29-1.5,10.91-2.38a22.8,22.8,0,0,0,2.27-.69c.63-6,1.24-12,2-17.93a44.33,44.33,0,0,0-1.17-18.36,34.54,34.54,0,0,0-3.91-8.67c-1.77-2.8-4.26-5.32-6.31-7.95L81.38,226Z"/><g class="cls-61"><path class="cls-57" d="M79.16,244.32c0,3.64.11,3.64.28,7.27.18,3.91.07,7.92,1.17,11.71,1,3.52,3.36,7.63,7.48,7.66,1,0,4.91-.4,5.11-1.45.06-.33-.53-1.24-.66-1.55l-7.17-16.67a4.87,4.87,0,0,0-.3-.71Z"/></g><path class="cls-1" d="M89.39,268.57a25.37,25.37,0,0,0,2.1,7.12,9,9,0,0,0,2,3,18.34,18.34,0,0,0,5.34,3.16c6.5,2.92,4.19,2.07,8.38,3.46a199.86,199.86,0,0,0,20.9,5.39c3,3.15,5.43,3.83,6.37,4a19.54,19.54,0,0,0,3.35.41,21,21,0,0,1,2.86.13c1.44.24,2.7,1.06,4.11,1.43,1.26.33,2.78-.06,3-1.55a2.16,2.16,0,0,0-.77-1.79,15.8,15.8,0,0,0-5.23-3.49c-3.41-1.14-7.23-2.35-11.51-3.57a131.46,131.46,0,0,0-17.84-10.35c-2.24-1-6.81-2.9-9.94-7.61a23.18,23.18,0,0,1-1.67-2.9Z"/><g class="cls-62"><path class="cls-6" d="M87.94,271.69s5.69-2.76,7.64-2.87,9.17-.76,9.17-.76L101,263l-12.74,4.36Z"/></g><path class="cls-1" d="M94.14,229.29a7.43,7.43,0,0,1,1.93-2.73,9.9,9.9,0,0,1,3.85-1.66c.89-.27,1.72-.55,1.78-1.58,0-.09,1.2-6.87,1.28-7,.34-.41,1.13-.34,1.59-.51,2.57-.91-.81-4.58-1.43-5.55s-.12-1.36-.14-2.3a4.76,4.76,0,0,0-.51-1.6,5.74,5.74,0,0,1-.3-1.88c0-.44-.08-.86-.13-1.29-.74.39-.5-.1-1.3-.08s-1.15.84-1.41,1.59A7.67,7.67,0,0,1,97.51,208a5.17,5.17,0,0,0-1.88,2.74c-.08.41.27,4.8-1.34,3.72-.8-.54-.73-2.39-.87-3.15a4.15,4.15,0,0,0-1.5-2.33c-1-.95-1.15-2.74-3-2.26-2.37.63-1.23,3.46-.83,5a5.92,5.92,0,0,0,1.37,2.9,1.73,1.73,0,0,0,1.95.11l-.12.2c-.45.85.08,1.68.1,2.41,0,1.23-1.33,2.21-2,2.66a5.88,5.88,0,0,1-4.06,1,5.38,5.38,0,0,1-4.24,2.26Z"/><g class="cls-63"><path class="cls-6" d="M100.84,224.66c.38.53-6.16.42-9.13-3.49,1,2.92,6.5,7.75,6.5,7.75Z"/></g><path class="cls-57" d="M77.94,228c-1-.26.82-2.74,1-3a4,4,0,0,1,2.89-1.82,9,9,0,0,1,4.57.92,39.44,39.44,0,0,1,7,4.69,18.88,18.88,0,0,1,4.76,4.63,5.16,5.16,0,0,1,.62,1.45,8,8,0,0,1,.2,1.09,5.17,5.17,0,0,1,.15,1.56c-.13.49-.38.15-.65-.14-.94-1-1.69-2.22-2.54-3.31a19.62,19.62,0,0,0-5.77-4.92,12.64,12.64,0,0,0-5.41-1.84c-2.18-.16-4.19.63-6.33.76A1.94,1.94,0,0,1,77.94,228Z"/><path class="cls-4" d="M79.12,243.31c1.67,6,3.08,12,4.8,18a17.32,17.32,0,0,0,2.51,5.89,5.28,5.28,0,0,0,2.23,1.51,5,5,0,0,0,1.07.42c1.15.24,2-.39,3.25-1,2.26-1,2.41-.32,4.88-1.42a10.16,10.16,0,0,1,2.67-1.13c.57-.1,1.08-.1,1.32-.46s-.11-1.31-.22-1.52a53.72,53.72,0,0,0-1.28-7.75c-1.22-5.9-2-12-4.1-17.65-.27-.73-.57-1.44-.87-2.15Z"/><path class="cls-6" d="M91,211.64c-.2-1-1-.42-1.28-1.32s.68-.75.53-1.53-1.81-.59-1.17,2S91.15,212.53,91,211.64Z"/><rect class="cls-44" x="73.98" y="308.17" width="44.3" height="8.46" rx="2.03"/><path class="cls-44" d="M63.37,281.36c0-7.2.18-14.31-.09-21.47a76.9,76.9,0,0,1,.55-14.23c.3-2.07,1.69-11.52,5.79-9.74a3,3,0,0,1,1.28,2l-.54,43.44a3.17,3.17,0,0,1-2.83,3.42H66.19A3.16,3.16,0,0,1,63.37,281.36Z"/><path class="cls-45" d="M63.19,257v45.46A13.81,13.81,0,0,0,77,316.26h34"/><rect class="cls-46" x="91.63" y="316.63" width="3.45" height="49.38"/><rect class="cls-46" x="88.87" y="339.19" width="8.96" height="16.89"/><path class="cls-46" d="M123.51,367.66a54.41,54.41,0,0,0-60.32,0v-2.8a56.17,56.17,0,0,1,60.32,0Z"/><path class="cls-46" d="M67,367.66a3.86,3.86,0,1,0-3.85,3.86A3.85,3.85,0,0,0,67,367.66Z"/><path class="cls-46" d="M127.37,367.66a3.86,3.86,0,1,0-3.86,3.86A3.85,3.85,0,0,0,127.37,367.66Z"/><path class="cls-46" d="M97,367.66a3.64,3.64,0,1,0-3.64,3.65A3.64,3.64,0,0,0,97,367.66Z"/><rect class="cls-44" x="201.88" y="301.93" width="44.3" height="8.46" rx="2.03" transform="translate(448.06 612.33) rotate(180)"/><path class="cls-64" d="M246.18,309.78h-44.3"/><rect class="cls-65" x="222.31" y="310.39" width="3.45" height="55.61" transform="translate(448.06 676.4) rotate(180)"/><rect class="cls-46" x="219.55" y="339.19" width="8.96" height="16.89" transform="translate(448.06 695.27) rotate(180)"/><path class="cls-46" d="M193.87,367.66a54.41,54.41,0,0,1,60.32,0v-2.8a56.17,56.17,0,0,0-60.32,0Z"/><path class="cls-46" d="M250.34,367.66a3.86,3.86,0,1,1,3.85,3.86A3.85,3.85,0,0,1,250.34,367.66Z"/><path class="cls-46" d="M190,367.66a3.86,3.86,0,1,1,3.86,3.86A3.85,3.85,0,0,1,190,367.66Z"/><path class="cls-46" d="M220.39,367.66a3.64,3.64,0,1,1,3.64,3.65A3.64,3.64,0,0,1,220.39,367.66Z"/><path class="cls-37" d="M248.76,350.31s-3.59,10.44-4.08,15,.66,6.85,2,6.85,14.92-1.09,14.92-1.09,2.28-3.64,2.28-4.29-2.77-7.34-2.77-9.46-2-7-2-7Z"/><path class="cls-37" d="M189.25,350.31v8.32s-7.33,6.84-7.33,9.13,3,4.09,5.12,3.76,12.86.3,13.84-.68S202.13,358,202.13,358l-1.63-7.66Z"/><path class="cls-3" d="M206.37,277s-9.78,4.56-13.37,9.62-4.89,4.56-6.52,6.68-1.95,3.75-.81,6.36,1.79,47.93,1.79,47.93v6.2s3.79-1.15,5.58-1,6.65,1,8.44,1.3,1.14-5.54,1.14-5.54l1.47-4.73s1.3-30.81,2.28-33.42,9.13-7.17,9.13-7.17,0-1.31,8.81,0,17.28-2.94,19.23-.66,2.29,13.7,2.29,19.89.65,10.44,0,14,1.3,13,1.63,14.34a10.57,10.57,0,0,1,.21,2.82,9.38,9.38,0,0,1,5-1.19c3.26,0,8.81-.32,8.81-.32s-2.29-7.5,0-12.39,3.26-23.15,3.26-28.37,2.28-15.33,0-19.24S240.61,277,240.61,277Z"/><g class="cls-66"><path class="cls-37" d="M215.5,303.2S204.42,310,201,310s3.91.74,4.56,7.44C205.91,321.18,215.5,303.2,215.5,303.2Z"/><path class="cls-37" d="M213.63,345.05s-11.08,2.57-14.51,2.57,3.92.28,4.56,2.82C204,351.87,213.63,345.05,213.63,345.05Z"/><path class="cls-37" d="M242.12,301.94s6.46,3.87,9.88,3.87-6.51,2.3-6.51,6.09S242.12,301.94,242.12,301.94Z"/><path class="cls-37" d="M242.12,339.7s6.46,3.86,9.88,3.86-6.51,2.3-6.51,6.09S242.12,339.7,242.12,339.7Z"/></g><path class="cls-5" d="M215.66,219.48c-9.7,3.93-21.48,6.73-24.35,18-.71,2.77-1.07,5.62-1.82,8.38-.51,1.89-2.5,4.94-1.57,6.9,1.26,2.65,7.87,3.45,10.38,3.65l17.36,28.2,22.5-5.38,13.05-24.78,4.07-1.22s2.45.24,2.45-1.06c0-3.18-1.4-6.78-2.12-9.84-1.05-4.51-1.48-10.23-3.51-14.35-2.34-4.76-8.42-4.93-13-6q-5.18-1.25-10.37-2.45Z"/><g class="cls-67"><path class="cls-7" d="M204.17,255.55s1,.39,1.41-1a72.21,72.21,0,0,0,1.77-13.65c-.16-2.77,1.15,11.9,0,16.3a16.63,16.63,0,0,1-3.76,7Z"/><path class="cls-7" d="M242.32,255.73a1.13,1.13,0,0,1-.86-.92c-.46-2.69-2-11.95-1.87-14.31.16-2.78-1.15,11.9,0,16.3a16.63,16.63,0,0,0,3.76,7l-.29-7.89Z"/><ellipse class="cls-68" cx="222.52" cy="224.62" rx="12.06" ry="10.76"/></g><path class="cls-1" d="M214,219.89c-.24.06,0,6.19,0,6.73a4.78,4.78,0,0,0,.33,2.47,6.94,6.94,0,0,0,5.28,3.83,11.51,11.51,0,0,0,12.66-5.69V215.49Z"/><g class="cls-69"><path class="cls-6" d="M212.49,225.6c3.66,2.44,6.7,3.42,10.62,3.05s11.55-7.77,11.55-7.77l-1.51-5.39-20.66,2.89Z"/></g><path class="cls-43" d="M209.47,196.25s-.33,14.84,0,19.24,5.22,9.45,8.31,9.94,6.69,2.12,8.48,0,6.36-4.88,7.17-8.47-.32-13.7,0-14.84-.81-9.46-2.6-11.09-7-2.12-9.3-2.12S210.94,190.05,209.47,196.25Z"/><path class="cls-1" d="M212.89,201s-1.63,7.17-1.46,9.45.16,6.69,2.12,6.52,4.07-4.89,7.82-4.89,5.38,3.92,7.83,3.75,2.93-2.93,3.09-7.5-3.58-12.06-5.87-12.06-1.47,2.28-4.56,2.28-3.26-2.28-5.38-2.28S212.89,201,212.89,201Z"/><path class="cls-1" d="M243.05,255.92s2.39-3.63,5.32-3.87a58.47,58.47,0,0,1,8.07.26l-3.12,19.5s1,2.2.25,3.31-4.4,2.44-4.4,2.44l-19.93,11.62h-1.71l-1-2.33-2.69-.49-2.08,2.82h-2.45v-7.1l3.79-2.32,2.82,1.84s13.2-8.18,14.91-10.45l1.71-2.27Z"/><g class="cls-70"><path class="cls-6" d="M240,260.65s4.23-4.73,8.47-5.06,10.93-.16,10.93-.16l.65-5.05-13.53-1.63-8.59,8Z"/></g><path class="cls-6" d="M204.17,255.55l.49,13.08,14.67,13.45v7.1h2.45l2.08-2.82,2.69.49,1,2.33s3.05.73,3.3,1.59-1.72,7.09-2.69,7.33-7.83-.61-7.83-.61l-6-4s.24-7.34,0-8.44-17-7.95-18.59-9.9c-.66-.82-1-2.39-1.83-5.38a127.77,127.77,0,0,1-3.63-16.43c1.29-.33,3.47,0,5.22-.06C199.41,253.06,202.11,254.78,204.17,255.55Z"/><g class="cls-71"><path class="cls-41" d="M189.91,252.58v3.58a69.91,69.91,0,0,1,7.66-.65c1.38.16,7.5,2.28,7.5,2.28l1.47-3.26S191.59,252,189.91,252.58Z"/></g><rect class="cls-31" x="128.31" y="273.68" width="273.37" height="9.57" rx="3.6"/><path class="cls-72" d="M398.08,281.16H131.91a3.6,3.6,0,0,1-3.6-3.6v2.09a3.6,3.6,0,0,0,3.6,3.6H398.08a3.6,3.6,0,0,0,3.6-3.6v-2.09A3.6,3.6,0,0,1,398.08,281.16Z"/><path class="cls-3" d="M355.49,283.25l1.11,1.91a6.43,6.43,0,0,0,5.56,3.2h12.56l-.51-5.11Z"/><polygon class="cls-37" points="374.72 288.36 383.11 371.66 386.81 371.66 386.81 283.25 374.21 283.25 374.72 288.36"/><path class="cls-3" d="M155.26,288.36h12.56a6.43,6.43,0,0,0,5.56-3.2l1.11-1.91H155.78Z"/><polygon class="cls-37" points="143.17 283.25 143.17 371.66 146.88 371.66 155.78 283.25 143.17 283.25"/><polygon class="cls-3" points="200.9 271 171.52 271 182.4 235.6 211.78 235.6 200.9 271"/><polygon class="cls-37" points="203.34 271 173.97 271 184.85 235.6 214.22 235.6 203.34 271"/><rect class="cls-3" x="143.17" y="269.94" width="53.92" height="3.74"/><rect class="cls-37" x="170.13" y="269.94" width="31.01" height="3.74"/><path class="cls-73" d="M197.41,254c.43-2-.15-3.85-1.28-4.22s-2.4.91-2.83,2.87.15,3.84,1.28,4.21S197,255.93,197.41,254Z"/><rect class="cls-3" x="237.74" y="235.6" width="44.75" height="35.39"/><rect class="cls-37" x="239.17" y="235.6" width="47.05" height="35.39"/><rect class="cls-37" x="239.34" y="271" width="45.41" height="2.69"/><path class="cls-73" d="M265.59,253.3a3.54,3.54,0,1,0-3.54,3.54A3.55,3.55,0,0,0,265.59,253.3Z"/><polygon class="cls-3" points="338.55 271 367.92 271 357.04 235.6 327.67 235.6 338.55 271"/><polygon class="cls-37" points="336.1 271 365.47 271 354.59 235.6 325.22 235.6 336.1 271"/><rect class="cls-3" x="342.35" y="269.94" width="53.92" height="3.74" transform="translate(738.63 543.62) rotate(180)"/><rect class="cls-37" x="338.3" y="269.94" width="31.01" height="3.74" transform="translate(707.62 543.62) rotate(180)"/><path class="cls-73" d="M342,254c-.43-2,.14-3.85,1.27-4.22s2.4.91,2.83,2.87-.14,3.84-1.28,4.21S342.46,255.93,342,254Z"/><line class="cls-74" x1="2.14" y1="372.58" x2="578.14" y2="372.58"/><path class="cls-37" d="M259,118.13c-.34-2-4-3-2-4.79s3.31,1.37,4.64,2.59,3.94,2.35,3.1,4.36c-1.19,2.84-3.9,4.74-6.35,6.65a1.19,1.19,0,0,1-1.61-.35,1.46,1.46,0,0,1,.05-2c.7-.91,1.49-1.76,2.67-3.14-5.91,0-11.24-.21-16.54.07-3.14.17-3.87,2.71-3.88,5.49,0,1.11.4,2.77-1.34,2.81-2,0-1.49-1.79-1.51-3-.13-5.59,2.6-8.32,8.3-8.37l14-.09C258.65,118.4,258.74,118.29,259,118.13Z"/><path class="cls-37" d="M241.64,138.65c5.49,0,10.14,0,14.79,0,4.25,0,5.43-1.27,5.74-5.58.08-1.2-.47-3.05,1.63-2.87,1.68.15,1.2,1.8,1.23,2.92.14,5.61-2.57,8.39-8.24,8.43-4.77,0-9.55,0-14.35,0-.22,1.67,1.23,2.07,1.84,3s.84,1.51.14,2.26a1.45,1.45,0,0,1-2.23-.08c-1.82-1.74-3.58-3.53-5.35-5.32a1.52,1.52,0,0,1-.36-2,34,34,0,0,1,6.32-6.31,1.24,1.24,0,0,1,1.63.28,1.42,1.42,0,0,1,0,2C243.75,136.28,243,137.13,241.64,138.65Z"/><path class="cls-75" d="M369.17,62.9a1.6,1.6,0,0,0-.7-1.19,2.27,2.27,0,0,0-1.84.1l-2.87,1q-13.71,4.74-27.4,9.51a3.17,3.17,0,0,0-1.06.75q-.18.18-.36.33l-.42.33.36.4a3.79,3.79,0,0,1,.31.37,3.33,3.33,0,0,0,.93.9c1.67.93,3.35,1.85,5,2.76,2.11,1.16,4.22,2.31,6.31,3.49A4.34,4.34,0,0,1,349,83.17c1.09,1.92,2.15,3.87,3.21,5.81,1,1.75,1.91,3.51,2.89,5.25a4.35,4.35,0,0,0,1.08,1.14,4.49,4.49,0,0,1,.46.41l.44.41.33-.5c.11-.17.23-.33.35-.49a5,5,0,0,0,.75-1.26q4.29-12.3,8.53-24.61l1.71-4.92c.09-.27.17-.53.26-.81l.19-.58Zm-6.5,3.19-4,4Q354.3,74.44,350,78.8c-.58.6-.87.65-1.54.27-2.29-1.31-4.61-2.56-7.06-3.9l-1.93-1Zm1.72,2.52-7.82,22.65L355.9,90c-1.59-2.91-3.08-5.64-4.53-8.36a.79.79,0,0,1,.11-.5C355.51,77.1,359.81,72.79,364.39,68.61Z"/><path class="cls-75" d="M129,99.23c-4-1.58-8-.27-10.5,3.49l-.61.93c-.44-.63-.78-1.14-1.15-1.64a7.63,7.63,0,0,0-5-3.22,8.78,8.78,0,0,0-10.33,10.54,15.25,15.25,0,0,0,4.6,8.2c3,3,6.12,5.74,9.18,8.62,2.66,2.5,2.66,2.51,5.3,0,3.26-3.05,6.57-6,9.71-9.21a14.21,14.21,0,0,0,4.17-8A8.83,8.83,0,0,0,129,99.23Z"/><path class="cls-75" d="M432.25,134.36a4,4,0,0,1,1.4.12,4.39,4.39,0,0,1,1,7.19,28.28,28.28,0,0,1-3.78,2.81,4.41,4.41,0,0,1-5.28-7,9,9,0,0,1,1.47-1.13c.21-.13.57,0,.86,0a2.32,2.32,0,0,1-.28.83,13.4,13.4,0,0,1-1.16.92,3.38,3.38,0,0,0,4.06,5.39c1-.69,2-1.44,3-2.21,2.27-1.79,2-4.56-.58-5.94-.27-.15-.52-.34-.79-.52Z"/><path class="cls-75" d="M433.14,138.8a4.48,4.48,0,0,1-1.34-.21,4.4,4.4,0,0,1-1-7.19,29.63,29.63,0,0,1,3.78-2.81,4.42,4.42,0,0,1,5.11,7.2,7.07,7.07,0,0,1-1.31.93c-.22.11-.57,0-.87-.06.1-.25.13-.56.3-.73.38-.37.86-.64,1.26-1a3.4,3.4,0,0,0,.5-4.6,3.3,3.3,0,0,0-4.42-.85,32.06,32.06,0,0,0-3.6,2.65,3.33,3.33,0,0,0,.59,5.46l1.14.67Z"/><path class="cls-75" d="M384.84,127.93c2.11,0,4.23,0,6.34,0,1.47,0,2.19.6,2.21,2.08q.09,6.47,0,12.93c0,1.51-.76,2.19-2.27,2.2q-6.35,0-12.68,0c-1.6,0-2.23-.72-2.23-2.33q0-6.33,0-12.68c0-1.56.63-2.19,2.16-2.2C380.53,127.92,382.68,127.93,384.84,127.93Zm-7.56,13.24.47.29c.79-.89,1.55-1.81,2.37-2.66,1.79-1.85,1.8-1.84,3.77-.28.06,0,.15,0,.45.14.92-.95,2-1.94,2.91-3,.78-.9,1.39-1,2.2,0s1.72,1.69,2.58,2.53l.31-.18c0-2.72,0-5.43,0-8.15,0-.27-.59-.76-.91-.76-4.39,0-8.77-.06-13.16,0a1.3,1.3,0,0,0-.91.85C377.26,133.65,377.28,137.41,377.28,141.17Zm7.69-1.53c1.4,1.39,2.71,2.76,4.09,4.06.72.69,3,.57,3.1-.15.17-1.23.41-2.74-.14-3.69-.83-1.45-2.31-2.52-3.51-3.74Zm2.47,4.45-5.38-5.57c-1.47,1.43-2.93,2.83-4.36,4.26a1,1,0,0,0-.27.84,1.09,1.09,0,0,0,.8.44c1.12.05,2.23,0,3.35,0Z"/><path class="cls-75" d="M382.32,132c.31.45.91.94.85,1.32s-.72.8-1.12,1.19c-.38-.4-1-.76-1.06-1.2s.5-.88.79-1.32Z"/><path class="cls-75" d="M409.07,145.79a9.27,9.27,0,0,1-9.21-9.16,9.46,9.46,0,0,1,9.26-9.33,9.26,9.26,0,0,1,9.24,9.38A9.07,9.07,0,0,1,409.07,145.79Zm8.26-9.31a8.22,8.22,0,0,0-8.31-8.12,8.23,8.23,0,0,0,.21,16.45A8.2,8.2,0,0,0,417.33,136.48Z"/><path class="cls-75" d="M413,136.6l-6,3.8v-7.62Z"/></g></g></g></svg>