<svg xmlns="http://www.w3.org/2000/svg" viewBox="0 0 454.21 584.16"><defs><style>.cls-1{fill:#b3b3b3;}.cls-2{fill:#334451;}.cls-3{fill:#71daff;}.cls-4{fill:none;}</style></defs><title>security</title><g id="Layer_2" data-name="Layer 2"><g id="icons"><path class="cls-1" d="M391.18,237c-1.57-1.22-2-3.22-2-6.6-.3-28.8,1.92-57.69-1.11-86.41C378.5,53.42,293-12.13,203,1.89A162.37,162.37,0,0,0,64.91,162.55q-.12,35.13,0,70.26c0,1.8,0,3.23-.77,4.19H89.22c-2.69-1.38-2.69-4.53-2.69-12.38V191.3c.36-19.77-1.13-41.14,3.92-62.28C106.62,61,174.07,13.87,243,22.88c64,8.36,111.86,53.87,122.84,117A125.91,125.91,0,0,1,367.58,160c.2,24.1-.06,48.2.21,72.3,0,2.31-.28,3.77-1.15,4.66Zm-45.13-14.44q0-29.06,0-58.1c-.09-59.29-39-107-97-118.9-65.48-13.49-132.12,34.53-139.62,101-3.14,27.8-.88,55.79-1.09,83.69,0,3.44-.47,5.53-1.81,6.72h24.35c-1-1-1.26-2.57-1.23-5.1.28-23.41,0-46.82.16-70.23C130.13,111,169.67,68.85,220,65.28a97.17,97.17,0,0,1,103.29,83.66c2.66,19.46.66,39.1,1.11,58.66.19,8.11-.29,16.23.15,24.3.15,2.55-.15,4.15-1.14,5.1h25.68C346.05,235.4,346.05,231.63,346.05,222.56Z"/><path class="cls-2" d="M454.15,303.61c0-33.59-24.29-61.2-57.57-65-2.56-.3-4.28-.77-5.4-1.65H366.64c-.9,1-2.44,1.27-4.88,1.24-6.63-.05-10.47-.06-12.69-1.24H323.39c-1,.95-2.59,1.26-5.14,1.24-30.61-.25-61.23-.12-91.83-.12-30.17,0-60.34-.13-90.49.12-2.53,0-4.11-.29-5-1.24H106.54c-1.21,1.09-3.19,1.42-6.3,1.3-5.74-.25-9.08-.3-11-1.3H64.16c-.6.72-1.67,1.19-3.55,1.38C24.13,242,.06,268.72,0,305.3Q0,411,0,516.77c0,39.16,28.11,67.36,67.14,67.38q80.06,0,160.11,0,80.4,0,160.8,0c37.41,0,66.05-28.46,66.1-65.69Q454.26,411,454.15,303.61ZM432.54,516.46c0,27.79-18.3,46-46.12,46H67.53c-27.47,0-45.86-18.26-45.87-45.58q0-105.39,0-210.78c0-28.32,18.11-46.37,46.46-46.39q79.71,0,159.44,0H386.32c27.94,0,46.2,18.13,46.22,45.92Q432.59,411.07,432.54,516.46Z"/><path class="cls-3" d="M194.66,446.24c0-1.8-.15-3.62,0-5.4,1-11-1.43-19.7-9.49-28.82-19.51-22.08-15.36-55.79,7.2-74.8a54,54,0,0,1,72.21,80.15c-3.78,3.61-5.32,7.05-5.17,12.18.35,11.69.2,23.4.09,35.11-.17,18.55-14.23,32.88-32.2,33-18.34.1-32.5-14.26-32.66-33.17C194.61,458.39,194.66,452.32,194.66,446.24Zm21.62-7.4c0,7.88,0,15.75,0,23.63,0,8.49,4,13.45,10.7,13.52s10.89-4.94,10.91-13.32c0-15.52.13-31.05-.06-46.58-.06-4.37.7-7,5.19-9.43,13.19-7,19.17-22.06,15.35-36.21a32.33,32.33,0,0,0-62.7.47,31.54,31.54,0,0,0,15.87,36c3.79,2,5,4.18,4.83,8.27C216.05,423.08,216.28,431,216.28,438.84Z"/><line class="cls-4" x1="402.02" y1="237" x2="391.18" y2="237"/><line class="cls-4" x1="366.64" y1="237" x2="349.07" y2="237"/><line class="cls-4" x1="323.39" y1="237" x2="130.89" y2="237"/><line class="cls-4" x1="106.54" y1="237" x2="89.22" y2="237"/><line class="cls-4" x1="64.16" y1="237" x2="20.4" y2="237"/></g></g></svg>