<?xml version="1.0" encoding="utf-8"?>
<!-- Generator: Adobe Illustrator 24.0.1, SVG Export Plug-In . SVG Version: 6.00 Build 0)  -->
<svg version="1.1" id="Layer_1" xmlns="http://www.w3.org/2000/svg" xmlns:xlink="http://www.w3.org/1999/xlink" x="0px" y="0px"
	 viewBox="0 0 666 579.9" style="enable-background:new 0 0 666 579.9;" xml:space="preserve">
<style type="text/css">
	.st0{fill:#71DAFF;}
	.st1{fill:#334451;}
	.st2{fill:#4F5963;}
	.st3{fill:none;stroke:#4F5963;stroke-width:4;stroke-miterlimit:10;}
</style>
<title>service</title>
<g id="Layer_2_1_">
	<g id="Layer_2-2">
		<path class="st0" d="M124.6,519.2l-23.2-9.2c14.6-36.9,51.5-64,106.5-78.5c25.6-6.6,51.9-10.3,78.3-11
			c27.4,0.6,54.6,4.3,81.1,10.9c24.6,6.3,45.6,15,62.4,25.8c21.9,14.1,36.6,32,43.8,53l-23.7,8c-12.3-36.1-54.8-53.9-88.2-62.5
			c-24.7-6.2-49.9-9.6-75.4-10.2C284.9,445.6,153.4,446.9,124.6,519.2z"/>
		<path class="st1" d="M564.3,195.7c-2.9-8.5-6.2-16.8-9.9-25h-5.7c-6.8-0.1-13.4,2.6-18.2,7.5l-0.2,0.2c3.8,8.2,7.2,16.5,10.1,25
			c9.7,27.8,14.6,57.1,14.5,86.6c0,146.1-118.9,265-265,265S25,436.1,25,290S143.9,25,290,25c48.8,0,96.6,13.5,138.2,39
			c0-4.5,0-9,0.1-13.5v-0.2c0-4.1,0.1-8,0.9-10.9c0.3-1.1,0.8-2.2,1.4-3.2c-7.3-4.1-14.8-7.8-22.4-11.2c-146-64.9-317,0.8-382,146.8
			s0.8,317,146.8,382S490,553,555,407C584.6,340.3,588,264.8,564.3,195.7z"/>
		<path class="st2" d="M388.6,285.7c0,9.6-1.3,19.2-4,28.4c-0.8,2.7-1.7,5.5-2.8,8.2c-2,5.3-4.5,10.4-7.4,15.3v-98.2l3.3,0.2
			c1.5,2.9,2.8,5.9,4,8.9c1.1,2.8,2,5.5,2.8,8.2C387.2,266.2,388.6,275.9,388.6,285.7z"/>
		<path class="st2" d="M210.1,312.2c0.1,0.3,0.2,0.6,0.3,0.9c-2.7-2.3-5.2-4.9-7.4-7.7c-1.7-2.3-3.2-4.6-4.6-7.1v-42.7l1.3,2.3
			c-1.2,9.4-1.2,23.5,6.3,36.7c0,0.4,0.1,0.9,0.1,1.3c0.1,0.7,0.2,1.3,0.3,2c0.2,1.2,0.4,2.4,0.6,3.4v0.1c0,0.2,0.1,0.3,0.1,0.5
			s0.1,0.4,0.1,0.6v0.1c0,0.2,0.1,0.3,0.1,0.5v0.2l0.1,0.4c0.1,0.3,0.1,0.6,0.2,1c0.2,0.9,0.4,1.8,0.7,2.7c0.1,0.5,0.3,1.1,0.5,1.7
			s0.3,1,0.4,1.4s0.3,0.9,0.5,1.4C210,311.9,210.1,312.1,210.1,312.2z"/>
		<path class="st2" d="M198.5,298.3v39.8c-3.4-5.7-6.3-11.7-8.5-17.9c-1-2.9-1.9-5.5-2.6-8.2c-5-18.8-4.6-38.7,1.3-57.3
			c0.9-2.7,1.9-5.5,3-8.2l1.9,0.4C192.2,253.4,187.4,277.5,198.5,298.3z"/>
		<path class="st2" d="M198.5,255.6v42.7c-11.1-20.9-6.3-44.9-4.8-51.4L198.5,255.6z"/>
		<path class="st2" d="M198.5,239.4v16.3l-4.8-8.6l-1.9-0.4c1-2.3,2-4.6,3.2-6.9L198.5,239.4z"/>
		<path class="st3" d="M198.5,298.3c1.3,2.5,2.9,4.9,4.6,7.1c2.2,2.8,4.6,5.4,7.4,7.7l0,0c8.2,6.9,18.5,11.3,28.6,14.4
			c1.3,0.4,2.6,0.8,3.9,1c4.8,1,9.6,0.5,14.5,0.8c1.7,5.2,6.6,8.8,12.1,8.8h34.1c7.1,0.2,12.9-5.4,13.1-12.4
			c0.2-7.1-5.4-12.9-12.4-13.1c-0.2,0-0.5,0-0.7,0h-34.1c-5.3,0-10,3.3-11.9,8.3c-16.1-0.9-29-4.8-38.5-11.6c-3.5-2.5-6.6-5.6-9.3-9
			c-1.4-1.8-2.6-3.7-3.8-5.7c-7.5-13.2-7.5-27.3-6.3-36.7l-1.3-2.3"/>
		<path class="st1" d="M426.4,285.8c-2.1-16.4-10.4-28.9-24.1-38.1c-1.1-0.9-1.9-2.1-2.1-3.4c-3.9-18.6-12.3-35.9-24.4-50.6
			c-28.7-35.4-78.4-51-121.9-37.3s-70.6,43.4-81.2,87.8c-0.4,1.5-1.3,2.8-2.6,3.8c-11.7,7.9-19.4,18.6-22.7,32.4
			c-0.5,2.2-0.9,4.4-1.4,6.6v9.9c0.2,0.5,0.4,1,0.5,1.5c2.9,19.3,13.1,33.1,30.7,41.5c6.7,3.1,13.9,4.7,21.3,4.6v-6.4
			c18.5,30.8,51.8,49.7,87.8,49.8c36.2,0,69.7-19.1,88.1-50.3v6.9c0.9,0,1.7,0,2.5,0c20.3-0.9,39.3-14.6,46.3-33.7
			c1.6-4.5,2.5-9.3,3.7-14V287C426.7,286.6,426.5,286.2,426.4,285.8z M286.3,366.3h-2h0c-0.7,0-1.4,0-2.1-0.1
			c-1.2-0.1-2.2-0.1-3.1-0.2c-0.5,0-0.9-0.1-1.4-0.1s-1.2-0.1-1.8-0.2c-1.8-0.2-3.4-0.5-4.9-0.8c-0.6-0.1-1.1-0.2-1.7-0.3h0
			l-1.8-0.4c-1.9-0.5-3.8-1-5.6-1.6c-0.4-0.1-0.9-0.3-1.3-0.5l-0.2-0.1c-0.4-0.1-0.7-0.3-1.1-0.4c-1.2-0.4-2.4-0.9-3.7-1.5
			c-0.6-0.3-1.3-0.5-2-0.9c-1.9-0.9-3.8-1.8-5.6-2.8c-0.7-0.4-1.2-0.7-1.8-1c-1.8-1-3.7-2.2-5.5-3.5l-1.4-1l-1.5-1.1l-0.3-0.2
			l-0.1-0.1l-0.1-0.1l-0.5-0.4l-0.7-0.5c-2.2-1.7-4.3-3.6-6.2-5.5c-0.5-0.5-0.9-0.9-1.3-1.3c-0.2-0.2-0.4-0.4-0.6-0.6
			c-0.3-0.3-0.6-0.7-1-1.1c-3-3.2-5.7-6.7-8.1-10.4c-0.3-0.5-0.7-1.1-1.1-1.7s-0.7-1.2-1.1-1.8s-0.6-1-0.9-1.5l-0.1-0.1l-0.1-0.1
			l0,0l0,0c-0.7-1.3-1.4-2.6-2-3.9c-0.2-0.4-0.3-0.7-0.5-1s-0.2-0.5-0.3-0.7c-0.8-1.7-1.5-3.5-2.2-5.4l-0.1-0.2
			c8.2,6.9,18.5,11.3,28.6,14.4c1.3,0.4,2.6,0.8,3.9,1c4.8,1,9.6,0.5,14.5,0.8c1.7,5.2,6.6,8.8,12.1,8.8h34.1
			c7.1,0.2,12.9-5.4,13.1-12.4c0.2-7.1-5.4-12.9-12.4-13.1c-0.2,0-0.5,0-0.7,0h-34.1c-5.3,0-10,3.3-11.9,8.3
			c-16.1-0.9-29-4.8-38.5-11.6c-3.5-2.5-6.6-5.6-9.3-9c-1.4-1.8-2.6-3.7-3.8-5.7c0-0.4-0.1-0.7-0.1-1.1v-0.3v-0.2
			c-0.1-0.6-0.1-1.1-0.1-1.7v0c-0.1-0.8-0.1-1.5-0.1-2.3c0-0.3,0-0.7,0-1v-0.2c0-0.8,0-1.5,0-2.3c0-44.6,36.1-80.7,80.6-80.7
			c44.6,0,80.7,36.1,80.7,80.6s-36.1,80.7-80.6,80.7c0,0,0,0,0,0L286.3,366.3z M377.7,239.6c-25.5-50.5-87-70.7-137.5-45.3
			c-19.5,9.9-35.4,25.7-45.3,45.3l-2.8,0.2c8.9-34.1,43.8-70.7,94.2-70.8c50-0.1,85.3,35.9,94.5,70.7
			C379.8,239.8,378.7,239.7,377.7,239.6z"/>
		<path class="st0" d="M666,46.1c0.3-22.7-17.8-41.4-40.6-41.7c-0.4,0-0.9,0-1.3,0c-20.9,0.4-42.3,0.3-63,0.3
			c-8.8,0-17.5-0.1-26.3-0.1l-11.6,0.1h-14.8c-21.8,0-44.4,0-66.5,0.1c-14.1,0.1-27,7.9-33.7,20.3c-1.3,2.5-2.4,5.1-3.1,7.8
			c-1.7,6.1-1.7,12-1.8,17.3v0.4c-0.1,13.1-0.1,26.3-0.1,39.1v7.1c0,5.3,0,10.5,0,15.8c0,14.9,0,30.3,0.3,45.5
			c0.3,17.3,14,33.2,31.4,36.6c0,1.5,0,3.1-0.1,4.7c-0.3,6,0,12.1,0.8,18.1c2.6,15.9,13.1,27.4,28.7,31.7c3.7,1,7.5,1.6,11.3,1.6
			c10.4,0,20-4.1,28.3-12.1c6.7-6.5,13.5-13,20.1-19.4c5.4-5.1,10.9-10.4,16.3-15.7c2.5-2.4,5-4.9,7.6-7.3c0.2-0.2,0.3-0.3,0.4-0.4
			h0.2c5.3,0,10.5,0.1,15.8,0.1c7.8,0,15.6,0,23.3,0c11.7,0,23.8,0,35.7,0h0.3c11.4,0.2,22.4-4.2,30.5-12.3c7.9-8.1,12.3-19,12-30.4
			C665.5,120.3,665.5,85.3,666,46.1z M636.2,165.9c-3.4,3.3-7.9,5.1-12.7,4.9h-0.1c-12-0.1-24.1-0.1-35.8,0c-10.9,0-22.1,0-33.2,0
			h-5.7c-6.8-0.1-13.4,2.6-18.2,7.5l-0.2,0.2c-7.8,7.6-15.8,15.3-23.5,22.7c-6.6,6.4-13.5,12.9-20.2,19.5c-4.9,4.7-9.5,6-15.7,4.4
			s-9.6-5.4-10.6-11.6c-0.5-4.5-0.7-9-0.5-13.6c0-2,0.1-4.1,0.1-6.3v-0.2c0-6.2,0-11.6-4.1-16.4s-9.5-5.8-15.6-6.8
			s-11.6-6.9-11.7-12.6c-0.3-15-0.3-30.3-0.3-45c0-5.3,0-10.6,0-15.8v-7.1c0-8.4,0-17,0-25.5c0-4.5,0-9,0.1-13.5v-0.2
			c0-4.1,0.1-8,0.9-10.9c0.3-1.1,0.8-2.2,1.4-3.2c2.4-4.1,6.7-6.6,11.5-6.6c13.3-0.1,26.8-0.1,40.1-0.1h26.3h26.4h12.5v0l13.7,0.1
			c20.8,0.1,42.3,0.2,63.6-0.3c8.9-0.1,16.2,7,16.4,15.9c0,0.2,0,0.3,0,0.5c-0.5,39.4-0.5,74.6,0,107.7
			C641.2,158.1,639.4,162.6,636.2,165.9z"/>
	</g>
	<g id="Layer_3">
		<circle class="st0" cx="480.5" cy="102.8" r="21"/>
		<circle class="st0" cx="534.5" cy="102.8" r="21"/>
		<circle class="st0" cx="590.5" cy="102.8" r="21"/>
	</g>
</g>
</svg>
