<?xml version="1.0" encoding="utf-8"?>
<!-- Generator: Adobe Illustrator 24.0.1, SVG Export Plug-In . SVG Version: 6.00 Build 0)  -->
<svg version="1.1" id="Layer_1" xmlns="http://www.w3.org/2000/svg" xmlns:xlink="http://www.w3.org/1999/xlink" x="0px" y="0px"
	 viewBox="0 0 2775.9 2734.8" style="enable-background:new 0 0 2775.9 2734.8;" xml:space="preserve">
<style type="text/css">
	.st0{fill:#8DE1FF;}
	.st1{fill:#334451;}
	.st2{fill:#F9F9F9;}
	.st3{fill:#FFEFCA;}
	.st4{fill:#DB5E5E;}
	.st5{fill:#29ABE2;}
	.st6{fill:#FFE888;}
	.st7{fill:#5EA8DC;stroke:#334451;stroke-width:35;stroke-miterlimit:10;}
	.st8{fill:#FFFFFF;}
	.st9{fill:#E0F7FC;}
	.st10{fill:#5EA8DC;}
	.st11{fill:#2A5297;stroke:#334451;stroke-width:35;stroke-miterlimit:10;}
	.st12{fill:#FEFEFE;}
	.st13{fill:url(#SVGID_1_);stroke:#334451;stroke-width:35;stroke-miterlimit:10;}
	.st14{fill:#F2F2F2;stroke:#334451;stroke-width:35;stroke-miterlimit:10;}
	.st15{fill:#017BB6;}
	.st16{fill:#CB2127;stroke:#334451;stroke-width:35;stroke-miterlimit:10;}
	.st17{fill:#FEFDFC;}
	.st18{clip-path:url(#SVGID_3_);}
	.st19{fill:#487FE5;stroke:#4F5963;stroke-miterlimit:10;}
	.st20{fill:#FFFFFF;stroke:#4F5963;stroke-miterlimit:10;}
	.st21{fill:#7FACF6;stroke:#4F5963;stroke-miterlimit:10;}
	.st22{fill:#4858B7;stroke:#4F5963;stroke-miterlimit:10;}
	.st23{fill:#4C8BF4;stroke:#4F5963;stroke-miterlimit:10;}
	.st24{fill:none;stroke:#334451;stroke-width:35;stroke-miterlimit:10;}
</style>
<title>super_gain_1</title>
<g id="Layer_2_1_">
	<g id="Layer_2-2">
		<circle class="st0" cx="1364.5" cy="1342.3" r="1139"/>
		<path class="st1" d="M2656,1902.9c-14.9-82.8-60.7-142.8-136.5-179.4c-6.7-3.3-8.3-7.2-8.3-14.1c-0.2-16.6-0.1-33.3-2.3-49.7
			c-15.7-118.2-106.4-218.1-222.5-245.2c-17.1-4-34.6-6.2-51.9-9.2H2204c-4.2,0.8-8.4,1.9-12.7,2.3c-95.9,10-169.8,56.1-222.7,136.2
			c-6.7,10.1-12.3,21-18.6,31.8c-3.3-1.3-6-2.3-8.5-3.5c-29.1-14.8-61.9-20.7-94.3-17.1c-76.4,7.9-141.7,75.5-145.3,152.3
			c-0.4,9.3-3.3,13.7-11.7,17.7c-101.5,48.1-155.6,161.2-129.9,270.6c25.1,106.7,120.8,183.1,231,183.3c184.5,0.3,369.1,0.3,553.6,0
			c36.4,0,73.2,1.5,109.2-2.8C2584.1,2160.8,2679.1,2031.4,2656,1902.9z M2439.3,2142.5c-55.4,3.5-111.2,1.9-166.8,1.9
			c-158.9,0.2-317.8,0.9-476.8-0.3c-83.7-0.6-147.3-39-185.1-113.9c-60.1-119.2,10.8-262.4,141.7-289.2c12.6-2.6,25.7-3.4,38.6-4.4
			c11.6-0.9,19.3-7.4,19.5-17.4c0.2-10.3-8.2-18.4-20.2-17.8c-14.4,0.8-28.7,3-43,4.6c-2.8,0.3-5.5,0.7-10.3,1.2
			c7.4-50.6,32.2-86.3,77.1-106.9c58.9-26.9,129.9-4.3,163.5,51.3c1.3,2.2,2.5,4.4,3.9,6.5c6,9.4,16.4,12.5,25,7.5
			c8.8-5.1,11.6-15.4,5.2-25.4c-7.9-12.1-16.5-23.6-25.8-34.7c-4.2-5-6.1-8.5-2.8-15c42.7-83.9,109.8-134.2,203.5-146.8
			c131.4-17.7,254.6,71.4,283.1,199.3c4.5,20.4,5.5,41.7,8.3,63.8c-17.5-1.9-31.7-3.5-45.9-5.1c-2.5-0.3-5-0.7-7.5-0.7
			c-12.9-0.2-21.5,6.7-21.9,17.5c-0.4,10.5,7.9,17.6,21.1,17.9c111.7,3,199.7,92.9,200.4,204.7
			C2624.6,2044,2541.7,2136,2439.3,2142.5L2439.3,2142.5z"/>
		<path class="st2" d="M2624,1941.2c0.6,102.8-82.3,194.8-184.6,201.3c-55.4,3.5-111.2,1.9-166.8,1.9
			c-158.9,0.2-317.8,0.9-476.8-0.3c-83.7-0.6-147.3-39-185.1-113.9c-60.1-119.2,10.8-262.4,141.7-289.2c12.6-2.6,25.7-3.4,38.6-4.4
			c11.6-0.9,19.3-7.4,19.5-17.4c0.2-10.3-8.2-18.4-20.2-17.8c-14.4,0.8-28.7,3-43,4.6c-2.8,0.3-5.5,0.7-10.3,1.2
			c7.4-50.6,32.2-86.3,77.1-106.9c58.9-26.9,129.9-4.3,163.5,51.3c1.3,2.2,2.5,4.4,3.9,6.5c6,9.4,16.4,12.5,25,7.5
			c8.8-5.1,11.6-15.4,5.2-25.4c-7.9-12.1-16.5-23.6-25.8-34.7c-4.2-5-6.1-8.5-2.8-15c42.7-83.9,109.8-134.2,203.5-146.8
			c131.4-17.7,254.6,71.4,283.1,199.3c4.5,20.4,5.5,41.7,8.3,63.8c-17.5-1.9-31.7-3.5-45.9-5.1c-2.5-0.3-5-0.7-7.5-0.7
			c-12.9-0.2-21.5,6.7-21.9,17.5c-0.4,10.5,7.9,17.6,21.1,17.9C2535.3,1739.5,2623.3,1829.4,2624,1941.2z"/>
		<path class="st1" d="M227.1,1226.2c39.8,4.7,80.5,3,120.8,3c204.2,0.2,408.3,0.2,612.5,0c121.9-0.2,227.8-84.8,255.5-202.8
			c28.4-121.1-31.3-246.2-143.7-299.4c-9.3-4.4-12.5-9.3-12.9-19.5c-3.9-85-76.2-159.8-160.7-168.5c-36.9-3.8-71.4,2.5-104.3,19
			c-2.8,1.4-5.8,2.4-9.4,3.9c-7-12-13.1-24-20.5-35.2C705.7,438,624,387,517.9,375.9c-4.7-0.5-9.4-1.7-14-2.6h-33.6
			c-19.2,3.4-38.5,5.8-57.4,10.2c-128.4,30-228.8,140.6-246.2,271.3c-2.4,18.1-2.4,36.6-2.6,55c-0.1,7.7-1.8,12-9.2,15.6
			C71,765.9,20.3,832.3,3.8,923.9C-21.7,1066,83.3,1209.2,227.1,1226.2z M39.3,966.2C40,842.5,137.4,743.1,261,739.8
			c14.6-0.4,23.8-8.2,23.4-19.8c-0.5-11.9-10-19.6-24.3-19.3c-2.8,0-5.6,0.5-8.4,0.8c-15.7,1.7-31.4,3.5-50.8,5.6
			c3.1-24.4,4.2-47.9,9.2-70.5c31.4-141.6,167.8-240.1,313.2-220.6c103.6,13.9,177.9,69.6,225.1,162.4c3.7,7.2,1.5,11-3.1,16.6
			c-10.3,12.2-19.8,25-28.5,38.3c-7.2,11.1-4.1,22.5,5.7,28.1c9.5,5.5,21,2.1,27.7-8.3c1.5-2.3,2.8-4.8,4.3-7.2
			c37.2-61.5,115.7-86.5,180.9-56.7c49.7,22.7,77.1,62.3,85.3,118.2c-5.3-0.6-8.3-1-11.4-1.3c-15.8-1.8-31.7-4.3-47.5-5.1
			c-13.4-0.7-22.6,8.3-22.4,19.7c0.2,11.1,8.7,18.3,21.6,19.3c14.3,1.2,28.7,2,42.7,4.9c144.8,29.7,223.3,188.1,156.8,320
			c-41.8,82.9-112.2,125.4-204.8,126c-175.8,1.2-351.7,0.5-527.5,0.3c-61.5-0.1-123.2,1.7-184.5-2.2
			C130.4,1181.8,38.6,1079.9,39.3,966.2L39.3,966.2z"/>
		<path class="st2" d="M39.3,966.2c-0.7,113.7,91.1,215.6,204.3,222.7c61.3,3.8,123,2.1,184.5,2.2c175.8,0.2,351.7,1,527.5-0.3
			c92.6-0.7,163-43.1,204.8-126c66.5-131.8-12-290.3-156.8-320c-14-2.9-28.4-3.8-42.7-4.9c-12.9-1-21.4-8.2-21.6-19.3
			c-0.2-11.4,9-20.4,22.4-19.7c15.9,0.8,31.7,3.3,47.5,5.1c3,0.3,6.1,0.7,11.4,1.3c-8.2-55.9-35.7-95.5-85.3-118.2
			c-65.2-29.8-143.7-4.8-180.9,56.7c-1.5,2.4-2.8,4.8-4.3,7.2c-6.7,10.4-18.2,13.8-27.7,8.3c-9.8-5.7-12.9-17-5.7-28.1
			c8.7-13.3,18.2-26.1,28.5-38.3c4.6-5.5,6.8-9.4,3.1-16.6c-47.2-92.8-121.5-148.5-225.1-162.4c-145.4-19.5-281.7,79-313.2,220.6
			c-5,22.6-6.1,46.1-9.2,70.5c19.4-2.1,35.1-3.9,50.8-5.6c2.8-0.3,5.6-0.7,8.4-0.8c14.3-0.2,23.8,7.4,24.3,19.3
			c0.4,11.6-8.8,19.4-23.4,19.8C137.4,743.1,40,842.5,39.3,966.2z"/>
		<path class="st1" d="M1369.1,867.3c-80.5,0-146-65.5-146-146s65.5-146,146-146s146,65.5,146,146S1449.6,867.3,1369.1,867.3z"/>
		<path class="st3" d="M1490.1,721.3c0,66.8-54.2,121-121,121s-121-54.2-121-121s54.2-121,121-121
			C1435.9,600.4,1490,654.5,1490.1,721.3z"/>
		<path class="st4" d="M1595.2,1196.9l-55.3,47.8c1.3-42.9,3.6-77.8,6.8-103.3L1595.2,1196.9z"/>
		<path class="st4" d="M1220.3,1949.4c-25.4,7.3-52.1-6.8-60.3-32l-51-155.9l108.4-28.9l8.1,34.5c0,0.2,0.1,0.5,0.2,0.7l28.4,121
			C1260.2,1915.2,1245.1,1942.3,1220.3,1949.4z"/>
		<path class="st4" d="M1540.9,2014.3c-9.3,11-22.7,17.7-37.1,18.8c-28,1.9-53-17.7-57.8-45.4l-23.6-145.2l120.6-8.8l10.8,141.1
			C1555,1989.2,1550.3,2003.4,1540.9,2014.3z"/>
		<path class="st4" d="M1452.6,1320.7c-4.9,5.1-9,11-12.1,17.4c-26.5,3.3-50.4,5.4-71.8,6.5c-8.8,0.5-17.1,0.8-25,1v19.5
			c0,2.1-0.8,4.1-2.2,5.6c-1.6,1.9-4,3-6.5,3h-55.3c-4.7,0.1-8.6-3.7-8.7-8.5c0,0,0-0.1,0-0.1v-22c-9.6-0.9-17.9-2.1-25-3.3
			c-8.4-1.4-16.7-3.2-24.8-5.6c0-5,0-10.1,0-15.1c6.4,1.6,14.6,3.4,24.9,5c7.3,1.2,15.6,2.3,25,3.1v-17.5c0-3.1,1.6-5.9,4.3-7.4
			c1.3-0.8,2.9-1.3,4.4-1.3h55.3c2.6,0,5.1,1.2,6.8,3.3c1.3,1.5,2,3.4,1.9,5.3v19.8c7.9-0.3,16.3-0.5,25-1
			C1393.5,1327.3,1421.4,1324.8,1452.6,1320.7z"/>
		<path class="st4" d="M1882,1792.7l-319.5-33.4l-21.8-285.8c0,0-0.6-18.4-1.1-47c2.9-1.8,5.6-3.9,8.2-6.1l151.9-131.4L1882,1792.7z
			"/>
		<path class="st4" d="M1194.3,1249.5l-66.6-57.6l54.7-62.2C1186.4,1155.6,1191.5,1196.9,1194.3,1249.5z"/>
		<path class="st4" d="M1382.5,1752.6c-49.2-0.2-93.6-0.3-134.8-0.3l-26.5-112.8l109.2-107.6c4-3.9,10.4-3.9,14.3,0.1
			c1.5,1.5,2.5,3.4,2.8,5.5L1382.5,1752.6z"/>
		<path class="st4" d="M1048.2,1585.6c-5.7,19.6-6.6,40.2-2.6,60.2c0.4,2.4,1.1,4.8,1.8,7.9l38.1,116.6l-239.6,22.6l182.6-504.4
			l146.6,126.7c0.8,0.7,1.7,1.3,2.6,1.9l-88.8,103.9l-16.2,18.9c-1.3,1.6-2.7,3.2-3.9,4.8c-3.1,4.1-5.9,8.4-8.5,12.8
			C1055.1,1566.3,1051.1,1575.8,1048.2,1585.6z"/>
		<path class="st4" d="M1314,920l-8,47c-75.8-9.7-131.6-39.3-156-54.3c20.4-14.8,51.3-27.8,96.2-26.2c0.2,0.1,0.3,0.3,0.5,0.4
			C1266.4,902.8,1289.4,914.1,1314,920z"/>
		<path class="st4" d="M1569.1,910c-54.9,31.7-107.3,48.8-155.5,56l-7.1-42.7c30-5.2,56.2-17.2,81.2-37c14.9,0.5,29.8,1.8,44.6,4
			l0.4,0.1C1546.5,893.2,1559.1,900,1569.1,910z"/>
		<path class="st5" d="M1388.7,968.9c-19.2,1.6-38.5,1.8-57.8,0.6l7.7-45c10.1,1.2,20.3,1.9,30.5,1.9c4.3,0,8.3-0.2,12.4-0.5
			L1388.7,968.9z"/>
		<path class="st5" d="M1541.2,1808.8l-122.8,8.9l-46.3-284.2c-3.1-19.1-21.1-32.1-40.3-29c-7.2,1.2-13.9,4.5-19.1,9.7l-84.5,83.3
			l-29.8,29.3c-3.1,3.1-4.3,7.5-3.3,11.7l16.4,69.9l-110.5,29.5l-24.1-73.7l-5.5-17.3c-0.5-1.8-0.9-3.7-1.3-5.8
			c-3.3-16.1-2.6-32.7,2-48.4c2.3-7.9,5.6-15.5,9.7-22.6c2.1-3.6,4.4-7.1,6.9-10.4c1-1.3,2-2.6,3.1-3.8l114.1-133.4l10.7-12.5
			c1.8-2.1,2.9-4.8,3-7.5c0.7-14,1.1-28.1,1.4-42.2c6.4,1.6,14.8,3.4,25.2,5.1c0.2,18.5,15.2,33.4,33.7,33.4h55.3
			c16.8,0,31-12.4,33.3-29c19.7-1,41.5-2.8,65.3-5.6c-2.6,37.7,25.9,70.4,63.6,73c5.8,0.4,11.6,0.1,17.3-1c0.5,23.6,0.9,38.4,1,38.9
			L1541.2,1808.8z"/>
		<path class="st5" d="M1730.5,1182.2L1584,930.3c-81.8,47.8-159.2,64-226.3,64c-13.6,0-26.7-0.7-39.4-1.9c-0.6,0.2-1.2,0.3-1.9,0.3
			c-0.7,0-1.4-0.1-2.1-0.2c-1-0.2-1.9-0.5-2.8-0.9c-91.3-10.1-157.6-47.1-180.8-61.8c-9.6,10.7-14,19.4-14.5,20.4l-124.5,228
			c-9.7,18-5.7,40.3,9.8,53.8l190,164.3c0.8,0.7,1.5,1.3,2.3,1.9l1.1-1.3c0.8-17.3,1.2-34.8,1.4-52.3c-0.1-1-0.1-2.1,0.1-3.1
			c0.2-19.2,0-38.4-0.6-57.7l-93.9-81.2c-5.2-4.5-5.8-12.4-1.3-17.6c0,0,0,0,0.1-0.1l80.4-91.4c4.6-5.2,12.5-5.7,17.7-1.1
			c2.1,1.8,3.5,4.3,4,7.1c3.4,17.9,14.6,83.7,17.8,178.1v0.1c0.2,5.2,0.2,10.3,0.3,15.5c8.9,2.5,17.9,4.5,27,5.9
			c4.6-13.6,17.4-22.8,31.8-22.8h55.3c16.2,0.1,30,11.6,33.1,27.4c39.9-2.3,79.6-6.7,119-13.2l27.2-23.5
			c1.5-73.7,5.6-126.3,12.1-156.3c1.5-6.8,8.1-11,14.9-9.6c2.6,0.6,5,2,6.8,4l74.2,85c4.5,5.2,4,13.1-1.2,17.7c0,0,0,0,0,0
			l-86.2,74.5l-61.1,52.8c-18.4,15.9-20.4,43.7-4.4,62.1c12.9,14.9,34.3,19.4,52.1,10.9l0,0h0.1c3.6-1.7,6.9-3.9,9.9-6.4
			l189.9-164.3C1737.3,1223.5,1741.1,1200.4,1730.5,1182.2z M1435.9,1137.8c0,14-12.2,25.3-27.3,25.3h-30.1l-17.2,15.6
			c-1.2,1.1-2.8,1.7-4.5,1.7c-1.6,0-3.2-0.6-4.4-1.7l-17.2-15.6h-30.1c-15,0-27.3-11.4-27.3-25.3v-91.3c0-14,12.2-25.3,27.3-25.3
			h103.4c7.1-0.1,13.9,2.6,19.2,7.3c5.1,4.6,8,11.1,8.1,18V1137.8z"/>
		<path class="st4" d="M1356.9,1050.5c-26,0-47,21-47,47s21,47,47,47s47-21,47-47C1403.9,1071.6,1382.9,1050.6,1356.9,1050.5z
			 M1356.9,1076.6h0.9c12,0.2,21.5,10.1,21.2,22.1c-0.2,12-10.1,21.5-22.1,21.2c-12-0.2-21.5-10.1-21.2-22.1
			C1335.9,1086.2,1345.3,1076.8,1356.9,1076.6z"/>
		<polygon class="st4" points="1427.3,1055.5 1427.3,1070.6 1419.6,1070.6 1419.6,1078.3 1404.5,1078.3 1404.5,1070.6 
			1396.8,1070.6 1396.8,1055.5 1404.5,1055.5 1404.5,1047.8 1419.6,1047.8 1419.6,1055.5 		"/>
		<path class="st4" d="M1450.3,1027.9c-7.6-6.9-17.5-10.7-27.8-10.6h-131.1c-21.9,0-39.7,16.7-39.7,37.2v115.7
			c0,20.5,17.8,37.2,39.7,37.2h36.2l20.5,18.6c2.5,2.2,5.6,3.4,8.9,3.3c3.3,0,6.6-1.2,9.1-3.4l20.3-18.5h36.2
			c21.9,0,39.6-16.7,39.6-37.2v-115.8C1462.1,1044.3,1457.8,1034.7,1450.3,1027.9z M1376.3,1181.3l-19.3,17.6l-19.3-17.6h-30.9
			c4.8-11.6,16.2-19.1,28.8-19h45.5c12.1,0,22.8,7.6,26.8,19H1376.3z M1436.1,1170.2c0,2.3-0.9,4.6-2.4,6.3
			c-6.2-22.9-26.5-39.1-50.1-40.2c-0.8,0-1.6-0.1-2.4-0.1h-45.5c-1.7,0-3.3,0.1-5,0.2c-23.3,2.3-43,18.3-49.9,40.6
			c-1.9-1.8-3-4.3-3-6.9v-115.7c0-6.2,6.1-11.1,13.6-11.1h131.2c7.5,0,13.6,5,13.6,11.1L1436.1,1170.2z"/>
		<path class="st6" d="M1407.9,1181.3h-31.7l-19.3,17.6l-19.3-17.6h-30.9c4.8-11.6,16.2-19.1,28.8-19h45.5
			C1393.1,1162.4,1403.9,1170,1407.9,1181.3z"/>
		<path class="st6" d="M1377.9,1097.5c0,11.6-9.3,21-20.9,21.1c-11.6,0-21-9.3-21.1-20.9c0-11.6,9.3-21,20.9-21.1c0,0,0,0,0.1,0h0.9
			C1369,1077,1377.9,1086.3,1377.9,1097.5z"/>
		<path class="st6" d="M1422.5,1043.3h-131.1c-7.5,0-13.6,5-13.6,11.1v115.7c0,2.6,1.1,5.1,3,6.9c6.9-22.4,26.6-38.4,49.9-40.6
			c-21.5-14.5-27.1-43.8-12.6-65.3s43.8-27.1,65.3-12.6s27.1,43.8,12.6,65.3c-3.3,4.9-7.5,9.1-12.3,12.4
			c23.7,1.1,43.9,17.3,50.1,40.2c1.5-1.7,2.4-4,2.4-6.3v-115.7C1436.1,1048.3,1430,1043.3,1422.5,1043.3z M1427.3,1070.6h-7.7v7.7
			h-15.2v-7.7h-7.7v-15.2h7.7v-7.7h15.2v7.7h7.7V1070.6z"/>
		<path class="st1" d="M1390.3,674.6c-1.1-1.5-2.3-2.9-3.7-4.2c23.7-3.5,46.7-7.7,65.3-24.6c0.1,0.2,0.2,0.3,0.3,0.5l0.5-0.5
			c1.7-1.7,3.6-3.2,5.6-4.5c1.9-2.6,4.1-5,6.4-7.2c4.2-3.8,8.7-7.3,13.5-10.5l1.8-1.2c0.1-1.3,0.3-2.5,0.6-3.7
			c-1.9-14-8.4-25.1-20.5-32.4c-19.9-11.8-41.7-18.2-65.1-17.9c-1.4,0-2.9-0.3-4.3-0.7c-17.6-5.6-35.4-8.6-53.8-4
			c-20,5-37.7,14.9-54.4,26.7c-3.4,2.4-5.8,6.4-8.7,9.6c-1,1.3-2.3,2.4-3.6,3.3c-7.7,4.6-13.8,10.2-13.6,20.1
			c0.1,3.5,0.1,7,0.2,10.6c9.6,2.6,18.8,6.4,28.3,9.4l0.1-0.9c24.4-0.3,44.9,10.1,65,22.2c-0.6,2.2-1.3,4.2-1.7,6.2
			c-1.2,5.8,0.6,8.8,6.3,10.1c5,1.1,10,1.9,14.9,3c1.8,0.4,3.6,0.9,5.3,1.6c5.5,2.3,6.6,6.1,2.6,10.4c-3.1,3.3-6.9,6-10.4,8.9
			c-1,0.8-2.2,1.5-4.2,2.8c11.6-1.1,21.4-4,30.6-9.1c4-2.3,5.8-6.2,4-10.5C1395.9,683.1,1393,678.9,1390.3,674.6z"/>
		<path class="st3" d="M1554,1381.9l-22.6,19.5c-3,2.6-6.3,4.8-9.9,6.4h-0.1l0,0c-21.9,10.4-48.2,1.1-58.6-20.9
			c-8.5-17.9-4-39.2,10.9-52.1l25.3-21.9L1554,1381.9z"/>
		<path class="st1" d="M1912.3,1802.9l-192.3-531.4l17.8-15.4c24.9-21.6,31-57.9,14.4-86.5l-149.7-257.4c-3.1-5.3-6.7-10.4-10.8-15
			c-14-16.2-33.1-27.2-54.1-31.3c-0.3-0.1-0.6-0.1-0.9-0.2l0,0c-15.6-2.3-31.3-3.8-47.1-4.3c-4.3-1.9-9.4-1.2-13,1.8
			c-32,26.7-64.2,38.2-107.5,38.2c-44.2,0-77-10.4-106.4-33.6c-2.1-3.6-5.9-5.9-10-6.1c-115.2-6.6-155.4,70.4-158.9,77.8l-124,226.9
			c-15.3,28.3-8.9,63.5,15.3,84.6l23.1,20l-192.5,532c-2.4,6.5,1,13.7,7.5,16c1.4,0.5,2.8,0.7,4.3,0.7c0.4,0,0.8,0,1.2-0.1l264.9-25
			l42.7,130.6c12.3,38,52.6,59.3,91,48.2c38-10.9,60.6-50.6,51.2-90.3l-24.9-105.8c40.7,0,84.5,0,133,0.3l34.8,214.1
			c6.3,38.3,40.2,66.5,78.4,66.5c2,0,4-0.1,6-0.2c43.7-3.3,76.3-41.4,73-85.1l-14.4-188.3l334.8,35c0.4,0,0.9,0.1,1.3,0.1
			c6.9,0,12.5-5.6,12.5-12.5C1913,1805.8,1912.8,1804.4,1912.3,1802.9L1912.3,1802.9z M1487.7,886.3c14.9,0.5,29.8,1.8,44.6,4
			l0.4,0.1c13.8,2.8,26.5,9.6,36.4,19.6c-54.9,31.7-107.3,48.8-155.5,56l-7.1-42.7C1436.5,918.1,1462.6,906.1,1487.7,886.3z
			 M1338.6,924.5c10.1,1.2,20.3,1.9,30.5,1.9c4.3,0,8.3-0.2,12.4-0.5l7.2,43c-19.2,1.6-38.5,1.8-57.8,0.6L1338.6,924.5z
			 M1246.2,886.5c0.2,0.1,0.3,0.3,0.5,0.4c19.7,15.8,42.7,27.2,67.3,33.1l-8,47c-75.8-9.7-131.6-39.3-156-54.3
			C1170.3,898,1201.3,885,1246.2,886.5L1246.2,886.5z M1001.5,1232c-15.4-13.4-19.5-35.8-9.8-53.8l124.5-228
			c0.5-1,4.9-9.7,14.5-20.4c23.2,14.7,89.4,51.7,180.8,61.8c0.9,0.4,1.9,0.7,2.8,0.9c0.7,0.1,1.4,0.2,2.1,0.2
			c0.6-0.1,1.3-0.2,1.9-0.3c12.7,1.2,25.8,1.9,39.4,1.9c67.2,0,144.5-16.3,226.3-64l146.5,251.9c10.6,18.2,6.7,41.3-9.2,55
			l-149.9,129.7l-54.9-68.8l18.4-15.9l86.2-74.5c5.2-4.5,5.8-12.4,1.3-17.7c0,0,0,0,0,0l-74.2-85c-4.6-5.2-12.5-5.7-17.7-1.2
			c-2,1.8-3.4,4.1-4,6.8c-6.5,29.9-10.5,82.6-12.1,156.3l-27.2,23.5c-39.4,6.5-79.1,10.9-119,13.2c-3.1-15.9-16.9-27.4-33.1-27.4
			h-55.3c-14.4,0-27.2,9.2-31.8,22.9c-9.1-1.4-18.2-3.4-27.1-5.9c-0.1-5.2-0.2-10.3-0.3-15.5v-0.1c-3.2-94.5-14.4-160.2-17.8-178.1
			c-1.3-6.8-7.8-11.3-14.6-10c-2.7,0.5-5.2,1.9-7.1,4l-80.4,91.4c-4.6,5.2-4.1,13.1,1.1,17.7c0,0,0,0,0.1,0.1l93.9,81.2
			c0.2,5.4,0.3,10.9,0.4,16.3l-52.1,55.2L1001.5,1232z M1469.4,1397c-15.8-18.4-13.8-46.1,4.5-62l25.3-21.9l54.9,68.8l-22.6,19.5
			c-3,2.6-6.3,4.8-9.9,6.4h-0.1l0,0C1503.6,1416.4,1482.3,1411.9,1469.4,1397L1469.4,1397z M1539.9,1244.8
			c1.3-42.9,3.6-77.8,6.8-103.3l48.5,55.5L1539.9,1244.8z M1246.2,1339.8c-8.4-1.4-16.7-3.2-24.8-5.6c0-5,0-10.1,0-15.1
			c6.4,1.6,14.6,3.4,24.9,5c7.3,1.2,15.6,2.3,25,3.1v-17.5c0-3.1,1.6-5.9,4.3-7.4c1.3-0.8,2.9-1.3,4.4-1.3h55.3
			c2.6,0,5.1,1.2,6.8,3.3c1.3,1.5,2,3.4,1.9,5.3v19.8c7.9-0.3,16.3-0.5,25-1c24.7-1.3,52.6-3.8,83.8-7.9c-4.9,5.1-9,11-12.1,17.4
			c-26.5,3.3-50.4,5.4-71.8,6.5c-8.8,0.5-17.1,0.8-25,1v19.5c0,2.1-0.8,4.1-2.2,5.6c-1.6,1.9-4,3-6.5,3h-55.3
			c-4.7,0.1-8.6-3.7-8.7-8.5c0,0,0-0.1,0-0.1v-22C1261.6,1342.1,1253.3,1341,1246.2,1339.8L1246.2,1339.8z M1196.3,1344.6
			c-0.2,17.6-0.6,35-1.4,52.3l-1.1,1.3c-0.8-0.6-1.6-1.2-2.3-1.9l-29.3-25.4l34.2-36.2c0,2.2,0,4.5,0,6.7
			C1196.2,1342.5,1196.2,1343.6,1196.3,1344.6L1196.3,1344.6z M1194.3,1249.5l-66.6-57.6l54.7-62.2
			C1186.4,1155.6,1191.5,1196.9,1194.3,1249.5L1194.3,1249.5z M845.9,1792.9l182.5-504.4l146.6,126.7c0.8,0.7,1.7,1.3,2.6,1.9
			l-88.8,103.8l-16.2,18.9c-1.3,1.6-2.7,3.2-3.9,4.8c-3.1,4.1-5.9,8.4-8.5,12.8c-5.2,8.9-9.2,18.3-12.1,28.1
			c-5.7,19.6-6.6,40.2-2.6,60.2c0.4,2.4,1.1,4.8,1.8,7.9l38.1,116.6L845.9,1792.9z M1254.1,1888.9c6.2,26.3-9,53.5-33.8,60.6
			c-25.4,7.3-52.1-6.8-60.3-32l-51-155.9l108.4-28.9l8.1,34.5c0,0.2,0.1,0.5,0.2,0.7L1254.1,1888.9z M1247.7,1752.4l-26.5-112.8
			l109.2-107.6c4-3.9,10.4-3.9,14.3,0.1c1.5,1.5,2.5,3.4,2.8,5.5l35,215C1333.3,1752.4,1288.9,1752.3,1247.7,1752.4L1247.7,1752.4z
			 M1418.4,1817.7l-46.3-284.2c-3.1-19.1-21.1-32.1-40.3-29c-7.2,1.2-13.9,4.5-19.1,9.7l-84.5,83.3l-29.8,29.3
			c-3.1,3.1-4.3,7.5-3.3,11.7l16.4,69.9l-110.5,29.5l-24.1-73.7l-5.5-17.3c-0.5-1.8-0.9-3.7-1.3-5.8c-3.3-16.1-2.6-32.7,2-48.4
			c2.3-7.9,5.6-15.5,9.7-22.6c2.1-3.6,4.4-7.1,6.9-10.4c1-1.3,2-2.6,3.1-3.8l114.1-133.4l10.7-12.5c1.8-2.1,2.9-4.8,3-7.5
			c0.7-14,1.1-28.1,1.4-42.2c6.4,1.6,14.8,3.4,25.2,5.1c0.2,18.5,15.2,33.4,33.7,33.4h55.3c16.8,0,31-12.4,33.3-29
			c19.7-1,41.5-2.8,65.3-5.6c-2.6,37.7,25.9,70.4,63.6,73c5.8,0.4,11.6,0.1,17.3-1c0.5,23.6,0.9,38.4,1,38.9l25.5,333.9
			L1418.4,1817.7z M1540.9,2014.3c-9.3,11-22.7,17.7-37.1,18.8c-28,1.9-53-17.7-57.8-45.4l-23.6-145.2l120.6-8.8l10.8,141.1
			C1555,1989.2,1550.3,2003.4,1540.9,2014.3L1540.9,2014.3z M1562.5,1759.3l-21.8-285.8c0,0-0.6-18.4-1.1-47
			c2.9-1.8,5.6-3.9,8.2-6.1l151.9-131.5l182.3,503.7L1562.5,1759.3z"/>
		<path class="st3" d="M1196.4,1341.5c-0.1,1-0.2,2.1-0.1,3.1c-0.2,17.6-0.6,35-1.4,52.3l-1.1,1.3c-0.8-0.6-1.6-1.2-2.3-1.9
			l-29.3-25.3l34.2-36.2C1196.4,1337,1196.4,1339.3,1196.4,1341.5z"/>
		<circle class="st7" cx="440.1" cy="524.4" r="364.8"/>
		<path class="st8" d="M335.4,719.8l-2.3-0.2c-9.8-2.1-19.6-4.2-29.4-6.4c-12-2.7-23.1-7.9-34.9-11.1l0,0c-3.1-2.4-6.7-4-10.5-4.7
			l0,0c-1-1.9-3.2-1.9-4.8-3c-6.5-4.2-14.6-5.9-19.8-12.2c2.5,0,5,0,7.4-0.1c7-0.2,14.1,1.1,21-0.8c36.9-1.4,69.4-14.5,100.1-37
			c-9-1.9-16.6-2.6-24-5c-27.5-8.8-46.3-26.9-57.5-53.3c-2.5-5.8-2-6.2,4.3-5.2c10.5,1.8,20.7,0.9,32.3-1.9
			c-7.9-3.1-14.8-5.1-21.1-8.5c-30.1-16.3-46.3-41.5-48.7-75.7c-0.3-4.9,0.7-5.7,5.3-3.4c10.6,5.3,22.2,8.2,34.1,8.6
			c-5.5-4.9-10-8.8-14.2-13c-26.2-26.2-32-69.2-15.5-102.9c1.8-3.8,3-5.1,6.6-1c40.8,47.2,91.9,76.3,153.4,87.5
			c8.4,1.5,17,2,25.5,2.8c2.4,0.2,4.1,0,3.5-3.4c-4.9-27.2,1.5-51.7,18.3-73.6l18.6-17.8h0c11.8-6.7,24-12.2,37.3-15.1l5.8-0.5
			c28.4-1.7,53.4,6.2,73.8,26.6c1.3,1.3,2.8,2.2,4.5,0.5l2.3-0.2l1.7-0.7c0.2,0.1,0.5,0.1,0.7-0.1c4.1-0.3,8.1-1.5,11.7-3.4l2.3-0.5
			c5.8-1.6,11.5-3.4,16.7-6.6c6.5-2.1,12.1-6,19.2-9.2c-6.5,20.6-19.2,35.6-35.4,48.4c16.3-1.4,31.5-6,47.8-13
			c-8.6,13.8-17.7,25.1-29.1,33.6c-11.7,8.7-16.2,18.1-16.5,33.2c-1,48.4-15.8,93.2-41.9,134.1c-19.1,30.2-44.4,56-74.2,75.7
			c-17.1,11.3-35.7,19.8-54.9,26.8c-1.9,0.4-3.8,0.7-5.6,1.3c-21.1,6.7-43.1,10.6-65.3,11.5C367.6,721.6,351.5,721.2,335.4,719.8z"
			/>
		<path class="st9" d="M335.4,719.8c16.1,1.5,32.2,1.8,48.4,1.2c22.2-0.9,44.1-4.8,65.2-11.5c1.8-0.6,3.8-0.9,5.6-1.3
			c0.2,2.6-1.4,3-3.5,3.6c-11.7,3.3-23.5,5.9-35.5,7.8c-10.8,2.1-21.6,3.5-32.5,4.3c-5,0.3-10.4-1.3-15.6-0.6
			c-9,1.2-18.1,0.8-27-1.2C338.6,721.6,336.8,721.3,335.4,719.8z"/>
		<path class="st9" d="M604.3,390c-1.7,1.7-3.2,0.8-4.5-0.5c-20.4-20.5-45.4-28.4-73.7-26.7c6.9-4.2,14.4-1.7,21.6-1.9
			s13.7,5.1,21.3,2.4c1.7-0.6,3.3,1.5,4.5,3.1c2.3,3.2,5.5,5.6,9.3,6.8C591.8,376.4,598,383.3,604.3,390z"/>
		<path class="st9" d="M268.8,702.1c11.8,3.2,22.9,8.5,34.9,11.1c9.8,2.2,19.6,4.3,29.4,6.4c-5.3,3.3-10.7,0.6-15.6-0.5
			c-8.4-1.9-17.4-2.5-25.2-5.7C284.3,710.1,275.3,708.4,268.8,702.1z"/>
		<path class="st9" d="M520.2,363.4c-13.3,2.9-25.5,8.4-37.3,15.1c-0.3-1.2,0.2-2.4,1.1-3.1c10.5-6.3,20.9-13.1,33.8-13.4
			C518.8,361.9,519.7,362.5,520.2,363.4z"/>
		<path class="st9" d="M482.8,378.5l-18.6,17.8c-1.2-4.2,3.7-7.3,2-11.7c-0.1-0.3,1.6-2,1.9-1.9c4.9,2.1,7.5-0.9,10.3-4.1
			C479,377.9,481.3,378.5,482.8,378.5z"/>
		<path class="st9" d="M233.6,682.2c5.3,6.3,13.3,8,19.8,12.2c1.6,1,3.8,1,4.8,3c-5.2-0.3-10.2-2-14.5-5c-3.1-2.2-6.1-4.8-10.1-5.5
			c-3.6-0.7-4.6-2.6-2.4-5.8C231.5,682.1,232.6,682.6,233.6,682.2C233.6,682.3,233.7,682.3,233.6,682.2L233.6,682.2z"/>
		<path class="st9" d="M262.1,681.3c-6.9,2-14,0.6-21,0.8c-2.5,0.1-5,0.1-7.4,0.1l0,0V681c4-2.3,8.4-1.5,12.4-0.8
			C251.4,681,256.8,680.7,262.1,681.3z"/>
		<path class="st9" d="M639.7,378.5c-5.2,3.2-10.9,5-16.7,6.6C625.5,380.9,634.8,377.2,639.7,378.5z"/>
		<path class="st9" d="M620.7,385.6c-3.6,2-7.6,3.1-11.7,3.4c-0.1-5.8,5.5-3.7,8.2-5.7C618.7,382.2,620.5,383.3,620.7,385.6z"/>
		<path class="st9" d="M258.3,697.4c3.8,0.7,7.4,2.3,10.5,4.7C264.2,702.8,260,702.8,258.3,697.4z"/>
		<path class="st10" d="M233.7,681v1.2c-1,0.4-2.1-0.1-2.5-1.1c0,0,0,0,0-0.1L233.7,681z"/>
		<path class="st9" d="M608.3,389.1l-1.7,0.7L608.3,389.1z"/>
		<circle class="st11" cx="2282" cy="886.8" r="368.5"/>
		<path class="st12" d="M2316.4,993.9c0,32.4-0.3,64.9,0.2,97.3c0.1,9.4-3.3,12.2-12.3,12c-22.3-0.5-44.5-0.1-66.8-0.2
			c-12.1,0-12.5-0.3-12.5-12.2c0-63.6,0-127.2,0-190.8c0-14.4,0-14.3-14-13.7c-7.6,0.3-15.3,0-22.9,0.1c-5.6,0.1-7.6-2.3-7.5-8
			c0.3-19.7,0.3-39.4,0-59.1c-0.1-6.6,2.7-8.2,8.5-8.1c8.9,0.3,17.9-0.3,26.7,0.3c7.2,0.6,9.9-1.8,9.6-9
			c-0.9-18.7-0.6-37.5,0.8-56.2c3.7-43.8,35-73.7,78.9-74.8c22.2-0.6,44.5-0.5,66.7-1.2c8-0.3,11.4,1.8,11.1,10.6
			c-0.6,18.4-0.4,36.9-0.1,55.3c0.1,6.2-1.9,8.5-8.2,8.2c-10.5-0.4-21-0.3-31.5-0.1c-18.4,0.3-25.6,7.2-27.9,25.5
			c-1.4,11.1-0.1,22.2-0.8,33.3c-0.3,6.1,2.6,7.6,8,7.5c16.5-0.2,33.1,0.1,49.6-0.2c6.8-0.2,9.9,1.3,9.1,9
			c-2.3,20.2-4.1,40.5-5.8,60.7c-0.5,6.3-4.5,6.7-9.3,6.7c-13.7-0.1-27.4,0.3-41-0.2c-6.9-0.3-9.3,1.4-9.1,8.8
			c0.4,32.7,0.2,65.5,0.2,98.2L2316.4,993.9z"/>
		
			<linearGradient id="SVGID_1_" gradientUnits="userSpaceOnUse" x1="284.7299" y1="460.7197" x2="782.3102" y2="1322.5604" gradientTransform="matrix(1 0 0 -1 0 2734)">
			<stop  offset="0" style="stop-color:#FCB604"/>
			<stop  offset="0.45" style="stop-color:#D06A63"/>
			<stop  offset="1" style="stop-color:#960ADF"/>
		</linearGradient>
		<circle class="st13" cx="533.5" cy="1842.4" r="497.5"/>
		<path class="st8" d="M533.5,2155.9c-42.4,0-84.8,0-127.2,0c-23.5,0-46.5-3.6-68.5-12.1c-20-7.6-38.4-18.7-54.5-32.8
			c-15.7-13.6-29-29.7-39.3-47.7c-10.3-18-17.4-37.6-21-58.1c-2.1-12.5-3.1-25.2-3-37.8c0-85.6-0.2-171.3,0.1-256.9
			c0-25.9,5.7-51.4,16.6-74.9c8.4-18,19.6-34.6,33.2-49.1c15.4-16.5,33.7-30,54-39.8c18-8.6,36.9-14.5,56.8-16.3
			c10.5-1,21-1.6,31.6-1.6c84.6-0.1,169.1-0.3,253.7,0c25.5,0,50.6,5.6,73.7,16.3c18.2,8.4,35,19.7,49.6,33.5
			c16.5,15.3,29.9,33.6,39.7,53.9c8.8,18.2,14.7,37.3,16.4,57.4c0.9,10.3,1.6,20.6,1.6,30.9c0.1,84.1,0.1,168.3,0,252.4
			c0.1,26.4-5.7,52.5-17,76.4c-8.4,17.9-19.6,34.3-33.2,48.7c-14.9,15.9-32.6,29-52.1,38.6c-17.5,8.8-36.5,14.6-56,16.9
			c-10.5,1.2-21,1.8-31.6,1.8C615.9,2156,574.7,2155.9,533.5,2155.9z M269,1842.4c0,44.2,0,88.4,0.1,132.6c0.1,6.7,0.5,13.4,1.4,20
			c1.9,13.6,6.1,26.9,12.5,39.1c8.1,16.4,19.7,30.8,33.9,42.4c23.8,19.3,50.9,30.2,81.6,30.3c88.4,0.2,176.8,0.1,265.3,0.1
			c10.7,0.1,21.3-1,31.7-3.3c23.3-5.3,44.7-16.8,62-33.3c10.9-10.3,19.8-22.4,26.5-35.9c9.3-18.5,14.3-38,14.3-58.7
			c0-87.9,0-175.8,0.1-263.7c0.2-13.4-1.7-26.8-5.4-39.7c-6-20.3-16.8-38.9-31.5-54.2c-11.6-12.1-25.5-21.9-40.8-28.7
			c-16.3-7.3-33.3-11.7-51.3-11.7c-88.6,0-177.3,0-265.9-0.1c-13.3-0.1-26.6,1.7-39.4,5.3c-20.5,6-39.2,16.8-54.5,31.6
			c-11.6,11.2-21.1,24.4-27.9,39.1c-7.8,16.6-12.4,34-12.5,52.4C268.9,1751.6,269,1797,269,1842.4z"/>
		<path class="st8" d="M533.8,1673.9c91.9,0.3,165.6,73.6,168.1,163.2c2.7,97.3-74.1,171.1-162.7,173.7
			c-97.2,2.8-171.5-73.7-174.1-163C362.3,1749.8,441.3,1673.6,533.8,1673.9z M533.4,1962.9c66.5,0.2,120.5-53.6,120.7-120
			c0-0.1,0-0.2,0-0.3c0.1-66.6-53.6-120.7-119.7-120.8c-67.5-0.1-121.4,53.3-121.5,120.2c-0.4,66.5,53.2,120.6,119.7,121
			C532.9,1963,533.1,1963,533.4,1962.9L533.4,1962.9z"/>
		<path class="st8" d="M726,1673.6c-13.1,0-23.7-10.9-23.7-24.3c0-13,11-23.6,24.5-23.6c12.8,0,23.4,11,23.4,24.3
			C750.1,1662.9,739.2,1673.6,726,1673.6z"/>
		<circle class="st14" cx="1609.6" cy="289.4" r="271.9"/>
		<path class="st15" d="M1745.2,399.6c0,5.1-1.6,6.3-6.4,6.2c-14.6-0.3-29.3-0.3-43.9,0c-4.7,0.1-6-1.2-6-6c0.2-29.6,0.1-59.3,0-89
			c0.1-6.6-0.6-13.2-2.1-19.7c-3.1-12.7-10.5-19.6-22.4-21c-15.3-1.7-26.9,3.5-32.7,14.9c-4.9,9.6-5.4,20-5.4,30.5
			c-0.1,28.1-0.1,56.1,0.1,84.2c0,4.7-1.2,6.1-6,6c-15-0.3-30.1-0.2-45.1-0.1c-3.6,0-5.3-0.5-5.3-4.8c0.1-57.1,0.1-114.2,0-171.3
			c0-3.5,0.8-4.9,4.7-4.9c14.8,0.2,29.7,0.3,44.5,0c4.2-0.1,5.1,1.5,5,5.2c-0.2,5.9-0.1,11.9-0.1,19.5c22-28.5,54.8-36.9,86.5-23.3
			c14.2,6.1,23.1,16.9,28.2,31.1c5.4,15.1,6.4,30.9,6.5,46.8C1745.1,335.9,1745,367.8,1745.2,399.6z"/>
		<path class="st15" d="M1534.7,399.7c0,4.5-0.9,6.2-5.9,6.1c-15.2-0.3-30.4-0.2-45.7,0c-3.5,0-4.9-0.8-4.8-4.6
			c0.1-57.2,0.1-114.5,0-171.7c0-3.2,0.7-4.6,4.3-4.6c15.8,0.2,31.6,0.3,47.4,0c4.8-0.1,4.5,2.4,4.5,5.6c0,28.4,0,56.8,0,85.3
			C1534.6,343.7,1534.5,371.7,1534.7,399.7z"/>
		<path class="st15" d="M1539.1,167.8c-0.1,18-14.8,32.5-32.8,32.3s-32.5-14.8-32.3-32.8c0.1-17.8,14.6-32.2,32.4-32.3
			c18-0.1,32.6,14.3,32.7,32.3C1539.1,167.5,1539.1,167.6,1539.1,167.8z"/>
		<circle class="st16" cx="2541.8" cy="1888" r="216.6"/>
		<path class="st17" d="M2522.9,1933.8c-4,15.6-7.8,30.4-11.7,45.2c-5.8,21.7-17.7,40-31.1,57.6c-0.8,1.1-1.7,1.9-3.1,1.4
			c-1.6-0.5-1.6-2-1.8-3.4c-3.7-25.3-3.2-50.4,3.3-75.4c6.9-26.4,12.7-53.1,19-79.7c0.4-1.8,0.3-3.7-0.4-5.4
			c-5.6-15.7-6.5-31.6-0.1-47.3c3.4-8.4,8.8-15.3,17.1-19.4c16.8-8.3,33.6,1.4,35,20c0.6,8.2-1.2,16.1-3.4,23.8
			c-3.5,12.3-7.2,24.5-10.8,36.8c-3.3,11-2.4,21.3,6.6,29.5c9.4,8.6,20.6,9.2,32.1,5.3c10.8-3.7,18.4-11.5,24.5-20.8
			c9.8-15,14.4-31.8,16.5-49.3c1.4-11.7,2.1-23.5-0.5-35.2c-4.9-22.1-17.8-37.8-39.3-44.9c-31.6-10.4-61.7-7-87.6,15
			c-22.6,19.3-31.1,44.8-27,74.3c1.2,8.1,4.7,15.6,10.2,21.6c2.9,2.9,3.8,7.2,2.3,11c-1.2,3.7-1.9,7.4-2.9,11.2
			c-1.7,6.4-4.7,7.9-10.7,5.2c-14-6.3-23.1-17.3-27.9-31.4c-12.2-35.3-5.6-67.7,17-96.8c20.2-26,47.8-39.3,80-43.5
			c24.7-3.3,48.8-1,71.7,9.6c39.5,18.4,61.6,57,57.7,100.4c-2,22.4-7.2,43.9-19.3,63.1c-14.5,23.2-34.8,38.2-62.4,41.9
			c-12.9,1.7-25.3,0.5-36.9-5.7C2532.6,1945.2,2527,1940.1,2522.9,1933.8z"/>
		<g>
			<defs>
				<circle id="SVGID_2_" cx="1712" cy="2377.8" r="339.5"/>
			</defs>
			<clipPath id="SVGID_3_">
				<use xlink:href="#SVGID_2_"  style="overflow:visible;"/>
			</clipPath>
			<g class="st18">
				<path class="st19" d="M2064,2409.1c0-7.7-0.3-15.4-0.5-23.2c-39.2,13.3-84.8,9-113.8-18.9c-13-12.5-24.1-26.7-28.9-44.8
					c-1.1-4.1-1.3-9.1-7.2-9.8c-6,22.8-19.1,43.2-37.4,58.1c-23.5,19.4-52.3,26.6-80.9,20.4c-30.5-6.7-56.7-23.8-71.2-54.2
					c-1.5-3.2-4.7-5.6-7-8.3c-6.2-1.7-8.9,2.1-10.6,7c-5.2,14.9-15.6,25.8-26.5,36.7c-12.6,12.6-29.6,12.4-44.6,17.7
					c-5.7,2-12.2,2.1-18.4,2.4c-44.4,1.8-76-19.1-98.4-55.9c-3-4.9-4.2-11-5.5-16.6c-0.8-3.5-1.7-6.3-5.5-7.4
					c-7,5.8-5.3,15.1-9.2,22.5c-6.8,12.9-16.1,24.2-27.4,33.4c-1.2,1-2.3,1.9-3.5,2.8s-2.4,1.8-3.6,2.7c-5.6,4-11.4,7.7-17.4,11.1
					l0,0c-0.7,2.1-1.9,4-3.6,5.4c-0.3,0.2-0.6,0.4-0.9,0.7s-0.6,0.4-0.9,0.6c-2.8,1.4-5.9,2.3-9,2.6c-18.5,2.6-37.1,5.3-55.4-1.8
					c-2.3-0.9-5.1-0.2-7.7-0.2c0.4,3.1-0.6,6.1,2.9,8.8c48,37.5,88.7,82.9,131.7,125.6c20.5,20.4,42.1,39.8,62,60.8
					c21,22.2,42.6,44,63.8,66c14.7,15.2,29.3,30.4,43.7,45.8c4.7,5,9.4,10.2,12.9,16c5,8.3-1,9-7.4,9c-46.5,0-92.9,0-139.4,0h-30.7
					c0,0.6,0,1.3,0,1.9h201.7c-3.3,3.9-6.6,2.4-9.3,2.4c-94.4,0.1-188.8,0.1-283.2,0.1c-6.3,0-12.3,0.2-16.8-6
					c-4.7-6.5-11,1.5-16.5-0.8c0,0-0.7,0.8-0.7,0.8c9.6,9.8,21.9,10.9,34.7,10.9c195.4,0,390.9-0.3,586.3,0.4
					c31.6,0.1,59.1-21.8,59-59.4C2063.8,2586.1,2064,2497.6,2064,2409.1z M1924.7,2676.9c-47.8,8.4-94.6-18.1-113-63.6
					c-17.4-43.1-0.7-94.9,39.4-121.6c34-22.6,84.2-20.8,116.4,3.8c6,4.5,7.1,7.9,0.8,12.6c-2,1.7-3.8,3.5-5.5,5.4
					c-5,4.9-9.2,11.5-15.2,14.2c-7.1,3.2-12-5.1-18.2-7.8c-24.9-10.9-54.2-2.1-72.2,22.3c-16,21.7-13.7,55,5.2,75.5
					c25.5,27.7,69.9,26.9,90.9-1.7c1.8-2.8,3.5-5.6,4.9-8.6c3.6-6.6,2.8-10.1-5.9-9.9c-12.5,0.4-25.1-0.1-37.6,0.2
					c-5.7,0.1-7.5-1.8-7.8-7.6c-1.8-31.8-1.9-31.8,30-31.8h18.8c13.3,0,26.6,0.2,39.8,0c5.5-0.1,7.9,2,8.3,7.6
					C2008.4,2621.6,1980.9,2667,1924.7,2676.9L1924.7,2676.9z"/>
				<path class="st19" d="M1924.6,2676.9c-47.8,8.4-94.6-18.1-113-63.6c-17.4-43.1-0.7-94.9,39.4-121.6c34-22.6,84.2-20.8,116.4,3.8
					c6,4.5,7.1,7.9,0.8,12.6c-2,1.7-3.8,3.5-5.5,5.4c-5,4.9-9.2,11.5-15.2,14.2c-7.1,3.2-12-5.1-18.2-7.8
					c-24.9-10.9-54.2-2.1-72.2,22.3c-16,21.7-13.7,55,5.2,75.5c25.5,27.7,69.9,26.9,90.9-1.7c1.8-2.8,3.5-5.6,4.9-8.6
					c3.6-6.6,2.8-10.1-5.9-9.9c-12.5,0.4-25.1-0.1-37.6,0.2c-5.7,0.1-7.5-1.8-7.8-7.6c-1.8-31.8-1.9-31.8,30-31.8h18.8
					c13.3,0,26.6,0.2,39.8,0c5.5-0.1,7.9,2,8.3,7.6C2008.4,2621.6,1980.9,2667,1924.6,2676.9z"/>
				<path class="st20" d="M1825,2644.7c-47.8,8.4-94.7-18.1-113-63.6c-17.4-43.1-0.7-94.9,39.4-121.6c34-22.6,84.2-20.8,116.4,3.8
					c6,4.5,7.1,7.9,0.8,12.6c-1.9,1.7-3.8,3.5-5.5,5.4c-5,4.9-9.2,11.5-15.2,14.2c-7.1,3.2-12.1-5.1-18.2-7.8
					c-24.9-10.9-54.2-2.1-72.2,22.3c-16,21.7-13.7,55,5.2,75.5c25.5,27.7,69.9,26.9,90.9-1.7c1.8-2.8,3.5-5.6,4.9-8.6
					c3.6-6.6,2.8-10.1-5.9-9.9c-12.5,0.4-25.1-0.1-37.6,0.2c-5.7,0.1-7.5-1.8-7.8-7.6c-1.8-31.8-1.9-31.8,30-31.8h18.8
					c13.3,0,26.6,0.2,39.8,0c5.5-0.1,7.9,2,8.3,7.6C1908.8,2589.5,1881.3,2634.8,1825,2644.7z"/>
				<path class="st21" d="M1913.5,2312.4c-6,22.8-19.1,43.2-37.4,58.1c-23.5,19.4-52.3,26.6-80.9,20.4
					c-30.5-6.7-56.7-23.8-71.1-54.2c-1.5-3.2-4.7-5.6-7.1-8.3c-3.4-18.4-5.1-37.1-4.9-55.8c0.4-75.9,0.1-151.9,0.3-227.8
					c0-8.1-1.5-11.9-10.9-11.5c-18.8,0.8-37.7-0.8-56.4,0.5c-30.8,2.2-61.7,2.2-92.5,0.2c-5.3-0.4-10.6-0.4-11.5,8.7
					c-2.8,28.5-6.9,56.8-10.8,85.1c-8.3,61.5-17.5,122.8-22.8,184.6c-7,5.8-5.3,15.1-9.2,22.5c-11.8,22.7-30.3,37.8-51.9,50.1
					c-1.5,0.2-2.9,0.4-4.3,0.7c-24.4,6.9-48.6,10.8-72.6-1.5c-4.7-2.4-7.9-0.1-6.7,5.8c-0.1,4-0.3,8.1-0.3,12.1
					c0,88.8,0,177.7-0.1,266.5c0,4.8-0.7,9.5-1,14.2c-2.1-4.2-1.1-8.7-1.1-13.1c-0.1-91.9-0.2-183.7,0.2-275.6
					c0-9.2-2.9-14.4-10.5-19.6c-26.5-17.9-40.6-43.8-45-75.2c-1.1-7.9,1.8-15.3,3.9-22.6c16.2-57.7,30.5-115.9,45.8-173.8
					c3.5-13.4,4.3-27.5,11.2-40.1c11.6-21.1,28.9-31.3,53-31.3c110.3,0.2,220.6,0.2,330.9,0c86,0,171.9-0.2,257.9-0.3
					c13.1,0,25.7,1.4,34.7,12.8c-12.8-5.4-25.5-10.3-39.8-10.7c-36.3-0.9-72.7,2.4-109,0.1c-9.3-0.6-11.3,3.4-10.1,12
					c3.8,27.2,7,54.5,10.7,81.7c5.5,41.4,11.5,82.8,16.5,124.3C1912.9,2271.6,1919.2,2291.8,1913.5,2312.4z"/>
				<path class="st22" d="M1913.5,2312.4c5.7-20.7-0.6-40.9-3-61.1c-5-41.5-11-82.9-16.5-124.3c-3.6-27.2-6.8-54.5-10.7-81.7
					c-1.2-8.6,0.8-12.6,10.1-12c36.3,2.3,72.6-1,109-0.1c14.3,0.4,27,5.2,39.8,10.7l2.7,2.6c0,4.2,3,5.2,6.2,6.2l0.4,0.5
					c3.7,7.5,7.3,15,11,22.6l40.7,154.9c4.9,18.4,9.6,37,13.9,55.5c5.9,25.3-4.9,47.6-20.1,67.6c-7.3,9.7-16.5,17.9-27,24.1
					c-3.2,1.9-6.6,3.6-6.7,8c-39.2,13.3-84.8,9-113.8-18.9c-13-12.5-24.1-26.7-28.9-44.8C1919.6,2318.2,1919.4,2313.1,1913.5,2312.4
					z"/>
				<path class="st19" d="M1361.4,2682.8c0.4-4.7,1-9.5,1-14.2c0.1-88.8,0.1-177.7,0.1-266.5c0-4.1,0.2-8.1,0.3-12.1
					c1.7-0.2,3.4,0.6,4.2,2.1c-3.2,2.4-2.4,6-2.4,9.2c0,92.9,0,185.8,0,278.7c-0.2,12.7,5.4,24.8,15.1,32.9c3.2,2.7,5,5.1,4.8,9.1
					l-0.7,0.8C1369,2713.7,1362.2,2699.9,1361.4,2682.8z"/>
				<path class="st21" d="M2062.6,2075.9c-3.7-7.5-7.3-15-11-22.6C2059.9,2058.6,2061.6,2067.1,2062.6,2075.9z"/>
				<path class="st21" d="M2051.1,2052.8c-3.2-0.9-6.3-2-6.2-6.2C2048.7,2046.9,2050.4,2049.4,2051.1,2052.8z"/>
				<path class="st22" d="M1507.6,2312.4c5.3-61.8,14.4-123.2,22.8-184.6c3.8-28.3,8-56.7,10.8-85.1c0.9-9.1,6.2-9.1,11.5-8.7
					c30.8,2,61.7,2,92.5-0.2c18.7-1.2,37.6,0.3,56.4-0.5c9.4-0.4,10.9,3.4,10.9,11.5c-0.2,75.9,0,151.9-0.3,227.8
					c-0.2,18.7,1.5,37.4,4.9,55.8c-6.2-1.7-8.9,2.1-10.6,7c-5.2,14.9-15.5,25.8-26.5,36.7c-12.6,12.6-29.5,12.4-44.5,17.7
					c-5.7,2-12.2,2.1-18.4,2.4c-44.4,1.8-76-19.1-98.4-55.9c-3-4.9-4.2-11-5.5-16.6C1512.2,2316.3,1511.3,2313.4,1507.6,2312.4z"/>
				<path class="st23" d="M1384.7,2721.9c0.1-4-1.7-6.4-4.8-9.1c-9.7-8.1-15.3-20.2-15.1-32.9c-0.1-92.9-0.1-185.8,0-278.7
					c0-3.2-0.8-6.8,2.4-9.2c0.7,0.1,1.3,0.1,2,0.2c0.4,3.1-0.6,6.1,2.9,8.8c48,37.5,88.7,82.9,131.7,125.6
					c20.5,20.4,42.1,39.7,62,60.8c21,22.2,42.6,44,63.8,66c14.7,15.2,29.3,30.4,43.7,45.8c4.7,5,9.4,10.2,12.9,16c5,8.3-1,9-7.4,9
					c-46.5,0-92.9,0-139.4,0h-30.7c0,0.6,0,1.3,0,1.9h201.7c-3.3,3.9-6.6,2.4-9.3,2.4c-94.4,0.1-188.8,0.1-283.2,0.1
					c-6.3,0-12.3,0.2-16.8-5.9C1396.4,2716.2,1390.1,2724.3,1384.7,2721.9z M1431.4,2724.7c0.2,0.4,0.3,0.7,0.5,1.1h30v-1.1H1431.4z
					"/>
				<path class="st19" d="M1369.1,2392.2c-0.7-0.1-1.3-0.1-2-0.2c-0.9-1.5-2.5-2.3-4.2-2.1c-1.1-5.9,2-8.2,6.7-5.8
					c24.1,12.3,48.3,8.4,72.6,1.5c1.4-0.3,2.9-0.6,4.3-0.7c-2.3,7-8.6,8.4-14.4,9.3c-18.5,2.6-37.1,5.3-55.4-1.8
					C1374.5,2391.6,1371.6,2392.2,1369.1,2392.2z"/>
				<path class="st19" d="M1431.4,2724.7h30.4v1.1h-30C1431.7,2725.5,1431.5,2725.1,1431.4,2724.7z"/>
			</g>
		</g>
		<circle class="st24" cx="1712" cy="2377.8" r="339.5"/>
	</g>
</g>
</svg>
