<svg xmlns="http://www.w3.org/2000/svg" viewBox="0 0 520.14 426.75"><defs><style>.cls-1{fill:#f0f8ff;}</style></defs><title>twitter</title><g id="Layer_2" data-name="Layer 2"><g id="Layer_1-2" data-name="Layer 1"><path class="cls-1" d="M176.61,426.75h-27c-5-.49-9.92-1-14.89-1.45A302.6,302.6,0,0,1,2.83,381.59c-1-.6-1.89-1.35-2.83-2,57.76,4.5,109.61-9.93,155.48-45.3-22.42-1.71-42.8-8.45-60.74-21.86a106.8,106.8,0,0,1-38-52.5c8.38.39,15.94,1.08,23.48,1s15.27-1,22.66-3.86c-24.4-6.25-44.77-18.63-60.49-38.2S18.84,176.72,18.6,150.52c15.45,7.8,30.69,12.54,47.24,12.59-22.33-16.59-37.41-37.9-43.58-65S20,45.19,33.74,20.21C92.3,88.77,165.64,126.35,255.65,132.58c-.27-2.36-.42-3.69-.58-5-.59-5.09-1.5-10.16-1.73-15.26A107.51,107.51,0,0,1,336.68,2.94C342,1.72,347.46,1,352.86,0h15.75a21,21,0,0,0,2.89.7c25.32,2.6,47,12.93,65.14,30.71a6.77,6.77,0,0,0,7,1.92A218.39,218.39,0,0,0,503,10.82c1.13-.64,2.31-1.2,3.46-1.79C498.71,33.87,483.4,52.67,462.11,67c20.19-2,39.24-7.49,58-14.68a12.56,12.56,0,0,1-2,4,214.6,214.6,0,0,1-46.5,47.48c-2.37,1.76-3.13,3.67-3.17,6.6-.2,12.85.08,25.78-1.23,38.54C461.4,206,441.75,258,407.8,304.24c-51.71,70.38-121.36,110.27-208.11,120.29C192,425.42,184.3,426,176.61,426.75Z"/></g></g></svg>