<svg xmlns="http://www.w3.org/2000/svg" xmlns:xlink="http://www.w3.org/1999/xlink" viewBox="0 0 1966.85 870"><defs><style>.cls-1{fill:none;}.cls-2{fill:#241029;}.cls-3{clip-path:url(#clip-path);}.cls-4{fill:url(#linear-gradient);}</style><clipPath id="clip-path"><path class="cls-1" d="M867.08,93.48C1131.9,180,1431.39,277.86,1936,127V890H17V131C376.1-66.95,603.91,7.48,867.08,93.48Z"/></clipPath><linearGradient id="linear-gradient" y1="726.98" x2="1966.85" y2="726.98" gradientUnits="userSpaceOnUse"><stop offset="0" stop-color="#f9ff00"/><stop offset="0.2" stop-color="#55ec35"/><stop offset="0.37" stop-color="#00d957"/><stop offset="0.49" stop-color="#00c666"/><stop offset="0.61" stop-color="#00c269"/><stop offset="0.71" stop-color="#019c85"/><stop offset="0.82" stop-color="#0166ad"/><stop offset="1" stop-color="#0200f9"/></linearGradient></defs><title>wavy-hd-bg3</title><g id="Layer_2" data-name="Layer 2"><g id="Layer_1-2" data-name="Layer 1"><path class="cls-2" d="M867.08,730.64C1131.9,651.83,1431.39,562.75,1936,700.16V5.32H17V696.48C376.1,876.74,603.91,809,867.08,730.64Z"/><rect class="cls-1" x="12.71" width="1926" height="870"/><g class="cls-3"><path class="cls-4" d="M867.53,744.83c260-75.69,552.58-160.85,1029.29-46.8q34.53,5.18,69.66,11.65h.14l.08-.45v0h0l.14-.47-.56-.16c-522.88-149.45-828.88-58.38-1098.87,22C600.17,810.06,369.37,878.75.65,688.27h0l-.23.43h0L0,689q13.17,18.82,27,35.53C376.4,887.8,604.74,821.32,867.53,744.83Z"/></g></g></g></svg>