<svg xmlns="http://www.w3.org/2000/svg" xmlns:xlink="http://www.w3.org/1999/xlink" viewBox="0 0 2005.98 1700.33"><defs><style>.cls-1,.cls-10,.cls-11,.cls-12,.cls-13,.cls-14,.cls-15,.cls-16,.cls-17,.cls-18,.cls-19,.cls-20,.cls-21,.cls-22,.cls-23,.cls-24,.cls-25,.cls-26,.cls-27,.cls-28,.cls-29,.cls-30,.cls-31,.cls-32,.cls-33,.cls-34,.cls-35,.cls-36,.cls-37,.cls-38,.cls-39,.cls-40,.cls-41,.cls-42,.cls-43,.cls-44,.cls-45,.cls-46,.cls-47,.cls-48,.cls-49,.cls-50,.cls-51,.cls-52,.cls-53,.cls-54,.cls-55,.cls-56,.cls-57,.cls-58,.cls-59,.cls-60,.cls-61,.cls-62,.cls-63,.cls-64,.cls-65,.cls-66,.cls-67,.cls-68,.cls-69,.cls-70,.cls-71,.cls-72,.cls-73,.cls-74,.cls-75,.cls-76,.cls-77,.cls-78,.cls-79,.cls-8,.cls-80,.cls-81,.cls-82,.cls-83,.cls-84,.cls-85,.cls-86,.cls-9{fill:none;}.cls-2{isolation:isolate;}.cls-3{fill:#241029;}.cls-4{clip-path:url(#clip-path);}.cls-5{fill:url(#linear-gradient);}.cls-6{opacity:0.72;}.cls-6,.cls-7{mix-blend-mode:multiply;}.cls-8{stroke:#999;}.cls-10,.cls-11,.cls-12,.cls-14,.cls-15,.cls-16,.cls-17,.cls-18,.cls-19,.cls-20,.cls-21,.cls-22,.cls-23,.cls-24,.cls-25,.cls-26,.cls-27,.cls-28,.cls-29,.cls-30,.cls-31,.cls-32,.cls-33,.cls-34,.cls-35,.cls-36,.cls-37,.cls-38,.cls-39,.cls-40,.cls-41,.cls-42,.cls-43,.cls-44,.cls-45,.cls-46,.cls-47,.cls-48,.cls-49,.cls-50,.cls-51,.cls-52,.cls-53,.cls-54,.cls-55,.cls-56,.cls-57,.cls-58,.cls-59,.cls-60,.cls-61,.cls-62,.cls-63,.cls-64,.cls-65,.cls-66,.cls-67,.cls-68,.cls-69,.cls-70,.cls-71,.cls-72,.cls-73,.cls-74,.cls-75,.cls-76,.cls-77,.cls-78,.cls-79,.cls-8,.cls-80,.cls-81,.cls-82,.cls-83,.cls-84,.cls-85,.cls-86,.cls-9{stroke-miterlimit:10;}.cls-9{stroke:#b3b3b3;opacity:0.99;}.cls-10{stroke:#b4b4b4;opacity:0.97;}.cls-11{stroke:#b5b5b5;opacity:0.96;}.cls-12{stroke:#b6b6b6;opacity:0.95;}.cls-13{stroke:#b7b7b7;stroke-miterlimit:10;opacity:0.94;}.cls-14{stroke:#b8b8b8;opacity:0.92;}.cls-15{stroke:#b9b9b9;opacity:0.91;}.cls-16{stroke:#bababa;opacity:0.9;}.cls-17{stroke:#bbb;opacity:0.88;}.cls-18{stroke:#bcbcbc;opacity:0.87;}.cls-19{stroke:#bdbdbd;opacity:0.86;}.cls-20{stroke:#bebebe;opacity:0.85;}.cls-21{stroke:#bfbfbf;opacity:0.83;}.cls-22{stroke:silver;opacity:0.82;}.cls-23{stroke:#c1c1c1;opacity:0.81;}.cls-24{stroke:#c2c2c2;opacity:0.79;}.cls-25{stroke:#c3c3c3;opacity:0.78;}.cls-26{stroke:#c4c4c4;opacity:0.77;}.cls-27{stroke:#c5c5c5;opacity:0.76;}.cls-28{stroke:#c6c6c6;opacity:0.74;}.cls-29{stroke:#c7c7c7;opacity:0.73;}.cls-30{stroke:#c8c8c8;opacity:0.72;}.cls-31{stroke:#c9c9c9;opacity:0.71;}.cls-32{stroke:#cacaca;opacity:0.69;}.cls-33{stroke:#cbcbcb;opacity:0.68;}.cls-34{stroke:#ccc;opacity:0.67;}.cls-35{stroke:#cdcdcd;opacity:0.65;}.cls-36{stroke:#cecece;opacity:0.64;}.cls-37{stroke:#cfcfcf;opacity:0.63;}.cls-38{stroke:#d0d0d0;opacity:0.62;}.cls-39{stroke:#d1d1d1;opacity:0.6;}.cls-40{stroke:#d2d2d2;opacity:0.59;}.cls-41{stroke:#d3d3d3;opacity:0.58;}.cls-42{stroke:#d4d4d4;opacity:0.56;}.cls-43{stroke:#d5d5d5;opacity:0.55;}.cls-44{stroke:#d6d6d6;opacity:0.54;}.cls-45{stroke:#d7d7d6;opacity:0.53;}.cls-46{stroke:#d8d8d7;opacity:0.51;}.cls-47{stroke:#d9d9d8;opacity:0.5;}.cls-48{stroke:#dadad9;opacity:0.49;}.cls-49{stroke:#dbdbda;opacity:0.47;}.cls-50{stroke:#dcdcdb;opacity:0.46;}.cls-51{stroke:#dddddc;opacity:0.45;}.cls-52{stroke:#dededd;opacity:0.44;}.cls-53{stroke:#dfdfde;opacity:0.42;}.cls-54{stroke:#e0e0df;opacity:0.41;}.cls-55{stroke:#e1e0e0;opacity:0.4;}.cls-56{stroke:#e2e1e1;opacity:0.38;}.cls-57{stroke:#e3e2e2;opacity:0.37;}.cls-58{stroke:#e4e3e3;opacity:0.36;}.cls-59{stroke:#e4e4e4;opacity:0.35;}.cls-60{stroke:#e5e5e5;opacity:0.33;}.cls-61{stroke:#e6e6e6;opacity:0.32;}.cls-62{stroke:#e7e7e7;opacity:0.31;}.cls-63{stroke:#e8e8e8;opacity:0.29;}.cls-64{stroke:#e9e9e9;opacity:0.28;}.cls-65{stroke:#eaeaea;opacity:0.27;}.cls-66{stroke:#ebebeb;opacity:0.26;}.cls-67{stroke:#ececec;opacity:0.24;}.cls-68{stroke:#ededed;opacity:0.23;}.cls-69{stroke:#eee;opacity:0.22;}.cls-70{stroke:#efefef;opacity:0.21;}.cls-71{stroke:#f0f0f0;opacity:0.19;}.cls-72{stroke:#f1f1f1;opacity:0.18;}.cls-73{stroke:#f2f2f2;opacity:0.17;}.cls-74{stroke:#f3f3f3;opacity:0.15;}.cls-75{stroke:#f4f4f4;opacity:0.14;}.cls-76{stroke:#f5f5f5;opacity:0.13;}.cls-77{stroke:#f6f6f6;opacity:0.12;}.cls-78{stroke:#f7f7f7;opacity:0.1;}.cls-79{stroke:#f8f8f8;opacity:0.09;}.cls-80{stroke:#f9f9f9;opacity:0.08;}.cls-81{stroke:#fafafa;opacity:0.06;}.cls-82{stroke:#fbfbfb;opacity:0.05;}.cls-83{stroke:#fcfcfc;opacity:0.04;}.cls-84{stroke:#fdfdfd;opacity:0.03;}.cls-85{stroke:#fefefe;opacity:0.01;}.cls-86{stroke:#fff;opacity:0;}</style><clipPath id="clip-path"><path class="cls-1" d="M883.86,913.94c264.83,92.23,564.31,196.46,1068.92,35.67v813.07H33.74V953.92C392.89,743,620.69,822.3,883.86,913.94Z"/></clipPath><linearGradient id="linear-gradient" x1="16.79" y1="1564.55" x2="1983.64" y2="1564.55" gradientUnits="userSpaceOnUse"><stop offset="0" stop-color="#f9ff00"/><stop offset="0.2" stop-color="#55ec35"/><stop offset="0.37" stop-color="#00d957"/><stop offset="0.49" stop-color="#00c666"/><stop offset="0.61" stop-color="#00c269"/><stop offset="0.71" stop-color="#019c85"/><stop offset="0.82" stop-color="#0166ad"/><stop offset="1" stop-color="#0200f9"/></linearGradient></defs><title>wavy-hd-bg2</title><g class="cls-2"><g id="Layer_2" data-name="Layer 2"><g id="Layer_1-2" data-name="Layer 1"><path class="cls-3" d="M883.86,1545.33c264.83-78.82,564.31-167.9,1068.92-30.49V0H33.74V1511.16C392.89,1691.42,620.69,1623.64,883.86,1545.33Z"/><rect class="cls-1" x="29.5" y="814.68" width="1926" height="870"/><g class="cls-4"><path class="cls-5" d="M1983.64,1523.41l-.14.47h0v0l-.08.45h-.14c-471.56-87.09-859.18,8.12-1170.65,84.62-167.21,41.07-313,76.89-439.39,76.89q-12.48,0-24.7-.48c-69.78-2.73-129.22-17.34-181.71-44.67-57.32-29.83-106.39-74.66-150-137l.39-.28h0l.23-.43h0c368.72,190.48,599.52,121.79,866.77,42.26,270-80.34,576-171.41,1098.87-22Z"/><g class="cls-6"><g class="cls-7"><path class="cls-8" d="M.41,1518.61c750.5,380.6,944.45-278.19,2005.43,18.57"/><path class="cls-9" d="M.41,1518.61c745.22,381.87,944.88-276.76,2005.43,18.57"/><path class="cls-10" d="M.41,1518.61c739.93,383.15,945.31-275.33,2005.43,18.57"/><path class="cls-11" d="M.41,1518.61c734.65,384.42,945.74-273.9,2005.43,18.57"/><path class="cls-12" d="M.41,1518.61c729.36,385.69,946.17-272.47,2005.43,18.57"/><path class="cls-13" d="M.41,1518.61c724.08,387,946.6-271,2005.43,18.57"/><path class="cls-14" d="M.41,1518.61c718.79,388.24,947-269.6,2005.43,18.57"/><path class="cls-15" d="M.41,1518.61c713.51,389.51,947.45-268.17,2005.43,18.57"/><path class="cls-16" d="M.41,1518.61c708.23,390.79,947.88-266.74,2005.43,18.57"/><path class="cls-17" d="M.41,1518.61c702.94,392.06,948.31-265.3,2005.43,18.57"/><path class="cls-18" d="M.41,1518.61c697.66,393.33,948.74-263.87,2005.43,18.57"/><path class="cls-19" d="M.41,1518.61c692.37,394.61,949.17-262.44,2005.43,18.57"/><path class="cls-20" d="M.41,1518.61c687.09,395.88,949.6-261,2005.43,18.57"/><path class="cls-21" d="M.41,1518.61c681.8,397.16,950-259.58,2005.43,18.57"/><path class="cls-22" d="M.41,1518.61c676.52,398.43,950.46-258.14,2005.43,18.57"/><path class="cls-23" d="M.41,1518.61c671.23,399.7,950.89-256.71,2005.43,18.57"/><path class="cls-24" d="M.41,1518.61c666,401,951.32-255.28,2005.43,18.57"/><path class="cls-25" d="M.41,1518.61c660.66,402.25,951.75-253.85,2005.43,18.57"/><path class="cls-26" d="M.41,1518.61c655.38,403.52,952.18-252.42,2005.43,18.57"/><path class="cls-27" d="M.41,1518.61c650.09,404.8,952.61-251,2005.43,18.57"/><path class="cls-28" d="M.41,1518.61c644.81,406.07,953-249.55,2005.43,18.57"/><path class="cls-29" d="M.41,1518.61c639.52,407.34,953.47-248.12,2005.43,18.57"/><path class="cls-30" d="M.41,1518.61c634.24,408.62,953.89-246.69,2005.43,18.57"/><path class="cls-31" d="M.41,1518.61c629,409.89,954.32-245.26,2005.43,18.57"/><path class="cls-32" d="M.41,1518.61c623.67,411.17,954.75-243.82,2005.43,18.57"/><path class="cls-33" d="M.41,1518.61c618.38,412.44,955.18-242.39,2005.43,18.57"/><path class="cls-34" d="M.41,1518.61c613.1,413.71,955.61-241,2005.43,18.57"/><path class="cls-35" d="M.41,1518.61c607.82,415,956-239.53,2005.43,18.57"/><path class="cls-36" d="M.41,1518.61c602.53,416.26,956.47-238.09,2005.43,18.57"/><path class="cls-37" d="M.41,1518.61c597.25,417.53,956.9-236.66,2005.43,18.57"/><path class="cls-38" d="M.41,1518.61c592,418.81,957.33-235.23,2005.43,18.57"/><path class="cls-39" d="M.41,1518.61c586.68,420.08,957.76-233.8,2005.43,18.57"/><path class="cls-40" d="M.41,1518.61C581.8,1940,958.6,1286.24,2005.84,1537.18"/><path class="cls-41" d="M.41,1518.61c576.11,422.63,958.62-230.93,2005.43,18.57"/><path class="cls-42" d="M.41,1518.61c570.82,423.9,959.05-229.5,2005.43,18.57"/><path class="cls-43" d="M.41,1518.61c565.54,425.18,959.48-228.07,2005.43,18.57"/><path class="cls-44" d="M.41,1518.61c560.25,426.45,959.91-226.64,2005.43,18.57"/><path class="cls-45" d="M.41,1518.61c555,427.72,960.34-225.21,2005.43,18.57"/><path class="cls-46" d="M.41,1518.61c549.68,429,960.76-223.77,2005.43,18.57"/><path class="cls-47" d="M.41,1518.61c544.4,430.27,961.19-222.34,2005.43,18.57"/><path class="cls-48" d="M.41,1518.61C539.52,1950.15,962,1297.7,2005.84,1537.18"/><path class="cls-49" d="M.41,1518.61c533.83,432.82,962.05-219.48,2005.43,18.57"/><path class="cls-50" d="M.41,1518.61c528.54,434.09,962.48-218,2005.43,18.57"/><path class="cls-51" d="M.41,1518.61C523.67,1954,963.32,1302,2005.84,1537.18"/><path class="cls-52" d="M.41,1518.61c518,436.64,963.34-215.18,2005.43,18.57"/><path class="cls-53" d="M.41,1518.61c512.69,437.91,963.77-213.75,2005.43,18.57"/><path class="cls-54" d="M.41,1518.61c507.41,439.19,964.2-212.32,2005.43,18.57"/><path class="cls-55" d="M.41,1518.61c502.12,440.46,964.63-210.88,2005.43,18.57"/><path class="cls-56" d="M.41,1518.61c496.84,441.73,965.06-209.45,2005.43,18.57"/><path class="cls-57" d="M.41,1518.61c491.55,443,965.49-208,2005.43,18.57"/><path class="cls-58" d="M.41,1518.61c486.27,444.28,965.92-206.59,2005.43,18.57"/><path class="cls-59" d="M.41,1518.61c481,445.55,966.35-205.16,2005.43,18.57"/><path class="cls-60" d="M.41,1518.61c475.7,446.83,966.78-203.72,2005.43,18.57"/><path class="cls-61" d="M.41,1518.61c470.41,448.1,967.2-202.29,2005.43,18.57"/><path class="cls-62" d="M.41,1518.61C465.54,1968,968,1317.75,2005.84,1537.18"/><path class="cls-63" d="M.41,1518.61c459.84,450.65,968.06-199.43,2005.43,18.57"/><path class="cls-64" d="M.41,1518.61c454.56,451.92,968.49-198,2005.43,18.57"/><path class="cls-65" d="M.41,1518.61c449.27,453.2,968.92-196.56,2005.43,18.57"/><path class="cls-66" d="M.41,1518.61c444,454.47,969.35-195.13,2005.43,18.57"/><path class="cls-67" d="M.41,1518.61c438.7,455.74,969.78-193.7,2005.43,18.57"/><path class="cls-68" d="M.41,1518.61c433.42,457,970.21-192.27,2005.43,18.57"/><path class="cls-69" d="M.41,1518.61c428.13,458.29,970.64-190.83,2005.43,18.57"/><path class="cls-70" d="M.41,1518.61c422.85,459.56,971.07-189.4,2005.43,18.57"/><path class="cls-71" d="M.41,1518.61c417.56,460.84,971.5-188,2005.43,18.57"/><path class="cls-72" d="M.41,1518.61c412.28,462.11,971.93-186.54,2005.43,18.57"/><path class="cls-73" d="M.41,1518.61c407,463.38,972.36-185.11,2005.43,18.57"/><path class="cls-74" d="M.41,1518.61c401.71,464.66,972.79-183.67,2005.43,18.57"/><path class="cls-75" d="M.41,1518.61c396.43,465.93,973.22-182.24,2005.43,18.57"/><path class="cls-76" d="M.41,1518.61c391.14,467.21,973.64-180.81,2005.43,18.57"/><path class="cls-77" d="M.41,1518.61c385.86,468.48,974.07-179.38,2005.43,18.57"/><path class="cls-78" d="M.41,1518.61c380.57,469.75,974.5-177.95,2005.43,18.57"/><path class="cls-79" d="M.41,1518.61c375.29,471,974.93-176.51,2005.43,18.57"/><path class="cls-80" d="M.41,1518.61c370,472.3,975.36-175.08,2005.43,18.57"/><path class="cls-81" d="M.41,1518.61C365.13,1992.18,976.2,1345,2005.84,1537.18"/><path class="cls-82" d="M.41,1518.61c359.43,474.85,976.22-172.22,2005.43,18.57"/><path class="cls-83" d="M.41,1518.61c354.15,476.12,976.65-170.79,2005.43,18.57"/><path class="cls-84" d="M.41,1518.61c348.86,477.39,977.08-169.35,2005.43,18.57"/><path class="cls-85" d="M.41,1518.61c343.58,478.67,977.51-167.92,2005.43,18.57"/><path class="cls-86" d="M.41,1518.61c338.29,479.94,977.94-166.49,2005.43,18.57"/></g></g></g></g></g></g></svg>