<svg xmlns="http://www.w3.org/2000/svg" viewBox="0 0 1966.85 242.56"><defs><style>.cls-1{isolation:isolate;}.cls-2{opacity:0.7;}.cls-2,.cls-3{mix-blend-mode:multiply;}.cls-10,.cls-11,.cls-12,.cls-13,.cls-14,.cls-15,.cls-16,.cls-17,.cls-18,.cls-19,.cls-20,.cls-21,.cls-22,.cls-23,.cls-24,.cls-25,.cls-26,.cls-27,.cls-28,.cls-29,.cls-30,.cls-31,.cls-32,.cls-33,.cls-34,.cls-35,.cls-36,.cls-37,.cls-38,.cls-39,.cls-4,.cls-40,.cls-41,.cls-42,.cls-43,.cls-44,.cls-45,.cls-46,.cls-47,.cls-48,.cls-49,.cls-5,.cls-50,.cls-51,.cls-52,.cls-53,.cls-54,.cls-55,.cls-56,.cls-57,.cls-58,.cls-59,.cls-6,.cls-60,.cls-61,.cls-62,.cls-63,.cls-64,.cls-65,.cls-66,.cls-67,.cls-68,.cls-69,.cls-7,.cls-70,.cls-71,.cls-72,.cls-73,.cls-74,.cls-75,.cls-76,.cls-77,.cls-78,.cls-79,.cls-8,.cls-80,.cls-81,.cls-82,.cls-9{fill:none;}.cls-4{stroke:#999;}.cls-10,.cls-11,.cls-12,.cls-13,.cls-14,.cls-15,.cls-16,.cls-17,.cls-18,.cls-19,.cls-20,.cls-21,.cls-22,.cls-23,.cls-24,.cls-25,.cls-26,.cls-27,.cls-28,.cls-29,.cls-30,.cls-31,.cls-32,.cls-33,.cls-34,.cls-35,.cls-36,.cls-37,.cls-38,.cls-39,.cls-4,.cls-40,.cls-41,.cls-42,.cls-43,.cls-44,.cls-45,.cls-46,.cls-47,.cls-48,.cls-49,.cls-5,.cls-50,.cls-51,.cls-52,.cls-53,.cls-54,.cls-55,.cls-56,.cls-57,.cls-58,.cls-59,.cls-6,.cls-60,.cls-61,.cls-62,.cls-63,.cls-64,.cls-65,.cls-66,.cls-67,.cls-68,.cls-69,.cls-7,.cls-70,.cls-71,.cls-72,.cls-73,.cls-74,.cls-75,.cls-76,.cls-77,.cls-78,.cls-79,.cls-8,.cls-80,.cls-81,.cls-82{stroke-miterlimit:10;}.cls-5{stroke:#b3b3b3;opacity:0.99;}.cls-6{stroke:#b4b4b4;opacity:0.97;}.cls-7{stroke:#b5b5b5;opacity:0.96;}.cls-8{stroke:#b6b6b6;opacity:0.95;}.cls-9{stroke:#b7b7b7;stroke-miterlimit:10;opacity:0.94;}.cls-10{stroke:#b8b8b8;opacity:0.92;}.cls-11{stroke:#b9b9b9;opacity:0.91;}.cls-12{stroke:#bababa;opacity:0.9;}.cls-13{stroke:#bbb;opacity:0.88;}.cls-14{stroke:#bcbcbc;opacity:0.87;}.cls-15{stroke:#bdbdbd;opacity:0.86;}.cls-16{stroke:#bebebe;opacity:0.85;}.cls-17{stroke:#bfbfbf;opacity:0.83;}.cls-18{stroke:silver;opacity:0.82;}.cls-19{stroke:#c1c1c1;opacity:0.81;}.cls-20{stroke:#c2c2c2;opacity:0.79;}.cls-21{stroke:#c3c3c3;opacity:0.78;}.cls-22{stroke:#c4c4c4;opacity:0.77;}.cls-23{stroke:#c5c5c5;opacity:0.76;}.cls-24{stroke:#c6c6c6;opacity:0.74;}.cls-25{stroke:#c7c7c7;opacity:0.73;}.cls-26{stroke:#c8c8c8;opacity:0.72;}.cls-27{stroke:#c9c9c9;opacity:0.71;}.cls-28{stroke:#cacaca;opacity:0.69;}.cls-29{stroke:#cbcbcb;opacity:0.68;}.cls-30{stroke:#ccc;opacity:0.67;}.cls-31{stroke:#cdcdcd;opacity:0.65;}.cls-32{stroke:#cecece;opacity:0.64;}.cls-33{stroke:#cfcfcf;opacity:0.63;}.cls-34{stroke:#d0d0d0;opacity:0.62;}.cls-35{stroke:#d1d1d1;opacity:0.6;}.cls-36{stroke:#d2d2d2;opacity:0.59;}.cls-37{stroke:#d3d3d3;opacity:0.58;}.cls-38{stroke:#d4d4d4;opacity:0.56;}.cls-39{stroke:#d5d5d5;opacity:0.55;}.cls-40{stroke:#d6d6d6;opacity:0.54;}.cls-41{stroke:#d7d7d6;opacity:0.53;}.cls-42{stroke:#d8d8d7;opacity:0.51;}.cls-43{stroke:#d9d9d8;opacity:0.5;}.cls-44{stroke:#dadad9;opacity:0.49;}.cls-45{stroke:#dbdbda;opacity:0.47;}.cls-46{stroke:#dcdcdb;opacity:0.46;}.cls-47{stroke:#dddddc;opacity:0.45;}.cls-48{stroke:#dededd;opacity:0.44;}.cls-49{stroke:#dfdfde;opacity:0.42;}.cls-50{stroke:#e0e0df;opacity:0.41;}.cls-51{stroke:#e1e0e0;opacity:0.4;}.cls-52{stroke:#e2e1e1;opacity:0.38;}.cls-53{stroke:#e3e2e2;opacity:0.37;}.cls-54{stroke:#e4e3e3;opacity:0.36;}.cls-55{stroke:#e4e4e4;opacity:0.35;}.cls-56{stroke:#e5e5e5;opacity:0.33;}.cls-57{stroke:#e6e6e6;opacity:0.32;}.cls-58{stroke:#e7e7e7;opacity:0.31;}.cls-59{stroke:#e8e8e8;opacity:0.29;}.cls-60{stroke:#e9e9e9;opacity:0.28;}.cls-61{stroke:#eaeaea;opacity:0.27;}.cls-62{stroke:#ebebeb;opacity:0.26;}.cls-63{stroke:#ececec;opacity:0.24;}.cls-64{stroke:#ededed;opacity:0.23;}.cls-65{stroke:#eee;opacity:0.22;}.cls-66{stroke:#efefef;opacity:0.21;}.cls-67{stroke:#f0f0f0;opacity:0.19;}.cls-68{stroke:#f1f1f1;opacity:0.18;}.cls-69{stroke:#f2f2f2;opacity:0.17;}.cls-70{stroke:#f3f3f3;opacity:0.15;}.cls-71{stroke:#f4f4f4;opacity:0.14;}.cls-72{stroke:#f5f5f5;opacity:0.13;}.cls-73{stroke:#f6f6f6;opacity:0.12;}.cls-74{stroke:#f7f7f7;opacity:0.1;}.cls-75{stroke:#f8f8f8;opacity:0.09;}.cls-76{stroke:#f9f9f9;opacity:0.08;}.cls-77{stroke:#fafafa;opacity:0.06;}.cls-78{stroke:#fbfbfb;opacity:0.05;}.cls-79{stroke:#fcfcfc;opacity:0.04;}.cls-80{stroke:#fdfdfd;opacity:0.03;}.cls-81{stroke:#fefefe;opacity:0.01;}.cls-82{stroke:#fff;opacity:0;}</style></defs><title>wavy-divider</title><g class="cls-1"><g id="Layer_2" data-name="Layer 2"><g id="Layer_1-2" data-name="Layer 1"><g class="cls-2"><g class="cls-3"><path class="cls-4" d="M.41,60.08c739.82,382.19,923-277.95,1966.3,20.5"/><path class="cls-5" d="M.41,60.08c734.66,383.46,923.41-276.52,1966.3,20.5"/><path class="cls-6" d="M.41,60.08C729.9,444.81,924.26-215,1966.71,80.58"/><path class="cls-7" d="M.41,60.08c724.32,386,924.29-273.65,1966.3,20.5"/><path class="cls-8" d="M.41,60.08c719.15,387.28,924.72-272.21,1966.3,20.5"/><path class="cls-9" d="M.41,60.08c714,388.55,925.16-270.77,1966.3,20.5"/><path class="cls-10" d="M.41,60.08C709.23,449.9,926-209.26,1966.71,80.58"/><path class="cls-11" d="M.41,60.08c703.65,391.09,926-267.9,1966.3,20.5"/><path class="cls-12" d="M.41,60.08c698.48,392.36,926.47-266.47,1966.3,20.5"/><path class="cls-13" d="M.41,60.08c693.32,393.64,926.9-265,1966.3,20.5"/><path class="cls-14" d="M.41,60.08C688.56,455,927.75-203.52,1966.71,80.58"/><path class="cls-15" d="M.41,60.08c683,396.18,927.77-262.16,1966.3,20.5"/><path class="cls-16" d="M.41,60.08c677.81,397.45,928.21-260.72,1966.3,20.5"/><path class="cls-17" d="M.41,60.08c672.65,398.72,928.65-259.29,1966.3,20.5"/><path class="cls-18" d="M.41,60.08c667.48,400,929.08-257.85,1966.3,20.5"/><path class="cls-19" d="M.41,60.08c662.31,401.27,929.52-256.42,1966.3,20.5"/><path class="cls-20" d="M.41,60.08c657.14,402.54,930-255,1966.3,20.5"/><path class="cls-21" d="M.41,60.08c652,403.81,930.39-253.54,1966.3,20.5"/><path class="cls-22" d="M.41,60.08C647.22,465.16,931.24-192,1966.71,80.58"/><path class="cls-23" d="M.41,60.08c641.64,406.35,931.26-250.67,1966.3,20.5"/><path class="cls-24" d="M.41,60.08c636.47,407.62,931.7-249.24,1966.3,20.5"/><path class="cls-25" d="M.41,60.08C631.72,469,932.55-187.72,1966.71,80.58"/><path class="cls-26" d="M.41,60.08C626.55,470.25,933-186.29,1966.71,80.58"/><path class="cls-27" d="M.41,60.08c621,411.44,933-244.93,1966.3,20.5"/><path class="cls-28" d="M.41,60.08c615.8,412.71,933.44-243.49,1966.3,20.5"/><path class="cls-29" d="M.41,60.08c610.64,414,933.88-242.06,1966.3,20.5"/><path class="cls-30" d="M.41,60.08c605.47,415.25,934.32-240.62,1966.3,20.5"/><path class="cls-31" d="M.41,60.08c600.3,416.52,934.75-239.19,1966.3,20.5"/><path class="cls-32" d="M.41,60.08c595.13,417.8,935.19-237.75,1966.3,20.5"/><path class="cls-33" d="M.41,60.08c590,419.07,935.62-236.31,1966.3,20.5"/><path class="cls-34" d="M.41,60.08c584.8,420.34,936.06-234.88,1966.3,20.5"/><path class="cls-35" d="M.41,60.08C580,481.69,936.91-173.36,1966.71,80.58"/><path class="cls-36" d="M.41,60.08c574.46,422.88,936.93-232,1966.3,20.5"/><path class="cls-37" d="M.41,60.08c569.29,424.15,937.37-230.57,1966.3,20.5"/><path class="cls-38" d="M.41,60.08c564.13,425.43,937.8-229.14,1966.3,20.5"/><path class="cls-39" d="M.41,60.08c559,426.7,938.24-227.7,1966.3,20.5"/><path class="cls-40" d="M.41,60.08c553.79,428,938.68-226.26,1966.3,20.5"/><path class="cls-41" d="M.41,60.08C549,489.32,939.52-164.75,1966.71,80.58"/><path class="cls-42" d="M.41,60.08C543.87,490.59,940-163.31,1966.71,80.58"/><path class="cls-43" d="M.41,60.08c538.29,431.78,940-222,1966.3,20.5"/><path class="cls-44" d="M.41,60.08c533.12,433.06,940.42-220.52,1966.3,20.5"/><path class="cls-45" d="M.41,60.08c528,434.33,940.86-219.08,1966.3,20.5"/><path class="cls-46" d="M.41,60.08c522.79,435.6,941.29-217.65,1966.3,20.5"/><path class="cls-47" d="M.41,60.08C518,497,942.14-156.13,1966.71,80.58"/><path class="cls-48" d="M.41,60.08c512.45,438.14,942.17-214.78,1966.3,20.5"/><path class="cls-49" d="M.41,60.08C507.69,499.49,943-153.26,1966.71,80.58"/><path class="cls-50" d="M.41,60.08c502.12,440.69,943-211.9,1966.3,20.5"/><path class="cls-51" d="M.41,60.08c497,442,943.47-210.47,1966.3,20.5"/><path class="cls-52" d="M.41,60.08c491.78,443.23,943.91-209,1966.3,20.5"/><path class="cls-53" d="M.41,60.08c486.61,444.5,944.35-207.6,1966.3,20.5"/><path class="cls-54" d="M.41,60.08c481.45,445.77,944.78-206.16,1966.3,20.5"/><path class="cls-55" d="M.41,60.08c476.28,447,945.22-204.73,1966.3,20.5"/><path class="cls-56" d="M.41,60.08c471.11,448.32,945.66-203.29,1966.3,20.5"/><path class="cls-57" d="M.41,60.08c465.94,449.59,946.09-201.85,1966.3,20.5"/><path class="cls-58" d="M.41,60.08c460.78,450.86,946.53-200.42,1966.3,20.5"/><path class="cls-59" d="M.41,60.08c455.61,452.13,947-199,1966.3,20.5"/><path class="cls-60" d="M.41,60.08c450.44,453.4,947.4-197.55,1966.3,20.5"/><path class="cls-61" d="M.41,60.08C445.68,514.75,948.25-136,1966.71,80.58"/><path class="cls-62" d="M.41,60.08c440.1,456,948.27-194.67,1966.3,20.5"/><path class="cls-63" d="M.41,60.08c434.94,457.22,948.71-193.24,1966.3,20.5"/><path class="cls-64" d="M.41,60.08c429.77,458.49,949.14-191.8,1966.3,20.5"/><path class="cls-65" d="M.41,60.08C425,519.84,950-130.29,1966.71,80.58"/><path class="cls-66" d="M.41,60.08c419.43,461,950-188.93,1966.3,20.5"/><path class="cls-67" d="M.41,60.08c414.27,462.3,950.45-187.5,1966.3,20.5"/><path class="cls-68" d="M.41,60.08C409.51,523.65,951.3-126,1966.71,80.58"/><path class="cls-69" d="M.41,60.08c403.93,464.85,951.32-184.62,1966.3,20.5"/><path class="cls-70" d="M.41,60.08c398.76,466.12,951.76-183.19,1966.3,20.5"/><path class="cls-71" d="M.41,60.08c393.6,467.39,952.2-181.75,1966.3,20.5"/><path class="cls-72" d="M.41,60.08C388.84,528.74,953-120.24,1966.71,80.58"/><path class="cls-73" d="M.41,60.08C383.67,530,953.48-118.8,1966.71,80.58"/><path class="cls-74" d="M.41,60.08c378.09,471.2,953.51-177.44,1966.3,20.5"/><path class="cls-75" d="M.41,60.08c372.93,472.48,953.94-176,1966.3,20.5"/><path class="cls-76" d="M.41,60.08c367.76,473.75,954.38-174.57,1966.3,20.5"/><path class="cls-77" d="M.41,60.08c362.59,475,954.81-173.14,1966.3,20.5"/><path class="cls-78" d="M.41,60.08c357.42,476.29,955.25-171.7,1966.3,20.5"/><path class="cls-79" d="M.41,60.08c352.26,477.56,955.69-170.27,1966.3,20.5"/><path class="cls-80" d="M.41,60.08c347.09,478.83,956.12-168.83,1966.3,20.5"/><path class="cls-81" d="M.41,60.08C342.33,540.19,957-107.31,1966.71,80.58"/><path class="cls-82" d="M.41,60.08c336.75,481.38,957-166,1966.3,20.5"/></g></g></g></g></g></svg>