<?xml version="1.0" encoding="utf-8"?>
<!-- Generator: Adobe Illustrator 23.0.2, SVG Export Plug-In . SVG Version: 6.00 Build 0)  -->
<svg version="1.1" id="Layer_1" xmlns="http://www.w3.org/2000/svg" xmlns:xlink="http://www.w3.org/1999/xlink" x="0px" y="0px"
	 viewBox="0 0 2006 1700.3" style="enable-background:new 0 0 2006 1700.3;" xml:space="preserve">
<style type="text/css">
	.st0{fill:#241029;}
	.st1{fill:none;}
	.st2{clip-path:url(#SVGID_2_);}
	.st3{fill:url(#SVGID_3_);}
	.st4{opacity:0.72;}
	.st5{fill:none;stroke:#999999;stroke-miterlimit:10;}
	.st6{opacity:0.99;fill:none;stroke:#B3B3B3;stroke-miterlimit:10;enable-background:new    ;}
	.st7{opacity:0.97;fill:none;stroke:#B4B4B4;stroke-miterlimit:10;enable-background:new    ;}
	.st8{opacity:0.96;fill:none;stroke:#B5B5B5;stroke-miterlimit:10;enable-background:new    ;}
	.st9{opacity:0.95;fill:none;stroke:#B6B6B6;stroke-miterlimit:10;enable-background:new    ;}
	.st10{opacity:0.94;fill:none;stroke:#B7B7B7;stroke-miterlimit:10;enable-background:new    ;}
	.st11{opacity:0.92;fill:none;stroke:#B8B8B8;stroke-miterlimit:10;enable-background:new    ;}
	.st12{opacity:0.91;fill:none;stroke:#B9B9B9;stroke-miterlimit:10;enable-background:new    ;}
	.st13{opacity:0.9;fill:none;stroke:#BABABA;stroke-miterlimit:10;enable-background:new    ;}
	.st14{opacity:0.88;fill:none;stroke:#BBBBBB;stroke-miterlimit:10;enable-background:new    ;}
	.st15{opacity:0.87;fill:none;stroke:#BCBCBC;stroke-miterlimit:10;enable-background:new    ;}
	.st16{opacity:0.86;fill:none;stroke:#BDBDBD;stroke-miterlimit:10;enable-background:new    ;}
	.st17{opacity:0.85;fill:none;stroke:#BEBEBE;stroke-miterlimit:10;enable-background:new    ;}
	.st18{opacity:0.83;fill:none;stroke:#BFBFBF;stroke-miterlimit:10;enable-background:new    ;}
	.st19{opacity:0.82;fill:none;stroke:#C0C0C0;stroke-miterlimit:10;enable-background:new    ;}
	.st20{opacity:0.81;fill:none;stroke:#C1C1C1;stroke-miterlimit:10;enable-background:new    ;}
	.st21{opacity:0.79;fill:none;stroke:#C2C2C2;stroke-miterlimit:10;enable-background:new    ;}
	.st22{opacity:0.78;fill:none;stroke:#C3C3C3;stroke-miterlimit:10;enable-background:new    ;}
	.st23{opacity:0.77;fill:none;stroke:#C4C4C4;stroke-miterlimit:10;enable-background:new    ;}
	.st24{opacity:0.76;fill:none;stroke:#C5C5C5;stroke-miterlimit:10;enable-background:new    ;}
	.st25{opacity:0.74;fill:none;stroke:#C6C6C6;stroke-miterlimit:10;enable-background:new    ;}
	.st26{opacity:0.73;fill:none;stroke:#C7C7C7;stroke-miterlimit:10;enable-background:new    ;}
	.st27{opacity:0.72;fill:none;stroke:#C8C8C8;stroke-miterlimit:10;enable-background:new    ;}
	.st28{opacity:0.71;fill:none;stroke:#C9C9C9;stroke-miterlimit:10;enable-background:new    ;}
	.st29{opacity:0.69;fill:none;stroke:#CACACA;stroke-miterlimit:10;enable-background:new    ;}
	.st30{opacity:0.68;fill:none;stroke:#CBCBCB;stroke-miterlimit:10;enable-background:new    ;}
	.st31{opacity:0.67;fill:none;stroke:#CCCCCC;stroke-miterlimit:10;enable-background:new    ;}
	.st32{opacity:0.65;fill:none;stroke:#CDCDCD;stroke-miterlimit:10;enable-background:new    ;}
	.st33{opacity:0.64;fill:none;stroke:#CECECE;stroke-miterlimit:10;enable-background:new    ;}
	.st34{opacity:0.63;fill:none;stroke:#CFCFCF;stroke-miterlimit:10;enable-background:new    ;}
	.st35{opacity:0.62;fill:none;stroke:#D0D0D0;stroke-miterlimit:10;enable-background:new    ;}
	.st36{opacity:0.6;fill:none;stroke:#D1D1D1;stroke-miterlimit:10;enable-background:new    ;}
	.st37{opacity:0.59;fill:none;stroke:#D2D2D2;stroke-miterlimit:10;enable-background:new    ;}
	.st38{opacity:0.58;fill:none;stroke:#D3D3D3;stroke-miterlimit:10;enable-background:new    ;}
	.st39{opacity:0.56;fill:none;stroke:#D4D4D4;stroke-miterlimit:10;enable-background:new    ;}
	.st40{opacity:0.55;fill:none;stroke:#D5D5D5;stroke-miterlimit:10;enable-background:new    ;}
	.st41{opacity:0.54;fill:none;stroke:#D6D6D6;stroke-miterlimit:10;enable-background:new    ;}
	.st42{opacity:0.53;fill:none;stroke:#D7D7D6;stroke-miterlimit:10;enable-background:new    ;}
	.st43{opacity:0.51;fill:none;stroke:#D8D8D7;stroke-miterlimit:10;enable-background:new    ;}
	.st44{opacity:0.5;fill:none;stroke:#D9D9D8;stroke-miterlimit:10;enable-background:new    ;}
	.st45{opacity:0.49;fill:none;stroke:#DADAD9;stroke-miterlimit:10;enable-background:new    ;}
	.st46{opacity:0.47;fill:none;stroke:#DBDBDA;stroke-miterlimit:10;enable-background:new    ;}
	.st47{opacity:0.46;fill:none;stroke:#DCDCDB;stroke-miterlimit:10;enable-background:new    ;}
	.st48{opacity:0.45;fill:none;stroke:#DDDDDC;stroke-miterlimit:10;enable-background:new    ;}
	.st49{opacity:0.44;fill:none;stroke:#DEDEDD;stroke-miterlimit:10;enable-background:new    ;}
	.st50{opacity:0.42;fill:none;stroke:#DFDFDE;stroke-miterlimit:10;enable-background:new    ;}
	.st51{opacity:0.41;fill:none;stroke:#E0E0DF;stroke-miterlimit:10;enable-background:new    ;}
	.st52{opacity:0.4;fill:none;stroke:#E1E0E0;stroke-miterlimit:10;enable-background:new    ;}
	.st53{opacity:0.38;fill:none;stroke:#E2E1E1;stroke-miterlimit:10;enable-background:new    ;}
	.st54{opacity:0.37;fill:none;stroke:#E3E2E2;stroke-miterlimit:10;enable-background:new    ;}
	.st55{opacity:0.36;fill:none;stroke:#E4E3E3;stroke-miterlimit:10;enable-background:new    ;}
	.st56{opacity:0.35;fill:none;stroke:#E4E4E4;stroke-miterlimit:10;enable-background:new    ;}
	.st57{opacity:0.33;fill:none;stroke:#E5E5E5;stroke-miterlimit:10;enable-background:new    ;}
	.st58{opacity:0.32;fill:none;stroke:#E6E6E6;stroke-miterlimit:10;enable-background:new    ;}
	.st59{opacity:0.31;fill:none;stroke:#E7E7E7;stroke-miterlimit:10;enable-background:new    ;}
	.st60{opacity:0.29;fill:none;stroke:#E8E8E8;stroke-miterlimit:10;enable-background:new    ;}
	.st61{opacity:0.28;fill:none;stroke:#E9E9E9;stroke-miterlimit:10;enable-background:new    ;}
	.st62{opacity:0.27;fill:none;stroke:#EAEAEA;stroke-miterlimit:10;enable-background:new    ;}
	.st63{opacity:0.26;fill:none;stroke:#EBEBEB;stroke-miterlimit:10;enable-background:new    ;}
	.st64{opacity:0.24;fill:none;stroke:#ECECEC;stroke-miterlimit:10;enable-background:new    ;}
	.st65{opacity:0.23;fill:none;stroke:#EDEDED;stroke-miterlimit:10;enable-background:new    ;}
	.st66{opacity:0.22;fill:none;stroke:#EEEEEE;stroke-miterlimit:10;enable-background:new    ;}
	.st67{opacity:0.21;fill:none;stroke:#EFEFEF;stroke-miterlimit:10;enable-background:new    ;}
	.st68{opacity:0.19;fill:none;stroke:#F0F0F0;stroke-miterlimit:10;enable-background:new    ;}
	.st69{opacity:0.18;fill:none;stroke:#F1F1F1;stroke-miterlimit:10;enable-background:new    ;}
	.st70{opacity:0.17;fill:none;stroke:#F2F2F2;stroke-miterlimit:10;enable-background:new    ;}
	.st71{opacity:0.15;fill:none;stroke:#F3F3F3;stroke-miterlimit:10;enable-background:new    ;}
	.st72{opacity:0.14;fill:none;stroke:#F4F4F4;stroke-miterlimit:10;enable-background:new    ;}
	.st73{opacity:0.13;fill:none;stroke:#F5F5F5;stroke-miterlimit:10;enable-background:new    ;}
	.st74{opacity:0.12;fill:none;stroke:#F6F6F6;stroke-miterlimit:10;enable-background:new    ;}
	.st75{opacity:0.1;fill:none;stroke:#F7F7F7;stroke-miterlimit:10;enable-background:new    ;}
	.st76{opacity:9.000000e-02;fill:none;stroke:#F8F8F8;stroke-miterlimit:10;enable-background:new    ;}
	.st77{opacity:8.000000e-02;fill:none;stroke:#F9F9F9;stroke-miterlimit:10;enable-background:new    ;}
	.st78{opacity:6.000000e-02;fill:none;stroke:#FAFAFA;stroke-miterlimit:10;enable-background:new    ;}
	.st79{opacity:5.000000e-02;fill:none;stroke:#FBFBFB;stroke-miterlimit:10;enable-background:new    ;}
	.st80{opacity:4.000000e-02;fill:none;stroke:#FCFCFC;stroke-miterlimit:10;enable-background:new    ;}
	.st81{opacity:3.000000e-02;fill:none;stroke:#FDFDFD;stroke-miterlimit:10;enable-background:new    ;}
	.st82{opacity:1.000000e-02;fill:none;stroke:#FEFEFE;stroke-miterlimit:10;enable-background:new    ;}
	.st83{fill:none;stroke:#FFFFFF;stroke-miterlimit:10;stroke-opacity:0;}
</style>
<title>wavy-hd-bg2</title>
<g>
	<g>
		<g id="Layer_1-2">
			<path class="st0" d="M883.9,1545.3c264.8-78.8,564.3-167.9,1068.9-30.5V0H33.7v1511.2C392.9,1691.4,620.7,1623.6,883.9,1545.3z"
				/>
			<rect x="29.5" y="814.7" class="st1" width="1926" height="870"/>
			<g>
				<defs>
					<path id="SVGID_1_" d="M883.9,913.9c264.8,92.2,564.3,196.5,1068.9,35.7v813.1H33.7V953.9C392.9,743,620.7,822.3,883.9,913.9z"
						/>
				</defs>
				<clipPath id="SVGID_2_">
					<use xlink:href="#SVGID_1_"  style="overflow:visible;"/>
				</clipPath>
				<g class="st2">
					
						<linearGradient id="SVGID_3_" gradientUnits="userSpaceOnUse" x1="16.83" y1="135.4502" x2="1983.64" y2="135.4502" gradientTransform="matrix(1 0 0 -1 0 1700)">
						<stop  offset="0" style="stop-color:#F9FF00"/>
						<stop  offset="0.2" style="stop-color:#55EC35"/>
						<stop  offset="0.37" style="stop-color:#00D957"/>
						<stop  offset="0.49" style="stop-color:#00C666"/>
						<stop  offset="0.61" style="stop-color:#00C269"/>
						<stop  offset="0.71" style="stop-color:#019C85"/>
						<stop  offset="0.82" style="stop-color:#0166AD"/>
						<stop  offset="1" style="stop-color:#0200F9"/>
					</linearGradient>
					<path class="st3" d="M1983.6,1523.4l-0.1,0.5l0,0l0,0l-0.1,0.4h-0.1c-471.6-87.1-859.2,8.1-1170.7,84.6
						c-167.2,41.1-313,76.9-439.4,76.9c-8.3,0-16.6-0.2-24.7-0.5c-69.8-2.7-129.2-17.3-181.7-44.7c-57.3-29.8-106.4-74.7-150-137
						l0.4-0.3l0,0l0.2-0.4l0,0c368.7,190.5,599.5,121.8,866.8,42.3c270-80.3,576-171.4,1098.9-22L1983.6,1523.4z"/>
					<g class="st4">
						<g>
							<path class="st5" d="M0.4,1518.6c750.5,380.6,944.5-278.2,2005.4,18.6"/>
							<path class="st6" d="M0.4,1518.6c745.2,381.9,944.9-276.8,2005.4,18.6"/>
							<path class="st7" d="M0.4,1518.6c739.9,383.2,945.3-275.3,2005.4,18.6"/>
							<path class="st8" d="M0.4,1518.6c734.7,384.4,945.7-273.9,2005.4,18.6"/>
							<path class="st9" d="M0.4,1518.6c729.4,385.7,946.2-272.5,2005.4,18.6"/>
							<path class="st10" d="M0.4,1518.6c724.1,387,946.6-271,2005.4,18.6"/>
							<path class="st11" d="M0.4,1518.6c718.8,388.2,947-269.6,2005.4,18.6"/>
							<path class="st12" d="M0.4,1518.6c713.5,389.5,947.5-268.2,2005.4,18.6"/>
							<path class="st13" d="M0.4,1518.6c708.2,390.8,947.9-266.7,2005.4,18.6"/>
							<path class="st14" d="M0.4,1518.6c702.9,392.1,948.3-265.3,2005.4,18.6"/>
							<path class="st15" d="M0.4,1518.6c697.7,393.3,948.7-263.9,2005.4,18.6"/>
							<path class="st16" d="M0.4,1518.6c692.4,394.6,949.2-262.4,2005.4,18.6"/>
							<path class="st17" d="M0.4,1518.6c687.1,395.9,949.6-261,2005.4,18.6"/>
							<path class="st18" d="M0.4,1518.6c681.8,397.2,950-259.6,2005.4,18.6"/>
							<path class="st19" d="M0.4,1518.6c676.5,398.4,950.5-258.1,2005.4,18.6"/>
							<path class="st20" d="M0.4,1518.6c671.2,399.7,950.9-256.7,2005.4,18.6"/>
							<path class="st21" d="M0.4,1518.6c666,401,951.3-255.3,2005.4,18.6"/>
							<path class="st22" d="M0.4,1518.6c660.7,402.3,951.8-253.8,2005.4,18.6"/>
							<path class="st23" d="M0.4,1518.6c655.4,403.5,952.2-252.4,2005.4,18.6"/>
							<path class="st24" d="M0.4,1518.6c650.1,404.8,952.6-251,2005.4,18.6"/>
							<path class="st25" d="M0.4,1518.6c644.8,406.1,953-249.6,2005.4,18.6"/>
							<path class="st26" d="M0.4,1518.6c639.5,407.3,953.5-248.1,2005.4,18.6"/>
							<path class="st27" d="M0.4,1518.6c634.2,408.6,953.9-246.7,2005.4,18.6"/>
							<path class="st28" d="M0.4,1518.6c629,409.9,954.3-245.3,2005.4,18.6"/>
							<path class="st29" d="M0.4,1518.6c623.7,411.2,954.8-243.8,2005.4,18.6"/>
							<path class="st30" d="M0.4,1518.6c618.4,412.4,955.2-242.4,2005.4,18.6"/>
							<path class="st31" d="M0.4,1518.6c613.1,413.7,955.6-241,2005.4,18.6"/>
							<path class="st32" d="M0.4,1518.6c607.8,415,956-239.5,2005.4,18.6"/>
							<path class="st33" d="M0.4,1518.6c602.5,416.3,956.5-238.1,2005.4,18.6"/>
							<path class="st34" d="M0.4,1518.6c597.3,417.5,956.9-236.7,2005.4,18.6"/>
							<path class="st35" d="M0.4,1518.6c592,418.8,957.3-235.2,2005.4,18.6"/>
							<path class="st36" d="M0.4,1518.6c586.7,420.1,957.8-233.8,2005.4,18.6"/>
							<path class="st37" d="M0.4,1518.6c581.4,421.4,958.2-232.4,2005.4,18.6"/>
							<path class="st38" d="M0.4,1518.6c576.1,422.6,958.6-230.9,2005.4,18.6"/>
							<path class="st39" d="M0.4,1518.6c570.8,423.9,959-229.5,2005.4,18.6"/>
							<path class="st40" d="M0.4,1518.6c565.5,425.2,959.5-228.1,2005.4,18.6"/>
							<path class="st41" d="M0.4,1518.6c560.3,426.5,959.9-226.6,2005.4,18.6"/>
							<path class="st42" d="M0.4,1518.6c555,427.7,960.3-225.2,2005.4,18.6"/>
							<path class="st43" d="M0.4,1518.6c549.7,429,960.8-223.8,2005.4,18.6"/>
							<path class="st44" d="M0.4,1518.6c544.4,430.3,961.2-222.3,2005.4,18.6"/>
							<path class="st45" d="M0.4,1518.6c539.1,431.5,961.6-220.9,2005.4,18.6"/>
							<path class="st46" d="M0.4,1518.6c533.8,432.8,962-219.5,2005.4,18.6"/>
							<path class="st47" d="M0.4,1518.6c528.5,434.1,962.5-218,2005.4,18.6"/>
							<path class="st48" d="M0.4,1518.6c523.3,435.4,962.9-216.6,2005.4,18.6"/>
							<path class="st49" d="M0.4,1518.6c518,436.6,963.3-215.2,2005.4,18.6"/>
							<path class="st50" d="M0.4,1518.6c512.7,437.9,963.8-213.8,2005.4,18.6"/>
							<path class="st51" d="M0.4,1518.6c507.4,439.2,964.2-212.3,2005.4,18.6"/>
							<path class="st52" d="M0.4,1518.6c502.1,440.5,964.6-210.9,2005.4,18.6"/>
							<path class="st53" d="M0.4,1518.6c496.8,441.7,965.1-209.4,2005.4,18.6"/>
							<path class="st54" d="M0.4,1518.6c491.5,443,965.5-208,2005.4,18.6"/>
							<path class="st55" d="M0.4,1518.6c486.3,444.3,965.9-206.6,2005.4,18.6"/>
							<path class="st56" d="M0.4,1518.6c481,445.5,966.3-205.2,2005.4,18.6"/>
							<path class="st57" d="M0.4,1518.6c475.7,446.8,966.8-203.7,2005.4,18.6"/>
							<path class="st58" d="M0.4,1518.6c470.4,448.1,967.2-202.3,2005.4,18.6"/>
							<path class="st59" d="M0.4,1518.6c465.1,449.4,967.6-200.9,2005.4,18.6"/>
							<path class="st60" d="M0.4,1518.6c459.8,450.7,968.1-199.4,2005.4,18.6"/>
							<path class="st61" d="M0.4,1518.6c454.6,451.9,968.5-198,2005.4,18.6"/>
							<path class="st62" d="M0.4,1518.6c449.3,453.2,968.9-196.6,2005.4,18.6"/>
							<path class="st63" d="M0.4,1518.6c444,454.5,969.3-195.1,2005.4,18.6"/>
							<path class="st64" d="M0.4,1518.6c438.7,455.7,969.8-193.7,2005.4,18.6"/>
							<path class="st65" d="M0.4,1518.6c433.4,457,970.2-192.3,2005.4,18.6"/>
							<path class="st66" d="M0.4,1518.6c428.1,458.3,970.6-190.8,2005.4,18.6"/>
							<path class="st67" d="M0.4,1518.6c422.9,459.6,971.1-189.4,2005.4,18.6"/>
							<path class="st68" d="M0.4,1518.6c417.6,460.8,971.5-188,2005.4,18.6"/>
							<path class="st69" d="M0.4,1518.6c412.3,462.1,971.9-186.5,2005.4,18.6"/>
							<path class="st70" d="M0.4,1518.6c407,463.4,972.4-185.1,2005.4,18.6"/>
							<path class="st71" d="M0.4,1518.6c401.7,464.7,972.8-183.7,2005.4,18.6"/>
							<path class="st72" d="M0.4,1518.6c396.4,465.9,973.2-182.2,2005.4,18.6"/>
							<path class="st73" d="M0.4,1518.6c391.1,467.2,973.6-180.8,2005.4,18.6"/>
							<path class="st74" d="M0.4,1518.6c385.9,468.5,974.1-179.4,2005.4,18.6"/>
							<path class="st75" d="M0.4,1518.6c380.6,469.8,974.5-177.9,2005.4,18.6"/>
							<path class="st76" d="M0.4,1518.6c375.3,471,974.9-176.5,2005.4,18.6"/>
							<path class="st77" d="M0.4,1518.6c370,472.3,975.4-175.1,2005.4,18.6"/>
							<path class="st78" d="M0.4,1518.6c364.7,473.6,975.8-173.6,2005.4,18.6"/>
							<path class="st79" d="M0.4,1518.6c359.4,474.8,976.2-172.2,2005.4,18.6"/>
							<path class="st80" d="M0.4,1518.6c354.1,476.1,976.7-170.8,2005.4,18.6"/>
							<path class="st81" d="M0.4,1518.6c348.9,477.4,977.1-169.3,2005.4,18.6"/>
							<path class="st82" d="M0.4,1518.6c343.6,478.7,977.5-167.9,2005.4,18.6"/>
							<path class="st83" d="M0.4,1518.6c338.3,479.9,977.9-166.5,2005.4,18.6"/>
						</g>
					</g>
				</g>
			</g>
		</g>
	</g>
</g>
</svg>
